{
 "cells": [
  {
   "cell_type": "markdown",
   "id": "ceb8ad7a-9dc2-465f-ac31-629c2adf9b47",
   "metadata": {},
   "source": [
    "# ECE176 Final Project"
   ]
  },
  {
   "cell_type": "code",
   "execution_count": 1,
   "id": "d98ec15a-462b-41cc-8525-610cbfbdd238",
   "metadata": {},
   "outputs": [],
   "source": [
    "# Import Packages\n",
    "import numpy as np\n",
    "import matplotlib.pyplot as plt\n",
    "import os\n",
    "import pickle\n",
    "import json\n",
    "import seaborn as sns"
   ]
  },
  {
   "cell_type": "markdown",
   "id": "742efd9c-42ce-40ee-bfc3-d31ab6a61a7b",
   "metadata": {},
   "source": [
    "## Dataset"
   ]
  },
  {
   "cell_type": "code",
   "execution_count": 5,
   "id": "893b0909-6f2b-4537-8952-43d1c9ffa0e6",
   "metadata": {},
   "outputs": [
    {
     "name": "stdout",
     "output_type": "stream",
     "text": [
      "2.6.0\n",
      "False\n",
      "None\n",
      "CUDA device not available.\n"
     ]
    }
   ],
   "source": [
    "import torch\n",
    "print(torch.__version__)          # Should show a version with CUDA (not CPU)\n",
    "print(torch.cuda.is_available())  # Should return True\n",
    "print(torch.version.cuda)         # Should match your CUDA version\n",
    "\n",
    "if torch.cuda.is_available():\n",
    "    device = torch.device(\"cuda\")\n",
    "    gpu_name = torch.cuda.get_device_name(device)\n",
    "    gpu_capability = torch.cuda.get_device_capability(device)\n",
    "    total_memory = torch.cuda.get_device_properties(device).total_memory / 1e9  # Convert to GB\n",
    "\n",
    "    print(f\"GPU Name: {gpu_name}\")\n",
    "    print(f\"Compute Capability: {gpu_capability}\")\n",
    "    print(f\"Total Memory: {total_memory:.2f} GB\")\n",
    "else:\n",
    "    print(\"CUDA device not available.\")\n"
   ]
  },
  {
   "cell_type": "code",
   "execution_count": 3,
   "id": "bdbc2f9f-96a2-4347-b695-1dabcb6b7430",
   "metadata": {},
   "outputs": [
    {
     "name": "stdout",
     "output_type": "stream",
     "text": [
      "Train set contains: 8000 files\n",
      "Validation set contains: 1000 files\n",
      "Test set contains: 1000 files\n",
      "\n",
      "Intersections:\n",
      "Train ∩ Validation: set()\n",
      "Train ∩ Test: set()\n",
      "Validation ∩ Test: set()\n",
      "\n",
      "✅ All splits are correct and all files are unique!\n"
     ]
    }
   ],
   "source": [
    "import os\n",
    "\n",
    "# Directories for the splits\n",
    "train_dir = \"datasets/raw_midi/train\"\n",
    "val_dir = \"datasets/raw_midi/val\"\n",
    "test_dir = \"datasets/raw_midi/test\"\n",
    "\n",
    "# Get file lists for each split\n",
    "train_files = os.listdir(train_dir)\n",
    "val_files = os.listdir(val_dir)\n",
    "test_files = os.listdir(test_dir)\n",
    "\n",
    "# Convert to sets for uniqueness testing\n",
    "train_set = set(train_files)\n",
    "val_set = set(val_files)\n",
    "test_set = set(test_files)\n",
    "\n",
    "# Print the number of files in each split\n",
    "print(f\"Train set contains: {len(train_files)} files\")\n",
    "print(f\"Validation set contains: {len(val_files)} files\")\n",
    "print(f\"Test set contains: {len(test_files)} files\")\n",
    "\n",
    "# Check for uniqueness within each split\n",
    "assert len(train_files) == len(train_set), \"There are duplicate files in the train split!\"\n",
    "assert len(val_files) == len(val_set), \"There are duplicate files in the validation split!\"\n",
    "assert len(test_files) == len(test_set), \"There are duplicate files in the test split!\"\n",
    "\n",
    "# Check for uniqueness across splits (no file should appear in more than one split)\n",
    "intersection_train_val = train_set.intersection(val_set)\n",
    "intersection_train_test = train_set.intersection(test_set)\n",
    "intersection_val_test = val_set.intersection(test_set)\n",
    "\n",
    "print(\"\\nIntersections:\")\n",
    "print(f\"Train ∩ Validation: {intersection_train_val}\")\n",
    "print(f\"Train ∩ Test: {intersection_train_test}\")\n",
    "print(f\"Validation ∩ Test: {intersection_val_test}\")\n",
    "\n",
    "assert not intersection_train_val, \"Some files are present in both train and validation splits!\"\n",
    "assert not intersection_train_test, \"Some files are present in both train and test splits!\"\n",
    "assert not intersection_val_test, \"Some files are present in both validation and test splits!\"\n",
    "\n",
    "print(\"\\n✅ All splits are correct and all files are unique!\")\n"
   ]
  },
  {
   "cell_type": "code",
   "execution_count": 4,
   "id": "e2ef5995-86f2-429c-8d31-671ae94cd74e",
   "metadata": {},
   "outputs": [
    {
     "name": "stdout",
     "output_type": "stream",
     "text": [
      "Loaded 1000 tokenized sequences from datasets/tokenized/train\n"
     ]
    }
   ],
   "source": [
    "# Paths\n",
    "TRAIN_DATA_PATH = \"datasets/tokenized/train\"\n",
    "VOCAB_PATH = \"datasets/vocab/basic_vocab.json\"\n",
    "\n",
    "# Load vocabulary\n",
    "with open(VOCAB_PATH, \"r\") as f:\n",
    "    vocab = json.load(f)\n",
    "\n",
    "# Reverse vocab (ID -> Token)\n",
    "id_to_token = {v: k for k, v in vocab.items()}\n",
    "\n",
    "# Load tokenized sequences\n",
    "def load_all_sequences(data_path, max_files=1000):\n",
    "    \"\"\"Loads all tokenized sequences from the specified dataset path.\"\"\"\n",
    "    sequences = []\n",
    "    files = sorted(os.listdir(data_path))[:max_files]  # Limit for performance\n",
    "    for file in files:\n",
    "        if file.endswith(\".pkl\"):\n",
    "            with open(os.path.join(data_path, file), \"rb\") as f:\n",
    "                seq = pickle.load(f)\n",
    "                if len(seq) == 0:\n",
    "                    print(file)\n",
    "                sequences.append(seq)\n",
    "    return sequences\n",
    "\n",
    "train_sequences = load_all_sequences(TRAIN_DATA_PATH)\n",
    "print(f\"Loaded {len(train_sequences)} tokenized sequences from {TRAIN_DATA_PATH}\")"
   ]
  },
  {
   "cell_type": "code",
   "execution_count": 6,
   "id": "49588e3e",
   "metadata": {},
   "outputs": [
    {
     "name": "stdout",
     "output_type": "stream",
     "text": [
      "24715\n",
      "Decoded Tokens: ['NOTE_ON_65', 'VELOCITY_17', 'NOTE_ON_65', 'VELOCITY_18', 'NOTE_ON_70', 'VELOCITY_16', 'NOTE_ON_51', 'VELOCITY_17', 'NOTE_ON_50', 'VELOCITY_19', 'NOTE_ON_50', 'VELOCITY_19', 'NOTE_ON_57', 'VELOCITY_17', 'NOTE_ON_65', 'VELOCITY_17', 'NOTE_ON_35', 'VELOCITY_25', 'NOTE_ON_62', 'VELOCITY_20', 'TIME_SHIFT_30ms', 'TIME_SHIFT_10ms', 'NOTE_ON_77', 'VELOCITY_29', 'TIME_SHIFT_50ms', 'TIME_SHIFT_150ms', 'NOTE_OFF_65', 'TIME_SHIFT_60ms', 'TIME_SHIFT_10ms', 'NOTE_OFF_65', 'TIME_SHIFT_10ms', 'TIME_SHIFT_10ms', 'NOTE_ON_57', 'VELOCITY_17', 'NOTE_ON_57', 'VELOCITY_14', 'NOTE_OFF_70', 'NOTE_OFF_35', 'NOTE_ON_36', 'VELOCITY_14', 'NOTE_ON_70', 'VELOCITY_9', 'TIME_SHIFT_310ms', 'TIME_SHIFT_10ms', 'NOTE_ON_36', 'VELOCITY_14', 'NOTE_ON_70', 'VELOCITY_7', 'NOTE_OFF_36', 'NOTE_OFF_70', 'NOTE_ON_62', 'VELOCITY_22', 'NOTE_ON_62', 'VELOCITY_16', 'TIME_SHIFT_280ms', 'TIME_SHIFT_10ms', 'NOTE_OFF_62', 'TIME_SHIFT_10ms', 'TIME_SHIFT_10ms', 'NOTE_OFF_77', 'TIME_SHIFT_10ms', 'TIME_SHIFT_10ms', 'NOTE_OFF_51', 'NOTE_OFF_70', 'NOTE_ON_70', 'VELOCITY_17', 'NOTE_ON_51', 'VELOCITY_17', 'NOTE_OFF_36', 'TIME_SHIFT_10ms', 'TIME_SHIFT_10ms', 'NOTE_ON_74', 'VELOCITY_22', 'TIME_SHIFT_100ms', 'NOTE_OFF_57', 'TIME_SHIFT_10ms', 'TIME_SHIFT_10ms', 'NOTE_OFF_62', 'TIME_SHIFT_80ms', 'TIME_SHIFT_10ms', 'NOTE_OFF_57', 'TIME_SHIFT_100ms', 'NOTE_ON_65', 'VELOCITY_19', 'NOTE_ON_70', 'VELOCITY_9', 'NOTE_ON_43', 'VELOCITY_15', 'NOTE_OFF_70', 'NOTE_ON_65', 'VELOCITY_18', 'TIME_SHIFT_200ms', 'TIME_SHIFT_10ms', 'TIME_SHIFT_10ms', 'NOTE_OFF_65', 'TIME_SHIFT_10ms', 'TIME_SHIFT_10ms', 'TIME_SHIFT_50ms', 'TIME_SHIFT_30ms', 'TIME_SHIFT_10ms', 'NOTE_ON_70', 'VELOCITY_9', 'NOTE_OFF_43', 'NOTE_ON_45', 'VELOCITY_14', 'NOTE_ON_57', 'VELOCITY_15', 'NOTE_ON_57', 'VELOCITY_14', 'NOTE_OFF_70', 'TIME_SHIFT_10ms', 'TIME_SHIFT_10ms', 'TIME_SHIFT_30ms', 'TIME_SHIFT_10ms', 'NOTE_OFF_65', 'TIME_SHIFT_50ms', 'TIME_SHIFT_130ms', 'TIME_SHIFT_10ms', 'TIME_SHIFT_80ms', 'TIME_SHIFT_10ms', 'NOTE_OFF_70', 'NOTE_ON_70', 'VELOCITY_13', 'NOTE_ON_51', 'VELOCITY_16', 'NOTE_ON_62', 'VELOCITY_18', 'NOTE_OFF_45', 'NOTE_OFF_51', 'TIME_SHIFT_50ms', 'TIME_SHIFT_30ms', 'TIME_SHIFT_10ms', 'NOTE_OFF_62', 'TIME_SHIFT_10ms', 'TIME_SHIFT_10ms', 'NOTE_OFF_57', 'TIME_SHIFT_30ms', 'TIME_SHIFT_10ms', 'TIME_SHIFT_50ms', 'TIME_SHIFT_60ms', 'TIME_SHIFT_10ms', 'TIME_SHIFT_60ms', 'TIME_SHIFT_10ms', 'NOTE_ON_69', 'VELOCITY_22', 'NOTE_OFF_70', 'NOTE_ON_70', 'VELOCITY_10', 'NOTE_ON_65', 'VELOCITY_15', 'TIME_SHIFT_10ms', 'TIME_SHIFT_10ms', 'NOTE_OFF_57', 'TIME_SHIFT_110ms', 'TIME_SHIFT_10ms', 'TIME_SHIFT_110ms', 'TIME_SHIFT_10ms', 'NOTE_OFF_65', 'NOTE_OFF_74', 'TIME_SHIFT_10ms', 'TIME_SHIFT_10ms', 'NOTE_ON_69', 'VELOCITY_23', 'TIME_SHIFT_30ms', 'TIME_SHIFT_10ms', 'NOTE_OFF_69', 'TIME_SHIFT_10ms', 'TIME_SHIFT_10ms', 'NOTE_OFF_70', 'NOTE_ON_70', 'VELOCITY_8', 'NOTE_ON_62', 'VELOCITY_19', 'NOTE_ON_57', 'VELOCITY_13', 'TIME_SHIFT_160ms', 'TIME_SHIFT_10ms', 'TIME_SHIFT_50ms', 'NOTE_OFF_57', 'NOTE_OFF_50', 'TIME_SHIFT_50ms', 'NOTE_OFF_69', 'TIME_SHIFT_50ms', 'NOTE_OFF_51', 'NOTE_ON_50', 'VELOCITY_3', 'NOTE_ON_54', 'VELOCITY_18', 'NOTE_OFF_70', 'NOTE_ON_70', 'VELOCITY_15', 'NOTE_ON_51', 'VELOCITY_18', 'NOTE_ON_62', 'VELOCITY_15', 'NOTE_ON_77', 'VELOCITY_23', 'TIME_SHIFT_30ms', 'TIME_SHIFT_10ms', 'NOTE_OFF_62', 'TIME_SHIFT_30ms', 'TIME_SHIFT_10ms', 'TIME_SHIFT_150ms', 'NOTE_OFF_50', 'TIME_SHIFT_100ms', 'NOTE_ON_57', 'VELOCITY_11', 'NOTE_ON_79', 'VELOCITY_21', 'NOTE_ON_70', 'VELOCITY_9', 'NOTE_OFF_70', 'NOTE_ON_57', 'VELOCITY_16', 'TIME_SHIFT_10ms', 'TIME_SHIFT_10ms', 'NOTE_OFF_62', 'TIME_SHIFT_10ms', 'TIME_SHIFT_10ms', 'TIME_SHIFT_30ms', 'TIME_SHIFT_10ms', 'NOTE_OFF_77', 'TIME_SHIFT_10ms', 'TIME_SHIFT_10ms', 'NOTE_OFF_50', 'TIME_SHIFT_60ms', 'TIME_SHIFT_10ms', 'NOTE_OFF_57', 'NOTE_OFF_70', 'NOTE_ON_70', 'VELOCITY_8', 'TIME_SHIFT_60ms', 'TIME_SHIFT_10ms', 'TIME_SHIFT_60ms', 'TIME_SHIFT_10ms', 'NOTE_OFF_79', 'TIME_SHIFT_30ms', 'TIME_SHIFT_10ms', 'NOTE_ON_62', 'VELOCITY_19', 'NOTE_ON_70', 'VELOCITY_10', 'NOTE_OFF_70', 'NOTE_ON_74', 'VELOCITY_21', 'TIME_SHIFT_100ms', 'TIME_SHIFT_50ms', 'NOTE_ON_70', 'VELOCITY_13', 'NOTE_OFF_70', 'TIME_SHIFT_10ms', 'TIME_SHIFT_10ms', 'NOTE_OFF_57', 'TIME_SHIFT_30ms', 'TIME_SHIFT_10ms', 'TIME_SHIFT_10ms', 'TIME_SHIFT_10ms', 'TIME_SHIFT_50ms', 'NOTE_OFF_62', 'TIME_SHIFT_30ms', 'TIME_SHIFT_10ms', 'NOTE_OFF_74', 'TIME_SHIFT_10ms', 'TIME_SHIFT_10ms', 'NOTE_ON_64', 'VELOCITY_18', 'NOTE_OFF_51', 'NOTE_OFF_70', 'NOTE_ON_60', 'VELOCITY_21', 'NOTE_OFF_54', 'NOTE_ON_76', 'VELOCITY_22', 'NOTE_ON_45', 'VELOCITY_20', 'NOTE_ON_70', 'VELOCITY_16', 'NOTE_ON_64', 'VELOCITY_22', 'NOTE_ON_51', 'VELOCITY_17', 'NOTE_ON_45', 'VELOCITY_16', 'NOTE_ON_57', 'VELOCITY_20', 'NOTE_ON_64', 'VELOCITY_17', 'NOTE_ON_35', 'VELOCITY_25', 'NOTE_OFF_57', 'NOTE_OFF_62', 'NOTE_OFF_65', 'TIME_SHIFT_50ms', 'TIME_SHIFT_100ms', 'NOTE_OFF_64', 'TIME_SHIFT_130ms', 'TIME_SHIFT_10ms', 'NOTE_OFF_64', 'TIME_SHIFT_10ms', 'TIME_SHIFT_10ms', 'NOTE_ON_70', 'VELOCITY_9', 'NOTE_OFF_35', 'NOTE_OFF_70', 'NOTE_ON_36', 'VELOCITY_14', 'NOTE_ON_52', 'VELOCITY_18', 'NOTE_ON_60', 'VELOCITY_13', 'NOTE_ON_52', 'VELOCITY_8', 'TIME_SHIFT_300ms', 'NOTE_OFF_60', 'TIME_SHIFT_10ms', 'TIME_SHIFT_10ms', 'NOTE_OFF_70', 'NOTE_ON_57', 'VELOCITY_17', 'NOTE_OFF_36', 'NOTE_ON_36', 'VELOCITY_14', 'NOTE_ON_70', 'VELOCITY_7', 'NOTE_ON_64', 'VELOCITY_14', 'TIME_SHIFT_110ms', 'TIME_SHIFT_10ms', 'TIME_SHIFT_30ms', 'TIME_SHIFT_10ms', 'TIME_SHIFT_30ms', 'TIME_SHIFT_10ms', 'TIME_SHIFT_110ms', 'TIME_SHIFT_10ms', 'TIME_SHIFT_10ms', 'TIME_SHIFT_10ms', 'NOTE_OFF_51', 'NOTE_OFF_36', 'NOTE_ON_70', 'VELOCITY_17', 'NOTE_ON_55', 'VELOCITY_13', 'NOTE_ON_51', 'VELOCITY_17', 'NOTE_OFF_70', 'NOTE_ON_67', 'VELOCITY_17', 'TIME_SHIFT_10ms', 'TIME_SHIFT_10ms', 'TIME_SHIFT_10ms', 'TIME_SHIFT_10ms', 'NOTE_OFF_64', 'TIME_SHIFT_30ms', 'TIME_SHIFT_10ms', 'NOTE_ON_72', 'VELOCITY_21', 'TIME_SHIFT_30ms', 'TIME_SHIFT_10ms', 'NOTE_OFF_76', 'TIME_SHIFT_180ms', 'TIME_SHIFT_10ms', 'NOTE_OFF_67', 'TIME_SHIFT_30ms', 'TIME_SHIFT_10ms', 'NOTE_ON_60', 'VELOCITY_8', 'NOTE_ON_70', 'VELOCITY_9', 'NOTE_ON_43', 'VELOCITY_15', 'NOTE_ON_64', 'VELOCITY_17', 'NOTE_OFF_70', 'TIME_SHIFT_210ms', 'TIME_SHIFT_10ms', 'NOTE_OFF_60', 'TIME_SHIFT_30ms', 'TIME_SHIFT_10ms', 'NOTE_OFF_55', 'TIME_SHIFT_30ms', 'TIME_SHIFT_10ms', 'TIME_SHIFT_10ms', 'TIME_SHIFT_10ms', 'NOTE_OFF_64', 'TIME_SHIFT_10ms', 'TIME_SHIFT_10ms', 'NOTE_OFF_70', 'NOTE_OFF_43', 'NOTE_ON_45', 'VELOCITY_14', 'NOTE_ON_70', 'VELOCITY_9', 'NOTE_ON_69', 'VELOCITY_16', 'NOTE_ON_60', 'VELOCITY_14', 'NOTE_OFF_57', 'TIME_SHIFT_10ms', 'TIME_SHIFT_10ms', 'TIME_SHIFT_50ms', 'TIME_SHIFT_60ms', 'TIME_SHIFT_10ms', 'TIME_SHIFT_80ms', 'TIME_SHIFT_10ms', 'TIME_SHIFT_60ms', 'TIME_SHIFT_10ms', 'TIME_SHIFT_30ms', 'TIME_SHIFT_10ms', 'NOTE_OFF_45', 'NOTE_ON_57', 'VELOCITY_13', 'NOTE_OFF_51', 'NOTE_ON_51', 'VELOCITY_16', 'NOTE_OFF_70', 'NOTE_ON_70', 'VELOCITY_13', 'TIME_SHIFT_10ms', 'TIME_SHIFT_10ms', 'TIME_SHIFT_50ms', 'TIME_SHIFT_50ms', 'TIME_SHIFT_30ms', 'TIME_SHIFT_10ms', 'TIME_SHIFT_10ms', 'TIME_SHIFT_10ms', 'NOTE_OFF_60', 'TIME_SHIFT_60ms', 'TIME_SHIFT_10ms', 'TIME_SHIFT_10ms', 'TIME_SHIFT_10ms', 'NOTE_OFF_69', 'TIME_SHIFT_10ms', 'TIME_SHIFT_10ms', 'NOTE_OFF_52', 'TIME_SHIFT_50ms', 'NOTE_OFF_70', 'NOTE_ON_50', 'VELOCITY_19', 'NOTE_ON_70', 'VELOCITY_10', 'NOTE_ON_60', 'VELOCITY_9', 'NOTE_ON_67', 'VELOCITY_22', 'TIME_SHIFT_50ms', 'NOTE_OFF_57', 'TIME_SHIFT_30ms', 'TIME_SHIFT_10ms', 'TIME_SHIFT_110ms', 'TIME_SHIFT_10ms', 'TIME_SHIFT_60ms', 'TIME_SHIFT_10ms', 'TIME_SHIFT_50ms', 'NOTE_ON_47', 'VELOCITY_17', 'NOTE_ON_64', 'VELOCITY_14', 'NOTE_OFF_50', 'NOTE_ON_70', 'VELOCITY_8', 'NOTE_OFF_70', 'NOTE_ON_64', 'VELOCITY_13', 'TIME_SHIFT_10ms', 'TIME_SHIFT_10ms', 'NOTE_OFF_67', 'TIME_SHIFT_50ms', 'TIME_SHIFT_110ms', 'TIME_SHIFT_10ms', 'TIME_SHIFT_30ms', 'TIME_SHIFT_10ms', 'NOTE_OFF_64', 'TIME_SHIFT_50ms', 'TIME_SHIFT_30ms', 'TIME_SHIFT_10ms', 'NOTE_OFF_60', 'TIME_SHIFT_10ms', 'TIME_SHIFT_10ms', 'NOTE_OFF_51', 'NOTE_ON_54', 'VELOCITY_18', 'NOTE_ON_83', 'VELOCITY_14', 'NOTE_OFF_70', 'NOTE_ON_57', 'VELOCITY_13', 'NOTE_OFF_47', 'NOTE_ON_55', 'VELOCITY_7', 'NOTE_ON_70', 'VELOCITY_15', 'NOTE_ON_51', 'VELOCITY_18', 'TIME_SHIFT_60ms', 'TIME_SHIFT_10ms', 'NOTE_OFF_64', 'TIME_SHIFT_50ms', 'TIME_SHIFT_80ms', 'TIME_SHIFT_10ms', 'TIME_SHIFT_30ms', 'TIME_SHIFT_10ms', 'NOTE_OFF_57', 'NOTE_OFF_45', 'NOTE_OFF_55', 'NOTE_OFF_52', 'NOTE_OFF_45', 'TIME_SHIFT_80ms', 'TIME_SHIFT_10ms', 'NOTE_ON_60', 'VELOCITY_9', 'NOTE_ON_70', 'VELOCITY_9', 'NOTE_OFF_70', 'NOTE_ON_60', 'VELOCITY_10', 'TIME_SHIFT_150ms', 'NOTE_OFF_70', 'NOTE_ON_70', 'VELOCITY_8', 'TIME_SHIFT_30ms', 'TIME_SHIFT_10ms', 'NOTE_OFF_60', 'TIME_SHIFT_130ms', 'TIME_SHIFT_10ms', 'NOTE_OFF_70', 'NOTE_ON_70', 'VELOCITY_10', 'NOTE_ON_64', 'VELOCITY_10', 'TIME_SHIFT_60ms', 'TIME_SHIFT_10ms', 'NOTE_OFF_64', 'TIME_SHIFT_80ms', 'TIME_SHIFT_10ms', 'NOTE_OFF_60', 'NOTE_OFF_70', 'NOTE_ON_70', 'VELOCITY_13', 'TIME_SHIFT_10ms', 'TIME_SHIFT_10ms', 'NOTE_OFF_72', 'TIME_SHIFT_10ms', 'TIME_SHIFT_10ms', 'TIME_SHIFT_50ms', 'TIME_SHIFT_80ms', 'TIME_SHIFT_10ms', 'NOTE_OFF_57', 'NOTE_OFF_64', 'NOTE_OFF_51', 'NOTE_OFF_83', 'NOTE_OFF_70', 'NOTE_OFF_60', 'NOTE_OFF_54', 'NOTE_ON_43', 'VELOCITY_16', 'NOTE_ON_58', 'VELOCITY_17', 'NOTE_ON_62', 'VELOCITY_22', 'NOTE_ON_62', 'VELOCITY_17', 'NOTE_ON_43', 'VELOCITY_16', 'NOTE_ON_62', 'VELOCITY_17', 'NOTE_ON_35', 'VELOCITY_25', 'NOTE_ON_55', 'VELOCITY_19', 'NOTE_ON_51', 'VELOCITY_17', 'NOTE_ON_70', 'VELOCITY_16', 'TIME_SHIFT_10ms', 'TIME_SHIFT_10ms', 'NOTE_ON_70', 'VELOCITY_25', 'TIME_SHIFT_10ms', 'TIME_SHIFT_10ms', 'TIME_SHIFT_50ms', 'TIME_SHIFT_50ms', 'TIME_SHIFT_30ms', 'TIME_SHIFT_10ms', 'NOTE_OFF_62', 'TIME_SHIFT_130ms', 'TIME_SHIFT_10ms', 'TIME_SHIFT_10ms', 'TIME_SHIFT_10ms', 'NOTE_OFF_70', 'NOTE_ON_36', 'VELOCITY_14', 'NOTE_OFF_35', 'NOTE_OFF_62', 'NOTE_ON_70', 'VELOCITY_9', 'NOTE_ON_50', 'VELOCITY_12', 'NOTE_ON_50', 'VELOCITY_18', 'TIME_SHIFT_50ms', 'TIME_SHIFT_50ms', 'TIME_SHIFT_110ms', 'TIME_SHIFT_10ms', 'TIME_SHIFT_50ms', 'TIME_SHIFT_50ms', 'NOTE_ON_55', 'VELOCITY_16', 'NOTE_ON_55', 'VELOCITY_14', 'NOTE_ON_70', 'VELOCITY_7', 'NOTE_OFF_36', 'NOTE_ON_36', 'VELOCITY_14', 'NOTE_OFF_70', 'TIME_SHIFT_50ms', 'TIME_SHIFT_60ms', 'TIME_SHIFT_10ms', 'TIME_SHIFT_160ms', 'TIME_SHIFT_10ms', 'NOTE_OFF_70', 'TIME_SHIFT_30ms', 'TIME_SHIFT_10ms', 'NOTE_OFF_70', 'NOTE_ON_51', 'VELOCITY_17', 'NOTE_OFF_51', 'NOTE_ON_62', 'VELOCITY_21', 'NOTE_ON_70', 'VELOCITY_17', 'NOTE_OFF_36', 'TIME_SHIFT_10ms', 'TIME_SHIFT_10ms', 'NOTE_ON_67', 'VELOCITY_22', 'TIME_SHIFT_180ms', 'TIME_SHIFT_10ms', 'TIME_SHIFT_80ms', 'TIME_SHIFT_10ms', 'NOTE_OFF_62', 'TIME_SHIFT_30ms', 'TIME_SHIFT_10ms', 'NOTE_ON_58', 'VELOCITY_13', 'NOTE_ON_62', 'VELOCITY_18', 'NOTE_ON_43', 'VELOCITY_15', 'NOTE_ON_70', 'VELOCITY_9', 'NOTE_ON_58', 'VELOCITY_10', 'NOTE_OFF_70', 'TIME_SHIFT_60ms', 'TIME_SHIFT_10ms', 'NOTE_OFF_58', 'NOTE_OFF_50', 'TIME_SHIFT_30ms', 'TIME_SHIFT_10ms', 'NOTE_OFF_62', 'TIME_SHIFT_60ms', 'TIME_SHIFT_10ms', 'NOTE_OFF_55', 'TIME_SHIFT_130ms', 'TIME_SHIFT_10ms', 'NOTE_ON_58', 'VELOCITY_10', 'NOTE_OFF_43', 'NOTE_ON_70', 'VELOCITY_9', 'NOTE_ON_45', 'VELOCITY_14', 'NOTE_ON_62', 'VELOCITY_20', 'NOTE_ON_62', 'VELOCITY_11', 'NOTE_OFF_70', 'TIME_SHIFT_150ms', 'NOTE_OFF_62', 'TIME_SHIFT_30ms', 'TIME_SHIFT_10ms', 'NOTE_OFF_43', 'TIME_SHIFT_110ms', 'TIME_SHIFT_10ms', 'NOTE_OFF_58', 'NOTE_OFF_62', 'TIME_SHIFT_10ms', 'TIME_SHIFT_10ms', 'NOTE_OFF_70', 'NOTE_ON_70', 'VELOCITY_13', 'NOTE_ON_67', 'VELOCITY_22', 'NOTE_ON_51', 'VELOCITY_16', 'NOTE_OFF_45', 'NOTE_OFF_51', 'TIME_SHIFT_130ms', 'TIME_SHIFT_10ms', 'NOTE_OFF_67', 'TIME_SHIFT_60ms', 'TIME_SHIFT_10ms', 'NOTE_OFF_58', 'TIME_SHIFT_110ms', 'TIME_SHIFT_10ms', 'NOTE_ON_70', 'VELOCITY_10', 'NOTE_ON_67', 'VELOCITY_19', 'NOTE_ON_58', 'VELOCITY_12', 'NOTE_OFF_70', 'TIME_SHIFT_230ms', 'TIME_SHIFT_10ms', 'NOTE_OFF_58', 'TIME_SHIFT_30ms', 'TIME_SHIFT_10ms', 'NOTE_OFF_67', 'TIME_SHIFT_30ms', 'TIME_SHIFT_10ms', 'NOTE_ON_62', 'VELOCITY_16', 'NOTE_OFF_67', 'TIME_SHIFT_10ms', 'TIME_SHIFT_10ms', 'NOTE_ON_70', 'VELOCITY_8', 'NOTE_ON_62', 'VELOCITY_15', 'NOTE_OFF_70', 'NOTE_ON_69', 'VELOCITY_14', 'TIME_SHIFT_250ms', 'NOTE_OFF_69', 'TIME_SHIFT_60ms', 'TIME_SHIFT_10ms', 'NOTE_OFF_51', 'NOTE_ON_55', 'VELOCITY_16', 'NOTE_ON_54', 'VELOCITY_18', 'NOTE_OFF_62', 'NOTE_ON_70', 'VELOCITY_15', 'NOTE_ON_51', 'VELOCITY_18', 'NOTE_ON_70', 'VELOCITY_18', 'NOTE_OFF_70', 'TIME_SHIFT_50ms', 'NOTE_OFF_62', 'TIME_SHIFT_160ms', 'TIME_SHIFT_10ms', 'NOTE_OFF_50', 'TIME_SHIFT_30ms', 'TIME_SHIFT_10ms', 'NOTE_OFF_43', 'TIME_SHIFT_30ms', 'TIME_SHIFT_10ms', 'NOTE_OFF_55', 'TIME_SHIFT_30ms', 'TIME_SHIFT_10ms', 'NOTE_ON_58', 'VELOCITY_13', 'NOTE_ON_74', 'VELOCITY_21', 'NOTE_OFF_70', 'NOTE_ON_70', 'VELOCITY_9', 'NOTE_ON_58', 'VELOCITY_15', 'TIME_SHIFT_50ms', 'NOTE_OFF_55', 'NOTE_OFF_70', 'TIME_SHIFT_110ms', 'TIME_SHIFT_10ms', 'NOTE_OFF_70', 'NOTE_ON_70', 'VELOCITY_8', 'TIME_SHIFT_100ms', 'NOTE_OFF_74', 'TIME_SHIFT_10ms', 'TIME_SHIFT_10ms', 'NOTE_ON_67', 'VELOCITY_19', 'TIME_SHIFT_30ms', 'TIME_SHIFT_10ms', 'NOTE_ON_62', 'VELOCITY_7', 'NOTE_ON_70', 'VELOCITY_10', 'NOTE_OFF_70', 'TIME_SHIFT_10ms', 'TIME_SHIFT_10ms', 'NOTE_OFF_58', 'TIME_SHIFT_80ms', 'TIME_SHIFT_10ms', 'NOTE_OFF_62', 'TIME_SHIFT_50ms', 'NOTE_OFF_58', 'TIME_SHIFT_10ms', 'TIME_SHIFT_10ms', 'NOTE_ON_70', 'VELOCITY_13', 'NOTE_OFF_70', 'TIME_SHIFT_60ms', 'TIME_SHIFT_10ms', 'TIME_SHIFT_50ms', 'NOTE_OFF_67', 'TIME_SHIFT_10ms', 'TIME_SHIFT_10ms', 'NOTE_ON_69', 'VELOCITY_22', 'TIME_SHIFT_10ms', 'TIME_SHIFT_10ms', 'NOTE_OFF_58', 'NOTE_OFF_62', 'NOTE_OFF_55', 'NOTE_OFF_54', 'NOTE_OFF_51', 'NOTE_OFF_70', 'NOTE_ON_62', 'VELOCITY_21', 'NOTE_ON_50', 'VELOCITY_22', 'NOTE_ON_70', 'VELOCITY_16', 'NOTE_ON_50', 'VELOCITY_19', 'NOTE_ON_51', 'VELOCITY_17', 'NOTE_ON_57', 'VELOCITY_19', 'NOTE_ON_35', 'VELOCITY_25', 'NOTE_ON_65', 'VELOCITY_18', 'TIME_SHIFT_50ms', 'TIME_SHIFT_10ms', 'TIME_SHIFT_10ms', 'TIME_SHIFT_250ms', 'NOTE_OFF_70', 'NOTE_ON_36', 'VELOCITY_14', 'NOTE_ON_70', 'VELOCITY_9', 'NOTE_OFF_35', 'NOTE_ON_57', 'VELOCITY_9', 'NOTE_ON_53', 'VELOCITY_16', 'TIME_SHIFT_200ms', 'NOTE_OFF_57', 'TIME_SHIFT_110ms', 'TIME_SHIFT_10ms', 'NOTE_ON_70', 'VELOCITY_7', 'NOTE_ON_65', 'VELOCITY_13', 'NOTE_OFF_70', 'NOTE_ON_57', 'VELOCITY_15', 'NOTE_ON_36', 'VELOCITY_14', 'NOTE_OFF_36', 'TIME_SHIFT_280ms', 'TIME_SHIFT_10ms', 'NOTE_OFF_57', 'TIME_SHIFT_10ms', 'TIME_SHIFT_10ms', 'NOTE_OFF_69', 'TIME_SHIFT_10ms', 'TIME_SHIFT_10ms', 'NOTE_OFF_36', 'NOTE_ON_65', 'VELOCITY_22', 'NOTE_ON_65', 'VELOCITY_20', 'NOTE_OFF_51', 'NOTE_ON_51', 'VELOCITY_17', 'NOTE_ON_70', 'VELOCITY_17', 'NOTE_OFF_70', 'TIME_SHIFT_230ms', 'TIME_SHIFT_10ms', 'NOTE_OFF_65', 'TIME_SHIFT_10ms', 'TIME_SHIFT_10ms', 'NOTE_OFF_65', 'TIME_SHIFT_60ms', 'TIME_SHIFT_10ms', 'NOTE_ON_57', 'VELOCITY_13', 'NOTE_ON_70', 'VELOCITY_9', 'NOTE_ON_43', 'VELOCITY_15', 'NOTE_OFF_70', 'NOTE_ON_62', 'VELOCITY_14', 'TIME_SHIFT_260ms', 'TIME_SHIFT_10ms', 'TIME_SHIFT_10ms', 'TIME_SHIFT_10ms', 'NOTE_OFF_50', 'NOTE_OFF_62', 'TIME_SHIFT_30ms', 'TIME_SHIFT_10ms', 'NOTE_ON_64', 'VELOCITY_18', 'NOTE_ON_57', 'VELOCITY_10', 'NOTE_OFF_53', 'NOTE_ON_45', 'VELOCITY_14', 'NOTE_ON_70', 'VELOCITY_9', 'NOTE_OFF_70', 'NOTE_OFF_43', 'TIME_SHIFT_30ms', 'TIME_SHIFT_10ms', 'TIME_SHIFT_80ms', 'TIME_SHIFT_10ms', 'TIME_SHIFT_60ms', 'TIME_SHIFT_10ms', 'TIME_SHIFT_30ms', 'TIME_SHIFT_10ms', 'NOTE_OFF_57', 'TIME_SHIFT_30ms', 'TIME_SHIFT_10ms', 'TIME_SHIFT_50ms', 'TIME_SHIFT_10ms', 'TIME_SHIFT_10ms', 'NOTE_ON_51', 'VELOCITY_16', 'NOTE_OFF_70', 'NOTE_ON_70', 'VELOCITY_13', 'NOTE_OFF_45', 'NOTE_OFF_51', 'NOTE_ON_53', 'VELOCITY_13', 'TIME_SHIFT_10ms', 'TIME_SHIFT_10ms', 'TIME_SHIFT_30ms', 'TIME_SHIFT_10ms', 'TIME_SHIFT_10ms', 'TIME_SHIFT_10ms', 'NOTE_OFF_64', 'TIME_SHIFT_10ms', 'TIME_SHIFT_10ms', 'TIME_SHIFT_80ms', 'TIME_SHIFT_10ms', 'TIME_SHIFT_100ms', 'TIME_SHIFT_50ms', 'NOTE_ON_57', 'VELOCITY_13', 'NOTE_OFF_70', 'NOTE_ON_65', 'VELOCITY_9', 'NOTE_ON_50', 'VELOCITY_19', 'NOTE_ON_70', 'VELOCITY_10', 'TIME_SHIFT_30ms', 'TIME_SHIFT_10ms', 'TIME_SHIFT_10ms', 'TIME_SHIFT_10ms', 'NOTE_OFF_57', 'TIME_SHIFT_60ms', 'TIME_SHIFT_10ms', 'TIME_SHIFT_30ms', 'TIME_SHIFT_10ms', 'TIME_SHIFT_50ms', 'TIME_SHIFT_50ms', 'NOTE_OFF_65', 'TIME_SHIFT_10ms', 'TIME_SHIFT_10ms', 'NOTE_OFF_53', 'TIME_SHIFT_10ms', 'TIME_SHIFT_10ms', 'TIME_SHIFT_30ms', 'TIME_SHIFT_10ms', 'NOTE_OFF_50', 'NOTE_ON_70', 'VELOCITY_8', 'NOTE_OFF_70', 'NOTE_ON_47', 'VELOCITY_17', 'NOTE_ON_62', 'VELOCITY_16', 'NOTE_ON_65', 'VELOCITY_23', 'NOTE_OFF_57', 'TIME_SHIFT_30ms', 'TIME_SHIFT_10ms', 'TIME_SHIFT_30ms', 'TIME_SHIFT_10ms', 'TIME_SHIFT_30ms', 'TIME_SHIFT_10ms', 'TIME_SHIFT_50ms', 'TIME_SHIFT_160ms', 'TIME_SHIFT_10ms', 'NOTE_OFF_51', 'NOTE_OFF_47', 'NOTE_OFF_70', 'NOTE_ON_83', 'VELOCITY_14', 'NOTE_ON_53', 'VELOCITY_5', 'NOTE_ON_54', 'VELOCITY_18', 'NOTE_ON_51', 'VELOCITY_18', 'NOTE_ON_70', 'VELOCITY_15', 'TIME_SHIFT_10ms', 'TIME_SHIFT_10ms', 'TIME_SHIFT_30ms', 'TIME_SHIFT_10ms', 'TIME_SHIFT_30ms', 'TIME_SHIFT_10ms', 'NOTE_OFF_53', 'TIME_SHIFT_30ms', 'TIME_SHIFT_10ms', 'TIME_SHIFT_30ms', 'TIME_SHIFT_10ms', 'NOTE_OFF_50', 'TIME_SHIFT_30ms', 'TIME_SHIFT_10ms', 'TIME_SHIFT_50ms', 'TIME_SHIFT_50ms', 'NOTE_OFF_62', 'TIME_SHIFT_10ms', 'TIME_SHIFT_10ms', 'NOTE_ON_57', 'VELOCITY_14', 'NOTE_ON_70', 'VELOCITY_9', 'NOTE_OFF_70', 'NOTE_ON_57', 'VELOCITY_6', 'TIME_SHIFT_10ms', 'TIME_SHIFT_10ms', 'TIME_SHIFT_30ms', 'TIME_SHIFT_10ms', 'TIME_SHIFT_50ms', 'TIME_SHIFT_60ms', 'TIME_SHIFT_10ms', 'NOTE_ON_70', 'VELOCITY_8', 'NOTE_OFF_70', 'TIME_SHIFT_10ms', 'TIME_SHIFT_10ms', 'TIME_SHIFT_110ms', 'TIME_SHIFT_10ms', 'NOTE_OFF_65', 'NOTE_OFF_65', 'TIME_SHIFT_10ms', 'TIME_SHIFT_10ms', 'NOTE_ON_70', 'VELOCITY_10', 'NOTE_OFF_70', 'NOTE_ON_62', 'VELOCITY_17', 'TIME_SHIFT_30ms', 'TIME_SHIFT_10ms', 'NOTE_ON_69', 'VELOCITY_20', 'TIME_SHIFT_110ms', 'TIME_SHIFT_10ms', 'NOTE_OFF_57', 'TIME_SHIFT_10ms', 'TIME_SHIFT_10ms', 'NOTE_OFF_70', 'NOTE_ON_70', 'VELOCITY_13', 'NOTE_OFF_62', 'TIME_SHIFT_30ms', 'TIME_SHIFT_10ms', 'NOTE_OFF_69', 'TIME_SHIFT_10ms', 'TIME_SHIFT_10ms', 'TIME_SHIFT_50ms', 'NOTE_OFF_57', 'TIME_SHIFT_50ms', 'NOTE_OFF_65', 'NOTE_OFF_57', 'NOTE_OFF_51', 'NOTE_OFF_70', 'NOTE_OFF_54', 'NOTE_ON_52', 'VELOCITY_23', 'NOTE_ON_64', 'VELOCITY_16', 'NOTE_OFF_83', 'NOTE_OFF_62', 'NOTE_ON_68', 'VELOCITY_27', 'NOTE_ON_35', 'VELOCITY_25', 'NOTE_ON_52', 'VELOCITY_18', 'NOTE_ON_56', 'VELOCITY_17', 'NOTE_ON_51', 'VELOCITY_17', 'NOTE_ON_59', 'VELOCITY_19', 'NOTE_ON_70', 'VELOCITY_16', 'TIME_SHIFT_50ms', 'TIME_SHIFT_10ms', 'TIME_SHIFT_10ms', 'TIME_SHIFT_250ms', 'NOTE_ON_36', 'VELOCITY_14', 'NOTE_ON_70', 'VELOCITY_9', 'NOTE_OFF_35', 'NOTE_OFF_70', 'NOTE_ON_56', 'VELOCITY_10', 'NOTE_ON_56', 'VELOCITY_15', 'TIME_SHIFT_310ms', 'TIME_SHIFT_10ms', 'NOTE_ON_59', 'VELOCITY_16', 'NOTE_ON_59', 'VELOCITY_11', 'NOTE_ON_70', 'VELOCITY_7', 'NOTE_ON_36', 'VELOCITY_14', 'NOTE_OFF_70', 'NOTE_OFF_36', 'TIME_SHIFT_310ms', 'TIME_SHIFT_10ms', 'NOTE_OFF_51', 'NOTE_OFF_70', 'NOTE_OFF_59', 'NOTE_ON_51', 'VELOCITY_17', 'NOTE_ON_70', 'VELOCITY_17', 'NOTE_OFF_36', 'NOTE_ON_64', 'VELOCITY_20', 'TIME_SHIFT_10ms', 'TIME_SHIFT_10ms', 'NOTE_OFF_68', 'NOTE_ON_64', 'VELOCITY_21', 'TIME_SHIFT_80ms', 'TIME_SHIFT_10ms', 'NOTE_OFF_59', 'TIME_SHIFT_110ms', 'TIME_SHIFT_10ms', 'NOTE_OFF_64', 'TIME_SHIFT_100ms', 'NOTE_OFF_70', 'NOTE_ON_59', 'VELOCITY_11', 'NOTE_ON_43', 'VELOCITY_15', 'NOTE_ON_64', 'VELOCITY_18', 'NOTE_ON_70', 'VELOCITY_9', 'TIME_SHIFT_230ms', 'TIME_SHIFT_10ms', 'NOTE_OFF_59', 'TIME_SHIFT_30ms', 'TIME_SHIFT_10ms', 'NOTE_OFF_64', 'TIME_SHIFT_30ms', 'TIME_SHIFT_10ms', 'NOTE_OFF_52', 'NOTE_OFF_56', 'NOTE_OFF_56', 'TIME_SHIFT_10ms', 'TIME_SHIFT_10ms', 'NOTE_ON_59', 'VELOCITY_11', 'NOTE_ON_70', 'VELOCITY_9', 'NOTE_OFF_52', 'NOTE_ON_45', 'VELOCITY_14', 'NOTE_OFF_43', 'NOTE_OFF_70', 'NOTE_ON_68', 'VELOCITY_17', 'TIME_SHIFT_110ms', 'TIME_SHIFT_10ms', 'NOTE_OFF_68', 'TIME_SHIFT_200ms', 'NOTE_OFF_51', 'NOTE_OFF_70', 'NOTE_ON_56', 'VELOCITY_10', 'NOTE_ON_70', 'VELOCITY_13', 'NOTE_OFF_45', 'NOTE_ON_51', 'VELOCITY_16', 'TIME_SHIFT_100ms', 'NOTE_OFF_59', 'TIME_SHIFT_210ms', 'TIME_SHIFT_10ms', 'NOTE_ON_62', 'VELOCITY_14', 'NOTE_ON_59', 'VELOCITY_13', 'NOTE_ON_70', 'VELOCITY_10', 'NOTE_OFF_70', 'TIME_SHIFT_160ms', 'TIME_SHIFT_10ms', 'NOTE_OFF_64', 'TIME_SHIFT_100ms', 'NOTE_OFF_56', 'TIME_SHIFT_10ms', 'TIME_SHIFT_10ms', 'NOTE_ON_64', 'VELOCITY_21', 'NOTE_OFF_62', 'TIME_SHIFT_30ms', 'TIME_SHIFT_10ms', 'NOTE_ON_71', 'VELOCITY_20', 'NOTE_OFF_70', 'NOTE_ON_59', 'VELOCITY_12', 'NOTE_ON_70', 'VELOCITY_8', 'TIME_SHIFT_100ms', 'NOTE_OFF_59', 'TIME_SHIFT_200ms', 'NOTE_OFF_64', 'TIME_SHIFT_10ms', 'TIME_SHIFT_10ms', 'NOTE_ON_70', 'VELOCITY_15', 'NOTE_ON_71', 'VELOCITY_23', 'NOTE_ON_51', 'VELOCITY_18', 'NOTE_OFF_51', 'NOTE_ON_54', 'VELOCITY_18', 'NOTE_ON_56', 'VELOCITY_7', 'NOTE_OFF_70', 'NOTE_ON_56', 'VELOCITY_13', 'TIME_SHIFT_50ms', 'NOTE_OFF_59', 'TIME_SHIFT_160ms', 'TIME_SHIFT_10ms', 'NOTE_OFF_56', 'TIME_SHIFT_80ms', 'TIME_SHIFT_10ms', 'NOTE_ON_74', 'VELOCITY_22', 'TIME_SHIFT_10ms', 'TIME_SHIFT_10ms', 'NOTE_ON_70', 'VELOCITY_9', 'NOTE_ON_59', 'VELOCITY_13', 'NOTE_OFF_70', 'NOTE_OFF_71', 'NOTE_ON_59', 'VELOCITY_11', 'TIME_SHIFT_80ms', 'TIME_SHIFT_10ms', 'NOTE_OFF_56', 'TIME_SHIFT_60ms', 'TIME_SHIFT_10ms', 'NOTE_OFF_70', 'NOTE_ON_70', 'VELOCITY_8', 'TIME_SHIFT_110ms', 'TIME_SHIFT_10ms', 'NOTE_OFF_74', 'NOTE_OFF_59', 'TIME_SHIFT_30ms', 'TIME_SHIFT_10ms', 'NOTE_ON_71', 'VELOCITY_20', 'TIME_SHIFT_10ms', 'TIME_SHIFT_10ms', 'NOTE_OFF_70', 'NOTE_ON_70', 'VELOCITY_10', 'NOTE_ON_62', 'VELOCITY_7', 'TIME_SHIFT_150ms', 'NOTE_OFF_70', 'NOTE_ON_70', 'VELOCITY_13', 'TIME_SHIFT_30ms', 'TIME_SHIFT_10ms', 'TIME_SHIFT_30ms', 'TIME_SHIFT_10ms', 'TIME_SHIFT_10ms', 'TIME_SHIFT_10ms', 'NOTE_OFF_62', 'TIME_SHIFT_50ms', 'NOTE_OFF_71', 'TIME_SHIFT_30ms', 'TIME_SHIFT_10ms', 'NOTE_OFF_64', 'NOTE_OFF_51', 'NOTE_OFF_54', 'NOTE_OFF_56', 'NOTE_OFF_59', 'NOTE_OFF_70', 'NOTE_ON_45', 'VELOCITY_25', 'NOTE_ON_61', 'VELOCITY_19', 'NOTE_ON_73', 'VELOCITY_22', 'NOTE_ON_45', 'VELOCITY_17', 'NOTE_ON_51', 'VELOCITY_17', 'NOTE_ON_57', 'VELOCITY_22', 'NOTE_ON_35', 'VELOCITY_25', 'NOTE_ON_64', 'VELOCITY_18', 'NOTE_ON_70', 'VELOCITY_16', 'TIME_SHIFT_10ms', 'TIME_SHIFT_10ms', 'NOTE_OFF_71', 'TIME_SHIFT_30ms', 'TIME_SHIFT_10ms', 'TIME_SHIFT_60ms', 'TIME_SHIFT_10ms', 'NOTE_OFF_59', 'TIME_SHIFT_200ms', 'NOTE_OFF_70', 'NOTE_OFF_35', 'NOTE_ON_52', 'VELOCITY_14', 'NOTE_ON_52', 'VELOCITY_18', 'NOTE_ON_70', 'VELOCITY_9', 'NOTE_ON_36', 'VELOCITY_14', 'TIME_SHIFT_300ms', 'NOTE_OFF_70', 'NOTE_ON_36', 'VELOCITY_14', 'NOTE_ON_57', 'VELOCITY_11', 'NOTE_ON_70', 'VELOCITY_7', 'NOTE_ON_55', 'VELOCITY_19', 'NOTE_OFF_36', 'TIME_SHIFT_310ms', 'TIME_SHIFT_10ms', 'NOTE_OFF_51', 'NOTE_OFF_36', 'NOTE_ON_70', 'VELOCITY_17', 'NOTE_ON_51', 'VELOCITY_17', 'NOTE_OFF_70', 'TIME_SHIFT_250ms', 'NOTE_OFF_57', 'TIME_SHIFT_50ms', 'TIME_SHIFT_10ms', 'TIME_SHIFT_10ms', 'NOTE_ON_61', 'VELOCITY_16', 'NOTE_ON_43', 'VELOCITY_15', 'NOTE_ON_70', 'VELOCITY_9', 'NOTE_ON_59', 'VELOCITY_17', 'NOTE_OFF_70', 'TIME_SHIFT_100ms', 'TIME_SHIFT_150ms', 'TIME_SHIFT_30ms', 'TIME_SHIFT_10ms', 'TIME_SHIFT_30ms', 'TIME_SHIFT_10ms', 'NOTE_ON_61', 'VELOCITY_15', 'NOTE_OFF_43', 'NOTE_ON_70', 'VELOCITY_9', 'NOTE_OFF_70', 'NOTE_ON_57', 'VELOCITY_12', 'NOTE_ON_45', 'VELOCITY_14', 'TIME_SHIFT_10ms', 'TIME_SHIFT_10ms', 'NOTE_OFF_61', 'TIME_SHIFT_60ms', 'TIME_SHIFT_10ms', 'TIME_SHIFT_60ms', 'TIME_SHIFT_10ms', 'NOTE_OFF_57', 'TIME_SHIFT_10ms', 'TIME_SHIFT_10ms', 'TIME_SHIFT_50ms', 'TIME_SHIFT_50ms', 'NOTE_OFF_59', 'TIME_SHIFT_30ms', 'TIME_SHIFT_10ms', 'TIME_SHIFT_10ms', 'TIME_SHIFT_10ms', 'NOTE_OFF_45', 'NOTE_ON_51', 'VELOCITY_16', 'NOTE_ON_64', 'VELOCITY_18', 'NOTE_ON_69', 'VELOCITY_9', 'NOTE_OFF_51', 'NOTE_ON_70', 'VELOCITY_13', 'NOTE_OFF_70', 'TIME_SHIFT_10ms', 'TIME_SHIFT_10ms', 'NOTE_OFF_61', 'TIME_SHIFT_110ms', 'TIME_SHIFT_10ms', 'NOTE_OFF_69', 'TIME_SHIFT_160ms', 'TIME_SHIFT_10ms', 'NOTE_OFF_52', 'TIME_SHIFT_10ms', 'TIME_SHIFT_10ms', 'NOTE_ON_50', 'VELOCITY_19', 'NOTE_ON_57', 'VELOCITY_12', 'NOTE_ON_69', 'VELOCITY_2', 'NOTE_OFF_70', 'NOTE_ON_70', 'VELOCITY_10', 'TIME_SHIFT_30ms', 'TIME_SHIFT_10ms', 'NOTE_OFF_64', 'TIME_SHIFT_30ms', 'TIME_SHIFT_10ms', 'NOTE_OFF_57', 'TIME_SHIFT_10ms', 'TIME_SHIFT_10ms', 'TIME_SHIFT_100ms', 'NOTE_OFF_69', 'TIME_SHIFT_80ms', 'TIME_SHIFT_10ms', 'TIME_SHIFT_50ms', 'NOTE_ON_47', 'VELOCITY_17', 'NOTE_ON_70', 'VELOCITY_8', 'NOTE_ON_64', 'VELOCITY_10', 'NOTE_OFF_50', 'NOTE_OFF_70', 'NOTE_ON_64', 'VELOCITY_13', 'TIME_SHIFT_10ms', 'TIME_SHIFT_10ms', 'TIME_SHIFT_50ms', 'TIME_SHIFT_10ms', 'TIME_SHIFT_10ms', 'NOTE_OFF_55', 'TIME_SHIFT_30ms', 'TIME_SHIFT_10ms', 'TIME_SHIFT_10ms', 'TIME_SHIFT_10ms', 'NOTE_OFF_64', 'TIME_SHIFT_50ms', 'TIME_SHIFT_60ms', 'TIME_SHIFT_10ms', 'TIME_SHIFT_60ms', 'TIME_SHIFT_10ms', 'NOTE_OFF_51', 'NOTE_ON_54', 'VELOCITY_18', 'NOTE_OFF_70', 'NOTE_ON_57', 'VELOCITY_29', 'NOTE_OFF_47', 'NOTE_ON_83', 'VELOCITY_14', 'NOTE_ON_51', 'VELOCITY_18', 'NOTE_ON_70', 'VELOCITY_15', 'NOTE_ON_38', 'VELOCITY_24', 'TIME_SHIFT_50ms', 'NOTE_OFF_64', 'TIME_SHIFT_10ms', 'TIME_SHIFT_10ms', 'TIME_SHIFT_80ms', 'TIME_SHIFT_10ms', 'NOTE_OFF_57', 'TIME_SHIFT_10ms', 'TIME_SHIFT_10ms', 'TIME_SHIFT_50ms', 'TIME_SHIFT_30ms', 'TIME_SHIFT_10ms', 'NOTE_OFF_52', 'TIME_SHIFT_50ms', 'NOTE_OFF_45', 'TIME_SHIFT_10ms', 'TIME_SHIFT_10ms', 'NOTE_OFF_70', 'NOTE_ON_70', 'VELOCITY_9', 'NOTE_ON_55', 'VELOCITY_29', 'NOTE_OFF_38', 'NOTE_ON_35', 'VELOCITY_21', 'NOTE_ON_61', 'VELOCITY_15', 'NOTE_ON_57', 'VELOCITY_9', 'TIME_SHIFT_60ms', 'TIME_SHIFT_10ms', 'NOTE_OFF_61', 'TIME_SHIFT_50ms', 'NOTE_OFF_55', 'TIME_SHIFT_30ms', 'TIME_SHIFT_10ms', 'NOTE_ON_70', 'VELOCITY_8', 'NOTE_OFF_70', 'TIME_SHIFT_130ms', 'TIME_SHIFT_10ms', 'NOTE_OFF_57', 'TIME_SHIFT_30ms', 'TIME_SHIFT_10ms', 'NOTE_OFF_45', 'NOTE_OFF_35', 'NOTE_ON_61', 'VELOCITY_13', 'NOTE_ON_53', 'VELOCITY_31', 'NOTE_ON_35', 'VELOCITY_28', 'NOTE_ON_70', 'VELOCITY_10', 'NOTE_OFF_70', 'TIME_SHIFT_50ms', 'NOTE_OFF_61', 'TIME_SHIFT_50ms', 'NOTE_OFF_53', 'NOTE_OFF_73', 'TIME_SHIFT_30ms', 'TIME_SHIFT_10ms', 'TIME_SHIFT_10ms', 'TIME_SHIFT_10ms', 'NOTE_OFF_70', 'NOTE_ON_70', 'VELOCITY_13', 'TIME_SHIFT_160ms', 'TIME_SHIFT_10ms', 'NOTE_OFF_83', 'NOTE_OFF_64', 'NOTE_OFF_54', 'NOTE_OFF_51', 'NOTE_OFF_61', 'NOTE_OFF_57', 'NOTE_OFF_70', 'NOTE_ON_26', 'VELOCITY_23', 'NOTE_ON_50', 'VELOCITY_19', 'NOTE_ON_50', 'VELOCITY_19', 'NOTE_ON_65', 'VELOCITY_17', 'NOTE_ON_57', 'VELOCITY_17', 'NOTE_ON_35', 'VELOCITY_25', 'NOTE_ON_42', 'VELOCITY_25', 'NOTE_ON_62', 'VELOCITY_20', 'NOTE_ON_65', 'VELOCITY_18', 'NOTE_ON_57', 'VELOCITY_13', 'NOTE_ON_65', 'VELOCITY_17', 'TIME_SHIFT_10ms', 'TIME_SHIFT_10ms', 'NOTE_ON_77', 'VELOCITY_29', 'TIME_SHIFT_50ms', 'TIME_SHIFT_160ms', 'TIME_SHIFT_10ms', 'NOTE_OFF_65', 'TIME_SHIFT_50ms', 'NOTE_OFF_65', 'TIME_SHIFT_30ms', 'TIME_SHIFT_10ms', 'NOTE_ON_42', 'VELOCITY_5', 'NOTE_ON_57', 'VELOCITY_17', 'NOTE_ON_57', 'VELOCITY_14', 'NOTE_OFF_42', 'TIME_SHIFT_50ms', 'NOTE_OFF_35', 'TIME_SHIFT_260ms', 'TIME_SHIFT_10ms', 'NOTE_OFF_26', 'NOTE_ON_62', 'VELOCITY_16', 'NOTE_ON_42', 'VELOCITY_11', 'NOTE_ON_35', 'VELOCITY_25', 'NOTE_ON_62', 'VELOCITY_22', 'NOTE_ON_26', 'VELOCITY_22', 'NOTE_OFF_42', 'TIME_SHIFT_150ms', 'NOTE_OFF_35', 'TIME_SHIFT_60ms', 'TIME_SHIFT_10ms', 'NOTE_OFF_26', 'TIME_SHIFT_60ms', 'TIME_SHIFT_10ms', 'NOTE_OFF_62', 'TIME_SHIFT_10ms', 'TIME_SHIFT_10ms', 'NOTE_OFF_77', 'TIME_SHIFT_10ms', 'TIME_SHIFT_10ms', 'NOTE_ON_38', 'VELOCITY_22', 'NOTE_OFF_42', 'NOTE_OFF_57', 'NOTE_ON_42', 'VELOCITY_25', 'TIME_SHIFT_10ms', 'TIME_SHIFT_10ms', 'NOTE_ON_74', 'VELOCITY_22', 'TIME_SHIFT_80ms', 'TIME_SHIFT_10ms', 'NOTE_OFF_57', 'TIME_SHIFT_10ms', 'TIME_SHIFT_10ms', 'NOTE_OFF_62', 'TIME_SHIFT_30ms', 'TIME_SHIFT_10ms', 'NOTE_OFF_38', 'TIME_SHIFT_50ms', 'NOTE_OFF_57', 'TIME_SHIFT_110ms', 'TIME_SHIFT_10ms', 'NOTE_OFF_42', 'NOTE_ON_42', 'VELOCITY_15', 'NOTE_ON_65', 'VELOCITY_18', 'NOTE_ON_65', 'VELOCITY_19', 'TIME_SHIFT_180ms', 'TIME_SHIFT_10ms', 'TIME_SHIFT_30ms', 'TIME_SHIFT_10ms', 'NOTE_OFF_65', 'TIME_SHIFT_50ms', 'TIME_SHIFT_50ms', 'NOTE_ON_57', 'VELOCITY_15', 'NOTE_ON_26', 'VELOCITY_22', 'NOTE_ON_57', 'VELOCITY_14', 'NOTE_OFF_42', 'NOTE_ON_42', 'VELOCITY_13', 'NOTE_ON_35', 'VELOCITY_25', 'TIME_SHIFT_30ms', 'TIME_SHIFT_10ms', 'NOTE_OFF_65', 'TIME_SHIFT_50ms', 'TIME_SHIFT_30ms', 'TIME_SHIFT_10ms', 'NOTE_OFF_35', 'TIME_SHIFT_50ms', 'NOTE_OFF_26', 'TIME_SHIFT_50ms', 'TIME_SHIFT_80ms', 'TIME_SHIFT_10ms', 'NOTE_ON_62', 'VELOCITY_18', 'NOTE_ON_35', 'VELOCITY_25', 'NOTE_ON_26', 'VELOCITY_22', 'NOTE_ON_42', 'VELOCITY_27', 'NOTE_OFF_42', 'TIME_SHIFT_50ms', 'TIME_SHIFT_30ms', 'TIME_SHIFT_10ms', 'NOTE_OFF_62', 'TIME_SHIFT_10ms', 'TIME_SHIFT_10ms', 'TIME_SHIFT_10ms', 'TIME_SHIFT_10ms', 'NOTE_OFF_57', 'TIME_SHIFT_30ms', 'TIME_SHIFT_10ms', 'TIME_SHIFT_30ms', 'TIME_SHIFT_10ms', 'TIME_SHIFT_80ms', 'TIME_SHIFT_10ms', 'TIME_SHIFT_10ms', 'TIME_SHIFT_10ms', 'NOTE_OFF_35', 'TIME_SHIFT_30ms', 'TIME_SHIFT_10ms', 'NOTE_ON_69', 'VELOCITY_22', 'NOTE_ON_42', 'VELOCITY_13', 'NOTE_ON_65', 'VELOCITY_15', 'NOTE_OFF_42', 'TIME_SHIFT_10ms', 'TIME_SHIFT_10ms', 'NOTE_OFF_57', 'TIME_SHIFT_110ms', 'TIME_SHIFT_10ms', 'TIME_SHIFT_100ms', 'NOTE_OFF_26', 'TIME_SHIFT_10ms', 'TIME_SHIFT_10ms', 'NOTE_OFF_74', 'TIME_SHIFT_10ms', 'TIME_SHIFT_10ms', 'NOTE_OFF_65', 'TIME_SHIFT_10ms', 'TIME_SHIFT_10ms', 'NOTE_ON_69', 'VELOCITY_23', 'TIME_SHIFT_10ms', 'TIME_SHIFT_10ms', 'NOTE_OFF_69', 'TIME_SHIFT_10ms', 'TIME_SHIFT_10ms', 'NOTE_ON_42', 'VELOCITY_13', 'NOTE_ON_62', 'VELOCITY_19', 'NOTE_OFF_42', 'NOTE_ON_57', 'VELOCITY_13', 'NOTE_ON_26', 'VELOCITY_22', 'TIME_SHIFT_160ms', 'TIME_SHIFT_10ms', 'TIME_SHIFT_30ms', 'TIME_SHIFT_10ms', 'NOTE_OFF_26', 'TIME_SHIFT_10ms', 'TIME_SHIFT_10ms', 'NOTE_OFF_50', 'NOTE_OFF_57', 'TIME_SHIFT_50ms', 'NOTE_OFF_69', 'TIME_SHIFT_50ms', 'NOTE_ON_46', 'VELOCITY_19', 'NOTE_ON_50', 'VELOCITY_3', 'NOTE_OFF_42', 'NOTE_ON_62', 'VELOCITY_15', 'NOTE_ON_77', 'VELOCITY_23', 'NOTE_ON_38', 'VELOCITY_21', 'TIME_SHIFT_50ms', 'NOTE_OFF_62', 'TIME_SHIFT_30ms', 'TIME_SHIFT_10ms', 'TIME_SHIFT_150ms', 'NOTE_OFF_38', 'NOTE_OFF_50', 'TIME_SHIFT_80ms', 'TIME_SHIFT_10ms', 'NOTE_ON_57', 'VELOCITY_11', 'NOTE_ON_42', 'VELOCITY_18', 'NOTE_ON_57', 'VELOCITY_16', 'NOTE_ON_26', 'VELOCITY_20', 'NOTE_OFF_46', 'TIME_SHIFT_10ms', 'TIME_SHIFT_10ms', 'NOTE_ON_79', 'VELOCITY_21', 'TIME_SHIFT_10ms', 'TIME_SHIFT_10ms', 'NOTE_OFF_62', 'TIME_SHIFT_10ms', 'TIME_SHIFT_10ms', 'TIME_SHIFT_10ms', 'TIME_SHIFT_10ms', 'NOTE_OFF_77', 'TIME_SHIFT_30ms', 'TIME_SHIFT_10ms', 'NOTE_OFF_50', 'TIME_SHIFT_60ms', 'TIME_SHIFT_10ms', 'NOTE_OFF_57', 'TIME_SHIFT_50ms', 'TIME_SHIFT_60ms', 'TIME_SHIFT_10ms', 'NOTE_OFF_79', 'NOTE_OFF_26', 'TIME_SHIFT_30ms', 'TIME_SHIFT_10ms', 'NOTE_OFF_42', 'NOTE_ON_74', 'VELOCITY_21', 'NOTE_ON_42', 'VELOCITY_17', 'NOTE_ON_35', 'VELOCITY_25', 'NOTE_ON_62', 'VELOCITY_19', 'NOTE_ON_29', 'VELOCITY_20', 'TIME_SHIFT_100ms', 'TIME_SHIFT_50ms', 'NOTE_OFF_35', 'TIME_SHIFT_10ms', 'TIME_SHIFT_10ms', 'NOTE_OFF_29', 'TIME_SHIFT_10ms', 'TIME_SHIFT_10ms', 'NOTE_OFF_57', 'TIME_SHIFT_10ms', 'TIME_SHIFT_10ms', 'TIME_SHIFT_10ms', 'TIME_SHIFT_10ms', 'TIME_SHIFT_50ms', 'NOTE_OFF_62', 'TIME_SHIFT_30ms', 'TIME_SHIFT_10ms', 'NOTE_OFF_74', 'TIME_SHIFT_10ms', 'TIME_SHIFT_10ms', 'NOTE_OFF_42', 'NOTE_OFF_62', 'NOTE_OFF_65', 'NOTE_OFF_57', 'NOTE_ON_33', 'VELOCITY_21', 'NOTE_ON_64', 'VELOCITY_18', 'NOTE_ON_64', 'VELOCITY_22', 'NOTE_ON_45', 'VELOCITY_20', 'NOTE_ON_64', 'VELOCITY_17', 'NOTE_ON_57', 'VELOCITY_20', 'NOTE_ON_45', 'VELOCITY_16', 'NOTE_ON_60', 'VELOCITY_21', 'NOTE_ON_35', 'VELOCITY_25', 'NOTE_ON_42', 'VELOCITY_25', 'TIME_SHIFT_10ms', 'TIME_SHIFT_10ms', 'NOTE_ON_76', 'VELOCITY_22', 'TIME_SHIFT_30ms', 'TIME_SHIFT_10ms', 'TIME_SHIFT_100ms', 'NOTE_OFF_35', 'TIME_SHIFT_10ms', 'TIME_SHIFT_10ms', 'NOTE_OFF_64', 'TIME_SHIFT_110ms', 'TIME_SHIFT_10ms', 'NOTE_OFF_64', 'TIME_SHIFT_30ms', 'TIME_SHIFT_10ms', 'NOTE_ON_42', 'VELOCITY_5', 'NOTE_ON_60', 'VELOCITY_13', 'NOTE_ON_52', 'VELOCITY_8', 'NOTE_OFF_42', 'NOTE_ON_52', 'VELOCITY_18', 'TIME_SHIFT_50ms', 'NOTE_OFF_35', 'TIME_SHIFT_180ms', 'TIME_SHIFT_10ms', 'NOTE_OFF_33', 'TIME_SHIFT_50ms', 'NOTE_OFF_60', 'TIME_SHIFT_30ms', 'TIME_SHIFT_10ms', 'NOTE_OFF_42', 'NOTE_ON_35', 'VELOCITY_25', 'NOTE_ON_42', 'VELOCITY_11', 'NOTE_ON_57', 'VELOCITY_17', 'NOTE_ON_64', 'VELOCITY_14', 'NOTE_ON_33', 'VELOCITY_22', 'TIME_SHIFT_110ms', 'TIME_SHIFT_10ms', 'TIME_SHIFT_30ms', 'TIME_SHIFT_10ms', 'NOTE_OFF_35', 'TIME_SHIFT_10ms', 'TIME_SHIFT_10ms', 'TIME_SHIFT_130ms', 'TIME_SHIFT_10ms', 'NOTE_OFF_33', 'TIME_SHIFT_10ms', 'TIME_SHIFT_10ms', 'NOTE_ON_42', 'VELOCITY_25', 'NOTE_ON_55', 'VELOCITY_13', 'NOTE_ON_38', 'VELOCITY_22', 'NOTE_ON_67', 'VELOCITY_17', 'NOTE_OFF_42', 'TIME_SHIFT_30ms', 'TIME_SHIFT_10ms', 'NOTE_OFF_64', 'TIME_SHIFT_10ms', 'TIME_SHIFT_10ms', 'TIME_SHIFT_10ms', 'TIME_SHIFT_10ms', 'NOTE_ON_72', 'VELOCITY_21', 'TIME_SHIFT_30ms', 'TIME_SHIFT_10ms', 'NOTE_OFF_76', 'TIME_SHIFT_50ms', 'NOTE_OFF_38', 'TIME_SHIFT_110ms', 'TIME_SHIFT_10ms', 'NOTE_OFF_67', 'TIME_SHIFT_50ms', 'NOTE_OFF_42', 'NOTE_ON_42', 'VELOCITY_15', 'NOTE_ON_60', 'VELOCITY_8', 'NOTE_ON_64', 'VELOCITY_17', 'TIME_SHIFT_210ms', 'TIME_SHIFT_10ms', 'NOTE_OFF_60', 'TIME_SHIFT_30ms', 'TIME_SHIFT_10ms', 'NOTE_OFF_55', 'TIME_SHIFT_10ms', 'TIME_SHIFT_10ms', 'TIME_SHIFT_30ms', 'TIME_SHIFT_10ms', 'NOTE_OFF_64', 'TIME_SHIFT_10ms', 'TIME_SHIFT_10ms', 'NOTE_ON_42', 'VELOCITY_13', 'NOTE_ON_69', 'VELOCITY_16', 'NOTE_ON_35', 'VELOCITY_25', 'NOTE_ON_60', 'VELOCITY_14', 'NOTE_OFF_57', 'NOTE_ON_33', 'VELOCITY_22', 'NOTE_OFF_42', 'TIME_SHIFT_60ms', 'TIME_SHIFT_10ms', 'TIME_SHIFT_50ms', 'NOTE_OFF_35', 'TIME_SHIFT_100ms', 'TIME_SHIFT_50ms', 'NOTE_OFF_33', 'TIME_SHIFT_50ms', 'NOTE_OFF_42', 'NOTE_ON_35', 'VELOCITY_25', 'NOTE_ON_33', 'VELOCITY_22', 'NOTE_ON_57', 'VELOCITY_13', 'NOTE_ON_42', 'VELOCITY_27', 'TIME_SHIFT_60ms', 'TIME_SHIFT_10ms', 'TIME_SHIFT_30ms', 'TIME_SHIFT_10ms', 'TIME_SHIFT_30ms', 'TIME_SHIFT_10ms', 'TIME_SHIFT_10ms', 'TIME_SHIFT_10ms', 'NOTE_OFF_60', 'TIME_SHIFT_60ms', 'TIME_SHIFT_10ms', 'TIME_SHIFT_30ms', 'TIME_SHIFT_10ms', 'NOTE_OFF_52', 'NOTE_OFF_69', 'TIME_SHIFT_10ms', 'TIME_SHIFT_10ms', 'NOTE_OFF_35', 'TIME_SHIFT_30ms', 'TIME_SHIFT_10ms', 'TIME_SHIFT_10ms', 'TIME_SHIFT_10ms', 'NOTE_OFF_42', 'NOTE_ON_67', 'VELOCITY_22', 'NOTE_ON_60', 'VELOCITY_9', 'NOTE_ON_42', 'VELOCITY_13', 'TIME_SHIFT_50ms', 'NOTE_OFF_57', 'TIME_SHIFT_10ms', 'TIME_SHIFT_10ms', 'NOTE_OFF_33', 'TIME_SHIFT_130ms', 'TIME_SHIFT_10ms', 'TIME_SHIFT_50ms', 'TIME_SHIFT_60ms', 'TIME_SHIFT_10ms', 'NOTE_ON_33', 'VELOCITY_22', 'NOTE_ON_42', 'VELOCITY_13', 'NOTE_ON_64', 'VELOCITY_14', 'NOTE_ON_64', 'VELOCITY_13', 'NOTE_OFF_42', 'TIME_SHIFT_10ms', 'TIME_SHIFT_10ms', 'NOTE_OFF_67', 'TIME_SHIFT_30ms', 'TIME_SHIFT_10ms', 'TIME_SHIFT_130ms', 'TIME_SHIFT_10ms', 'TIME_SHIFT_30ms', 'TIME_SHIFT_10ms', 'NOTE_OFF_64', 'TIME_SHIFT_30ms', 'TIME_SHIFT_10ms', 'TIME_SHIFT_50ms', 'NOTE_OFF_60', 'TIME_SHIFT_10ms', 'TIME_SHIFT_10ms', 'NOTE_OFF_33', 'NOTE_ON_55', 'VELOCITY_7', 'NOTE_ON_46', 'VELOCITY_19', 'NOTE_ON_38', 'VELOCITY_21', 'NOTE_OFF_42', 'NOTE_ON_57', 'VELOCITY_13', 'TIME_SHIFT_50ms', 'NOTE_OFF_64', 'TIME_SHIFT_50ms', 'TIME_SHIFT_80ms', 'TIME_SHIFT_10ms', 'TIME_SHIFT_30ms', 'TIME_SHIFT_10ms', 'NOTE_OFF_38', 'NOTE_OFF_55', 'TIME_SHIFT_10ms', 'TIME_SHIFT_10ms', 'NOTE_OFF_45', 'NOTE_OFF_57', 'NOTE_OFF_45', 'NOTE_OFF_52', 'TIME_SHIFT_60ms', 'TIME_SHIFT_10ms', 'NOTE_ON_60', 'VELOCITY_9', 'NOTE_OFF_46', 'NOTE_ON_60', 'VELOCITY_10', 'NOTE_ON_42', 'VELOCITY_18', 'NOTE_ON_31', 'VELOCITY_20', 'TIME_SHIFT_200ms', 'NOTE_OFF_60', 'TIME_SHIFT_100ms', 'NOTE_OFF_31', 'TIME_SHIFT_10ms', 'TIME_SHIFT_10ms', 'NOTE_ON_33', 'VELOCITY_21', 'NOTE_ON_42', 'VELOCITY_17', 'NOTE_ON_35', 'VELOCITY_25', 'NOTE_ON_64', 'VELOCITY_10', 'NOTE_OFF_42', 'TIME_SHIFT_80ms', 'TIME_SHIFT_10ms', 'NOTE_OFF_64', 'TIME_SHIFT_60ms', 'TIME_SHIFT_10ms', 'NOTE_OFF_35', 'TIME_SHIFT_10ms', 'TIME_SHIFT_10ms', 'NOTE_OFF_60', 'NOTE_OFF_72', 'TIME_SHIFT_30ms', 'TIME_SHIFT_10ms', 'TIME_SHIFT_50ms', 'NOTE_OFF_33', 'TIME_SHIFT_60ms', 'TIME_SHIFT_10ms', 'NOTE_OFF_42', 'NOTE_OFF_57', 'NOTE_OFF_60', 'NOTE_ON_55', 'VELOCITY_19', 'NOTE_ON_31', 'VELOCITY_23', 'NOTE_OFF_64', 'NOTE_ON_43', 'VELOCITY_16', 'NOTE_ON_35', 'VELOCITY_25', 'NOTE_ON_62', 'VELOCITY_22', 'NOTE_ON_42', 'VELOCITY_25', 'NOTE_ON_43', 'VELOCITY_16', 'NOTE_ON_62', 'VELOCITY_17', 'NOTE_ON_62', 'VELOCITY_17', 'NOTE_ON_58', 'VELOCITY_17', 'TIME_SHIFT_10ms', 'TIME_SHIFT_10ms', 'NOTE_ON_70', 'VELOCITY_25', 'TIME_SHIFT_10ms', 'TIME_SHIFT_10ms', 'TIME_SHIFT_60ms', 'TIME_SHIFT_10ms', 'TIME_SHIFT_50ms', 'TIME_SHIFT_30ms', 'TIME_SHIFT_10ms', 'NOTE_OFF_62', 'TIME_SHIFT_130ms', 'TIME_SHIFT_10ms', 'NOTE_ON_42', 'VELOCITY_5', 'NOTE_OFF_42', 'NOTE_ON_50', 'VELOCITY_18', 'NOTE_ON_50', 'VELOCITY_12', 'NOTE_OFF_62', 'TIME_SHIFT_50ms', 'NOTE_OFF_35', 'TIME_SHIFT_10ms', 'TIME_SHIFT_10ms', 'TIME_SHIFT_50ms', 'TIME_SHIFT_50ms', 'NOTE_OFF_31', 'TIME_SHIFT_60ms', 'TIME_SHIFT_10ms', 'TIME_SHIFT_30ms', 'TIME_SHIFT_10ms', 'TIME_SHIFT_50ms', 'NOTE_ON_55', 'VELOCITY_16', 'NOTE_ON_55', 'VELOCITY_14', 'NOTE_ON_42', 'VELOCITY_11', 'NOTE_OFF_42', 'NOTE_ON_35', 'VELOCITY_25', 'NOTE_ON_31', 'VELOCITY_22', 'TIME_SHIFT_10ms', 'TIME_SHIFT_10ms', 'TIME_SHIFT_50ms', 'TIME_SHIFT_60ms', 'TIME_SHIFT_10ms', 'TIME_SHIFT_30ms', 'TIME_SHIFT_10ms', 'NOTE_OFF_35', 'TIME_SHIFT_100ms', 'NOTE_OFF_31', 'TIME_SHIFT_30ms', 'TIME_SHIFT_10ms', 'NOTE_OFF_70', 'TIME_SHIFT_10ms', 'TIME_SHIFT_10ms', 'NOTE_ON_38', 'VELOCITY_22', 'NOTE_ON_62', 'VELOCITY_21', 'NOTE_ON_42', 'VELOCITY_25', 'NOTE_OFF_42', 'TIME_SHIFT_30ms', 'TIME_SHIFT_10ms', 'NOTE_ON_67', 'VELOCITY_22', 'TIME_SHIFT_130ms', 'TIME_SHIFT_10ms', 'NOTE_OFF_38', 'TIME_SHIFT_50ms', 'TIME_SHIFT_80ms', 'TIME_SHIFT_10ms', 'NOTE_OFF_62', 'TIME_SHIFT_10ms', 'TIME_SHIFT_10ms', 'NOTE_OFF_42', 'NOTE_ON_58', 'VELOCITY_13', 'NOTE_ON_42', 'VELOCITY_15', 'NOTE_ON_62', 'VELOCITY_18', 'NOTE_ON_58', 'VELOCITY_10', 'TIME_SHIFT_60ms', 'TIME_SHIFT_10ms', 'NOTE_OFF_58', 'TIME_SHIFT_10ms', 'TIME_SHIFT_10ms', 'NOTE_OFF_50', 'TIME_SHIFT_10ms', 'TIME_SHIFT_10ms', 'NOTE_OFF_62', 'TIME_SHIFT_80ms', 'TIME_SHIFT_10ms', 'NOTE_OFF_55', 'TIME_SHIFT_130ms', 'TIME_SHIFT_10ms', 'NOTE_ON_35', 'VELOCITY_25', 'NOTE_ON_62', 'VELOCITY_11', 'NOTE_ON_62', 'VELOCITY_20', 'NOTE_ON_58', 'VELOCITY_10', 'NOTE_ON_31', 'VELOCITY_22', 'NOTE_OFF_42', 'NOTE_ON_42', 'VELOCITY_13', 'TIME_SHIFT_110ms', 'TIME_SHIFT_10ms', 'NOTE_OFF_35', 'TIME_SHIFT_10ms', 'TIME_SHIFT_10ms', 'NOTE_OFF_62', 'TIME_SHIFT_50ms', 'NOTE_OFF_43', 'TIME_SHIFT_80ms', 'TIME_SHIFT_10ms', 'NOTE_OFF_31', 'TIME_SHIFT_30ms', 'TIME_SHIFT_10ms', 'NOTE_OFF_62', 'NOTE_OFF_58', 'TIME_SHIFT_10ms', 'TIME_SHIFT_10ms', 'NOTE_ON_67', 'VELOCITY_22', 'NOTE_ON_35', 'VELOCITY_25', 'NOTE_ON_42', 'VELOCITY_27', 'NOTE_OFF_42', 'NOTE_ON_31', 'VELOCITY_22', 'TIME_SHIFT_130ms', 'TIME_SHIFT_10ms', 'NOTE_OFF_67', 'TIME_SHIFT_60ms', 'TIME_SHIFT_10ms', 'NOTE_OFF_58', 'TIME_SHIFT_60ms', 'TIME_SHIFT_10ms', 'NOTE_OFF_35', 'TIME_SHIFT_50ms', 'NOTE_OFF_42', 'NOTE_ON_67', 'VELOCITY_19', 'NOTE_ON_42', 'VELOCITY_13', 'NOTE_ON_58', 'VELOCITY_12', 'TIME_SHIFT_150ms', 'NOTE_OFF_31', 'TIME_SHIFT_60ms', 'TIME_SHIFT_10ms', 'NOTE_OFF_58', 'TIME_SHIFT_30ms', 'TIME_SHIFT_10ms', 'NOTE_OFF_67', 'TIME_SHIFT_30ms', 'TIME_SHIFT_10ms', 'NOTE_ON_62', 'VELOCITY_16', 'TIME_SHIFT_10ms', 'TIME_SHIFT_10ms', 'NOTE_OFF_67', 'TIME_SHIFT_10ms', 'TIME_SHIFT_10ms', 'NOTE_OFF_42', 'NOTE_ON_42', 'VELOCITY_13', 'NOTE_ON_62', 'VELOCITY_15', 'NOTE_ON_31', 'VELOCITY_22', 'NOTE_ON_69', 'VELOCITY_14', 'TIME_SHIFT_230ms', 'TIME_SHIFT_10ms', 'NOTE_OFF_69', 'TIME_SHIFT_10ms', 'TIME_SHIFT_10ms', 'NOTE_OFF_31', 'TIME_SHIFT_50ms', 'NOTE_ON_70', 'VELOCITY_18', 'TIME_SHIFT_10ms', 'TIME_SHIFT_10ms', 'NOTE_OFF_42', 'NOTE_ON_38', 'VELOCITY_21', 'NOTE_ON_55', 'VELOCITY_16', 'NOTE_ON_46', 'VELOCITY_19', 'NOTE_OFF_62', 'TIME_SHIFT_50ms', 'NOTE_OFF_62', 'TIME_SHIFT_160ms', 'TIME_SHIFT_10ms', 'NOTE_OFF_50', 'NOTE_OFF_38', 'TIME_SHIFT_30ms', 'TIME_SHIFT_10ms', 'NOTE_OFF_43', 'TIME_SHIFT_30ms', 'TIME_SHIFT_10ms', 'NOTE_OFF_55', 'TIME_SHIFT_30ms', 'TIME_SHIFT_10ms', 'NOTE_OFF_46', 'NOTE_ON_42', 'VELOCITY_18', 'NOTE_ON_74', 'VELOCITY_21', 'NOTE_ON_58', 'VELOCITY_13', 'NOTE_ON_33', 'VELOCITY_21', 'NOTE_ON_58', 'VELOCITY_15', 'TIME_SHIFT_50ms', 'NOTE_OFF_70', 'NOTE_OFF_55', 'TIME_SHIFT_200ms', 'NOTE_OFF_74', 'TIME_SHIFT_10ms', 'TIME_SHIFT_10ms', 'NOTE_OFF_33', 'TIME_SHIFT_10ms', 'TIME_SHIFT_10ms', 'NOTE_ON_67', 'VELOCITY_19', 'TIME_SHIFT_30ms', 'TIME_SHIFT_10ms', 'NOTE_ON_42', 'VELOCITY_17', 'NOTE_ON_62', 'VELOCITY_7', 'NOTE_ON_35', 'VELOCITY_25', 'NOTE_OFF_42', 'NOTE_ON_34', 'VELOCITY_20', 'NOTE_OFF_58', 'TIME_SHIFT_80ms', 'TIME_SHIFT_10ms', 'NOTE_OFF_62', 'TIME_SHIFT_50ms', 'NOTE_OFF_58', 'NOTE_OFF_35', 'TIME_SHIFT_80ms', 'TIME_SHIFT_10ms', 'TIME_SHIFT_10ms', 'TIME_SHIFT_10ms', 'TIME_SHIFT_30ms', 'TIME_SHIFT_10ms', 'NOTE_OFF_67', 'TIME_SHIFT_30ms', 'TIME_SHIFT_10ms', 'NOTE_OFF_34', 'NOTE_ON_69', 'VELOCITY_22', 'TIME_SHIFT_10ms', 'TIME_SHIFT_10ms', 'NOTE_OFF_55', 'NOTE_ON_42', 'VELOCITY_25', 'NOTE_OFF_62', 'NOTE_ON_50', 'VELOCITY_22', 'NOTE_OFF_58', 'NOTE_ON_26', 'VELOCITY_21', 'NOTE_ON_35', 'VELOCITY_25', 'NOTE_ON_57', 'VELOCITY_19', 'NOTE_OFF_42', 'NOTE_ON_50', 'VELOCITY_19', 'NOTE_ON_65', 'VELOCITY_18', 'NOTE_ON_62', 'VELOCITY_21', 'TIME_SHIFT_30ms', 'TIME_SHIFT_10ms', 'TIME_SHIFT_10ms', 'TIME_SHIFT_10ms', 'TIME_SHIFT_260ms', 'TIME_SHIFT_10ms', 'NOTE_ON_53', 'VELOCITY_16', 'NOTE_ON_57', 'VELOCITY_9', 'NOTE_ON_42', 'VELOCITY_5', 'NOTE_OFF_42', 'TIME_SHIFT_30ms', 'TIME_SHIFT_10ms', 'NOTE_OFF_35', 'TIME_SHIFT_150ms', 'NOTE_OFF_26', 'TIME_SHIFT_10ms', 'TIME_SHIFT_10ms', 'NOTE_OFF_57', 'TIME_SHIFT_110ms', 'TIME_SHIFT_10ms', 'NOTE_OFF_42', 'NOTE_ON_42', 'VELOCITY_11', 'NOTE_ON_26', 'VELOCITY_21', 'NOTE_ON_65', 'VELOCITY_13', 'NOTE_ON_57', 'VELOCITY_15', 'NOTE_ON_35', 'VELOCITY_25', 'TIME_SHIFT_150ms', 'NOTE_OFF_35', 'TIME_SHIFT_130ms', 'TIME_SHIFT_10ms', 'NOTE_OFF_57', 'TIME_SHIFT_10ms', 'TIME_SHIFT_10ms', 'NOTE_ON_65', 'VELOCITY_22', 'NOTE_OFF_69', 'NOTE_ON_38', 'VELOCITY_22', 'NOTE_ON_42', 'VELOCITY_25', 'NOTE_OFF_42', 'TIME_SHIFT_10ms', 'TIME_SHIFT_10ms', 'NOTE_ON_65', 'VELOCITY_20', 'TIME_SHIFT_60ms', 'TIME_SHIFT_10ms', 'NOTE_OFF_26', 'TIME_SHIFT_80ms', 'TIME_SHIFT_10ms', 'NOTE_OFF_38', 'TIME_SHIFT_60ms', 'TIME_SHIFT_10ms', 'NOTE_OFF_65', 'TIME_SHIFT_10ms', 'TIME_SHIFT_10ms', 'NOTE_OFF_65', 'TIME_SHIFT_60ms', 'TIME_SHIFT_10ms', 'NOTE_ON_57', 'VELOCITY_13', 'NOTE_ON_42', 'VELOCITY_15', 'NOTE_OFF_42', 'NOTE_ON_62', 'VELOCITY_14', 'TIME_SHIFT_280ms', 'TIME_SHIFT_10ms', 'TIME_SHIFT_10ms', 'TIME_SHIFT_10ms', 'NOTE_OFF_62', 'NOTE_OFF_50', 'TIME_SHIFT_10ms', 'TIME_SHIFT_10ms', 'NOTE_OFF_53', 'NOTE_ON_64', 'VELOCITY_18', 'NOTE_ON_42', 'VELOCITY_13', 'NOTE_ON_26', 'VELOCITY_22', 'NOTE_ON_35', 'VELOCITY_25', 'NOTE_OFF_42', 'NOTE_ON_57', 'VELOCITY_10', 'TIME_SHIFT_50ms', 'TIME_SHIFT_60ms', 'TIME_SHIFT_10ms', 'NOTE_OFF_35', 'TIME_SHIFT_80ms', 'TIME_SHIFT_10ms', 'TIME_SHIFT_30ms', 'TIME_SHIFT_10ms', 'NOTE_OFF_57', 'TIME_SHIFT_30ms', 'TIME_SHIFT_10ms', 'TIME_SHIFT_10ms', 'TIME_SHIFT_10ms', 'NOTE_OFF_26', 'TIME_SHIFT_30ms', 'TIME_SHIFT_10ms', 'NOTE_OFF_42', 'NOTE_ON_42', 'VELOCITY_27', 'NOTE_ON_35', 'VELOCITY_25', 'NOTE_ON_53', 'VELOCITY_13', 'NOTE_ON_26', 'VELOCITY_23', 'TIME_SHIFT_30ms', 'TIME_SHIFT_10ms', 'TIME_SHIFT_30ms', 'TIME_SHIFT_10ms', 'TIME_SHIFT_10ms', 'TIME_SHIFT_10ms', 'NOTE_OFF_64', 'TIME_SHIFT_10ms', 'TIME_SHIFT_10ms', 'TIME_SHIFT_80ms', 'TIME_SHIFT_10ms', 'TIME_SHIFT_80ms', 'TIME_SHIFT_10ms', 'NOTE_OFF_35', 'TIME_SHIFT_10ms', 'TIME_SHIFT_10ms', 'TIME_SHIFT_30ms', 'TIME_SHIFT_10ms', 'NOTE_ON_57', 'VELOCITY_13', 'NOTE_OFF_42', 'NOTE_ON_42', 'VELOCITY_13', 'NOTE_ON_65', 'VELOCITY_9', 'TIME_SHIFT_10ms', 'TIME_SHIFT_10ms', 'TIME_SHIFT_30ms', 'TIME_SHIFT_10ms', 'TIME_SHIFT_10ms', 'TIME_SHIFT_10ms', 'NOTE_OFF_57', 'TIME_SHIFT_30ms', 'TIME_SHIFT_10ms', 'NOTE_OFF_26', 'TIME_SHIFT_30ms', 'TIME_SHIFT_10ms', 'TIME_SHIFT_30ms', 'TIME_SHIFT_10ms', 'TIME_SHIFT_50ms', 'TIME_SHIFT_50ms', 'NOTE_OFF_65', 'NOTE_OFF_53', 'TIME_SHIFT_30ms', 'TIME_SHIFT_10ms', 'TIME_SHIFT_10ms', 'TIME_SHIFT_10ms', 'NOTE_OFF_42', 'NOTE_ON_26', 'VELOCITY_23', 'NOTE_ON_65', 'VELOCITY_23', 'NOTE_OFF_57', 'NOTE_ON_42', 'VELOCITY_13', 'NOTE_ON_62', 'VELOCITY_16', 'TIME_SHIFT_10ms', 'TIME_SHIFT_10ms', 'TIME_SHIFT_30ms', 'TIME_SHIFT_10ms', 'TIME_SHIFT_30ms', 'TIME_SHIFT_10ms', 'TIME_SHIFT_30ms', 'TIME_SHIFT_10ms', 'TIME_SHIFT_50ms', 'TIME_SHIFT_150ms', 'NOTE_ON_53', 'VELOCITY_5', 'NOTE_ON_38', 'VELOCITY_21', 'NOTE_OFF_42', 'NOTE_ON_46', 'VELOCITY_19', 'TIME_SHIFT_30ms', 'TIME_SHIFT_10ms', 'TIME_SHIFT_30ms', 'TIME_SHIFT_10ms', 'TIME_SHIFT_10ms', 'TIME_SHIFT_10ms', 'NOTE_OFF_53', 'TIME_SHIFT_10ms', 'TIME_SHIFT_10ms', 'TIME_SHIFT_30ms', 'TIME_SHIFT_10ms', 'TIME_SHIFT_30ms', 'TIME_SHIFT_10ms', 'NOTE_OFF_50', 'TIME_SHIFT_30ms', 'TIME_SHIFT_10ms', 'TIME_SHIFT_10ms', 'TIME_SHIFT_10ms', 'NOTE_OFF_38', 'TIME_SHIFT_30ms', 'TIME_SHIFT_10ms', 'TIME_SHIFT_30ms', 'TIME_SHIFT_10ms', 'NOTE_OFF_62', 'TIME_SHIFT_10ms', 'TIME_SHIFT_10ms', 'TIME_SHIFT_10ms', 'TIME_SHIFT_10ms', 'NOTE_OFF_46', 'NOTE_ON_57', 'VELOCITY_6', 'NOTE_ON_42', 'VELOCITY_18', 'NOTE_ON_57', 'VELOCITY_14', 'TIME_SHIFT_10ms', 'TIME_SHIFT_10ms', 'TIME_SHIFT_30ms', 'TIME_SHIFT_10ms', 'TIME_SHIFT_50ms', 'TIME_SHIFT_50ms', 'NOTE_OFF_26', 'TIME_SHIFT_30ms', 'TIME_SHIFT_10ms', 'TIME_SHIFT_110ms', 'TIME_SHIFT_10ms', 'NOTE_OFF_65', 'NOTE_OFF_65', 'TIME_SHIFT_10ms', 'TIME_SHIFT_10ms', 'NOTE_ON_26', 'VELOCITY_23', 'NOTE_OFF_42', 'NOTE_ON_35', 'VELOCITY_25', 'NOTE_ON_42', 'VELOCITY_17', 'NOTE_ON_62', 'VELOCITY_17', 'TIME_SHIFT_30ms', 'TIME_SHIFT_10ms', 'NOTE_ON_69', 'VELOCITY_20', 'TIME_SHIFT_100ms', 'NOTE_OFF_57', 'NOTE_OFF_35', 'TIME_SHIFT_10ms', 'TIME_SHIFT_10ms', 'NOTE_OFF_62', 'TIME_SHIFT_30ms', 'TIME_SHIFT_10ms', 'TIME_SHIFT_10ms', 'TIME_SHIFT_10ms', 'NOTE_OFF_69', 'TIME_SHIFT_50ms', 'NOTE_OFF_26', 'TIME_SHIFT_10ms', 'TIME_SHIFT_10ms', 'NOTE_OFF_57', 'TIME_SHIFT_50ms', 'NOTE_OFF_57', 'NOTE_OFF_42', 'NOTE_OFF_65', 'NOTE_ON_64', 'VELOCITY_16', 'NOTE_ON_28', 'VELOCITY_23', 'NOTE_ON_56', 'VELOCITY_17', 'NOTE_ON_52', 'VELOCITY_23', 'NOTE_ON_42', 'VELOCITY_25', 'NOTE_ON_68', 'VELOCITY_27', 'NOTE_ON_52', 'VELOCITY_18', 'NOTE_OFF_62', 'NOTE_ON_35', 'VELOCITY_25', 'NOTE_ON_59', 'VELOCITY_19', 'TIME_SHIFT_50ms', 'TIME_SHIFT_260ms', 'TIME_SHIFT_10ms', 'NOTE_ON_56', 'VELOCITY_10', 'NOTE_ON_56', 'VELOCITY_15', 'NOTE_ON_42', 'VELOCITY_5', 'NOTE_OFF_42', 'TIME_SHIFT_50ms', 'NOTE_OFF_35', 'TIME_SHIFT_110ms', 'TIME_SHIFT_10ms', 'NOTE_OFF_28', 'TIME_SHIFT_150ms', 'NOTE_ON_42', 'VELOCITY_11', 'NOTE_ON_59', 'VELOCITY_11', 'NOTE_ON_59', 'VELOCITY_16', 'NOTE_ON_28', 'VELOCITY_22', 'NOTE_OFF_42', 'NOTE_ON_35', 'VELOCITY_25', 'TIME_SHIFT_150ms', 'NOTE_OFF_35', 'TIME_SHIFT_150ms', 'NOTE_OFF_28', 'TIME_SHIFT_10ms', 'TIME_SHIFT_10ms', 'NOTE_ON_64', 'VELOCITY_20', 'NOTE_OFF_68', 'NOTE_ON_38', 'VELOCITY_22', 'NOTE_OFF_59', 'NOTE_ON_42', 'VELOCITY_25', 'NOTE_OFF_42', 'TIME_SHIFT_10ms', 'TIME_SHIFT_10ms', 'NOTE_ON_64', 'VELOCITY_21', 'TIME_SHIFT_60ms', 'TIME_SHIFT_10ms', 'NOTE_OFF_59', 'TIME_SHIFT_60ms', 'TIME_SHIFT_10ms', 'NOTE_OFF_38', 'TIME_SHIFT_60ms', 'TIME_SHIFT_10ms', 'NOTE_OFF_64', 'TIME_SHIFT_100ms', 'NOTE_ON_42', 'VELOCITY_15', 'NOTE_OFF_42', 'NOTE_ON_59', 'VELOCITY_11', 'NOTE_ON_64', 'VELOCITY_18', 'TIME_SHIFT_230ms', 'TIME_SHIFT_10ms', 'NOTE_OFF_59', 'TIME_SHIFT_10ms', 'TIME_SHIFT_10ms', 'NOTE_OFF_64', 'TIME_SHIFT_30ms', 'TIME_SHIFT_10ms', 'NOTE_OFF_56', 'TIME_SHIFT_10ms', 'TIME_SHIFT_10ms', 'NOTE_OFF_52', 'NOTE_OFF_56', 'NOTE_OFF_52', 'TIME_SHIFT_10ms', 'TIME_SHIFT_10ms', 'NOTE_OFF_42', 'NOTE_ON_35', 'VELOCITY_25', 'NOTE_ON_42', 'VELOCITY_13', 'NOTE_ON_59', 'VELOCITY_11', 'NOTE_ON_28', 'VELOCITY_22', 'NOTE_ON_68', 'VELOCITY_17', 'TIME_SHIFT_100ms', 'NOTE_OFF_68', 'TIME_SHIFT_10ms', 'TIME_SHIFT_10ms', 'NOTE_OFF_35', 'TIME_SHIFT_130ms', 'TIME_SHIFT_10ms', 'NOTE_OFF_28', 'TIME_SHIFT_60ms', 'TIME_SHIFT_10ms', 'NOTE_ON_35', 'VELOCITY_25', 'NOTE_ON_42', 'VELOCITY_27', 'NOTE_ON_28', 'VELOCITY_22', 'NOTE_ON_56', 'VELOCITY_10', 'NOTE_OFF_42', 'TIME_SHIFT_100ms', 'NOTE_OFF_59', 'TIME_SHIFT_160ms', 'TIME_SHIFT_10ms', 'NOTE_OFF_35', 'TIME_SHIFT_30ms', 'TIME_SHIFT_10ms', 'NOTE_ON_42', 'VELOCITY_13', 'NOTE_OFF_42', 'NOTE_ON_59', 'VELOCITY_13', 'NOTE_ON_62', 'VELOCITY_14', 'TIME_SHIFT_150ms', 'NOTE_OFF_28', 'TIME_SHIFT_10ms', 'TIME_SHIFT_10ms', 'NOTE_OFF_64', 'TIME_SHIFT_110ms', 'TIME_SHIFT_10ms', 'NOTE_OFF_56', 'TIME_SHIFT_10ms', 'TIME_SHIFT_10ms', 'NOTE_ON_64', 'VELOCITY_21', 'NOTE_OFF_62', 'TIME_SHIFT_10ms', 'TIME_SHIFT_10ms', 'NOTE_ON_28', 'VELOCITY_21', 'NOTE_ON_42', 'VELOCITY_13', 'NOTE_OFF_42', 'NOTE_ON_59', 'VELOCITY_12', 'NOTE_ON_71', 'VELOCITY_20', 'TIME_SHIFT_100ms', 'NOTE_OFF_59', 'TIME_SHIFT_210ms', 'TIME_SHIFT_10ms', 'NOTE_OFF_64', 'NOTE_OFF_42', 'NOTE_ON_56', 'VELOCITY_7', 'NOTE_ON_46', 'VELOCITY_19', 'NOTE_ON_38', 'VELOCITY_21', 'NOTE_ON_71', 'VELOCITY_23', 'NOTE_ON_56', 'VELOCITY_13', 'TIME_SHIFT_10ms', 'TIME_SHIFT_10ms', 'NOTE_OFF_28', 'TIME_SHIFT_50ms', 'NOTE_OFF_59', 'TIME_SHIFT_150ms', 'NOTE_OFF_56', 'TIME_SHIFT_10ms', 'TIME_SHIFT_10ms', 'NOTE_OFF_38', 'TIME_SHIFT_80ms', 'TIME_SHIFT_10ms', 'NOTE_ON_59', 'VELOCITY_11', 'NOTE_ON_74', 'VELOCITY_22', 'NOTE_ON_42', 'VELOCITY_18', 'NOTE_ON_59', 'VELOCITY_13', 'NOTE_OFF_46', 'NOTE_ON_28', 'VELOCITY_21', 'TIME_SHIFT_10ms', 'TIME_SHIFT_10ms', 'NOTE_OFF_71', 'TIME_SHIFT_80ms', 'TIME_SHIFT_10ms', 'NOTE_OFF_56', 'TIME_SHIFT_160ms', 'TIME_SHIFT_10ms', 'NOTE_OFF_59', 'TIME_SHIFT_10ms', 'TIME_SHIFT_10ms', 'NOTE_OFF_28', 'NOTE_OFF_74', 'TIME_SHIFT_30ms', 'TIME_SHIFT_10ms', 'NOTE_ON_62', 'VELOCITY_7', 'NOTE_ON_35', 'VELOCITY_25', 'NOTE_ON_42', 'VELOCITY_17', 'NOTE_ON_71', 'VELOCITY_20', 'NOTE_OFF_42', 'NOTE_ON_31', 'VELOCITY_21', 'TIME_SHIFT_150ms', 'NOTE_OFF_35', 'TIME_SHIFT_30ms', 'TIME_SHIFT_10ms', 'TIME_SHIFT_50ms', 'NOTE_OFF_62', 'TIME_SHIFT_60ms', 'TIME_SHIFT_10ms', 'NOTE_OFF_71', 'TIME_SHIFT_10ms', 'TIME_SHIFT_10ms', 'NOTE_OFF_64', 'NOTE_ON_33', 'VELOCITY_22', 'NOTE_OFF_59', 'NOTE_OFF_56', 'NOTE_OFF_42', 'NOTE_ON_45', 'VELOCITY_25', 'NOTE_ON_61', 'VELOCITY_19', 'NOTE_ON_64', 'VELOCITY_18', 'NOTE_ON_35', 'VELOCITY_25', 'NOTE_ON_42', 'VELOCITY_25', 'NOTE_ON_45', 'VELOCITY_17', 'NOTE_ON_57', 'VELOCITY_22', 'TIME_SHIFT_10ms', 'TIME_SHIFT_10ms', 'NOTE_OFF_71', 'NOTE_ON_73', 'VELOCITY_22', 'NOTE_OFF_31', 'TIME_SHIFT_50ms', 'TIME_SHIFT_60ms', 'TIME_SHIFT_10ms', 'NOTE_OFF_59', 'TIME_SHIFT_180ms', 'TIME_SHIFT_10ms', 'NOTE_ON_52', 'VELOCITY_14', 'NOTE_OFF_42', 'NOTE_ON_42', 'VELOCITY_5', 'NOTE_ON_52', 'VELOCITY_18', 'TIME_SHIFT_50ms', 'NOTE_OFF_35', 'TIME_SHIFT_130ms', 'TIME_SHIFT_10ms', 'NOTE_OFF_33', 'TIME_SHIFT_130ms', 'TIME_SHIFT_10ms', 'NOTE_ON_57', 'VELOCITY_11', 'NOTE_ON_55', 'VELOCITY_19', 'NOTE_ON_35', 'VELOCITY_25', 'NOTE_ON_42', 'VELOCITY_11', 'NOTE_OFF_42', 'NOTE_ON_33', 'VELOCITY_22', 'TIME_SHIFT_160ms', 'TIME_SHIFT_10ms', 'NOTE_OFF_35', 'TIME_SHIFT_110ms', 'TIME_SHIFT_10ms', 'NOTE_OFF_33', 'TIME_SHIFT_30ms', 'TIME_SHIFT_10ms', 'NOTE_ON_38', 'VELOCITY_22', 'NOTE_OFF_42', 'NOTE_ON_42', 'VELOCITY_25', 'TIME_SHIFT_150ms', 'NOTE_OFF_38', 'TIME_SHIFT_80ms', 'TIME_SHIFT_10ms', 'NOTE_OFF_57', 'TIME_SHIFT_60ms', 'TIME_SHIFT_10ms', 'TIME_SHIFT_10ms', 'TIME_SHIFT_10ms', 'NOTE_ON_59', 'VELOCITY_17', 'NOTE_ON_31', 'VELOCITY_21', 'NOTE_ON_61', 'VELOCITY_16', 'NOTE_ON_42', 'VELOCITY_15', 'NOTE_OFF_42', 'TIME_SHIFT_80ms', 'TIME_SHIFT_10ms', 'TIME_SHIFT_150ms', 'TIME_SHIFT_10ms', 'TIME_SHIFT_10ms', 'NOTE_OFF_31', 'TIME_SHIFT_30ms', 'TIME_SHIFT_10ms', 'TIME_SHIFT_30ms', 'TIME_SHIFT_10ms', 'NOTE_ON_42', 'VELOCITY_13', 'NOTE_OFF_61', 'NOTE_ON_33', 'VELOCITY_23', 'NOTE_ON_57', 'VELOCITY_12', 'NOTE_ON_61', 'VELOCITY_15', 'NOTE_ON_35', 'VELOCITY_25', 'NOTE_OFF_42', 'TIME_SHIFT_80ms', 'TIME_SHIFT_10ms', 'TIME_SHIFT_30ms', 'TIME_SHIFT_10ms', 'NOTE_OFF_35', 'TIME_SHIFT_30ms', 'TIME_SHIFT_10ms', 'NOTE_OFF_57', 'TIME_SHIFT_10ms', 'TIME_SHIFT_10ms', 'TIME_SHIFT_30ms', 'TIME_SHIFT_10ms', 'TIME_SHIFT_30ms', 'TIME_SHIFT_10ms', 'NOTE_OFF_33', 'TIME_SHIFT_10ms', 'TIME_SHIFT_10ms', 'NOTE_OFF_59', 'TIME_SHIFT_50ms', 'TIME_SHIFT_10ms', 'TIME_SHIFT_10ms', 'NOTE_ON_33', 'VELOCITY_24', 'NOTE_ON_42', 'VELOCITY_27', 'NOTE_ON_69', 'VELOCITY_9', 'NOTE_ON_35', 'VELOCITY_25', 'NOTE_ON_57', 'VELOCITY_20', 'NOTE_OFF_42', 'NOTE_ON_64', 'VELOCITY_18', 'TIME_SHIFT_10ms', 'TIME_SHIFT_10ms', 'NOTE_OFF_61', 'TIME_SHIFT_110ms', 'TIME_SHIFT_10ms', 'NOTE_OFF_69', 'TIME_SHIFT_30ms', 'TIME_SHIFT_10ms', 'NOTE_OFF_73', 'TIME_SHIFT_100ms', 'NOTE_OFF_35', 'TIME_SHIFT_10ms', 'TIME_SHIFT_10ms', 'TIME_SHIFT_10ms', 'TIME_SHIFT_10ms', 'NOTE_OFF_52', 'TIME_SHIFT_10ms', 'TIME_SHIFT_10ms', 'NOTE_OFF_42', 'TIME_SHIFT_10ms', 'TIME_SHIFT_10ms', 'NOTE_OFF_64', 'TIME_SHIFT_60ms', 'TIME_SHIFT_10ms', 'TIME_SHIFT_80ms', 'TIME_SHIFT_10ms', 'TIME_SHIFT_100ms', 'TIME_SHIFT_50ms', 'TIME_SHIFT_60ms', 'TIME_SHIFT_10ms', 'TIME_SHIFT_10ms', 'TIME_SHIFT_10ms', 'NOTE_OFF_55', 'TIME_SHIFT_30ms', 'TIME_SHIFT_10ms', 'TIME_SHIFT_60ms', 'TIME_SHIFT_10ms', 'TIME_SHIFT_60ms', 'TIME_SHIFT_10ms', 'TIME_SHIFT_60ms', 'TIME_SHIFT_10ms', 'NOTE_OFF_57', 'TIME_SHIFT_60ms', 'TIME_SHIFT_10ms', 'TIME_SHIFT_100ms', 'TIME_SHIFT_50ms', 'TIME_SHIFT_30ms', 'TIME_SHIFT_10ms', 'NOTE_OFF_52', 'TIME_SHIFT_30ms', 'TIME_SHIFT_10ms', 'TIME_SHIFT_10ms', 'TIME_SHIFT_10ms', 'NOTE_OFF_45', 'TIME_SHIFT_280ms', 'TIME_SHIFT_10ms', 'TIME_SHIFT_10ms', 'TIME_SHIFT_10ms', 'TIME_SHIFT_10ms', 'TIME_SHIFT_10ms', 'NOTE_OFF_45', 'NOTE_ON_62', 'VELOCITY_24', 'TIME_SHIFT_10ms', 'TIME_SHIFT_10ms', 'NOTE_OFF_33', 'TIME_SHIFT_10ms', 'TIME_SHIFT_10ms', 'TIME_SHIFT_80ms', 'TIME_SHIFT_10ms', 'TIME_SHIFT_30ms', 'TIME_SHIFT_10ms', 'TIME_SHIFT_30ms', 'TIME_SHIFT_10ms', 'TIME_SHIFT_60ms', 'TIME_SHIFT_10ms', 'TIME_SHIFT_50ms', 'NOTE_OFF_62', 'TIME_SHIFT_10ms', 'TIME_SHIFT_10ms', 'NOTE_OFF_57', 'NOTE_ON_50', 'VELOCITY_21', 'NOTE_ON_26', 'VELOCITY_23', 'NOTE_OFF_64', 'NOTE_ON_65', 'VELOCITY_16', 'NOTE_ON_57', 'VELOCITY_19', 'NOTE_OFF_61', 'NOTE_ON_69', 'VELOCITY_24', 'NOTE_ON_62', 'VELOCITY_20', 'NOTE_ON_42', 'VELOCITY_21', 'NOTE_ON_35', 'VELOCITY_25', 'TIME_SHIFT_30ms', 'TIME_SHIFT_10ms', 'NOTE_ON_50', 'VELOCITY_20', 'NOTE_ON_69', 'VELOCITY_22', 'TIME_SHIFT_10ms', 'TIME_SHIFT_10ms', 'TIME_SHIFT_10ms', 'TIME_SHIFT_10ms', 'TIME_SHIFT_10ms', 'TIME_SHIFT_10ms', 'TIME_SHIFT_60ms', 'TIME_SHIFT_10ms', 'TIME_SHIFT_30ms', 'TIME_SHIFT_10ms', 'NOTE_OFF_69', 'TIME_SHIFT_30ms', 'TIME_SHIFT_10ms', 'TIME_SHIFT_30ms', 'TIME_SHIFT_10ms', 'TIME_SHIFT_60ms', 'TIME_SHIFT_10ms', 'NOTE_ON_57', 'VELOCITY_11', 'NOTE_ON_69', 'VELOCITY_24', 'NOTE_ON_42', 'VELOCITY_12', 'NOTE_OFF_42', 'NOTE_ON_70', 'VELOCITY_10', 'TIME_SHIFT_10ms', 'TIME_SHIFT_10ms', 'NOTE_OFF_69', 'TIME_SHIFT_30ms', 'TIME_SHIFT_10ms', 'NOTE_ON_57', 'VELOCITY_14', 'TIME_SHIFT_10ms', 'TIME_SHIFT_10ms', 'TIME_SHIFT_60ms', 'TIME_SHIFT_10ms', 'NOTE_OFF_69', 'TIME_SHIFT_150ms', 'TIME_SHIFT_30ms', 'TIME_SHIFT_10ms', 'NOTE_ON_42', 'VELOCITY_12', 'NOTE_ON_69', 'VELOCITY_24', 'NOTE_OFF_70', 'NOTE_ON_70', 'VELOCITY_9', 'NOTE_ON_65', 'VELOCITY_16', 'NOTE_OFF_42', 'TIME_SHIFT_30ms', 'TIME_SHIFT_10ms', 'NOTE_ON_62', 'VELOCITY_14', 'TIME_SHIFT_60ms', 'TIME_SHIFT_10ms', 'TIME_SHIFT_50ms', 'NOTE_OFF_69', 'TIME_SHIFT_30ms', 'TIME_SHIFT_10ms', 'TIME_SHIFT_130ms', 'TIME_SHIFT_10ms', 'NOTE_ON_37', 'VELOCITY_21', 'NOTE_ON_54', 'VELOCITY_19', 'NOTE_ON_42', 'VELOCITY_25', 'NOTE_OFF_70', 'NOTE_OFF_57', 'NOTE_ON_69', 'VELOCITY_24', 'NOTE_OFF_42', 'NOTE_OFF_35', 'TIME_SHIFT_110ms', 'TIME_SHIFT_10ms', 'TIME_SHIFT_110ms', 'TIME_SHIFT_10ms', 'NOTE_OFF_69', 'TIME_SHIFT_10ms', 'TIME_SHIFT_10ms', 'NOTE_OFF_57', 'TIME_SHIFT_30ms', 'TIME_SHIFT_10ms', 'NOTE_OFF_26', 'TIME_SHIFT_10ms', 'TIME_SHIFT_10ms', 'NOTE_ON_65', 'VELOCITY_18', 'TIME_SHIFT_10ms', 'TIME_SHIFT_10ms', 'NOTE_ON_74', 'VELOCITY_24', 'NOTE_ON_42', 'VELOCITY_9', 'NOTE_OFF_42', 'NOTE_ON_70', 'VELOCITY_14', 'NOTE_OFF_50', 'TIME_SHIFT_30ms', 'TIME_SHIFT_10ms', 'NOTE_OFF_62', 'TIME_SHIFT_10ms', 'TIME_SHIFT_10ms', 'TIME_SHIFT_10ms', 'TIME_SHIFT_10ms', 'NOTE_OFF_65', 'TIME_SHIFT_60ms', 'TIME_SHIFT_10ms', 'NOTE_OFF_50', 'TIME_SHIFT_30ms', 'TIME_SHIFT_10ms', 'NOTE_OFF_42', 'NOTE_ON_42', 'VELOCITY_12', 'TIME_SHIFT_30ms', 'TIME_SHIFT_10ms', 'NOTE_OFF_74', 'TIME_SHIFT_80ms', 'TIME_SHIFT_10ms', 'TIME_SHIFT_10ms', 'TIME_SHIFT_10ms', 'NOTE_OFF_65', 'TIME_SHIFT_10ms', 'TIME_SHIFT_10ms', 'NOTE_ON_70', 'VELOCITY_9', 'NOTE_ON_42', 'VELOCITY_13', 'NOTE_OFF_70', 'NOTE_ON_26', 'VELOCITY_22', 'NOTE_OFF_42', 'NOTE_ON_69', 'VELOCITY_24', 'TIME_SHIFT_10ms', 'TIME_SHIFT_10ms', 'NOTE_ON_62', 'VELOCITY_12', 'TIME_SHIFT_60ms', 'TIME_SHIFT_10ms', 'TIME_SHIFT_30ms', 'TIME_SHIFT_10ms', 'TIME_SHIFT_50ms', 'NOTE_OFF_42', 'NOTE_ON_42', 'VELOCITY_15', 'TIME_SHIFT_10ms', 'TIME_SHIFT_10ms', 'NOTE_OFF_26', 'TIME_SHIFT_10ms', 'TIME_SHIFT_10ms', 'TIME_SHIFT_30ms', 'TIME_SHIFT_10ms', 'NOTE_OFF_62', 'TIME_SHIFT_10ms', 'TIME_SHIFT_10ms', 'TIME_SHIFT_10ms', 'TIME_SHIFT_10ms', 'NOTE_OFF_69', 'TIME_SHIFT_10ms', 'TIME_SHIFT_10ms', 'NOTE_ON_48', 'VELOCITY_15', 'TIME_SHIFT_10ms', 'TIME_SHIFT_10ms', 'NOTE_ON_67', 'VELOCITY_19', 'TIME_SHIFT_10ms', 'TIME_SHIFT_10ms', 'NOTE_OFF_62', 'NOTE_ON_64', 'VELOCITY_15', 'NOTE_ON_48', 'VELOCITY_19', 'NOTE_ON_72', 'VELOCITY_24', 'NOTE_ON_60', 'VELOCITY_20', 'NOTE_ON_24', 'VELOCITY_22', 'NOTE_ON_55', 'VELOCITY_16', 'NOTE_ON_62', 'VELOCITY_14', 'NOTE_OFF_57', 'NOTE_OFF_70', 'NOTE_OFF_65', 'NOTE_ON_42', 'VELOCITY_27', 'NOTE_ON_35', 'VELOCITY_25', 'NOTE_OFF_42', 'NOTE_OFF_54', 'NOTE_OFF_37', 'NOTE_ON_64', 'VELOCITY_15', 'TIME_SHIFT_50ms', 'TIME_SHIFT_10ms', 'TIME_SHIFT_10ms', 'TIME_SHIFT_30ms', 'TIME_SHIFT_10ms', 'TIME_SHIFT_50ms', 'TIME_SHIFT_10ms', 'TIME_SHIFT_10ms', 'NOTE_OFF_72', 'TIME_SHIFT_10ms', 'TIME_SHIFT_10ms', 'TIME_SHIFT_50ms', 'TIME_SHIFT_10ms', 'TIME_SHIFT_10ms', 'NOTE_OFF_62', 'NOTE_OFF_67', 'TIME_SHIFT_10ms', 'TIME_SHIFT_10ms', 'NOTE_OFF_64', 'TIME_SHIFT_50ms', 'NOTE_ON_55', 'VELOCITY_15', 'NOTE_ON_70', 'VELOCITY_16', 'NOTE_OFF_42', 'NOTE_ON_42', 'VELOCITY_12', 'NOTE_ON_55', 'VELOCITY_13', 'NOTE_ON_72', 'VELOCITY_24', 'TIME_SHIFT_60ms', 'TIME_SHIFT_10ms', 'TIME_SHIFT_50ms', 'NOTE_OFF_72', 'TIME_SHIFT_10ms', 'TIME_SHIFT_10ms', 'TIME_SHIFT_150ms', 'TIME_SHIFT_30ms', 'TIME_SHIFT_10ms', 'NOTE_ON_74', 'VELOCITY_24', 'NOTE_ON_64', 'VELOCITY_15', 'NOTE_OFF_70', 'NOTE_ON_42', 'VELOCITY_6', 'NOTE_OFF_42', 'NOTE_ON_70', 'VELOCITY_11', 'NOTE_OFF_55', 'TIME_SHIFT_30ms', 'TIME_SHIFT_10ms', 'TIME_SHIFT_10ms', 'TIME_SHIFT_10ms', 'NOTE_ON_60', 'VELOCITY_7', 'TIME_SHIFT_50ms', 'TIME_SHIFT_30ms', 'TIME_SHIFT_10ms', 'NOTE_OFF_74', 'TIME_SHIFT_30ms', 'TIME_SHIFT_10ms', 'TIME_SHIFT_150ms', 'NOTE_OFF_70', 'NOTE_ON_67', 'VELOCITY_24', 'NOTE_ON_67', 'VELOCITY_20', 'NOTE_ON_64', 'VELOCITY_13', 'NOTE_OFF_35', 'NOTE_ON_54', 'VELOCITY_25', 'NOTE_ON_37', 'VELOCITY_23', 'NOTE_OFF_42', 'NOTE_ON_42', 'VELOCITY_29', 'TIME_SHIFT_100ms', 'NOTE_OFF_60', 'TIME_SHIFT_10ms', 'TIME_SHIFT_10ms', 'NOTE_OFF_48', 'TIME_SHIFT_10ms', 'TIME_SHIFT_10ms', 'NOTE_OFF_67', 'TIME_SHIFT_30ms', 'TIME_SHIFT_10ms', 'NOTE_OFF_55', 'TIME_SHIFT_60ms', 'TIME_SHIFT_10ms', 'TIME_SHIFT_50ms', 'NOTE_OFF_48', 'TIME_SHIFT_30ms', 'TIME_SHIFT_10ms', 'NOTE_OFF_42', 'NOTE_ON_70', 'VELOCITY_15', 'NOTE_OFF_37', 'NOTE_ON_42', 'VELOCITY_8', 'TIME_SHIFT_10ms', 'TIME_SHIFT_10ms', 'NOTE_ON_62', 'VELOCITY_8', 'NOTE_OFF_64', 'TIME_SHIFT_10ms', 'TIME_SHIFT_10ms', 'NOTE_OFF_24', 'NOTE_OFF_67', 'TIME_SHIFT_110ms', 'TIME_SHIFT_10ms', 'NOTE_ON_42', 'VELOCITY_9', 'NOTE_OFF_42', 'TIME_SHIFT_30ms', 'TIME_SHIFT_10ms', 'NOTE_OFF_62', 'TIME_SHIFT_80ms', 'TIME_SHIFT_10ms', 'TIME_SHIFT_30ms', 'TIME_SHIFT_10ms', 'NOTE_OFF_64', 'TIME_SHIFT_10ms', 'TIME_SHIFT_10ms', 'NOTE_ON_35', 'VELOCITY_25', 'NOTE_ON_70', 'VELOCITY_14', 'NOTE_ON_62', 'VELOCITY_24', 'NOTE_OFF_70', 'NOTE_ON_42', 'VELOCITY_15', 'NOTE_ON_24', 'VELOCITY_21', 'NOTE_OFF_42', 'TIME_SHIFT_30ms', 'TIME_SHIFT_10ms', 'TIME_SHIFT_30ms', 'TIME_SHIFT_10ms', 'TIME_SHIFT_30ms', 'TIME_SHIFT_10ms', 'NOTE_OFF_24', 'TIME_SHIFT_10ms', 'TIME_SHIFT_10ms', 'NOTE_OFF_62', 'TIME_SHIFT_30ms', 'TIME_SHIFT_10ms', 'NOTE_OFF_42', 'NOTE_ON_42', 'VELOCITY_20', 'TIME_SHIFT_10ms', 'TIME_SHIFT_10ms', 'TIME_SHIFT_80ms', 'TIME_SHIFT_10ms', 'TIME_SHIFT_10ms', 'TIME_SHIFT_10ms', 'NOTE_ON_46', 'VELOCITY_17', 'TIME_SHIFT_30ms', 'TIME_SHIFT_10ms', 'NOTE_ON_65', 'VELOCITY_19', 'TIME_SHIFT_10ms', 'TIME_SHIFT_10ms', 'NOTE_ON_46', 'VELOCITY_16', 'NOTE_OFF_35', 'NOTE_OFF_70', 'NOTE_OFF_54', 'NOTE_OFF_42', 'NOTE_ON_58', 'VELOCITY_17', 'NOTE_OFF_64', 'NOTE_OFF_55', 'NOTE_OFF_60', 'NOTE_ON_65', 'VELOCITY_24', 'NOTE_ON_34', 'VELOCITY_19', 'NOTE_ON_62', 'VELOCITY_20', 'NOTE_ON_62', 'VELOCITY_14', 'NOTE_ON_65', 'VELOCITY_17', 'NOTE_ON_35', 'VELOCITY_25', 'NOTE_ON_42', 'VELOCITY_21', 'TIME_SHIFT_60ms', 'TIME_SHIFT_10ms', 'TIME_SHIFT_10ms', 'TIME_SHIFT_10ms', 'TIME_SHIFT_30ms', 'TIME_SHIFT_10ms', 'TIME_SHIFT_110ms', 'TIME_SHIFT_10ms', 'TIME_SHIFT_80ms', 'TIME_SHIFT_10ms', 'NOTE_OFF_42', 'NOTE_ON_53', 'VELOCITY_9', 'NOTE_ON_42', 'VELOCITY_12', 'NOTE_ON_65', 'VELOCITY_24', 'NOTE_ON_70', 'VELOCITY_10', 'NOTE_OFF_65', 'TIME_SHIFT_30ms', 'TIME_SHIFT_10ms', 'TIME_SHIFT_30ms', 'TIME_SHIFT_10ms', 'NOTE_OFF_65', 'TIME_SHIFT_30ms', 'TIME_SHIFT_10ms', 'TIME_SHIFT_80ms', 'TIME_SHIFT_10ms', 'TIME_SHIFT_60ms', 'TIME_SHIFT_10ms', 'TIME_SHIFT_60ms', 'TIME_SHIFT_10ms', 'NOTE_OFF_65', 'NOTE_ON_42', 'VELOCITY_12', 'NOTE_OFF_70', 'NOTE_ON_58', 'VELOCITY_14', 'NOTE_ON_58', 'VELOCITY_13', 'NOTE_OFF_42', 'NOTE_ON_70', 'VELOCITY_9', 'NOTE_ON_65', 'VELOCITY_24', 'TIME_SHIFT_30ms', 'TIME_SHIFT_10ms', 'NOTE_OFF_62', 'TIME_SHIFT_30ms', 'TIME_SHIFT_10ms', 'TIME_SHIFT_80ms', 'TIME_SHIFT_10ms', 'TIME_SHIFT_60ms', 'TIME_SHIFT_10ms', 'TIME_SHIFT_60ms', 'TIME_SHIFT_10ms', 'TIME_SHIFT_30ms', 'TIME_SHIFT_10ms', 'NOTE_OFF_65', 'NOTE_ON_54', 'VELOCITY_19', 'NOTE_ON_37', 'VELOCITY_21', 'NOTE_OFF_42', 'NOTE_ON_42', 'VELOCITY_25', 'NOTE_ON_65', 'VELOCITY_24', 'NOTE_OFF_35', 'NOTE_OFF_70', 'TIME_SHIFT_30ms', 'TIME_SHIFT_10ms', 'NOTE_OFF_58', 'TIME_SHIFT_30ms', 'TIME_SHIFT_10ms', 'TIME_SHIFT_60ms', 'TIME_SHIFT_10ms', 'TIME_SHIFT_50ms', 'NOTE_OFF_58', 'NOTE_OFF_53', 'TIME_SHIFT_10ms', 'TIME_SHIFT_10ms', 'TIME_SHIFT_10ms', 'TIME_SHIFT_10ms', 'NOTE_OFF_46', 'TIME_SHIFT_10ms', 'TIME_SHIFT_10ms', 'NOTE_OFF_46', 'TIME_SHIFT_10ms', 'TIME_SHIFT_10ms', 'NOTE_OFF_34', 'TIME_SHIFT_30ms', 'TIME_SHIFT_10ms', 'NOTE_ON_65', 'VELOCITY_15', 'TIME_SHIFT_10ms', 'TIME_SHIFT_10ms', 'NOTE_OFF_42', 'NOTE_OFF_65', 'NOTE_ON_42', 'VELOCITY_9', 'NOTE_ON_62', 'VELOCITY_12', 'NOTE_ON_67', 'VELOCITY_24', 'NOTE_ON_70', 'VELOCITY_14', 'TIME_SHIFT_50ms', 'TIME_SHIFT_50ms', 'NOTE_OFF_65', 'TIME_SHIFT_60ms', 'TIME_SHIFT_10ms', 'NOTE_OFF_42', 'NOTE_ON_42', 'VELOCITY_12', 'TIME_SHIFT_50ms', 'TIME_SHIFT_100ms', 'NOTE_OFF_70', 'NOTE_ON_69', 'VELOCITY_24', 'NOTE_ON_34', 'VELOCITY_23', 'NOTE_OFF_67', 'NOTE_OFF_42', 'NOTE_ON_70', 'VELOCITY_9', 'NOTE_ON_42', 'VELOCITY_13', 'TIME_SHIFT_60ms', 'TIME_SHIFT_10ms', 'TIME_SHIFT_10ms', 'TIME_SHIFT_10ms', 'TIME_SHIFT_10ms', 'TIME_SHIFT_10ms', 'TIME_SHIFT_10ms', 'TIME_SHIFT_10ms', 'NOTE_OFF_34', 'TIME_SHIFT_10ms', 'TIME_SHIFT_10ms', 'NOTE_OFF_62', 'TIME_SHIFT_10ms', 'TIME_SHIFT_10ms', 'TIME_SHIFT_10ms', 'TIME_SHIFT_10ms', 'NOTE_ON_42', 'VELOCITY_15', 'NOTE_OFF_42', 'TIME_SHIFT_60ms', 'TIME_SHIFT_10ms', 'TIME_SHIFT_60ms', 'TIME_SHIFT_10ms', 'NOTE_ON_45', 'VELOCITY_18', 'TIME_SHIFT_10ms', 'TIME_SHIFT_10ms', 'NOTE_ON_45', 'VELOCITY_19', 'NOTE_ON_33', 'VELOCITY_22', 'NOTE_ON_69', 'VELOCITY_18', 'NOTE_ON_64', 'VELOCITY_17', 'NOTE_ON_42', 'VELOCITY_27', 'NOTE_ON_57', 'VELOCITY_16', 'NOTE_ON_64', 'VELOCITY_15', 'NOTE_OFF_37', 'NOTE_OFF_54', 'NOTE_ON_60', 'VELOCITY_17', 'NOTE_ON_35', 'VELOCITY_25', 'NOTE_OFF_62', 'NOTE_OFF_69', 'NOTE_OFF_70', 'NOTE_ON_64', 'VELOCITY_24', 'NOTE_OFF_58', 'NOTE_OFF_42', 'NOTE_OFF_65', 'TIME_SHIFT_10ms', 'TIME_SHIFT_10ms', 'TIME_SHIFT_10ms', 'TIME_SHIFT_10ms', 'TIME_SHIFT_200ms', 'NOTE_OFF_69', 'TIME_SHIFT_10ms', 'TIME_SHIFT_10ms', 'TIME_SHIFT_10ms', 'TIME_SHIFT_10ms', 'NOTE_OFF_64', 'TIME_SHIFT_50ms', 'NOTE_OFF_42', 'NOTE_ON_70', 'VELOCITY_16', 'NOTE_ON_52', 'VELOCITY_11', 'NOTE_ON_42', 'VELOCITY_12', 'TIME_SHIFT_60ms', 'TIME_SHIFT_10ms', 'NOTE_ON_52', 'VELOCITY_11', 'TIME_SHIFT_100ms', 'TIME_SHIFT_150ms', 'NOTE_ON_42', 'VELOCITY_6', 'NOTE_ON_57', 'VELOCITY_13', 'NOTE_ON_64', 'VELOCITY_18', 'NOTE_ON_70', 'VELOCITY_11', 'NOTE_OFF_42', 'NOTE_OFF_70', 'TIME_SHIFT_80ms', 'TIME_SHIFT_10ms', 'TIME_SHIFT_50ms', 'NOTE_OFF_52', 'TIME_SHIFT_180ms', 'TIME_SHIFT_10ms', 'NOTE_ON_64', 'VELOCITY_16', 'NOTE_ON_42', 'VELOCITY_29', 'NOTE_OFF_70', 'NOTE_OFF_35', 'NOTE_ON_54', 'VELOCITY_25', 'NOTE_OFF_64', 'NOTE_ON_37', 'VELOCITY_23', 'NOTE_OFF_42', 'TIME_SHIFT_100ms', 'NOTE_OFF_45', 'NOTE_OFF_52', 'NOTE_OFF_33', 'TIME_SHIFT_160ms', 'TIME_SHIFT_10ms', 'NOTE_OFF_64', 'TIME_SHIFT_10ms', 'TIME_SHIFT_10ms', 'NOTE_OFF_45', 'TIME_SHIFT_10ms', 'TIME_SHIFT_10ms', 'NOTE_OFF_64', 'TIME_SHIFT_10ms', 'TIME_SHIFT_10ms', 'NOTE_ON_42', 'VELOCITY_8', 'NOTE_ON_70', 'VELOCITY_15', 'NOTE_OFF_37', 'NOTE_ON_57', 'VELOCITY_13', 'NOTE_OFF_42', 'NOTE_ON_31', 'VELOCITY_22', 'TIME_SHIFT_10ms', 'TIME_SHIFT_10ms', 'NOTE_OFF_57', 'TIME_SHIFT_150ms', 'NOTE_OFF_42', 'NOTE_ON_42', 'VELOCITY_9', 'TIME_SHIFT_110ms', 'TIME_SHIFT_10ms', 'TIME_SHIFT_30ms', 'TIME_SHIFT_10ms', 'NOTE_OFF_70', 'NOTE_ON_42', 'VELOCITY_15', 'NOTE_ON_70', 'VELOCITY_14', 'NOTE_OFF_42', 'NOTE_ON_60', 'VELOCITY_24', 'NOTE_ON_33', 'VELOCITY_20', 'NOTE_ON_35', 'VELOCITY_25', 'TIME_SHIFT_10ms', 'TIME_SHIFT_10ms', 'NOTE_OFF_31', 'TIME_SHIFT_10ms', 'TIME_SHIFT_10ms', 'TIME_SHIFT_30ms', 'TIME_SHIFT_10ms', 'TIME_SHIFT_30ms', 'TIME_SHIFT_10ms', 'NOTE_OFF_60', 'TIME_SHIFT_50ms', 'NOTE_OFF_57', 'NOTE_OFF_42', 'NOTE_ON_42', 'VELOCITY_20', 'TIME_SHIFT_10ms', 'TIME_SHIFT_10ms', 'TIME_SHIFT_50ms', 'TIME_SHIFT_10ms', 'TIME_SHIFT_10ms', 'NOTE_OFF_33', 'TIME_SHIFT_60ms', 'TIME_SHIFT_10ms', 'NOTE_ON_50', 'VELOCITY_20', 'TIME_SHIFT_10ms', 'TIME_SHIFT_10ms', 'NOTE_OFF_35', 'NOTE_OFF_64', 'NOTE_OFF_42', 'NOTE_OFF_57', 'NOTE_OFF_70', 'NOTE_OFF_54', 'NOTE_ON_62', 'VELOCITY_24', 'NOTE_OFF_60', 'NOTE_ON_26', 'VELOCITY_23', 'NOTE_ON_65', 'VELOCITY_16', 'NOTE_ON_62', 'VELOCITY_15', 'NOTE_ON_46', 'VELOCITY_17', 'NOTE_ON_57', 'VELOCITY_13', 'NOTE_ON_65', 'VELOCITY_14', 'NOTE_ON_62', 'VELOCITY_16', 'NOTE_ON_42', 'VELOCITY_21', 'NOTE_ON_35', 'VELOCITY_25', 'TIME_SHIFT_30ms', 'TIME_SHIFT_10ms', 'TIME_SHIFT_30ms', 'TIME_SHIFT_10ms', 'TIME_SHIFT_10ms', 'TIME_SHIFT_10ms', 'NOTE_OFF_46', 'TIME_SHIFT_50ms', 'TIME_SHIFT_50ms', 'NOTE_OFF_62', 'TIME_SHIFT_30ms', 'TIME_SHIFT_10ms', 'TIME_SHIFT_10ms', 'TIME_SHIFT_10ms', 'TIME_SHIFT_30ms', 'TIME_SHIFT_10ms', 'NOTE_OFF_65', 'TIME_SHIFT_10ms', 'TIME_SHIFT_10ms', 'NOTE_OFF_62', 'TIME_SHIFT_10ms', 'TIME_SHIFT_10ms', 'TIME_SHIFT_10ms', 'TIME_SHIFT_10ms', 'NOTE_ON_62', 'VELOCITY_24', 'NOTE_ON_53', 'VELOCITY_13', 'NOTE_ON_70', 'VELOCITY_10', 'NOTE_ON_42', 'VELOCITY_12', 'NOTE_OFF_42', 'TIME_SHIFT_30ms', 'TIME_SHIFT_10ms', 'NOTE_ON_57', 'VELOCITY_12', 'TIME_SHIFT_30ms', 'TIME_SHIFT_10ms', 'TIME_SHIFT_50ms', 'NOTE_OFF_62', 'TIME_SHIFT_10ms', 'TIME_SHIFT_10ms', 'TIME_SHIFT_130ms', 'TIME_SHIFT_10ms', 'TIME_SHIFT_10ms', 'TIME_SHIFT_10ms', 'NOTE_OFF_53', 'TIME_SHIFT_30ms', 'TIME_SHIFT_10ms', 'NOTE_OFF_42', 'NOTE_ON_62', 'VELOCITY_24', 'NOTE_ON_42', 'VELOCITY_12', 'NOTE_ON_70', 'VELOCITY_9', 'NOTE_OFF_70', 'TIME_SHIFT_10ms', 'TIME_SHIFT_10ms', 'NOTE_ON_62', 'VELOCITY_13', 'TIME_SHIFT_10ms', 'TIME_SHIFT_10ms', 'TIME_SHIFT_60ms', 'TIME_SHIFT_10ms', 'TIME_SHIFT_30ms', 'TIME_SHIFT_10ms', 'NOTE_OFF_62', 'TIME_SHIFT_30ms', 'TIME_SHIFT_10ms', 'TIME_SHIFT_50ms', 'NOTE_OFF_57', 'TIME_SHIFT_100ms', 'NOTE_OFF_35', 'NOTE_ON_37', 'VELOCITY_21', 'NOTE_ON_62', 'VELOCITY_24', 'NOTE_ON_54', 'VELOCITY_19', 'NOTE_ON_42', 'VELOCITY_25', 'NOTE_OFF_70', 'NOTE_OFF_42', 'TIME_SHIFT_30ms', 'TIME_SHIFT_10ms', 'NOTE_OFF_26', 'TIME_SHIFT_30ms', 'TIME_SHIFT_10ms', 'TIME_SHIFT_60ms', 'TIME_SHIFT_10ms', 'TIME_SHIFT_30ms', 'TIME_SHIFT_10ms', 'NOTE_OFF_50', 'TIME_SHIFT_30ms', 'TIME_SHIFT_10ms', 'NOTE_OFF_62', 'TIME_SHIFT_80ms', 'TIME_SHIFT_10ms', 'NOTE_ON_65', 'VELOCITY_16', 'TIME_SHIFT_10ms', 'TIME_SHIFT_10ms', 'NOTE_OFF_62', 'TIME_SHIFT_10ms', 'TIME_SHIFT_10ms', 'NOTE_ON_42', 'VELOCITY_9', 'NOTE_ON_70', 'VELOCITY_14', 'NOTE_OFF_42', 'NOTE_ON_62', 'VELOCITY_15', 'TIME_SHIFT_150ms', 'NOTE_OFF_42', 'NOTE_ON_42', 'VELOCITY_12', 'TIME_SHIFT_60ms', 'TIME_SHIFT_10ms', 'NOTE_OFF_65', 'TIME_SHIFT_50ms', 'TIME_SHIFT_10ms', 'TIME_SHIFT_10ms', 'NOTE_ON_62', 'VELOCITY_12', 'NOTE_OFF_62', 'TIME_SHIFT_30ms', 'TIME_SHIFT_10ms', 'NOTE_ON_65', 'VELOCITY_24', 'NOTE_OFF_70', 'NOTE_ON_42', 'VELOCITY_13', 'NOTE_ON_57', 'VELOCITY_12', 'NOTE_OFF_42', 'NOTE_ON_26', 'VELOCITY_21', 'NOTE_ON_70', 'VELOCITY_9', 'TIME_SHIFT_50ms', 'TIME_SHIFT_50ms', 'TIME_SHIFT_50ms', 'NOTE_ON_42', 'VELOCITY_15', 'NOTE_OFF_42', 'NOTE_OFF_65', 'TIME_SHIFT_50ms', 'TIME_SHIFT_80ms', 'TIME_SHIFT_10ms', 'NOTE_OFF_62', 'TIME_SHIFT_30ms', 'TIME_SHIFT_10ms', 'NOTE_ON_57', 'VELOCITY_19', 'NOTE_ON_42', 'VELOCITY_27', 'NOTE_ON_29', 'VELOCITY_20', 'NOTE_ON_35', 'VELOCITY_25', 'NOTE_ON_67', 'VELOCITY_24', 'NOTE_ON_65', 'VELOCITY_18', 'NOTE_ON_41', 'VELOCITY_17', 'NOTE_OFF_57', 'NOTE_ON_60', 'VELOCITY_19', 'NOTE_OFF_42', 'NOTE_OFF_70', 'NOTE_OFF_54', 'NOTE_OFF_37', 'NOTE_OFF_65', 'NOTE_OFF_57', 'NOTE_ON_41', 'VELOCITY_17', 'NOTE_OFF_62', 'TIME_SHIFT_10ms', 'TIME_SHIFT_10ms', 'NOTE_ON_65', 'VELOCITY_18', 'NOTE_OFF_26', 'TIME_SHIFT_30ms', 'TIME_SHIFT_10ms', 'TIME_SHIFT_10ms', 'TIME_SHIFT_10ms', 'TIME_SHIFT_60ms', 'TIME_SHIFT_10ms', 'NOTE_OFF_67', 'TIME_SHIFT_10ms', 'TIME_SHIFT_10ms', 'NOTE_OFF_65', 'TIME_SHIFT_50ms', 'TIME_SHIFT_30ms', 'TIME_SHIFT_10ms', 'TIME_SHIFT_80ms', 'TIME_SHIFT_10ms', 'NOTE_ON_42', 'VELOCITY_12', 'NOTE_ON_70', 'VELOCITY_16', 'NOTE_OFF_42', 'NOTE_ON_48', 'VELOCITY_16', 'NOTE_ON_67', 'VELOCITY_24', 'NOTE_ON_48', 'VELOCITY_14', 'TIME_SHIFT_30ms', 'TIME_SHIFT_10ms', 'TIME_SHIFT_110ms', 'TIME_SHIFT_10ms', 'TIME_SHIFT_100ms', 'NOTE_OFF_67', 'TIME_SHIFT_10ms', 'TIME_SHIFT_10ms', 'TIME_SHIFT_30ms', 'TIME_SHIFT_10ms', 'NOTE_ON_70', 'VELOCITY_11', 'NOTE_OFF_42', 'NOTE_ON_57', 'VELOCITY_13', 'NOTE_ON_42', 'VELOCITY_6', 'NOTE_ON_65', 'VELOCITY_24', 'NOTE_OFF_70', 'TIME_SHIFT_10ms', 'TIME_SHIFT_10ms', 'NOTE_ON_53', 'VELOCITY_14', 'TIME_SHIFT_10ms', 'TIME_SHIFT_10ms', 'TIME_SHIFT_80ms', 'TIME_SHIFT_10ms', 'TIME_SHIFT_60ms', 'TIME_SHIFT_10ms', 'TIME_SHIFT_60ms', 'TIME_SHIFT_10ms', 'TIME_SHIFT_60ms', 'TIME_SHIFT_10ms', 'NOTE_ON_37', 'VELOCITY_23', 'NOTE_ON_69', 'VELOCITY_24', 'NOTE_ON_54', 'VELOCITY_25', 'NOTE_ON_42', 'VELOCITY_29', 'NOTE_OFF_65', 'NOTE_OFF_35', 'NOTE_OFF_42', 'NOTE_ON_55', 'VELOCITY_20', 'NOTE_OFF_70', 'TIME_SHIFT_150ms', 'TIME_SHIFT_130ms', 'TIME_SHIFT_10ms', 'NOTE_OFF_29', 'TIME_SHIFT_30ms', 'TIME_SHIFT_10ms', 'NOTE_ON_65', 'VELOCITY_11', 'NOTE_OFF_42', 'NOTE_ON_70', 'VELOCITY_15', 'NOTE_ON_42', 'VELOCITY_8', 'NOTE_OFF_37', 'TIME_SHIFT_10ms', 'TIME_SHIFT_10ms', 'NOTE_ON_57', 'VELOCITY_19', 'TIME_SHIFT_30ms', 'TIME_SHIFT_10ms', 'NOTE_OFF_69', 'TIME_SHIFT_50ms', 'NOTE_OFF_57', 'TIME_SHIFT_30ms', 'TIME_SHIFT_10ms', 'NOTE_OFF_55', 'TIME_SHIFT_30ms', 'TIME_SHIFT_10ms', 'NOTE_ON_42', 'VELOCITY_9', 'NOTE_OFF_42', 'TIME_SHIFT_80ms', 'TIME_SHIFT_10ms', 'NOTE_OFF_48', 'TIME_SHIFT_60ms', 'TIME_SHIFT_10ms', 'NOTE_ON_60', 'VELOCITY_14', 'NOTE_ON_29', 'VELOCITY_22', 'NOTE_OFF_65', 'NOTE_ON_70', 'VELOCITY_14', 'NOTE_ON_35', 'VELOCITY_25', 'NOTE_ON_42', 'VELOCITY_15', 'NOTE_OFF_70', 'NOTE_OFF_42', 'TIME_SHIFT_30ms', 'TIME_SHIFT_10ms', 'NOTE_ON_60', 'VELOCITY_19', 'NOTE_OFF_57', 'TIME_SHIFT_10ms', 'TIME_SHIFT_10ms', 'NOTE_OFF_41', 'TIME_SHIFT_30ms', 'TIME_SHIFT_10ms', 'NOTE_OFF_48', 'TIME_SHIFT_10ms', 'TIME_SHIFT_10ms', 'NOTE_OFF_60', 'NOTE_OFF_41', 'TIME_SHIFT_10ms', 'TIME_SHIFT_10ms', 'NOTE_OFF_53', 'TIME_SHIFT_30ms', 'TIME_SHIFT_10ms', 'NOTE_OFF_60', 'TIME_SHIFT_10ms', 'TIME_SHIFT_10ms', 'NOTE_OFF_42', 'NOTE_ON_42', 'VELOCITY_20', 'NOTE_OFF_29', 'TIME_SHIFT_80ms', 'TIME_SHIFT_10ms', 'TIME_SHIFT_10ms', 'TIME_SHIFT_10ms', 'TIME_SHIFT_50ms', 'NOTE_OFF_54', 'NOTE_ON_42', 'VELOCITY_21', 'NOTE_ON_35', 'VELOCITY_25', 'NOTE_ON_55', 'VELOCITY_19', 'NOTE_OFF_57', 'NOTE_OFF_65', 'NOTE_ON_62', 'VELOCITY_18', 'NOTE_OFF_70', 'NOTE_OFF_60', 'NOTE_ON_67', 'VELOCITY_22', 'NOTE_OFF_35', 'NOTE_ON_58', 'VELOCITY_19', 'NOTE_ON_43', 'VELOCITY_17', 'NOTE_OFF_42', 'NOTE_ON_31', 'VELOCITY_22', 'NOTE_ON_43', 'VELOCITY_18', 'NOTE_ON_67', 'VELOCITY_24', 'TIME_SHIFT_10ms', 'TIME_SHIFT_10ms', 'TIME_SHIFT_10ms', 'TIME_SHIFT_10ms', 'TIME_SHIFT_130ms', 'TIME_SHIFT_10ms', 'TIME_SHIFT_130ms', 'TIME_SHIFT_10ms', 'NOTE_OFF_67', 'TIME_SHIFT_10ms', 'TIME_SHIFT_10ms', 'NOTE_OFF_67', 'NOTE_OFF_42', 'NOTE_ON_58', 'VELOCITY_12', 'NOTE_ON_70', 'VELOCITY_10', 'NOTE_ON_55', 'VELOCITY_10', 'NOTE_ON_42', 'VELOCITY_12', 'NOTE_ON_67', 'VELOCITY_24', 'TIME_SHIFT_10ms', 'TIME_SHIFT_10ms', 'TIME_SHIFT_30ms', 'TIME_SHIFT_10ms', 'TIME_SHIFT_110ms', 'TIME_SHIFT_10ms', 'TIME_SHIFT_110ms', 'TIME_SHIFT_10ms', 'TIME_SHIFT_30ms', 'TIME_SHIFT_10ms', 'NOTE_OFF_67', 'NOTE_ON_62', 'VELOCITY_14', 'NOTE_ON_58', 'VELOCITY_16', 'NOTE_OFF_70', 'NOTE_ON_67', 'VELOCITY_24', 'NOTE_ON_42', 'VELOCITY_12', 'NOTE_OFF_42', 'NOTE_ON_70', 'VELOCITY_9', 'TIME_SHIFT_80ms', 'TIME_SHIFT_10ms', 'TIME_SHIFT_60ms', 'TIME_SHIFT_10ms', 'TIME_SHIFT_60ms', 'TIME_SHIFT_10ms', 'TIME_SHIFT_80ms', 'TIME_SHIFT_10ms', 'NOTE_OFF_62', 'TIME_SHIFT_10ms', 'TIME_SHIFT_10ms', 'NOTE_OFF_42', 'NOTE_OFF_35', 'NOTE_ON_54', 'VELOCITY_19', 'NOTE_OFF_67', 'NOTE_ON_62', 'VELOCITY_20', 'NOTE_OFF_70', 'NOTE_ON_67', 'VELOCITY_17', 'NOTE_ON_37', 'VELOCITY_21', 'NOTE_ON_67', 'VELOCITY_24', 'NOTE_ON_42', 'VELOCITY_25', 'TIME_SHIFT_30ms', 'TIME_SHIFT_10ms', 'NOTE_OFF_58', 'TIME_SHIFT_50ms', 'NOTE_OFF_58', 'TIME_SHIFT_30ms', 'TIME_SHIFT_10ms', 'TIME_SHIFT_50ms', 'NOTE_OFF_67', 'NOTE_OFF_43', 'TIME_SHIFT_60ms', 'TIME_SHIFT_10ms', 'TIME_SHIFT_10ms', 'TIME_SHIFT_10ms', 'NOTE_OFF_43', 'TIME_SHIFT_50ms', 'NOTE_OFF_62', 'TIME_SHIFT_10ms', 'TIME_SHIFT_10ms', 'NOTE_OFF_31', 'NOTE_ON_70', 'VELOCITY_14', 'NOTE_OFF_42', 'NOTE_OFF_67', 'NOTE_ON_65', 'VELOCITY_24', 'NOTE_ON_42', 'VELOCITY_9', 'TIME_SHIFT_10ms', 'TIME_SHIFT_10ms', 'NOTE_OFF_55', 'TIME_SHIFT_10ms', 'TIME_SHIFT_10ms', 'TIME_SHIFT_110ms', 'TIME_SHIFT_10ms', 'NOTE_OFF_42', 'NOTE_ON_42', 'VELOCITY_12', 'TIME_SHIFT_130ms', 'TIME_SHIFT_10ms', 'TIME_SHIFT_30ms', 'TIME_SHIFT_10ms', 'NOTE_OFF_65', 'NOTE_ON_67', 'VELOCITY_24', 'NOTE_OFF_42', 'NOTE_OFF_70', 'NOTE_ON_42', 'VELOCITY_13', 'NOTE_ON_31', 'VELOCITY_22', 'NOTE_ON_70', 'VELOCITY_9', 'TIME_SHIFT_80ms', 'TIME_SHIFT_10ms', 'TIME_SHIFT_30ms', 'TIME_SHIFT_10ms', 'TIME_SHIFT_30ms', 'TIME_SHIFT_10ms', 'NOTE_ON_42', 'VELOCITY_15', 'NOTE_OFF_42', 'TIME_SHIFT_10ms', 'TIME_SHIFT_10ms', 'TIME_SHIFT_50ms', 'TIME_SHIFT_50ms', 'TIME_SHIFT_30ms', 'TIME_SHIFT_10ms', 'NOTE_OFF_31', 'TIME_SHIFT_10ms', 'TIME_SHIFT_10ms', 'NOTE_ON_64', 'VELOCITY_18', 'NOTE_OFF_55', 'NOTE_ON_48', 'VELOCITY_17', 'NOTE_ON_64', 'VELOCITY_24', 'NOTE_OFF_37', 'NOTE_ON_48', 'VELOCITY_18', 'NOTE_ON_64', 'VELOCITY_20', 'NOTE_ON_60', 'VELOCITY_19', 'NOTE_ON_35', 'VELOCITY_25', 'NOTE_OFF_42', 'NOTE_ON_36', 'VELOCITY_21', 'NOTE_OFF_62', 'NOTE_ON_55', 'VELOCITY_17', 'NOTE_OFF_70', 'NOTE_ON_42', 'VELOCITY_27', 'NOTE_OFF_67', 'NOTE_OFF_54', 'NOTE_OFF_58', 'TIME_SHIFT_30ms', 'TIME_SHIFT_10ms', 'TIME_SHIFT_60ms', 'TIME_SHIFT_10ms', 'TIME_SHIFT_130ms', 'TIME_SHIFT_10ms', 'TIME_SHIFT_50ms', 'NOTE_OFF_64', 'TIME_SHIFT_30ms', 'TIME_SHIFT_10ms', 'NOTE_ON_55', 'VELOCITY_13', 'NOTE_ON_70', 'VELOCITY_16', 'NOTE_ON_42', 'VELOCITY_12', 'NOTE_ON_55', 'VELOCITY_17', 'NOTE_OFF_42', 'TIME_SHIFT_150ms', 'TIME_SHIFT_160ms', 'TIME_SHIFT_10ms', 'NOTE_OFF_70', 'NOTE_ON_70', 'VELOCITY_11', 'NOTE_ON_60', 'VELOCITY_12', 'NOTE_OFF_42', 'NOTE_ON_42', 'VELOCITY_6', 'NOTE_ON_62', 'VELOCITY_18', 'TIME_SHIFT_60ms', 'TIME_SHIFT_10ms', 'NOTE_OFF_55', 'TIME_SHIFT_210ms', 'TIME_SHIFT_10ms', 'NOTE_OFF_60', 'TIME_SHIFT_10ms', 'TIME_SHIFT_10ms', 'NOTE_OFF_62', 'TIME_SHIFT_10ms', 'TIME_SHIFT_10ms', 'NOTE_OFF_64', 'NOTE_ON_37', 'VELOCITY_23', 'NOTE_ON_62', 'VELOCITY_16', 'NOTE_ON_42', 'VELOCITY_29', 'NOTE_ON_64', 'VELOCITY_18', 'NOTE_ON_54', 'VELOCITY_25', 'NOTE_OFF_42', 'NOTE_OFF_35', 'NOTE_OFF_70', 'TIME_SHIFT_80ms', 'TIME_SHIFT_10ms', 'NOTE_OFF_64', 'TIME_SHIFT_110ms', 'TIME_SHIFT_10ms', 'NOTE_OFF_36', 'TIME_SHIFT_60ms', 'TIME_SHIFT_10ms', 'NOTE_OFF_62', 'TIME_SHIFT_50ms', 'NOTE_ON_31', 'VELOCITY_21', 'NOTE_OFF_37', 'NOTE_ON_42', 'VELOCITY_8', 'NOTE_ON_70', 'VELOCITY_15', 'NOTE_ON_60', 'VELOCITY_8', 'NOTE_OFF_42', 'NOTE_ON_67', 'VELOCITY_21', 'TIME_SHIFT_150ms', 'NOTE_ON_42', 'VELOCITY_9', 'NOTE_OFF_42', 'TIME_SHIFT_10ms', 'TIME_SHIFT_10ms', 'NOTE_OFF_67', 'TIME_SHIFT_10ms', 'TIME_SHIFT_10ms', 'NOTE_OFF_60', 'TIME_SHIFT_30ms', 'TIME_SHIFT_10ms', 'NOTE_OFF_55', 'TIME_SHIFT_30ms', 'TIME_SHIFT_10ms', 'NOTE_OFF_31', 'TIME_SHIFT_10ms', 'TIME_SHIFT_10ms', 'TIME_SHIFT_50ms', 'NOTE_ON_70', 'VELOCITY_14', 'NOTE_ON_42', 'VELOCITY_15', 'NOTE_ON_35', 'VELOCITY_25', 'NOTE_OFF_70', 'NOTE_ON_62', 'VELOCITY_24', 'NOTE_ON_36', 'VELOCITY_19', 'NOTE_OFF_42', 'NOTE_ON_72', 'VELOCITY_18', 'TIME_SHIFT_10ms', 'TIME_SHIFT_10ms', 'TIME_SHIFT_30ms', 'TIME_SHIFT_10ms', 'NOTE_OFF_48', 'TIME_SHIFT_10ms', 'TIME_SHIFT_10ms', 'NOTE_OFF_48', 'TIME_SHIFT_10ms', 'TIME_SHIFT_10ms', 'NOTE_OFF_72', 'TIME_SHIFT_10ms', 'TIME_SHIFT_10ms', 'TIME_SHIFT_50ms', 'NOTE_ON_42', 'VELOCITY_20', 'NOTE_OFF_42', 'NOTE_OFF_62', 'TIME_SHIFT_10ms', 'TIME_SHIFT_10ms', 'TIME_SHIFT_80ms', 'TIME_SHIFT_10ms', 'NOTE_OFF_36', 'TIME_SHIFT_30ms', 'TIME_SHIFT_10ms', 'TIME_SHIFT_10ms', 'TIME_SHIFT_10ms', 'NOTE_OFF_42', 'NOTE_OFF_70', 'NOTE_OFF_35', 'NOTE_ON_62', 'VELOCITY_20', 'NOTE_ON_69', 'VELOCITY_24', 'NOTE_OFF_54', 'NOTE_OFF_55', 'NOTE_ON_35', 'VELOCITY_25', 'NOTE_ON_50', 'VELOCITY_21', 'NOTE_OFF_60', 'NOTE_ON_26', 'VELOCITY_23', 'NOTE_ON_57', 'VELOCITY_19', 'NOTE_ON_65', 'VELOCITY_16', 'NOTE_ON_42', 'VELOCITY_21', 'NOTE_OFF_64', 'TIME_SHIFT_30ms', 'TIME_SHIFT_10ms', 'NOTE_ON_69', 'VELOCITY_22', 'NOTE_ON_50', 'VELOCITY_20', 'TIME_SHIFT_10ms', 'TIME_SHIFT_10ms', 'TIME_SHIFT_10ms', 'TIME_SHIFT_10ms', 'TIME_SHIFT_10ms', 'TIME_SHIFT_10ms', 'TIME_SHIFT_60ms', 'TIME_SHIFT_10ms', 'TIME_SHIFT_30ms', 'TIME_SHIFT_10ms', 'NOTE_OFF_69', 'TIME_SHIFT_30ms', 'TIME_SHIFT_10ms', 'TIME_SHIFT_30ms', 'TIME_SHIFT_10ms', 'TIME_SHIFT_60ms', 'TIME_SHIFT_10ms', 'NOTE_ON_70', 'VELOCITY_10', 'NOTE_ON_42', 'VELOCITY_12', 'NOTE_ON_57', 'VELOCITY_11', 'NOTE_ON_69', 'VELOCITY_24', 'NOTE_OFF_42', 'TIME_SHIFT_10ms', 'TIME_SHIFT_10ms', 'NOTE_OFF_69', 'TIME_SHIFT_30ms', 'TIME_SHIFT_10ms', 'NOTE_ON_57', 'VELOCITY_14', 'TIME_SHIFT_80ms', 'TIME_SHIFT_10ms', 'NOTE_OFF_69', 'TIME_SHIFT_30ms', 'TIME_SHIFT_10ms', 'TIME_SHIFT_110ms', 'TIME_SHIFT_10ms', 'TIME_SHIFT_30ms', 'TIME_SHIFT_10ms', 'NOTE_ON_65', 'VELOCITY_16', 'NOTE_ON_42', 'VELOCITY_12', 'NOTE_ON_70', 'VELOCITY_9', 'NOTE_OFF_70', 'NOTE_OFF_42', 'NOTE_ON_69', 'VELOCITY_24', 'TIME_SHIFT_10ms', 'TIME_SHIFT_10ms', 'TIME_SHIFT_10ms', 'TIME_SHIFT_10ms', 'NOTE_ON_62', 'VELOCITY_14', 'TIME_SHIFT_30ms', 'TIME_SHIFT_10ms', 'TIME_SHIFT_50ms', 'TIME_SHIFT_30ms', 'TIME_SHIFT_10ms', 'NOTE_OFF_69', 'TIME_SHIFT_160ms', 'TIME_SHIFT_10ms', 'NOTE_OFF_57', 'NOTE_ON_54', 'VELOCITY_19', 'NOTE_OFF_42', 'NOTE_OFF_70', 'NOTE_OFF_35', 'NOTE_ON_37', 'VELOCITY_21', 'NOTE_ON_69', 'VELOCITY_24', 'NOTE_ON_42', 'VELOCITY_25', 'TIME_SHIFT_80ms', 'TIME_SHIFT_10ms', 'TIME_SHIFT_60ms', 'TIME_SHIFT_10ms', 'TIME_SHIFT_100ms', 'NOTE_OFF_69', 'NOTE_OFF_57', 'TIME_SHIFT_30ms', 'TIME_SHIFT_10ms', 'NOTE_OFF_26', 'TIME_SHIFT_10ms', 'TIME_SHIFT_10ms', 'NOTE_ON_65', 'VELOCITY_18', 'TIME_SHIFT_10ms', 'TIME_SHIFT_10ms', 'NOTE_ON_42', 'VELOCITY_9', 'NOTE_OFF_50', 'NOTE_OFF_42', 'NOTE_ON_70', 'VELOCITY_14', 'NOTE_ON_74', 'VELOCITY_24', 'TIME_SHIFT_30ms', 'TIME_SHIFT_10ms', 'NOTE_OFF_62', 'TIME_SHIFT_30ms', 'TIME_SHIFT_10ms', 'NOTE_OFF_65', 'TIME_SHIFT_60ms', 'TIME_SHIFT_10ms', 'NOTE_OFF_50', 'TIME_SHIFT_30ms', 'TIME_SHIFT_10ms', 'NOTE_OFF_42', 'NOTE_ON_42', 'VELOCITY_12', 'TIME_SHIFT_30ms', 'TIME_SHIFT_10ms', 'NOTE_OFF_74', 'TIME_SHIFT_10ms', 'TIME_SHIFT_10ms', 'TIME_SHIFT_60ms', 'TIME_SHIFT_10ms', 'TIME_SHIFT_10ms', 'TIME_SHIFT_10ms', 'NOTE_OFF_65', 'TIME_SHIFT_10ms', 'TIME_SHIFT_10ms', 'NOTE_ON_69', 'VELOCITY_24', 'NOTE_OFF_42', 'NOTE_ON_26', 'VELOCITY_22', 'NOTE_OFF_70', 'NOTE_ON_42', 'VELOCITY_13', 'NOTE_ON_70', 'VELOCITY_9', 'TIME_SHIFT_10ms', 'TIME_SHIFT_10ms', 'NOTE_ON_62', 'VELOCITY_12', 'TIME_SHIFT_10ms', 'TIME_SHIFT_10ms', 'TIME_SHIFT_60ms', 'TIME_SHIFT_10ms', 'TIME_SHIFT_10ms', 'TIME_SHIFT_10ms', 'TIME_SHIFT_50ms', 'NOTE_OFF_42', 'NOTE_ON_42', 'VELOCITY_15', 'TIME_SHIFT_10ms', 'TIME_SHIFT_10ms', 'NOTE_OFF_26', 'TIME_SHIFT_50ms', 'NOTE_OFF_62', 'TIME_SHIFT_10ms', 'TIME_SHIFT_10ms', 'TIME_SHIFT_10ms', 'TIME_SHIFT_10ms', 'NOTE_OFF_69', 'TIME_SHIFT_10ms', 'TIME_SHIFT_10ms', 'NOTE_ON_48', 'VELOCITY_15', 'TIME_SHIFT_10ms', 'TIME_SHIFT_10ms', 'NOTE_ON_67', 'VELOCITY_19', 'TIME_SHIFT_10ms', 'TIME_SHIFT_10ms', 'NOTE_ON_24', 'VELOCITY_22', 'NOTE_ON_35', 'VELOCITY_25', 'NOTE_ON_42', 'VELOCITY_27', 'NOTE_ON_60', 'VELOCITY_20', 'NOTE_ON_55', 'VELOCITY_16', 'NOTE_ON_64', 'VELOCITY_15', 'NOTE_ON_48', 'VELOCITY_19', 'NOTE_ON_64', 'VELOCITY_15', 'NOTE_ON_72', 'VELOCITY_24', 'NOTE_OFF_42', 'NOTE_OFF_70', 'NOTE_OFF_54', 'NOTE_OFF_37', 'NOTE_OFF_62', 'NOTE_OFF_57', 'NOTE_OFF_65', 'NOTE_ON_62', 'VELOCITY_14', 'TIME_SHIFT_60ms', 'TIME_SHIFT_10ms', 'TIME_SHIFT_80ms', 'TIME_SHIFT_10ms', 'TIME_SHIFT_30ms', 'TIME_SHIFT_10ms', 'NOTE_OFF_72', 'TIME_SHIFT_50ms', 'TIME_SHIFT_10ms', 'TIME_SHIFT_10ms', 'NOTE_OFF_62', 'NOTE_OFF_67', 'TIME_SHIFT_10ms', 'TIME_SHIFT_10ms', 'NOTE_OFF_64', 'TIME_SHIFT_10ms', 'TIME_SHIFT_10ms', 'TIME_SHIFT_30ms', 'TIME_SHIFT_10ms', 'NOTE_ON_42', 'VELOCITY_12', 'NOTE_ON_70', 'VELOCITY_16', 'NOTE_OFF_42', 'NOTE_ON_55', 'VELOCITY_13', 'NOTE_ON_72', 'VELOCITY_24', 'TIME_SHIFT_10ms', 'TIME_SHIFT_10ms', 'NOTE_ON_55', 'VELOCITY_15', 'TIME_SHIFT_50ms', 'TIME_SHIFT_50ms', 'NOTE_OFF_72', 'TIME_SHIFT_160ms', 'TIME_SHIFT_10ms', 'TIME_SHIFT_30ms', 'TIME_SHIFT_10ms', 'NOTE_OFF_55', 'NOTE_OFF_42', 'NOTE_ON_74', 'VELOCITY_24', 'NOTE_ON_64', 'VELOCITY_15', 'NOTE_ON_42', 'VELOCITY_6', 'NOTE_ON_70', 'VELOCITY_11', 'NOTE_OFF_70', 'TIME_SHIFT_30ms', 'TIME_SHIFT_10ms', 'TIME_SHIFT_10ms', 'TIME_SHIFT_10ms', 'NOTE_ON_60', 'VELOCITY_7', 'TIME_SHIFT_50ms', 'TIME_SHIFT_50ms', 'NOTE_OFF_74', 'TIME_SHIFT_10ms', 'TIME_SHIFT_10ms', 'TIME_SHIFT_150ms', 'NOTE_OFF_70', 'NOTE_ON_67', 'VELOCITY_24', 'NOTE_ON_64', 'VELOCITY_13', 'NOTE_ON_67', 'VELOCITY_20', 'NOTE_OFF_35', 'NOTE_ON_54', 'VELOCITY_25', 'NOTE_OFF_42', 'NOTE_ON_37', 'VELOCITY_23', 'NOTE_ON_42', 'VELOCITY_29', 'TIME_SHIFT_60ms', 'TIME_SHIFT_10ms', 'TIME_SHIFT_30ms', 'TIME_SHIFT_10ms', 'NOTE_OFF_60', 'TIME_SHIFT_10ms', 'TIME_SHIFT_10ms', 'NOTE_OFF_48', 'TIME_SHIFT_10ms', 'TIME_SHIFT_10ms', 'NOTE_OFF_67', 'TIME_SHIFT_30ms', 'TIME_SHIFT_10ms', 'NOTE_OFF_55', 'TIME_SHIFT_50ms', 'TIME_SHIFT_60ms', 'TIME_SHIFT_10ms', 'NOTE_OFF_48', 'TIME_SHIFT_30ms', 'TIME_SHIFT_10ms', 'NOTE_ON_70', 'VELOCITY_15', 'NOTE_ON_42', 'VELOCITY_8', 'NOTE_OFF_37', 'NOTE_OFF_42', 'TIME_SHIFT_10ms', 'TIME_SHIFT_10ms', 'NOTE_ON_62', 'VELOCITY_8', 'NOTE_OFF_64', 'TIME_SHIFT_10ms', 'TIME_SHIFT_10ms', 'NOTE_OFF_67', 'NOTE_OFF_24', 'TIME_SHIFT_110ms', 'TIME_SHIFT_10ms', 'NOTE_ON_42', 'VELOCITY_9', 'NOTE_OFF_42', 'TIME_SHIFT_30ms', 'TIME_SHIFT_10ms', 'NOTE_OFF_62', 'TIME_SHIFT_80ms', 'TIME_SHIFT_10ms', 'TIME_SHIFT_30ms', 'TIME_SHIFT_10ms', 'NOTE_OFF_64', 'TIME_SHIFT_10ms', 'TIME_SHIFT_10ms', 'NOTE_OFF_42', 'NOTE_ON_42', 'VELOCITY_15', 'NOTE_ON_35', 'VELOCITY_25', 'NOTE_ON_70', 'VELOCITY_14', 'NOTE_ON_62', 'VELOCITY_24', 'NOTE_OFF_70', 'NOTE_ON_24', 'VELOCITY_21', 'TIME_SHIFT_80ms', 'TIME_SHIFT_10ms', 'TIME_SHIFT_10ms', 'TIME_SHIFT_10ms', 'NOTE_OFF_24', 'TIME_SHIFT_10ms', 'TIME_SHIFT_10ms', 'NOTE_OFF_62', 'TIME_SHIFT_30ms', 'TIME_SHIFT_10ms', 'NOTE_OFF_42', 'NOTE_ON_42', 'VELOCITY_20', 'TIME_SHIFT_50ms', 'TIME_SHIFT_50ms', 'TIME_SHIFT_10ms', 'TIME_SHIFT_10ms', 'NOTE_ON_46', 'VELOCITY_17', 'TIME_SHIFT_30ms', 'TIME_SHIFT_10ms', 'NOTE_ON_65', 'VELOCITY_19', 'TIME_SHIFT_10ms', 'TIME_SHIFT_10ms', 'NOTE_ON_62', 'VELOCITY_20', 'NOTE_OFF_42', 'NOTE_ON_62', 'VELOCITY_14', 'NOTE_ON_46', 'VELOCITY_16', 'NOTE_ON_65', 'VELOCITY_17', 'NOTE_OFF_35', 'NOTE_ON_58', 'VELOCITY_17', 'NOTE_ON_35', 'VELOCITY_25', 'NOTE_ON_42', 'VELOCITY_21', 'NOTE_ON_34', 'VELOCITY_19', 'NOTE_ON_65', 'VELOCITY_24', 'NOTE_OFF_70', 'NOTE_OFF_64', 'NOTE_OFF_54', 'NOTE_OFF_55', 'NOTE_OFF_60', 'TIME_SHIFT_60ms', 'TIME_SHIFT_10ms', 'TIME_SHIFT_10ms', 'TIME_SHIFT_10ms', 'TIME_SHIFT_30ms', 'TIME_SHIFT_10ms', 'TIME_SHIFT_110ms', 'TIME_SHIFT_10ms', 'TIME_SHIFT_80ms', 'TIME_SHIFT_10ms', 'NOTE_ON_65', 'VELOCITY_24', 'NOTE_OFF_42', 'NOTE_ON_70', 'VELOCITY_10', 'NOTE_ON_42', 'VELOCITY_12', 'NOTE_ON_53', 'VELOCITY_9', 'NOTE_OFF_65', 'TIME_SHIFT_30ms', 'TIME_SHIFT_10ms', 'TIME_SHIFT_30ms', 'TIME_SHIFT_10ms', 'NOTE_OFF_65', 'TIME_SHIFT_130ms', 'TIME_SHIFT_10ms', 'TIME_SHIFT_110ms', 'TIME_SHIFT_10ms', 'NOTE_ON_58', 'VELOCITY_14', 'NOTE_OFF_42', 'NOTE_ON_58', 'VELOCITY_13', 'NOTE_OFF_65', 'NOTE_OFF_70', 'NOTE_ON_42', 'VELOCITY_12', 'NOTE_ON_65', 'VELOCITY_24', 'NOTE_ON_70', 'VELOCITY_9', 'TIME_SHIFT_30ms', 'TIME_SHIFT_10ms', 'NOTE_OFF_62', 'TIME_SHIFT_10ms', 'TIME_SHIFT_10ms', 'TIME_SHIFT_10ms', 'TIME_SHIFT_10ms', 'TIME_SHIFT_80ms', 'TIME_SHIFT_10ms', 'TIME_SHIFT_60ms', 'TIME_SHIFT_10ms', 'TIME_SHIFT_60ms', 'TIME_SHIFT_10ms', 'TIME_SHIFT_30ms', 'TIME_SHIFT_10ms', 'NOTE_OFF_35', 'NOTE_ON_42', 'VELOCITY_25', 'NOTE_OFF_42', 'NOTE_OFF_70', 'NOTE_ON_54', 'VELOCITY_19', 'NOTE_OFF_65', 'NOTE_ON_65', 'VELOCITY_24', 'NOTE_ON_37', 'VELOCITY_21', 'TIME_SHIFT_30ms', 'TIME_SHIFT_10ms', 'NOTE_OFF_58', 'TIME_SHIFT_30ms', 'TIME_SHIFT_10ms', 'TIME_SHIFT_60ms', 'TIME_SHIFT_10ms', 'TIME_SHIFT_50ms', 'NOTE_OFF_53', 'NOTE_OFF_58', 'TIME_SHIFT_10ms', 'TIME_SHIFT_10ms', 'TIME_SHIFT_10ms', 'TIME_SHIFT_10ms', 'NOTE_OFF_46', 'TIME_SHIFT_10ms', 'TIME_SHIFT_10ms', 'NOTE_OFF_46', 'TIME_SHIFT_10ms', 'TIME_SHIFT_10ms', 'NOTE_OFF_34', 'TIME_SHIFT_30ms', 'TIME_SHIFT_10ms', 'NOTE_ON_65', 'VELOCITY_15', 'TIME_SHIFT_10ms', 'TIME_SHIFT_10ms', 'NOTE_ON_62', 'VELOCITY_12', 'TIME_SHIFT_10ms', 'TIME_SHIFT_10ms', 'NOTE_ON_67', 'VELOCITY_24', 'NOTE_ON_42', 'VELOCITY_9', 'NOTE_ON_70', 'VELOCITY_14', 'NOTE_OFF_42', 'NOTE_OFF_65', 'TIME_SHIFT_30ms', 'TIME_SHIFT_10ms', 'TIME_SHIFT_50ms', 'NOTE_OFF_65', 'TIME_SHIFT_60ms', 'TIME_SHIFT_10ms', 'NOTE_OFF_42', 'NOTE_ON_42', 'VELOCITY_12', 'TIME_SHIFT_110ms', 'TIME_SHIFT_10ms', 'TIME_SHIFT_30ms', 'TIME_SHIFT_10ms', 'NOTE_ON_70', 'VELOCITY_9', 'NOTE_OFF_67', 'NOTE_OFF_70', 'NOTE_ON_69', 'VELOCITY_24', 'NOTE_ON_34', 'VELOCITY_23', 'NOTE_ON_42', 'VELOCITY_13', 'NOTE_OFF_42', 'TIME_SHIFT_80ms', 'TIME_SHIFT_10ms', 'TIME_SHIFT_10ms', 'TIME_SHIFT_10ms', 'TIME_SHIFT_30ms', 'TIME_SHIFT_10ms', 'NOTE_OFF_34', 'NOTE_OFF_62', 'TIME_SHIFT_10ms', 'TIME_SHIFT_10ms', 'TIME_SHIFT_10ms', 'TIME_SHIFT_10ms', 'NOTE_ON_42', 'VELOCITY_15', 'NOTE_OFF_42', 'TIME_SHIFT_30ms', 'TIME_SHIFT_10ms', 'TIME_SHIFT_100ms', 'NOTE_ON_45', 'VELOCITY_18', 'TIME_SHIFT_10ms', 'TIME_SHIFT_10ms', 'NOTE_OFF_58', 'NOTE_OFF_37', 'NOTE_OFF_54', 'NOTE_OFF_65', 'NOTE_OFF_69', 'NOTE_OFF_62', 'NOTE_ON_33', 'VELOCITY_22', 'NOTE_OFF_70', 'NOTE_ON_35', 'VELOCITY_25', 'NOTE_ON_42', 'VELOCITY_27', 'NOTE_ON_60', 'VELOCITY_17', 'NOTE_OFF_42', 'NOTE_ON_64', 'VELOCITY_15', 'NOTE_ON_64', 'VELOCITY_24', 'NOTE_ON_57', 'VELOCITY_16', 'NOTE_ON_64', 'VELOCITY_17', 'NOTE_ON_69', 'VELOCITY_18', 'NOTE_ON_45', 'VELOCITY_19', 'TIME_SHIFT_10ms', 'TIME_SHIFT_10ms', 'TIME_SHIFT_10ms', 'TIME_SHIFT_10ms', 'TIME_SHIFT_200ms', 'NOTE_OFF_69', 'TIME_SHIFT_10ms', 'TIME_SHIFT_10ms', 'TIME_SHIFT_10ms', 'TIME_SHIFT_10ms', 'NOTE_OFF_64', 'TIME_SHIFT_50ms', 'NOTE_OFF_42', 'NOTE_ON_42', 'VELOCITY_12', 'NOTE_ON_52', 'VELOCITY_11', 'NOTE_ON_70', 'VELOCITY_16', 'TIME_SHIFT_60ms', 'TIME_SHIFT_10ms', 'NOTE_ON_52', 'VELOCITY_11', 'TIME_SHIFT_100ms', 'TIME_SHIFT_150ms', 'NOTE_OFF_42', 'NOTE_ON_42', 'VELOCITY_6', 'NOTE_ON_64', 'VELOCITY_18', 'NOTE_OFF_70', 'NOTE_ON_70', 'VELOCITY_11', 'NOTE_ON_57', 'VELOCITY_13', 'TIME_SHIFT_80ms', 'TIME_SHIFT_10ms', 'TIME_SHIFT_50ms', 'NOTE_OFF_52', 'TIME_SHIFT_180ms', 'TIME_SHIFT_10ms', 'NOTE_ON_37', 'VELOCITY_23', 'NOTE_ON_54', 'VELOCITY_25', 'NOTE_OFF_42', 'NOTE_ON_42', 'VELOCITY_29', 'NOTE_OFF_64', 'NOTE_OFF_35', 'NOTE_ON_64', 'VELOCITY_16', 'NOTE_OFF_70', 'TIME_SHIFT_100ms', 'NOTE_OFF_45', 'NOTE_OFF_52', 'NOTE_OFF_33', 'TIME_SHIFT_160ms', 'TIME_SHIFT_10ms', 'NOTE_OFF_64', 'TIME_SHIFT_10ms', 'TIME_SHIFT_10ms', 'NOTE_OFF_45', 'TIME_SHIFT_10ms', 'TIME_SHIFT_10ms', 'NOTE_OFF_64', 'TIME_SHIFT_10ms', 'TIME_SHIFT_10ms', 'NOTE_ON_57', 'VELOCITY_13', 'NOTE_ON_31', 'VELOCITY_22', 'NOTE_OFF_37', 'NOTE_ON_42', 'VELOCITY_8', 'NOTE_OFF_42', 'NOTE_ON_70', 'VELOCITY_15', 'TIME_SHIFT_10ms', 'TIME_SHIFT_10ms', 'NOTE_OFF_57', 'TIME_SHIFT_150ms', 'NOTE_ON_42', 'VELOCITY_9', 'NOTE_OFF_42', 'TIME_SHIFT_110ms', 'TIME_SHIFT_10ms', 'TIME_SHIFT_30ms', 'TIME_SHIFT_10ms', 'NOTE_ON_33', 'VELOCITY_20', 'NOTE_ON_60', 'VELOCITY_24', 'NOTE_ON_35', 'VELOCITY_25', 'NOTE_OFF_42', 'NOTE_ON_42', 'VELOCITY_15', 'NOTE_OFF_70', 'NOTE_ON_70', 'VELOCITY_14', 'TIME_SHIFT_10ms', 'TIME_SHIFT_10ms', 'NOTE_OFF_31', 'TIME_SHIFT_30ms', 'TIME_SHIFT_10ms', 'TIME_SHIFT_10ms', 'TIME_SHIFT_10ms', 'TIME_SHIFT_30ms', 'TIME_SHIFT_10ms', 'NOTE_OFF_60', 'TIME_SHIFT_50ms', 'NOTE_OFF_57', 'TIME_SHIFT_10ms', 'TIME_SHIFT_10ms', 'NOTE_OFF_42', 'NOTE_ON_42', 'VELOCITY_20', 'TIME_SHIFT_50ms', 'TIME_SHIFT_10ms', 'TIME_SHIFT_10ms', 'NOTE_OFF_33', 'TIME_SHIFT_60ms', 'TIME_SHIFT_10ms', 'NOTE_ON_50', 'VELOCITY_20', 'TIME_SHIFT_10ms', 'TIME_SHIFT_10ms', 'NOTE_OFF_54', 'NOTE_ON_62', 'VELOCITY_24', 'NOTE_ON_65', 'VELOCITY_16', 'NOTE_ON_46', 'VELOCITY_17', 'NOTE_ON_57', 'VELOCITY_13', 'NOTE_OFF_42', 'NOTE_ON_26', 'VELOCITY_23', 'NOTE_ON_65', 'VELOCITY_14', 'NOTE_ON_42', 'VELOCITY_21', 'NOTE_ON_35', 'VELOCITY_25', 'NOTE_ON_62', 'VELOCITY_15', 'NOTE_OFF_70', 'NOTE_OFF_64', 'NOTE_OFF_35', 'NOTE_ON_62', 'VELOCITY_16', 'NOTE_OFF_57', 'NOTE_OFF_60', 'TIME_SHIFT_30ms', 'TIME_SHIFT_10ms', 'TIME_SHIFT_30ms', 'TIME_SHIFT_10ms', 'TIME_SHIFT_10ms', 'TIME_SHIFT_10ms', 'NOTE_OFF_46', 'TIME_SHIFT_50ms', 'TIME_SHIFT_10ms', 'TIME_SHIFT_10ms', 'TIME_SHIFT_30ms', 'TIME_SHIFT_10ms', 'NOTE_OFF_62', 'TIME_SHIFT_30ms', 'TIME_SHIFT_10ms', 'TIME_SHIFT_10ms', 'TIME_SHIFT_10ms', 'TIME_SHIFT_30ms', 'TIME_SHIFT_10ms', 'NOTE_OFF_65', 'TIME_SHIFT_10ms', 'TIME_SHIFT_10ms', 'NOTE_OFF_62', 'TIME_SHIFT_30ms', 'TIME_SHIFT_10ms', 'NOTE_ON_62', 'VELOCITY_24', 'NOTE_OFF_42', 'NOTE_ON_42', 'VELOCITY_12', 'NOTE_ON_53', 'VELOCITY_13', 'NOTE_ON_70', 'VELOCITY_10', 'TIME_SHIFT_30ms', 'TIME_SHIFT_10ms', 'NOTE_ON_57', 'VELOCITY_12', 'TIME_SHIFT_80ms', 'TIME_SHIFT_10ms', 'NOTE_OFF_62', 'TIME_SHIFT_30ms', 'TIME_SHIFT_10ms', 'TIME_SHIFT_130ms', 'TIME_SHIFT_10ms', 'NOTE_OFF_53', 'TIME_SHIFT_30ms', 'TIME_SHIFT_10ms', 'NOTE_OFF_70', 'NOTE_OFF_42', 'NOTE_ON_62', 'VELOCITY_24', 'NOTE_ON_42', 'VELOCITY_12', 'NOTE_ON_70', 'VELOCITY_9', 'TIME_SHIFT_10ms', 'TIME_SHIFT_10ms', 'NOTE_ON_62', 'VELOCITY_13', 'TIME_SHIFT_30ms', 'TIME_SHIFT_10ms', 'TIME_SHIFT_50ms', 'TIME_SHIFT_30ms', 'TIME_SHIFT_10ms', 'NOTE_OFF_62', 'TIME_SHIFT_10ms', 'TIME_SHIFT_10ms', 'TIME_SHIFT_60ms', 'TIME_SHIFT_10ms', 'NOTE_OFF_57', 'TIME_SHIFT_100ms', 'NOTE_ON_62', 'VELOCITY_24', 'NOTE_OFF_70', 'NOTE_ON_42', 'VELOCITY_25', 'NOTE_ON_37', 'VELOCITY_21', 'NOTE_OFF_42', 'NOTE_ON_54', 'VELOCITY_19', 'NOTE_OFF_35', 'TIME_SHIFT_30ms', 'TIME_SHIFT_10ms', 'NOTE_OFF_26', 'TIME_SHIFT_30ms', 'TIME_SHIFT_10ms', 'TIME_SHIFT_60ms', 'TIME_SHIFT_10ms', 'TIME_SHIFT_30ms', 'TIME_SHIFT_10ms', 'NOTE_OFF_50', 'TIME_SHIFT_30ms', 'TIME_SHIFT_10ms', 'NOTE_OFF_62', 'TIME_SHIFT_80ms', 'TIME_SHIFT_10ms', 'NOTE_ON_65', 'VELOCITY_16', 'TIME_SHIFT_10ms', 'TIME_SHIFT_10ms', 'NOTE_OFF_62', 'TIME_SHIFT_10ms', 'TIME_SHIFT_10ms', 'NOTE_OFF_42', 'NOTE_ON_42', 'VELOCITY_9', 'NOTE_ON_70', 'VELOCITY_14', 'NOTE_ON_62', 'VELOCITY_15', 'TIME_SHIFT_150ms', 'NOTE_ON_42', 'VELOCITY_12', 'NOTE_OFF_42', 'TIME_SHIFT_60ms', 'TIME_SHIFT_10ms', 'NOTE_OFF_65', 'TIME_SHIFT_50ms', 'TIME_SHIFT_10ms', 'TIME_SHIFT_10ms', 'NOTE_ON_62', 'VELOCITY_12', 'NOTE_OFF_62', 'TIME_SHIFT_30ms', 'TIME_SHIFT_10ms', 'NOTE_ON_70', 'VELOCITY_9', 'NOTE_ON_26', 'VELOCITY_21', 'NOTE_ON_57', 'VELOCITY_12', 'NOTE_OFF_42', 'NOTE_OFF_70', 'NOTE_ON_42', 'VELOCITY_13', 'NOTE_ON_65', 'VELOCITY_24', 'TIME_SHIFT_30ms', 'TIME_SHIFT_10ms', 'TIME_SHIFT_60ms', 'TIME_SHIFT_10ms', 'TIME_SHIFT_50ms', 'NOTE_ON_42', 'VELOCITY_15', 'NOTE_OFF_42', 'NOTE_OFF_65', 'TIME_SHIFT_10ms', 'TIME_SHIFT_10ms', 'TIME_SHIFT_30ms', 'TIME_SHIFT_10ms', 'TIME_SHIFT_80ms', 'TIME_SHIFT_10ms', 'NOTE_OFF_62', 'TIME_SHIFT_30ms', 'TIME_SHIFT_10ms', 'NOTE_OFF_65', 'NOTE_OFF_62', 'NOTE_OFF_37', 'NOTE_OFF_54', 'NOTE_OFF_70', 'NOTE_ON_60', 'VELOCITY_19', 'NOTE_ON_65', 'VELOCITY_18', 'NOTE_ON_42', 'VELOCITY_27', 'NOTE_OFF_57', 'NOTE_ON_35', 'VELOCITY_25', 'NOTE_ON_41', 'VELOCITY_17', 'NOTE_ON_29', 'VELOCITY_20', 'NOTE_OFF_57', 'NOTE_ON_41', 'VELOCITY_17', 'NOTE_ON_57', 'VELOCITY_19', 'NOTE_OFF_42', 'NOTE_ON_67', 'VELOCITY_24', 'TIME_SHIFT_10ms', 'TIME_SHIFT_10ms', 'NOTE_OFF_26', 'NOTE_ON_65', 'VELOCITY_18', 'TIME_SHIFT_30ms', 'TIME_SHIFT_10ms', 'TIME_SHIFT_10ms', 'TIME_SHIFT_10ms', 'TIME_SHIFT_50ms', 'TIME_SHIFT_10ms', 'TIME_SHIFT_10ms', 'NOTE_OFF_67', 'TIME_SHIFT_10ms', 'TIME_SHIFT_10ms', 'NOTE_OFF_65', 'TIME_SHIFT_80ms', 'TIME_SHIFT_10ms', 'TIME_SHIFT_80ms', 'TIME_SHIFT_10ms', 'NOTE_ON_67', 'VELOCITY_24', 'NOTE_ON_48', 'VELOCITY_16', 'NOTE_ON_70', 'VELOCITY_16', 'NOTE_OFF_42', 'NOTE_ON_42', 'VELOCITY_12', 'NOTE_ON_48', 'VELOCITY_14', 'TIME_SHIFT_30ms', 'TIME_SHIFT_10ms', 'TIME_SHIFT_110ms', 'TIME_SHIFT_10ms', 'TIME_SHIFT_100ms', 'NOTE_OFF_67', 'TIME_SHIFT_10ms', 'TIME_SHIFT_10ms', 'TIME_SHIFT_50ms', 'NOTE_ON_53', 'VELOCITY_14', 'NOTE_ON_65', 'VELOCITY_24', 'NOTE_OFF_42', 'NOTE_ON_70', 'VELOCITY_11', 'NOTE_OFF_70', 'NOTE_ON_42', 'VELOCITY_6', 'NOTE_ON_57', 'VELOCITY_13', 'TIME_SHIFT_10ms', 'TIME_SHIFT_10ms', 'TIME_SHIFT_80ms', 'TIME_SHIFT_10ms', 'TIME_SHIFT_60ms', 'TIME_SHIFT_10ms', 'TIME_SHIFT_60ms', 'TIME_SHIFT_10ms', 'TIME_SHIFT_60ms', 'TIME_SHIFT_10ms', 'NOTE_OFF_70', 'NOTE_ON_55', 'VELOCITY_20', 'NOTE_OFF_65', 'NOTE_OFF_35', 'NOTE_ON_69', 'VELOCITY_24', 'NOTE_ON_54', 'VELOCITY_25', 'NOTE_OFF_42', 'NOTE_ON_37', 'VELOCITY_23', 'NOTE_ON_42', 'VELOCITY_29', 'TIME_SHIFT_100ms', 'TIME_SHIFT_100ms', 'TIME_SHIFT_100ms', 'NOTE_OFF_29', 'TIME_SHIFT_10ms', 'TIME_SHIFT_10ms', 'NOTE_OFF_37', 'NOTE_ON_70', 'VELOCITY_15', 'NOTE_OFF_42', 'NOTE_ON_42', 'VELOCITY_8', 'NOTE_ON_65', 'VELOCITY_11', 'TIME_SHIFT_10ms', 'TIME_SHIFT_10ms', 'NOTE_ON_57', 'VELOCITY_19', 'TIME_SHIFT_30ms', 'TIME_SHIFT_10ms', 'NOTE_OFF_69', 'TIME_SHIFT_10ms', 'TIME_SHIFT_10ms', 'TIME_SHIFT_30ms', 'TIME_SHIFT_10ms', 'NOTE_OFF_57', 'TIME_SHIFT_30ms', 'TIME_SHIFT_10ms', 'NOTE_OFF_55', 'TIME_SHIFT_30ms', 'TIME_SHIFT_10ms', 'NOTE_OFF_42', 'NOTE_ON_42', 'VELOCITY_9', 'TIME_SHIFT_100ms', 'NOTE_OFF_48', 'TIME_SHIFT_50ms', 'NOTE_ON_29', 'VELOCITY_22', 'NOTE_OFF_65', 'NOTE_OFF_42', 'NOTE_ON_70', 'VELOCITY_14', 'NOTE_ON_35', 'VELOCITY_25', 'NOTE_ON_60', 'VELOCITY_14', 'NOTE_ON_42', 'VELOCITY_15', 'NOTE_OFF_70', 'TIME_SHIFT_30ms', 'TIME_SHIFT_10ms', 'NOTE_OFF_57', 'NOTE_ON_60', 'VELOCITY_19', 'TIME_SHIFT_10ms', 'TIME_SHIFT_10ms', 'NOTE_OFF_41', 'TIME_SHIFT_50ms', 'NOTE_OFF_60', 'NOTE_OFF_48', 'NOTE_OFF_41', 'TIME_SHIFT_10ms', 'TIME_SHIFT_10ms', 'NOTE_OFF_53', 'TIME_SHIFT_30ms', 'TIME_SHIFT_10ms', 'NOTE_OFF_60', 'TIME_SHIFT_10ms', 'TIME_SHIFT_10ms', 'NOTE_ON_42', 'VELOCITY_20', 'NOTE_OFF_29', 'NOTE_OFF_42', 'TIME_SHIFT_80ms', 'TIME_SHIFT_10ms', 'TIME_SHIFT_10ms', 'TIME_SHIFT_10ms', 'TIME_SHIFT_50ms', 'NOTE_OFF_35', 'NOTE_OFF_70', 'NOTE_ON_43', 'VELOCITY_19', 'NOTE_ON_43', 'VELOCITY_22', 'NOTE_OFF_42', 'NOTE_ON_58', 'VELOCITY_17', 'NOTE_ON_55', 'VELOCITY_20', 'NOTE_ON_31', 'VELOCITY_23', 'NOTE_ON_62', 'VELOCITY_17', 'NOTE_ON_62', 'VELOCITY_21', 'NOTE_ON_42', 'VELOCITY_21', 'NOTE_ON_35', 'VELOCITY_25', 'NOTE_ON_58', 'VELOCITY_18', 'NOTE_OFF_60', 'NOTE_OFF_65', 'NOTE_ON_67', 'VELOCITY_24', 'NOTE_OFF_54', 'NOTE_OFF_57', 'TIME_SHIFT_60ms', 'TIME_SHIFT_10ms', 'TIME_SHIFT_10ms', 'TIME_SHIFT_10ms', 'TIME_SHIFT_30ms', 'TIME_SHIFT_10ms', 'TIME_SHIFT_30ms', 'TIME_SHIFT_10ms', 'NOTE_OFF_62', 'TIME_SHIFT_80ms', 'TIME_SHIFT_10ms', 'TIME_SHIFT_80ms', 'TIME_SHIFT_10ms', 'NOTE_OFF_42', 'NOTE_ON_50', 'VELOCITY_20', 'NOTE_OFF_67', 'NOTE_ON_67', 'VELOCITY_24', 'NOTE_ON_58', 'VELOCITY_11', 'NOTE_ON_42', 'VELOCITY_12', 'NOTE_ON_70', 'VELOCITY_10', 'TIME_SHIFT_50ms', 'TIME_SHIFT_60ms', 'TIME_SHIFT_10ms', 'NOTE_OFF_58', 'TIME_SHIFT_100ms', 'TIME_SHIFT_100ms', 'NOTE_OFF_67', 'NOTE_ON_62', 'VELOCITY_14', 'NOTE_ON_55', 'VELOCITY_17', 'NOTE_ON_67', 'VELOCITY_24', 'NOTE_ON_42', 'VELOCITY_12', 'NOTE_OFF_42', 'NOTE_ON_70', 'VELOCITY_9', 'NOTE_OFF_70', 'TIME_SHIFT_50ms', 'TIME_SHIFT_30ms', 'TIME_SHIFT_10ms', 'TIME_SHIFT_50ms', 'TIME_SHIFT_50ms', 'TIME_SHIFT_30ms', 'TIME_SHIFT_10ms', 'TIME_SHIFT_50ms', 'TIME_SHIFT_50ms', 'NOTE_OFF_70', 'NOTE_OFF_67', 'NOTE_ON_37', 'VELOCITY_21', 'NOTE_OFF_62', 'NOTE_ON_67', 'VELOCITY_18', 'NOTE_ON_62', 'VELOCITY_20', 'NOTE_ON_67', 'VELOCITY_24', 'NOTE_OFF_42', 'NOTE_ON_42', 'VELOCITY_25', 'NOTE_ON_54', 'VELOCITY_19', 'NOTE_OFF_35', 'TIME_SHIFT_50ms', 'NOTE_OFF_58', 'TIME_SHIFT_80ms', 'TIME_SHIFT_10ms', 'NOTE_OFF_50', 'NOTE_OFF_31', 'TIME_SHIFT_10ms', 'TIME_SHIFT_10ms', 'NOTE_OFF_67', 'TIME_SHIFT_10ms', 'TIME_SHIFT_10ms', 'TIME_SHIFT_10ms', 'TIME_SHIFT_10ms', 'NOTE_OFF_43', 'NOTE_OFF_43', 'TIME_SHIFT_10ms', 'TIME_SHIFT_10ms', 'NOTE_OFF_55', 'TIME_SHIFT_80ms', 'TIME_SHIFT_10ms', 'NOTE_OFF_62', 'TIME_SHIFT_30ms', 'TIME_SHIFT_10ms', 'NOTE_ON_65', 'VELOCITY_24', 'NOTE_ON_58', 'VELOCITY_10', 'NOTE_ON_42', 'VELOCITY_9', 'NOTE_OFF_42', 'NOTE_OFF_67', 'NOTE_ON_70', 'VELOCITY_14', 'TIME_SHIFT_30ms', 'TIME_SHIFT_10ms', 'NOTE_OFF_58', 'TIME_SHIFT_80ms', 'TIME_SHIFT_10ms', 'TIME_SHIFT_50ms', 'NOTE_OFF_42', 'NOTE_ON_42', 'VELOCITY_12', 'TIME_SHIFT_10ms', 'TIME_SHIFT_10ms', 'TIME_SHIFT_60ms', 'TIME_SHIFT_10ms', 'TIME_SHIFT_60ms', 'TIME_SHIFT_10ms', 'NOTE_OFF_70', 'NOTE_ON_67', 'VELOCITY_24', 'NOTE_ON_42', 'VELOCITY_13', 'NOTE_OFF_65', 'NOTE_ON_70', 'VELOCITY_9', 'NOTE_OFF_42', 'NOTE_ON_31', 'VELOCITY_22', 'TIME_SHIFT_80ms', 'TIME_SHIFT_10ms', 'TIME_SHIFT_50ms', 'TIME_SHIFT_10ms', 'TIME_SHIFT_10ms', 'NOTE_ON_42', 'VELOCITY_15', 'NOTE_OFF_42', 'TIME_SHIFT_10ms', 'TIME_SHIFT_10ms', 'TIME_SHIFT_50ms', 'TIME_SHIFT_10ms', 'TIME_SHIFT_10ms', 'NOTE_OFF_31', 'TIME_SHIFT_30ms', 'TIME_SHIFT_10ms', 'TIME_SHIFT_30ms', 'TIME_SHIFT_10ms', 'TIME_SHIFT_10ms', 'TIME_SHIFT_10ms', 'NOTE_ON_45', 'VELOCITY_19', 'NOTE_OFF_58', 'NOTE_OFF_55', 'NOTE_OFF_62', 'NOTE_OFF_37', 'NOTE_OFF_54', 'NOTE_OFF_67', 'NOTE_OFF_70', 'NOTE_OFF_42', 'NOTE_ON_69', 'VELOCITY_24', 'NOTE_ON_64', 'VELOCITY_17', 'NOTE_ON_33', 'VELOCITY_21', 'NOTE_ON_45', 'VELOCITY_19', 'NOTE_ON_57', 'VELOCITY_16', 'NOTE_ON_64', 'VELOCITY_19', 'NOTE_ON_60', 'VELOCITY_15', 'NOTE_ON_42', 'VELOCITY_27', 'NOTE_ON_35', 'VELOCITY_25', 'NOTE_ON_60', 'VELOCITY_18', 'TIME_SHIFT_30ms', 'TIME_SHIFT_10ms', 'TIME_SHIFT_80ms', 'TIME_SHIFT_10ms', 'TIME_SHIFT_110ms', 'TIME_SHIFT_10ms', 'TIME_SHIFT_50ms', 'NOTE_OFF_60', 'NOTE_OFF_64', 'TIME_SHIFT_30ms', 'TIME_SHIFT_10ms', 'NOTE_ON_60', 'VELOCITY_11', 'NOTE_ON_42', 'VELOCITY_12', 'NOTE_OFF_42', 'NOTE_ON_70', 'VELOCITY_16', 'NOTE_ON_52', 'VELOCITY_15', 'TIME_SHIFT_30ms', 'TIME_SHIFT_10ms', 'TIME_SHIFT_100ms', 'NOTE_OFF_69', 'TIME_SHIFT_130ms', 'TIME_SHIFT_10ms', 'TIME_SHIFT_50ms', 'NOTE_ON_57', 'VELOCITY_16', 'NOTE_ON_42', 'VELOCITY_6', 'NOTE_OFF_42', 'NOTE_ON_70', 'VELOCITY_11', 'NOTE_OFF_70', 'NOTE_ON_64', 'VELOCITY_14', 'NOTE_ON_67', 'VELOCITY_24', 'TIME_SHIFT_80ms', 'TIME_SHIFT_10ms', 'TIME_SHIFT_100ms', 'NOTE_OFF_60', 'TIME_SHIFT_10ms', 'TIME_SHIFT_10ms', 'TIME_SHIFT_110ms', 'TIME_SHIFT_10ms', 'NOTE_OFF_35', 'NOTE_ON_69', 'VELOCITY_19', 'NOTE_ON_42', 'VELOCITY_29', 'NOTE_ON_37', 'VELOCITY_23', 'NOTE_ON_54', 'VELOCITY_25', 'NOTE_OFF_67', 'NOTE_ON_64', 'VELOCITY_19', 'NOTE_ON_69', 'VELOCITY_24', 'NOTE_ON_60', 'VELOCITY_15', 'NOTE_OFF_70', 'NOTE_OFF_42', 'TIME_SHIFT_50ms', 'NOTE_OFF_52', 'TIME_SHIFT_10ms', 'TIME_SHIFT_10ms', 'NOTE_OFF_64', 'NOTE_OFF_57', 'TIME_SHIFT_10ms', 'TIME_SHIFT_10ms', 'NOTE_OFF_45', 'NOTE_OFF_69', 'TIME_SHIFT_30ms', 'TIME_SHIFT_10ms', 'TIME_SHIFT_10ms', 'TIME_SHIFT_10ms', 'NOTE_OFF_64', 'NOTE_OFF_45', 'TIME_SHIFT_50ms', 'NOTE_OFF_60', 'TIME_SHIFT_50ms', 'TIME_SHIFT_80ms', 'TIME_SHIFT_10ms', 'NOTE_ON_42', 'VELOCITY_8', 'NOTE_OFF_42', 'NOTE_ON_70', 'VELOCITY_15', 'NOTE_OFF_37', 'TIME_SHIFT_10ms', 'TIME_SHIFT_10ms', 'NOTE_OFF_69', 'TIME_SHIFT_10ms', 'TIME_SHIFT_10ms', 'TIME_SHIFT_10ms', 'TIME_SHIFT_10ms', 'NOTE_OFF_33', 'TIME_SHIFT_100ms', 'NOTE_OFF_42', 'NOTE_ON_42', 'VELOCITY_9', 'TIME_SHIFT_110ms', 'TIME_SHIFT_10ms', 'TIME_SHIFT_50ms', 'NOTE_ON_35', 'VELOCITY_25', 'NOTE_ON_70', 'VELOCITY_14', 'NOTE_ON_42', 'VELOCITY_15', 'NOTE_ON_72', 'VELOCITY_24', 'NOTE_OFF_42', 'NOTE_OFF_70', 'TIME_SHIFT_60ms', 'TIME_SHIFT_10ms', 'TIME_SHIFT_30ms', 'TIME_SHIFT_10ms', 'TIME_SHIFT_10ms', 'TIME_SHIFT_10ms', 'TIME_SHIFT_30ms', 'TIME_SHIFT_10ms', 'NOTE_ON_42', 'VELOCITY_20', 'NOTE_OFF_42', 'TIME_SHIFT_60ms', 'TIME_SHIFT_10ms', 'NOTE_OFF_72', 'TIME_SHIFT_60ms', 'TIME_SHIFT_10ms', 'TIME_SHIFT_30ms', 'TIME_SHIFT_10ms', 'NOTE_OFF_54', 'NOTE_OFF_64', 'NOTE_OFF_57', 'NOTE_OFF_60', 'NOTE_OFF_42', 'NOTE_OFF_35', 'NOTE_ON_69', 'VELOCITY_24', 'NOTE_ON_74', 'VELOCITY_26', 'NOTE_OFF_70', 'NOTE_ON_42', 'VELOCITY_17', 'NOTE_ON_62', 'VELOCITY_21', 'NOTE_ON_35', 'VELOCITY_25', 'NOTE_ON_62', 'VELOCITY_19', 'NOTE_ON_62', 'VELOCITY_22', 'NOTE_ON_38', 'VELOCITY_22', 'NOTE_ON_50', 'VELOCITY_20', 'NOTE_ON_50', 'VELOCITY_20', 'TIME_SHIFT_130ms', 'TIME_SHIFT_10ms', 'TIME_SHIFT_100ms', 'NOTE_OFF_74', 'NOTE_OFF_62', 'NOTE_OFF_50', 'TIME_SHIFT_50ms', 'NOTE_OFF_50', 'NOTE_OFF_62', 'TIME_SHIFT_10ms', 'TIME_SHIFT_10ms', 'NOTE_OFF_35', 'NOTE_OFF_42', 'NOTE_OFF_62', 'TIME_SHIFT_60ms', 'TIME_SHIFT_10ms', 'NOTE_OFF_38', 'TIME_SHIFT_50ms', 'TIME_SHIFT_50ms', 'NOTE_OFF_69', 'TIME_SHIFT_110ms', 'TIME_SHIFT_10ms', 'TIME_SHIFT_30ms', 'TIME_SHIFT_10ms', 'NOTE_ON_74', 'VELOCITY_22', 'NOTE_ON_35', 'VELOCITY_25', 'NOTE_ON_74', 'VELOCITY_24', 'NOTE_ON_38', 'VELOCITY_22', 'NOTE_ON_42', 'VELOCITY_17', 'NOTE_ON_50', 'VELOCITY_19', 'NOTE_ON_62', 'VELOCITY_22', 'NOTE_ON_62', 'VELOCITY_20', 'TIME_SHIFT_110ms', 'TIME_SHIFT_10ms', 'NOTE_OFF_74', 'TIME_SHIFT_10ms', 'TIME_SHIFT_10ms', 'NOTE_OFF_62', 'TIME_SHIFT_110ms', 'TIME_SHIFT_10ms', 'NOTE_OFF_38', 'TIME_SHIFT_10ms', 'TIME_SHIFT_10ms', 'NOTE_OFF_62', 'TIME_SHIFT_10ms', 'TIME_SHIFT_10ms', 'NOTE_OFF_50', 'TIME_SHIFT_30ms', 'TIME_SHIFT_10ms', 'NOTE_OFF_35', 'NOTE_ON_65', 'VELOCITY_17', 'NOTE_ON_46', 'VELOCITY_18', 'NOTE_OFF_42', 'NOTE_ON_41', 'VELOCITY_21', 'NOTE_ON_53', 'VELOCITY_17', 'NOTE_ON_65', 'VELOCITY_22', 'NOTE_ON_65', 'VELOCITY_21', 'NOTE_ON_38', 'VELOCITY_22', 'NOTE_ON_77', 'VELOCITY_23', 'TIME_SHIFT_110ms', 'TIME_SHIFT_10ms', 'NOTE_OFF_65', 'TIME_SHIFT_100ms', 'NOTE_OFF_41', 'TIME_SHIFT_30ms', 'TIME_SHIFT_10ms', 'NOTE_OFF_53', 'TIME_SHIFT_10ms', 'TIME_SHIFT_10ms', 'NOTE_OFF_65', 'TIME_SHIFT_10ms', 'TIME_SHIFT_10ms', 'NOTE_OFF_65', 'TIME_SHIFT_30ms', 'TIME_SHIFT_10ms', 'NOTE_ON_52', 'VELOCITY_18', 'NOTE_ON_64', 'VELOCITY_18', 'NOTE_OFF_38', 'NOTE_ON_64', 'VELOCITY_20', 'NOTE_OFF_46', 'NOTE_ON_40', 'VELOCITY_21', 'NOTE_ON_42', 'VELOCITY_17', 'NOTE_ON_35', 'VELOCITY_24', 'NOTE_ON_76', 'VELOCITY_22', 'NOTE_ON_64', 'VELOCITY_19', 'TIME_SHIFT_30ms', 'TIME_SHIFT_10ms', 'NOTE_OFF_77', 'TIME_SHIFT_60ms', 'TIME_SHIFT_10ms', 'NOTE_OFF_64', 'TIME_SHIFT_160ms', 'TIME_SHIFT_10ms', 'NOTE_OFF_64', 'NOTE_OFF_76', 'TIME_SHIFT_10ms', 'TIME_SHIFT_10ms', 'NOTE_OFF_40', 'TIME_SHIFT_10ms', 'TIME_SHIFT_10ms', 'NOTE_OFF_52', 'TIME_SHIFT_10ms', 'TIME_SHIFT_10ms', 'NOTE_ON_60', 'VELOCITY_19', 'NOTE_OFF_35', 'NOTE_ON_42', 'VELOCITY_17', 'NOTE_OFF_42', 'NOTE_ON_36', 'VELOCITY_20', 'NOTE_ON_72', 'VELOCITY_22', 'NOTE_ON_48', 'VELOCITY_19', 'NOTE_ON_60', 'VELOCITY_19', 'NOTE_ON_35', 'VELOCITY_25', 'NOTE_OFF_64', 'NOTE_ON_60', 'VELOCITY_19', 'TIME_SHIFT_230ms', 'TIME_SHIFT_10ms', 'NOTE_OFF_60', 'TIME_SHIFT_50ms', 'NOTE_OFF_60', 'NOTE_OFF_72', 'NOTE_OFF_60', 'TIME_SHIFT_10ms', 'TIME_SHIFT_10ms', 'NOTE_OFF_36', 'TIME_SHIFT_10ms', 'TIME_SHIFT_10ms', 'NOTE_ON_62', 'VELOCITY_21', 'NOTE_ON_57', 'VELOCITY_20', 'NOTE_ON_62', 'VELOCITY_22', 'NOTE_ON_74', 'VELOCITY_28', 'NOTE_ON_62', 'VELOCITY_22', 'NOTE_ON_50', 'VELOCITY_20', 'NOTE_ON_35', 'VELOCITY_25', 'NOTE_ON_38', 'VELOCITY_23', 'NOTE_OFF_42', 'NOTE_OFF_35', 'TIME_SHIFT_10ms', 'TIME_SHIFT_10ms', 'NOTE_OFF_48', 'TIME_SHIFT_180ms', 'TIME_SHIFT_10ms', 'NOTE_OFF_74', 'TIME_SHIFT_50ms', 'NOTE_OFF_62', 'TIME_SHIFT_10ms', 'TIME_SHIFT_10ms', 'NOTE_OFF_62', 'TIME_SHIFT_10ms', 'TIME_SHIFT_10ms', 'NOTE_OFF_62', 'NOTE_OFF_50', 'TIME_SHIFT_30ms', 'TIME_SHIFT_10ms', 'NOTE_OFF_35', 'NOTE_OFF_57', 'TIME_SHIFT_160ms', 'TIME_SHIFT_10ms', 'NOTE_OFF_38', 'TIME_SHIFT_110ms', 'TIME_SHIFT_10ms', 'TIME_SHIFT_30ms', 'TIME_SHIFT_10ms', 'NOTE_ON_38', 'VELOCITY_12', 'TIME_SHIFT_80ms', 'TIME_SHIFT_10ms', 'NOTE_ON_38', 'VELOCITY_14', 'NOTE_OFF_38', 'TIME_SHIFT_80ms', 'TIME_SHIFT_10ms', 'NOTE_OFF_38', 'NOTE_ON_38', 'VELOCITY_25', 'TIME_SHIFT_60ms', 'TIME_SHIFT_10ms', 'NOTE_OFF_74', 'NOTE_ON_38', 'VELOCITY_28', 'NOTE_OFF_38', 'TIME_SHIFT_80ms', 'TIME_SHIFT_10ms', 'NOTE_ON_42', 'VELOCITY_18', 'NOTE_OFF_38', 'NOTE_ON_38', 'VELOCITY_23', 'NOTE_ON_55', 'VELOCITY_30', 'TIME_SHIFT_310ms', 'TIME_SHIFT_10ms', 'NOTE_ON_35', 'VELOCITY_21', 'NOTE_OFF_38', 'NOTE_ON_46', 'VELOCITY_13', 'NOTE_OFF_42', 'NOTE_ON_53', 'VELOCITY_23', 'NOTE_OFF_55', 'TIME_SHIFT_150ms', 'NOTE_OFF_53', 'NOTE_ON_53', 'VELOCITY_26', 'TIME_SHIFT_160ms', 'TIME_SHIFT_10ms', 'NOTE_ON_35', 'VELOCITY_29', 'NOTE_OFF_46', 'NOTE_ON_42', 'VELOCITY_25', 'NOTE_OFF_35', 'NOTE_ON_52', 'VELOCITY_26', 'NOTE_OFF_53', 'TIME_SHIFT_150ms', 'NOTE_OFF_52', 'NOTE_ON_48', 'VELOCITY_29', 'TIME_SHIFT_160ms', 'TIME_SHIFT_10ms', 'NOTE_ON_77', 'VELOCITY_24', 'NOTE_ON_62', 'VELOCITY_22', 'NOTE_ON_34', 'VELOCITY_23', 'NOTE_ON_70', 'VELOCITY_15', 'NOTE_ON_46', 'VELOCITY_17', 'NOTE_ON_69', 'VELOCITY_25', 'NOTE_ON_62', 'VELOCITY_21', 'NOTE_ON_81', 'VELOCITY_25', 'NOTE_ON_65', 'VELOCITY_21', 'NOTE_ON_57', 'VELOCITY_18', 'NOTE_ON_60', 'VELOCITY_18', 'NOTE_ON_42', 'VELOCITY_25', 'NOTE_ON_46', 'VELOCITY_19', 'NOTE_ON_35', 'VELOCITY_25', 'NOTE_ON_58', 'VELOCITY_16', 'NOTE_ON_65', 'VELOCITY_16', 'NOTE_OFF_48', 'TIME_SHIFT_160ms', 'TIME_SHIFT_10ms', 'TIME_SHIFT_150ms', 'NOTE_OFF_77', 'NOTE_ON_42', 'VELOCITY_5', 'NOTE_ON_77', 'VELOCITY_24', 'NOTE_OFF_42', 'NOTE_ON_70', 'VELOCITY_11', 'NOTE_OFF_70', 'TIME_SHIFT_10ms', 'TIME_SHIFT_10ms', 'TIME_SHIFT_10ms', 'TIME_SHIFT_10ms', 'TIME_SHIFT_10ms', 'TIME_SHIFT_10ms', 'NOTE_OFF_35', 'TIME_SHIFT_80ms', 'TIME_SHIFT_10ms', 'NOTE_OFF_65', 'NOTE_OFF_62', 'TIME_SHIFT_10ms', 'TIME_SHIFT_10ms', 'NOTE_OFF_34', 'NOTE_OFF_60', 'TIME_SHIFT_80ms', 'TIME_SHIFT_10ms', 'NOTE_OFF_46', 'TIME_SHIFT_30ms', 'TIME_SHIFT_10ms', 'TIME_SHIFT_50ms', 'NOTE_OFF_77', 'NOTE_ON_34', 'VELOCITY_20', 'NOTE_OFF_42', 'NOTE_ON_70', 'VELOCITY_10', 'NOTE_OFF_70', 'NOTE_ON_77', 'VELOCITY_24', 'NOTE_ON_62', 'VELOCITY_19', 'NOTE_ON_60', 'VELOCITY_17', 'NOTE_ON_42', 'VELOCITY_11', 'NOTE_ON_62', 'VELOCITY_21', 'NOTE_ON_35', 'VELOCITY_25', 'NOTE_ON_65', 'VELOCITY_19', 'NOTE_ON_77', 'VELOCITY_18', 'NOTE_ON_58', 'VELOCITY_16', 'NOTE_ON_74', 'VELOCITY_16', 'NOTE_ON_70', 'VELOCITY_20', 'NOTE_ON_65', 'VELOCITY_19', 'TIME_SHIFT_50ms', 'NOTE_OFF_74', 'NOTE_OFF_46', 'TIME_SHIFT_10ms', 'TIME_SHIFT_10ms', 'TIME_SHIFT_10ms', 'TIME_SHIFT_10ms', 'NOTE_OFF_70', 'TIME_SHIFT_10ms', 'TIME_SHIFT_10ms', 'NOTE_OFF_77', 'TIME_SHIFT_50ms', 'NOTE_OFF_35', 'TIME_SHIFT_60ms', 'TIME_SHIFT_10ms', 'NOTE_OFF_62', 'NOTE_OFF_65', 'TIME_SHIFT_30ms', 'TIME_SHIFT_10ms', 'NOTE_OFF_60', 'TIME_SHIFT_30ms', 'TIME_SHIFT_10ms', 'TIME_SHIFT_30ms', 'TIME_SHIFT_10ms', 'NOTE_OFF_42', 'NOTE_OFF_70', 'NOTE_OFF_77', 'NOTE_ON_77', 'VELOCITY_24', 'NOTE_ON_42', 'VELOCITY_25', 'NOTE_ON_38', 'VELOCITY_22', 'NOTE_ON_70', 'VELOCITY_18', 'NOTE_OFF_57', 'TIME_SHIFT_30ms', 'TIME_SHIFT_10ms', 'TIME_SHIFT_50ms', 'TIME_SHIFT_50ms', 'TIME_SHIFT_10ms', 'TIME_SHIFT_10ms', 'NOTE_OFF_38', 'TIME_SHIFT_30ms', 'TIME_SHIFT_10ms', 'NOTE_OFF_34', 'TIME_SHIFT_50ms', 'TIME_SHIFT_80ms', 'TIME_SHIFT_10ms', 'NOTE_ON_74', 'VELOCITY_23', 'NOTE_ON_70', 'VELOCITY_25', 'NOTE_OFF_77', 'NOTE_ON_67', 'VELOCITY_17', 'NOTE_ON_65', 'VELOCITY_20', 'NOTE_ON_62', 'VELOCITY_17', 'NOTE_ON_74', 'VELOCITY_24', 'NOTE_OFF_70', 'NOTE_ON_60', 'VELOCITY_15', 'NOTE_ON_42', 'VELOCITY_15', 'NOTE_ON_77', 'VELOCITY_22', 'NOTE_ON_70', 'VELOCITY_8', 'NOTE_OFF_42', 'TIME_SHIFT_30ms', 'TIME_SHIFT_10ms', 'TIME_SHIFT_30ms', 'TIME_SHIFT_10ms', 'NOTE_OFF_65', 'TIME_SHIFT_10ms', 'TIME_SHIFT_10ms', 'NOTE_OFF_58', 'TIME_SHIFT_10ms', 'TIME_SHIFT_10ms', 'TIME_SHIFT_50ms', 'NOTE_OFF_70', 'NOTE_ON_70', 'VELOCITY_10', 'TIME_SHIFT_10ms', 'TIME_SHIFT_10ms', 'TIME_SHIFT_30ms', 'TIME_SHIFT_10ms', 'NOTE_OFF_62', 'TIME_SHIFT_50ms', 'NOTE_OFF_67', 'TIME_SHIFT_10ms', 'TIME_SHIFT_10ms', 'NOTE_OFF_65', 'TIME_SHIFT_50ms', 'NOTE_ON_74', 'VELOCITY_24', 'NOTE_ON_42', 'VELOCITY_13', 'NOTE_OFF_70', 'NOTE_ON_65', 'VELOCITY_15', 'NOTE_ON_35', 'VELOCITY_25', 'NOTE_ON_67', 'VELOCITY_17', 'NOTE_ON_70', 'VELOCITY_14', 'NOTE_ON_34', 'VELOCITY_22', 'NOTE_OFF_42', 'NOTE_OFF_74', 'TIME_SHIFT_60ms', 'TIME_SHIFT_10ms', 'TIME_SHIFT_50ms', 'NOTE_OFF_35', 'TIME_SHIFT_30ms', 'TIME_SHIFT_10ms', 'NOTE_OFF_70', 'NOTE_ON_70', 'VELOCITY_17', 'TIME_SHIFT_30ms', 'TIME_SHIFT_10ms', 'TIME_SHIFT_30ms', 'TIME_SHIFT_10ms', 'NOTE_OFF_67', 'NOTE_OFF_60', 'TIME_SHIFT_10ms', 'TIME_SHIFT_10ms', 'NOTE_OFF_62', 'TIME_SHIFT_10ms', 'TIME_SHIFT_10ms', 'NOTE_ON_67', 'VELOCITY_22', 'NOTE_OFF_69', 'NOTE_OFF_81', 'NOTE_ON_79', 'VELOCITY_22', 'TIME_SHIFT_10ms', 'TIME_SHIFT_10ms', 'NOTE_OFF_74', 'TIME_SHIFT_10ms', 'TIME_SHIFT_10ms', 'NOTE_OFF_34', 'TIME_SHIFT_10ms', 'TIME_SHIFT_10ms', 'NOTE_ON_42', 'VELOCITY_27', 'NOTE_ON_36', 'VELOCITY_21', 'NOTE_ON_55', 'VELOCITY_17', 'NOTE_ON_64', 'VELOCITY_20', 'NOTE_ON_48', 'VELOCITY_13', 'NOTE_ON_60', 'VELOCITY_15', 'NOTE_ON_76', 'VELOCITY_24', 'NOTE_OFF_42', 'NOTE_ON_55', 'VELOCITY_17', 'NOTE_ON_64', 'VELOCITY_20', 'NOTE_OFF_74', 'NOTE_ON_60', 'VELOCITY_21', 'NOTE_ON_35', 'VELOCITY_25', 'NOTE_OFF_70', 'NOTE_OFF_70', 'NOTE_OFF_62', 'NOTE_OFF_65', 'NOTE_OFF_58', 'NOTE_ON_70', 'VELOCITY_20', 'TIME_SHIFT_50ms', 'NOTE_OFF_65', 'TIME_SHIFT_30ms', 'TIME_SHIFT_10ms', 'NOTE_OFF_77', 'TIME_SHIFT_60ms', 'TIME_SHIFT_10ms', 'TIME_SHIFT_60ms', 'TIME_SHIFT_10ms', 'TIME_SHIFT_60ms', 'TIME_SHIFT_10ms', 'NOTE_OFF_35', 'TIME_SHIFT_30ms', 'TIME_SHIFT_10ms', 'NOTE_OFF_42', 'NOTE_ON_70', 'VELOCITY_10', 'NOTE_ON_42', 'VELOCITY_13', 'NOTE_ON_72', 'VELOCITY_18', 'NOTE_ON_76', 'VELOCITY_23', 'NOTE_ON_76', 'VELOCITY_24', 'NOTE_OFF_76', 'NOTE_OFF_70', 'TIME_SHIFT_50ms', 'TIME_SHIFT_60ms', 'TIME_SHIFT_10ms', 'NOTE_OFF_76', 'NOTE_OFF_72', 'TIME_SHIFT_10ms', 'TIME_SHIFT_10ms', 'NOTE_OFF_36', 'NOTE_OFF_64', 'TIME_SHIFT_50ms', 'NOTE_OFF_60', 'TIME_SHIFT_80ms', 'TIME_SHIFT_10ms', 'NOTE_OFF_55', 'TIME_SHIFT_50ms', 'NOTE_OFF_76', 'NOTE_OFF_42', 'NOTE_ON_60', 'VELOCITY_17', 'NOTE_OFF_70', 'NOTE_ON_76', 'VELOCITY_24', 'NOTE_ON_36', 'VELOCITY_21', 'NOTE_ON_64', 'VELOCITY_21', 'NOTE_ON_74', 'VELOCITY_17', 'NOTE_ON_70', 'VELOCITY_9', 'NOTE_ON_42', 'VELOCITY_13', 'NOTE_ON_64', 'VELOCITY_18', 'NOTE_ON_77', 'VELOCITY_19', 'NOTE_ON_60', 'VELOCITY_16', 'TIME_SHIFT_10ms', 'TIME_SHIFT_10ms', 'TIME_SHIFT_60ms', 'TIME_SHIFT_10ms', 'TIME_SHIFT_10ms', 'TIME_SHIFT_10ms', 'NOTE_OFF_74', 'TIME_SHIFT_10ms', 'TIME_SHIFT_10ms', 'NOTE_OFF_77', 'TIME_SHIFT_10ms', 'TIME_SHIFT_10ms', 'TIME_SHIFT_50ms', 'TIME_SHIFT_50ms', 'TIME_SHIFT_30ms', 'TIME_SHIFT_10ms', 'TIME_SHIFT_10ms', 'TIME_SHIFT_10ms', 'NOTE_OFF_60', 'TIME_SHIFT_30ms', 'TIME_SHIFT_10ms', 'NOTE_ON_38', 'VELOCITY_21', 'NOTE_ON_70', 'VELOCITY_17', 'NOTE_ON_72', 'VELOCITY_24', 'NOTE_ON_46', 'VELOCITY_19', 'NOTE_OFF_42', 'NOTE_ON_76', 'VELOCITY_22', 'NOTE_OFF_70', 'NOTE_ON_79', 'VELOCITY_23', 'NOTE_OFF_76', 'TIME_SHIFT_60ms', 'TIME_SHIFT_10ms', 'NOTE_OFF_64', 'TIME_SHIFT_50ms', 'NOTE_OFF_36', 'TIME_SHIFT_110ms', 'TIME_SHIFT_10ms', 'NOTE_OFF_38', 'TIME_SHIFT_80ms', 'TIME_SHIFT_10ms', 'NOTE_OFF_70', 'NOTE_ON_62', 'VELOCITY_19', 'NOTE_ON_67', 'VELOCITY_21', 'NOTE_ON_65', 'VELOCITY_20', 'NOTE_OFF_46', 'NOTE_OFF_72', 'NOTE_ON_42', 'VELOCITY_18', 'NOTE_ON_70', 'VELOCITY_10', 'TIME_SHIFT_110ms', 'TIME_SHIFT_10ms', 'NOTE_OFF_64', 'TIME_SHIFT_50ms', 'NOTE_OFF_70', 'NOTE_ON_70', 'VELOCITY_8', 'TIME_SHIFT_10ms', 'TIME_SHIFT_10ms', 'NOTE_OFF_48', 'TIME_SHIFT_100ms', 'TIME_SHIFT_30ms', 'TIME_SHIFT_10ms', 'NOTE_ON_42', 'VELOCITY_17', 'NOTE_ON_64', 'VELOCITY_17', 'NOTE_ON_35', 'VELOCITY_25', 'NOTE_ON_67', 'VELOCITY_24', 'NOTE_OFF_70', 'NOTE_ON_64', 'VELOCITY_14', 'NOTE_ON_70', 'VELOCITY_13', 'NOTE_ON_36', 'VELOCITY_21', 'NOTE_OFF_42', 'TIME_SHIFT_50ms', 'NOTE_OFF_60', 'TIME_SHIFT_10ms', 'TIME_SHIFT_10ms', 'NOTE_OFF_62', 'TIME_SHIFT_10ms', 'TIME_SHIFT_10ms', 'TIME_SHIFT_30ms', 'TIME_SHIFT_10ms', 'NOTE_OFF_65', 'TIME_SHIFT_10ms', 'TIME_SHIFT_10ms', 'NOTE_OFF_67', 'TIME_SHIFT_10ms', 'TIME_SHIFT_10ms', 'NOTE_OFF_35', 'TIME_SHIFT_10ms', 'TIME_SHIFT_10ms', 'NOTE_ON_70', 'VELOCITY_21', 'NOTE_OFF_36', 'NOTE_OFF_70', 'TIME_SHIFT_30ms', 'TIME_SHIFT_10ms', 'TIME_SHIFT_50ms', 'NOTE_OFF_79', 'TIME_SHIFT_30ms', 'TIME_SHIFT_10ms', 'NOTE_OFF_64', 'TIME_SHIFT_10ms', 'TIME_SHIFT_10ms', 'NOTE_ON_64', 'VELOCITY_22', 'NOTE_OFF_79', 'NOTE_OFF_67', 'NOTE_OFF_76', 'NOTE_ON_76', 'VELOCITY_22', 'TIME_SHIFT_10ms', 'TIME_SHIFT_10ms', 'NOTE_OFF_67', 'NOTE_OFF_64', 'NOTE_OFF_60', 'NOTE_ON_33', 'VELOCITY_22', 'NOTE_OFF_70', 'NOTE_ON_42', 'VELOCITY_25', 'NOTE_ON_45', 'VELOCITY_17', 'NOTE_ON_60', 'VELOCITY_19', 'NOTE_ON_55', 'VELOCITY_18', 'NOTE_ON_64', 'VELOCITY_18', 'NOTE_ON_45', 'VELOCITY_22', 'NOTE_ON_60', 'VELOCITY_17', 'NOTE_ON_35', 'VELOCITY_25', 'NOTE_OFF_42', 'NOTE_ON_64', 'VELOCITY_10', 'NOTE_ON_76', 'VELOCITY_24', 'NOTE_OFF_55', 'NOTE_ON_70', 'VELOCITY_15', 'TIME_SHIFT_30ms', 'TIME_SHIFT_10ms', 'TIME_SHIFT_60ms', 'TIME_SHIFT_10ms', 'NOTE_OFF_64', 'TIME_SHIFT_10ms', 'TIME_SHIFT_10ms', 'TIME_SHIFT_30ms', 'TIME_SHIFT_10ms', 'NOTE_OFF_35', 'NOTE_OFF_42', 'TIME_SHIFT_80ms', 'TIME_SHIFT_10ms', 'TIME_SHIFT_80ms', 'TIME_SHIFT_10ms', 'NOTE_ON_42', 'VELOCITY_5', 'NOTE_ON_70', 'VELOCITY_11', 'NOTE_OFF_70', 'NOTE_ON_76', 'VELOCITY_24', 'NOTE_ON_72', 'VELOCITY_22', 'NOTE_OFF_76', 'NOTE_OFF_42', 'NOTE_ON_69', 'VELOCITY_11', 'NOTE_ON_67', 'VELOCITY_15', 'TIME_SHIFT_30ms', 'TIME_SHIFT_10ms', 'NOTE_OFF_69', 'TIME_SHIFT_10ms', 'TIME_SHIFT_10ms', 'NOTE_OFF_35', 'TIME_SHIFT_10ms', 'TIME_SHIFT_10ms', 'NOTE_OFF_67', 'TIME_SHIFT_30ms', 'TIME_SHIFT_10ms', 'NOTE_OFF_72', 'TIME_SHIFT_50ms', 'NOTE_OFF_64', 'TIME_SHIFT_10ms', 'TIME_SHIFT_10ms', 'NOTE_OFF_33', 'NOTE_OFF_60', 'TIME_SHIFT_110ms', 'TIME_SHIFT_10ms', 'TIME_SHIFT_30ms', 'TIME_SHIFT_10ms', 'NOTE_OFF_42', 'NOTE_OFF_76', 'NOTE_ON_70', 'VELOCITY_10', 'NOTE_ON_33', 'VELOCITY_22', 'NOTE_ON_76', 'VELOCITY_24', 'NOTE_ON_60', 'VELOCITY_17', 'NOTE_ON_42', 'VELOCITY_11', 'NOTE_ON_60', 'VELOCITY_15', 'NOTE_OFF_70', 'NOTE_ON_35', 'VELOCITY_25', 'NOTE_ON_64', 'VELOCITY_21', 'NOTE_ON_64', 'VELOCITY_21', 'TIME_SHIFT_80ms', 'TIME_SHIFT_10ms', 'TIME_SHIFT_60ms', 'TIME_SHIFT_10ms', 'NOTE_OFF_35', 'TIME_SHIFT_60ms', 'TIME_SHIFT_10ms', 'TIME_SHIFT_60ms', 'TIME_SHIFT_10ms', 'NOTE_OFF_64', 'TIME_SHIFT_30ms', 'TIME_SHIFT_10ms', 'NOTE_OFF_76', 'NOTE_OFF_64', 'NOTE_OFF_76', 'NOTE_ON_76', 'VELOCITY_24', 'NOTE_OFF_42', 'NOTE_OFF_60', 'NOTE_OFF_70', 'NOTE_ON_42', 'VELOCITY_25', 'NOTE_ON_70', 'VELOCITY_18', 'NOTE_ON_38', 'VELOCITY_22', 'TIME_SHIFT_10ms', 'TIME_SHIFT_10ms', 'NOTE_ON_60', 'VELOCITY_22', 'NOTE_ON_72', 'VELOCITY_22', 'TIME_SHIFT_110ms', 'TIME_SHIFT_10ms', 'NOTE_OFF_45', 'TIME_SHIFT_10ms', 'TIME_SHIFT_10ms', 'NOTE_OFF_38', 'TIME_SHIFT_10ms', 'TIME_SHIFT_10ms', 'TIME_SHIFT_80ms', 'TIME_SHIFT_10ms', 'NOTE_OFF_60', 'NOTE_OFF_45', 'TIME_SHIFT_50ms', 'NOTE_OFF_64', 'TIME_SHIFT_10ms', 'TIME_SHIFT_10ms', 'NOTE_OFF_42', 'NOTE_OFF_76', 'NOTE_OFF_70', 'NOTE_ON_64', 'VELOCITY_19', 'NOTE_ON_72', 'VELOCITY_21', 'NOTE_ON_67', 'VELOCITY_20', 'NOTE_ON_70', 'VELOCITY_8', 'NOTE_ON_42', 'VELOCITY_15', 'NOTE_ON_77', 'VELOCITY_24', 'NOTE_OFF_33', 'NOTE_ON_76', 'VELOCITY_22', 'NOTE_ON_60', 'VELOCITY_16', 'NOTE_ON_67', 'VELOCITY_17', 'NOTE_ON_65', 'VELOCITY_14', 'TIME_SHIFT_30ms', 'TIME_SHIFT_10ms', 'TIME_SHIFT_110ms', 'TIME_SHIFT_10ms', 'NOTE_OFF_70', 'NOTE_ON_70', 'VELOCITY_10', 'NOTE_OFF_72', 'TIME_SHIFT_30ms', 'TIME_SHIFT_10ms', 'NOTE_OFF_67', 'TIME_SHIFT_80ms', 'TIME_SHIFT_10ms', 'TIME_SHIFT_30ms', 'TIME_SHIFT_10ms', 'NOTE_OFF_65', 'TIME_SHIFT_10ms', 'TIME_SHIFT_10ms', 'NOTE_OFF_42', 'NOTE_ON_70', 'VELOCITY_14', 'NOTE_OFF_76', 'NOTE_OFF_77', 'NOTE_OFF_70', 'NOTE_ON_79', 'VELOCITY_24', 'NOTE_ON_33', 'VELOCITY_22', 'NOTE_ON_72', 'VELOCITY_18', 'NOTE_ON_64', 'VELOCITY_12', 'NOTE_ON_42', 'VELOCITY_13', 'NOTE_ON_35', 'VELOCITY_25', 'TIME_SHIFT_10ms', 'TIME_SHIFT_10ms', 'NOTE_OFF_64', 'TIME_SHIFT_30ms', 'TIME_SHIFT_10ms', 'NOTE_OFF_60', 'TIME_SHIFT_30ms', 'TIME_SHIFT_10ms', 'TIME_SHIFT_10ms', 'TIME_SHIFT_10ms', 'NOTE_OFF_72', 'NOTE_OFF_64', 'TIME_SHIFT_10ms', 'TIME_SHIFT_10ms', 'NOTE_OFF_35', 'TIME_SHIFT_10ms', 'TIME_SHIFT_10ms', 'NOTE_OFF_67', 'TIME_SHIFT_10ms', 'TIME_SHIFT_10ms', 'NOTE_ON_70', 'VELOCITY_17', 'NOTE_OFF_70', 'TIME_SHIFT_10ms', 'TIME_SHIFT_10ms', 'NOTE_OFF_33', 'TIME_SHIFT_50ms', 'NOTE_OFF_60', 'NOTE_OFF_72', 'TIME_SHIFT_30ms', 'TIME_SHIFT_10ms', 'TIME_SHIFT_10ms', 'TIME_SHIFT_10ms', 'NOTE_ON_62', 'VELOCITY_20', 'NOTE_ON_74', 'VELOCITY_20', 'TIME_SHIFT_50ms', 'NOTE_OFF_70', 'NOTE_ON_77', 'VELOCITY_24', 'NOTE_OFF_64', 'NOTE_ON_46', 'VELOCITY_17', 'NOTE_ON_34', 'VELOCITY_22', 'NOTE_OFF_42', 'NOTE_ON_46', 'VELOCITY_15', 'NOTE_OFF_60', 'NOTE_ON_62', 'VELOCITY_19', 'NOTE_OFF_79', 'NOTE_OFF_55', 'NOTE_ON_62', 'VELOCITY_22', 'NOTE_ON_65', 'VELOCITY_20', 'NOTE_ON_53', 'VELOCITY_20', 'NOTE_ON_58', 'VELOCITY_19', 'NOTE_ON_62', 'VELOCITY_18', 'NOTE_ON_42', 'VELOCITY_27', 'NOTE_ON_70', 'VELOCITY_20', 'NOTE_ON_35', 'VELOCITY_25', 'TIME_SHIFT_60ms', 'TIME_SHIFT_10ms', 'TIME_SHIFT_60ms', 'TIME_SHIFT_10ms', 'TIME_SHIFT_60ms', 'TIME_SHIFT_10ms', 'TIME_SHIFT_60ms', 'TIME_SHIFT_10ms', 'NOTE_OFF_35', 'TIME_SHIFT_50ms', 'NOTE_ON_76', 'VELOCITY_24', 'NOTE_OFF_42', 'NOTE_OFF_70', 'NOTE_ON_69', 'VELOCITY_22', 'NOTE_ON_42', 'VELOCITY_13', 'NOTE_ON_74', 'VELOCITY_22', 'NOTE_ON_65', 'VELOCITY_18', 'NOTE_ON_70', 'VELOCITY_10', 'NOTE_OFF_77', 'TIME_SHIFT_30ms', 'TIME_SHIFT_10ms', 'TIME_SHIFT_110ms', 'TIME_SHIFT_10ms', 'TIME_SHIFT_10ms', 'TIME_SHIFT_10ms', 'NOTE_OFF_65', 'TIME_SHIFT_10ms', 'TIME_SHIFT_10ms', 'NOTE_OFF_34', 'TIME_SHIFT_10ms', 'TIME_SHIFT_10ms', 'NOTE_OFF_62', 'TIME_SHIFT_60ms', 'TIME_SHIFT_10ms', 'TIME_SHIFT_10ms', 'TIME_SHIFT_10ms', 'NOTE_OFF_46', 'TIME_SHIFT_30ms', 'TIME_SHIFT_10ms', 'NOTE_OFF_70', 'NOTE_ON_72', 'VELOCITY_24', 'NOTE_OFF_76', 'NOTE_OFF_42', 'NOTE_ON_34', 'VELOCITY_20', 'NOTE_ON_42', 'VELOCITY_13', 'NOTE_ON_70', 'VELOCITY_9', 'TIME_SHIFT_60ms', 'TIME_SHIFT_10ms', 'TIME_SHIFT_50ms', 'NOTE_OFF_62', 'TIME_SHIFT_50ms', 'TIME_SHIFT_50ms', 'TIME_SHIFT_50ms', 'NOTE_OFF_34', 'TIME_SHIFT_10ms', 'TIME_SHIFT_10ms', 'NOTE_OFF_46', 'TIME_SHIFT_30ms', 'TIME_SHIFT_10ms', 'NOTE_ON_62', 'VELOCITY_22', 'NOTE_ON_62', 'VELOCITY_19', 'NOTE_ON_65', 'VELOCITY_20', 'NOTE_ON_57', 'VELOCITY_14', 'NOTE_ON_62', 'VELOCITY_22', 'NOTE_ON_65', 'VELOCITY_17', 'NOTE_OFF_62', 'NOTE_ON_57', 'VELOCITY_21', 'NOTE_ON_38', 'VELOCITY_21', 'NOTE_ON_50', 'VELOCITY_20', 'NOTE_OFF_53', 'NOTE_ON_46', 'VELOCITY_19', 'NOTE_ON_74', 'VELOCITY_24', 'NOTE_ON_38', 'VELOCITY_21', 'NOTE_OFF_70', 'NOTE_ON_70', 'VELOCITY_17', 'NOTE_OFF_42', 'NOTE_OFF_72', 'NOTE_OFF_58', 'NOTE_ON_57', 'VELOCITY_19', 'TIME_SHIFT_110ms', 'TIME_SHIFT_10ms', 'TIME_SHIFT_100ms', 'NOTE_OFF_38', 'TIME_SHIFT_10ms', 'TIME_SHIFT_10ms', 'TIME_SHIFT_60ms', 'TIME_SHIFT_10ms', 'NOTE_OFF_74', 'NOTE_OFF_46', 'NOTE_ON_42', 'VELOCITY_18', 'NOTE_ON_70', 'VELOCITY_10', 'NOTE_OFF_70', 'TIME_SHIFT_110ms', 'TIME_SHIFT_10ms', 'NOTE_OFF_57', 'TIME_SHIFT_30ms', 'TIME_SHIFT_10ms', 'NOTE_OFF_38', 'TIME_SHIFT_10ms', 'TIME_SHIFT_10ms', 'NOTE_ON_70', 'VELOCITY_8', 'NOTE_OFF_70', 'TIME_SHIFT_110ms', 'TIME_SHIFT_10ms', 'NOTE_OFF_62', 'NOTE_OFF_65', 'TIME_SHIFT_30ms', 'TIME_SHIFT_10ms', 'NOTE_ON_42', 'VELOCITY_17', 'NOTE_ON_38', 'VELOCITY_22', 'NOTE_OFF_70', 'NOTE_ON_70', 'VELOCITY_13', 'NOTE_OFF_42', 'NOTE_ON_35', 'VELOCITY_25', 'TIME_SHIFT_110ms', 'TIME_SHIFT_10ms', 'NOTE_OFF_50', 'NOTE_OFF_57', 'TIME_SHIFT_30ms', 'TIME_SHIFT_10ms', 'NOTE_OFF_35', 'TIME_SHIFT_10ms', 'TIME_SHIFT_10ms', 'NOTE_ON_70', 'VELOCITY_21', 'NOTE_OFF_70', 'TIME_SHIFT_10ms', 'TIME_SHIFT_10ms', 'NOTE_OFF_65', 'TIME_SHIFT_10ms', 'TIME_SHIFT_10ms', 'NOTE_OFF_74', 'TIME_SHIFT_10ms', 'TIME_SHIFT_10ms', 'NOTE_OFF_69', 'TIME_SHIFT_50ms', 'NOTE_OFF_62', 'TIME_SHIFT_30ms', 'TIME_SHIFT_10ms', 'NOTE_OFF_38', 'TIME_SHIFT_10ms', 'TIME_SHIFT_10ms', 'NOTE_ON_67', 'VELOCITY_20', 'NOTE_ON_74', 'VELOCITY_20', 'NOTE_OFF_65', 'NOTE_ON_70', 'VELOCITY_18', 'NOTE_OFF_42', 'NOTE_ON_58', 'VELOCITY_17', 'NOTE_ON_43', 'VELOCITY_20', 'NOTE_ON_43', 'VELOCITY_17', 'NOTE_ON_31', 'VELOCITY_22', 'NOTE_ON_70', 'VELOCITY_24', 'NOTE_ON_55', 'VELOCITY_20', 'NOTE_OFF_70', 'NOTE_OFF_62', 'NOTE_OFF_57', 'NOTE_ON_62', 'VELOCITY_20', 'NOTE_ON_67', 'VELOCITY_20', 'NOTE_ON_70', 'VELOCITY_15', 'NOTE_ON_62', 'VELOCITY_20', 'NOTE_ON_58', 'VELOCITY_18', 'NOTE_ON_42', 'VELOCITY_25', 'NOTE_ON_35', 'VELOCITY_25', 'TIME_SHIFT_30ms', 'TIME_SHIFT_10ms', 'NOTE_ON_79', 'VELOCITY_21', 'NOTE_ON_67', 'VELOCITY_21', 'TIME_SHIFT_10ms', 'TIME_SHIFT_10ms', 'NOTE_OFF_62', 'NOTE_OFF_74', 'TIME_SHIFT_60ms', 'TIME_SHIFT_10ms', 'TIME_SHIFT_130ms', 'TIME_SHIFT_10ms', 'TIME_SHIFT_60ms', 'TIME_SHIFT_10ms', 'NOTE_ON_70', 'VELOCITY_24', 'NOTE_OFF_42', 'NOTE_OFF_70', 'NOTE_OFF_70', 'NOTE_ON_70', 'VELOCITY_11', 'NOTE_ON_42', 'VELOCITY_5', 'TIME_SHIFT_50ms', 'NOTE_OFF_67', 'NOTE_OFF_62', 'NOTE_OFF_35', 'TIME_SHIFT_50ms', 'NOTE_OFF_58', 'TIME_SHIFT_80ms', 'TIME_SHIFT_10ms', 'NOTE_OFF_31', 'TIME_SHIFT_30ms', 'TIME_SHIFT_10ms', 'TIME_SHIFT_100ms', 'NOTE_ON_70', 'VELOCITY_10', 'NOTE_OFF_42', 'NOTE_OFF_70', 'NOTE_ON_35', 'VELOCITY_25', 'NOTE_ON_62', 'VELOCITY_20', 'NOTE_ON_42', 'VELOCITY_11', 'NOTE_OFF_70', 'NOTE_ON_70', 'VELOCITY_24', 'NOTE_ON_31', 'VELOCITY_22', 'NOTE_ON_58', 'VELOCITY_16', 'NOTE_ON_67', 'VELOCITY_20', 'NOTE_ON_67', 'VELOCITY_20', 'NOTE_ON_62', 'VELOCITY_20', 'NOTE_ON_58', 'VELOCITY_16', 'TIME_SHIFT_60ms', 'TIME_SHIFT_10ms', 'TIME_SHIFT_10ms', 'TIME_SHIFT_10ms', 'TIME_SHIFT_60ms', 'TIME_SHIFT_10ms', 'TIME_SHIFT_10ms', 'TIME_SHIFT_10ms', 'NOTE_OFF_35', 'TIME_SHIFT_50ms', 'TIME_SHIFT_80ms', 'TIME_SHIFT_10ms', 'NOTE_OFF_31', 'TIME_SHIFT_10ms', 'TIME_SHIFT_10ms', 'NOTE_ON_70', 'VELOCITY_24', 'NOTE_OFF_70', 'NOTE_OFF_70', 'NOTE_OFF_42', 'NOTE_ON_38', 'VELOCITY_22', 'NOTE_ON_42', 'VELOCITY_25', 'NOTE_ON_70', 'VELOCITY_18', 'TIME_SHIFT_110ms', 'TIME_SHIFT_10ms', 'NOTE_OFF_74', 'TIME_SHIFT_30ms', 'TIME_SHIFT_10ms', 'NOTE_OFF_67', 'TIME_SHIFT_10ms', 'TIME_SHIFT_10ms', 'NOTE_OFF_70', 'NOTE_OFF_58', 'NOTE_OFF_62', 'NOTE_OFF_38', 'TIME_SHIFT_10ms', 'TIME_SHIFT_10ms', 'NOTE_OFF_67', 'TIME_SHIFT_50ms', 'TIME_SHIFT_10ms', 'TIME_SHIFT_10ms', 'NOTE_OFF_67', 'TIME_SHIFT_30ms', 'TIME_SHIFT_10ms', 'NOTE_OFF_62', 'TIME_SHIFT_30ms', 'TIME_SHIFT_10ms', 'NOTE_ON_42', 'VELOCITY_15', 'NOTE_ON_67', 'VELOCITY_20', 'NOTE_ON_70', 'VELOCITY_8', 'NOTE_ON_70', 'VELOCITY_23', 'NOTE_ON_65', 'VELOCITY_15', 'NOTE_OFF_70', 'NOTE_ON_62', 'VELOCITY_19', 'NOTE_OFF_70', 'NOTE_ON_58', 'VELOCITY_14', 'NOTE_OFF_58', 'NOTE_ON_67', 'VELOCITY_18', 'NOTE_OFF_42', 'NOTE_ON_31', 'VELOCITY_21', 'NOTE_ON_69', 'VELOCITY_24', 'TIME_SHIFT_10ms', 'TIME_SHIFT_10ms', 'NOTE_OFF_43', 'TIME_SHIFT_10ms', 'TIME_SHIFT_10ms', 'TIME_SHIFT_130ms', 'TIME_SHIFT_10ms', 'NOTE_ON_70', 'VELOCITY_10', 'NOTE_OFF_70', 'TIME_SHIFT_10ms', 'TIME_SHIFT_10ms', 'NOTE_OFF_70', 'TIME_SHIFT_10ms', 'TIME_SHIFT_10ms', 'TIME_SHIFT_30ms', 'TIME_SHIFT_10ms', 'NOTE_OFF_67', 'TIME_SHIFT_10ms', 'TIME_SHIFT_10ms', 'NOTE_ON_86', 'VELOCITY_17', 'NOTE_OFF_31', 'NOTE_ON_74', 'VELOCITY_17', 'NOTE_OFF_65', 'TIME_SHIFT_10ms', 'TIME_SHIFT_10ms', 'NOTE_OFF_79', 'NOTE_OFF_67', 'TIME_SHIFT_50ms', 'NOTE_ON_31', 'VELOCITY_20', 'NOTE_ON_42', 'VELOCITY_13', 'NOTE_ON_35', 'VELOCITY_25', 'NOTE_ON_70', 'VELOCITY_14', 'NOTE_OFF_58', 'NOTE_ON_67', 'VELOCITY_24', 'NOTE_OFF_69', 'NOTE_OFF_42', 'NOTE_ON_64', 'VELOCITY_16', 'NOTE_OFF_70', 'NOTE_ON_64', 'VELOCITY_13', 'NOTE_OFF_43', 'TIME_SHIFT_10ms', 'TIME_SHIFT_10ms', 'NOTE_OFF_67', 'NOTE_OFF_62', 'TIME_SHIFT_30ms', 'TIME_SHIFT_10ms', 'TIME_SHIFT_30ms', 'TIME_SHIFT_10ms', 'TIME_SHIFT_30ms', 'TIME_SHIFT_10ms', 'NOTE_OFF_35', 'TIME_SHIFT_30ms', 'TIME_SHIFT_10ms', 'NOTE_ON_70', 'VELOCITY_17', 'NOTE_OFF_70', 'TIME_SHIFT_60ms', 'TIME_SHIFT_10ms', 'TIME_SHIFT_30ms', 'TIME_SHIFT_10ms', 'NOTE_OFF_31', 'TIME_SHIFT_10ms', 'TIME_SHIFT_10ms', 'NOTE_OFF_64', 'TIME_SHIFT_10ms', 'TIME_SHIFT_10ms', 'NOTE_ON_81', 'VELOCITY_21', 'NOTE_ON_69', 'VELOCITY_21', 'TIME_SHIFT_10ms', 'TIME_SHIFT_10ms', 'NOTE_OFF_64', 'NOTE_OFF_86', 'NOTE_OFF_74', 'TIME_SHIFT_10ms', 'TIME_SHIFT_10ms', 'NOTE_OFF_55', 'NOTE_ON_50', 'VELOCITY_20', 'NOTE_OFF_62', 'NOTE_ON_65', 'VELOCITY_20', 'NOTE_ON_62', 'VELOCITY_16', 'NOTE_ON_65', 'VELOCITY_17', 'NOTE_ON_50', 'VELOCITY_19', 'NOTE_ON_69', 'VELOCITY_24', 'NOTE_OFF_70', 'NOTE_OFF_67', 'NOTE_OFF_42', 'NOTE_ON_26', 'VELOCITY_21', 'NOTE_ON_57', 'VELOCITY_21', 'NOTE_OFF_58', 'NOTE_ON_62', 'VELOCITY_21', 'NOTE_ON_42', 'VELOCITY_27', 'NOTE_ON_70', 'VELOCITY_20', 'NOTE_ON_35', 'VELOCITY_25', 'TIME_SHIFT_110ms', 'TIME_SHIFT_10ms', 'TIME_SHIFT_110ms', 'TIME_SHIFT_10ms', 'TIME_SHIFT_30ms', 'TIME_SHIFT_10ms', 'NOTE_OFF_35', 'TIME_SHIFT_50ms', 'NOTE_ON_42', 'VELOCITY_13', 'NOTE_OFF_42', 'NOTE_ON_69', 'VELOCITY_22', 'NOTE_OFF_70', 'NOTE_ON_67', 'VELOCITY_24', 'NOTE_OFF_69', 'NOTE_ON_65', 'VELOCITY_19', 'NOTE_ON_70', 'VELOCITY_10', 'TIME_SHIFT_30ms', 'TIME_SHIFT_10ms', 'TIME_SHIFT_10ms', 'TIME_SHIFT_10ms', 'NOTE_OFF_65', 'TIME_SHIFT_10ms', 'TIME_SHIFT_10ms', 'NOTE_OFF_62', 'TIME_SHIFT_10ms', 'TIME_SHIFT_10ms', 'NOTE_OFF_26', 'TIME_SHIFT_30ms', 'TIME_SHIFT_10ms', 'TIME_SHIFT_50ms', 'NOTE_OFF_50', 'TIME_SHIFT_10ms', 'TIME_SHIFT_10ms', 'TIME_SHIFT_10ms', 'TIME_SHIFT_10ms', 'NOTE_OFF_69', 'TIME_SHIFT_30ms', 'TIME_SHIFT_10ms', 'NOTE_OFF_65', 'TIME_SHIFT_10ms', 'TIME_SHIFT_10ms', 'TIME_SHIFT_60ms', 'TIME_SHIFT_10ms', 'NOTE_ON_70', 'VELOCITY_9', 'NOTE_OFF_42', 'NOTE_ON_65', 'VELOCITY_17', 'NOTE_ON_26', 'VELOCITY_21', 'NOTE_ON_62', 'VELOCITY_22', 'NOTE_ON_65', 'VELOCITY_19', 'NOTE_ON_67', 'VELOCITY_20', 'NOTE_ON_64', 'VELOCITY_19', 'NOTE_ON_57', 'VELOCITY_16', 'NOTE_OFF_67', 'NOTE_ON_65', 'VELOCITY_24', 'NOTE_ON_57', 'VELOCITY_20', 'NOTE_OFF_70', 'NOTE_ON_42', 'VELOCITY_13', 'TIME_SHIFT_80ms', 'TIME_SHIFT_10ms', 'TIME_SHIFT_30ms', 'TIME_SHIFT_10ms', 'TIME_SHIFT_50ms', 'NOTE_OFF_64', 'TIME_SHIFT_50ms', 'TIME_SHIFT_50ms', 'TIME_SHIFT_10ms', 'TIME_SHIFT_10ms', 'NOTE_OFF_67', 'TIME_SHIFT_30ms', 'TIME_SHIFT_10ms', 'NOTE_OFF_42', 'NOTE_ON_69', 'VELOCITY_24', 'NOTE_ON_65', 'VELOCITY_18', 'NOTE_ON_69', 'VELOCITY_23', 'NOTE_OFF_65', 'NOTE_OFF_70', 'NOTE_ON_46', 'VELOCITY_19', 'NOTE_ON_70', 'VELOCITY_17', 'NOTE_ON_38', 'VELOCITY_21', 'TIME_SHIFT_10ms', 'TIME_SHIFT_10ms', 'NOTE_OFF_65', 'TIME_SHIFT_50ms', 'TIME_SHIFT_10ms', 'TIME_SHIFT_10ms', 'NOTE_OFF_62', 'NOTE_OFF_57', 'TIME_SHIFT_50ms', 'TIME_SHIFT_80ms', 'TIME_SHIFT_10ms', 'NOTE_OFF_38', 'TIME_SHIFT_100ms', 'NOTE_OFF_46', 'NOTE_ON_70', 'VELOCITY_10', 'NOTE_ON_57', 'VELOCITY_15', 'NOTE_ON_42', 'VELOCITY_18', 'NOTE_ON_62', 'VELOCITY_18', 'NOTE_OFF_70', 'NOTE_OFF_69', 'NOTE_ON_64', 'VELOCITY_17', 'NOTE_ON_65', 'VELOCITY_18', 'NOTE_OFF_26', 'TIME_SHIFT_30ms', 'TIME_SHIFT_10ms', 'NOTE_OFF_65', 'TIME_SHIFT_110ms', 'TIME_SHIFT_10ms', 'NOTE_OFF_70', 'NOTE_ON_70', 'VELOCITY_8', 'TIME_SHIFT_10ms', 'TIME_SHIFT_10ms', 'NOTE_OFF_62', 'TIME_SHIFT_100ms', 'TIME_SHIFT_30ms', 'TIME_SHIFT_10ms', 'NOTE_OFF_57', 'TIME_SHIFT_10ms', 'TIME_SHIFT_10ms', 'NOTE_ON_70', 'VELOCITY_13', 'NOTE_ON_69', 'VELOCITY_24', 'NOTE_OFF_70', 'NOTE_ON_62', 'VELOCITY_18', 'NOTE_ON_26', 'VELOCITY_21', 'NOTE_OFF_42', 'NOTE_ON_42', 'VELOCITY_17', 'NOTE_ON_35', 'VELOCITY_25', 'NOTE_ON_62', 'VELOCITY_13', 'TIME_SHIFT_10ms', 'TIME_SHIFT_10ms', 'NOTE_OFF_64', 'NOTE_OFF_50', 'TIME_SHIFT_30ms', 'TIME_SHIFT_10ms', 'TIME_SHIFT_10ms', 'TIME_SHIFT_10ms', 'NOTE_OFF_65', 'TIME_SHIFT_30ms', 'TIME_SHIFT_10ms', 'TIME_SHIFT_10ms', 'TIME_SHIFT_10ms', 'NOTE_OFF_69', 'TIME_SHIFT_10ms', 'TIME_SHIFT_10ms', 'NOTE_OFF_62', 'NOTE_OFF_35', 'TIME_SHIFT_10ms', 'TIME_SHIFT_10ms', 'NOTE_OFF_70', 'NOTE_ON_70', 'VELOCITY_21', 'TIME_SHIFT_30ms', 'TIME_SHIFT_10ms', 'NOTE_OFF_65', 'TIME_SHIFT_30ms', 'TIME_SHIFT_10ms', 'NOTE_OFF_69', 'TIME_SHIFT_30ms', 'TIME_SHIFT_10ms', 'NOTE_ON_79', 'VELOCITY_20', 'NOTE_ON_67', 'VELOCITY_20', 'NOTE_OFF_81', 'NOTE_OFF_69', 'NOTE_OFF_57', 'TIME_SHIFT_30ms', 'TIME_SHIFT_10ms', 'NOTE_OFF_26', 'TIME_SHIFT_30ms', 'TIME_SHIFT_10ms', 'NOTE_OFF_42', 'NOTE_OFF_70', 'NOTE_OFF_65', 'NOTE_ON_70', 'VELOCITY_15', 'NOTE_ON_31', 'VELOCITY_19', 'NOTE_ON_67', 'VELOCITY_20', 'NOTE_ON_55', 'VELOCITY_20', 'NOTE_ON_43', 'VELOCITY_17', 'NOTE_ON_58', 'VELOCITY_17', 'NOTE_ON_62', 'VELOCITY_20', 'NOTE_ON_67', 'VELOCITY_24', 'NOTE_ON_58', 'VELOCITY_17', 'NOTE_ON_35', 'VELOCITY_25', 'NOTE_OFF_57', 'NOTE_ON_43', 'VELOCITY_20', 'NOTE_ON_42', 'VELOCITY_25', 'NOTE_ON_62', 'VELOCITY_19', 'NOTE_OFF_62', 'TIME_SHIFT_10ms', 'TIME_SHIFT_10ms', 'NOTE_OFF_62', 'TIME_SHIFT_100ms', 'TIME_SHIFT_110ms', 'TIME_SHIFT_10ms', 'TIME_SHIFT_80ms', 'TIME_SHIFT_10ms', 'NOTE_OFF_67', 'NOTE_ON_67', 'VELOCITY_24', 'NOTE_OFF_70', 'NOTE_OFF_67', 'NOTE_ON_42', 'VELOCITY_5', 'NOTE_ON_70', 'VELOCITY_11', 'NOTE_OFF_62', 'NOTE_OFF_42', 'TIME_SHIFT_30ms', 'TIME_SHIFT_10ms', 'NOTE_OFF_35', 'TIME_SHIFT_50ms', 'NOTE_OFF_58', 'TIME_SHIFT_60ms', 'TIME_SHIFT_10ms', 'TIME_SHIFT_50ms', 'NOTE_OFF_31', 'TIME_SHIFT_60ms', 'TIME_SHIFT_10ms', 'TIME_SHIFT_30ms', 'TIME_SHIFT_10ms', 'NOTE_ON_58', 'VELOCITY_18', 'NOTE_ON_42', 'VELOCITY_11', 'NOTE_OFF_67', 'NOTE_ON_35', 'VELOCITY_25', 'NOTE_OFF_42', 'NOTE_ON_58', 'VELOCITY_17', 'NOTE_ON_67', 'VELOCITY_19', 'NOTE_ON_70', 'VELOCITY_10', 'NOTE_ON_67', 'VELOCITY_24', 'NOTE_ON_62', 'VELOCITY_20', 'NOTE_ON_67', 'VELOCITY_22', 'NOTE_ON_62', 'VELOCITY_20', 'NOTE_OFF_70', 'TIME_SHIFT_80ms', 'TIME_SHIFT_10ms', 'TIME_SHIFT_60ms', 'TIME_SHIFT_10ms', 'TIME_SHIFT_10ms', 'TIME_SHIFT_10ms', 'NOTE_OFF_35', 'TIME_SHIFT_60ms', 'TIME_SHIFT_10ms', 'TIME_SHIFT_60ms', 'TIME_SHIFT_10ms', 'TIME_SHIFT_10ms', 'TIME_SHIFT_10ms', 'NOTE_OFF_67', 'NOTE_ON_38', 'VELOCITY_22', 'NOTE_OFF_42', 'NOTE_OFF_70', 'NOTE_ON_67', 'VELOCITY_24', 'NOTE_ON_31', 'VELOCITY_22', 'NOTE_ON_70', 'VELOCITY_18', 'NOTE_ON_42', 'VELOCITY_25', 'TIME_SHIFT_60ms', 'TIME_SHIFT_10ms', 'NOTE_OFF_79', 'NOTE_OFF_67', 'TIME_SHIFT_10ms', 'TIME_SHIFT_10ms', 'NOTE_ON_76', 'VELOCITY_22', 'NOTE_ON_64', 'VELOCITY_22', 'TIME_SHIFT_50ms', 'TIME_SHIFT_30ms', 'TIME_SHIFT_10ms', 'NOTE_OFF_38', 'TIME_SHIFT_80ms', 'TIME_SHIFT_10ms', 'NOTE_OFF_43', 'TIME_SHIFT_10ms', 'TIME_SHIFT_10ms', 'NOTE_OFF_58', 'NOTE_OFF_62', 'TIME_SHIFT_30ms', 'TIME_SHIFT_10ms', 'NOTE_OFF_62', 'NOTE_OFF_67', 'TIME_SHIFT_10ms', 'TIME_SHIFT_10ms', 'NOTE_ON_65', 'VELOCITY_24', 'NOTE_ON_70', 'VELOCITY_8', 'NOTE_OFF_70', 'NOTE_OFF_42', 'NOTE_OFF_31', 'NOTE_OFF_67', 'NOTE_ON_65', 'VELOCITY_18', 'NOTE_ON_42', 'VELOCITY_15', 'TIME_SHIFT_50ms', 'TIME_SHIFT_10ms', 'TIME_SHIFT_10ms', 'NOTE_ON_74', 'VELOCITY_19', 'NOTE_ON_62', 'VELOCITY_19', 'NOTE_OFF_58', 'TIME_SHIFT_50ms', 'NOTE_OFF_67', 'NOTE_OFF_76', 'NOTE_OFF_64', 'TIME_SHIFT_50ms', 'NOTE_ON_70', 'VELOCITY_10', 'NOTE_OFF_70', 'TIME_SHIFT_10ms', 'TIME_SHIFT_10ms', 'NOTE_OFF_43', 'TIME_SHIFT_80ms', 'TIME_SHIFT_10ms', 'TIME_SHIFT_50ms', 'NOTE_ON_42', 'VELOCITY_13', 'NOTE_OFF_65', 'NOTE_ON_70', 'VELOCITY_14', 'NOTE_OFF_70', 'NOTE_ON_35', 'VELOCITY_25', 'NOTE_ON_31', 'VELOCITY_21', 'NOTE_ON_67', 'VELOCITY_24', 'NOTE_OFF_42', 'TIME_SHIFT_10ms', 'TIME_SHIFT_10ms', 'TIME_SHIFT_60ms', 'TIME_SHIFT_10ms', 'TIME_SHIFT_30ms', 'TIME_SHIFT_10ms', 'NOTE_OFF_35', 'NOTE_OFF_65', 'TIME_SHIFT_30ms', 'TIME_SHIFT_10ms', 'TIME_SHIFT_10ms', 'TIME_SHIFT_10ms', 'NOTE_OFF_70', 'NOTE_ON_70', 'VELOCITY_17', 'NOTE_OFF_31', 'TIME_SHIFT_60ms', 'TIME_SHIFT_10ms', 'TIME_SHIFT_10ms', 'TIME_SHIFT_10ms', 'NOTE_ON_81', 'VELOCITY_21', 'NOTE_ON_69', 'VELOCITY_21', 'TIME_SHIFT_30ms', 'TIME_SHIFT_10ms', 'NOTE_OFF_74', 'NOTE_OFF_62', 'TIME_SHIFT_10ms', 'TIME_SHIFT_10ms', 'TIME_SHIFT_10ms', 'TIME_SHIFT_10ms', 'NOTE_OFF_62', 'NOTE_OFF_58', 'NOTE_OFF_55', 'NOTE_ON_35', 'VELOCITY_25', 'NOTE_ON_70', 'VELOCITY_20', 'NOTE_ON_45', 'VELOCITY_21', 'NOTE_ON_42', 'VELOCITY_27', 'NOTE_ON_57', 'VELOCITY_17', 'NOTE_ON_61', 'VELOCITY_15', 'NOTE_ON_64', 'VELOCITY_19', 'NOTE_ON_45', 'VELOCITY_23', 'NOTE_OFF_67', 'NOTE_ON_33', 'VELOCITY_22', 'NOTE_ON_69', 'VELOCITY_24', 'NOTE_OFF_70', 'NOTE_OFF_42', 'TIME_SHIFT_110ms', 'TIME_SHIFT_10ms', 'TIME_SHIFT_110ms', 'TIME_SHIFT_10ms', 'TIME_SHIFT_30ms', 'TIME_SHIFT_10ms', 'NOTE_OFF_35', 'TIME_SHIFT_50ms', 'NOTE_ON_64', 'VELOCITY_25', 'NOTE_ON_67', 'VELOCITY_24', 'NOTE_ON_70', 'VELOCITY_10', 'NOTE_ON_42', 'VELOCITY_13', 'NOTE_ON_52', 'VELOCITY_18', 'NOTE_ON_62', 'VELOCITY_23', 'NOTE_ON_60', 'VELOCITY_22', 'NOTE_ON_57', 'VELOCITY_20', 'NOTE_OFF_70', 'NOTE_OFF_42', 'NOTE_OFF_69', 'TIME_SHIFT_50ms', 'TIME_SHIFT_50ms', 'NOTE_OFF_33', 'TIME_SHIFT_100ms', 'TIME_SHIFT_110ms', 'TIME_SHIFT_10ms', 'NOTE_ON_62', 'VELOCITY_19', 'NOTE_OFF_64', 'NOTE_ON_42', 'VELOCITY_13', 'NOTE_OFF_60', 'NOTE_ON_67', 'VELOCITY_22', 'NOTE_OFF_42', 'NOTE_ON_57', 'VELOCITY_9', 'NOTE_ON_64', 'VELOCITY_10', 'NOTE_ON_70', 'VELOCITY_9', 'NOTE_OFF_70', 'NOTE_ON_62', 'VELOCITY_20', 'NOTE_ON_57', 'VELOCITY_29', 'NOTE_ON_69', 'VELOCITY_24', 'NOTE_ON_33', 'VELOCITY_23', 'NOTE_OFF_67', 'TIME_SHIFT_50ms', 'NOTE_OFF_64', 'TIME_SHIFT_30ms', 'TIME_SHIFT_10ms', 'TIME_SHIFT_10ms', 'TIME_SHIFT_10ms', 'NOTE_OFF_57', 'TIME_SHIFT_30ms', 'TIME_SHIFT_10ms', 'NOTE_OFF_62', 'NOTE_OFF_67', 'TIME_SHIFT_10ms', 'TIME_SHIFT_10ms', 'NOTE_OFF_57', 'TIME_SHIFT_60ms', 'TIME_SHIFT_10ms', 'TIME_SHIFT_60ms', 'TIME_SHIFT_10ms', 'NOTE_OFF_62', 'TIME_SHIFT_10ms', 'TIME_SHIFT_10ms', 'TIME_SHIFT_10ms', 'TIME_SHIFT_10ms', 'NOTE_ON_69', 'VELOCITY_23', 'NOTE_ON_64', 'VELOCITY_17', 'NOTE_ON_62', 'VELOCITY_20', 'NOTE_ON_38', 'VELOCITY_21', 'NOTE_ON_64', 'VELOCITY_19', 'NOTE_OFF_69', 'NOTE_ON_70', 'VELOCITY_17', 'NOTE_ON_46', 'VELOCITY_19', 'NOTE_OFF_70', 'NOTE_OFF_57', 'NOTE_ON_69', 'VELOCITY_24', 'NOTE_OFF_42', 'NOTE_ON_64', 'VELOCITY_22', 'NOTE_OFF_62', 'TIME_SHIFT_30ms', 'TIME_SHIFT_10ms', 'NOTE_OFF_33', 'TIME_SHIFT_30ms', 'TIME_SHIFT_10ms', 'NOTE_OFF_64', 'TIME_SHIFT_100ms', 'TIME_SHIFT_50ms', 'NOTE_OFF_38', 'TIME_SHIFT_100ms', 'NOTE_OFF_69', 'NOTE_ON_69', 'VELOCITY_19', 'NOTE_OFF_70', 'NOTE_ON_70', 'VELOCITY_10', 'NOTE_ON_59', 'VELOCITY_30', 'NOTE_ON_42', 'VELOCITY_18', 'NOTE_ON_31', 'VELOCITY_20', 'NOTE_ON_67', 'VELOCITY_18', 'NOTE_OFF_46', 'TIME_SHIFT_10ms', 'TIME_SHIFT_10ms', 'NOTE_OFF_64', 'TIME_SHIFT_60ms', 'TIME_SHIFT_10ms', 'NOTE_OFF_69', 'TIME_SHIFT_30ms', 'TIME_SHIFT_10ms', 'NOTE_OFF_67', 'NOTE_OFF_45', 'TIME_SHIFT_30ms', 'TIME_SHIFT_10ms', 'NOTE_ON_57', 'VELOCITY_20', 'NOTE_OFF_59', 'NOTE_OFF_70', 'NOTE_ON_70', 'VELOCITY_8', 'NOTE_OFF_52', 'TIME_SHIFT_150ms', 'NOTE_OFF_45', 'TIME_SHIFT_10ms', 'TIME_SHIFT_10ms', 'NOTE_OFF_57', 'NOTE_OFF_42', 'NOTE_ON_69', 'VELOCITY_19', 'NOTE_OFF_70', 'NOTE_ON_33', 'VELOCITY_22', 'NOTE_ON_42', 'VELOCITY_17', 'NOTE_ON_35', 'VELOCITY_25', 'NOTE_OFF_31', 'NOTE_ON_70', 'VELOCITY_13', 'NOTE_ON_55', 'VELOCITY_28', 'TIME_SHIFT_60ms', 'TIME_SHIFT_10ms', 'NOTE_OFF_69', 'TIME_SHIFT_50ms', 'TIME_SHIFT_10ms', 'TIME_SHIFT_10ms', 'NOTE_OFF_62', 'NOTE_OFF_35', 'TIME_SHIFT_10ms', 'TIME_SHIFT_10ms', 'NOTE_OFF_55', 'NOTE_ON_70', 'VELOCITY_21', 'NOTE_ON_53', 'VELOCITY_31', 'NOTE_OFF_70', 'TIME_SHIFT_10ms', 'TIME_SHIFT_10ms', 'NOTE_OFF_81', 'NOTE_OFF_69', 'TIME_SHIFT_10ms', 'TIME_SHIFT_10ms', 'NOTE_OFF_69', 'TIME_SHIFT_10ms', 'TIME_SHIFT_10ms', 'NOTE_OFF_64', 'TIME_SHIFT_50ms', 'NOTE_OFF_33', 'TIME_SHIFT_60ms', 'TIME_SHIFT_10ms', 'NOTE_OFF_57', 'NOTE_OFF_53', 'NOTE_ON_77', 'VELOCITY_24', 'NOTE_ON_42', 'VELOCITY_25', 'NOTE_OFF_70', 'NOTE_ON_58', 'VELOCITY_16', 'NOTE_ON_46', 'VELOCITY_17', 'NOTE_OFF_42', 'NOTE_OFF_61', 'NOTE_ON_65', 'VELOCITY_16', 'NOTE_OFF_64', 'NOTE_ON_34', 'VELOCITY_23', 'NOTE_ON_62', 'VELOCITY_21', 'NOTE_ON_35', 'VELOCITY_25', 'NOTE_ON_70', 'VELOCITY_15', 'NOTE_ON_81', 'VELOCITY_25', 'NOTE_ON_57', 'VELOCITY_20', 'NOTE_ON_69', 'VELOCITY_25', 'NOTE_ON_65', 'VELOCITY_21', 'NOTE_ON_62', 'VELOCITY_22', 'NOTE_ON_46', 'VELOCITY_19', 'NOTE_ON_60', 'VELOCITY_18', 'TIME_SHIFT_110ms', 'TIME_SHIFT_10ms', 'TIME_SHIFT_110ms', 'TIME_SHIFT_10ms', 'TIME_SHIFT_80ms', 'TIME_SHIFT_10ms', 'NOTE_ON_77', 'VELOCITY_24', 'NOTE_OFF_70', 'NOTE_ON_42', 'VELOCITY_5', 'NOTE_OFF_42', 'NOTE_OFF_77', 'NOTE_ON_70', 'VELOCITY_11', 'TIME_SHIFT_30ms', 'TIME_SHIFT_10ms', 'TIME_SHIFT_10ms', 'TIME_SHIFT_10ms', 'NOTE_OFF_35', 'TIME_SHIFT_80ms', 'TIME_SHIFT_10ms', 'NOTE_OFF_65', 'NOTE_OFF_62', 'TIME_SHIFT_10ms', 'TIME_SHIFT_10ms', 'NOTE_OFF_34', 'NOTE_OFF_60', 'TIME_SHIFT_80ms', 'TIME_SHIFT_10ms', 'NOTE_OFF_46', 'TIME_SHIFT_30ms', 'TIME_SHIFT_10ms', 'TIME_SHIFT_50ms', 'NOTE_ON_42', 'VELOCITY_11', 'NOTE_OFF_42', 'NOTE_ON_62', 'VELOCITY_19', 'NOTE_ON_70', 'VELOCITY_10', 'NOTE_ON_35', 'VELOCITY_25', 'NOTE_ON_58', 'VELOCITY_16', 'NOTE_OFF_77', 'NOTE_ON_65', 'VELOCITY_19', 'NOTE_OFF_70', 'NOTE_ON_74', 'VELOCITY_16', 'NOTE_ON_77', 'VELOCITY_24', 'NOTE_ON_77', 'VELOCITY_18', 'NOTE_ON_34', 'VELOCITY_20', 'NOTE_ON_70', 'VELOCITY_20', 'NOTE_ON_65', 'VELOCITY_19', 'NOTE_ON_60', 'VELOCITY_17', 'NOTE_ON_62', 'VELOCITY_21', 'TIME_SHIFT_50ms', 'NOTE_OFF_46', 'TIME_SHIFT_10ms', 'TIME_SHIFT_10ms', 'NOTE_OFF_74', 'TIME_SHIFT_10ms', 'TIME_SHIFT_10ms', 'NOTE_OFF_70', 'TIME_SHIFT_10ms', 'TIME_SHIFT_10ms', 'NOTE_OFF_77', 'TIME_SHIFT_50ms', 'NOTE_OFF_35', 'TIME_SHIFT_50ms', 'TIME_SHIFT_10ms', 'TIME_SHIFT_10ms', 'NOTE_OFF_62', 'NOTE_OFF_65', 'TIME_SHIFT_30ms', 'TIME_SHIFT_10ms', 'NOTE_OFF_60', 'TIME_SHIFT_60ms', 'TIME_SHIFT_10ms', 'NOTE_ON_42', 'VELOCITY_25', 'NOTE_ON_70', 'VELOCITY_18', 'NOTE_OFF_77', 'NOTE_OFF_70', 'NOTE_ON_77', 'VELOCITY_24', 'NOTE_OFF_42', 'NOTE_OFF_57', 'NOTE_ON_38', 'VELOCITY_22', 'TIME_SHIFT_110ms', 'TIME_SHIFT_10ms', 'TIME_SHIFT_30ms', 'TIME_SHIFT_10ms', 'NOTE_OFF_38', 'TIME_SHIFT_30ms', 'TIME_SHIFT_10ms', 'NOTE_OFF_34', 'TIME_SHIFT_50ms', 'TIME_SHIFT_80ms', 'TIME_SHIFT_10ms', 'NOTE_OFF_77', 'NOTE_ON_42', 'VELOCITY_15', 'NOTE_ON_74', 'VELOCITY_24', 'NOTE_ON_60', 'VELOCITY_15', 'NOTE_ON_74', 'VELOCITY_23', 'NOTE_ON_77', 'VELOCITY_22', 'NOTE_OFF_42', 'NOTE_ON_70', 'VELOCITY_25', 'NOTE_OFF_70', 'NOTE_ON_62', 'VELOCITY_17', 'NOTE_ON_70', 'VELOCITY_8', 'NOTE_ON_67', 'VELOCITY_17', 'NOTE_ON_65', 'VELOCITY_20', 'TIME_SHIFT_30ms', 'TIME_SHIFT_10ms', 'TIME_SHIFT_30ms', 'TIME_SHIFT_10ms', 'NOTE_OFF_65', 'TIME_SHIFT_10ms', 'TIME_SHIFT_10ms', 'NOTE_OFF_58', 'TIME_SHIFT_10ms', 'TIME_SHIFT_10ms', 'TIME_SHIFT_50ms', 'NOTE_OFF_70', 'NOTE_ON_70', 'VELOCITY_10', 'TIME_SHIFT_30ms', 'TIME_SHIFT_10ms', 'TIME_SHIFT_10ms', 'TIME_SHIFT_10ms', 'NOTE_OFF_62', 'TIME_SHIFT_50ms', 'NOTE_OFF_67', 'TIME_SHIFT_10ms', 'TIME_SHIFT_10ms', 'NOTE_OFF_65', 'TIME_SHIFT_50ms', 'NOTE_OFF_74', 'NOTE_ON_34', 'VELOCITY_22', 'NOTE_ON_35', 'VELOCITY_25', 'NOTE_OFF_42', 'NOTE_OFF_70', 'NOTE_ON_70', 'VELOCITY_14', 'NOTE_ON_74', 'VELOCITY_24', 'NOTE_ON_67', 'VELOCITY_17', 'NOTE_ON_65', 'VELOCITY_15', 'NOTE_ON_42', 'VELOCITY_13', 'TIME_SHIFT_60ms', 'TIME_SHIFT_10ms', 'TIME_SHIFT_50ms', 'NOTE_OFF_35', 'TIME_SHIFT_30ms', 'TIME_SHIFT_10ms', 'NOTE_OFF_70', 'NOTE_ON_70', 'VELOCITY_17', 'TIME_SHIFT_30ms', 'TIME_SHIFT_10ms', 'TIME_SHIFT_30ms', 'TIME_SHIFT_10ms', 'NOTE_OFF_67', 'NOTE_OFF_60', 'TIME_SHIFT_10ms', 'TIME_SHIFT_10ms', 'NOTE_OFF_62', 'TIME_SHIFT_10ms', 'TIME_SHIFT_10ms', 'NOTE_ON_79', 'VELOCITY_22', 'NOTE_OFF_81', 'NOTE_OFF_69', 'NOTE_ON_67', 'VELOCITY_22', 'TIME_SHIFT_10ms', 'TIME_SHIFT_10ms', 'NOTE_OFF_74', 'TIME_SHIFT_30ms', 'TIME_SHIFT_10ms', 'NOTE_OFF_42', 'NOTE_ON_64', 'VELOCITY_20', 'NOTE_OFF_70', 'NOTE_ON_76', 'VELOCITY_24', 'NOTE_ON_55', 'VELOCITY_17', 'NOTE_OFF_34', 'NOTE_ON_60', 'VELOCITY_21', 'NOTE_ON_60', 'VELOCITY_15', 'NOTE_ON_35', 'VELOCITY_25', 'NOTE_OFF_74', 'NOTE_ON_36', 'VELOCITY_21', 'NOTE_ON_48', 'VELOCITY_13', 'NOTE_ON_42', 'VELOCITY_27', 'NOTE_ON_55', 'VELOCITY_17', 'NOTE_OFF_62', 'NOTE_ON_70', 'VELOCITY_20', 'NOTE_ON_64', 'VELOCITY_20', 'NOTE_OFF_65', 'NOTE_OFF_70', 'NOTE_OFF_58', 'TIME_SHIFT_50ms', 'NOTE_OFF_65', 'TIME_SHIFT_30ms', 'TIME_SHIFT_10ms', 'NOTE_OFF_77', 'TIME_SHIFT_60ms', 'TIME_SHIFT_10ms', 'TIME_SHIFT_60ms', 'TIME_SHIFT_10ms', 'TIME_SHIFT_60ms', 'TIME_SHIFT_10ms', 'NOTE_OFF_35', 'TIME_SHIFT_10ms', 'TIME_SHIFT_10ms', 'TIME_SHIFT_10ms', 'TIME_SHIFT_10ms', 'NOTE_ON_70', 'VELOCITY_10', 'NOTE_ON_76', 'VELOCITY_23', 'NOTE_ON_42', 'VELOCITY_13', 'NOTE_ON_76', 'VELOCITY_24', 'NOTE_OFF_70', 'NOTE_OFF_42', 'NOTE_OFF_76', 'NOTE_ON_72', 'VELOCITY_18', 'TIME_SHIFT_50ms', 'TIME_SHIFT_60ms', 'TIME_SHIFT_10ms', 'NOTE_OFF_76', 'NOTE_OFF_72', 'TIME_SHIFT_10ms', 'TIME_SHIFT_10ms', 'NOTE_OFF_36', 'NOTE_OFF_64', 'TIME_SHIFT_30ms', 'TIME_SHIFT_10ms', 'TIME_SHIFT_10ms', 'TIME_SHIFT_10ms', 'NOTE_OFF_60', 'TIME_SHIFT_80ms', 'TIME_SHIFT_10ms', 'NOTE_OFF_55', 'TIME_SHIFT_10ms', 'TIME_SHIFT_10ms', 'TIME_SHIFT_30ms', 'TIME_SHIFT_10ms', 'NOTE_ON_60', 'VELOCITY_17', 'NOTE_ON_42', 'VELOCITY_13', 'NOTE_ON_70', 'VELOCITY_9', 'NOTE_ON_64', 'VELOCITY_18', 'NOTE_ON_36', 'VELOCITY_21', 'NOTE_OFF_76', 'NOTE_OFF_42', 'NOTE_ON_60', 'VELOCITY_16', 'NOTE_ON_77', 'VELOCITY_19', 'NOTE_ON_64', 'VELOCITY_21', 'NOTE_ON_76', 'VELOCITY_24', 'NOTE_OFF_70', 'NOTE_ON_74', 'VELOCITY_17', 'TIME_SHIFT_80ms', 'TIME_SHIFT_10ms', 'TIME_SHIFT_10ms', 'TIME_SHIFT_10ms', 'NOTE_OFF_74', 'TIME_SHIFT_10ms', 'TIME_SHIFT_10ms', 'NOTE_OFF_77', 'TIME_SHIFT_10ms', 'TIME_SHIFT_10ms', 'TIME_SHIFT_50ms', 'TIME_SHIFT_50ms', 'TIME_SHIFT_30ms', 'TIME_SHIFT_10ms', 'TIME_SHIFT_10ms', 'TIME_SHIFT_10ms', 'NOTE_OFF_60', 'TIME_SHIFT_30ms', 'TIME_SHIFT_10ms', 'NOTE_ON_46', 'VELOCITY_19', 'NOTE_ON_70', 'VELOCITY_17', 'NOTE_ON_38', 'VELOCITY_21', 'NOTE_ON_79', 'VELOCITY_23', 'NOTE_OFF_76', 'NOTE_ON_72', 'VELOCITY_24', 'NOTE_ON_76', 'VELOCITY_22', 'NOTE_OFF_42', 'NOTE_OFF_70', 'TIME_SHIFT_60ms', 'TIME_SHIFT_10ms', 'NOTE_OFF_64', 'TIME_SHIFT_50ms', 'NOTE_OFF_36', 'TIME_SHIFT_110ms', 'TIME_SHIFT_10ms', 'NOTE_OFF_38', 'TIME_SHIFT_10ms', 'TIME_SHIFT_10ms', 'TIME_SHIFT_60ms', 'TIME_SHIFT_10ms', 'NOTE_ON_62', 'VELOCITY_19', 'NOTE_ON_70', 'VELOCITY_10', 'NOTE_OFF_46', 'NOTE_ON_42', 'VELOCITY_18', 'NOTE_OFF_70', 'NOTE_ON_67', 'VELOCITY_21', 'NOTE_ON_65', 'VELOCITY_20', 'NOTE_OFF_72', 'TIME_SHIFT_110ms', 'TIME_SHIFT_10ms', 'NOTE_OFF_64', 'TIME_SHIFT_50ms', 'NOTE_ON_70', 'VELOCITY_8', 'NOTE_OFF_70', 'TIME_SHIFT_10ms', 'TIME_SHIFT_10ms', 'NOTE_OFF_48', 'TIME_SHIFT_100ms', 'TIME_SHIFT_30ms', 'TIME_SHIFT_10ms', 'NOTE_ON_64', 'VELOCITY_14', 'NOTE_ON_64', 'VELOCITY_17', 'NOTE_ON_67', 'VELOCITY_24', 'NOTE_ON_42', 'VELOCITY_17', 'NOTE_OFF_42', 'NOTE_ON_70', 'VELOCITY_13', 'NOTE_ON_35', 'VELOCITY_25', 'NOTE_ON_36', 'VELOCITY_21', 'NOTE_OFF_70', 'TIME_SHIFT_10ms', 'TIME_SHIFT_10ms', 'TIME_SHIFT_30ms', 'TIME_SHIFT_10ms', 'NOTE_OFF_60', 'TIME_SHIFT_10ms', 'TIME_SHIFT_10ms', 'NOTE_OFF_62', 'TIME_SHIFT_30ms', 'TIME_SHIFT_10ms', 'TIME_SHIFT_10ms', 'TIME_SHIFT_10ms', 'NOTE_OFF_65', 'TIME_SHIFT_10ms', 'TIME_SHIFT_10ms', 'NOTE_OFF_67', 'TIME_SHIFT_10ms', 'TIME_SHIFT_10ms', 'NOTE_OFF_35', 'TIME_SHIFT_10ms', 'TIME_SHIFT_10ms', 'NOTE_ON_70', 'VELOCITY_21', 'NOTE_OFF_36', 'NOTE_OFF_70', 'TIME_SHIFT_80ms', 'TIME_SHIFT_10ms', 'NOTE_OFF_79', 'TIME_SHIFT_30ms', 'TIME_SHIFT_10ms', 'NOTE_OFF_64', 'TIME_SHIFT_10ms', 'TIME_SHIFT_10ms', 'NOTE_OFF_76', 'NOTE_ON_64', 'VELOCITY_22', 'NOTE_OFF_67', 'NOTE_ON_76', 'VELOCITY_22', 'NOTE_OFF_79', 'TIME_SHIFT_10ms', 'TIME_SHIFT_10ms', 'NOTE_OFF_70', 'NOTE_ON_45', 'VELOCITY_22', 'NOTE_ON_60', 'VELOCITY_19', 'NOTE_ON_64', 'VELOCITY_10', 'NOTE_ON_55', 'VELOCITY_18', 'NOTE_ON_64', 'VELOCITY_18', 'NOTE_ON_45', 'VELOCITY_17', 'NOTE_ON_70', 'VELOCITY_15', 'NOTE_ON_60', 'VELOCITY_17', 'NOTE_ON_76', 'VELOCITY_24', 'NOTE_OFF_60', 'NOTE_OFF_67', 'NOTE_ON_35', 'VELOCITY_25', 'NOTE_ON_33', 'VELOCITY_22', 'NOTE_OFF_42', 'NOTE_ON_42', 'VELOCITY_25', 'NOTE_OFF_64', 'NOTE_OFF_55', 'TIME_SHIFT_30ms', 'TIME_SHIFT_10ms', 'TIME_SHIFT_60ms', 'TIME_SHIFT_10ms', 'NOTE_OFF_64', 'TIME_SHIFT_10ms', 'TIME_SHIFT_10ms', 'TIME_SHIFT_110ms', 'TIME_SHIFT_10ms', 'TIME_SHIFT_80ms', 'TIME_SHIFT_10ms', 'NOTE_ON_69', 'VELOCITY_11', 'NOTE_OFF_70', 'NOTE_ON_76', 'VELOCITY_24', 'NOTE_ON_72', 'VELOCITY_22', 'NOTE_ON_67', 'VELOCITY_15', 'NOTE_OFF_76', 'NOTE_OFF_42', 'NOTE_ON_42', 'VELOCITY_5', 'NOTE_ON_70', 'VELOCITY_11', 'TIME_SHIFT_30ms', 'TIME_SHIFT_10ms', 'NOTE_OFF_69', 'TIME_SHIFT_10ms', 'TIME_SHIFT_10ms', 'NOTE_OFF_35', 'TIME_SHIFT_10ms', 'TIME_SHIFT_10ms', 'NOTE_OFF_67', 'TIME_SHIFT_30ms', 'TIME_SHIFT_10ms', 'NOTE_OFF_72', 'TIME_SHIFT_50ms', 'NOTE_OFF_64', 'TIME_SHIFT_10ms', 'TIME_SHIFT_10ms', 'NOTE_OFF_60', 'NOTE_OFF_33', 'TIME_SHIFT_30ms', 'TIME_SHIFT_10ms', 'TIME_SHIFT_110ms', 'TIME_SHIFT_10ms', 'NOTE_ON_60', 'VELOCITY_17', 'NOTE_ON_60', 'VELOCITY_15', 'NOTE_ON_64', 'VELOCITY_21', 'NOTE_ON_33', 'VELOCITY_22', 'NOTE_ON_64', 'VELOCITY_21', 'NOTE_ON_76', 'VELOCITY_24', 'NOTE_OFF_70', 'NOTE_OFF_42', 'NOTE_ON_35', 'VELOCITY_25', 'NOTE_ON_42', 'VELOCITY_11', 'NOTE_OFF_76', 'NOTE_ON_70', 'VELOCITY_10', 'TIME_SHIFT_50ms', 'TIME_SHIFT_30ms', 'TIME_SHIFT_10ms', 'TIME_SHIFT_60ms', 'TIME_SHIFT_10ms', 'NOTE_OFF_35', 'TIME_SHIFT_60ms', 'TIME_SHIFT_10ms', 'TIME_SHIFT_80ms', 'TIME_SHIFT_10ms', 'NOTE_OFF_64', 'TIME_SHIFT_10ms', 'TIME_SHIFT_10ms', 'NOTE_ON_42', 'VELOCITY_25', 'NOTE_ON_38', 'VELOCITY_22', 'NOTE_ON_70', 'VELOCITY_18', 'NOTE_OFF_70', 'NOTE_OFF_42', 'NOTE_ON_76', 'VELOCITY_24', 'NOTE_OFF_60', 'NOTE_OFF_64', 'NOTE_OFF_76', 'NOTE_OFF_76', 'TIME_SHIFT_10ms', 'TIME_SHIFT_10ms', 'NOTE_ON_60', 'VELOCITY_22', 'NOTE_ON_72', 'VELOCITY_22', 'TIME_SHIFT_100ms', 'TIME_SHIFT_10ms', 'TIME_SHIFT_10ms', 'NOTE_OFF_45', 'TIME_SHIFT_10ms', 'TIME_SHIFT_10ms', 'NOTE_OFF_38', 'TIME_SHIFT_80ms', 'TIME_SHIFT_10ms', 'TIME_SHIFT_10ms', 'TIME_SHIFT_10ms', 'NOTE_OFF_60', 'NOTE_OFF_45', 'TIME_SHIFT_50ms', 'NOTE_OFF_64', 'TIME_SHIFT_10ms', 'TIME_SHIFT_10ms', 'NOTE_OFF_70', 'NOTE_ON_67', 'VELOCITY_17', 'NOTE_ON_76', 'VELOCITY_22', 'NOTE_ON_42', 'VELOCITY_15', 'NOTE_ON_67', 'VELOCITY_20', 'NOTE_ON_77', 'VELOCITY_24', 'NOTE_OFF_42', 'NOTE_ON_72', 'VELOCITY_21', 'NOTE_ON_64', 'VELOCITY_19', 'NOTE_OFF_76', 'NOTE_ON_60', 'VELOCITY_16', 'NOTE_ON_70', 'VELOCITY_8', 'NOTE_ON_65', 'VELOCITY_14', 'NOTE_OFF_33', 'TIME_SHIFT_30ms', 'TIME_SHIFT_10ms', 'TIME_SHIFT_110ms', 'TIME_SHIFT_10ms', 'NOTE_ON_70', 'VELOCITY_10', 'NOTE_OFF_70', 'NOTE_OFF_72', 'TIME_SHIFT_30ms', 'TIME_SHIFT_10ms', 'NOTE_OFF_67', 'TIME_SHIFT_10ms', 'TIME_SHIFT_10ms', 'TIME_SHIFT_100ms', 'NOTE_OFF_65', 'TIME_SHIFT_10ms', 'TIME_SHIFT_10ms', 'NOTE_ON_42', 'VELOCITY_13', 'NOTE_ON_35', 'VELOCITY_25', 'NOTE_ON_33', 'VELOCITY_22', 'NOTE_OFF_70', 'NOTE_ON_79', 'VELOCITY_24', 'NOTE_OFF_42', 'NOTE_ON_70', 'VELOCITY_14', 'NOTE_OFF_76', 'NOTE_ON_72', 'VELOCITY_18', 'NOTE_OFF_77', 'NOTE_ON_64', 'VELOCITY_12', 'TIME_SHIFT_10ms', 'TIME_SHIFT_10ms', 'NOTE_OFF_64', 'TIME_SHIFT_30ms', 'TIME_SHIFT_10ms', 'NOTE_OFF_60', 'TIME_SHIFT_30ms', 'TIME_SHIFT_10ms', 'TIME_SHIFT_10ms', 'TIME_SHIFT_10ms', 'NOTE_OFF_64', 'NOTE_OFF_72', 'TIME_SHIFT_10ms', 'TIME_SHIFT_10ms', 'NOTE_OFF_35', 'TIME_SHIFT_10ms', 'TIME_SHIFT_10ms', 'NOTE_OFF_67', 'TIME_SHIFT_10ms', 'TIME_SHIFT_10ms', 'NOTE_OFF_70', 'NOTE_ON_70', 'VELOCITY_17', 'TIME_SHIFT_10ms', 'TIME_SHIFT_10ms', 'NOTE_OFF_33', 'TIME_SHIFT_50ms', 'TIME_SHIFT_10ms', 'TIME_SHIFT_10ms', 'NOTE_OFF_72', 'NOTE_OFF_60', 'TIME_SHIFT_10ms', 'TIME_SHIFT_10ms', 'TIME_SHIFT_10ms', 'TIME_SHIFT_10ms', 'NOTE_ON_62', 'VELOCITY_20', 'NOTE_ON_74', 'VELOCITY_20', 'TIME_SHIFT_10ms', 'TIME_SHIFT_10ms', 'TIME_SHIFT_30ms', 'TIME_SHIFT_10ms', 'NOTE_ON_35', 'VELOCITY_25', 'NOTE_ON_34', 'VELOCITY_22', 'NOTE_ON_62', 'VELOCITY_22', 'NOTE_ON_70', 'VELOCITY_20', 'NOTE_OFF_70', 'NOTE_ON_46', 'VELOCITY_15', 'NOTE_ON_77', 'VELOCITY_24', 'NOTE_ON_58', 'VELOCITY_19', 'NOTE_ON_53', 'VELOCITY_20', 'NOTE_ON_46', 'VELOCITY_17', 'NOTE_OFF_60', 'NOTE_ON_65', 'VELOCITY_20', 'NOTE_ON_62', 'VELOCITY_18', 'NOTE_ON_62', 'VELOCITY_19', 'NOTE_OFF_64', 'NOTE_ON_42', 'VELOCITY_27', 'NOTE_OFF_79', 'NOTE_OFF_55', 'NOTE_OFF_42', 'TIME_SHIFT_110ms', 'TIME_SHIFT_10ms', 'TIME_SHIFT_110ms', 'TIME_SHIFT_10ms', 'TIME_SHIFT_30ms', 'TIME_SHIFT_10ms', 'NOTE_OFF_35', 'TIME_SHIFT_50ms', 'NOTE_OFF_70', 'NOTE_OFF_77', 'NOTE_OFF_42', 'NOTE_ON_69', 'VELOCITY_22', 'NOTE_ON_76', 'VELOCITY_24', 'NOTE_ON_70', 'VELOCITY_10', 'NOTE_ON_74', 'VELOCITY_22', 'NOTE_ON_65', 'VELOCITY_18', 'NOTE_ON_42', 'VELOCITY_13', 'TIME_SHIFT_30ms', 'TIME_SHIFT_10ms', 'TIME_SHIFT_110ms', 'TIME_SHIFT_10ms', 'TIME_SHIFT_10ms', 'TIME_SHIFT_10ms', 'NOTE_OFF_65', 'TIME_SHIFT_30ms', 'TIME_SHIFT_10ms', 'NOTE_OFF_62', 'NOTE_OFF_34', 'TIME_SHIFT_60ms', 'TIME_SHIFT_10ms', 'TIME_SHIFT_10ms', 'TIME_SHIFT_10ms', 'NOTE_OFF_46', 'TIME_SHIFT_30ms', 'TIME_SHIFT_10ms', 'NOTE_ON_70', 'VELOCITY_9', 'NOTE_OFF_76', 'NOTE_ON_34', 'VELOCITY_20', 'NOTE_ON_72', 'VELOCITY_24', 'NOTE_OFF_70', 'NOTE_ON_42', 'VELOCITY_13', 'NOTE_OFF_42', 'TIME_SHIFT_60ms', 'TIME_SHIFT_10ms', 'TIME_SHIFT_50ms', 'NOTE_OFF_62', 'TIME_SHIFT_50ms', 'TIME_SHIFT_50ms', 'TIME_SHIFT_50ms', 'NOTE_OFF_34', 'TIME_SHIFT_10ms', 'TIME_SHIFT_10ms', 'NOTE_OFF_46', 'TIME_SHIFT_30ms', 'TIME_SHIFT_10ms', 'NOTE_ON_50', 'VELOCITY_20', 'NOTE_OFF_53', 'NOTE_OFF_70', 'NOTE_ON_74', 'VELOCITY_24', 'NOTE_OFF_58', 'NOTE_OFF_42', 'NOTE_ON_65', 'VELOCITY_17', 'NOTE_ON_70', 'VELOCITY_17', 'NOTE_OFF_72', 'NOTE_ON_38', 'VELOCITY_21', 'NOTE_ON_62', 'VELOCITY_22', 'NOTE_ON_65', 'VELOCITY_20', 'NOTE_ON_57', 'VELOCITY_19', 'NOTE_ON_62', 'VELOCITY_22', 'NOTE_OFF_62', 'NOTE_ON_62', 'VELOCITY_19', 'NOTE_ON_57', 'VELOCITY_14', 'NOTE_ON_38', 'VELOCITY_21', 'NOTE_ON_46', 'VELOCITY_19', 'NOTE_ON_57', 'VELOCITY_21', 'TIME_SHIFT_110ms', 'TIME_SHIFT_10ms', 'TIME_SHIFT_100ms', 'NOTE_OFF_38', 'TIME_SHIFT_10ms', 'TIME_SHIFT_10ms', 'TIME_SHIFT_80ms', 'TIME_SHIFT_10ms', 'NOTE_OFF_74', 'NOTE_OFF_70', 'NOTE_ON_42', 'VELOCITY_18', 'NOTE_OFF_46', 'NOTE_ON_70', 'VELOCITY_10', 'TIME_SHIFT_100ms', 'NOTE_OFF_57', 'TIME_SHIFT_30ms', 'TIME_SHIFT_10ms', 'NOTE_OFF_38', 'TIME_SHIFT_10ms', 'TIME_SHIFT_10ms', 'NOTE_OFF_70', 'NOTE_ON_70', 'VELOCITY_8', 'TIME_SHIFT_110ms', 'TIME_SHIFT_10ms', 'NOTE_OFF_65', 'NOTE_OFF_62', 'TIME_SHIFT_30ms', 'TIME_SHIFT_10ms', 'NOTE_ON_42', 'VELOCITY_17', 'NOTE_ON_35', 'VELOCITY_25', 'NOTE_OFF_70', 'NOTE_ON_70', 'VELOCITY_13', 'NOTE_ON_38', 'VELOCITY_22', 'NOTE_OFF_42', 'TIME_SHIFT_110ms', 'TIME_SHIFT_10ms', 'NOTE_OFF_50', 'TIME_SHIFT_10ms', 'TIME_SHIFT_10ms', 'NOTE_OFF_57', 'TIME_SHIFT_10ms', 'TIME_SHIFT_10ms', 'NOTE_OFF_35', 'TIME_SHIFT_10ms', 'TIME_SHIFT_10ms', 'NOTE_OFF_70', 'NOTE_ON_70', 'VELOCITY_21', 'TIME_SHIFT_10ms', 'TIME_SHIFT_10ms', 'NOTE_OFF_65', 'TIME_SHIFT_10ms', 'TIME_SHIFT_10ms', 'NOTE_OFF_74', 'TIME_SHIFT_10ms', 'TIME_SHIFT_10ms', 'NOTE_OFF_69', 'TIME_SHIFT_50ms', 'NOTE_OFF_62', 'TIME_SHIFT_30ms', 'TIME_SHIFT_10ms', 'NOTE_OFF_38', 'TIME_SHIFT_10ms', 'TIME_SHIFT_10ms', 'NOTE_OFF_65', 'NOTE_ON_70', 'VELOCITY_18', 'NOTE_OFF_57', 'NOTE_OFF_42', 'NOTE_OFF_62', 'NOTE_ON_62', 'VELOCITY_20', 'NOTE_ON_62', 'VELOCITY_20', 'NOTE_ON_67', 'VELOCITY_20', 'NOTE_ON_55', 'VELOCITY_20', 'NOTE_ON_43', 'VELOCITY_17', 'NOTE_ON_74', 'VELOCITY_20', 'NOTE_ON_70', 'VELOCITY_15', 'NOTE_ON_58', 'VELOCITY_17', 'NOTE_ON_42', 'VELOCITY_25', 'NOTE_ON_35', 'VELOCITY_25', 'NOTE_ON_58', 'VELOCITY_18', 'NOTE_ON_70', 'VELOCITY_24', 'NOTE_ON_31', 'VELOCITY_22', 'NOTE_ON_43', 'VELOCITY_20', 'NOTE_ON_67', 'VELOCITY_20', 'NOTE_OFF_70', 'TIME_SHIFT_30ms', 'TIME_SHIFT_10ms', 'NOTE_ON_67', 'VELOCITY_21', 'NOTE_ON_79', 'VELOCITY_21', 'TIME_SHIFT_10ms', 'TIME_SHIFT_10ms', 'NOTE_OFF_62', 'NOTE_OFF_74', 'TIME_SHIFT_30ms', 'TIME_SHIFT_10ms', 'TIME_SHIFT_60ms', 'TIME_SHIFT_10ms', 'TIME_SHIFT_60ms', 'TIME_SHIFT_10ms', 'TIME_SHIFT_60ms', 'TIME_SHIFT_10ms', 'TIME_SHIFT_30ms', 'TIME_SHIFT_10ms', 'NOTE_ON_70', 'VELOCITY_11', 'NOTE_OFF_70', 'NOTE_OFF_42', 'NOTE_OFF_70', 'NOTE_ON_70', 'VELOCITY_24', 'NOTE_ON_42', 'VELOCITY_5', 'TIME_SHIFT_50ms', 'NOTE_OFF_67', 'NOTE_OFF_62', 'NOTE_OFF_35', 'TIME_SHIFT_50ms', 'NOTE_OFF_58', 'TIME_SHIFT_60ms', 'TIME_SHIFT_10ms', 'TIME_SHIFT_10ms', 'TIME_SHIFT_10ms', 'NOTE_OFF_31', 'TIME_SHIFT_100ms', 'TIME_SHIFT_30ms', 'TIME_SHIFT_10ms', 'NOTE_ON_62', 'VELOCITY_20', 'NOTE_OFF_70', 'NOTE_OFF_70', 'NOTE_OFF_42', 'NOTE_ON_70', 'VELOCITY_24', 'NOTE_ON_70', 'VELOCITY_10', 'NOTE_ON_42', 'VELOCITY_11', 'NOTE_ON_58', 'VELOCITY_16', 'NOTE_ON_67', 'VELOCITY_20', 'NOTE_ON_35', 'VELOCITY_25', 'NOTE_ON_31', 'VELOCITY_22', 'NOTE_ON_58', 'VELOCITY_16', 'NOTE_ON_62', 'VELOCITY_20', 'NOTE_ON_67', 'VELOCITY_20', 'TIME_SHIFT_80ms', 'TIME_SHIFT_10ms', 'TIME_SHIFT_80ms', 'TIME_SHIFT_10ms', 'NOTE_OFF_35', 'TIME_SHIFT_30ms', 'TIME_SHIFT_10ms', 'TIME_SHIFT_100ms', 'NOTE_OFF_31', 'TIME_SHIFT_10ms', 'TIME_SHIFT_10ms', 'NOTE_OFF_70', 'NOTE_ON_38', 'VELOCITY_22', 'NOTE_ON_42', 'VELOCITY_25', 'NOTE_OFF_70', 'NOTE_OFF_42', 'NOTE_ON_70', 'VELOCITY_18', 'NOTE_ON_70', 'VELOCITY_24', 'TIME_SHIFT_110ms', 'TIME_SHIFT_10ms', 'NOTE_OFF_74', 'TIME_SHIFT_30ms', 'TIME_SHIFT_10ms', 'NOTE_OFF_67', 'TIME_SHIFT_10ms', 'TIME_SHIFT_10ms', 'NOTE_OFF_70', 'NOTE_OFF_62', 'NOTE_OFF_38', 'NOTE_OFF_58', 'TIME_SHIFT_10ms', 'TIME_SHIFT_10ms', 'NOTE_OFF_67', 'TIME_SHIFT_60ms', 'TIME_SHIFT_10ms', 'NOTE_OFF_67', 'TIME_SHIFT_30ms', 'TIME_SHIFT_10ms', 'NOTE_OFF_62', 'TIME_SHIFT_30ms', 'TIME_SHIFT_10ms', 'NOTE_ON_69', 'VELOCITY_24', 'NOTE_ON_31', 'VELOCITY_21', 'NOTE_OFF_58', 'NOTE_ON_67', 'VELOCITY_18', 'NOTE_OFF_70', 'NOTE_OFF_42', 'NOTE_OFF_70', 'NOTE_ON_62', 'VELOCITY_19', 'NOTE_ON_70', 'VELOCITY_23', 'NOTE_ON_67', 'VELOCITY_20', 'NOTE_ON_65', 'VELOCITY_15', 'NOTE_ON_42', 'VELOCITY_15', 'NOTE_ON_70', 'VELOCITY_8', 'NOTE_ON_58', 'VELOCITY_14', 'TIME_SHIFT_10ms', 'TIME_SHIFT_10ms', 'NOTE_OFF_43', 'TIME_SHIFT_30ms', 'TIME_SHIFT_10ms', 'TIME_SHIFT_60ms', 'TIME_SHIFT_10ms', 'TIME_SHIFT_50ms', 'NOTE_ON_70', 'VELOCITY_10', 'NOTE_OFF_70', 'TIME_SHIFT_10ms', 'TIME_SHIFT_10ms', 'NOTE_OFF_70', 'TIME_SHIFT_50ms', 'NOTE_OFF_67', 'TIME_SHIFT_10ms', 'TIME_SHIFT_10ms', 'NOTE_ON_74', 'VELOCITY_17', 'NOTE_OFF_31', 'NOTE_OFF_65', 'NOTE_ON_86', 'VELOCITY_17', 'TIME_SHIFT_10ms', 'TIME_SHIFT_10ms', 'NOTE_OFF_67', 'NOTE_OFF_79', 'TIME_SHIFT_50ms', 'NOTE_ON_35', 'VELOCITY_25', 'NOTE_OFF_58', 'NOTE_ON_67', 'VELOCITY_24', 'NOTE_OFF_42', 'NOTE_OFF_70', 'NOTE_OFF_43', 'NOTE_OFF_69', 'NOTE_ON_70', 'VELOCITY_14', 'NOTE_ON_64', 'VELOCITY_16', 'NOTE_ON_42', 'VELOCITY_13', 'NOTE_ON_31', 'VELOCITY_20', 'NOTE_ON_64', 'VELOCITY_13', 'TIME_SHIFT_10ms', 'TIME_SHIFT_10ms', 'NOTE_OFF_62', 'NOTE_OFF_67', 'TIME_SHIFT_60ms', 'TIME_SHIFT_10ms', 'TIME_SHIFT_30ms', 'TIME_SHIFT_10ms', 'NOTE_OFF_35', 'TIME_SHIFT_10ms', 'TIME_SHIFT_10ms', 'TIME_SHIFT_30ms', 'TIME_SHIFT_10ms', 'NOTE_ON_70', 'VELOCITY_17', 'NOTE_OFF_70', 'TIME_SHIFT_10ms', 'TIME_SHIFT_10ms', 'TIME_SHIFT_30ms', 'TIME_SHIFT_10ms', 'TIME_SHIFT_30ms', 'TIME_SHIFT_10ms', 'NOTE_OFF_31', 'TIME_SHIFT_10ms', 'TIME_SHIFT_10ms', 'NOTE_OFF_64', 'TIME_SHIFT_10ms', 'TIME_SHIFT_10ms', 'NOTE_ON_81', 'VELOCITY_21', 'NOTE_ON_69', 'VELOCITY_21', 'TIME_SHIFT_10ms', 'TIME_SHIFT_10ms', 'NOTE_OFF_74', 'NOTE_OFF_64', 'NOTE_OFF_86', 'TIME_SHIFT_10ms', 'TIME_SHIFT_10ms', 'NOTE_ON_69', 'VELOCITY_24', 'NOTE_OFF_70', 'NOTE_OFF_62', 'NOTE_OFF_67', 'NOTE_ON_26', 'VELOCITY_21', 'NOTE_OFF_42', 'NOTE_ON_50', 'VELOCITY_19', 'NOTE_OFF_58', 'NOTE_OFF_55', 'NOTE_ON_62', 'VELOCITY_16', 'NOTE_ON_65', 'VELOCITY_20', 'NOTE_ON_50', 'VELOCITY_20', 'NOTE_ON_42', 'VELOCITY_27', 'NOTE_ON_65', 'VELOCITY_17', 'NOTE_ON_35', 'VELOCITY_25', 'NOTE_ON_57', 'VELOCITY_21', 'NOTE_ON_70', 'VELOCITY_20', 'NOTE_ON_62', 'VELOCITY_21', 'TIME_SHIFT_110ms', 'TIME_SHIFT_10ms', 'TIME_SHIFT_110ms', 'TIME_SHIFT_10ms', 'TIME_SHIFT_30ms', 'TIME_SHIFT_10ms', 'NOTE_OFF_35', 'TIME_SHIFT_50ms', 'NOTE_OFF_42', 'NOTE_ON_69', 'VELOCITY_22', 'NOTE_OFF_70', 'NOTE_ON_67', 'VELOCITY_24', 'NOTE_OFF_69', 'NOTE_ON_65', 'VELOCITY_19', 'NOTE_ON_42', 'VELOCITY_13', 'NOTE_ON_70', 'VELOCITY_10', 'TIME_SHIFT_30ms', 'TIME_SHIFT_10ms', 'TIME_SHIFT_10ms', 'TIME_SHIFT_10ms', 'NOTE_OFF_65', 'TIME_SHIFT_10ms', 'TIME_SHIFT_10ms', 'NOTE_OFF_62', 'TIME_SHIFT_10ms', 'TIME_SHIFT_10ms', 'NOTE_OFF_26', 'TIME_SHIFT_60ms', 'TIME_SHIFT_10ms', 'TIME_SHIFT_10ms', 'TIME_SHIFT_10ms', 'NOTE_OFF_50', 'TIME_SHIFT_30ms', 'TIME_SHIFT_10ms', 'NOTE_OFF_69', 'TIME_SHIFT_30ms', 'TIME_SHIFT_10ms', 'NOTE_OFF_65', 'TIME_SHIFT_50ms', 'TIME_SHIFT_30ms', 'TIME_SHIFT_10ms', 'NOTE_ON_62', 'VELOCITY_22', 'NOTE_ON_26', 'VELOCITY_21', 'NOTE_ON_65', 'VELOCITY_19', 'NOTE_ON_65', 'VELOCITY_24', 'NOTE_ON_57', 'VELOCITY_20', 'NOTE_OFF_42', 'NOTE_ON_67', 'VELOCITY_20', 'NOTE_OFF_70', 'NOTE_ON_64', 'VELOCITY_19', 'NOTE_OFF_67', 'NOTE_ON_65', 'VELOCITY_17', 'NOTE_ON_57', 'VELOCITY_16', 'NOTE_ON_70', 'VELOCITY_9', 'NOTE_ON_42', 'VELOCITY_13', 'TIME_SHIFT_80ms', 'TIME_SHIFT_10ms', 'TIME_SHIFT_30ms', 'TIME_SHIFT_10ms', 'TIME_SHIFT_50ms', 'NOTE_OFF_64', 'TIME_SHIFT_50ms', 'TIME_SHIFT_50ms', 'TIME_SHIFT_10ms', 'TIME_SHIFT_10ms', 'NOTE_OFF_67', 'TIME_SHIFT_30ms', 'TIME_SHIFT_10ms', 'NOTE_OFF_70', 'NOTE_ON_38', 'VELOCITY_21', 'NOTE_ON_65', 'VELOCITY_18', 'NOTE_ON_69', 'VELOCITY_23', 'NOTE_ON_46', 'VELOCITY_19', 'NOTE_OFF_42', 'NOTE_ON_70', 'VELOCITY_17', 'NOTE_ON_69', 'VELOCITY_24', 'NOTE_OFF_65', 'TIME_SHIFT_10ms', 'TIME_SHIFT_10ms', 'NOTE_OFF_65', 'TIME_SHIFT_60ms', 'TIME_SHIFT_10ms', 'NOTE_OFF_57', 'TIME_SHIFT_10ms', 'TIME_SHIFT_10ms', 'NOTE_OFF_62', 'TIME_SHIFT_60ms', 'TIME_SHIFT_10ms', 'TIME_SHIFT_50ms', 'NOTE_OFF_38', 'TIME_SHIFT_100ms', 'NOTE_ON_64', 'VELOCITY_17', 'NOTE_ON_57', 'VELOCITY_15', 'NOTE_ON_65', 'VELOCITY_18', 'NOTE_OFF_69', 'NOTE_OFF_46', 'NOTE_OFF_26', 'NOTE_ON_42', 'VELOCITY_18', 'NOTE_ON_62', 'VELOCITY_18', 'NOTE_OFF_70', 'NOTE_ON_70', 'VELOCITY_10', 'TIME_SHIFT_30ms', 'TIME_SHIFT_10ms', 'NOTE_OFF_65', 'TIME_SHIFT_110ms', 'TIME_SHIFT_10ms', 'NOTE_OFF_70', 'NOTE_ON_70', 'VELOCITY_8', 'TIME_SHIFT_10ms', 'TIME_SHIFT_10ms', 'NOTE_OFF_62', 'TIME_SHIFT_100ms', 'TIME_SHIFT_30ms', 'TIME_SHIFT_10ms', 'NOTE_OFF_57', 'TIME_SHIFT_10ms', 'TIME_SHIFT_10ms', 'NOTE_ON_70', 'VELOCITY_13', 'NOTE_ON_62', 'VELOCITY_18', 'NOTE_ON_35', 'VELOCITY_25', 'NOTE_ON_42', 'VELOCITY_17', 'NOTE_OFF_42', 'NOTE_OFF_70', 'NOTE_ON_69', 'VELOCITY_24', 'NOTE_ON_62', 'VELOCITY_13', 'NOTE_ON_26', 'VELOCITY_21', 'TIME_SHIFT_10ms', 'TIME_SHIFT_10ms', 'NOTE_OFF_64', 'NOTE_OFF_50', 'TIME_SHIFT_10ms', 'TIME_SHIFT_10ms', 'TIME_SHIFT_30ms', 'TIME_SHIFT_10ms', 'NOTE_OFF_65', 'TIME_SHIFT_30ms', 'TIME_SHIFT_10ms', 'TIME_SHIFT_10ms', 'TIME_SHIFT_10ms', 'NOTE_OFF_69', 'TIME_SHIFT_10ms', 'TIME_SHIFT_10ms', 'NOTE_OFF_62', 'NOTE_OFF_35', 'TIME_SHIFT_10ms', 'TIME_SHIFT_10ms', 'NOTE_OFF_70', 'NOTE_ON_70', 'VELOCITY_21', 'TIME_SHIFT_10ms', 'TIME_SHIFT_10ms', 'TIME_SHIFT_30ms', 'TIME_SHIFT_10ms', 'NOTE_OFF_65', 'TIME_SHIFT_10ms', 'TIME_SHIFT_10ms', 'NOTE_OFF_69', 'TIME_SHIFT_30ms', 'TIME_SHIFT_10ms', 'NOTE_OFF_81', 'NOTE_OFF_69', 'NOTE_OFF_57', 'TIME_SHIFT_30ms', 'TIME_SHIFT_10ms', 'NOTE_OFF_26', 'TIME_SHIFT_30ms', 'TIME_SHIFT_10ms', 'NOTE_ON_70', 'VELOCITY_15', 'NOTE_ON_64', 'VELOCITY_22', 'NOTE_ON_76', 'VELOCITY_24', 'NOTE_ON_57', 'VELOCITY_22', 'NOTE_ON_60', 'VELOCITY_18', 'NOTE_ON_64', 'VELOCITY_17', 'NOTE_ON_45', 'VELOCITY_22', 'NOTE_OFF_70', 'NOTE_ON_76', 'VELOCITY_19', 'NOTE_OFF_65', 'NOTE_ON_33', 'VELOCITY_24', 'NOTE_ON_57', 'VELOCITY_15', 'NOTE_ON_42', 'VELOCITY_25', 'NOTE_OFF_57', 'NOTE_OFF_62', 'NOTE_ON_35', 'VELOCITY_25', 'NOTE_OFF_42', 'TIME_SHIFT_30ms', 'TIME_SHIFT_10ms', 'NOTE_ON_69', 'VELOCITY_22', 'NOTE_ON_60', 'VELOCITY_17', 'NOTE_ON_64', 'VELOCITY_19', 'NOTE_OFF_62', 'TIME_SHIFT_80ms', 'TIME_SHIFT_10ms', 'TIME_SHIFT_110ms', 'TIME_SHIFT_10ms', 'TIME_SHIFT_80ms', 'TIME_SHIFT_10ms', 'NOTE_ON_76', 'VELOCITY_24', 'NOTE_OFF_70', 'NOTE_OFF_76', 'NOTE_ON_70', 'VELOCITY_11', 'NOTE_OFF_42', 'NOTE_ON_42', 'VELOCITY_5', 'TIME_SHIFT_10ms', 'TIME_SHIFT_10ms', 'NOTE_OFF_33', 'TIME_SHIFT_10ms', 'TIME_SHIFT_10ms', 'NOTE_OFF_35', 'TIME_SHIFT_50ms', 'TIME_SHIFT_50ms', 'TIME_SHIFT_30ms', 'TIME_SHIFT_10ms', 'TIME_SHIFT_50ms', 'TIME_SHIFT_50ms', 'TIME_SHIFT_50ms', 'NOTE_ON_64', 'VELOCITY_18', 'NOTE_ON_60', 'VELOCITY_17', 'NOTE_ON_42', 'VELOCITY_11', 'NOTE_ON_60', 'VELOCITY_15', 'NOTE_ON_33', 'VELOCITY_22', 'NOTE_OFF_42', 'NOTE_OFF_76', 'NOTE_ON_70', 'VELOCITY_10', 'NOTE_ON_67', 'VELOCITY_19', 'NOTE_ON_35', 'VELOCITY_25', 'NOTE_ON_64', 'VELOCITY_21', 'NOTE_OFF_57', 'NOTE_OFF_70', 'NOTE_ON_69', 'VELOCITY_21', 'NOTE_ON_76', 'VELOCITY_24', 'TIME_SHIFT_60ms', 'TIME_SHIFT_10ms', 'TIME_SHIFT_80ms', 'TIME_SHIFT_10ms', 'NOTE_OFF_69', 'NOTE_OFF_35', 'TIME_SHIFT_10ms', 'TIME_SHIFT_10ms', 'NOTE_OFF_64', 'TIME_SHIFT_10ms', 'TIME_SHIFT_10ms', 'NOTE_OFF_60', 'TIME_SHIFT_30ms', 'TIME_SHIFT_10ms', 'NOTE_OFF_67', 'TIME_SHIFT_10ms', 'TIME_SHIFT_10ms', 'NOTE_OFF_64', 'TIME_SHIFT_10ms', 'TIME_SHIFT_10ms', 'NOTE_OFF_60', 'TIME_SHIFT_30ms', 'TIME_SHIFT_10ms', 'NOTE_OFF_33', 'TIME_SHIFT_10ms', 'TIME_SHIFT_10ms', 'NOTE_ON_38', 'VELOCITY_22', 'NOTE_OFF_70', 'NOTE_ON_76', 'VELOCITY_24', 'NOTE_OFF_76', 'NOTE_ON_70', 'VELOCITY_18', 'NOTE_OFF_42', 'NOTE_ON_42', 'VELOCITY_25', 'TIME_SHIFT_80ms', 'TIME_SHIFT_10ms', 'NOTE_OFF_69', 'TIME_SHIFT_50ms', 'NOTE_OFF_64', 'TIME_SHIFT_10ms', 'TIME_SHIFT_10ms', 'NOTE_OFF_60', 'TIME_SHIFT_10ms', 'TIME_SHIFT_10ms', 'NOTE_OFF_38', 'TIME_SHIFT_80ms', 'TIME_SHIFT_10ms', 'TIME_SHIFT_60ms', 'TIME_SHIFT_10ms', 'NOTE_ON_42', 'VELOCITY_15', 'NOTE_ON_79', 'VELOCITY_24', 'NOTE_OFF_76', 'NOTE_ON_60', 'VELOCITY_12', 'NOTE_ON_64', 'VELOCITY_16', 'NOTE_OFF_42', 'NOTE_OFF_70', 'NOTE_ON_67', 'VELOCITY_20', 'NOTE_ON_64', 'VELOCITY_16', 'NOTE_ON_60', 'VELOCITY_12', 'NOTE_ON_70', 'VELOCITY_8', 'TIME_SHIFT_50ms', 'TIME_SHIFT_30ms', 'TIME_SHIFT_10ms', 'NOTE_OFF_60', 'NOTE_OFF_64', 'TIME_SHIFT_10ms', 'TIME_SHIFT_10ms', 'NOTE_OFF_45', 'TIME_SHIFT_60ms', 'TIME_SHIFT_10ms', 'NOTE_OFF_70', 'NOTE_ON_70', 'VELOCITY_10', 'TIME_SHIFT_110ms', 'TIME_SHIFT_10ms', 'NOTE_OFF_67', 'TIME_SHIFT_30ms', 'TIME_SHIFT_10ms', 'NOTE_OFF_70', 'NOTE_ON_76', 'VELOCITY_24', 'NOTE_ON_35', 'VELOCITY_25', 'NOTE_OFF_79', 'NOTE_ON_42', 'VELOCITY_13', 'NOTE_ON_69', 'VELOCITY_15', 'NOTE_OFF_42', 'NOTE_ON_70', 'VELOCITY_14', 'NOTE_ON_33', 'VELOCITY_22', 'TIME_SHIFT_10ms', 'TIME_SHIFT_10ms', 'NOTE_ON_64', 'VELOCITY_20', 'NOTE_ON_60', 'VELOCITY_18', 'NOTE_ON_69', 'VELOCITY_21', 'TIME_SHIFT_60ms', 'TIME_SHIFT_10ms', 'TIME_SHIFT_10ms', 'TIME_SHIFT_10ms', 'NOTE_OFF_69', 'NOTE_OFF_64', 'TIME_SHIFT_10ms', 'TIME_SHIFT_10ms', 'NOTE_OFF_60', 'NOTE_OFF_35', 'TIME_SHIFT_50ms', 'NOTE_OFF_70', 'NOTE_ON_70', 'VELOCITY_17', 'TIME_SHIFT_30ms', 'TIME_SHIFT_10ms', 'TIME_SHIFT_80ms', 'TIME_SHIFT_10ms', 'NOTE_OFF_69', 'TIME_SHIFT_10ms', 'TIME_SHIFT_10ms', 'NOTE_OFF_64', 'TIME_SHIFT_10ms', 'TIME_SHIFT_10ms', 'NOTE_OFF_76', 'NOTE_OFF_42', 'NOTE_ON_76', 'VELOCITY_24', 'NOTE_ON_64', 'VELOCITY_19', 'NOTE_OFF_70', 'NOTE_ON_70', 'VELOCITY_20', 'NOTE_ON_35', 'VELOCITY_25', 'NOTE_ON_42', 'VELOCITY_27', 'NOTE_ON_60', 'VELOCITY_20', 'NOTE_OFF_60', 'NOTE_ON_55', 'VELOCITY_19', 'NOTE_ON_48', 'VELOCITY_22', 'NOTE_ON_36', 'VELOCITY_21', 'NOTE_OFF_64', 'NOTE_OFF_57', 'TIME_SHIFT_10ms', 'TIME_SHIFT_10ms', 'NOTE_ON_60', 'VELOCITY_18', 'NOTE_OFF_60', 'NOTE_ON_64', 'VELOCITY_21', 'NOTE_ON_67', 'VELOCITY_22', 'TIME_SHIFT_30ms', 'TIME_SHIFT_10ms', 'NOTE_OFF_33', 'TIME_SHIFT_110ms', 'TIME_SHIFT_10ms', 'TIME_SHIFT_100ms', 'NOTE_OFF_35', 'TIME_SHIFT_50ms', 'NOTE_ON_70', 'VELOCITY_10', 'NOTE_OFF_76', 'NOTE_ON_42', 'VELOCITY_13', 'NOTE_ON_64', 'VELOCITY_18', 'NOTE_OFF_42', 'NOTE_ON_60', 'VELOCITY_14', 'NOTE_OFF_70', 'NOTE_ON_67', 'VELOCITY_18', 'TIME_SHIFT_10ms', 'TIME_SHIFT_10ms', 'NOTE_OFF_36', 'TIME_SHIFT_130ms', 'TIME_SHIFT_10ms', 'NOTE_OFF_67', 'TIME_SHIFT_80ms', 'TIME_SHIFT_10ms', 'NOTE_OFF_60', 'NOTE_OFF_64', 'TIME_SHIFT_50ms', 'TIME_SHIFT_30ms', 'TIME_SHIFT_10ms', 'NOTE_ON_36', 'VELOCITY_20', 'NOTE_OFF_42', 'NOTE_ON_60', 'VELOCITY_17', 'NOTE_ON_64', 'VELOCITY_20', 'NOTE_ON_76', 'VELOCITY_24', 'NOTE_ON_70', 'VELOCITY_9', 'NOTE_ON_67', 'VELOCITY_19', 'NOTE_OFF_70', 'NOTE_ON_42', 'VELOCITY_13', 'TIME_SHIFT_80ms', 'TIME_SHIFT_10ms', 'TIME_SHIFT_10ms', 'TIME_SHIFT_10ms', 'NOTE_OFF_67', 'NOTE_OFF_64', 'TIME_SHIFT_10ms', 'TIME_SHIFT_10ms', 'NOTE_OFF_60', 'TIME_SHIFT_80ms', 'TIME_SHIFT_10ms', 'TIME_SHIFT_110ms', 'TIME_SHIFT_10ms', 'NOTE_ON_79', 'VELOCITY_24', 'NOTE_OFF_70', 'NOTE_OFF_42', 'NOTE_ON_70', 'VELOCITY_17', 'NOTE_ON_46', 'VELOCITY_19', 'NOTE_ON_38', 'VELOCITY_21', 'NOTE_OFF_76', 'TIME_SHIFT_60ms', 'TIME_SHIFT_10ms', 'NOTE_OFF_36', 'TIME_SHIFT_100ms', 'TIME_SHIFT_10ms', 'TIME_SHIFT_10ms', 'NOTE_OFF_67', 'TIME_SHIFT_30ms', 'TIME_SHIFT_10ms', 'NOTE_OFF_38', 'TIME_SHIFT_50ms', 'NOTE_OFF_64', 'TIME_SHIFT_10ms', 'TIME_SHIFT_10ms', 'NOTE_OFF_60', 'TIME_SHIFT_30ms', 'TIME_SHIFT_10ms', 'NOTE_OFF_70', 'NOTE_ON_67', 'VELOCITY_18', 'NOTE_ON_64', 'VELOCITY_13', 'NOTE_OFF_79', 'NOTE_ON_60', 'VELOCITY_12', 'NOTE_OFF_46', 'NOTE_ON_64', 'VELOCITY_19', 'NOTE_ON_42', 'VELOCITY_18', 'NOTE_ON_70', 'VELOCITY_10', 'NOTE_ON_60', 'VELOCITY_14', 'TIME_SHIFT_10ms', 'TIME_SHIFT_10ms', 'TIME_SHIFT_30ms', 'TIME_SHIFT_10ms', 'NOTE_OFF_48', 'TIME_SHIFT_110ms', 'TIME_SHIFT_10ms', 'NOTE_ON_70', 'VELOCITY_8', 'NOTE_OFF_70', 'TIME_SHIFT_110ms', 'TIME_SHIFT_10ms', 'TIME_SHIFT_10ms', 'TIME_SHIFT_10ms', 'NOTE_ON_64', 'VELOCITY_22', 'NOTE_ON_67', 'VELOCITY_19', 'NOTE_ON_60', 'VELOCITY_18', 'TIME_SHIFT_10ms', 'TIME_SHIFT_10ms', 'NOTE_ON_42', 'VELOCITY_17', 'NOTE_OFF_70', 'NOTE_ON_70', 'VELOCITY_13', 'NOTE_ON_35', 'VELOCITY_25', 'NOTE_OFF_42', 'NOTE_ON_36', 'VELOCITY_21', 'NOTE_ON_72', 'VELOCITY_24', 'NOTE_ON_65', 'VELOCITY_14', 'TIME_SHIFT_10ms', 'TIME_SHIFT_10ms', 'NOTE_OFF_64', 'TIME_SHIFT_30ms', 'TIME_SHIFT_10ms', 'NOTE_OFF_67', 'NOTE_OFF_64', 'TIME_SHIFT_10ms', 'TIME_SHIFT_10ms', 'NOTE_OFF_64', 'NOTE_OFF_60', 'TIME_SHIFT_10ms', 'TIME_SHIFT_10ms', 'NOTE_OFF_65', 'TIME_SHIFT_10ms', 'TIME_SHIFT_10ms', 'NOTE_OFF_67', 'TIME_SHIFT_10ms', 'TIME_SHIFT_10ms', 'NOTE_OFF_60', 'TIME_SHIFT_30ms', 'TIME_SHIFT_10ms', 'NOTE_ON_70', 'VELOCITY_21', 'NOTE_OFF_35', 'NOTE_OFF_70', 'TIME_SHIFT_50ms', 'NOTE_OFF_60', 'TIME_SHIFT_100ms', 'NOTE_OFF_36', 'TIME_SHIFT_10ms', 'TIME_SHIFT_10ms', 'NOTE_ON_62', 'VELOCITY_22', 'NOTE_ON_74', 'VELOCITY_22', 'NOTE_ON_50', 'VELOCITY_22', 'NOTE_ON_35', 'VELOCITY_25', 'NOTE_ON_62', 'VELOCITY_19', 'NOTE_ON_65', 'VELOCITY_19', 'NOTE_ON_57', 'VELOCITY_20', 'NOTE_ON_57', 'VELOCITY_14', 'NOTE_ON_65', 'VELOCITY_16', 'NOTE_ON_50', 'VELOCITY_18', 'NOTE_ON_65', 'VELOCITY_18', 'NOTE_ON_70', 'VELOCITY_18', 'NOTE_ON_38', 'VELOCITY_22', 'NOTE_ON_74', 'VELOCITY_24', 'NOTE_OFF_70', 'NOTE_ON_62', 'VELOCITY_18', 'NOTE_OFF_76', 'NOTE_OFF_64', 'NOTE_OFF_55', 'NOTE_OFF_64', 'NOTE_OFF_42', 'NOTE_OFF_60', 'NOTE_ON_42', 'VELOCITY_25', 'NOTE_ON_62', 'VELOCITY_23', 'NOTE_OFF_72', 'TIME_SHIFT_130ms', 'TIME_SHIFT_10ms', 'TIME_SHIFT_150ms', 'TIME_SHIFT_30ms', 'TIME_SHIFT_10ms', 'NOTE_OFF_70', 'NOTE_ON_42', 'VELOCITY_5', 'NOTE_ON_70', 'VELOCITY_15', 'NOTE_OFF_38', 'NOTE_OFF_42', 'TIME_SHIFT_50ms', 'NOTE_OFF_35', 'TIME_SHIFT_30ms', 'TIME_SHIFT_10ms', 'NOTE_OFF_74', 'TIME_SHIFT_10ms', 'TIME_SHIFT_10ms', 'TIME_SHIFT_160ms', 'TIME_SHIFT_10ms', 'TIME_SHIFT_50ms', 'NOTE_ON_62', 'VELOCITY_15', 'NOTE_ON_70', 'VELOCITY_15', 'NOTE_ON_42', 'VELOCITY_11', 'NOTE_OFF_42', 'NOTE_ON_35', 'VELOCITY_25', 'NOTE_ON_65', 'VELOCITY_20', 'NOTE_OFF_70', 'NOTE_ON_74', 'VELOCITY_24', 'NOTE_ON_60', 'VELOCITY_18', 'NOTE_ON_38', 'VELOCITY_22', 'TIME_SHIFT_50ms', 'NOTE_OFF_62', 'TIME_SHIFT_60ms', 'TIME_SHIFT_10ms', 'NOTE_OFF_65', 'TIME_SHIFT_30ms', 'TIME_SHIFT_10ms', 'NOTE_OFF_35', 'TIME_SHIFT_60ms', 'TIME_SHIFT_10ms', 'NOTE_OFF_60', 'TIME_SHIFT_100ms', 'NOTE_OFF_70', 'NOTE_ON_42', 'VELOCITY_25', 'NOTE_ON_70', 'VELOCITY_19', 'NOTE_OFF_42', 'NOTE_ON_38', 'VELOCITY_22', 'TIME_SHIFT_150ms', 'NOTE_OFF_38', 'TIME_SHIFT_80ms', 'TIME_SHIFT_10ms', 'NOTE_OFF_38', 'TIME_SHIFT_10ms', 'TIME_SHIFT_10ms', 'TIME_SHIFT_60ms', 'TIME_SHIFT_10ms', 'NOTE_OFF_70', 'NOTE_OFF_42', 'NOTE_ON_64', 'VELOCITY_20', 'NOTE_ON_42', 'VELOCITY_15', 'NOTE_ON_70', 'VELOCITY_10', 'TIME_SHIFT_150ms', 'NOTE_ON_70', 'VELOCITY_13', 'NOTE_OFF_70', 'TIME_SHIFT_160ms', 'TIME_SHIFT_10ms', 'NOTE_ON_38', 'VELOCITY_21', 'NOTE_OFF_42', 'NOTE_OFF_70', 'NOTE_ON_70', 'VELOCITY_7', 'NOTE_OFF_57', 'NOTE_ON_42', 'VELOCITY_13', 'NOTE_ON_62', 'VELOCITY_15', 'NOTE_ON_35', 'VELOCITY_25', 'TIME_SHIFT_10ms', 'TIME_SHIFT_10ms', 'NOTE_OFF_64', 'TIME_SHIFT_30ms', 'TIME_SHIFT_10ms', 'NOTE_OFF_62', 'TIME_SHIFT_30ms', 'TIME_SHIFT_10ms', 'NOTE_OFF_65', 'TIME_SHIFT_30ms', 'TIME_SHIFT_10ms', 'NOTE_OFF_38', 'NOTE_OFF_35', 'NOTE_OFF_62', 'TIME_SHIFT_30ms', 'TIME_SHIFT_10ms', 'NOTE_OFF_70', 'NOTE_ON_70', 'VELOCITY_19', 'TIME_SHIFT_30ms', 'TIME_SHIFT_10ms', 'NOTE_OFF_50', 'TIME_SHIFT_10ms', 'TIME_SHIFT_10ms', 'NOTE_OFF_50', 'TIME_SHIFT_30ms', 'TIME_SHIFT_10ms', 'TIME_SHIFT_80ms', 'TIME_SHIFT_10ms', 'NOTE_OFF_65', 'NOTE_ON_70', 'VELOCITY_23', 'NOTE_ON_57', 'VELOCITY_20', 'NOTE_ON_65', 'VELOCITY_20', 'NOTE_ON_38', 'VELOCITY_23', 'NOTE_OFF_62', 'NOTE_ON_42', 'VELOCITY_27', 'NOTE_OFF_57', 'NOTE_OFF_62', 'NOTE_OFF_74', 'NOTE_ON_50', 'VELOCITY_16', 'NOTE_OFF_42', 'NOTE_ON_62', 'VELOCITY_18', 'NOTE_OFF_70', 'NOTE_ON_35', 'VELOCITY_25', 'NOTE_ON_57', 'VELOCITY_20', 'TIME_SHIFT_10ms', 'TIME_SHIFT_10ms', 'NOTE_OFF_62', 'TIME_SHIFT_30ms', 'TIME_SHIFT_10ms', 'NOTE_OFF_65', 'TIME_SHIFT_100ms', 'NOTE_OFF_70', 'TIME_SHIFT_110ms', 'TIME_SHIFT_10ms', 'NOTE_OFF_35', 'TIME_SHIFT_30ms', 'TIME_SHIFT_10ms', 'NOTE_OFF_42', 'NOTE_OFF_38', 'TIME_SHIFT_100ms', 'NOTE_OFF_57', 'TIME_SHIFT_10ms', 'TIME_SHIFT_10ms', 'NOTE_OFF_50', 'TIME_SHIFT_10ms', 'TIME_SHIFT_10ms', 'NOTE_OFF_74', 'TIME_SHIFT_10ms', 'TIME_SHIFT_10ms', 'NOTE_OFF_62', 'TIME_SHIFT_30ms', 'TIME_SHIFT_10ms', 'NOTE_OFF_65', 'TIME_SHIFT_450ms', 'NOTE_OFF_57', 'NOTE_ON_53', 'VELOCITY_21', 'TIME_SHIFT_310ms', 'TIME_SHIFT_10ms', 'NOTE_OFF_53', 'NOTE_ON_50', 'VELOCITY_21', 'TIME_SHIFT_310ms', 'TIME_SHIFT_10ms', 'NOTE_OFF_50', 'NOTE_ON_47', 'VELOCITY_19', 'TIME_SHIFT_310ms', 'TIME_SHIFT_10ms', 'NOTE_ON_65', 'VELOCITY_17', 'NOTE_ON_50', 'VELOCITY_19', 'NOTE_OFF_47', 'NOTE_ON_35', 'VELOCITY_25', 'NOTE_ON_50', 'VELOCITY_19', 'NOTE_ON_65', 'VELOCITY_18', 'NOTE_ON_57', 'VELOCITY_17', 'NOTE_ON_65', 'VELOCITY_17', 'NOTE_ON_62', 'VELOCITY_20', 'NOTE_ON_70', 'VELOCITY_16', 'NOTE_ON_51', 'VELOCITY_17', 'TIME_SHIFT_30ms', 'TIME_SHIFT_10ms', 'NOTE_ON_77', 'VELOCITY_29', 'TIME_SHIFT_30ms', 'TIME_SHIFT_10ms', 'TIME_SHIFT_160ms', 'TIME_SHIFT_10ms', 'NOTE_OFF_65', 'TIME_SHIFT_60ms', 'TIME_SHIFT_10ms', 'NOTE_OFF_65', 'TIME_SHIFT_10ms', 'TIME_SHIFT_10ms', 'NOTE_ON_57', 'VELOCITY_14', 'NOTE_OFF_70', 'NOTE_ON_36', 'VELOCITY_14', 'NOTE_OFF_35', 'NOTE_ON_70', 'VELOCITY_9', 'NOTE_ON_57', 'VELOCITY_17', 'TIME_SHIFT_310ms', 'TIME_SHIFT_10ms', 'NOTE_OFF_70', 'NOTE_ON_36', 'VELOCITY_14', 'NOTE_ON_62', 'VELOCITY_22', 'NOTE_OFF_36', 'NOTE_ON_70', 'VELOCITY_7', 'NOTE_ON_62', 'VELOCITY_16', 'TIME_SHIFT_280ms', 'TIME_SHIFT_10ms', 'NOTE_OFF_62', 'TIME_SHIFT_10ms', 'TIME_SHIFT_10ms', 'NOTE_OFF_77', 'TIME_SHIFT_10ms', 'TIME_SHIFT_10ms', 'NOTE_OFF_51', 'NOTE_OFF_36', 'NOTE_ON_70', 'VELOCITY_17', 'NOTE_OFF_70', 'NOTE_ON_51', 'VELOCITY_17', 'TIME_SHIFT_10ms', 'TIME_SHIFT_10ms', 'NOTE_ON_74', 'VELOCITY_22', 'TIME_SHIFT_100ms', 'NOTE_OFF_57', 'TIME_SHIFT_10ms', 'TIME_SHIFT_10ms', 'NOTE_OFF_62', 'TIME_SHIFT_80ms', 'TIME_SHIFT_10ms', 'NOTE_OFF_57', 'TIME_SHIFT_100ms', 'NOTE_ON_70', 'VELOCITY_9', 'NOTE_OFF_70', 'NOTE_ON_65', 'VELOCITY_19', 'NOTE_ON_65', 'VELOCITY_18', 'NOTE_ON_43', 'VELOCITY_15', 'TIME_SHIFT_200ms', 'TIME_SHIFT_10ms', 'TIME_SHIFT_10ms', 'NOTE_OFF_65', 'TIME_SHIFT_10ms', 'TIME_SHIFT_10ms', 'TIME_SHIFT_50ms', 'TIME_SHIFT_30ms', 'TIME_SHIFT_10ms', 'NOTE_ON_57', 'VELOCITY_14', 'NOTE_ON_57', 'VELOCITY_15', 'NOTE_ON_70', 'VELOCITY_9', 'NOTE_OFF_70', 'NOTE_OFF_43', 'NOTE_ON_45', 'VELOCITY_14', 'TIME_SHIFT_10ms', 'TIME_SHIFT_10ms', 'TIME_SHIFT_30ms', 'TIME_SHIFT_10ms', 'NOTE_OFF_65', 'TIME_SHIFT_50ms', 'TIME_SHIFT_130ms', 'TIME_SHIFT_10ms', 'TIME_SHIFT_80ms', 'TIME_SHIFT_10ms', 'NOTE_OFF_45', 'NOTE_ON_70', 'VELOCITY_13', 'NOTE_OFF_70', 'NOTE_OFF_51', 'NOTE_ON_62', 'VELOCITY_18', 'NOTE_ON_51', 'VELOCITY_16', 'TIME_SHIFT_50ms', 'TIME_SHIFT_30ms', 'TIME_SHIFT_10ms', 'NOTE_OFF_62', 'TIME_SHIFT_10ms', 'TIME_SHIFT_10ms', 'NOTE_OFF_57', 'TIME_SHIFT_30ms', 'TIME_SHIFT_10ms', 'TIME_SHIFT_50ms', 'TIME_SHIFT_60ms', 'TIME_SHIFT_10ms', 'TIME_SHIFT_60ms', 'TIME_SHIFT_10ms', 'NOTE_OFF_70', 'NOTE_ON_69', 'VELOCITY_22', 'NOTE_ON_70', 'VELOCITY_10', 'NOTE_ON_65', 'VELOCITY_15', 'TIME_SHIFT_10ms', 'TIME_SHIFT_10ms', 'NOTE_OFF_57', 'TIME_SHIFT_110ms', 'TIME_SHIFT_10ms', 'TIME_SHIFT_100ms', 'NOTE_OFF_74', 'TIME_SHIFT_10ms', 'TIME_SHIFT_10ms', 'NOTE_OFF_65', 'TIME_SHIFT_10ms', 'TIME_SHIFT_10ms', 'NOTE_ON_69', 'VELOCITY_23', 'TIME_SHIFT_30ms', 'TIME_SHIFT_10ms', 'NOTE_OFF_69', 'TIME_SHIFT_10ms', 'TIME_SHIFT_10ms', 'NOTE_ON_62', 'VELOCITY_19', 'NOTE_ON_57', 'VELOCITY_13', 'NOTE_ON_70', 'VELOCITY_8', 'NOTE_OFF_70', 'TIME_SHIFT_160ms', 'TIME_SHIFT_10ms', 'TIME_SHIFT_30ms', 'TIME_SHIFT_10ms', 'NOTE_OFF_57', 'NOTE_OFF_50', 'TIME_SHIFT_60ms', 'TIME_SHIFT_10ms', 'NOTE_OFF_69', 'TIME_SHIFT_50ms', 'NOTE_ON_51', 'VELOCITY_18', 'NOTE_ON_77', 'VELOCITY_23', 'NOTE_OFF_51', 'NOTE_ON_70', 'VELOCITY_15', 'NOTE_OFF_70', 'NOTE_ON_62', 'VELOCITY_15', 'NOTE_ON_54', 'VELOCITY_18', 'NOTE_ON_50', 'VELOCITY_3', 'TIME_SHIFT_30ms', 'TIME_SHIFT_10ms', 'NOTE_OFF_62', 'TIME_SHIFT_30ms', 'TIME_SHIFT_10ms', 'TIME_SHIFT_150ms', 'NOTE_OFF_50', 'TIME_SHIFT_100ms', 'NOTE_ON_57', 'VELOCITY_16', 'NOTE_ON_57', 'VELOCITY_11', 'NOTE_ON_79', 'VELOCITY_21', 'NOTE_ON_70', 'VELOCITY_9', 'NOTE_OFF_70', 'TIME_SHIFT_10ms', 'TIME_SHIFT_10ms', 'NOTE_OFF_62', 'TIME_SHIFT_10ms', 'TIME_SHIFT_10ms', 'TIME_SHIFT_30ms', 'TIME_SHIFT_10ms', 'NOTE_OFF_77', 'TIME_SHIFT_10ms', 'TIME_SHIFT_10ms', 'NOTE_OFF_50', 'TIME_SHIFT_60ms', 'TIME_SHIFT_10ms', 'NOTE_OFF_70', 'NOTE_ON_70', 'VELOCITY_8', 'NOTE_OFF_57', 'TIME_SHIFT_60ms', 'TIME_SHIFT_10ms', 'TIME_SHIFT_60ms', 'TIME_SHIFT_10ms', 'NOTE_OFF_79', 'TIME_SHIFT_30ms', 'TIME_SHIFT_10ms', 'NOTE_ON_74', 'VELOCITY_21', 'NOTE_OFF_70', 'NOTE_ON_70', 'VELOCITY_10', 'NOTE_ON_62', 'VELOCITY_19', 'TIME_SHIFT_100ms', 'TIME_SHIFT_50ms', 'NOTE_ON_70', 'VELOCITY_13', 'NOTE_OFF_70', 'TIME_SHIFT_10ms', 'TIME_SHIFT_10ms', 'NOTE_OFF_57', 'TIME_SHIFT_30ms', 'TIME_SHIFT_10ms', 'TIME_SHIFT_10ms', 'TIME_SHIFT_10ms', 'TIME_SHIFT_50ms', 'NOTE_OFF_62', 'TIME_SHIFT_30ms', 'TIME_SHIFT_10ms', 'NOTE_OFF_54', 'NOTE_OFF_62', 'NOTE_OFF_65', 'NOTE_OFF_57', 'NOTE_OFF_70', 'NOTE_OFF_51', 'NOTE_OFF_74', 'NOTE_ON_64', 'VELOCITY_17', 'NOTE_ON_45', 'VELOCITY_20', 'NOTE_ON_64', 'VELOCITY_22', 'NOTE_ON_70', 'VELOCITY_16', 'NOTE_ON_45', 'VELOCITY_16', 'NOTE_ON_51', 'VELOCITY_17', 'NOTE_ON_60', 'VELOCITY_21', 'NOTE_ON_57', 'VELOCITY_20', 'NOTE_ON_64', 'VELOCITY_18', 'NOTE_ON_35', 'VELOCITY_25', 'TIME_SHIFT_10ms', 'TIME_SHIFT_10ms', 'NOTE_ON_76', 'VELOCITY_22', 'TIME_SHIFT_50ms', 'TIME_SHIFT_100ms', 'NOTE_OFF_64', 'TIME_SHIFT_110ms', 'TIME_SHIFT_10ms', 'NOTE_OFF_64', 'TIME_SHIFT_30ms', 'TIME_SHIFT_10ms', 'NOTE_ON_36', 'VELOCITY_14', 'NOTE_ON_70', 'VELOCITY_9', 'NOTE_ON_52', 'VELOCITY_8', 'NOTE_OFF_70', 'NOTE_OFF_35', 'NOTE_ON_52', 'VELOCITY_18', 'NOTE_ON_60', 'VELOCITY_13', 'TIME_SHIFT_280ms', 'TIME_SHIFT_10ms', 'NOTE_OFF_60', 'TIME_SHIFT_30ms', 'TIME_SHIFT_10ms', 'NOTE_OFF_36', 'NOTE_ON_36', 'VELOCITY_14', 'NOTE_OFF_70', 'NOTE_ON_70', 'VELOCITY_7', 'NOTE_ON_57', 'VELOCITY_17', 'NOTE_ON_64', 'VELOCITY_14', 'TIME_SHIFT_110ms', 'TIME_SHIFT_10ms', 'TIME_SHIFT_30ms', 'TIME_SHIFT_10ms', 'TIME_SHIFT_30ms', 'TIME_SHIFT_10ms', 'TIME_SHIFT_110ms', 'TIME_SHIFT_10ms', 'TIME_SHIFT_10ms', 'TIME_SHIFT_10ms', 'NOTE_OFF_70', 'NOTE_OFF_51', 'NOTE_ON_51', 'VELOCITY_17', 'NOTE_OFF_36', 'NOTE_ON_67', 'VELOCITY_17', 'NOTE_ON_55', 'VELOCITY_13', 'NOTE_ON_70', 'VELOCITY_17', 'TIME_SHIFT_10ms', 'TIME_SHIFT_10ms', 'TIME_SHIFT_10ms', 'TIME_SHIFT_10ms', 'NOTE_OFF_64', 'TIME_SHIFT_30ms', 'TIME_SHIFT_10ms', 'NOTE_ON_72', 'VELOCITY_21', 'TIME_SHIFT_30ms', 'TIME_SHIFT_10ms', 'NOTE_OFF_76', 'TIME_SHIFT_180ms', 'TIME_SHIFT_10ms', 'NOTE_OFF_67', 'TIME_SHIFT_30ms', 'TIME_SHIFT_10ms', 'NOTE_OFF_70', 'NOTE_ON_43', 'VELOCITY_15', 'NOTE_ON_64', 'VELOCITY_17', 'NOTE_ON_60', 'VELOCITY_8', 'NOTE_ON_70', 'VELOCITY_9', 'TIME_SHIFT_210ms', 'TIME_SHIFT_10ms', 'NOTE_OFF_60', 'TIME_SHIFT_30ms', 'TIME_SHIFT_10ms', 'NOTE_OFF_55', 'TIME_SHIFT_30ms', 'TIME_SHIFT_10ms', 'TIME_SHIFT_10ms', 'TIME_SHIFT_10ms', 'NOTE_OFF_64', 'TIME_SHIFT_10ms', 'TIME_SHIFT_10ms', 'NOTE_OFF_57', 'NOTE_OFF_70', 'NOTE_ON_45', 'VELOCITY_14', 'NOTE_OFF_43', 'NOTE_ON_69', 'VELOCITY_16', 'NOTE_ON_60', 'VELOCITY_14', 'NOTE_ON_70', 'VELOCITY_9', 'TIME_SHIFT_10ms', 'TIME_SHIFT_10ms', 'TIME_SHIFT_50ms', 'TIME_SHIFT_60ms', 'TIME_SHIFT_10ms', 'TIME_SHIFT_80ms', 'TIME_SHIFT_10ms', 'TIME_SHIFT_60ms', 'TIME_SHIFT_10ms', 'TIME_SHIFT_30ms', 'TIME_SHIFT_10ms', 'NOTE_OFF_45', 'NOTE_OFF_70', 'NOTE_OFF_51', 'NOTE_ON_57', 'VELOCITY_13', 'NOTE_ON_51', 'VELOCITY_16', 'NOTE_ON_70', 'VELOCITY_13', 'TIME_SHIFT_10ms', 'TIME_SHIFT_10ms', 'TIME_SHIFT_50ms', 'TIME_SHIFT_50ms', 'TIME_SHIFT_30ms', 'TIME_SHIFT_10ms', 'TIME_SHIFT_10ms', 'TIME_SHIFT_10ms', 'NOTE_OFF_60', 'TIME_SHIFT_60ms', 'TIME_SHIFT_10ms', 'TIME_SHIFT_10ms', 'TIME_SHIFT_10ms', 'NOTE_OFF_69', 'TIME_SHIFT_10ms', 'TIME_SHIFT_10ms', 'NOTE_OFF_52', 'TIME_SHIFT_50ms', 'NOTE_OFF_70', 'NOTE_ON_60', 'VELOCITY_9', 'NOTE_ON_67', 'VELOCITY_22', 'NOTE_ON_50', 'VELOCITY_19', 'NOTE_ON_70', 'VELOCITY_10', 'TIME_SHIFT_50ms', 'NOTE_OFF_57', 'TIME_SHIFT_30ms', 'TIME_SHIFT_10ms', 'TIME_SHIFT_110ms', 'TIME_SHIFT_10ms', 'TIME_SHIFT_60ms', 'TIME_SHIFT_10ms', 'TIME_SHIFT_50ms', 'NOTE_OFF_50', 'NOTE_ON_47', 'VELOCITY_17', 'NOTE_OFF_70', 'NOTE_ON_64', 'VELOCITY_13', 'NOTE_ON_64', 'VELOCITY_14', 'NOTE_ON_70', 'VELOCITY_8', 'TIME_SHIFT_10ms', 'TIME_SHIFT_10ms', 'NOTE_OFF_67', 'TIME_SHIFT_50ms', 'TIME_SHIFT_110ms', 'TIME_SHIFT_10ms', 'TIME_SHIFT_30ms', 'TIME_SHIFT_10ms', 'NOTE_OFF_64', 'TIME_SHIFT_50ms', 'TIME_SHIFT_30ms', 'TIME_SHIFT_10ms', 'NOTE_OFF_60', 'TIME_SHIFT_10ms', 'TIME_SHIFT_10ms', 'NOTE_ON_83', 'VELOCITY_14', 'NOTE_ON_57', 'VELOCITY_13', 'NOTE_ON_70', 'VELOCITY_15', 'NOTE_ON_51', 'VELOCITY_18', 'NOTE_ON_54', 'VELOCITY_18', 'NOTE_ON_55', 'VELOCITY_7', 'NOTE_OFF_47', 'NOTE_OFF_70', 'NOTE_OFF_51', 'TIME_SHIFT_60ms', 'TIME_SHIFT_10ms', 'NOTE_OFF_64', 'TIME_SHIFT_50ms', 'TIME_SHIFT_80ms', 'TIME_SHIFT_10ms', 'TIME_SHIFT_30ms', 'TIME_SHIFT_10ms', 'NOTE_OFF_55', 'NOTE_OFF_57', 'NOTE_OFF_45', 'NOTE_OFF_52', 'NOTE_OFF_45', 'TIME_SHIFT_80ms', 'TIME_SHIFT_10ms', 'NOTE_ON_60', 'VELOCITY_10', 'NOTE_OFF_70', 'NOTE_ON_60', 'VELOCITY_9', 'NOTE_ON_70', 'VELOCITY_9', 'TIME_SHIFT_150ms', 'NOTE_OFF_70', 'NOTE_ON_70', 'VELOCITY_8', 'TIME_SHIFT_30ms', 'TIME_SHIFT_10ms', 'NOTE_OFF_60', 'TIME_SHIFT_130ms', 'TIME_SHIFT_10ms', 'NOTE_ON_64', 'VELOCITY_10', 'NOTE_OFF_70', 'NOTE_ON_70', 'VELOCITY_10', 'TIME_SHIFT_60ms', 'TIME_SHIFT_10ms', 'NOTE_OFF_64', 'TIME_SHIFT_80ms', 'TIME_SHIFT_10ms', 'NOTE_OFF_70', 'NOTE_OFF_60', 'NOTE_ON_70', 'VELOCITY_13', 'TIME_SHIFT_10ms', 'TIME_SHIFT_10ms', 'NOTE_OFF_72', 'TIME_SHIFT_10ms', 'TIME_SHIFT_10ms', 'TIME_SHIFT_50ms', 'TIME_SHIFT_80ms', 'TIME_SHIFT_10ms', 'NOTE_ON_43', 'VELOCITY_16', 'NOTE_OFF_54', 'NOTE_ON_62', 'VELOCITY_22', 'NOTE_OFF_51', 'NOTE_OFF_70', 'NOTE_OFF_83', 'NOTE_ON_43', 'VELOCITY_16', 'NOTE_ON_62', 'VELOCITY_17', 'NOTE_ON_55', 'VELOCITY_19', 'NOTE_ON_58', 'VELOCITY_17', 'NOTE_ON_62', 'VELOCITY_17', 'NOTE_ON_35', 'VELOCITY_25', 'NOTE_OFF_60', 'NOTE_ON_70', 'VELOCITY_16', 'NOTE_OFF_57', 'NOTE_ON_51', 'VELOCITY_17', 'NOTE_OFF_64', 'TIME_SHIFT_10ms', 'TIME_SHIFT_10ms', 'NOTE_ON_70', 'VELOCITY_25', 'TIME_SHIFT_10ms', 'TIME_SHIFT_10ms', 'TIME_SHIFT_50ms', 'TIME_SHIFT_50ms', 'TIME_SHIFT_30ms', 'TIME_SHIFT_10ms', 'NOTE_OFF_62', 'TIME_SHIFT_130ms', 'TIME_SHIFT_10ms', 'TIME_SHIFT_10ms', 'TIME_SHIFT_10ms', 'NOTE_ON_70', 'VELOCITY_9', 'NOTE_ON_50', 'VELOCITY_18', 'NOTE_OFF_62', 'NOTE_ON_50', 'VELOCITY_12', 'NOTE_ON_36', 'VELOCITY_14', 'NOTE_OFF_35', 'NOTE_OFF_70', 'TIME_SHIFT_50ms', 'TIME_SHIFT_50ms', 'TIME_SHIFT_110ms', 'TIME_SHIFT_10ms', 'TIME_SHIFT_50ms', 'TIME_SHIFT_50ms', 'NOTE_ON_55', 'VELOCITY_14', 'NOTE_OFF_36', 'NOTE_OFF_70', 'NOTE_ON_55', 'VELOCITY_16', 'NOTE_ON_36', 'VELOCITY_14', 'NOTE_ON_70', 'VELOCITY_7', 'TIME_SHIFT_50ms', 'TIME_SHIFT_60ms', 'TIME_SHIFT_10ms', 'TIME_SHIFT_160ms', 'TIME_SHIFT_10ms', 'NOTE_OFF_70', 'TIME_SHIFT_30ms', 'TIME_SHIFT_10ms', 'NOTE_ON_70', 'VELOCITY_17', 'NOTE_ON_62', 'VELOCITY_21', 'NOTE_OFF_36', 'NOTE_OFF_51', 'NOTE_OFF_70', 'NOTE_ON_51', 'VELOCITY_17', 'TIME_SHIFT_10ms', 'TIME_SHIFT_10ms', 'NOTE_ON_67', 'VELOCITY_22', 'TIME_SHIFT_180ms', 'TIME_SHIFT_10ms', 'TIME_SHIFT_80ms', 'TIME_SHIFT_10ms', 'NOTE_OFF_62', 'TIME_SHIFT_10ms', 'TIME_SHIFT_10ms', 'NOTE_OFF_70', 'NOTE_ON_58', 'VELOCITY_13', 'NOTE_ON_43', 'VELOCITY_15', 'NOTE_ON_58', 'VELOCITY_10', 'NOTE_ON_70', 'VELOCITY_9', 'NOTE_ON_62', 'VELOCITY_18', 'TIME_SHIFT_80ms', 'TIME_SHIFT_10ms', 'NOTE_OFF_58', 'NOTE_OFF_50', 'TIME_SHIFT_30ms', 'TIME_SHIFT_10ms', 'NOTE_OFF_62', 'TIME_SHIFT_60ms', 'TIME_SHIFT_10ms', 'NOTE_OFF_55', 'TIME_SHIFT_130ms', 'TIME_SHIFT_10ms', 'NOTE_ON_45', 'VELOCITY_14', 'NOTE_ON_70', 'VELOCITY_9', 'NOTE_ON_62', 'VELOCITY_11', 'NOTE_OFF_43', 'NOTE_OFF_70', 'NOTE_ON_62', 'VELOCITY_20', 'NOTE_ON_58', 'VELOCITY_10', 'TIME_SHIFT_130ms', 'TIME_SHIFT_10ms', 'NOTE_OFF_62', 'TIME_SHIFT_50ms', 'NOTE_OFF_43', 'TIME_SHIFT_110ms', 'TIME_SHIFT_10ms', 'NOTE_OFF_62', 'NOTE_OFF_58', 'TIME_SHIFT_10ms', 'TIME_SHIFT_10ms', 'NOTE_OFF_70', 'NOTE_OFF_51', 'NOTE_OFF_45', 'NOTE_ON_70', 'VELOCITY_13', 'NOTE_ON_67', 'VELOCITY_22', 'NOTE_ON_51', 'VELOCITY_16', 'TIME_SHIFT_130ms', 'TIME_SHIFT_10ms', 'NOTE_OFF_67', 'TIME_SHIFT_60ms', 'TIME_SHIFT_10ms', 'NOTE_OFF_58', 'TIME_SHIFT_110ms', 'TIME_SHIFT_10ms', 'NOTE_ON_58', 'VELOCITY_12', 'NOTE_ON_67', 'VELOCITY_19', 'NOTE_ON_70', 'VELOCITY_10', 'NOTE_OFF_70', 'TIME_SHIFT_230ms', 'TIME_SHIFT_10ms', 'NOTE_OFF_58', 'TIME_SHIFT_10ms', 'TIME_SHIFT_10ms', 'NOTE_OFF_67', 'TIME_SHIFT_50ms', 'NOTE_OFF_67', 'NOTE_ON_62', 'VELOCITY_16', 'TIME_SHIFT_10ms', 'TIME_SHIFT_10ms', 'NOTE_ON_69', 'VELOCITY_14', 'NOTE_ON_62', 'VELOCITY_15', 'NOTE_OFF_70', 'NOTE_ON_70', 'VELOCITY_8', 'TIME_SHIFT_230ms', 'TIME_SHIFT_10ms', 'NOTE_OFF_69', 'TIME_SHIFT_80ms', 'TIME_SHIFT_10ms', 'NOTE_ON_55', 'VELOCITY_16', 'NOTE_ON_70', 'VELOCITY_15', 'NOTE_ON_54', 'VELOCITY_18', 'NOTE_OFF_62', 'NOTE_ON_51', 'VELOCITY_18', 'NOTE_OFF_51', 'NOTE_ON_70', 'VELOCITY_18', 'NOTE_OFF_70', 'TIME_SHIFT_50ms', 'NOTE_OFF_62', 'TIME_SHIFT_160ms', 'TIME_SHIFT_10ms', 'NOTE_OFF_50', 'TIME_SHIFT_30ms', 'TIME_SHIFT_10ms', 'NOTE_OFF_43', 'TIME_SHIFT_30ms', 'TIME_SHIFT_10ms', 'NOTE_OFF_55', 'TIME_SHIFT_30ms', 'TIME_SHIFT_10ms', 'NOTE_ON_70', 'VELOCITY_9', 'NOTE_ON_58', 'VELOCITY_15', 'NOTE_ON_58', 'VELOCITY_13', 'NOTE_OFF_70', 'NOTE_ON_74', 'VELOCITY_21', 'TIME_SHIFT_50ms', 'NOTE_OFF_70', 'NOTE_OFF_55', 'TIME_SHIFT_110ms', 'TIME_SHIFT_10ms', 'NOTE_OFF_70', 'NOTE_ON_70', 'VELOCITY_8', 'TIME_SHIFT_100ms', 'NOTE_OFF_74', 'TIME_SHIFT_10ms', 'TIME_SHIFT_10ms', 'NOTE_ON_67', 'VELOCITY_19', 'TIME_SHIFT_30ms', 'TIME_SHIFT_10ms', 'NOTE_ON_62', 'VELOCITY_7', 'NOTE_OFF_70', 'NOTE_ON_70', 'VELOCITY_10', 'TIME_SHIFT_10ms', 'TIME_SHIFT_10ms', 'NOTE_OFF_58', 'TIME_SHIFT_80ms', 'TIME_SHIFT_10ms', 'NOTE_OFF_62', 'TIME_SHIFT_50ms', 'NOTE_OFF_58', 'TIME_SHIFT_10ms', 'TIME_SHIFT_10ms', 'NOTE_ON_70', 'VELOCITY_13', 'NOTE_OFF_70', 'TIME_SHIFT_60ms', 'TIME_SHIFT_10ms', 'TIME_SHIFT_50ms', 'NOTE_OFF_67', 'TIME_SHIFT_10ms', 'TIME_SHIFT_10ms', 'NOTE_ON_69', 'VELOCITY_22', 'TIME_SHIFT_10ms', 'TIME_SHIFT_10ms', 'NOTE_ON_65', 'VELOCITY_18', 'NOTE_OFF_55', 'NOTE_OFF_58', 'NOTE_OFF_70', 'NOTE_OFF_62', 'NOTE_OFF_54', 'NOTE_ON_62', 'VELOCITY_21', 'NOTE_OFF_51', 'NOTE_ON_50', 'VELOCITY_22', 'NOTE_ON_50', 'VELOCITY_19', 'NOTE_ON_35', 'VELOCITY_25', 'NOTE_ON_57', 'VELOCITY_19', 'NOTE_ON_70', 'VELOCITY_16', 'NOTE_ON_51', 'VELOCITY_17', 'TIME_SHIFT_50ms', 'TIME_SHIFT_10ms', 'TIME_SHIFT_10ms', 'TIME_SHIFT_250ms', 'NOTE_ON_53', 'VELOCITY_16', 'NOTE_ON_70', 'VELOCITY_9', 'NOTE_ON_57', 'VELOCITY_9', 'NOTE_OFF_70', 'NOTE_OFF_35', 'NOTE_ON_36', 'VELOCITY_14', 'TIME_SHIFT_200ms', 'NOTE_OFF_57', 'TIME_SHIFT_110ms', 'TIME_SHIFT_10ms', 'NOTE_ON_57', 'VELOCITY_15', 'NOTE_ON_65', 'VELOCITY_13', 'NOTE_ON_70', 'VELOCITY_7', 'NOTE_OFF_36', 'NOTE_OFF_70', 'NOTE_ON_36', 'VELOCITY_14', 'TIME_SHIFT_280ms', 'TIME_SHIFT_10ms', 'NOTE_OFF_57', 'TIME_SHIFT_10ms', 'TIME_SHIFT_10ms', 'NOTE_OFF_69', 'TIME_SHIFT_10ms', 'TIME_SHIFT_10ms', 'NOTE_ON_70', 'VELOCITY_17', 'NOTE_OFF_51', 'NOTE_ON_65', 'VELOCITY_20', 'NOTE_ON_51', 'VELOCITY_17', 'NOTE_OFF_36', 'NOTE_ON_65', 'VELOCITY_22', 'NOTE_OFF_70', 'TIME_SHIFT_230ms', 'TIME_SHIFT_10ms', 'NOTE_OFF_65', 'NOTE_OFF_65', 'TIME_SHIFT_80ms', 'TIME_SHIFT_10ms', 'NOTE_OFF_70', 'NOTE_ON_57', 'VELOCITY_13', 'NOTE_ON_70', 'VELOCITY_9', 'NOTE_ON_43', 'VELOCITY_15', 'NOTE_ON_62', 'VELOCITY_14', 'TIME_SHIFT_260ms', 'TIME_SHIFT_10ms', 'TIME_SHIFT_10ms', 'TIME_SHIFT_10ms', 'NOTE_OFF_62', 'NOTE_OFF_50', 'TIME_SHIFT_30ms', 'TIME_SHIFT_10ms', 'NOTE_ON_57', 'VELOCITY_10', 'NOTE_ON_45', 'VELOCITY_14', 'NOTE_OFF_53', 'NOTE_ON_70', 'VELOCITY_9', 'NOTE_ON_64', 'VELOCITY_18', 'NOTE_OFF_70', 'NOTE_OFF_43', 'TIME_SHIFT_30ms', 'TIME_SHIFT_10ms', 'TIME_SHIFT_80ms', 'TIME_SHIFT_10ms', 'TIME_SHIFT_60ms', 'TIME_SHIFT_10ms', 'TIME_SHIFT_30ms', 'TIME_SHIFT_10ms', 'NOTE_OFF_57', 'TIME_SHIFT_30ms', 'TIME_SHIFT_10ms', 'TIME_SHIFT_50ms', 'TIME_SHIFT_10ms', 'TIME_SHIFT_10ms', 'NOTE_ON_70', 'VELOCITY_13', 'NOTE_OFF_45', 'NOTE_OFF_51', 'NOTE_OFF_70', 'NOTE_ON_53', 'VELOCITY_13', 'NOTE_ON_51', 'VELOCITY_16', 'TIME_SHIFT_10ms', 'TIME_SHIFT_10ms', 'TIME_SHIFT_30ms', 'TIME_SHIFT_10ms', 'TIME_SHIFT_10ms', 'TIME_SHIFT_10ms', 'NOTE_OFF_64', 'TIME_SHIFT_10ms', 'TIME_SHIFT_10ms', 'TIME_SHIFT_80ms', 'TIME_SHIFT_10ms', 'TIME_SHIFT_100ms', 'TIME_SHIFT_50ms', 'NOTE_OFF_70', 'NOTE_ON_50', 'VELOCITY_19', 'NOTE_ON_65', 'VELOCITY_9', 'NOTE_ON_70', 'VELOCITY_10', 'NOTE_ON_57', 'VELOCITY_13', 'TIME_SHIFT_30ms', 'TIME_SHIFT_10ms', 'TIME_SHIFT_10ms', 'TIME_SHIFT_10ms', 'NOTE_OFF_57', 'TIME_SHIFT_60ms', 'TIME_SHIFT_10ms', 'TIME_SHIFT_30ms', 'TIME_SHIFT_10ms', 'TIME_SHIFT_50ms', 'TIME_SHIFT_50ms', 'NOTE_OFF_65', 'TIME_SHIFT_10ms', 'TIME_SHIFT_10ms', 'NOTE_OFF_53', 'TIME_SHIFT_10ms', 'TIME_SHIFT_10ms', 'TIME_SHIFT_10ms', 'TIME_SHIFT_10ms', 'NOTE_OFF_70', 'NOTE_OFF_57', 'NOTE_OFF_50', 'NOTE_ON_62', 'VELOCITY_16', 'NOTE_ON_70', 'VELOCITY_8', 'NOTE_ON_47', 'VELOCITY_17', 'NOTE_ON_65', 'VELOCITY_23', 'TIME_SHIFT_10ms', 'TIME_SHIFT_10ms', 'TIME_SHIFT_30ms', 'TIME_SHIFT_10ms', 'TIME_SHIFT_30ms', 'TIME_SHIFT_10ms', 'TIME_SHIFT_30ms', 'TIME_SHIFT_10ms', 'TIME_SHIFT_50ms', 'TIME_SHIFT_150ms', 'NOTE_OFF_51', 'NOTE_ON_83', 'VELOCITY_14', 'NOTE_OFF_70', 'NOTE_ON_53', 'VELOCITY_5', 'NOTE_OFF_47', 'NOTE_ON_54', 'VELOCITY_18', 'NOTE_ON_51', 'VELOCITY_18', 'NOTE_ON_70', 'VELOCITY_15', 'TIME_SHIFT_30ms', 'TIME_SHIFT_10ms', 'TIME_SHIFT_30ms', 'TIME_SHIFT_10ms', 'TIME_SHIFT_30ms', 'TIME_SHIFT_10ms', 'NOTE_OFF_53', 'TIME_SHIFT_30ms', 'TIME_SHIFT_10ms', 'TIME_SHIFT_30ms', 'TIME_SHIFT_10ms', 'NOTE_OFF_50', 'TIME_SHIFT_30ms', 'TIME_SHIFT_10ms', 'TIME_SHIFT_50ms', 'TIME_SHIFT_30ms', 'TIME_SHIFT_10ms', 'NOTE_OFF_62', 'TIME_SHIFT_10ms', 'TIME_SHIFT_10ms', 'TIME_SHIFT_10ms', 'TIME_SHIFT_10ms', 'NOTE_ON_57', 'VELOCITY_14', 'NOTE_ON_57', 'VELOCITY_6', 'NOTE_OFF_70', 'NOTE_ON_70', 'VELOCITY_9', 'TIME_SHIFT_10ms', 'TIME_SHIFT_10ms', 'TIME_SHIFT_30ms', 'TIME_SHIFT_10ms', 'TIME_SHIFT_50ms', 'TIME_SHIFT_60ms', 'TIME_SHIFT_10ms', 'NOTE_ON_70', 'VELOCITY_8', 'NOTE_OFF_70', 'TIME_SHIFT_10ms', 'TIME_SHIFT_10ms', 'TIME_SHIFT_110ms', 'TIME_SHIFT_10ms', 'NOTE_OFF_65', 'NOTE_OFF_65', 'TIME_SHIFT_10ms', 'TIME_SHIFT_10ms', 'NOTE_OFF_70', 'NOTE_ON_70', 'VELOCITY_10', 'NOTE_ON_62', 'VELOCITY_17', 'TIME_SHIFT_30ms', 'TIME_SHIFT_10ms', 'NOTE_ON_69', 'VELOCITY_20', 'TIME_SHIFT_110ms', 'TIME_SHIFT_10ms', 'NOTE_OFF_57', 'TIME_SHIFT_10ms', 'TIME_SHIFT_10ms', 'NOTE_ON_70', 'VELOCITY_13', 'NOTE_OFF_70', 'NOTE_OFF_62', 'TIME_SHIFT_30ms', 'TIME_SHIFT_10ms', 'NOTE_OFF_69', 'TIME_SHIFT_10ms', 'TIME_SHIFT_10ms', 'TIME_SHIFT_50ms', 'NOTE_OFF_57', 'TIME_SHIFT_50ms', 'NOTE_OFF_83', 'NOTE_OFF_51', 'NOTE_OFF_62', 'NOTE_OFF_65', 'NOTE_OFF_70', 'NOTE_OFF_54', 'NOTE_OFF_57', 'NOTE_ON_70', 'VELOCITY_16', 'NOTE_ON_52', 'VELOCITY_23', 'NOTE_ON_68', 'VELOCITY_27', 'NOTE_ON_35', 'VELOCITY_25', 'NOTE_ON_52', 'VELOCITY_18', 'NOTE_ON_56', 'VELOCITY_17', 'NOTE_ON_59', 'VELOCITY_19', 'NOTE_ON_64', 'VELOCITY_16', 'NOTE_ON_51', 'VELOCITY_17', 'TIME_SHIFT_50ms', 'TIME_SHIFT_10ms', 'TIME_SHIFT_10ms', 'TIME_SHIFT_250ms', 'NOTE_OFF_70', 'NOTE_OFF_35', 'NOTE_ON_36', 'VELOCITY_14', 'NOTE_ON_70', 'VELOCITY_9', 'NOTE_ON_56', 'VELOCITY_15', 'NOTE_ON_56', 'VELOCITY_10', 'TIME_SHIFT_310ms', 'TIME_SHIFT_10ms', 'NOTE_ON_59', 'VELOCITY_11', 'NOTE_ON_36', 'VELOCITY_14', 'NOTE_OFF_36', 'NOTE_OFF_70', 'NOTE_ON_59', 'VELOCITY_16', 'NOTE_ON_70', 'VELOCITY_7', 'TIME_SHIFT_310ms', 'TIME_SHIFT_10ms', 'NOTE_OFF_51', 'NOTE_OFF_59', 'NOTE_OFF_36', 'NOTE_ON_64', 'VELOCITY_20', 'NOTE_ON_70', 'VELOCITY_17', 'NOTE_OFF_70', 'NOTE_ON_51', 'VELOCITY_17', 'TIME_SHIFT_10ms', 'TIME_SHIFT_10ms', 'NOTE_ON_64', 'VELOCITY_21', 'NOTE_OFF_68', 'TIME_SHIFT_80ms', 'TIME_SHIFT_10ms', 'NOTE_OFF_59', 'TIME_SHIFT_110ms', 'TIME_SHIFT_10ms', 'NOTE_OFF_64', 'TIME_SHIFT_100ms', 'NOTE_ON_64', 'VELOCITY_18', 'NOTE_OFF_70', 'NOTE_ON_59', 'VELOCITY_11', 'NOTE_ON_43', 'VELOCITY_15', 'NOTE_ON_70', 'VELOCITY_9', 'TIME_SHIFT_230ms', 'TIME_SHIFT_10ms', 'NOTE_OFF_59', 'TIME_SHIFT_30ms', 'TIME_SHIFT_10ms', 'NOTE_OFF_64', 'TIME_SHIFT_30ms', 'TIME_SHIFT_10ms', 'NOTE_OFF_52', 'NOTE_OFF_52', 'NOTE_OFF_56', 'NOTE_OFF_56', 'TIME_SHIFT_10ms', 'TIME_SHIFT_10ms', 'NOTE_ON_59', 'VELOCITY_11', 'NOTE_ON_70', 'VELOCITY_9', 'NOTE_OFF_43', 'NOTE_OFF_70', 'NOTE_ON_68', 'VELOCITY_17', 'NOTE_ON_45', 'VELOCITY_14', 'TIME_SHIFT_110ms', 'TIME_SHIFT_10ms', 'NOTE_OFF_68', 'TIME_SHIFT_200ms', 'NOTE_ON_56', 'VELOCITY_10', 'NOTE_OFF_45', 'NOTE_OFF_51', 'NOTE_ON_70', 'VELOCITY_13', 'NOTE_OFF_70', 'NOTE_ON_51', 'VELOCITY_16', 'TIME_SHIFT_100ms', 'NOTE_OFF_59', 'TIME_SHIFT_210ms', 'TIME_SHIFT_10ms', 'NOTE_ON_59', 'VELOCITY_13', 'NOTE_ON_70', 'VELOCITY_10', 'NOTE_ON_62', 'VELOCITY_14', 'NOTE_OFF_70', 'TIME_SHIFT_160ms', 'TIME_SHIFT_10ms', 'NOTE_OFF_64', 'TIME_SHIFT_100ms', 'NOTE_OFF_56', 'TIME_SHIFT_10ms', 'TIME_SHIFT_10ms', 'NOTE_OFF_62', 'NOTE_ON_64', 'VELOCITY_21', 'TIME_SHIFT_30ms', 'TIME_SHIFT_10ms', 'NOTE_ON_71', 'VELOCITY_20', 'NOTE_ON_70', 'VELOCITY_8', 'NOTE_OFF_70', 'NOTE_ON_59', 'VELOCITY_12', 'TIME_SHIFT_80ms', 'TIME_SHIFT_10ms', 'NOTE_OFF_59', 'TIME_SHIFT_210ms', 'TIME_SHIFT_10ms', 'NOTE_OFF_64', 'TIME_SHIFT_10ms', 'TIME_SHIFT_10ms', 'NOTE_OFF_51', 'NOTE_ON_56', 'VELOCITY_13', 'NOTE_OFF_70', 'NOTE_ON_54', 'VELOCITY_18', 'NOTE_ON_71', 'VELOCITY_23', 'NOTE_ON_51', 'VELOCITY_18', 'NOTE_ON_56', 'VELOCITY_7', 'NOTE_ON_70', 'VELOCITY_15', 'TIME_SHIFT_50ms', 'NOTE_OFF_59', 'TIME_SHIFT_150ms', 'NOTE_OFF_56', 'TIME_SHIFT_100ms', 'NOTE_ON_74', 'VELOCITY_22', 'TIME_SHIFT_10ms', 'TIME_SHIFT_10ms', 'NOTE_ON_59', 'VELOCITY_11', 'NOTE_OFF_70', 'NOTE_ON_70', 'VELOCITY_9', 'NOTE_OFF_71', 'NOTE_ON_59', 'VELOCITY_13', 'TIME_SHIFT_80ms', 'TIME_SHIFT_10ms', 'NOTE_OFF_56', 'TIME_SHIFT_60ms', 'TIME_SHIFT_10ms', 'NOTE_OFF_70', 'NOTE_ON_70', 'VELOCITY_8', 'TIME_SHIFT_110ms', 'TIME_SHIFT_10ms', 'NOTE_OFF_59', 'NOTE_OFF_74', 'TIME_SHIFT_30ms', 'TIME_SHIFT_10ms', 'NOTE_ON_71', 'VELOCITY_20', 'TIME_SHIFT_10ms', 'TIME_SHIFT_10ms', 'NOTE_OFF_70', 'NOTE_ON_70', 'VELOCITY_10', 'NOTE_ON_62', 'VELOCITY_7', 'TIME_SHIFT_150ms', 'NOTE_OFF_70', 'NOTE_ON_70', 'VELOCITY_13', 'TIME_SHIFT_10ms', 'TIME_SHIFT_10ms', 'TIME_SHIFT_50ms', 'TIME_SHIFT_10ms', 'TIME_SHIFT_10ms', 'NOTE_OFF_62', 'TIME_SHIFT_50ms', 'NOTE_OFF_71', 'TIME_SHIFT_30ms', 'TIME_SHIFT_10ms', 'NOTE_OFF_54', 'NOTE_ON_70', 'VELOCITY_16', 'NOTE_OFF_51', 'NOTE_OFF_56', 'NOTE_OFF_59', 'NOTE_OFF_70', 'NOTE_OFF_71', 'NOTE_OFF_64', 'NOTE_ON_57', 'VELOCITY_22', 'NOTE_ON_45', 'VELOCITY_25', 'NOTE_ON_73', 'VELOCITY_22', 'NOTE_ON_45', 'VELOCITY_17', 'NOTE_ON_51', 'VELOCITY_17', 'NOTE_ON_35', 'VELOCITY_25', 'NOTE_ON_64', 'VELOCITY_18', 'NOTE_ON_61', 'VELOCITY_19', 'TIME_SHIFT_50ms', 'TIME_SHIFT_60ms', 'TIME_SHIFT_10ms', 'NOTE_OFF_59', 'TIME_SHIFT_180ms', 'TIME_SHIFT_10ms', 'NOTE_OFF_70', 'NOTE_ON_36', 'VELOCITY_14', 'NOTE_OFF_35', 'NOTE_ON_70', 'VELOCITY_9', 'NOTE_ON_52', 'VELOCITY_14', 'NOTE_ON_52', 'VELOCITY_18', 'TIME_SHIFT_310ms', 'TIME_SHIFT_10ms', 'NOTE_ON_36', 'VELOCITY_14', 'NOTE_ON_70', 'VELOCITY_7', 'NOTE_OFF_36', 'NOTE_ON_55', 'VELOCITY_19', 'NOTE_ON_57', 'VELOCITY_11', 'NOTE_OFF_70', 'TIME_SHIFT_310ms', 'TIME_SHIFT_10ms', 'NOTE_ON_51', 'VELOCITY_17', 'NOTE_OFF_36', 'NOTE_OFF_51', 'NOTE_ON_70', 'VELOCITY_17', 'NOTE_OFF_70', 'TIME_SHIFT_250ms', 'NOTE_OFF_57', 'TIME_SHIFT_50ms', 'TIME_SHIFT_10ms', 'TIME_SHIFT_10ms', 'NOTE_ON_59', 'VELOCITY_17', 'NOTE_ON_43', 'VELOCITY_15', 'NOTE_OFF_70', 'NOTE_ON_61', 'VELOCITY_16', 'NOTE_ON_70', 'VELOCITY_9', 'TIME_SHIFT_80ms', 'TIME_SHIFT_10ms', 'TIME_SHIFT_150ms', 'TIME_SHIFT_50ms', 'TIME_SHIFT_30ms', 'TIME_SHIFT_10ms', 'NOTE_OFF_43', 'NOTE_ON_70', 'VELOCITY_9', 'NOTE_ON_57', 'VELOCITY_12', 'NOTE_ON_45', 'VELOCITY_14', 'NOTE_ON_61', 'VELOCITY_15', 'NOTE_OFF_70', 'TIME_SHIFT_10ms', 'TIME_SHIFT_10ms', 'NOTE_OFF_61', 'TIME_SHIFT_60ms', 'TIME_SHIFT_10ms', 'TIME_SHIFT_60ms', 'TIME_SHIFT_10ms', 'NOTE_OFF_57', 'TIME_SHIFT_10ms', 'TIME_SHIFT_10ms', 'TIME_SHIFT_50ms', 'TIME_SHIFT_50ms', 'NOTE_OFF_59', 'TIME_SHIFT_30ms', 'TIME_SHIFT_10ms', 'TIME_SHIFT_10ms', 'TIME_SHIFT_10ms', 'NOTE_ON_69', 'VELOCITY_9', 'NOTE_OFF_70', 'NOTE_OFF_45', 'NOTE_ON_70', 'VELOCITY_13', 'NOTE_OFF_51', 'NOTE_ON_51', 'VELOCITY_16', 'NOTE_ON_64', 'VELOCITY_18', 'TIME_SHIFT_10ms', 'TIME_SHIFT_10ms', 'NOTE_OFF_61', 'TIME_SHIFT_110ms', 'TIME_SHIFT_10ms', 'NOTE_OFF_69', 'TIME_SHIFT_160ms', 'TIME_SHIFT_10ms', 'NOTE_OFF_52', 'TIME_SHIFT_10ms', 'TIME_SHIFT_10ms', 'NOTE_ON_69', 'VELOCITY_2', 'NOTE_OFF_70', 'NOTE_ON_50', 'VELOCITY_19', 'NOTE_ON_57', 'VELOCITY_12', 'NOTE_ON_70', 'VELOCITY_10', 'TIME_SHIFT_10ms', 'TIME_SHIFT_10ms', 'NOTE_OFF_64', 'TIME_SHIFT_50ms', 'NOTE_OFF_57', 'TIME_SHIFT_10ms', 'TIME_SHIFT_10ms', 'TIME_SHIFT_80ms', 'TIME_SHIFT_10ms', 'NOTE_OFF_69', 'TIME_SHIFT_100ms', 'TIME_SHIFT_50ms', 'NOTE_OFF_70', 'NOTE_ON_64', 'VELOCITY_10', 'NOTE_ON_47', 'VELOCITY_17', 'NOTE_ON_70', 'VELOCITY_8', 'NOTE_OFF_50', 'NOTE_ON_64', 'VELOCITY_13', 'TIME_SHIFT_60ms', 'TIME_SHIFT_10ms', 'TIME_SHIFT_10ms', 'TIME_SHIFT_10ms', 'NOTE_OFF_55', 'TIME_SHIFT_30ms', 'TIME_SHIFT_10ms', 'TIME_SHIFT_10ms', 'TIME_SHIFT_10ms', 'NOTE_OFF_64', 'TIME_SHIFT_50ms', 'TIME_SHIFT_60ms', 'TIME_SHIFT_10ms', 'TIME_SHIFT_60ms', 'TIME_SHIFT_10ms', 'NOTE_OFF_51', 'NOTE_ON_38', 'VELOCITY_24', 'NOTE_ON_54', 'VELOCITY_18', 'NOTE_ON_70', 'VELOCITY_15', 'NOTE_OFF_70', 'NOTE_OFF_47', 'NOTE_ON_83', 'VELOCITY_14', 'NOTE_ON_51', 'VELOCITY_18', 'NOTE_ON_57', 'VELOCITY_29', 'TIME_SHIFT_50ms', 'NOTE_OFF_64', 'TIME_SHIFT_10ms', 'TIME_SHIFT_10ms', 'TIME_SHIFT_60ms', 'TIME_SHIFT_10ms', 'NOTE_OFF_57', 'TIME_SHIFT_30ms', 'TIME_SHIFT_10ms', 'TIME_SHIFT_50ms', 'TIME_SHIFT_30ms', 'TIME_SHIFT_10ms', 'NOTE_OFF_52', 'TIME_SHIFT_30ms', 'TIME_SHIFT_10ms', 'TIME_SHIFT_10ms', 'TIME_SHIFT_10ms', 'NOTE_OFF_45', 'TIME_SHIFT_10ms', 'TIME_SHIFT_10ms', 'NOTE_ON_57', 'VELOCITY_9', 'NOTE_ON_70', 'VELOCITY_9', 'NOTE_ON_55', 'VELOCITY_29', 'NOTE_OFF_38', 'NOTE_ON_61', 'VELOCITY_15', 'NOTE_OFF_70', 'NOTE_ON_35', 'VELOCITY_21', 'TIME_SHIFT_60ms', 'TIME_SHIFT_10ms', 'NOTE_OFF_61', 'TIME_SHIFT_50ms', 'NOTE_OFF_55', 'TIME_SHIFT_30ms', 'TIME_SHIFT_10ms', 'NOTE_ON_70', 'VELOCITY_8', 'NOTE_OFF_70', 'TIME_SHIFT_130ms', 'TIME_SHIFT_10ms', 'NOTE_OFF_57', 'TIME_SHIFT_30ms', 'TIME_SHIFT_10ms', 'NOTE_OFF_45', 'NOTE_ON_35', 'VELOCITY_28', 'NOTE_ON_70', 'VELOCITY_10', 'NOTE_ON_53', 'VELOCITY_31', 'NOTE_OFF_35', 'NOTE_ON_61', 'VELOCITY_13', 'NOTE_OFF_70', 'TIME_SHIFT_50ms', 'NOTE_OFF_61', 'TIME_SHIFT_50ms', 'NOTE_OFF_53', 'NOTE_OFF_73', 'TIME_SHIFT_30ms', 'TIME_SHIFT_10ms', 'TIME_SHIFT_10ms', 'TIME_SHIFT_10ms', 'NOTE_ON_70', 'VELOCITY_13', 'NOTE_OFF_70', 'TIME_SHIFT_160ms', 'TIME_SHIFT_10ms', 'NOTE_OFF_61', 'NOTE_ON_57', 'VELOCITY_13', 'NOTE_OFF_51', 'NOTE_OFF_54', 'NOTE_OFF_64', 'NOTE_OFF_57', 'NOTE_OFF_70', 'NOTE_ON_26', 'VELOCITY_23', 'NOTE_ON_50', 'VELOCITY_19', 'NOTE_ON_65', 'VELOCITY_17', 'NOTE_OFF_83', 'NOTE_ON_50', 'VELOCITY_19', 'NOTE_ON_65', 'VELOCITY_18', 'NOTE_ON_57', 'VELOCITY_17', 'NOTE_ON_65', 'VELOCITY_17', 'NOTE_ON_62', 'VELOCITY_20', 'NOTE_ON_42', 'VELOCITY_25', 'NOTE_ON_35', 'VELOCITY_25', 'TIME_SHIFT_10ms', 'TIME_SHIFT_10ms', 'NOTE_ON_77', 'VELOCITY_29', 'TIME_SHIFT_50ms', 'TIME_SHIFT_160ms', 'TIME_SHIFT_10ms', 'NOTE_OFF_65', 'TIME_SHIFT_50ms', 'NOTE_OFF_65', 'TIME_SHIFT_30ms', 'TIME_SHIFT_10ms', 'NOTE_ON_42', 'VELOCITY_5', 'NOTE_ON_57', 'VELOCITY_14', 'NOTE_ON_57', 'VELOCITY_17', 'NOTE_OFF_42', 'TIME_SHIFT_50ms', 'NOTE_OFF_35', 'TIME_SHIFT_260ms', 'TIME_SHIFT_10ms', 'NOTE_ON_35', 'VELOCITY_25', 'NOTE_OFF_26', 'NOTE_ON_62', 'VELOCITY_16', 'NOTE_ON_42', 'VELOCITY_11', 'NOTE_OFF_42', 'NOTE_ON_62', 'VELOCITY_22', 'NOTE_ON_26', 'VELOCITY_22', 'TIME_SHIFT_150ms', 'NOTE_OFF_35', 'TIME_SHIFT_60ms', 'TIME_SHIFT_10ms', 'NOTE_OFF_26', 'TIME_SHIFT_60ms', 'TIME_SHIFT_10ms', 'NOTE_OFF_62', 'TIME_SHIFT_10ms', 'TIME_SHIFT_10ms', 'NOTE_OFF_77', 'TIME_SHIFT_10ms', 'TIME_SHIFT_10ms', 'NOTE_OFF_42', 'NOTE_OFF_57', 'NOTE_ON_42', 'VELOCITY_25', 'NOTE_ON_38', 'VELOCITY_22', 'TIME_SHIFT_10ms', 'TIME_SHIFT_10ms', 'NOTE_ON_74', 'VELOCITY_22', 'TIME_SHIFT_80ms', 'TIME_SHIFT_10ms', 'NOTE_OFF_57', 'TIME_SHIFT_10ms', 'TIME_SHIFT_10ms', 'NOTE_OFF_62', 'TIME_SHIFT_30ms', 'TIME_SHIFT_10ms', 'NOTE_OFF_38', 'TIME_SHIFT_50ms', 'NOTE_OFF_57', 'TIME_SHIFT_110ms', 'TIME_SHIFT_10ms', 'NOTE_ON_42', 'VELOCITY_15', 'NOTE_OFF_42', 'NOTE_ON_65', 'VELOCITY_19', 'NOTE_ON_65', 'VELOCITY_18', 'TIME_SHIFT_180ms', 'TIME_SHIFT_10ms', 'TIME_SHIFT_30ms', 'TIME_SHIFT_10ms', 'NOTE_OFF_65', 'TIME_SHIFT_50ms', 'TIME_SHIFT_30ms', 'TIME_SHIFT_10ms', 'NOTE_ON_35', 'VELOCITY_25', 'NOTE_ON_57', 'VELOCITY_14', 'NOTE_ON_42', 'VELOCITY_13', 'NOTE_ON_57', 'VELOCITY_15', 'NOTE_ON_26', 'VELOCITY_22', 'NOTE_OFF_42', 'TIME_SHIFT_10ms', 'TIME_SHIFT_10ms', 'TIME_SHIFT_30ms', 'TIME_SHIFT_10ms', 'NOTE_OFF_65', 'TIME_SHIFT_50ms', 'TIME_SHIFT_30ms', 'TIME_SHIFT_10ms', 'NOTE_OFF_35', 'TIME_SHIFT_50ms', 'NOTE_OFF_26', 'TIME_SHIFT_50ms', 'TIME_SHIFT_80ms', 'TIME_SHIFT_10ms', 'NOTE_ON_35', 'VELOCITY_25', 'NOTE_ON_42', 'VELOCITY_27', 'NOTE_ON_62', 'VELOCITY_18', 'NOTE_ON_26', 'VELOCITY_22', 'NOTE_OFF_42', 'TIME_SHIFT_50ms', 'TIME_SHIFT_30ms', 'TIME_SHIFT_10ms', 'NOTE_OFF_62', 'TIME_SHIFT_10ms', 'TIME_SHIFT_10ms', 'TIME_SHIFT_10ms', 'TIME_SHIFT_10ms', 'NOTE_OFF_57', 'TIME_SHIFT_10ms', 'TIME_SHIFT_10ms', 'TIME_SHIFT_50ms', 'TIME_SHIFT_80ms', 'TIME_SHIFT_10ms', 'NOTE_OFF_35', 'TIME_SHIFT_50ms', 'NOTE_ON_69', 'VELOCITY_22', 'NOTE_ON_65', 'VELOCITY_15', 'NOTE_OFF_42', 'NOTE_ON_42', 'VELOCITY_13', 'TIME_SHIFT_10ms', 'TIME_SHIFT_10ms', 'NOTE_OFF_57', 'TIME_SHIFT_110ms', 'TIME_SHIFT_10ms', 'TIME_SHIFT_100ms', 'NOTE_OFF_26', 'TIME_SHIFT_10ms', 'TIME_SHIFT_10ms', 'NOTE_OFF_74', 'TIME_SHIFT_10ms', 'TIME_SHIFT_10ms', 'NOTE_ON_69', 'VELOCITY_23', 'NOTE_OFF_65', 'TIME_SHIFT_30ms', 'TIME_SHIFT_10ms', 'NOTE_OFF_69', 'TIME_SHIFT_10ms', 'TIME_SHIFT_10ms', 'NOTE_OFF_42', 'NOTE_ON_62', 'VELOCITY_19', 'NOTE_ON_57', 'VELOCITY_13', 'NOTE_ON_26', 'VELOCITY_22', 'NOTE_ON_42', 'VELOCITY_13', 'TIME_SHIFT_160ms', 'TIME_SHIFT_10ms', 'TIME_SHIFT_30ms', 'TIME_SHIFT_10ms', 'NOTE_OFF_26', 'TIME_SHIFT_10ms', 'TIME_SHIFT_10ms', 'NOTE_OFF_50', 'NOTE_OFF_57', 'TIME_SHIFT_50ms', 'NOTE_OFF_69', 'TIME_SHIFT_50ms', 'NOTE_ON_38', 'VELOCITY_21', 'NOTE_ON_46', 'VELOCITY_19', 'NOTE_ON_50', 'VELOCITY_3', 'NOTE_OFF_42', 'NOTE_ON_77', 'VELOCITY_23', 'NOTE_ON_62', 'VELOCITY_15', 'TIME_SHIFT_50ms', 'NOTE_OFF_62', 'TIME_SHIFT_10ms', 'TIME_SHIFT_10ms', 'TIME_SHIFT_150ms', 'NOTE_OFF_38', 'TIME_SHIFT_10ms', 'TIME_SHIFT_10ms', 'NOTE_OFF_50', 'TIME_SHIFT_80ms', 'TIME_SHIFT_10ms', 'NOTE_ON_57', 'VELOCITY_16', 'NOTE_ON_42', 'VELOCITY_18', 'NOTE_ON_57', 'VELOCITY_11', 'NOTE_ON_26', 'VELOCITY_20', 'NOTE_OFF_46', 'TIME_SHIFT_10ms', 'TIME_SHIFT_10ms', 'NOTE_ON_79', 'VELOCITY_21', 'TIME_SHIFT_10ms', 'TIME_SHIFT_10ms', 'NOTE_OFF_62', 'TIME_SHIFT_10ms', 'TIME_SHIFT_10ms', 'TIME_SHIFT_10ms', 'TIME_SHIFT_10ms', 'NOTE_OFF_77', 'TIME_SHIFT_30ms', 'TIME_SHIFT_10ms', 'NOTE_OFF_50', 'TIME_SHIFT_60ms', 'TIME_SHIFT_10ms', 'NOTE_OFF_57', 'TIME_SHIFT_50ms', 'TIME_SHIFT_60ms', 'TIME_SHIFT_10ms', 'NOTE_OFF_26', 'NOTE_OFF_79', 'TIME_SHIFT_30ms', 'TIME_SHIFT_10ms', 'NOTE_OFF_42', 'NOTE_ON_62', 'VELOCITY_19', 'NOTE_ON_29', 'VELOCITY_20', 'NOTE_ON_35', 'VELOCITY_25', 'NOTE_ON_42', 'VELOCITY_17', 'NOTE_ON_74', 'VELOCITY_21', 'TIME_SHIFT_100ms', 'TIME_SHIFT_50ms', 'NOTE_OFF_35', 'TIME_SHIFT_10ms', 'TIME_SHIFT_10ms', 'NOTE_OFF_29', 'TIME_SHIFT_10ms', 'TIME_SHIFT_10ms', 'NOTE_OFF_57', 'TIME_SHIFT_10ms', 'TIME_SHIFT_10ms', 'TIME_SHIFT_10ms', 'TIME_SHIFT_10ms', 'TIME_SHIFT_50ms', 'NOTE_OFF_62', 'TIME_SHIFT_30ms', 'TIME_SHIFT_10ms', 'NOTE_OFF_74', 'TIME_SHIFT_10ms', 'TIME_SHIFT_10ms', 'NOTE_OFF_57', 'NOTE_OFF_65', 'NOTE_OFF_42', 'NOTE_ON_35', 'VELOCITY_25', 'NOTE_ON_60', 'VELOCITY_21', 'NOTE_ON_64', 'VELOCITY_22', 'NOTE_ON_33', 'VELOCITY_21', 'NOTE_ON_45', 'VELOCITY_20', 'NOTE_ON_42', 'VELOCITY_25', 'NOTE_ON_57', 'VELOCITY_20', 'NOTE_OFF_62', 'NOTE_ON_45', 'VELOCITY_16', 'NOTE_ON_64', 'VELOCITY_18', 'NOTE_ON_64', 'VELOCITY_17', 'TIME_SHIFT_10ms', 'TIME_SHIFT_10ms', 'NOTE_ON_76', 'VELOCITY_22', 'TIME_SHIFT_30ms', 'TIME_SHIFT_10ms', 'TIME_SHIFT_100ms', 'NOTE_OFF_35', 'TIME_SHIFT_10ms', 'TIME_SHIFT_10ms', 'NOTE_OFF_64', 'TIME_SHIFT_110ms', 'TIME_SHIFT_10ms', 'NOTE_OFF_64', 'TIME_SHIFT_30ms', 'TIME_SHIFT_10ms', 'NOTE_ON_52', 'VELOCITY_18', 'NOTE_ON_60', 'VELOCITY_13', 'NOTE_OFF_42', 'NOTE_ON_42', 'VELOCITY_5', 'NOTE_ON_52', 'VELOCITY_8', 'TIME_SHIFT_50ms', 'NOTE_OFF_35', 'TIME_SHIFT_180ms', 'TIME_SHIFT_10ms', 'NOTE_OFF_33', 'TIME_SHIFT_50ms', 'NOTE_OFF_60', 'TIME_SHIFT_30ms', 'TIME_SHIFT_10ms', 'NOTE_ON_64', 'VELOCITY_14', 'NOTE_OFF_42', 'NOTE_ON_33', 'VELOCITY_22', 'NOTE_ON_42', 'VELOCITY_11', 'NOTE_ON_57', 'VELOCITY_17', 'NOTE_ON_35', 'VELOCITY_25', 'TIME_SHIFT_110ms', 'TIME_SHIFT_10ms', 'TIME_SHIFT_10ms', 'TIME_SHIFT_10ms', 'TIME_SHIFT_10ms', 'TIME_SHIFT_10ms', 'NOTE_OFF_35', 'TIME_SHIFT_10ms', 'TIME_SHIFT_10ms', 'TIME_SHIFT_110ms', 'TIME_SHIFT_10ms', 'NOTE_OFF_33', 'TIME_SHIFT_30ms', 'TIME_SHIFT_10ms', 'NOTE_ON_67', 'VELOCITY_17', 'NOTE_ON_42', 'VELOCITY_25', 'NOTE_OFF_42', 'NOTE_ON_55', 'VELOCITY_13', 'NOTE_ON_38', 'VELOCITY_22', 'TIME_SHIFT_30ms', 'TIME_SHIFT_10ms', 'NOTE_OFF_64', 'TIME_SHIFT_10ms', 'TIME_SHIFT_10ms', 'TIME_SHIFT_10ms', 'TIME_SHIFT_10ms', 'NOTE_ON_72', 'VELOCITY_21', 'TIME_SHIFT_30ms', 'TIME_SHIFT_10ms', 'NOTE_OFF_76', 'TIME_SHIFT_50ms', 'NOTE_OFF_38', 'TIME_SHIFT_110ms', 'TIME_SHIFT_10ms', 'NOTE_OFF_67', 'TIME_SHIFT_50ms', 'NOTE_ON_64', 'VELOCITY_17', 'NOTE_OFF_42', 'NOTE_ON_60', 'VELOCITY_8', 'NOTE_ON_42', 'VELOCITY_15', 'TIME_SHIFT_210ms', 'TIME_SHIFT_10ms', 'NOTE_OFF_60', 'TIME_SHIFT_10ms', 'TIME_SHIFT_10ms', 'NOTE_OFF_55', 'TIME_SHIFT_30ms', 'TIME_SHIFT_10ms', 'TIME_SHIFT_30ms', 'TIME_SHIFT_10ms', 'NOTE_OFF_64', 'TIME_SHIFT_10ms', 'TIME_SHIFT_10ms', 'NOTE_OFF_57', 'NOTE_OFF_42', 'NOTE_ON_33', 'VELOCITY_22', 'NOTE_ON_42', 'VELOCITY_13', 'NOTE_ON_69', 'VELOCITY_16', 'NOTE_ON_35', 'VELOCITY_25', 'NOTE_ON_60', 'VELOCITY_14', 'TIME_SHIFT_60ms', 'TIME_SHIFT_10ms', 'TIME_SHIFT_50ms', 'NOTE_OFF_35', 'TIME_SHIFT_100ms', 'TIME_SHIFT_50ms', 'NOTE_OFF_33', 'TIME_SHIFT_50ms', 'NOTE_OFF_42', 'NOTE_ON_57', 'VELOCITY_13', 'NOTE_ON_33', 'VELOCITY_22', 'NOTE_ON_35', 'VELOCITY_25', 'NOTE_ON_42', 'VELOCITY_27', 'TIME_SHIFT_50ms', 'TIME_SHIFT_50ms', 'TIME_SHIFT_30ms', 'TIME_SHIFT_10ms', 'TIME_SHIFT_10ms', 'TIME_SHIFT_10ms', 'NOTE_OFF_60', 'TIME_SHIFT_60ms', 'TIME_SHIFT_10ms', 'TIME_SHIFT_30ms', 'TIME_SHIFT_10ms', 'NOTE_OFF_69', 'NOTE_OFF_52', 'TIME_SHIFT_10ms', 'TIME_SHIFT_10ms', 'NOTE_OFF_35', 'TIME_SHIFT_30ms', 'TIME_SHIFT_10ms', 'TIME_SHIFT_10ms', 'TIME_SHIFT_10ms', 'NOTE_ON_42', 'VELOCITY_13', 'NOTE_ON_67', 'VELOCITY_22', 'NOTE_ON_60', 'VELOCITY_9', 'NOTE_OFF_42', 'TIME_SHIFT_30ms', 'TIME_SHIFT_10ms', 'NOTE_OFF_57', 'TIME_SHIFT_30ms', 'TIME_SHIFT_10ms', 'NOTE_OFF_33', 'TIME_SHIFT_110ms', 'TIME_SHIFT_10ms', 'TIME_SHIFT_60ms', 'TIME_SHIFT_10ms', 'TIME_SHIFT_60ms', 'TIME_SHIFT_10ms', 'NOTE_ON_64', 'VELOCITY_14', 'NOTE_ON_64', 'VELOCITY_13', 'NOTE_OFF_67', 'NOTE_ON_42', 'VELOCITY_13', 'NOTE_OFF_42', 'NOTE_ON_33', 'VELOCITY_22', 'TIME_SHIFT_50ms', 'TIME_SHIFT_110ms', 'TIME_SHIFT_10ms', 'TIME_SHIFT_50ms', 'NOTE_OFF_64', 'TIME_SHIFT_30ms', 'TIME_SHIFT_10ms', 'TIME_SHIFT_50ms', 'NOTE_OFF_60', 'NOTE_ON_57', 'VELOCITY_13', 'NOTE_ON_38', 'VELOCITY_21', 'NOTE_ON_55', 'VELOCITY_7', 'NOTE_ON_46', 'VELOCITY_19', 'NOTE_OFF_42', 'TIME_SHIFT_10ms', 'TIME_SHIFT_10ms', 'NOTE_OFF_33', 'TIME_SHIFT_50ms', 'NOTE_OFF_64', 'TIME_SHIFT_50ms', 'TIME_SHIFT_80ms', 'TIME_SHIFT_10ms', 'TIME_SHIFT_30ms', 'TIME_SHIFT_10ms', 'NOTE_OFF_38', 'NOTE_OFF_55', 'TIME_SHIFT_10ms', 'TIME_SHIFT_10ms', 'NOTE_OFF_45', 'NOTE_OFF_57', 'NOTE_OFF_45', 'NOTE_OFF_52', 'TIME_SHIFT_60ms', 'TIME_SHIFT_10ms', 'NOTE_ON_31', 'VELOCITY_20', 'NOTE_ON_60', 'VELOCITY_9', 'NOTE_OFF_46', 'NOTE_ON_42', 'VELOCITY_18', 'NOTE_ON_60', 'VELOCITY_10', 'TIME_SHIFT_200ms', 'NOTE_OFF_60', 'TIME_SHIFT_100ms', 'NOTE_OFF_31', 'TIME_SHIFT_10ms', 'TIME_SHIFT_10ms', 'NOTE_OFF_42', 'NOTE_ON_33', 'VELOCITY_21', 'NOTE_ON_42', 'VELOCITY_17', 'NOTE_ON_64', 'VELOCITY_10', 'NOTE_ON_35', 'VELOCITY_25', 'TIME_SHIFT_80ms', 'TIME_SHIFT_10ms', 'NOTE_OFF_64', 'TIME_SHIFT_60ms', 'TIME_SHIFT_10ms', 'NOTE_OFF_35', 'TIME_SHIFT_10ms', 'TIME_SHIFT_10ms', 'NOTE_OFF_72', 'NOTE_OFF_60', 'TIME_SHIFT_30ms', 'TIME_SHIFT_10ms', 'TIME_SHIFT_50ms', 'NOTE_OFF_33', 'TIME_SHIFT_60ms', 'TIME_SHIFT_10ms', 'NOTE_OFF_64', 'NOTE_OFF_42', 'NOTE_OFF_57', 'NOTE_OFF_60', 'NOTE_ON_31', 'VELOCITY_23', 'NOTE_ON_62', 'VELOCITY_17', 'NOTE_ON_43', 'VELOCITY_16', 'NOTE_ON_62', 'VELOCITY_22', 'NOTE_ON_62', 'VELOCITY_17', 'NOTE_ON_35', 'VELOCITY_25', 'NOTE_ON_58', 'VELOCITY_17', 'NOTE_ON_43', 'VELOCITY_16', 'NOTE_ON_42', 'VELOCITY_25', 'NOTE_ON_55', 'VELOCITY_19', 'TIME_SHIFT_10ms', 'TIME_SHIFT_10ms', 'NOTE_ON_70', 'VELOCITY_25', 'TIME_SHIFT_10ms', 'TIME_SHIFT_10ms', 'TIME_SHIFT_60ms', 'TIME_SHIFT_10ms', 'TIME_SHIFT_50ms', 'TIME_SHIFT_30ms', 'TIME_SHIFT_10ms', 'NOTE_OFF_62', 'TIME_SHIFT_130ms', 'TIME_SHIFT_10ms', 'NOTE_ON_42', 'VELOCITY_5', 'NOTE_ON_50', 'VELOCITY_12', 'NOTE_ON_50', 'VELOCITY_18', 'NOTE_OFF_42', 'NOTE_OFF_62', 'TIME_SHIFT_50ms', 'NOTE_OFF_35', 'TIME_SHIFT_10ms', 'TIME_SHIFT_10ms', 'TIME_SHIFT_50ms', 'TIME_SHIFT_50ms', 'NOTE_OFF_31', 'TIME_SHIFT_50ms', 'TIME_SHIFT_50ms', 'TIME_SHIFT_50ms', 'NOTE_ON_55', 'VELOCITY_16', 'NOTE_ON_42', 'VELOCITY_11', 'NOTE_ON_55', 'VELOCITY_14', 'NOTE_ON_31', 'VELOCITY_22', 'NOTE_OFF_42', 'NOTE_ON_35', 'VELOCITY_25', 'TIME_SHIFT_10ms', 'TIME_SHIFT_10ms', 'TIME_SHIFT_30ms', 'TIME_SHIFT_10ms', 'TIME_SHIFT_80ms', 'TIME_SHIFT_10ms', 'TIME_SHIFT_30ms', 'TIME_SHIFT_10ms', 'NOTE_OFF_35', 'TIME_SHIFT_100ms', 'NOTE_OFF_31', 'TIME_SHIFT_30ms', 'TIME_SHIFT_10ms', 'NOTE_OFF_70', 'TIME_SHIFT_10ms', 'TIME_SHIFT_10ms', 'NOTE_OFF_42', 'NOTE_ON_42', 'VELOCITY_25', 'NOTE_ON_38', 'VELOCITY_22', 'NOTE_ON_62', 'VELOCITY_21', 'TIME_SHIFT_30ms', 'TIME_SHIFT_10ms', 'NOTE_ON_67', 'VELOCITY_22', 'TIME_SHIFT_130ms', 'TIME_SHIFT_10ms', 'NOTE_OFF_38', 'TIME_SHIFT_50ms', 'TIME_SHIFT_80ms', 'TIME_SHIFT_10ms', 'NOTE_OFF_62', 'TIME_SHIFT_10ms', 'TIME_SHIFT_10ms', 'NOTE_ON_58', 'VELOCITY_10', 'NOTE_ON_62', 'VELOCITY_18', 'NOTE_ON_42', 'VELOCITY_15', 'NOTE_ON_58', 'VELOCITY_13', 'NOTE_OFF_42', 'TIME_SHIFT_60ms', 'TIME_SHIFT_10ms', 'NOTE_OFF_58', 'TIME_SHIFT_10ms', 'TIME_SHIFT_10ms', 'NOTE_OFF_50', 'TIME_SHIFT_10ms', 'TIME_SHIFT_10ms', 'NOTE_OFF_62', 'TIME_SHIFT_80ms', 'TIME_SHIFT_10ms', 'NOTE_OFF_55', 'TIME_SHIFT_130ms', 'TIME_SHIFT_10ms', 'NOTE_ON_62', 'VELOCITY_20', 'NOTE_ON_42', 'VELOCITY_13', 'NOTE_ON_58', 'VELOCITY_10', 'NOTE_ON_31', 'VELOCITY_22', 'NOTE_ON_35', 'VELOCITY_25', 'NOTE_OFF_42', 'NOTE_ON_62', 'VELOCITY_11', 'TIME_SHIFT_110ms', 'TIME_SHIFT_10ms', 'NOTE_OFF_35', 'TIME_SHIFT_10ms', 'TIME_SHIFT_10ms', 'NOTE_OFF_62', 'TIME_SHIFT_50ms', 'NOTE_OFF_43', 'TIME_SHIFT_80ms', 'TIME_SHIFT_10ms', 'NOTE_OFF_31', 'TIME_SHIFT_30ms', 'TIME_SHIFT_10ms', 'NOTE_OFF_58', 'NOTE_OFF_62', 'TIME_SHIFT_10ms', 'TIME_SHIFT_10ms', 'NOTE_ON_35', 'VELOCITY_25', 'NOTE_ON_31', 'VELOCITY_22', 'NOTE_ON_42', 'VELOCITY_27', 'NOTE_OFF_42', 'NOTE_ON_67', 'VELOCITY_22', 'TIME_SHIFT_130ms', 'TIME_SHIFT_10ms', 'NOTE_OFF_67', 'TIME_SHIFT_60ms', 'TIME_SHIFT_10ms', 'NOTE_OFF_58', 'TIME_SHIFT_60ms', 'TIME_SHIFT_10ms', 'NOTE_OFF_35', 'TIME_SHIFT_50ms', 'NOTE_ON_67', 'VELOCITY_19', 'NOTE_OFF_42', 'NOTE_ON_42', 'VELOCITY_13', 'NOTE_ON_58', 'VELOCITY_12', 'TIME_SHIFT_150ms', 'NOTE_OFF_31', 'TIME_SHIFT_60ms', 'TIME_SHIFT_10ms', 'NOTE_OFF_58', 'TIME_SHIFT_30ms', 'TIME_SHIFT_10ms', 'NOTE_OFF_67', 'TIME_SHIFT_30ms', 'TIME_SHIFT_10ms', 'NOTE_ON_62', 'VELOCITY_16', 'TIME_SHIFT_10ms', 'TIME_SHIFT_10ms', 'NOTE_OFF_67', 'TIME_SHIFT_10ms', 'TIME_SHIFT_10ms', 'NOTE_ON_31', 'VELOCITY_22', 'NOTE_ON_42', 'VELOCITY_13', 'NOTE_ON_62', 'VELOCITY_15', 'NOTE_OFF_42', 'NOTE_ON_69', 'VELOCITY_14', 'TIME_SHIFT_230ms', 'TIME_SHIFT_10ms', 'NOTE_OFF_69', 'TIME_SHIFT_10ms', 'TIME_SHIFT_10ms', 'NOTE_OFF_31', 'TIME_SHIFT_50ms', 'NOTE_ON_70', 'VELOCITY_18', 'TIME_SHIFT_10ms', 'TIME_SHIFT_10ms', 'NOTE_OFF_62', 'NOTE_ON_55', 'VELOCITY_16', 'NOTE_OFF_42', 'NOTE_ON_46', 'VELOCITY_19', 'NOTE_ON_38', 'VELOCITY_21', 'TIME_SHIFT_50ms', 'NOTE_OFF_62', 'TIME_SHIFT_160ms', 'TIME_SHIFT_10ms', 'NOTE_OFF_50', 'NOTE_OFF_38', 'TIME_SHIFT_30ms', 'TIME_SHIFT_10ms', 'NOTE_OFF_43', 'TIME_SHIFT_30ms', 'TIME_SHIFT_10ms', 'NOTE_OFF_55', 'TIME_SHIFT_30ms', 'TIME_SHIFT_10ms', 'NOTE_ON_33', 'VELOCITY_21', 'NOTE_ON_74', 'VELOCITY_21', 'NOTE_OFF_46', 'NOTE_ON_42', 'VELOCITY_18', 'NOTE_ON_58', 'VELOCITY_13', 'NOTE_ON_58', 'VELOCITY_15', 'TIME_SHIFT_50ms', 'NOTE_OFF_55', 'NOTE_OFF_70', 'TIME_SHIFT_200ms', 'NOTE_OFF_74', 'TIME_SHIFT_10ms', 'TIME_SHIFT_10ms', 'NOTE_OFF_33', 'TIME_SHIFT_10ms', 'TIME_SHIFT_10ms', 'NOTE_ON_67', 'VELOCITY_19', 'TIME_SHIFT_30ms', 'TIME_SHIFT_10ms', 'NOTE_ON_62', 'VELOCITY_7', 'NOTE_ON_42', 'VELOCITY_17', 'NOTE_ON_34', 'VELOCITY_20', 'NOTE_OFF_58', 'NOTE_OFF_42', 'NOTE_ON_35', 'VELOCITY_25', 'TIME_SHIFT_80ms', 'TIME_SHIFT_10ms', 'NOTE_OFF_62', 'TIME_SHIFT_50ms', 'NOTE_OFF_35', 'NOTE_OFF_58', 'TIME_SHIFT_80ms', 'TIME_SHIFT_10ms', 'TIME_SHIFT_10ms', 'TIME_SHIFT_10ms', 'TIME_SHIFT_30ms', 'TIME_SHIFT_10ms', 'NOTE_OFF_67', 'TIME_SHIFT_30ms', 'TIME_SHIFT_10ms', 'NOTE_OFF_34', 'NOTE_ON_69', 'VELOCITY_22', 'TIME_SHIFT_10ms', 'TIME_SHIFT_10ms', 'NOTE_OFF_42', 'NOTE_OFF_55', 'NOTE_OFF_58', 'NOTE_OFF_62', 'NOTE_ON_50', 'VELOCITY_22', 'NOTE_ON_65', 'VELOCITY_18', 'NOTE_ON_26', 'VELOCITY_21', 'NOTE_ON_62', 'VELOCITY_21', 'NOTE_ON_35', 'VELOCITY_25', 'NOTE_ON_50', 'VELOCITY_19', 'NOTE_ON_57', 'VELOCITY_19', 'NOTE_ON_42', 'VELOCITY_25', 'TIME_SHIFT_30ms', 'TIME_SHIFT_10ms', 'TIME_SHIFT_10ms', 'TIME_SHIFT_10ms', 'TIME_SHIFT_250ms', 'NOTE_ON_42', 'VELOCITY_5', 'NOTE_OFF_42', 'NOTE_ON_53', 'VELOCITY_16', 'NOTE_ON_57', 'VELOCITY_9', 'TIME_SHIFT_50ms', 'NOTE_OFF_35', 'TIME_SHIFT_150ms', 'NOTE_OFF_26', 'TIME_SHIFT_10ms', 'TIME_SHIFT_10ms', 'NOTE_OFF_57', 'TIME_SHIFT_100ms', 'NOTE_ON_26', 'VELOCITY_21', 'NOTE_ON_42', 'VELOCITY_11', 'NOTE_OFF_42', 'NOTE_ON_57', 'VELOCITY_15', 'NOTE_ON_35', 'VELOCITY_25', 'NOTE_ON_65', 'VELOCITY_13', 'TIME_SHIFT_160ms', 'TIME_SHIFT_10ms', 'NOTE_OFF_35', 'TIME_SHIFT_130ms', 'TIME_SHIFT_10ms', 'NOTE_OFF_57', 'NOTE_OFF_69', 'TIME_SHIFT_10ms', 'TIME_SHIFT_10ms', 'NOTE_OFF_42', 'NOTE_ON_65', 'VELOCITY_22', 'NOTE_ON_42', 'VELOCITY_25', 'NOTE_ON_38', 'VELOCITY_22', 'TIME_SHIFT_10ms', 'TIME_SHIFT_10ms', 'NOTE_ON_65', 'VELOCITY_20', 'TIME_SHIFT_60ms', 'TIME_SHIFT_10ms', 'NOTE_OFF_26', 'TIME_SHIFT_80ms', 'TIME_SHIFT_10ms', 'NOTE_OFF_38', 'TIME_SHIFT_60ms', 'TIME_SHIFT_10ms', 'NOTE_OFF_65', 'TIME_SHIFT_10ms', 'TIME_SHIFT_10ms', 'NOTE_OFF_65', 'TIME_SHIFT_60ms', 'TIME_SHIFT_10ms', 'NOTE_OFF_42', 'NOTE_ON_57', 'VELOCITY_13', 'NOTE_ON_42', 'VELOCITY_15', 'NOTE_ON_62', 'VELOCITY_14', 'TIME_SHIFT_280ms', 'TIME_SHIFT_10ms', 'TIME_SHIFT_10ms', 'TIME_SHIFT_10ms', 'NOTE_OFF_62', 'NOTE_OFF_50', 'TIME_SHIFT_10ms', 'TIME_SHIFT_10ms', 'NOTE_OFF_53', 'NOTE_OFF_42', 'NOTE_ON_42', 'VELOCITY_13', 'NOTE_ON_26', 'VELOCITY_22', 'NOTE_ON_35', 'VELOCITY_25', 'NOTE_ON_64', 'VELOCITY_18', 'NOTE_ON_57', 'VELOCITY_10', 'TIME_SHIFT_50ms', 'TIME_SHIFT_60ms', 'TIME_SHIFT_10ms', 'NOTE_OFF_35', 'TIME_SHIFT_80ms', 'TIME_SHIFT_10ms', 'TIME_SHIFT_30ms', 'TIME_SHIFT_10ms', 'NOTE_OFF_57', 'TIME_SHIFT_30ms', 'TIME_SHIFT_10ms', 'TIME_SHIFT_10ms', 'TIME_SHIFT_10ms', 'NOTE_OFF_26', 'TIME_SHIFT_30ms', 'TIME_SHIFT_10ms', 'NOTE_ON_35', 'VELOCITY_25', 'NOTE_ON_53', 'VELOCITY_13', 'NOTE_OFF_42', 'NOTE_ON_26', 'VELOCITY_23', 'NOTE_ON_42', 'VELOCITY_27', 'TIME_SHIFT_30ms', 'TIME_SHIFT_10ms', 'TIME_SHIFT_30ms', 'TIME_SHIFT_10ms', 'NOTE_OFF_64', 'TIME_SHIFT_30ms', 'TIME_SHIFT_10ms', 'TIME_SHIFT_80ms', 'TIME_SHIFT_10ms', 'TIME_SHIFT_80ms', 'TIME_SHIFT_10ms', 'NOTE_OFF_35', 'TIME_SHIFT_10ms', 'TIME_SHIFT_10ms', 'TIME_SHIFT_30ms', 'TIME_SHIFT_10ms', 'NOTE_ON_42', 'VELOCITY_13', 'NOTE_ON_65', 'VELOCITY_9', 'NOTE_OFF_42', 'NOTE_ON_57', 'VELOCITY_13', 'TIME_SHIFT_10ms', 'TIME_SHIFT_10ms', 'TIME_SHIFT_30ms', 'TIME_SHIFT_10ms', 'TIME_SHIFT_10ms', 'TIME_SHIFT_10ms', 'NOTE_OFF_57', 'TIME_SHIFT_30ms', 'TIME_SHIFT_10ms', 'NOTE_OFF_26', 'TIME_SHIFT_30ms', 'TIME_SHIFT_10ms', 'TIME_SHIFT_30ms', 'TIME_SHIFT_10ms', 'TIME_SHIFT_30ms', 'TIME_SHIFT_10ms', 'TIME_SHIFT_60ms', 'TIME_SHIFT_10ms', 'NOTE_OFF_53', 'NOTE_OFF_65', 'TIME_SHIFT_30ms', 'TIME_SHIFT_10ms', 'TIME_SHIFT_10ms', 'TIME_SHIFT_10ms', 'NOTE_OFF_57', 'NOTE_OFF_42', 'NOTE_ON_26', 'VELOCITY_23', 'NOTE_ON_65', 'VELOCITY_23', 'NOTE_ON_62', 'VELOCITY_16', 'NOTE_ON_42', 'VELOCITY_13', 'TIME_SHIFT_10ms', 'TIME_SHIFT_10ms', 'TIME_SHIFT_10ms', 'TIME_SHIFT_10ms', 'TIME_SHIFT_50ms', 'TIME_SHIFT_30ms', 'TIME_SHIFT_10ms', 'TIME_SHIFT_50ms', 'TIME_SHIFT_150ms', 'NOTE_ON_38', 'VELOCITY_21', 'NOTE_ON_53', 'VELOCITY_5', 'NOTE_ON_46', 'VELOCITY_19', 'NOTE_OFF_42', 'TIME_SHIFT_30ms', 'TIME_SHIFT_10ms', 'TIME_SHIFT_30ms', 'TIME_SHIFT_10ms', 'TIME_SHIFT_10ms', 'TIME_SHIFT_10ms', 'NOTE_OFF_53', 'TIME_SHIFT_10ms', 'TIME_SHIFT_10ms', 'TIME_SHIFT_30ms', 'TIME_SHIFT_10ms', 'TIME_SHIFT_10ms', 'TIME_SHIFT_10ms', 'NOTE_OFF_50', 'TIME_SHIFT_50ms', 'TIME_SHIFT_10ms', 'TIME_SHIFT_10ms', 'NOTE_OFF_38', 'TIME_SHIFT_30ms', 'TIME_SHIFT_10ms', 'TIME_SHIFT_30ms', 'TIME_SHIFT_10ms', 'NOTE_OFF_62', 'TIME_SHIFT_10ms', 'TIME_SHIFT_10ms', 'TIME_SHIFT_10ms', 'TIME_SHIFT_10ms', 'NOTE_ON_57', 'VELOCITY_14', 'NOTE_ON_42', 'VELOCITY_18', 'NOTE_OFF_46', 'NOTE_ON_57', 'VELOCITY_6', 'TIME_SHIFT_10ms', 'TIME_SHIFT_10ms', 'TIME_SHIFT_30ms', 'TIME_SHIFT_10ms', 'TIME_SHIFT_50ms', 'TIME_SHIFT_30ms', 'TIME_SHIFT_10ms', 'NOTE_OFF_26', 'TIME_SHIFT_50ms', 'TIME_SHIFT_100ms', 'NOTE_OFF_65', 'NOTE_OFF_65', 'TIME_SHIFT_30ms', 'TIME_SHIFT_10ms', 'NOTE_OFF_42', 'NOTE_ON_62', 'VELOCITY_17', 'NOTE_ON_26', 'VELOCITY_23', 'NOTE_ON_42', 'VELOCITY_17', 'NOTE_ON_35', 'VELOCITY_25', 'TIME_SHIFT_30ms', 'TIME_SHIFT_10ms', 'NOTE_ON_69', 'VELOCITY_20', 'TIME_SHIFT_100ms', 'NOTE_OFF_35', 'NOTE_OFF_57', 'TIME_SHIFT_10ms', 'TIME_SHIFT_10ms', 'NOTE_OFF_62', 'TIME_SHIFT_30ms', 'TIME_SHIFT_10ms', 'TIME_SHIFT_10ms', 'TIME_SHIFT_10ms', 'NOTE_OFF_69', 'TIME_SHIFT_50ms', 'NOTE_OFF_26', 'TIME_SHIFT_10ms', 'TIME_SHIFT_10ms', 'NOTE_OFF_57', 'TIME_SHIFT_50ms', 'NOTE_OFF_65', 'NOTE_OFF_62', 'NOTE_OFF_57', 'NOTE_OFF_42', 'NOTE_ON_68', 'VELOCITY_27', 'NOTE_ON_28', 'VELOCITY_23', 'NOTE_ON_42', 'VELOCITY_25', 'NOTE_ON_52', 'VELOCITY_23', 'NOTE_ON_59', 'VELOCITY_19', 'NOTE_ON_56', 'VELOCITY_17', 'NOTE_ON_52', 'VELOCITY_18', 'NOTE_ON_35', 'VELOCITY_25', 'NOTE_ON_64', 'VELOCITY_16', 'TIME_SHIFT_50ms', 'TIME_SHIFT_260ms', 'TIME_SHIFT_10ms', 'NOTE_OFF_42', 'NOTE_ON_56', 'VELOCITY_10', 'NOTE_ON_42', 'VELOCITY_5', 'NOTE_ON_56', 'VELOCITY_15', 'TIME_SHIFT_50ms', 'NOTE_OFF_35', 'TIME_SHIFT_110ms', 'TIME_SHIFT_10ms', 'NOTE_OFF_28', 'TIME_SHIFT_150ms', 'NOTE_ON_59', 'VELOCITY_11', 'NOTE_ON_28', 'VELOCITY_22', 'NOTE_ON_35', 'VELOCITY_25', 'NOTE_ON_42', 'VELOCITY_11', 'NOTE_ON_59', 'VELOCITY_16', 'NOTE_OFF_42', 'TIME_SHIFT_150ms', 'NOTE_OFF_35', 'TIME_SHIFT_150ms', 'NOTE_OFF_28', 'TIME_SHIFT_10ms', 'TIME_SHIFT_10ms', 'NOTE_ON_38', 'VELOCITY_22', 'NOTE_OFF_42', 'NOTE_ON_64', 'VELOCITY_20', 'NOTE_ON_42', 'VELOCITY_25', 'NOTE_OFF_59', 'NOTE_OFF_68', 'TIME_SHIFT_10ms', 'TIME_SHIFT_10ms', 'NOTE_ON_64', 'VELOCITY_21', 'TIME_SHIFT_60ms', 'TIME_SHIFT_10ms', 'NOTE_OFF_59', 'TIME_SHIFT_60ms', 'TIME_SHIFT_10ms', 'NOTE_OFF_38', 'TIME_SHIFT_60ms', 'TIME_SHIFT_10ms', 'NOTE_OFF_64', 'TIME_SHIFT_100ms', 'NOTE_ON_42', 'VELOCITY_15', 'NOTE_ON_64', 'VELOCITY_18', 'NOTE_ON_59', 'VELOCITY_11', 'NOTE_OFF_42', 'TIME_SHIFT_230ms', 'TIME_SHIFT_10ms', 'NOTE_OFF_59', 'TIME_SHIFT_10ms', 'TIME_SHIFT_10ms', 'NOTE_OFF_64', 'TIME_SHIFT_30ms', 'TIME_SHIFT_10ms', 'NOTE_OFF_56', 'TIME_SHIFT_10ms', 'TIME_SHIFT_10ms', 'NOTE_OFF_52', 'NOTE_OFF_52', 'NOTE_OFF_56', 'TIME_SHIFT_10ms', 'TIME_SHIFT_10ms', 'NOTE_ON_68', 'VELOCITY_17', 'NOTE_ON_42', 'VELOCITY_13', 'NOTE_ON_59', 'VELOCITY_11', 'NOTE_ON_35', 'VELOCITY_25', 'NOTE_OFF_42', 'NOTE_ON_28', 'VELOCITY_22', 'TIME_SHIFT_100ms', 'NOTE_OFF_68', 'TIME_SHIFT_10ms', 'TIME_SHIFT_10ms', 'NOTE_OFF_35', 'TIME_SHIFT_130ms', 'TIME_SHIFT_10ms', 'NOTE_OFF_28', 'TIME_SHIFT_50ms', 'NOTE_ON_28', 'VELOCITY_22', 'NOTE_ON_35', 'VELOCITY_25', 'NOTE_ON_42', 'VELOCITY_27', 'NOTE_ON_56', 'VELOCITY_10', 'NOTE_OFF_42', 'TIME_SHIFT_110ms', 'TIME_SHIFT_10ms', 'NOTE_OFF_59', 'TIME_SHIFT_160ms', 'TIME_SHIFT_10ms', 'NOTE_OFF_35', 'TIME_SHIFT_30ms', 'TIME_SHIFT_10ms', 'NOTE_OFF_42', 'NOTE_ON_59', 'VELOCITY_13', 'NOTE_ON_42', 'VELOCITY_13', 'NOTE_ON_62', 'VELOCITY_14', 'TIME_SHIFT_150ms', 'NOTE_OFF_28', 'TIME_SHIFT_10ms', 'TIME_SHIFT_10ms', 'NOTE_OFF_64', 'TIME_SHIFT_110ms', 'TIME_SHIFT_10ms', 'NOTE_OFF_62', 'NOTE_OFF_56', 'TIME_SHIFT_10ms', 'TIME_SHIFT_10ms', 'NOTE_ON_64', 'VELOCITY_21', 'TIME_SHIFT_10ms', 'TIME_SHIFT_10ms', 'NOTE_ON_59', 'VELOCITY_12', 'NOTE_ON_42', 'VELOCITY_13', 'NOTE_ON_71', 'VELOCITY_20', 'NOTE_ON_28', 'VELOCITY_21', 'NOTE_OFF_42', 'TIME_SHIFT_100ms', 'NOTE_OFF_59', 'TIME_SHIFT_210ms', 'TIME_SHIFT_10ms', 'NOTE_OFF_64', 'NOTE_ON_38', 'VELOCITY_21', 'NOTE_ON_46', 'VELOCITY_19', 'NOTE_ON_71', 'VELOCITY_23', 'NOTE_ON_56', 'VELOCITY_7', 'NOTE_OFF_42', 'NOTE_ON_56', 'VELOCITY_13', 'TIME_SHIFT_10ms', 'TIME_SHIFT_10ms', 'NOTE_OFF_28', 'TIME_SHIFT_50ms', 'NOTE_OFF_59', 'TIME_SHIFT_150ms', 'NOTE_OFF_56', 'TIME_SHIFT_10ms', 'TIME_SHIFT_10ms', 'NOTE_OFF_38', 'TIME_SHIFT_80ms', 'TIME_SHIFT_10ms', 'NOTE_ON_59', 'VELOCITY_13', 'NOTE_ON_42', 'VELOCITY_18', 'NOTE_OFF_46', 'NOTE_ON_28', 'VELOCITY_21', 'NOTE_ON_59', 'VELOCITY_11', 'NOTE_ON_74', 'VELOCITY_22', 'TIME_SHIFT_10ms', 'TIME_SHIFT_10ms', 'NOTE_OFF_71', 'TIME_SHIFT_80ms', 'TIME_SHIFT_10ms', 'NOTE_OFF_56', 'TIME_SHIFT_160ms', 'TIME_SHIFT_10ms', 'NOTE_OFF_59', 'TIME_SHIFT_10ms', 'TIME_SHIFT_10ms', 'NOTE_OFF_74', 'NOTE_OFF_28', 'TIME_SHIFT_30ms', 'TIME_SHIFT_10ms', 'NOTE_ON_35', 'VELOCITY_25', 'NOTE_ON_62', 'VELOCITY_7', 'NOTE_OFF_42', 'NOTE_ON_31', 'VELOCITY_21', 'NOTE_ON_42', 'VELOCITY_17', 'NOTE_ON_71', 'VELOCITY_20', 'TIME_SHIFT_150ms', 'NOTE_OFF_35', 'TIME_SHIFT_30ms', 'TIME_SHIFT_10ms', 'TIME_SHIFT_50ms', 'NOTE_OFF_62', 'TIME_SHIFT_60ms', 'TIME_SHIFT_10ms', 'NOTE_OFF_71', 'TIME_SHIFT_10ms', 'TIME_SHIFT_10ms', 'NOTE_ON_61', 'VELOCITY_19', 'NOTE_ON_57', 'VELOCITY_22', 'NOTE_ON_45', 'VELOCITY_25', 'NOTE_OFF_64', 'NOTE_OFF_59', 'NOTE_OFF_42', 'NOTE_OFF_56', 'NOTE_ON_33', 'VELOCITY_22', 'NOTE_ON_35', 'VELOCITY_25', 'NOTE_ON_64', 'VELOCITY_18', 'NOTE_ON_45', 'VELOCITY_17', 'NOTE_ON_42', 'VELOCITY_25', 'TIME_SHIFT_10ms', 'TIME_SHIFT_10ms', 'NOTE_OFF_31', 'NOTE_ON_73', 'VELOCITY_22', 'NOTE_OFF_71', 'TIME_SHIFT_50ms', 'TIME_SHIFT_60ms', 'TIME_SHIFT_10ms', 'NOTE_OFF_59', 'TIME_SHIFT_180ms', 'TIME_SHIFT_10ms', 'NOTE_ON_52', 'VELOCITY_14', 'NOTE_OFF_42', 'NOTE_ON_52', 'VELOCITY_18', 'NOTE_ON_42', 'VELOCITY_5', 'TIME_SHIFT_50ms', 'NOTE_OFF_35', 'TIME_SHIFT_130ms', 'TIME_SHIFT_10ms', 'NOTE_OFF_33', 'TIME_SHIFT_130ms', 'TIME_SHIFT_10ms', 'NOTE_ON_42', 'VELOCITY_11', 'NOTE_OFF_42', 'NOTE_ON_57', 'VELOCITY_11', 'NOTE_ON_55', 'VELOCITY_19', 'NOTE_ON_33', 'VELOCITY_22', 'NOTE_ON_35', 'VELOCITY_25', 'TIME_SHIFT_150ms', 'NOTE_OFF_35', 'TIME_SHIFT_130ms', 'TIME_SHIFT_10ms', 'NOTE_OFF_33', 'TIME_SHIFT_30ms', 'TIME_SHIFT_10ms', 'NOTE_ON_38', 'VELOCITY_22', 'NOTE_ON_42', 'VELOCITY_25', 'NOTE_OFF_42', 'TIME_SHIFT_150ms', 'NOTE_OFF_38', 'TIME_SHIFT_80ms', 'TIME_SHIFT_10ms', 'NOTE_OFF_57', 'TIME_SHIFT_60ms', 'TIME_SHIFT_10ms', 'TIME_SHIFT_10ms', 'TIME_SHIFT_10ms', 'NOTE_ON_31', 'VELOCITY_21', 'NOTE_ON_61', 'VELOCITY_16', 'NOTE_ON_42', 'VELOCITY_15', 'NOTE_OFF_42', 'NOTE_ON_59', 'VELOCITY_17', 'TIME_SHIFT_80ms', 'TIME_SHIFT_10ms', 'TIME_SHIFT_150ms', 'TIME_SHIFT_10ms', 'TIME_SHIFT_10ms', 'NOTE_OFF_31', 'TIME_SHIFT_30ms', 'TIME_SHIFT_10ms', 'TIME_SHIFT_30ms', 'TIME_SHIFT_10ms', 'NOTE_OFF_61', 'NOTE_OFF_42', 'NOTE_ON_42', 'VELOCITY_13', 'NOTE_ON_35', 'VELOCITY_25', 'NOTE_ON_33', 'VELOCITY_23', 'NOTE_ON_61', 'VELOCITY_15', 'NOTE_ON_57', 'VELOCITY_12', 'TIME_SHIFT_80ms', 'TIME_SHIFT_10ms', 'TIME_SHIFT_30ms', 'TIME_SHIFT_10ms', 'NOTE_OFF_35', 'TIME_SHIFT_30ms', 'TIME_SHIFT_10ms', 'NOTE_OFF_57', 'TIME_SHIFT_10ms', 'TIME_SHIFT_10ms', 'TIME_SHIFT_30ms', 'TIME_SHIFT_10ms', 'TIME_SHIFT_30ms', 'TIME_SHIFT_10ms', 'NOTE_OFF_33', 'TIME_SHIFT_10ms', 'TIME_SHIFT_10ms', 'NOTE_OFF_59', 'TIME_SHIFT_50ms', 'TIME_SHIFT_10ms', 'TIME_SHIFT_10ms', 'NOTE_OFF_42', 'NOTE_ON_33', 'VELOCITY_24', 'NOTE_ON_69', 'VELOCITY_9', 'NOTE_ON_57', 'VELOCITY_20', 'NOTE_ON_42', 'VELOCITY_27', 'NOTE_ON_64', 'VELOCITY_18', 'NOTE_ON_35', 'VELOCITY_25', 'TIME_SHIFT_10ms', 'TIME_SHIFT_10ms', 'NOTE_OFF_61', 'TIME_SHIFT_110ms', 'TIME_SHIFT_10ms', 'NOTE_OFF_69', 'TIME_SHIFT_30ms', 'TIME_SHIFT_10ms', 'NOTE_OFF_73', 'TIME_SHIFT_100ms', 'NOTE_OFF_35', 'TIME_SHIFT_10ms', 'TIME_SHIFT_10ms', 'TIME_SHIFT_10ms', 'TIME_SHIFT_10ms', 'NOTE_OFF_52', 'TIME_SHIFT_10ms', 'TIME_SHIFT_10ms', 'NOTE_OFF_42', 'TIME_SHIFT_10ms', 'TIME_SHIFT_10ms', 'NOTE_OFF_64', 'TIME_SHIFT_60ms', 'TIME_SHIFT_10ms', 'TIME_SHIFT_80ms', 'TIME_SHIFT_10ms', 'TIME_SHIFT_100ms', 'TIME_SHIFT_50ms', 'TIME_SHIFT_60ms', 'TIME_SHIFT_10ms', 'TIME_SHIFT_10ms', 'TIME_SHIFT_10ms', 'NOTE_OFF_55', 'TIME_SHIFT_30ms', 'TIME_SHIFT_10ms', 'TIME_SHIFT_60ms', 'TIME_SHIFT_10ms', 'TIME_SHIFT_60ms', 'TIME_SHIFT_10ms', 'TIME_SHIFT_60ms', 'TIME_SHIFT_10ms', 'NOTE_OFF_57', 'NOTE_ON_47', 'VELOCITY_19', 'TIME_SHIFT_60ms', 'TIME_SHIFT_10ms', 'TIME_SHIFT_100ms', 'TIME_SHIFT_50ms', 'TIME_SHIFT_30ms', 'TIME_SHIFT_10ms', 'NOTE_OFF_52', 'TIME_SHIFT_30ms', 'TIME_SHIFT_10ms', 'TIME_SHIFT_10ms', 'TIME_SHIFT_10ms', 'NOTE_ON_43', 'VELOCITY_20', 'NOTE_OFF_47', 'NOTE_OFF_45', 'TIME_SHIFT_280ms', 'TIME_SHIFT_10ms', 'TIME_SHIFT_10ms', 'TIME_SHIFT_10ms', 'TIME_SHIFT_10ms', 'TIME_SHIFT_10ms', 'NOTE_OFF_45', 'NOTE_OFF_43', 'NOTE_ON_41', 'VELOCITY_22', 'NOTE_ON_62', 'VELOCITY_24', 'TIME_SHIFT_10ms', 'TIME_SHIFT_10ms', 'NOTE_OFF_33', 'TIME_SHIFT_60ms', 'TIME_SHIFT_10ms', 'TIME_SHIFT_60ms', 'TIME_SHIFT_10ms', 'TIME_SHIFT_50ms', 'TIME_SHIFT_80ms', 'TIME_SHIFT_10ms', 'NOTE_OFF_62', 'TIME_SHIFT_30ms', 'TIME_SHIFT_10ms', 'NOTE_ON_42', 'VELOCITY_21', 'NOTE_OFF_64', 'NOTE_OFF_57', 'NOTE_ON_50', 'VELOCITY_21', 'NOTE_OFF_41', 'NOTE_ON_69', 'VELOCITY_24', 'NOTE_ON_26', 'VELOCITY_23', 'NOTE_ON_62', 'VELOCITY_20', 'NOTE_OFF_61', 'NOTE_ON_35', 'VELOCITY_25', 'NOTE_ON_65', 'VELOCITY_16', 'NOTE_ON_57', 'VELOCITY_17', 'NOTE_ON_57', 'VELOCITY_19', 'TIME_SHIFT_30ms', 'TIME_SHIFT_10ms', 'NOTE_ON_69', 'VELOCITY_22', 'NOTE_ON_50', 'VELOCITY_20', 'TIME_SHIFT_10ms', 'TIME_SHIFT_10ms', 'TIME_SHIFT_10ms', 'TIME_SHIFT_10ms', 'TIME_SHIFT_10ms', 'TIME_SHIFT_10ms', 'TIME_SHIFT_60ms', 'TIME_SHIFT_10ms', 'TIME_SHIFT_30ms', 'TIME_SHIFT_10ms', 'NOTE_OFF_69', 'TIME_SHIFT_30ms', 'TIME_SHIFT_10ms', 'TIME_SHIFT_30ms', 'TIME_SHIFT_10ms', 'TIME_SHIFT_60ms', 'TIME_SHIFT_10ms', 'NOTE_ON_42', 'VELOCITY_12', 'NOTE_ON_70', 'VELOCITY_10', 'NOTE_OFF_42', 'NOTE_ON_69', 'VELOCITY_24', 'NOTE_ON_57', 'VELOCITY_11', 'TIME_SHIFT_10ms', 'TIME_SHIFT_10ms', 'NOTE_OFF_69', 'TIME_SHIFT_30ms', 'TIME_SHIFT_10ms', 'NOTE_ON_57', 'VELOCITY_14', 'TIME_SHIFT_80ms', 'TIME_SHIFT_10ms', 'NOTE_OFF_69', 'TIME_SHIFT_30ms', 'TIME_SHIFT_10ms', 'TIME_SHIFT_110ms', 'TIME_SHIFT_10ms', 'TIME_SHIFT_30ms', 'TIME_SHIFT_10ms', 'NOTE_OFF_42', 'NOTE_ON_70', 'VELOCITY_9', 'NOTE_OFF_70', 'NOTE_ON_42', 'VELOCITY_12', 'NOTE_ON_69', 'VELOCITY_24', 'NOTE_ON_65', 'VELOCITY_16', 'TIME_SHIFT_10ms', 'TIME_SHIFT_10ms', 'TIME_SHIFT_10ms', 'TIME_SHIFT_10ms', 'NOTE_ON_62', 'VELOCITY_14', 'TIME_SHIFT_30ms', 'TIME_SHIFT_10ms', 'TIME_SHIFT_30ms', 'TIME_SHIFT_10ms', 'TIME_SHIFT_50ms', 'NOTE_OFF_69', 'TIME_SHIFT_160ms', 'TIME_SHIFT_10ms', 'NOTE_OFF_57', 'NOTE_OFF_42', 'NOTE_ON_69', 'VELOCITY_24', 'NOTE_OFF_35', 'NOTE_ON_37', 'VELOCITY_21', 'NOTE_OFF_57', 'NOTE_ON_42', 'VELOCITY_25', 'NOTE_OFF_70', 'NOTE_ON_54', 'VELOCITY_19', 'TIME_SHIFT_60ms', 'TIME_SHIFT_10ms', 'TIME_SHIFT_80ms', 'TIME_SHIFT_10ms', 'TIME_SHIFT_80ms', 'TIME_SHIFT_10ms', 'NOTE_OFF_69', 'TIME_SHIFT_10ms', 'TIME_SHIFT_10ms', 'NOTE_OFF_57', 'TIME_SHIFT_30ms', 'TIME_SHIFT_10ms', 'NOTE_OFF_26', 'TIME_SHIFT_10ms', 'TIME_SHIFT_10ms', 'NOTE_ON_65', 'VELOCITY_18', 'TIME_SHIFT_10ms', 'TIME_SHIFT_10ms', 'NOTE_OFF_50', 'NOTE_ON_74', 'VELOCITY_24', 'NOTE_ON_70', 'VELOCITY_14', 'NOTE_ON_42', 'VELOCITY_9', 'NOTE_OFF_42', 'TIME_SHIFT_30ms', 'TIME_SHIFT_10ms', 'NOTE_OFF_62', 'TIME_SHIFT_30ms', 'TIME_SHIFT_10ms', 'NOTE_OFF_65', 'TIME_SHIFT_60ms', 'TIME_SHIFT_10ms', 'NOTE_OFF_50', 'TIME_SHIFT_30ms', 'TIME_SHIFT_10ms', 'NOTE_ON_42', 'VELOCITY_12', 'NOTE_OFF_42', 'TIME_SHIFT_30ms', 'TIME_SHIFT_10ms', 'NOTE_OFF_74', 'TIME_SHIFT_80ms', 'TIME_SHIFT_10ms', 'TIME_SHIFT_10ms', 'TIME_SHIFT_10ms', 'NOTE_OFF_65', 'TIME_SHIFT_10ms', 'TIME_SHIFT_10ms', 'NOTE_OFF_70', 'NOTE_OFF_42', 'NOTE_ON_42', 'VELOCITY_13', 'NOTE_ON_69', 'VELOCITY_24', 'NOTE_ON_26', 'VELOCITY_22', 'NOTE_ON_70', 'VELOCITY_9', 'TIME_SHIFT_10ms', 'TIME_SHIFT_10ms', 'NOTE_ON_62', 'VELOCITY_12', 'TIME_SHIFT_10ms', 'TIME_SHIFT_10ms', 'TIME_SHIFT_60ms', 'TIME_SHIFT_10ms', 'TIME_SHIFT_10ms', 'TIME_SHIFT_10ms', 'TIME_SHIFT_50ms', 'NOTE_OFF_42', 'NOTE_OFF_26', 'NOTE_ON_42', 'VELOCITY_15', 'TIME_SHIFT_60ms', 'TIME_SHIFT_10ms', 'NOTE_OFF_62', 'TIME_SHIFT_10ms', 'TIME_SHIFT_10ms', 'TIME_SHIFT_10ms', 'TIME_SHIFT_10ms', 'NOTE_OFF_69', 'TIME_SHIFT_10ms', 'TIME_SHIFT_10ms', 'NOTE_ON_48', 'VELOCITY_15', 'TIME_SHIFT_10ms', 'TIME_SHIFT_10ms', 'NOTE_ON_67', 'VELOCITY_19', 'TIME_SHIFT_10ms', 'TIME_SHIFT_10ms', 'NOTE_ON_42', 'VELOCITY_27', 'NOTE_OFF_62', 'NOTE_ON_35', 'VELOCITY_25', 'NOTE_ON_55', 'VELOCITY_16', 'NOTE_ON_64', 'VELOCITY_15', 'NOTE_ON_60', 'VELOCITY_20', 'NOTE_ON_72', 'VELOCITY_24', 'NOTE_OFF_57', 'NOTE_ON_62', 'VELOCITY_14', 'NOTE_OFF_65', 'NOTE_ON_24', 'VELOCITY_22', 'NOTE_ON_64', 'VELOCITY_15', 'NOTE_OFF_42', 'NOTE_ON_48', 'VELOCITY_19', 'NOTE_OFF_37', 'NOTE_OFF_54', 'NOTE_OFF_70', 'TIME_SHIFT_60ms', 'TIME_SHIFT_10ms', 'TIME_SHIFT_80ms', 'TIME_SHIFT_10ms', 'TIME_SHIFT_10ms', 'TIME_SHIFT_10ms', 'NOTE_OFF_72', 'TIME_SHIFT_60ms', 'TIME_SHIFT_10ms', 'TIME_SHIFT_10ms', 'TIME_SHIFT_10ms', 'NOTE_OFF_62', 'NOTE_OFF_67', 'TIME_SHIFT_10ms', 'TIME_SHIFT_10ms', 'NOTE_OFF_64', 'TIME_SHIFT_10ms', 'TIME_SHIFT_10ms', 'TIME_SHIFT_30ms', 'TIME_SHIFT_10ms', 'NOTE_OFF_42', 'NOTE_ON_42', 'VELOCITY_12', 'NOTE_ON_72', 'VELOCITY_24', 'NOTE_ON_70', 'VELOCITY_16', 'NOTE_ON_55', 'VELOCITY_13', 'NOTE_ON_55', 'VELOCITY_15', 'TIME_SHIFT_10ms', 'TIME_SHIFT_10ms', 'TIME_SHIFT_50ms', 'TIME_SHIFT_50ms', 'NOTE_OFF_72', 'TIME_SHIFT_150ms', 'TIME_SHIFT_50ms', 'NOTE_ON_64', 'VELOCITY_15', 'NOTE_ON_74', 'VELOCITY_24', 'NOTE_ON_42', 'VELOCITY_6', 'NOTE_OFF_70', 'NOTE_ON_70', 'VELOCITY_11', 'NOTE_OFF_55', 'NOTE_OFF_42', 'TIME_SHIFT_30ms', 'TIME_SHIFT_10ms', 'TIME_SHIFT_10ms', 'TIME_SHIFT_10ms', 'NOTE_ON_60', 'VELOCITY_7', 'TIME_SHIFT_50ms', 'TIME_SHIFT_30ms', 'TIME_SHIFT_10ms', 'NOTE_OFF_74', 'TIME_SHIFT_30ms', 'TIME_SHIFT_10ms', 'TIME_SHIFT_150ms', 'NOTE_ON_37', 'VELOCITY_23', 'NOTE_ON_67', 'VELOCITY_24', 'NOTE_ON_42', 'VELOCITY_29', 'NOTE_ON_67', 'VELOCITY_20', 'NOTE_ON_54', 'VELOCITY_25', 'NOTE_OFF_70', 'NOTE_OFF_42', 'NOTE_ON_64', 'VELOCITY_13', 'NOTE_OFF_35', 'TIME_SHIFT_60ms', 'TIME_SHIFT_10ms', 'TIME_SHIFT_30ms', 'TIME_SHIFT_10ms', 'NOTE_OFF_60', 'TIME_SHIFT_10ms', 'TIME_SHIFT_10ms', 'NOTE_OFF_48', 'TIME_SHIFT_10ms', 'TIME_SHIFT_10ms', 'NOTE_OFF_67', 'TIME_SHIFT_30ms', 'TIME_SHIFT_10ms', 'NOTE_OFF_55', 'TIME_SHIFT_50ms', 'TIME_SHIFT_60ms', 'TIME_SHIFT_10ms', 'NOTE_OFF_48', 'TIME_SHIFT_30ms', 'TIME_SHIFT_10ms', 'NOTE_ON_42', 'VELOCITY_8', 'NOTE_OFF_42', 'NOTE_ON_70', 'VELOCITY_15', 'NOTE_OFF_37', 'TIME_SHIFT_10ms', 'TIME_SHIFT_10ms', 'NOTE_OFF_64', 'NOTE_ON_62', 'VELOCITY_8', 'TIME_SHIFT_10ms', 'TIME_SHIFT_10ms', 'NOTE_OFF_67', 'NOTE_OFF_24', 'TIME_SHIFT_110ms', 'TIME_SHIFT_10ms', 'NOTE_ON_42', 'VELOCITY_9', 'NOTE_OFF_42', 'TIME_SHIFT_30ms', 'TIME_SHIFT_10ms', 'NOTE_OFF_62', 'TIME_SHIFT_80ms', 'TIME_SHIFT_10ms', 'TIME_SHIFT_30ms', 'TIME_SHIFT_10ms', 'NOTE_OFF_64', 'TIME_SHIFT_10ms', 'TIME_SHIFT_10ms', 'NOTE_ON_35', 'VELOCITY_25', 'NOTE_ON_70', 'VELOCITY_14', 'NOTE_OFF_70', 'NOTE_ON_42', 'VELOCITY_15', 'NOTE_OFF_42', 'NOTE_ON_62', 'VELOCITY_24', 'NOTE_ON_24', 'VELOCITY_21', 'TIME_SHIFT_60ms', 'TIME_SHIFT_10ms', 'TIME_SHIFT_30ms', 'TIME_SHIFT_10ms', 'NOTE_OFF_24', 'TIME_SHIFT_10ms', 'TIME_SHIFT_10ms', 'NOTE_OFF_62', 'TIME_SHIFT_30ms', 'TIME_SHIFT_10ms', 'NOTE_OFF_42', 'NOTE_ON_42', 'VELOCITY_20', 'TIME_SHIFT_50ms', 'TIME_SHIFT_50ms', 'TIME_SHIFT_10ms', 'TIME_SHIFT_10ms', 'NOTE_ON_46', 'VELOCITY_17', 'TIME_SHIFT_30ms', 'TIME_SHIFT_10ms', 'NOTE_ON_65', 'VELOCITY_19', 'TIME_SHIFT_10ms', 'TIME_SHIFT_10ms', 'NOTE_OFF_55', 'NOTE_OFF_42', 'NOTE_OFF_54', 'NOTE_OFF_60', 'NOTE_OFF_64', 'NOTE_OFF_70', 'NOTE_ON_62', 'VELOCITY_14', 'NOTE_ON_34', 'VELOCITY_19', 'NOTE_ON_62', 'VELOCITY_20', 'NOTE_ON_46', 'VELOCITY_16', 'NOTE_ON_65', 'VELOCITY_17', 'NOTE_OFF_35', 'NOTE_ON_35', 'VELOCITY_25', 'NOTE_ON_58', 'VELOCITY_17', 'NOTE_ON_42', 'VELOCITY_21', 'NOTE_ON_65', 'VELOCITY_24', 'TIME_SHIFT_60ms', 'TIME_SHIFT_10ms', 'TIME_SHIFT_10ms', 'TIME_SHIFT_10ms', 'TIME_SHIFT_30ms', 'TIME_SHIFT_10ms', 'TIME_SHIFT_110ms', 'TIME_SHIFT_10ms', 'TIME_SHIFT_80ms', 'TIME_SHIFT_10ms', 'NOTE_OFF_65', 'NOTE_ON_65', 'VELOCITY_24', 'NOTE_ON_70', 'VELOCITY_10', 'NOTE_ON_53', 'VELOCITY_9', 'NOTE_ON_42', 'VELOCITY_12', 'NOTE_OFF_42', 'TIME_SHIFT_30ms', 'TIME_SHIFT_10ms', 'TIME_SHIFT_30ms', 'TIME_SHIFT_10ms', 'NOTE_OFF_65', 'TIME_SHIFT_130ms', 'TIME_SHIFT_10ms', 'TIME_SHIFT_100ms', 'NOTE_OFF_65', 'NOTE_OFF_70', 'NOTE_OFF_42', 'NOTE_ON_65', 'VELOCITY_24', 'NOTE_ON_58', 'VELOCITY_14', 'NOTE_ON_42', 'VELOCITY_12', 'NOTE_ON_70', 'VELOCITY_9', 'TIME_SHIFT_10ms', 'TIME_SHIFT_10ms', 'NOTE_ON_58', 'VELOCITY_13', 'TIME_SHIFT_30ms', 'TIME_SHIFT_10ms', 'NOTE_OFF_62', 'TIME_SHIFT_10ms', 'TIME_SHIFT_10ms', 'TIME_SHIFT_10ms', 'TIME_SHIFT_10ms', 'TIME_SHIFT_60ms', 'TIME_SHIFT_10ms', 'TIME_SHIFT_80ms', 'TIME_SHIFT_10ms', 'TIME_SHIFT_60ms', 'TIME_SHIFT_10ms', 'TIME_SHIFT_10ms', 'TIME_SHIFT_10ms', 'NOTE_ON_42', 'VELOCITY_25', 'NOTE_ON_37', 'VELOCITY_21', 'NOTE_ON_54', 'VELOCITY_19', 'NOTE_OFF_65', 'NOTE_OFF_35', 'NOTE_OFF_42', 'NOTE_ON_65', 'VELOCITY_24', 'NOTE_OFF_70', 'TIME_SHIFT_50ms', 'NOTE_OFF_58', 'TIME_SHIFT_30ms', 'TIME_SHIFT_10ms', 'TIME_SHIFT_60ms', 'TIME_SHIFT_10ms', 'TIME_SHIFT_50ms', 'NOTE_OFF_53', 'NOTE_OFF_58', 'TIME_SHIFT_10ms', 'TIME_SHIFT_10ms', 'TIME_SHIFT_10ms', 'TIME_SHIFT_10ms', 'NOTE_OFF_46', 'TIME_SHIFT_10ms', 'TIME_SHIFT_10ms', 'NOTE_OFF_46', 'TIME_SHIFT_10ms', 'TIME_SHIFT_10ms', 'NOTE_OFF_34', 'TIME_SHIFT_30ms', 'TIME_SHIFT_10ms', 'NOTE_ON_65', 'VELOCITY_15', 'TIME_SHIFT_10ms', 'TIME_SHIFT_10ms', 'NOTE_ON_70', 'VELOCITY_14', 'NOTE_ON_67', 'VELOCITY_24', 'NOTE_OFF_65', 'NOTE_ON_42', 'VELOCITY_9', 'NOTE_ON_62', 'VELOCITY_12', 'NOTE_OFF_42', 'TIME_SHIFT_50ms', 'TIME_SHIFT_50ms', 'NOTE_OFF_65', 'TIME_SHIFT_60ms', 'TIME_SHIFT_10ms', 'NOTE_ON_42', 'VELOCITY_12', 'NOTE_OFF_42', 'TIME_SHIFT_110ms', 'TIME_SHIFT_10ms', 'TIME_SHIFT_30ms', 'TIME_SHIFT_10ms', 'NOTE_ON_42', 'VELOCITY_13', 'NOTE_ON_70', 'VELOCITY_9', 'NOTE_OFF_42', 'NOTE_OFF_67', 'NOTE_ON_69', 'VELOCITY_24', 'NOTE_ON_34', 'VELOCITY_23', 'NOTE_OFF_70', 'TIME_SHIFT_80ms', 'TIME_SHIFT_10ms', 'TIME_SHIFT_10ms', 'TIME_SHIFT_10ms', 'TIME_SHIFT_10ms', 'TIME_SHIFT_10ms', 'NOTE_OFF_34', 'TIME_SHIFT_10ms', 'TIME_SHIFT_10ms', 'NOTE_OFF_62', 'TIME_SHIFT_10ms', 'TIME_SHIFT_10ms', 'TIME_SHIFT_10ms', 'TIME_SHIFT_10ms', 'NOTE_OFF_42', 'NOTE_ON_42', 'VELOCITY_15', 'TIME_SHIFT_30ms', 'TIME_SHIFT_10ms', 'TIME_SHIFT_100ms', 'NOTE_ON_45', 'VELOCITY_18', 'TIME_SHIFT_10ms', 'TIME_SHIFT_10ms', 'NOTE_ON_45', 'VELOCITY_19', 'NOTE_OFF_69', 'NOTE_OFF_42', 'NOTE_OFF_37', 'NOTE_OFF_65', 'NOTE_ON_33', 'VELOCITY_22', 'NOTE_ON_64', 'VELOCITY_17', 'NOTE_ON_69', 'VELOCITY_18', 'NOTE_OFF_70', 'NOTE_ON_64', 'VELOCITY_15', 'NOTE_ON_57', 'VELOCITY_16', 'NOTE_OFF_58', 'NOTE_ON_60', 'VELOCITY_17', 'NOTE_OFF_62', 'NOTE_ON_42', 'VELOCITY_27', 'NOTE_ON_35', 'VELOCITY_25', 'NOTE_ON_64', 'VELOCITY_24', 'NOTE_OFF_54', 'TIME_SHIFT_10ms', 'TIME_SHIFT_10ms', 'TIME_SHIFT_10ms', 'TIME_SHIFT_10ms', 'TIME_SHIFT_200ms', 'NOTE_OFF_69', 'TIME_SHIFT_30ms', 'TIME_SHIFT_10ms', 'NOTE_OFF_64', 'TIME_SHIFT_50ms', 'NOTE_ON_52', 'VELOCITY_11', 'NOTE_ON_70', 'VELOCITY_16', 'NOTE_OFF_42', 'NOTE_ON_42', 'VELOCITY_12', 'TIME_SHIFT_60ms', 'TIME_SHIFT_10ms', 'NOTE_ON_52', 'VELOCITY_11', 'TIME_SHIFT_100ms', 'TIME_SHIFT_150ms', 'NOTE_ON_57', 'VELOCITY_13', 'NOTE_OFF_42', 'NOTE_ON_64', 'VELOCITY_18', 'NOTE_OFF_70', 'NOTE_ON_42', 'VELOCITY_6', 'NOTE_ON_70', 'VELOCITY_11', 'TIME_SHIFT_80ms', 'TIME_SHIFT_10ms', 'TIME_SHIFT_50ms', 'NOTE_OFF_52', 'TIME_SHIFT_180ms', 'TIME_SHIFT_10ms', 'NOTE_OFF_64', 'NOTE_ON_64', 'VELOCITY_16', 'NOTE_ON_42', 'VELOCITY_29', 'NOTE_OFF_35', 'NOTE_OFF_70', 'NOTE_ON_37', 'VELOCITY_23', 'NOTE_OFF_42', 'NOTE_ON_54', 'VELOCITY_25', 'TIME_SHIFT_100ms', 'NOTE_OFF_33', 'NOTE_OFF_45', 'NOTE_OFF_52', 'TIME_SHIFT_160ms', 'TIME_SHIFT_10ms', 'NOTE_OFF_64', 'TIME_SHIFT_10ms', 'TIME_SHIFT_10ms', 'NOTE_OFF_45', 'TIME_SHIFT_10ms', 'TIME_SHIFT_10ms', 'NOTE_OFF_64', 'TIME_SHIFT_10ms', 'TIME_SHIFT_10ms', 'NOTE_OFF_42', 'NOTE_ON_31', 'VELOCITY_22', 'NOTE_ON_70', 'VELOCITY_15', 'NOTE_OFF_37', 'NOTE_ON_57', 'VELOCITY_13', 'NOTE_ON_42', 'VELOCITY_8', 'TIME_SHIFT_10ms', 'TIME_SHIFT_10ms', 'NOTE_OFF_57', 'TIME_SHIFT_130ms', 'TIME_SHIFT_10ms', 'NOTE_ON_42', 'VELOCITY_9', 'NOTE_OFF_42', 'TIME_SHIFT_130ms', 'TIME_SHIFT_10ms', 'TIME_SHIFT_30ms', 'TIME_SHIFT_10ms', 'NOTE_ON_33', 'VELOCITY_20', 'NOTE_OFF_70', 'NOTE_ON_42', 'VELOCITY_15', 'NOTE_ON_60', 'VELOCITY_24', 'NOTE_OFF_42', 'NOTE_ON_70', 'VELOCITY_14', 'NOTE_ON_35', 'VELOCITY_25', 'TIME_SHIFT_10ms', 'TIME_SHIFT_10ms', 'NOTE_OFF_31', 'TIME_SHIFT_30ms', 'TIME_SHIFT_10ms', 'TIME_SHIFT_10ms', 'TIME_SHIFT_10ms', 'TIME_SHIFT_30ms', 'TIME_SHIFT_10ms', 'NOTE_OFF_60', 'TIME_SHIFT_50ms', 'NOTE_ON_42', 'VELOCITY_20', 'NOTE_OFF_57', 'NOTE_OFF_42', 'TIME_SHIFT_60ms', 'TIME_SHIFT_10ms', 'TIME_SHIFT_10ms', 'TIME_SHIFT_10ms', 'NOTE_OFF_33', 'TIME_SHIFT_60ms', 'TIME_SHIFT_10ms', 'NOTE_ON_50', 'VELOCITY_20', 'TIME_SHIFT_10ms', 'TIME_SHIFT_10ms', 'NOTE_OFF_42', 'NOTE_OFF_35', 'NOTE_OFF_70', 'NOTE_OFF_60', 'NOTE_ON_62', 'VELOCITY_24', 'NOTE_ON_26', 'VELOCITY_23', 'NOTE_OFF_64', 'NOTE_OFF_57', 'NOTE_ON_65', 'VELOCITY_16', 'NOTE_OFF_54', 'NOTE_ON_42', 'VELOCITY_21', 'NOTE_ON_35', 'VELOCITY_25', 'NOTE_ON_65', 'VELOCITY_14', 'NOTE_ON_62', 'VELOCITY_15', 'NOTE_ON_62', 'VELOCITY_16', 'NOTE_ON_46', 'VELOCITY_17', 'NOTE_ON_57', 'VELOCITY_13', 'TIME_SHIFT_30ms', 'TIME_SHIFT_10ms', 'TIME_SHIFT_30ms', 'TIME_SHIFT_10ms', 'TIME_SHIFT_10ms', 'TIME_SHIFT_10ms', 'NOTE_OFF_46', 'TIME_SHIFT_30ms', 'TIME_SHIFT_10ms', 'TIME_SHIFT_10ms', 'TIME_SHIFT_10ms', 'TIME_SHIFT_50ms', 'NOTE_OFF_62', 'TIME_SHIFT_30ms', 'TIME_SHIFT_10ms', 'TIME_SHIFT_10ms', 'TIME_SHIFT_10ms', 'TIME_SHIFT_30ms', 'TIME_SHIFT_10ms', 'NOTE_OFF_65', 'TIME_SHIFT_10ms', 'TIME_SHIFT_10ms', 'NOTE_OFF_62', 'TIME_SHIFT_30ms', 'TIME_SHIFT_10ms', 'NOTE_ON_42', 'VELOCITY_12', 'NOTE_ON_53', 'VELOCITY_13', 'NOTE_OFF_42', 'NOTE_ON_62', 'VELOCITY_24', 'NOTE_ON_70', 'VELOCITY_10', 'TIME_SHIFT_30ms', 'TIME_SHIFT_10ms', 'NOTE_ON_57', 'VELOCITY_12', 'TIME_SHIFT_60ms', 'TIME_SHIFT_10ms', 'NOTE_OFF_62', 'TIME_SHIFT_50ms', 'TIME_SHIFT_110ms', 'TIME_SHIFT_10ms', 'TIME_SHIFT_10ms', 'TIME_SHIFT_10ms', 'NOTE_OFF_53', 'TIME_SHIFT_30ms', 'TIME_SHIFT_10ms', 'NOTE_ON_70', 'VELOCITY_9', 'NOTE_OFF_70', 'NOTE_OFF_42', 'NOTE_ON_62', 'VELOCITY_24', 'NOTE_ON_42', 'VELOCITY_12', 'TIME_SHIFT_10ms', 'TIME_SHIFT_10ms', 'NOTE_ON_62', 'VELOCITY_13', 'TIME_SHIFT_30ms', 'TIME_SHIFT_10ms', 'TIME_SHIFT_50ms', 'TIME_SHIFT_30ms', 'TIME_SHIFT_10ms', 'NOTE_OFF_62', 'TIME_SHIFT_10ms', 'TIME_SHIFT_10ms', 'TIME_SHIFT_60ms', 'TIME_SHIFT_10ms', 'NOTE_OFF_57', 'TIME_SHIFT_100ms', 'NOTE_OFF_42', 'NOTE_OFF_70', 'NOTE_ON_62', 'VELOCITY_24', 'NOTE_ON_37', 'VELOCITY_21', 'NOTE_ON_42', 'VELOCITY_25', 'NOTE_ON_54', 'VELOCITY_19', 'NOTE_OFF_35', 'TIME_SHIFT_30ms', 'TIME_SHIFT_10ms', 'NOTE_OFF_26', 'TIME_SHIFT_30ms', 'TIME_SHIFT_10ms', 'TIME_SHIFT_60ms', 'TIME_SHIFT_10ms', 'TIME_SHIFT_30ms', 'TIME_SHIFT_10ms', 'NOTE_OFF_50', 'TIME_SHIFT_30ms', 'TIME_SHIFT_10ms', 'NOTE_OFF_62', 'TIME_SHIFT_80ms', 'TIME_SHIFT_10ms', 'NOTE_ON_65', 'VELOCITY_16', 'TIME_SHIFT_10ms', 'TIME_SHIFT_10ms', 'NOTE_OFF_62', 'TIME_SHIFT_10ms', 'TIME_SHIFT_10ms', 'NOTE_OFF_42', 'NOTE_ON_42', 'VELOCITY_9', 'NOTE_ON_62', 'VELOCITY_15', 'NOTE_ON_70', 'VELOCITY_14', 'TIME_SHIFT_150ms', 'NOTE_ON_42', 'VELOCITY_12', 'NOTE_OFF_42', 'TIME_SHIFT_60ms', 'TIME_SHIFT_10ms', 'NOTE_OFF_65', 'TIME_SHIFT_50ms', 'TIME_SHIFT_10ms', 'TIME_SHIFT_10ms', 'NOTE_OFF_62', 'NOTE_ON_62', 'VELOCITY_12', 'TIME_SHIFT_30ms', 'TIME_SHIFT_10ms', 'NOTE_ON_42', 'VELOCITY_13', 'NOTE_ON_65', 'VELOCITY_24', 'NOTE_OFF_70', 'NOTE_ON_57', 'VELOCITY_12', 'NOTE_OFF_42', 'NOTE_ON_26', 'VELOCITY_21', 'NOTE_ON_70', 'VELOCITY_9', 'TIME_SHIFT_10ms', 'TIME_SHIFT_10ms', 'TIME_SHIFT_80ms', 'TIME_SHIFT_10ms', 'TIME_SHIFT_50ms', 'NOTE_ON_42', 'VELOCITY_15', 'NOTE_OFF_42', 'NOTE_OFF_65', 'TIME_SHIFT_10ms', 'TIME_SHIFT_10ms', 'TIME_SHIFT_30ms', 'TIME_SHIFT_10ms', 'TIME_SHIFT_80ms', 'TIME_SHIFT_10ms', 'NOTE_OFF_62', 'TIME_SHIFT_30ms', 'TIME_SHIFT_10ms', 'NOTE_OFF_37', 'NOTE_OFF_62', 'NOTE_ON_65', 'VELOCITY_18', 'NOTE_OFF_54', 'NOTE_OFF_65', 'NOTE_OFF_26', 'NOTE_OFF_57', 'NOTE_OFF_57', 'NOTE_ON_67', 'VELOCITY_24', 'NOTE_ON_42', 'VELOCITY_27', 'NOTE_ON_65', 'VELOCITY_18', 'NOTE_OFF_70', 'NOTE_ON_57', 'VELOCITY_19', 'NOTE_ON_29', 'VELOCITY_20', 'NOTE_ON_41', 'VELOCITY_17', 'NOTE_ON_60', 'VELOCITY_19', 'NOTE_OFF_42', 'NOTE_ON_35', 'VELOCITY_25', 'NOTE_ON_41', 'VELOCITY_17', 'TIME_SHIFT_50ms', 'TIME_SHIFT_10ms', 'TIME_SHIFT_10ms', 'TIME_SHIFT_50ms', 'TIME_SHIFT_10ms', 'TIME_SHIFT_10ms', 'NOTE_OFF_67', 'TIME_SHIFT_10ms', 'TIME_SHIFT_10ms', 'NOTE_OFF_65', 'TIME_SHIFT_80ms', 'TIME_SHIFT_10ms', 'TIME_SHIFT_60ms', 'TIME_SHIFT_10ms', 'NOTE_ON_48', 'VELOCITY_14', 'NOTE_ON_67', 'VELOCITY_24', 'NOTE_ON_42', 'VELOCITY_12', 'NOTE_OFF_42', 'NOTE_ON_70', 'VELOCITY_16', 'TIME_SHIFT_10ms', 'TIME_SHIFT_10ms', 'NOTE_ON_48', 'VELOCITY_16', 'TIME_SHIFT_30ms', 'TIME_SHIFT_10ms', 'TIME_SHIFT_110ms', 'TIME_SHIFT_10ms', 'TIME_SHIFT_100ms', 'NOTE_OFF_67', 'TIME_SHIFT_10ms', 'TIME_SHIFT_10ms', 'TIME_SHIFT_30ms', 'TIME_SHIFT_10ms', 'NOTE_OFF_70', 'NOTE_ON_65', 'VELOCITY_24', 'NOTE_ON_57', 'VELOCITY_13', 'NOTE_ON_70', 'VELOCITY_11', 'NOTE_OFF_42', 'NOTE_ON_42', 'VELOCITY_6', 'TIME_SHIFT_10ms', 'TIME_SHIFT_10ms', 'NOTE_ON_53', 'VELOCITY_14', 'TIME_SHIFT_10ms', 'TIME_SHIFT_10ms', 'TIME_SHIFT_80ms', 'TIME_SHIFT_10ms', 'TIME_SHIFT_60ms', 'TIME_SHIFT_10ms', 'TIME_SHIFT_60ms', 'TIME_SHIFT_10ms', 'TIME_SHIFT_60ms', 'TIME_SHIFT_10ms', 'NOTE_ON_54', 'VELOCITY_25', 'NOTE_ON_42', 'VELOCITY_29', 'NOTE_ON_69', 'VELOCITY_24', 'NOTE_OFF_70', 'NOTE_OFF_35', 'NOTE_OFF_65', 'NOTE_ON_55', 'VELOCITY_20', 'NOTE_OFF_42', 'NOTE_ON_37', 'VELOCITY_23', 'TIME_SHIFT_100ms', 'TIME_SHIFT_100ms', 'TIME_SHIFT_80ms', 'TIME_SHIFT_10ms', 'NOTE_OFF_29', 'TIME_SHIFT_30ms', 'TIME_SHIFT_10ms', 'NOTE_ON_42', 'VELOCITY_8', 'NOTE_OFF_42', 'NOTE_ON_70', 'VELOCITY_15', 'NOTE_OFF_37', 'NOTE_ON_65', 'VELOCITY_11', 'TIME_SHIFT_10ms', 'TIME_SHIFT_10ms', 'NOTE_ON_57', 'VELOCITY_19', 'TIME_SHIFT_30ms', 'TIME_SHIFT_10ms', 'NOTE_OFF_69', 'TIME_SHIFT_10ms', 'TIME_SHIFT_10ms', 'TIME_SHIFT_10ms', 'TIME_SHIFT_10ms', 'NOTE_OFF_57', 'TIME_SHIFT_50ms', 'NOTE_OFF_55', 'TIME_SHIFT_30ms', 'TIME_SHIFT_10ms', 'NOTE_OFF_42', 'NOTE_ON_42', 'VELOCITY_9', 'TIME_SHIFT_80ms', 'TIME_SHIFT_10ms', 'NOTE_OFF_48', 'TIME_SHIFT_60ms', 'TIME_SHIFT_10ms', 'NOTE_OFF_70', 'NOTE_OFF_65', 'NOTE_ON_60', 'VELOCITY_14', 'NOTE_OFF_42', 'NOTE_ON_29', 'VELOCITY_22', 'NOTE_ON_70', 'VELOCITY_14', 'NOTE_ON_35', 'VELOCITY_25', 'NOTE_ON_42', 'VELOCITY_15', 'TIME_SHIFT_30ms', 'TIME_SHIFT_10ms', 'NOTE_ON_60', 'VELOCITY_19', 'NOTE_OFF_57', 'TIME_SHIFT_10ms', 'TIME_SHIFT_10ms', 'NOTE_OFF_41', 'TIME_SHIFT_30ms', 'TIME_SHIFT_10ms', 'NOTE_OFF_48', 'TIME_SHIFT_10ms', 'TIME_SHIFT_10ms', 'NOTE_OFF_60', 'NOTE_OFF_41', 'TIME_SHIFT_10ms', 'TIME_SHIFT_10ms', 'NOTE_OFF_53', 'TIME_SHIFT_30ms', 'TIME_SHIFT_10ms', 'NOTE_OFF_60', 'TIME_SHIFT_10ms', 'TIME_SHIFT_10ms', 'NOTE_OFF_29', 'NOTE_OFF_42', 'NOTE_ON_42', 'VELOCITY_20', 'TIME_SHIFT_80ms', 'TIME_SHIFT_10ms', 'TIME_SHIFT_10ms', 'TIME_SHIFT_10ms', 'TIME_SHIFT_50ms', 'NOTE_OFF_42', 'NOTE_OFF_57', 'NOTE_OFF_70', 'NOTE_ON_58', 'VELOCITY_18', 'NOTE_OFF_60', 'NOTE_OFF_54', 'NOTE_OFF_35', 'NOTE_ON_67', 'VELOCITY_24', 'NOTE_OFF_65', 'NOTE_ON_43', 'VELOCITY_22', 'NOTE_ON_31', 'VELOCITY_23', 'NOTE_ON_43', 'VELOCITY_19', 'NOTE_ON_62', 'VELOCITY_17', 'NOTE_ON_42', 'VELOCITY_21', 'NOTE_ON_55', 'VELOCITY_20', 'NOTE_ON_58', 'VELOCITY_17', 'NOTE_ON_62', 'VELOCITY_21', 'NOTE_ON_35', 'VELOCITY_25', 'TIME_SHIFT_60ms', 'TIME_SHIFT_10ms', 'TIME_SHIFT_50ms', 'TIME_SHIFT_30ms', 'TIME_SHIFT_10ms', 'NOTE_OFF_62', 'TIME_SHIFT_80ms', 'TIME_SHIFT_10ms', 'TIME_SHIFT_80ms', 'TIME_SHIFT_10ms', 'NOTE_ON_58', 'VELOCITY_11', 'NOTE_OFF_42', 'NOTE_OFF_67', 'NOTE_ON_70', 'VELOCITY_10', 'NOTE_ON_42', 'VELOCITY_12', 'NOTE_ON_67', 'VELOCITY_24', 'NOTE_ON_50', 'VELOCITY_20', 'TIME_SHIFT_30ms', 'TIME_SHIFT_10ms', 'TIME_SHIFT_80ms', 'TIME_SHIFT_10ms', 'NOTE_OFF_58', 'TIME_SHIFT_80ms', 'TIME_SHIFT_10ms', 'TIME_SHIFT_110ms', 'TIME_SHIFT_10ms', 'NOTE_ON_70', 'VELOCITY_9', 'NOTE_ON_62', 'VELOCITY_14', 'NOTE_ON_42', 'VELOCITY_12', 'NOTE_OFF_67', 'NOTE_OFF_42', 'NOTE_ON_67', 'VELOCITY_24', 'NOTE_ON_55', 'VELOCITY_17', 'NOTE_OFF_70', 'TIME_SHIFT_50ms', 'TIME_SHIFT_30ms', 'TIME_SHIFT_10ms', 'TIME_SHIFT_50ms', 'TIME_SHIFT_30ms', 'TIME_SHIFT_10ms', 'TIME_SHIFT_50ms', 'TIME_SHIFT_50ms', 'TIME_SHIFT_50ms', 'NOTE_OFF_42', 'NOTE_ON_67', 'VELOCITY_24', 'NOTE_OFF_67', 'NOTE_ON_62', 'VELOCITY_20', 'NOTE_OFF_70', 'NOTE_ON_42', 'VELOCITY_25', 'NOTE_ON_67', 'VELOCITY_18', 'NOTE_OFF_35', 'NOTE_ON_37', 'VELOCITY_21', 'NOTE_ON_54', 'VELOCITY_19', 'NOTE_OFF_62', 'TIME_SHIFT_50ms', 'NOTE_OFF_58', 'TIME_SHIFT_80ms', 'TIME_SHIFT_10ms', 'NOTE_OFF_31', 'NOTE_OFF_50', 'TIME_SHIFT_10ms', 'TIME_SHIFT_10ms', 'NOTE_OFF_67', 'TIME_SHIFT_10ms', 'TIME_SHIFT_10ms', 'NOTE_OFF_43', 'TIME_SHIFT_10ms', 'TIME_SHIFT_10ms', 'NOTE_OFF_43', 'TIME_SHIFT_10ms', 'TIME_SHIFT_10ms', 'NOTE_OFF_55', 'TIME_SHIFT_80ms', 'TIME_SHIFT_10ms', 'NOTE_OFF_62', 'TIME_SHIFT_30ms', 'TIME_SHIFT_10ms', 'NOTE_OFF_42', 'NOTE_ON_58', 'VELOCITY_10', 'NOTE_OFF_67', 'NOTE_ON_70', 'VELOCITY_14', 'NOTE_ON_65', 'VELOCITY_24', 'NOTE_ON_42', 'VELOCITY_9', 'TIME_SHIFT_30ms', 'TIME_SHIFT_10ms', 'NOTE_OFF_58', 'TIME_SHIFT_80ms', 'TIME_SHIFT_10ms', 'TIME_SHIFT_30ms', 'TIME_SHIFT_10ms', 'NOTE_OFF_42', 'NOTE_ON_42', 'VELOCITY_12', 'TIME_SHIFT_30ms', 'TIME_SHIFT_10ms', 'TIME_SHIFT_60ms', 'TIME_SHIFT_10ms', 'TIME_SHIFT_60ms', 'TIME_SHIFT_10ms', 'NOTE_ON_31', 'VELOCITY_22', 'NOTE_OFF_70', 'NOTE_ON_42', 'VELOCITY_13', 'NOTE_OFF_42', 'NOTE_OFF_65', 'NOTE_ON_70', 'VELOCITY_9', 'NOTE_ON_67', 'VELOCITY_24', 'TIME_SHIFT_80ms', 'TIME_SHIFT_10ms', 'TIME_SHIFT_30ms', 'TIME_SHIFT_10ms', 'TIME_SHIFT_10ms', 'TIME_SHIFT_10ms', 'TIME_SHIFT_10ms', 'TIME_SHIFT_10ms', 'NOTE_OFF_42', 'NOTE_ON_42', 'VELOCITY_15', 'TIME_SHIFT_10ms', 'TIME_SHIFT_10ms', 'TIME_SHIFT_50ms', 'TIME_SHIFT_10ms', 'TIME_SHIFT_10ms', 'NOTE_OFF_31', 'TIME_SHIFT_30ms', 'TIME_SHIFT_10ms', 'TIME_SHIFT_30ms', 'TIME_SHIFT_10ms', 'TIME_SHIFT_10ms', 'TIME_SHIFT_10ms', 'NOTE_ON_33', 'VELOCITY_21', 'NOTE_ON_45', 'VELOCITY_19', 'NOTE_ON_69', 'VELOCITY_24', 'NOTE_ON_57', 'VELOCITY_16', 'NOTE_ON_60', 'VELOCITY_18', 'NOTE_ON_64', 'VELOCITY_19', 'NOTE_ON_60', 'VELOCITY_15', 'NOTE_ON_45', 'VELOCITY_19', 'NOTE_ON_35', 'VELOCITY_25', 'NOTE_OFF_70', 'NOTE_ON_64', 'VELOCITY_17', 'NOTE_OFF_67', 'NOTE_OFF_42', 'NOTE_ON_42', 'VELOCITY_27', 'NOTE_OFF_54', 'NOTE_OFF_62', 'NOTE_OFF_37', 'NOTE_OFF_58', 'NOTE_OFF_55', 'TIME_SHIFT_30ms', 'TIME_SHIFT_10ms', 'TIME_SHIFT_80ms', 'TIME_SHIFT_10ms', 'TIME_SHIFT_110ms', 'TIME_SHIFT_10ms', 'TIME_SHIFT_50ms', 'NOTE_OFF_60', 'NOTE_OFF_64', 'TIME_SHIFT_30ms', 'TIME_SHIFT_10ms', 'NOTE_ON_42', 'VELOCITY_12', 'NOTE_ON_60', 'VELOCITY_11', 'NOTE_ON_52', 'VELOCITY_15', 'NOTE_ON_70', 'VELOCITY_16', 'NOTE_OFF_42', 'TIME_SHIFT_30ms', 'TIME_SHIFT_10ms', 'TIME_SHIFT_100ms', 'NOTE_OFF_69', 'TIME_SHIFT_130ms', 'TIME_SHIFT_10ms', 'TIME_SHIFT_50ms', 'NOTE_ON_64', 'VELOCITY_14', 'NOTE_ON_57', 'VELOCITY_16', 'NOTE_ON_67', 'VELOCITY_24', 'NOTE_OFF_70', 'NOTE_ON_70', 'VELOCITY_11', 'NOTE_ON_42', 'VELOCITY_6', 'NOTE_OFF_42', 'TIME_SHIFT_60ms', 'TIME_SHIFT_10ms', 'TIME_SHIFT_110ms', 'TIME_SHIFT_10ms', 'NOTE_OFF_60', 'TIME_SHIFT_130ms', 'TIME_SHIFT_10ms', 'NOTE_ON_37', 'VELOCITY_23', 'NOTE_ON_69', 'VELOCITY_24', 'NOTE_ON_64', 'VELOCITY_19', 'NOTE_OFF_35', 'NOTE_ON_69', 'VELOCITY_19', 'NOTE_OFF_67', 'NOTE_ON_42', 'VELOCITY_29', 'NOTE_ON_54', 'VELOCITY_25', 'NOTE_ON_60', 'VELOCITY_15', 'NOTE_OFF_42', 'NOTE_OFF_70', 'TIME_SHIFT_50ms', 'NOTE_OFF_52', 'NOTE_OFF_57', 'TIME_SHIFT_10ms', 'TIME_SHIFT_10ms', 'NOTE_OFF_64', 'TIME_SHIFT_10ms', 'TIME_SHIFT_10ms', 'NOTE_OFF_69', 'NOTE_OFF_45', 'TIME_SHIFT_30ms', 'TIME_SHIFT_10ms', 'TIME_SHIFT_10ms', 'TIME_SHIFT_10ms', 'NOTE_OFF_64', 'NOTE_OFF_45', 'TIME_SHIFT_50ms', 'NOTE_OFF_60', 'TIME_SHIFT_50ms', 'TIME_SHIFT_80ms', 'TIME_SHIFT_10ms', 'NOTE_OFF_69', 'NOTE_ON_42', 'VELOCITY_8', 'NOTE_OFF_37', 'NOTE_OFF_42', 'NOTE_ON_70', 'VELOCITY_15', 'TIME_SHIFT_30ms', 'TIME_SHIFT_10ms', 'NOTE_OFF_33', 'TIME_SHIFT_110ms', 'TIME_SHIFT_10ms', 'NOTE_ON_42', 'VELOCITY_9', 'NOTE_OFF_42', 'TIME_SHIFT_110ms', 'TIME_SHIFT_10ms', 'TIME_SHIFT_30ms', 'TIME_SHIFT_10ms', 'NOTE_ON_72', 'VELOCITY_24', 'NOTE_OFF_42', 'NOTE_ON_70', 'VELOCITY_14', 'NOTE_ON_35', 'VELOCITY_25', 'NOTE_OFF_70', 'NOTE_ON_42', 'VELOCITY_15', 'TIME_SHIFT_80ms', 'TIME_SHIFT_10ms', 'TIME_SHIFT_30ms', 'TIME_SHIFT_10ms', 'TIME_SHIFT_10ms', 'TIME_SHIFT_10ms', 'TIME_SHIFT_30ms', 'TIME_SHIFT_10ms', 'NOTE_ON_42', 'VELOCITY_20', 'NOTE_OFF_42', 'TIME_SHIFT_60ms', 'TIME_SHIFT_10ms', 'NOTE_OFF_72', 'TIME_SHIFT_60ms', 'TIME_SHIFT_10ms', 'TIME_SHIFT_10ms', 'TIME_SHIFT_10ms', 'NOTE_ON_62', 'VELOCITY_22', 'NOTE_ON_38', 'VELOCITY_22', 'NOTE_ON_74', 'VELOCITY_26', 'NOTE_OFF_54', 'NOTE_OFF_60', 'NOTE_OFF_57', 'NOTE_OFF_64', 'NOTE_OFF_35', 'NOTE_OFF_70', 'NOTE_OFF_42', 'NOTE_ON_69', 'VELOCITY_24', 'NOTE_ON_35', 'VELOCITY_25', 'NOTE_ON_50', 'VELOCITY_20', 'NOTE_ON_42', 'VELOCITY_17', 'NOTE_ON_62', 'VELOCITY_21', 'NOTE_ON_50', 'VELOCITY_20', 'NOTE_ON_62', 'VELOCITY_19', 'TIME_SHIFT_150ms', 'TIME_SHIFT_100ms', 'NOTE_OFF_62', 'NOTE_OFF_50', 'NOTE_OFF_74', 'TIME_SHIFT_30ms', 'TIME_SHIFT_10ms', 'NOTE_OFF_50', 'TIME_SHIFT_10ms', 'TIME_SHIFT_10ms', 'NOTE_OFF_62', 'TIME_SHIFT_10ms', 'TIME_SHIFT_10ms', 'NOTE_OFF_62', 'NOTE_OFF_35', 'NOTE_OFF_42', 'TIME_SHIFT_60ms', 'TIME_SHIFT_10ms', 'NOTE_OFF_38', 'TIME_SHIFT_50ms', 'TIME_SHIFT_50ms', 'NOTE_OFF_69', 'TIME_SHIFT_110ms', 'TIME_SHIFT_10ms', 'TIME_SHIFT_30ms', 'TIME_SHIFT_10ms', 'NOTE_ON_74', 'VELOCITY_22', 'NOTE_ON_38', 'VELOCITY_22', 'NOTE_ON_50', 'VELOCITY_19', 'NOTE_ON_62', 'VELOCITY_20', 'NOTE_ON_62', 'VELOCITY_22', 'NOTE_ON_35', 'VELOCITY_25', 'NOTE_ON_42', 'VELOCITY_17', 'NOTE_ON_74', 'VELOCITY_24', 'TIME_SHIFT_100ms', 'NOTE_OFF_74', 'TIME_SHIFT_10ms', 'TIME_SHIFT_10ms', 'NOTE_OFF_62', 'TIME_SHIFT_130ms', 'TIME_SHIFT_10ms', 'NOTE_OFF_38', 'TIME_SHIFT_10ms', 'TIME_SHIFT_10ms', 'NOTE_OFF_50', 'NOTE_OFF_62', 'TIME_SHIFT_50ms', 'NOTE_OFF_35', 'NOTE_ON_41', 'VELOCITY_21', 'NOTE_ON_65', 'VELOCITY_22', 'NOTE_OFF_42', 'NOTE_ON_53', 'VELOCITY_17', 'NOTE_ON_65', 'VELOCITY_21', 'NOTE_ON_65', 'VELOCITY_17', 'NOTE_ON_77', 'VELOCITY_23', 'NOTE_ON_38', 'VELOCITY_22', 'NOTE_ON_46', 'VELOCITY_18', 'TIME_SHIFT_110ms', 'TIME_SHIFT_10ms', 'NOTE_OFF_65', 'TIME_SHIFT_100ms', 'NOTE_OFF_41', 'TIME_SHIFT_30ms', 'TIME_SHIFT_10ms', 'NOTE_OFF_53', 'TIME_SHIFT_10ms', 'TIME_SHIFT_10ms', 'NOTE_OFF_65', 'TIME_SHIFT_10ms', 'TIME_SHIFT_10ms', 'NOTE_OFF_65', 'TIME_SHIFT_30ms', 'TIME_SHIFT_10ms', 'NOTE_ON_35', 'VELOCITY_24', 'NOTE_ON_40', 'VELOCITY_21', 'NOTE_OFF_46', 'NOTE_ON_64', 'VELOCITY_20', 'NOTE_ON_52', 'VELOCITY_18', 'NOTE_ON_64', 'VELOCITY_19', 'NOTE_OFF_38', 'NOTE_ON_42', 'VELOCITY_17', 'NOTE_ON_76', 'VELOCITY_22', 'NOTE_ON_64', 'VELOCITY_18', 'TIME_SHIFT_30ms', 'TIME_SHIFT_10ms', 'NOTE_OFF_77', 'TIME_SHIFT_60ms', 'TIME_SHIFT_10ms', 'NOTE_OFF_64', 'TIME_SHIFT_160ms', 'TIME_SHIFT_10ms', 'NOTE_OFF_76', 'NOTE_OFF_64', 'TIME_SHIFT_10ms', 'TIME_SHIFT_10ms', 'NOTE_OFF_40', 'TIME_SHIFT_10ms', 'TIME_SHIFT_10ms', 'NOTE_OFF_52', 'TIME_SHIFT_10ms', 'TIME_SHIFT_10ms', 'NOTE_ON_60', 'VELOCITY_19', 'NOTE_OFF_64', 'NOTE_ON_42', 'VELOCITY_17', 'NOTE_ON_35', 'VELOCITY_25', 'NOTE_OFF_42', 'NOTE_ON_36', 'VELOCITY_20', 'NOTE_ON_48', 'VELOCITY_19', 'NOTE_ON_72', 'VELOCITY_22', 'NOTE_ON_60', 'VELOCITY_19', 'NOTE_ON_60', 'VELOCITY_19', 'NOTE_OFF_35', 'TIME_SHIFT_230ms', 'TIME_SHIFT_10ms', 'NOTE_OFF_60', 'TIME_SHIFT_50ms', 'NOTE_OFF_60', 'NOTE_OFF_60', 'NOTE_OFF_72', 'TIME_SHIFT_10ms', 'TIME_SHIFT_10ms', 'NOTE_OFF_36', 'TIME_SHIFT_10ms', 'TIME_SHIFT_10ms', 'NOTE_ON_50', 'VELOCITY_20', 'NOTE_ON_62', 'VELOCITY_22', 'NOTE_ON_62', 'VELOCITY_21', 'NOTE_OFF_35', 'NOTE_ON_38', 'VELOCITY_23', 'NOTE_OFF_42', 'NOTE_ON_74', 'VELOCITY_28', 'NOTE_ON_62', 'VELOCITY_22', 'NOTE_ON_57', 'VELOCITY_20', 'NOTE_ON_35', 'VELOCITY_25', 'TIME_SHIFT_10ms', 'TIME_SHIFT_10ms', 'NOTE_OFF_48', 'TIME_SHIFT_160ms', 'TIME_SHIFT_10ms', 'NOTE_OFF_74', 'TIME_SHIFT_60ms', 'TIME_SHIFT_10ms', 'NOTE_OFF_62', 'TIME_SHIFT_10ms', 'TIME_SHIFT_10ms', 'NOTE_OFF_62', 'TIME_SHIFT_10ms', 'TIME_SHIFT_10ms', 'NOTE_OFF_62', 'NOTE_OFF_50', 'TIME_SHIFT_30ms', 'TIME_SHIFT_10ms', 'NOTE_OFF_57', 'NOTE_OFF_35', 'TIME_SHIFT_150ms', 'NOTE_OFF_38', 'TIME_SHIFT_130ms', 'TIME_SHIFT_10ms', 'TIME_SHIFT_30ms', 'TIME_SHIFT_10ms', 'NOTE_ON_38', 'VELOCITY_12', 'TIME_SHIFT_80ms', 'TIME_SHIFT_10ms', 'NOTE_ON_38', 'VELOCITY_14', 'NOTE_OFF_38', 'TIME_SHIFT_60ms', 'TIME_SHIFT_10ms', 'NOTE_ON_38', 'VELOCITY_25', 'NOTE_OFF_38', 'TIME_SHIFT_80ms', 'TIME_SHIFT_10ms', 'NOTE_OFF_38', 'NOTE_OFF_74', 'NOTE_ON_38', 'VELOCITY_28', 'TIME_SHIFT_80ms', 'TIME_SHIFT_10ms', 'NOTE_ON_42', 'VELOCITY_18', 'NOTE_ON_38', 'VELOCITY_23', 'NOTE_ON_55', 'VELOCITY_30', 'NOTE_OFF_38', 'TIME_SHIFT_310ms', 'TIME_SHIFT_10ms', 'NOTE_OFF_55', 'NOTE_OFF_38', 'NOTE_ON_46', 'VELOCITY_13', 'NOTE_ON_53', 'VELOCITY_23', 'NOTE_ON_35', 'VELOCITY_21', 'NOTE_OFF_42', 'TIME_SHIFT_150ms', 'NOTE_OFF_53', 'NOTE_ON_53', 'VELOCITY_26', 'TIME_SHIFT_160ms', 'TIME_SHIFT_10ms', 'NOTE_OFF_53', 'NOTE_OFF_35', 'NOTE_ON_35', 'VELOCITY_29', 'NOTE_ON_52', 'VELOCITY_26', 'NOTE_ON_42', 'VELOCITY_25', 'NOTE_OFF_46', 'TIME_SHIFT_150ms', 'NOTE_OFF_52', 'NOTE_ON_48', 'VELOCITY_29', 'TIME_SHIFT_160ms', 'TIME_SHIFT_10ms', 'NOTE_ON_57', 'VELOCITY_18', 'NOTE_ON_69', 'VELOCITY_25', 'NOTE_ON_81', 'VELOCITY_25', 'NOTE_ON_35', 'VELOCITY_25', 'NOTE_ON_70', 'VELOCITY_15', 'NOTE_OFF_48', 'NOTE_ON_34', 'VELOCITY_23', 'NOTE_ON_77', 'VELOCITY_24', 'NOTE_ON_65', 'VELOCITY_21', 'NOTE_ON_62', 'VELOCITY_22', 'NOTE_ON_65', 'VELOCITY_16', 'NOTE_ON_42', 'VELOCITY_25', 'NOTE_ON_60', 'VELOCITY_18', 'NOTE_ON_62', 'VELOCITY_21', 'NOTE_ON_58', 'VELOCITY_16', 'NOTE_ON_46', 'VELOCITY_17', 'NOTE_ON_46', 'VELOCITY_19', 'TIME_SHIFT_160ms', 'TIME_SHIFT_10ms', 'TIME_SHIFT_150ms', 'NOTE_ON_70', 'VELOCITY_11', 'NOTE_ON_42', 'VELOCITY_5', 'NOTE_OFF_77', 'NOTE_ON_77', 'VELOCITY_24', 'NOTE_OFF_42', 'NOTE_OFF_70', 'TIME_SHIFT_10ms', 'TIME_SHIFT_10ms', 'TIME_SHIFT_10ms', 'TIME_SHIFT_10ms', 'NOTE_OFF_35', 'TIME_SHIFT_100ms', 'NOTE_OFF_65', 'NOTE_OFF_62', 'TIME_SHIFT_10ms', 'TIME_SHIFT_10ms', 'NOTE_OFF_34', 'NOTE_OFF_60', 'TIME_SHIFT_80ms', 'TIME_SHIFT_10ms', 'NOTE_OFF_46', 'TIME_SHIFT_30ms', 'TIME_SHIFT_10ms', 'TIME_SHIFT_50ms', 'NOTE_ON_60', 'VELOCITY_17', 'NOTE_ON_62', 'VELOCITY_21', 'NOTE_ON_35', 'VELOCITY_25', 'NOTE_ON_70', 'VELOCITY_20', 'NOTE_ON_34', 'VELOCITY_20', 'NOTE_ON_65', 'VELOCITY_19', 'NOTE_ON_77', 'VELOCITY_24', 'NOTE_OFF_70', 'NOTE_OFF_42', 'NOTE_OFF_77', 'NOTE_ON_70', 'VELOCITY_10', 'NOTE_ON_42', 'VELOCITY_11', 'NOTE_ON_74', 'VELOCITY_16', 'NOTE_ON_77', 'VELOCITY_18', 'NOTE_ON_65', 'VELOCITY_19', 'NOTE_ON_58', 'VELOCITY_16', 'NOTE_ON_62', 'VELOCITY_19', 'TIME_SHIFT_30ms', 'TIME_SHIFT_10ms', 'NOTE_OFF_46', 'TIME_SHIFT_10ms', 'TIME_SHIFT_10ms', 'NOTE_OFF_74', 'TIME_SHIFT_10ms', 'TIME_SHIFT_10ms', 'TIME_SHIFT_10ms', 'TIME_SHIFT_10ms', 'NOTE_OFF_70', 'TIME_SHIFT_10ms', 'TIME_SHIFT_10ms', 'NOTE_OFF_77', 'TIME_SHIFT_50ms', 'NOTE_OFF_35', 'TIME_SHIFT_60ms', 'TIME_SHIFT_10ms', 'NOTE_OFF_65', 'NOTE_OFF_62', 'TIME_SHIFT_30ms', 'TIME_SHIFT_10ms', 'NOTE_OFF_60', 'TIME_SHIFT_30ms', 'TIME_SHIFT_10ms', 'TIME_SHIFT_10ms', 'TIME_SHIFT_10ms', 'NOTE_OFF_70', 'NOTE_ON_38', 'VELOCITY_22', 'NOTE_ON_70', 'VELOCITY_18', 'NOTE_ON_42', 'VELOCITY_25', 'NOTE_OFF_77', 'NOTE_ON_77', 'VELOCITY_24', 'NOTE_OFF_57', 'NOTE_OFF_42', 'TIME_SHIFT_50ms', 'TIME_SHIFT_50ms', 'TIME_SHIFT_50ms', 'TIME_SHIFT_10ms', 'TIME_SHIFT_10ms', 'NOTE_OFF_38', 'TIME_SHIFT_30ms', 'TIME_SHIFT_10ms', 'NOTE_OFF_34', 'TIME_SHIFT_50ms', 'TIME_SHIFT_60ms', 'TIME_SHIFT_10ms', 'NOTE_OFF_70', 'NOTE_ON_77', 'VELOCITY_22', 'NOTE_ON_74', 'VELOCITY_24', 'NOTE_ON_60', 'VELOCITY_15', 'NOTE_ON_70', 'VELOCITY_25', 'NOTE_OFF_77', 'NOTE_ON_70', 'VELOCITY_8', 'NOTE_ON_74', 'VELOCITY_23', 'NOTE_ON_67', 'VELOCITY_17', 'NOTE_ON_42', 'VELOCITY_15', 'NOTE_ON_65', 'VELOCITY_20', 'NOTE_OFF_42', 'NOTE_ON_62', 'VELOCITY_17', 'TIME_SHIFT_50ms', 'TIME_SHIFT_30ms', 'TIME_SHIFT_10ms', 'NOTE_OFF_65', 'TIME_SHIFT_10ms', 'TIME_SHIFT_10ms', 'NOTE_OFF_58', 'TIME_SHIFT_10ms', 'TIME_SHIFT_10ms', 'TIME_SHIFT_50ms', 'NOTE_ON_70', 'VELOCITY_10', 'NOTE_OFF_70', 'TIME_SHIFT_10ms', 'TIME_SHIFT_10ms', 'TIME_SHIFT_30ms', 'TIME_SHIFT_10ms', 'NOTE_OFF_62', 'TIME_SHIFT_50ms', 'NOTE_OFF_67', 'TIME_SHIFT_10ms', 'TIME_SHIFT_10ms', 'NOTE_OFF_65', 'TIME_SHIFT_30ms', 'TIME_SHIFT_10ms', 'NOTE_ON_35', 'VELOCITY_25', 'NOTE_OFF_42', 'NOTE_ON_65', 'VELOCITY_15', 'NOTE_OFF_74', 'NOTE_OFF_70', 'NOTE_ON_34', 'VELOCITY_22', 'NOTE_ON_42', 'VELOCITY_13', 'NOTE_ON_70', 'VELOCITY_14', 'NOTE_ON_67', 'VELOCITY_17', 'NOTE_ON_74', 'VELOCITY_24', 'TIME_SHIFT_10ms', 'TIME_SHIFT_10ms', 'TIME_SHIFT_60ms', 'TIME_SHIFT_10ms', 'TIME_SHIFT_30ms', 'TIME_SHIFT_10ms', 'NOTE_OFF_35', 'TIME_SHIFT_50ms', 'NOTE_ON_70', 'VELOCITY_17', 'NOTE_OFF_70', 'TIME_SHIFT_30ms', 'TIME_SHIFT_10ms', 'TIME_SHIFT_30ms', 'TIME_SHIFT_10ms', 'NOTE_OFF_67', 'NOTE_OFF_60', 'TIME_SHIFT_10ms', 'TIME_SHIFT_10ms', 'NOTE_OFF_62', 'TIME_SHIFT_10ms', 'TIME_SHIFT_10ms', 'NOTE_OFF_69', 'NOTE_OFF_81', 'NOTE_ON_67', 'VELOCITY_22', 'NOTE_ON_79', 'VELOCITY_22', 'TIME_SHIFT_10ms', 'TIME_SHIFT_10ms', 'NOTE_OFF_74', 'TIME_SHIFT_10ms', 'TIME_SHIFT_10ms', 'NOTE_OFF_34', 'TIME_SHIFT_10ms', 'TIME_SHIFT_10ms', 'NOTE_ON_60', 'VELOCITY_15', 'NOTE_ON_55', 'VELOCITY_17', 'NOTE_ON_36', 'VELOCITY_21', 'NOTE_ON_64', 'VELOCITY_20', 'NOTE_ON_48', 'VELOCITY_13', 'NOTE_ON_55', 'VELOCITY_17', 'NOTE_OFF_42', 'NOTE_ON_64', 'VELOCITY_20', 'NOTE_ON_35', 'VELOCITY_25', 'NOTE_OFF_70', 'NOTE_ON_60', 'VELOCITY_21', 'NOTE_OFF_70', 'NOTE_ON_42', 'VELOCITY_27', 'NOTE_OFF_58', 'NOTE_OFF_65', 'NOTE_OFF_62', 'NOTE_OFF_74', 'NOTE_ON_76', 'VELOCITY_24', 'NOTE_ON_70', 'VELOCITY_20', 'TIME_SHIFT_50ms', 'NOTE_OFF_65', 'TIME_SHIFT_30ms', 'TIME_SHIFT_10ms', 'NOTE_OFF_77', 'TIME_SHIFT_60ms', 'TIME_SHIFT_10ms', 'TIME_SHIFT_60ms', 'TIME_SHIFT_10ms', 'TIME_SHIFT_50ms', 'NOTE_OFF_35', 'TIME_SHIFT_50ms', 'NOTE_OFF_76', 'NOTE_ON_76', 'VELOCITY_23', 'NOTE_OFF_70', 'NOTE_ON_70', 'VELOCITY_10', 'NOTE_OFF_42', 'NOTE_ON_76', 'VELOCITY_24', 'NOTE_ON_42', 'VELOCITY_13', 'NOTE_ON_72', 'VELOCITY_18', 'TIME_SHIFT_50ms', 'TIME_SHIFT_50ms', 'NOTE_OFF_72', 'TIME_SHIFT_10ms', 'TIME_SHIFT_10ms', 'NOTE_OFF_76', 'TIME_SHIFT_10ms', 'TIME_SHIFT_10ms', 'NOTE_OFF_36', 'NOTE_OFF_64', 'TIME_SHIFT_50ms', 'NOTE_OFF_60', 'TIME_SHIFT_60ms', 'TIME_SHIFT_10ms', 'NOTE_OFF_55', 'TIME_SHIFT_60ms', 'TIME_SHIFT_10ms', 'NOTE_ON_60', 'VELOCITY_17', 'NOTE_ON_60', 'VELOCITY_16', 'NOTE_ON_77', 'VELOCITY_19', 'NOTE_ON_42', 'VELOCITY_13', 'NOTE_ON_74', 'VELOCITY_17', 'NOTE_OFF_70', 'NOTE_ON_70', 'VELOCITY_9', 'NOTE_ON_76', 'VELOCITY_24', 'NOTE_ON_36', 'VELOCITY_21', 'NOTE_ON_64', 'VELOCITY_18', 'NOTE_OFF_42', 'NOTE_OFF_76', 'NOTE_ON_64', 'VELOCITY_21', 'TIME_SHIFT_10ms', 'TIME_SHIFT_10ms', 'TIME_SHIFT_60ms', 'TIME_SHIFT_10ms', 'TIME_SHIFT_10ms', 'TIME_SHIFT_10ms', 'NOTE_OFF_74', 'TIME_SHIFT_10ms', 'TIME_SHIFT_10ms', 'NOTE_OFF_77', 'TIME_SHIFT_10ms', 'TIME_SHIFT_10ms', 'TIME_SHIFT_50ms', 'TIME_SHIFT_30ms', 'TIME_SHIFT_10ms', 'TIME_SHIFT_50ms', 'TIME_SHIFT_10ms', 'TIME_SHIFT_10ms', 'NOTE_OFF_60', 'TIME_SHIFT_30ms', 'TIME_SHIFT_10ms', 'NOTE_ON_70', 'VELOCITY_17', 'NOTE_ON_72', 'VELOCITY_24', 'NOTE_ON_38', 'VELOCITY_21', 'NOTE_ON_46', 'VELOCITY_19', 'NOTE_OFF_42', 'NOTE_ON_79', 'VELOCITY_23', 'NOTE_ON_76', 'VELOCITY_22', 'NOTE_OFF_70', 'NOTE_OFF_76', 'TIME_SHIFT_50ms', 'NOTE_OFF_64', 'TIME_SHIFT_60ms', 'TIME_SHIFT_10ms', 'NOTE_OFF_36', 'TIME_SHIFT_100ms', 'NOTE_OFF_38', 'TIME_SHIFT_10ms', 'TIME_SHIFT_10ms', 'TIME_SHIFT_80ms', 'TIME_SHIFT_10ms', 'NOTE_ON_65', 'VELOCITY_20', 'NOTE_OFF_70', 'NOTE_ON_42', 'VELOCITY_18', 'NOTE_ON_67', 'VELOCITY_21', 'NOTE_OFF_46', 'NOTE_ON_70', 'VELOCITY_10', 'NOTE_ON_62', 'VELOCITY_19', 'NOTE_OFF_72', 'TIME_SHIFT_110ms', 'TIME_SHIFT_10ms', 'NOTE_OFF_64', 'TIME_SHIFT_50ms', 'NOTE_ON_70', 'VELOCITY_8', 'NOTE_OFF_48', 'NOTE_OFF_70', 'TIME_SHIFT_110ms', 'TIME_SHIFT_10ms', 'TIME_SHIFT_30ms', 'TIME_SHIFT_10ms', 'NOTE_ON_35', 'VELOCITY_25', 'NOTE_ON_67', 'VELOCITY_24', 'NOTE_OFF_70', 'NOTE_ON_42', 'VELOCITY_17', 'NOTE_ON_70', 'VELOCITY_13', 'NOTE_OFF_42', 'NOTE_ON_64', 'VELOCITY_17', 'NOTE_ON_36', 'VELOCITY_21', 'NOTE_ON_64', 'VELOCITY_14', 'TIME_SHIFT_50ms', 'NOTE_OFF_60', 'TIME_SHIFT_10ms', 'TIME_SHIFT_10ms', 'NOTE_OFF_62', 'TIME_SHIFT_10ms', 'TIME_SHIFT_10ms', 'TIME_SHIFT_30ms', 'TIME_SHIFT_10ms', 'NOTE_OFF_65', 'TIME_SHIFT_10ms', 'TIME_SHIFT_10ms', 'NOTE_OFF_67', 'TIME_SHIFT_10ms', 'TIME_SHIFT_10ms', 'NOTE_OFF_35', 'NOTE_ON_70', 'VELOCITY_21', 'NOTE_OFF_70', 'TIME_SHIFT_10ms', 'TIME_SHIFT_10ms', 'NOTE_OFF_36', 'TIME_SHIFT_30ms', 'TIME_SHIFT_10ms', 'TIME_SHIFT_50ms', 'NOTE_OFF_79', 'TIME_SHIFT_30ms', 'TIME_SHIFT_10ms', 'NOTE_OFF_64', 'TIME_SHIFT_10ms', 'TIME_SHIFT_10ms', 'NOTE_ON_76', 'VELOCITY_22', 'NOTE_ON_64', 'VELOCITY_22', 'NOTE_OFF_67', 'NOTE_OFF_76', 'NOTE_OFF_79', 'NOTE_OFF_67', 'TIME_SHIFT_10ms', 'TIME_SHIFT_10ms', 'NOTE_ON_64', 'VELOCITY_10', 'NOTE_OFF_60', 'NOTE_ON_45', 'VELOCITY_17', 'NOTE_OFF_64', 'NOTE_ON_60', 'VELOCITY_19', 'NOTE_ON_42', 'VELOCITY_25', 'NOTE_ON_70', 'VELOCITY_15', 'NOTE_ON_35', 'VELOCITY_25', 'NOTE_ON_64', 'VELOCITY_18', 'NOTE_OFF_70', 'NOTE_ON_55', 'VELOCITY_18', 'NOTE_ON_33', 'VELOCITY_22', 'NOTE_OFF_55', 'NOTE_ON_60', 'VELOCITY_17', 'NOTE_ON_76', 'VELOCITY_24', 'NOTE_OFF_42', 'NOTE_ON_45', 'VELOCITY_22', 'TIME_SHIFT_30ms', 'TIME_SHIFT_10ms', 'TIME_SHIFT_60ms', 'TIME_SHIFT_10ms', 'NOTE_OFF_64', 'TIME_SHIFT_10ms', 'TIME_SHIFT_10ms', 'TIME_SHIFT_30ms', 'TIME_SHIFT_10ms', 'NOTE_OFF_35', 'NOTE_OFF_42', 'TIME_SHIFT_80ms', 'TIME_SHIFT_10ms', 'TIME_SHIFT_80ms', 'TIME_SHIFT_10ms', 'NOTE_ON_69', 'VELOCITY_11', 'NOTE_OFF_76', 'NOTE_ON_67', 'VELOCITY_15', 'NOTE_ON_72', 'VELOCITY_22', 'NOTE_ON_76', 'VELOCITY_24', 'NOTE_OFF_70', 'NOTE_OFF_42', 'NOTE_ON_42', 'VELOCITY_5', 'NOTE_ON_70', 'VELOCITY_11', 'TIME_SHIFT_30ms', 'TIME_SHIFT_10ms', 'NOTE_OFF_69', 'TIME_SHIFT_10ms', 'TIME_SHIFT_10ms', 'NOTE_OFF_35', 'TIME_SHIFT_10ms', 'TIME_SHIFT_10ms', 'NOTE_OFF_67', 'TIME_SHIFT_30ms', 'TIME_SHIFT_10ms', 'NOTE_OFF_72', 'TIME_SHIFT_50ms', 'NOTE_OFF_64', 'TIME_SHIFT_10ms', 'TIME_SHIFT_10ms', 'NOTE_OFF_33', 'NOTE_OFF_60', 'TIME_SHIFT_100ms', 'TIME_SHIFT_50ms', 'NOTE_ON_64', 'VELOCITY_21', 'NOTE_ON_70', 'VELOCITY_10', 'NOTE_ON_76', 'VELOCITY_24', 'NOTE_ON_42', 'VELOCITY_11', 'NOTE_OFF_76', 'NOTE_ON_33', 'VELOCITY_22', 'NOTE_ON_60', 'VELOCITY_17', 'NOTE_ON_35', 'VELOCITY_25', 'NOTE_ON_60', 'VELOCITY_15', 'NOTE_OFF_70', 'NOTE_OFF_42', 'NOTE_ON_64', 'VELOCITY_21', 'TIME_SHIFT_80ms', 'TIME_SHIFT_10ms', 'TIME_SHIFT_60ms', 'TIME_SHIFT_10ms', 'NOTE_OFF_35', 'TIME_SHIFT_60ms', 'TIME_SHIFT_10ms', 'TIME_SHIFT_60ms', 'TIME_SHIFT_10ms', 'NOTE_OFF_64', 'TIME_SHIFT_30ms', 'TIME_SHIFT_10ms', 'NOTE_ON_38', 'VELOCITY_22', 'NOTE_ON_76', 'VELOCITY_24', 'NOTE_OFF_70', 'NOTE_ON_70', 'VELOCITY_18', 'NOTE_OFF_76', 'NOTE_OFF_64', 'NOTE_OFF_60', 'NOTE_ON_42', 'VELOCITY_25', 'NOTE_OFF_42', 'NOTE_OFF_76', 'TIME_SHIFT_10ms', 'TIME_SHIFT_10ms', 'NOTE_ON_72', 'VELOCITY_22', 'NOTE_ON_60', 'VELOCITY_22', 'TIME_SHIFT_110ms', 'TIME_SHIFT_10ms', 'NOTE_OFF_45', 'TIME_SHIFT_10ms', 'TIME_SHIFT_10ms', 'NOTE_OFF_38', 'TIME_SHIFT_10ms', 'TIME_SHIFT_10ms', 'TIME_SHIFT_60ms', 'TIME_SHIFT_10ms', 'NOTE_OFF_60', 'TIME_SHIFT_10ms', 'TIME_SHIFT_10ms', 'NOTE_OFF_45', 'TIME_SHIFT_50ms', 'NOTE_OFF_64', 'TIME_SHIFT_10ms', 'TIME_SHIFT_10ms', 'NOTE_OFF_76', 'NOTE_OFF_33', 'NOTE_ON_65', 'VELOCITY_14', 'NOTE_ON_67', 'VELOCITY_20', 'NOTE_ON_42', 'VELOCITY_15', 'NOTE_OFF_70', 'NOTE_ON_72', 'VELOCITY_21', 'NOTE_ON_77', 'VELOCITY_24', 'NOTE_ON_70', 'VELOCITY_8', 'NOTE_ON_67', 'VELOCITY_17', 'NOTE_ON_76', 'VELOCITY_22', 'NOTE_ON_60', 'VELOCITY_16', 'NOTE_OFF_42', 'NOTE_ON_64', 'VELOCITY_19', 'TIME_SHIFT_30ms', 'TIME_SHIFT_10ms', 'TIME_SHIFT_110ms', 'TIME_SHIFT_10ms', 'NOTE_OFF_70', 'NOTE_OFF_72', 'NOTE_ON_70', 'VELOCITY_10', 'TIME_SHIFT_30ms', 'TIME_SHIFT_10ms', 'NOTE_OFF_67', 'TIME_SHIFT_80ms', 'TIME_SHIFT_10ms', 'TIME_SHIFT_30ms', 'TIME_SHIFT_10ms', 'NOTE_OFF_65', 'TIME_SHIFT_10ms', 'TIME_SHIFT_10ms', 'NOTE_ON_33', 'VELOCITY_22', 'NOTE_OFF_70', 'NOTE_ON_79', 'VELOCITY_24', 'NOTE_OFF_76', 'NOTE_ON_72', 'VELOCITY_18', 'NOTE_OFF_77', 'NOTE_OFF_42', 'NOTE_ON_42', 'VELOCITY_13', 'NOTE_ON_35', 'VELOCITY_25', 'NOTE_ON_64', 'VELOCITY_12', 'NOTE_ON_70', 'VELOCITY_14', 'TIME_SHIFT_10ms', 'TIME_SHIFT_10ms', 'NOTE_OFF_64', 'TIME_SHIFT_10ms', 'TIME_SHIFT_10ms', 'NOTE_OFF_60', 'TIME_SHIFT_30ms', 'TIME_SHIFT_10ms', 'TIME_SHIFT_30ms', 'TIME_SHIFT_10ms', 'NOTE_OFF_72', 'NOTE_OFF_64', 'TIME_SHIFT_10ms', 'TIME_SHIFT_10ms', 'NOTE_OFF_35', 'TIME_SHIFT_10ms', 'TIME_SHIFT_10ms', 'NOTE_OFF_67', 'TIME_SHIFT_10ms', 'TIME_SHIFT_10ms', 'NOTE_OFF_70', 'NOTE_ON_70', 'VELOCITY_17', 'TIME_SHIFT_10ms', 'TIME_SHIFT_10ms', 'NOTE_OFF_33', 'TIME_SHIFT_50ms', 'NOTE_OFF_60', 'NOTE_OFF_72', 'TIME_SHIFT_30ms', 'TIME_SHIFT_10ms', 'TIME_SHIFT_10ms', 'TIME_SHIFT_10ms', 'NOTE_ON_74', 'VELOCITY_20', 'NOTE_ON_62', 'VELOCITY_20', 'TIME_SHIFT_50ms', 'NOTE_ON_62', 'VELOCITY_22', 'NOTE_ON_62', 'VELOCITY_19', 'NOTE_ON_58', 'VELOCITY_19', 'NOTE_OFF_70', 'NOTE_ON_53', 'VELOCITY_20', 'NOTE_OFF_79', 'NOTE_ON_34', 'VELOCITY_22', 'NOTE_OFF_60', 'NOTE_OFF_55', 'NOTE_OFF_64', 'NOTE_ON_65', 'VELOCITY_20', 'NOTE_ON_62', 'VELOCITY_18', 'NOTE_ON_46', 'VELOCITY_15', 'NOTE_ON_70', 'VELOCITY_20', 'NOTE_ON_77', 'VELOCITY_24', 'NOTE_ON_35', 'VELOCITY_25', 'NOTE_ON_42', 'VELOCITY_27', 'NOTE_ON_46', 'VELOCITY_17', 'NOTE_OFF_42', 'TIME_SHIFT_60ms', 'TIME_SHIFT_10ms', 'TIME_SHIFT_60ms', 'TIME_SHIFT_10ms', 'TIME_SHIFT_60ms', 'TIME_SHIFT_10ms', 'TIME_SHIFT_60ms', 'TIME_SHIFT_10ms', 'NOTE_OFF_35', 'TIME_SHIFT_50ms', 'NOTE_OFF_77', 'NOTE_ON_42', 'VELOCITY_13', 'NOTE_OFF_42', 'NOTE_ON_65', 'VELOCITY_18', 'NOTE_ON_70', 'VELOCITY_10', 'NOTE_ON_74', 'VELOCITY_22', 'NOTE_ON_69', 'VELOCITY_22', 'NOTE_OFF_70', 'NOTE_ON_76', 'VELOCITY_24', 'TIME_SHIFT_30ms', 'TIME_SHIFT_10ms', 'TIME_SHIFT_110ms', 'TIME_SHIFT_10ms', 'NOTE_OFF_65', 'TIME_SHIFT_30ms', 'TIME_SHIFT_10ms', 'NOTE_OFF_34', 'TIME_SHIFT_10ms', 'TIME_SHIFT_10ms', 'NOTE_OFF_62', 'TIME_SHIFT_60ms', 'TIME_SHIFT_10ms', 'TIME_SHIFT_10ms', 'TIME_SHIFT_10ms', 'NOTE_OFF_46', 'TIME_SHIFT_10ms', 'TIME_SHIFT_10ms', 'NOTE_ON_70', 'VELOCITY_9', 'NOTE_OFF_76', 'NOTE_ON_72', 'VELOCITY_24', 'NOTE_ON_42', 'VELOCITY_13', 'NOTE_OFF_70', 'NOTE_OFF_42', 'NOTE_ON_34', 'VELOCITY_20', 'TIME_SHIFT_80ms', 'TIME_SHIFT_10ms', 'TIME_SHIFT_50ms', 'NOTE_OFF_62', 'TIME_SHIFT_50ms', 'TIME_SHIFT_50ms', 'TIME_SHIFT_50ms', 'NOTE_OFF_34', 'NOTE_OFF_46', 'TIME_SHIFT_30ms', 'TIME_SHIFT_10ms', 'NOTE_ON_57', 'VELOCITY_19', 'NOTE_ON_65', 'VELOCITY_20', 'NOTE_ON_62', 'VELOCITY_19', 'NOTE_OFF_42', 'NOTE_ON_38', 'VELOCITY_21', 'NOTE_OFF_70', 'NOTE_ON_57', 'VELOCITY_14', 'NOTE_OFF_72', 'NOTE_ON_65', 'VELOCITY_17', 'NOTE_OFF_58', 'NOTE_OFF_53', 'NOTE_OFF_62', 'NOTE_ON_38', 'VELOCITY_21', 'NOTE_ON_74', 'VELOCITY_24', 'NOTE_ON_62', 'VELOCITY_22', 'NOTE_ON_57', 'VELOCITY_21', 'NOTE_ON_62', 'VELOCITY_22', 'NOTE_ON_46', 'VELOCITY_19', 'NOTE_ON_70', 'VELOCITY_17', 'NOTE_ON_50', 'VELOCITY_20', 'TIME_SHIFT_110ms', 'TIME_SHIFT_10ms', 'TIME_SHIFT_110ms', 'TIME_SHIFT_10ms', 'NOTE_OFF_38', 'TIME_SHIFT_10ms', 'TIME_SHIFT_10ms', 'TIME_SHIFT_60ms', 'TIME_SHIFT_10ms', 'NOTE_OFF_74', 'NOTE_OFF_46', 'NOTE_ON_42', 'VELOCITY_18', 'NOTE_ON_70', 'VELOCITY_10', 'NOTE_OFF_70', 'TIME_SHIFT_100ms', 'NOTE_OFF_57', 'TIME_SHIFT_50ms', 'NOTE_OFF_38', 'TIME_SHIFT_10ms', 'TIME_SHIFT_10ms', 'NOTE_OFF_70', 'NOTE_ON_70', 'VELOCITY_8', 'TIME_SHIFT_100ms', 'NOTE_OFF_62', 'TIME_SHIFT_10ms', 'TIME_SHIFT_10ms', 'NOTE_OFF_65', 'TIME_SHIFT_30ms', 'TIME_SHIFT_10ms', 'NOTE_OFF_42', 'NOTE_OFF_70', 'NOTE_ON_38', 'VELOCITY_22', 'NOTE_ON_70', 'VELOCITY_13', 'NOTE_ON_42', 'VELOCITY_17', 'NOTE_ON_35', 'VELOCITY_25', 'TIME_SHIFT_100ms', 'NOTE_OFF_50', 'TIME_SHIFT_10ms', 'TIME_SHIFT_10ms', 'NOTE_OFF_57', 'TIME_SHIFT_30ms', 'TIME_SHIFT_10ms', 'NOTE_OFF_35', 'TIME_SHIFT_10ms', 'TIME_SHIFT_10ms', 'NOTE_ON_70', 'VELOCITY_21', 'NOTE_OFF_70', 'TIME_SHIFT_10ms', 'TIME_SHIFT_10ms', 'NOTE_OFF_65', 'TIME_SHIFT_10ms', 'TIME_SHIFT_10ms', 'NOTE_OFF_74', 'TIME_SHIFT_10ms', 'TIME_SHIFT_10ms', 'NOTE_OFF_69', 'TIME_SHIFT_30ms', 'TIME_SHIFT_10ms', 'NOTE_OFF_62', 'TIME_SHIFT_50ms', 'NOTE_OFF_38', 'TIME_SHIFT_10ms', 'TIME_SHIFT_10ms', 'NOTE_ON_70', 'VELOCITY_18', 'NOTE_ON_58', 'VELOCITY_18', 'NOTE_ON_62', 'VELOCITY_20', 'NOTE_ON_67', 'VELOCITY_20', 'NOTE_OFF_70', 'NOTE_OFF_65', 'NOTE_ON_70', 'VELOCITY_24', 'NOTE_ON_31', 'VELOCITY_22', 'NOTE_ON_43', 'VELOCITY_17', 'NOTE_OFF_57', 'NOTE_ON_58', 'VELOCITY_17', 'NOTE_OFF_62', 'NOTE_ON_67', 'VELOCITY_20', 'NOTE_OFF_42', 'NOTE_ON_55', 'VELOCITY_20', 'NOTE_ON_43', 'VELOCITY_20', 'NOTE_ON_74', 'VELOCITY_20', 'NOTE_ON_35', 'VELOCITY_25', 'NOTE_ON_62', 'VELOCITY_20', 'NOTE_ON_70', 'VELOCITY_15', 'NOTE_ON_42', 'VELOCITY_25', 'TIME_SHIFT_30ms', 'TIME_SHIFT_10ms', 'NOTE_ON_79', 'VELOCITY_21', 'NOTE_ON_67', 'VELOCITY_21', 'TIME_SHIFT_10ms', 'TIME_SHIFT_10ms', 'NOTE_OFF_74', 'NOTE_OFF_62', 'TIME_SHIFT_60ms', 'TIME_SHIFT_10ms', 'TIME_SHIFT_110ms', 'TIME_SHIFT_10ms', 'TIME_SHIFT_80ms', 'TIME_SHIFT_10ms', 'NOTE_OFF_42', 'NOTE_OFF_70', 'NOTE_ON_70', 'VELOCITY_24', 'NOTE_OFF_70', 'NOTE_ON_70', 'VELOCITY_11', 'NOTE_ON_42', 'VELOCITY_5', 'TIME_SHIFT_50ms', 'NOTE_OFF_35', 'NOTE_OFF_67', 'NOTE_OFF_62', 'TIME_SHIFT_50ms', 'NOTE_OFF_58', 'TIME_SHIFT_80ms', 'TIME_SHIFT_10ms', 'NOTE_OFF_31', 'TIME_SHIFT_10ms', 'TIME_SHIFT_10ms', 'TIME_SHIFT_110ms', 'TIME_SHIFT_10ms', 'NOTE_ON_62', 'VELOCITY_20', 'NOTE_ON_62', 'VELOCITY_20', 'NOTE_OFF_70', 'NOTE_ON_67', 'VELOCITY_20', 'NOTE_ON_31', 'VELOCITY_22', 'NOTE_OFF_42', 'NOTE_OFF_70', 'NOTE_ON_70', 'VELOCITY_24', 'NOTE_ON_42', 'VELOCITY_11', 'NOTE_ON_58', 'VELOCITY_16', 'NOTE_ON_35', 'VELOCITY_25', 'NOTE_ON_70', 'VELOCITY_10', 'NOTE_ON_67', 'VELOCITY_20', 'NOTE_ON_58', 'VELOCITY_16', 'TIME_SHIFT_50ms', 'TIME_SHIFT_30ms', 'TIME_SHIFT_10ms', 'TIME_SHIFT_60ms', 'TIME_SHIFT_10ms', 'TIME_SHIFT_10ms', 'TIME_SHIFT_10ms', 'NOTE_OFF_35', 'TIME_SHIFT_50ms', 'TIME_SHIFT_80ms', 'TIME_SHIFT_10ms', 'NOTE_OFF_31', 'TIME_SHIFT_10ms', 'TIME_SHIFT_10ms', 'NOTE_OFF_42', 'NOTE_ON_42', 'VELOCITY_25', 'NOTE_ON_38', 'VELOCITY_22', 'NOTE_OFF_70', 'NOTE_ON_70', 'VELOCITY_24', 'NOTE_ON_70', 'VELOCITY_18', 'NOTE_OFF_70', 'TIME_SHIFT_110ms', 'TIME_SHIFT_10ms', 'NOTE_OFF_74', 'TIME_SHIFT_30ms', 'TIME_SHIFT_10ms', 'NOTE_OFF_67', 'NOTE_OFF_58', 'NOTE_OFF_38', 'TIME_SHIFT_10ms', 'TIME_SHIFT_10ms', 'NOTE_OFF_62', 'NOTE_OFF_70', 'TIME_SHIFT_10ms', 'TIME_SHIFT_10ms', 'NOTE_OFF_67', 'TIME_SHIFT_50ms', 'TIME_SHIFT_10ms', 'TIME_SHIFT_10ms', 'NOTE_OFF_67', 'TIME_SHIFT_30ms', 'TIME_SHIFT_10ms', 'NOTE_OFF_62', 'TIME_SHIFT_30ms', 'TIME_SHIFT_10ms', 'NOTE_ON_58', 'VELOCITY_14', 'NOTE_OFF_70', 'NOTE_ON_69', 'VELOCITY_24', 'NOTE_ON_70', 'VELOCITY_8', 'NOTE_OFF_70', 'NOTE_OFF_58', 'NOTE_ON_67', 'VELOCITY_18', 'NOTE_OFF_42', 'NOTE_ON_31', 'VELOCITY_21', 'NOTE_OFF_43', 'NOTE_ON_42', 'VELOCITY_15', 'NOTE_ON_65', 'VELOCITY_15', 'NOTE_ON_67', 'VELOCITY_20', 'NOTE_ON_70', 'VELOCITY_23', 'NOTE_ON_62', 'VELOCITY_19', 'TIME_SHIFT_30ms', 'TIME_SHIFT_10ms', 'TIME_SHIFT_110ms', 'TIME_SHIFT_10ms', 'NOTE_OFF_70', 'NOTE_ON_70', 'VELOCITY_10', 'TIME_SHIFT_30ms', 'TIME_SHIFT_10ms', 'NOTE_OFF_70', 'TIME_SHIFT_10ms', 'TIME_SHIFT_10ms', 'TIME_SHIFT_30ms', 'TIME_SHIFT_10ms', 'NOTE_OFF_67', 'TIME_SHIFT_10ms', 'TIME_SHIFT_10ms', 'NOTE_OFF_65', 'NOTE_ON_86', 'VELOCITY_17', 'NOTE_ON_74', 'VELOCITY_17', 'NOTE_OFF_31', 'TIME_SHIFT_10ms', 'TIME_SHIFT_10ms', 'NOTE_OFF_67', 'NOTE_OFF_79', 'TIME_SHIFT_30ms', 'TIME_SHIFT_10ms', 'NOTE_OFF_58', 'TIME_SHIFT_10ms', 'TIME_SHIFT_10ms', 'NOTE_OFF_43', 'NOTE_OFF_70', 'NOTE_OFF_42', 'NOTE_OFF_69', 'NOTE_ON_35', 'VELOCITY_25', 'NOTE_ON_64', 'VELOCITY_13', 'NOTE_ON_67', 'VELOCITY_24', 'NOTE_ON_31', 'VELOCITY_20', 'NOTE_ON_70', 'VELOCITY_14', 'NOTE_ON_64', 'VELOCITY_16', 'NOTE_ON_42', 'VELOCITY_13', 'NOTE_OFF_67', 'TIME_SHIFT_10ms', 'TIME_SHIFT_10ms', 'NOTE_OFF_62', 'TIME_SHIFT_30ms', 'TIME_SHIFT_10ms', 'TIME_SHIFT_30ms', 'TIME_SHIFT_10ms', 'TIME_SHIFT_30ms', 'TIME_SHIFT_10ms', 'NOTE_OFF_35', 'TIME_SHIFT_30ms', 'TIME_SHIFT_10ms', 'NOTE_OFF_70', 'NOTE_ON_70', 'VELOCITY_17', 'TIME_SHIFT_60ms', 'TIME_SHIFT_10ms', 'TIME_SHIFT_30ms', 'TIME_SHIFT_10ms', 'NOTE_OFF_31', 'TIME_SHIFT_10ms', 'TIME_SHIFT_10ms', 'NOTE_OFF_64', 'TIME_SHIFT_10ms', 'TIME_SHIFT_10ms', 'NOTE_OFF_64', 'NOTE_ON_81', 'VELOCITY_21', 'NOTE_ON_69', 'VELOCITY_21', 'TIME_SHIFT_10ms', 'TIME_SHIFT_10ms', 'NOTE_OFF_86', 'NOTE_OFF_74', 'TIME_SHIFT_10ms', 'TIME_SHIFT_10ms', 'NOTE_ON_42', 'VELOCITY_27', 'NOTE_ON_65', 'VELOCITY_17', 'NOTE_ON_57', 'VELOCITY_21', 'NOTE_ON_50', 'VELOCITY_20', 'NOTE_ON_62', 'VELOCITY_21', 'NOTE_ON_62', 'VELOCITY_16', 'NOTE_ON_35', 'VELOCITY_25', 'NOTE_ON_65', 'VELOCITY_20', 'NOTE_ON_26', 'VELOCITY_21', 'NOTE_ON_70', 'VELOCITY_20', 'NOTE_ON_69', 'VELOCITY_24', 'NOTE_ON_50', 'VELOCITY_19', 'NOTE_OFF_70', 'NOTE_OFF_58', 'NOTE_OFF_62', 'NOTE_OFF_42', 'NOTE_OFF_55', 'NOTE_OFF_67', 'TIME_SHIFT_110ms', 'TIME_SHIFT_10ms', 'TIME_SHIFT_110ms', 'TIME_SHIFT_10ms', 'TIME_SHIFT_30ms', 'TIME_SHIFT_10ms', 'NOTE_OFF_35', 'TIME_SHIFT_50ms', 'NOTE_OFF_70', 'NOTE_ON_65', 'VELOCITY_19', 'NOTE_OFF_42', 'NOTE_ON_69', 'VELOCITY_22', 'NOTE_ON_67', 'VELOCITY_24', 'NOTE_ON_42', 'VELOCITY_13', 'NOTE_ON_70', 'VELOCITY_10', 'NOTE_OFF_69', 'TIME_SHIFT_30ms', 'TIME_SHIFT_10ms', 'TIME_SHIFT_10ms', 'TIME_SHIFT_10ms', 'NOTE_OFF_65', 'TIME_SHIFT_10ms', 'TIME_SHIFT_10ms', 'NOTE_OFF_62', 'TIME_SHIFT_10ms', 'TIME_SHIFT_10ms', 'NOTE_OFF_26', 'TIME_SHIFT_10ms', 'TIME_SHIFT_10ms', 'TIME_SHIFT_60ms', 'TIME_SHIFT_10ms', 'NOTE_OFF_50', 'TIME_SHIFT_10ms', 'TIME_SHIFT_10ms', 'TIME_SHIFT_10ms', 'TIME_SHIFT_10ms', 'NOTE_OFF_69', 'TIME_SHIFT_30ms', 'TIME_SHIFT_10ms', 'NOTE_OFF_65', 'TIME_SHIFT_10ms', 'TIME_SHIFT_10ms', 'TIME_SHIFT_60ms', 'TIME_SHIFT_10ms', 'NOTE_OFF_70', 'NOTE_ON_65', 'VELOCITY_24', 'NOTE_ON_70', 'VELOCITY_9', 'NOTE_ON_67', 'VELOCITY_20', 'NOTE_ON_57', 'VELOCITY_20', 'NOTE_OFF_67', 'NOTE_ON_42', 'VELOCITY_13', 'NOTE_ON_65', 'VELOCITY_19', 'NOTE_OFF_42', 'NOTE_ON_62', 'VELOCITY_22', 'NOTE_ON_64', 'VELOCITY_19', 'NOTE_ON_57', 'VELOCITY_16', 'NOTE_ON_65', 'VELOCITY_17', 'NOTE_ON_26', 'VELOCITY_21', 'TIME_SHIFT_60ms', 'TIME_SHIFT_10ms', 'TIME_SHIFT_50ms', 'TIME_SHIFT_50ms', 'NOTE_OFF_64', 'TIME_SHIFT_50ms', 'TIME_SHIFT_50ms', 'TIME_SHIFT_10ms', 'TIME_SHIFT_10ms', 'NOTE_OFF_67', 'TIME_SHIFT_30ms', 'TIME_SHIFT_10ms', 'NOTE_ON_69', 'VELOCITY_23', 'NOTE_ON_70', 'VELOCITY_17', 'NOTE_ON_46', 'VELOCITY_19', 'NOTE_OFF_65', 'NOTE_ON_38', 'VELOCITY_21', 'NOTE_OFF_42', 'NOTE_OFF_70', 'NOTE_ON_69', 'VELOCITY_24', 'NOTE_ON_65', 'VELOCITY_18', 'TIME_SHIFT_10ms', 'TIME_SHIFT_10ms', 'NOTE_OFF_65', 'TIME_SHIFT_50ms', 'NOTE_OFF_57', 'TIME_SHIFT_10ms', 'TIME_SHIFT_10ms', 'NOTE_OFF_62', 'TIME_SHIFT_50ms', 'TIME_SHIFT_60ms', 'TIME_SHIFT_10ms', 'TIME_SHIFT_10ms', 'TIME_SHIFT_10ms', 'NOTE_OFF_38', 'TIME_SHIFT_100ms', 'NOTE_ON_42', 'VELOCITY_18', 'NOTE_ON_65', 'VELOCITY_18', 'NOTE_OFF_46', 'NOTE_ON_57', 'VELOCITY_15', 'NOTE_ON_70', 'VELOCITY_10', 'NOTE_OFF_69', 'NOTE_OFF_70', 'NOTE_ON_62', 'VELOCITY_18', 'NOTE_ON_64', 'VELOCITY_17', 'NOTE_OFF_26', 'TIME_SHIFT_10ms', 'TIME_SHIFT_10ms', 'NOTE_OFF_65', 'TIME_SHIFT_130ms', 'TIME_SHIFT_10ms', 'NOTE_OFF_70', 'NOTE_ON_70', 'VELOCITY_8', 'TIME_SHIFT_10ms', 'TIME_SHIFT_10ms', 'NOTE_OFF_62', 'TIME_SHIFT_100ms', 'TIME_SHIFT_30ms', 'TIME_SHIFT_10ms', 'NOTE_OFF_57', 'TIME_SHIFT_10ms', 'TIME_SHIFT_10ms', 'NOTE_OFF_42', 'NOTE_ON_70', 'VELOCITY_13', 'NOTE_ON_62', 'VELOCITY_13', 'NOTE_OFF_70', 'NOTE_ON_35', 'VELOCITY_25', 'NOTE_ON_62', 'VELOCITY_18', 'NOTE_ON_69', 'VELOCITY_24', 'NOTE_ON_26', 'VELOCITY_21', 'NOTE_ON_42', 'VELOCITY_17', 'TIME_SHIFT_10ms', 'TIME_SHIFT_10ms', 'NOTE_OFF_64', 'NOTE_OFF_50', 'TIME_SHIFT_30ms', 'TIME_SHIFT_10ms', 'TIME_SHIFT_10ms', 'TIME_SHIFT_10ms', 'NOTE_OFF_65', 'TIME_SHIFT_30ms', 'TIME_SHIFT_10ms', 'TIME_SHIFT_10ms', 'TIME_SHIFT_10ms', 'NOTE_OFF_69', 'TIME_SHIFT_10ms', 'TIME_SHIFT_10ms', 'NOTE_OFF_62', 'NOTE_OFF_35', 'TIME_SHIFT_10ms', 'TIME_SHIFT_10ms', 'NOTE_ON_70', 'VELOCITY_21', 'NOTE_OFF_70', 'TIME_SHIFT_30ms', 'TIME_SHIFT_10ms', 'NOTE_OFF_65', 'TIME_SHIFT_30ms', 'TIME_SHIFT_10ms', 'NOTE_OFF_69', 'TIME_SHIFT_30ms', 'TIME_SHIFT_10ms', 'NOTE_OFF_57', 'NOTE_ON_79', 'VELOCITY_20', 'NOTE_ON_67', 'VELOCITY_20', 'NOTE_OFF_69', 'NOTE_OFF_81', 'TIME_SHIFT_30ms', 'TIME_SHIFT_10ms', 'NOTE_OFF_26', 'TIME_SHIFT_10ms', 'TIME_SHIFT_10ms', 'NOTE_ON_67', 'VELOCITY_24', 'NOTE_ON_58', 'VELOCITY_17', 'NOTE_ON_62', 'VELOCITY_20', 'NOTE_ON_62', 'VELOCITY_19', 'NOTE_ON_35', 'VELOCITY_25', 'NOTE_ON_67', 'VELOCITY_20', 'NOTE_ON_55', 'VELOCITY_20', 'NOTE_ON_43', 'VELOCITY_20', 'NOTE_ON_42', 'VELOCITY_25', 'NOTE_OFF_70', 'NOTE_OFF_42', 'NOTE_ON_58', 'VELOCITY_17', 'NOTE_ON_43', 'VELOCITY_17', 'NOTE_ON_31', 'VELOCITY_19', 'NOTE_ON_70', 'VELOCITY_15', 'NOTE_OFF_65', 'NOTE_OFF_57', 'NOTE_OFF_62', 'TIME_SHIFT_30ms', 'TIME_SHIFT_10ms', 'NOTE_OFF_62', 'TIME_SHIFT_100ms', 'TIME_SHIFT_110ms', 'TIME_SHIFT_10ms', 'TIME_SHIFT_60ms', 'TIME_SHIFT_10ms', 'NOTE_OFF_67', 'NOTE_OFF_67', 'NOTE_ON_42', 'VELOCITY_5', 'NOTE_OFF_42', 'NOTE_OFF_70', 'NOTE_ON_67', 'VELOCITY_24', 'NOTE_ON_70', 'VELOCITY_11', 'TIME_SHIFT_10ms', 'TIME_SHIFT_10ms', 'NOTE_OFF_62', 'TIME_SHIFT_30ms', 'TIME_SHIFT_10ms', 'NOTE_OFF_35', 'TIME_SHIFT_50ms', 'NOTE_OFF_58', 'TIME_SHIFT_60ms', 'TIME_SHIFT_10ms', 'TIME_SHIFT_50ms', 'NOTE_OFF_31', 'TIME_SHIFT_60ms', 'TIME_SHIFT_10ms', 'TIME_SHIFT_30ms', 'TIME_SHIFT_10ms', 'NOTE_OFF_42', 'NOTE_ON_62', 'VELOCITY_20', 'NOTE_ON_67', 'VELOCITY_19', 'NOTE_ON_58', 'VELOCITY_17', 'NOTE_OFF_67', 'NOTE_ON_62', 'VELOCITY_20', 'NOTE_ON_70', 'VELOCITY_10', 'NOTE_ON_35', 'VELOCITY_25', 'NOTE_ON_67', 'VELOCITY_22', 'NOTE_ON_67', 'VELOCITY_24', 'NOTE_ON_42', 'VELOCITY_11', 'NOTE_OFF_70', 'NOTE_ON_58', 'VELOCITY_18', 'TIME_SHIFT_80ms', 'TIME_SHIFT_10ms', 'TIME_SHIFT_60ms', 'TIME_SHIFT_10ms', 'TIME_SHIFT_10ms', 'TIME_SHIFT_10ms', 'NOTE_OFF_35', 'TIME_SHIFT_60ms', 'TIME_SHIFT_10ms', 'TIME_SHIFT_60ms', 'TIME_SHIFT_10ms', 'TIME_SHIFT_10ms', 'TIME_SHIFT_10ms', 'NOTE_ON_31', 'VELOCITY_22', 'NOTE_ON_67', 'VELOCITY_24', 'NOTE_OFF_67', 'NOTE_ON_42', 'VELOCITY_25', 'NOTE_ON_70', 'VELOCITY_18', 'NOTE_OFF_70', 'NOTE_ON_38', 'VELOCITY_22', 'NOTE_OFF_42', 'TIME_SHIFT_60ms', 'TIME_SHIFT_10ms', 'NOTE_OFF_79', 'NOTE_OFF_67', 'TIME_SHIFT_10ms', 'TIME_SHIFT_10ms', 'NOTE_ON_64', 'VELOCITY_22', 'NOTE_ON_76', 'VELOCITY_22', 'TIME_SHIFT_30ms', 'TIME_SHIFT_10ms', 'TIME_SHIFT_50ms', 'NOTE_OFF_38', 'TIME_SHIFT_60ms', 'TIME_SHIFT_10ms', 'NOTE_OFF_43', 'TIME_SHIFT_10ms', 'TIME_SHIFT_10ms', 'NOTE_OFF_58', 'NOTE_OFF_62', 'TIME_SHIFT_50ms', 'NOTE_OFF_62', 'NOTE_OFF_67', 'TIME_SHIFT_10ms', 'TIME_SHIFT_10ms', 'NOTE_OFF_31', 'NOTE_ON_65', 'VELOCITY_24', 'NOTE_OFF_67', 'NOTE_OFF_70', 'NOTE_ON_65', 'VELOCITY_18', 'NOTE_ON_42', 'VELOCITY_15', 'NOTE_OFF_42', 'NOTE_ON_70', 'VELOCITY_8', 'TIME_SHIFT_50ms', 'TIME_SHIFT_10ms', 'TIME_SHIFT_10ms', 'NOTE_OFF_58', 'NOTE_ON_74', 'VELOCITY_19', 'NOTE_ON_62', 'VELOCITY_19', 'TIME_SHIFT_30ms', 'TIME_SHIFT_10ms', 'NOTE_OFF_64', 'NOTE_OFF_76', 'TIME_SHIFT_10ms', 'TIME_SHIFT_10ms', 'NOTE_OFF_67', 'TIME_SHIFT_50ms', 'NOTE_ON_70', 'VELOCITY_10', 'NOTE_OFF_70', 'TIME_SHIFT_10ms', 'TIME_SHIFT_10ms', 'NOTE_OFF_43', 'TIME_SHIFT_60ms', 'TIME_SHIFT_10ms', 'TIME_SHIFT_60ms', 'TIME_SHIFT_10ms', 'NOTE_OFF_70', 'NOTE_ON_35', 'VELOCITY_25', 'NOTE_OFF_65', 'NOTE_ON_42', 'VELOCITY_13', 'NOTE_ON_67', 'VELOCITY_24', 'NOTE_ON_70', 'VELOCITY_14', 'NOTE_ON_31', 'VELOCITY_21', 'NOTE_OFF_42', 'TIME_SHIFT_10ms', 'TIME_SHIFT_10ms', 'TIME_SHIFT_60ms', 'TIME_SHIFT_10ms', 'TIME_SHIFT_30ms', 'TIME_SHIFT_10ms', 'NOTE_OFF_65', 'NOTE_OFF_35', 'TIME_SHIFT_30ms', 'TIME_SHIFT_10ms', 'TIME_SHIFT_10ms', 'TIME_SHIFT_10ms', 'NOTE_ON_70', 'VELOCITY_17', 'NOTE_OFF_31', 'NOTE_OFF_70', 'TIME_SHIFT_50ms', 'TIME_SHIFT_30ms', 'TIME_SHIFT_10ms', 'NOTE_ON_81', 'VELOCITY_21', 'NOTE_ON_69', 'VELOCITY_21', 'TIME_SHIFT_30ms', 'TIME_SHIFT_10ms', 'NOTE_OFF_62', 'NOTE_OFF_74', 'TIME_SHIFT_10ms', 'TIME_SHIFT_10ms', 'TIME_SHIFT_10ms', 'TIME_SHIFT_10ms', 'NOTE_ON_57', 'VELOCITY_17', 'NOTE_OFF_42', 'NOTE_ON_61', 'VELOCITY_15', 'NOTE_ON_64', 'VELOCITY_19', 'NOTE_OFF_55', 'NOTE_ON_45', 'VELOCITY_23', 'NOTE_OFF_58', 'NOTE_ON_70', 'VELOCITY_20', 'NOTE_ON_35', 'VELOCITY_25', 'NOTE_OFF_67', 'NOTE_ON_42', 'VELOCITY_27', 'NOTE_ON_45', 'VELOCITY_21', 'NOTE_OFF_62', 'NOTE_ON_69', 'VELOCITY_24', 'NOTE_ON_33', 'VELOCITY_22', 'NOTE_OFF_70', 'TIME_SHIFT_110ms', 'TIME_SHIFT_10ms', 'TIME_SHIFT_110ms', 'TIME_SHIFT_10ms', 'TIME_SHIFT_30ms', 'TIME_SHIFT_10ms', 'NOTE_OFF_35', 'TIME_SHIFT_50ms', 'NOTE_OFF_69', 'NOTE_ON_67', 'VELOCITY_24', 'NOTE_OFF_42', 'NOTE_ON_57', 'VELOCITY_20', 'NOTE_OFF_70', 'NOTE_ON_70', 'VELOCITY_10', 'NOTE_ON_64', 'VELOCITY_25', 'NOTE_ON_62', 'VELOCITY_23', 'NOTE_ON_42', 'VELOCITY_13', 'NOTE_ON_52', 'VELOCITY_18', 'NOTE_ON_60', 'VELOCITY_22', 'TIME_SHIFT_30ms', 'TIME_SHIFT_10ms', 'TIME_SHIFT_60ms', 'TIME_SHIFT_10ms', 'NOTE_OFF_33', 'TIME_SHIFT_100ms', 'TIME_SHIFT_110ms', 'TIME_SHIFT_10ms', 'NOTE_ON_62', 'VELOCITY_20', 'NOTE_ON_62', 'VELOCITY_19', 'NOTE_OFF_64', 'NOTE_OFF_42', 'NOTE_ON_69', 'VELOCITY_24', 'NOTE_OFF_60', 'NOTE_ON_33', 'VELOCITY_23', 'NOTE_ON_57', 'VELOCITY_29', 'NOTE_OFF_70', 'NOTE_ON_42', 'VELOCITY_13', 'NOTE_OFF_67', 'NOTE_ON_57', 'VELOCITY_9', 'NOTE_ON_67', 'VELOCITY_22', 'NOTE_ON_70', 'VELOCITY_9', 'NOTE_ON_64', 'VELOCITY_10', 'TIME_SHIFT_50ms', 'NOTE_OFF_64', 'TIME_SHIFT_30ms', 'TIME_SHIFT_10ms', 'TIME_SHIFT_10ms', 'TIME_SHIFT_10ms', 'NOTE_OFF_57', 'TIME_SHIFT_30ms', 'TIME_SHIFT_10ms', 'NOTE_OFF_62', 'NOTE_OFF_67', 'NOTE_OFF_57', 'TIME_SHIFT_10ms', 'TIME_SHIFT_10ms', 'TIME_SHIFT_60ms', 'TIME_SHIFT_10ms', 'TIME_SHIFT_60ms', 'TIME_SHIFT_10ms', 'NOTE_OFF_62', 'TIME_SHIFT_10ms', 'TIME_SHIFT_10ms', 'NOTE_OFF_62', 'TIME_SHIFT_10ms', 'TIME_SHIFT_10ms', 'NOTE_ON_38', 'VELOCITY_21', 'NOTE_ON_70', 'VELOCITY_17', 'NOTE_OFF_42', 'NOTE_ON_46', 'VELOCITY_19', 'NOTE_ON_64', 'VELOCITY_22', 'NOTE_ON_69', 'VELOCITY_23', 'NOTE_OFF_69', 'NOTE_ON_62', 'VELOCITY_20', 'NOTE_ON_64', 'VELOCITY_17', 'NOTE_OFF_70', 'NOTE_ON_69', 'VELOCITY_24', 'NOTE_OFF_57', 'NOTE_ON_64', 'VELOCITY_19', 'TIME_SHIFT_30ms', 'TIME_SHIFT_10ms', 'NOTE_OFF_33', 'TIME_SHIFT_30ms', 'TIME_SHIFT_10ms', 'NOTE_OFF_64', 'TIME_SHIFT_100ms', 'TIME_SHIFT_50ms', 'NOTE_OFF_38', 'TIME_SHIFT_100ms', 'NOTE_ON_67', 'VELOCITY_18', 'NOTE_ON_69', 'VELOCITY_19', 'NOTE_ON_59', 'VELOCITY_30', 'NOTE_OFF_70', 'NOTE_OFF_46', 'NOTE_ON_31', 'VELOCITY_20', 'NOTE_OFF_69', 'NOTE_ON_70', 'VELOCITY_10', 'NOTE_ON_42', 'VELOCITY_18', 'TIME_SHIFT_10ms', 'TIME_SHIFT_10ms', 'NOTE_OFF_64', 'TIME_SHIFT_60ms', 'TIME_SHIFT_10ms', 'NOTE_OFF_69', 'TIME_SHIFT_10ms', 'TIME_SHIFT_10ms', 'NOTE_OFF_45', 'TIME_SHIFT_10ms', 'TIME_SHIFT_10ms', 'NOTE_OFF_67', 'TIME_SHIFT_30ms', 'TIME_SHIFT_10ms', 'NOTE_ON_70', 'VELOCITY_8', 'NOTE_ON_57', 'VELOCITY_20', 'NOTE_OFF_52', 'NOTE_OFF_59', 'NOTE_OFF_70', 'TIME_SHIFT_150ms', 'NOTE_OFF_45', 'TIME_SHIFT_10ms', 'TIME_SHIFT_10ms', 'NOTE_OFF_42', 'NOTE_ON_35', 'VELOCITY_25', 'NOTE_OFF_31', 'NOTE_ON_55', 'VELOCITY_28', 'NOTE_ON_42', 'VELOCITY_17', 'NOTE_OFF_70', 'NOTE_ON_70', 'VELOCITY_13', 'NOTE_OFF_57', 'NOTE_ON_33', 'VELOCITY_22', 'NOTE_ON_69', 'VELOCITY_19', 'TIME_SHIFT_60ms', 'TIME_SHIFT_10ms', 'NOTE_OFF_69', 'TIME_SHIFT_30ms', 'TIME_SHIFT_10ms', 'TIME_SHIFT_10ms', 'TIME_SHIFT_10ms', 'NOTE_OFF_62', 'TIME_SHIFT_10ms', 'TIME_SHIFT_10ms', 'NOTE_OFF_35', 'TIME_SHIFT_10ms', 'TIME_SHIFT_10ms', 'NOTE_ON_70', 'VELOCITY_21', 'NOTE_ON_53', 'VELOCITY_31', 'NOTE_OFF_55', 'NOTE_OFF_70', 'TIME_SHIFT_10ms', 'TIME_SHIFT_10ms', 'NOTE_OFF_81', 'NOTE_OFF_69', 'TIME_SHIFT_10ms', 'TIME_SHIFT_10ms', 'NOTE_OFF_69', 'TIME_SHIFT_10ms', 'TIME_SHIFT_10ms', 'NOTE_OFF_64', 'TIME_SHIFT_30ms', 'TIME_SHIFT_10ms', 'NOTE_OFF_33', 'TIME_SHIFT_80ms', 'TIME_SHIFT_10ms', 'NOTE_ON_58', 'VELOCITY_16', 'NOTE_ON_46', 'VELOCITY_19', 'NOTE_OFF_42', 'NOTE_ON_60', 'VELOCITY_18', 'NOTE_ON_62', 'VELOCITY_21', 'NOTE_ON_46', 'VELOCITY_17', 'NOTE_ON_34', 'VELOCITY_23', 'NOTE_ON_77', 'VELOCITY_24', 'NOTE_ON_65', 'VELOCITY_21', 'NOTE_OFF_53', 'NOTE_OFF_70', 'NOTE_OFF_57', 'NOTE_OFF_64', 'NOTE_ON_70', 'VELOCITY_15', 'NOTE_ON_62', 'VELOCITY_22', 'NOTE_ON_35', 'VELOCITY_25', 'NOTE_ON_65', 'VELOCITY_16', 'NOTE_ON_57', 'VELOCITY_20', 'NOTE_ON_81', 'VELOCITY_25', 'NOTE_OFF_61', 'NOTE_ON_69', 'VELOCITY_25', 'NOTE_ON_42', 'VELOCITY_25', 'TIME_SHIFT_110ms', 'TIME_SHIFT_10ms', 'TIME_SHIFT_110ms', 'TIME_SHIFT_10ms', 'TIME_SHIFT_80ms', 'TIME_SHIFT_10ms', 'NOTE_ON_42', 'VELOCITY_5', 'NOTE_OFF_77', 'NOTE_OFF_70', 'NOTE_ON_70', 'VELOCITY_11', 'NOTE_ON_77', 'VELOCITY_24', 'NOTE_OFF_42', 'TIME_SHIFT_30ms', 'TIME_SHIFT_10ms', 'TIME_SHIFT_10ms', 'TIME_SHIFT_10ms', 'NOTE_OFF_35', 'TIME_SHIFT_80ms', 'TIME_SHIFT_10ms', 'NOTE_OFF_62', 'NOTE_OFF_65', 'TIME_SHIFT_10ms', 'TIME_SHIFT_10ms', 'NOTE_OFF_60', 'NOTE_OFF_34', 'TIME_SHIFT_80ms', 'TIME_SHIFT_10ms', 'NOTE_OFF_46', 'TIME_SHIFT_30ms', 'TIME_SHIFT_10ms', 'TIME_SHIFT_50ms', 'NOTE_OFF_70', 'NOTE_ON_34', 'VELOCITY_20', 'NOTE_ON_77', 'VELOCITY_24', 'NOTE_ON_62', 'VELOCITY_21', 'NOTE_ON_77', 'VELOCITY_18', 'NOTE_ON_35', 'VELOCITY_25', 'NOTE_OFF_77', 'NOTE_ON_74', 'VELOCITY_16', 'NOTE_ON_65', 'VELOCITY_19', 'NOTE_ON_65', 'VELOCITY_19', 'NOTE_ON_70', 'VELOCITY_10', 'NOTE_ON_60', 'VELOCITY_17', 'NOTE_OFF_42', 'NOTE_ON_62', 'VELOCITY_19', 'NOTE_ON_58', 'VELOCITY_16', 'NOTE_ON_42', 'VELOCITY_11', 'NOTE_ON_70', 'VELOCITY_20', 'TIME_SHIFT_30ms', 'TIME_SHIFT_10ms', 'NOTE_OFF_46', 'TIME_SHIFT_10ms', 'TIME_SHIFT_10ms', 'NOTE_OFF_74', 'TIME_SHIFT_10ms', 'TIME_SHIFT_10ms', 'TIME_SHIFT_10ms', 'TIME_SHIFT_10ms', 'NOTE_OFF_70', 'TIME_SHIFT_10ms', 'TIME_SHIFT_10ms', 'NOTE_OFF_77', 'TIME_SHIFT_50ms', 'NOTE_OFF_35', 'TIME_SHIFT_30ms', 'TIME_SHIFT_10ms', 'TIME_SHIFT_30ms', 'TIME_SHIFT_10ms', 'NOTE_OFF_62', 'NOTE_OFF_65', 'TIME_SHIFT_30ms', 'TIME_SHIFT_10ms', 'NOTE_OFF_60', 'TIME_SHIFT_60ms', 'TIME_SHIFT_10ms', 'NOTE_OFF_77', 'NOTE_OFF_57', 'NOTE_OFF_42', 'NOTE_OFF_70', 'NOTE_ON_70', 'VELOCITY_18', 'NOTE_ON_77', 'VELOCITY_24', 'NOTE_ON_42', 'VELOCITY_25', 'NOTE_ON_38', 'VELOCITY_22', 'TIME_SHIFT_110ms', 'TIME_SHIFT_10ms', 'TIME_SHIFT_30ms', 'TIME_SHIFT_10ms', 'NOTE_OFF_38', 'TIME_SHIFT_30ms', 'TIME_SHIFT_10ms', 'NOTE_OFF_34', 'TIME_SHIFT_50ms', 'TIME_SHIFT_60ms', 'TIME_SHIFT_10ms', 'NOTE_ON_62', 'VELOCITY_17', 'NOTE_ON_70', 'VELOCITY_8', 'NOTE_ON_65', 'VELOCITY_20', 'NOTE_ON_60', 'VELOCITY_15', 'NOTE_ON_70', 'VELOCITY_25', 'NOTE_OFF_70', 'NOTE_OFF_77', 'NOTE_ON_74', 'VELOCITY_23', 'NOTE_ON_77', 'VELOCITY_22', 'NOTE_OFF_42', 'NOTE_ON_74', 'VELOCITY_24', 'NOTE_ON_67', 'VELOCITY_17', 'NOTE_ON_42', 'VELOCITY_15', 'TIME_SHIFT_50ms', 'TIME_SHIFT_30ms', 'TIME_SHIFT_10ms', 'NOTE_OFF_65', 'TIME_SHIFT_10ms', 'TIME_SHIFT_10ms', 'NOTE_OFF_58', 'TIME_SHIFT_10ms', 'TIME_SHIFT_10ms', 'TIME_SHIFT_50ms', 'NOTE_ON_70', 'VELOCITY_10', 'NOTE_OFF_70', 'TIME_SHIFT_10ms', 'TIME_SHIFT_10ms', 'TIME_SHIFT_30ms', 'TIME_SHIFT_10ms', 'NOTE_OFF_62', 'TIME_SHIFT_50ms', 'NOTE_OFF_67', 'TIME_SHIFT_10ms', 'TIME_SHIFT_10ms', 'NOTE_OFF_65', 'TIME_SHIFT_30ms', 'TIME_SHIFT_10ms', 'NOTE_ON_67', 'VELOCITY_17', 'NOTE_ON_74', 'VELOCITY_24', 'NOTE_OFF_70', 'NOTE_OFF_42', 'NOTE_ON_35', 'VELOCITY_25', 'NOTE_ON_65', 'VELOCITY_15', 'NOTE_ON_42', 'VELOCITY_13', 'NOTE_ON_34', 'VELOCITY_22', 'NOTE_ON_70', 'VELOCITY_14', 'NOTE_OFF_74', 'TIME_SHIFT_10ms', 'TIME_SHIFT_10ms', 'TIME_SHIFT_60ms', 'TIME_SHIFT_10ms', 'TIME_SHIFT_50ms', 'NOTE_OFF_35', 'TIME_SHIFT_30ms', 'TIME_SHIFT_10ms', 'NOTE_ON_70', 'VELOCITY_17', 'NOTE_OFF_70', 'TIME_SHIFT_30ms', 'TIME_SHIFT_10ms', 'TIME_SHIFT_30ms', 'TIME_SHIFT_10ms', 'NOTE_OFF_67', 'NOTE_OFF_60', 'TIME_SHIFT_10ms', 'TIME_SHIFT_10ms', 'NOTE_OFF_62', 'TIME_SHIFT_10ms', 'TIME_SHIFT_10ms', 'NOTE_ON_67', 'VELOCITY_22', 'NOTE_OFF_81', 'NOTE_ON_79', 'VELOCITY_22', 'NOTE_OFF_69', 'TIME_SHIFT_10ms', 'TIME_SHIFT_10ms', 'NOTE_OFF_74', 'TIME_SHIFT_10ms', 'TIME_SHIFT_10ms', 'NOTE_OFF_34', 'TIME_SHIFT_10ms', 'TIME_SHIFT_10ms', 'NOTE_OFF_74', 'NOTE_OFF_70', 'NOTE_ON_55', 'VELOCITY_17', 'NOTE_OFF_70', 'NOTE_OFF_58', 'NOTE_ON_76', 'VELOCITY_24', 'NOTE_ON_60', 'VELOCITY_15', 'NOTE_OFF_42', 'NOTE_ON_64', 'VELOCITY_20', 'NOTE_ON_55', 'VELOCITY_17', 'NOTE_ON_60', 'VELOCITY_21', 'NOTE_ON_42', 'VELOCITY_27', 'NOTE_ON_35', 'VELOCITY_25', 'NOTE_ON_70', 'VELOCITY_20', 'NOTE_OFF_62', 'NOTE_OFF_65', 'NOTE_ON_64', 'VELOCITY_20', 'NOTE_ON_36', 'VELOCITY_21', 'NOTE_ON_48', 'VELOCITY_13', 'TIME_SHIFT_50ms', 'NOTE_OFF_65', 'TIME_SHIFT_30ms', 'TIME_SHIFT_10ms', 'NOTE_OFF_77', 'TIME_SHIFT_60ms', 'TIME_SHIFT_10ms', 'TIME_SHIFT_60ms', 'TIME_SHIFT_10ms', 'TIME_SHIFT_50ms', 'NOTE_OFF_35', 'TIME_SHIFT_10ms', 'TIME_SHIFT_10ms', 'TIME_SHIFT_30ms', 'TIME_SHIFT_10ms', 'NOTE_ON_76', 'VELOCITY_24', 'NOTE_OFF_42', 'NOTE_ON_70', 'VELOCITY_10', 'NOTE_ON_42', 'VELOCITY_13', 'NOTE_ON_76', 'VELOCITY_23', 'NOTE_ON_72', 'VELOCITY_18', 'NOTE_OFF_76', 'NOTE_OFF_70', 'TIME_SHIFT_50ms', 'TIME_SHIFT_50ms', 'NOTE_OFF_72', 'TIME_SHIFT_10ms', 'TIME_SHIFT_10ms', 'NOTE_OFF_76', 'TIME_SHIFT_10ms', 'TIME_SHIFT_10ms', 'NOTE_OFF_36', 'NOTE_OFF_64', 'TIME_SHIFT_30ms', 'TIME_SHIFT_10ms', 'TIME_SHIFT_10ms', 'TIME_SHIFT_10ms', 'NOTE_OFF_60', 'TIME_SHIFT_60ms', 'TIME_SHIFT_10ms', 'NOTE_OFF_55', 'TIME_SHIFT_30ms', 'TIME_SHIFT_10ms', 'TIME_SHIFT_30ms', 'TIME_SHIFT_10ms', 'NOTE_OFF_70', 'NOTE_OFF_42', 'NOTE_OFF_76', 'NOTE_ON_76', 'VELOCITY_24', 'NOTE_ON_36', 'VELOCITY_21', 'NOTE_ON_60', 'VELOCITY_16', 'NOTE_ON_64', 'VELOCITY_21', 'NOTE_ON_74', 'VELOCITY_17', 'NOTE_ON_60', 'VELOCITY_17', 'NOTE_ON_70', 'VELOCITY_9', 'NOTE_ON_77', 'VELOCITY_19', 'NOTE_ON_64', 'VELOCITY_18', 'NOTE_ON_42', 'VELOCITY_13', 'TIME_SHIFT_80ms', 'TIME_SHIFT_10ms', 'TIME_SHIFT_10ms', 'TIME_SHIFT_10ms', 'NOTE_OFF_74', 'TIME_SHIFT_10ms', 'TIME_SHIFT_10ms', 'NOTE_OFF_77', 'TIME_SHIFT_10ms', 'TIME_SHIFT_10ms', 'TIME_SHIFT_50ms', 'TIME_SHIFT_30ms', 'TIME_SHIFT_10ms', 'TIME_SHIFT_50ms', 'TIME_SHIFT_10ms', 'TIME_SHIFT_10ms', 'NOTE_OFF_60', 'TIME_SHIFT_30ms', 'TIME_SHIFT_10ms', 'NOTE_OFF_70', 'NOTE_ON_76', 'VELOCITY_22', 'NOTE_OFF_42', 'NOTE_ON_72', 'VELOCITY_24', 'NOTE_ON_79', 'VELOCITY_23', 'NOTE_OFF_76', 'NOTE_ON_46', 'VELOCITY_19', 'NOTE_ON_38', 'VELOCITY_21', 'NOTE_ON_70', 'VELOCITY_17', 'TIME_SHIFT_50ms', 'NOTE_OFF_64', 'TIME_SHIFT_60ms', 'TIME_SHIFT_10ms', 'NOTE_OFF_36', 'TIME_SHIFT_100ms', 'NOTE_OFF_38', 'TIME_SHIFT_10ms', 'TIME_SHIFT_10ms', 'TIME_SHIFT_80ms', 'TIME_SHIFT_10ms', 'NOTE_ON_62', 'VELOCITY_19', 'NOTE_ON_42', 'VELOCITY_18', 'NOTE_OFF_70', 'NOTE_ON_70', 'VELOCITY_10', 'NOTE_ON_67', 'VELOCITY_21', 'NOTE_ON_65', 'VELOCITY_20', 'NOTE_OFF_46', 'NOTE_OFF_72', 'TIME_SHIFT_110ms', 'TIME_SHIFT_10ms', 'NOTE_OFF_64', 'TIME_SHIFT_50ms', 'NOTE_OFF_70', 'NOTE_ON_70', 'VELOCITY_8', 'TIME_SHIFT_10ms', 'TIME_SHIFT_10ms', 'NOTE_OFF_48', 'TIME_SHIFT_100ms', 'TIME_SHIFT_30ms', 'TIME_SHIFT_10ms', 'NOTE_ON_67', 'VELOCITY_24', 'NOTE_ON_64', 'VELOCITY_17', 'NOTE_ON_64', 'VELOCITY_14', 'NOTE_ON_42', 'VELOCITY_17', 'NOTE_OFF_42', 'NOTE_ON_35', 'VELOCITY_25', 'NOTE_ON_36', 'VELOCITY_21', 'NOTE_ON_70', 'VELOCITY_13', 'NOTE_OFF_70', 'TIME_SHIFT_10ms', 'TIME_SHIFT_10ms', 'TIME_SHIFT_30ms', 'TIME_SHIFT_10ms', 'NOTE_OFF_60', 'TIME_SHIFT_10ms', 'TIME_SHIFT_10ms', 'NOTE_OFF_62', 'TIME_SHIFT_30ms', 'TIME_SHIFT_10ms', 'TIME_SHIFT_10ms', 'TIME_SHIFT_10ms', 'NOTE_OFF_65', 'TIME_SHIFT_10ms', 'TIME_SHIFT_10ms', 'NOTE_OFF_67', 'TIME_SHIFT_10ms', 'TIME_SHIFT_10ms', 'NOTE_OFF_35', 'TIME_SHIFT_10ms', 'TIME_SHIFT_10ms', 'NOTE_OFF_70', 'NOTE_ON_70', 'VELOCITY_21', 'NOTE_OFF_36', 'TIME_SHIFT_80ms', 'TIME_SHIFT_10ms', 'NOTE_OFF_79', 'TIME_SHIFT_30ms', 'TIME_SHIFT_10ms', 'NOTE_OFF_64', 'TIME_SHIFT_10ms', 'TIME_SHIFT_10ms', 'NOTE_ON_76', 'VELOCITY_22', 'NOTE_OFF_79', 'NOTE_OFF_76', 'NOTE_OFF_67', 'NOTE_ON_64', 'VELOCITY_22', 'TIME_SHIFT_10ms', 'TIME_SHIFT_10ms', 'NOTE_ON_55', 'VELOCITY_18', 'NOTE_OFF_67', 'NOTE_ON_60', 'VELOCITY_19', 'NOTE_OFF_64', 'NOTE_ON_35', 'VELOCITY_25', 'NOTE_OFF_55', 'NOTE_ON_42', 'VELOCITY_25', 'NOTE_OFF_60', 'NOTE_ON_70', 'VELOCITY_15', 'NOTE_ON_45', 'VELOCITY_17', 'NOTE_ON_64', 'VELOCITY_10', 'NOTE_ON_33', 'VELOCITY_22', 'NOTE_OFF_42', 'NOTE_ON_64', 'VELOCITY_18', 'NOTE_OFF_70', 'NOTE_ON_45', 'VELOCITY_22', 'NOTE_ON_76', 'VELOCITY_24', 'NOTE_ON_60', 'VELOCITY_17', 'TIME_SHIFT_30ms', 'TIME_SHIFT_10ms', 'TIME_SHIFT_60ms', 'TIME_SHIFT_10ms', 'NOTE_OFF_64', 'TIME_SHIFT_10ms', 'TIME_SHIFT_10ms', 'TIME_SHIFT_110ms', 'TIME_SHIFT_10ms', 'TIME_SHIFT_80ms', 'TIME_SHIFT_10ms', 'NOTE_ON_76', 'VELOCITY_24', 'NOTE_OFF_76', 'NOTE_OFF_42', 'NOTE_ON_67', 'VELOCITY_15', 'NOTE_ON_72', 'VELOCITY_22', 'NOTE_ON_69', 'VELOCITY_11', 'NOTE_ON_70', 'VELOCITY_11', 'NOTE_ON_42', 'VELOCITY_5', 'NOTE_OFF_70', 'TIME_SHIFT_30ms', 'TIME_SHIFT_10ms', 'NOTE_OFF_69', 'TIME_SHIFT_10ms', 'TIME_SHIFT_10ms', 'NOTE_OFF_35', 'TIME_SHIFT_10ms', 'TIME_SHIFT_10ms', 'NOTE_OFF_67', 'TIME_SHIFT_30ms', 'TIME_SHIFT_10ms', 'NOTE_OFF_72', 'TIME_SHIFT_50ms', 'NOTE_OFF_64', 'TIME_SHIFT_10ms', 'TIME_SHIFT_10ms', 'NOTE_OFF_60', 'NOTE_OFF_33', 'TIME_SHIFT_30ms', 'TIME_SHIFT_10ms', 'TIME_SHIFT_110ms', 'TIME_SHIFT_10ms', 'NOTE_ON_42', 'VELOCITY_11', 'NOTE_OFF_76', 'NOTE_ON_64', 'VELOCITY_21', 'NOTE_ON_60', 'VELOCITY_17', 'NOTE_ON_33', 'VELOCITY_22', 'NOTE_OFF_42', 'NOTE_ON_60', 'VELOCITY_15', 'NOTE_ON_70', 'VELOCITY_10', 'NOTE_OFF_70', 'NOTE_ON_76', 'VELOCITY_24', 'NOTE_ON_64', 'VELOCITY_21', 'NOTE_ON_35', 'VELOCITY_25', 'TIME_SHIFT_50ms', 'TIME_SHIFT_30ms', 'TIME_SHIFT_10ms', 'TIME_SHIFT_60ms', 'TIME_SHIFT_10ms', 'NOTE_OFF_35', 'TIME_SHIFT_60ms', 'TIME_SHIFT_10ms', 'TIME_SHIFT_60ms', 'TIME_SHIFT_10ms', 'NOTE_OFF_64', 'TIME_SHIFT_30ms', 'TIME_SHIFT_10ms', 'NOTE_ON_42', 'VELOCITY_25', 'NOTE_OFF_60', 'NOTE_OFF_42', 'NOTE_OFF_70', 'NOTE_ON_38', 'VELOCITY_22', 'NOTE_OFF_76', 'NOTE_ON_76', 'VELOCITY_24', 'NOTE_ON_70', 'VELOCITY_18', 'NOTE_OFF_76', 'NOTE_OFF_64', 'TIME_SHIFT_10ms', 'TIME_SHIFT_10ms', 'NOTE_ON_60', 'VELOCITY_22', 'NOTE_ON_72', 'VELOCITY_22', 'TIME_SHIFT_100ms', 'TIME_SHIFT_10ms', 'TIME_SHIFT_10ms', 'NOTE_OFF_45', 'TIME_SHIFT_10ms', 'TIME_SHIFT_10ms', 'NOTE_OFF_38', 'TIME_SHIFT_80ms', 'TIME_SHIFT_10ms', 'NOTE_OFF_60', 'TIME_SHIFT_10ms', 'TIME_SHIFT_10ms', 'NOTE_OFF_45', 'TIME_SHIFT_50ms', 'NOTE_OFF_64', 'TIME_SHIFT_10ms', 'TIME_SHIFT_10ms', 'NOTE_OFF_42', 'NOTE_ON_67', 'VELOCITY_20', 'NOTE_ON_67', 'VELOCITY_17', 'NOTE_OFF_70', 'NOTE_ON_72', 'VELOCITY_21', 'NOTE_OFF_76', 'NOTE_ON_76', 'VELOCITY_22', 'NOTE_ON_42', 'VELOCITY_15', 'NOTE_ON_70', 'VELOCITY_8', 'NOTE_ON_64', 'VELOCITY_19', 'NOTE_ON_65', 'VELOCITY_14', 'NOTE_ON_77', 'VELOCITY_24', 'NOTE_ON_60', 'VELOCITY_16', 'NOTE_OFF_33', 'TIME_SHIFT_30ms', 'TIME_SHIFT_10ms', 'TIME_SHIFT_110ms', 'TIME_SHIFT_10ms', 'NOTE_OFF_72', 'NOTE_ON_70', 'VELOCITY_10', 'NOTE_OFF_70', 'TIME_SHIFT_30ms', 'TIME_SHIFT_10ms', 'NOTE_OFF_67', 'TIME_SHIFT_10ms', 'TIME_SHIFT_10ms', 'TIME_SHIFT_100ms', 'NOTE_OFF_65', 'TIME_SHIFT_10ms', 'TIME_SHIFT_10ms', 'NOTE_ON_79', 'VELOCITY_24', 'NOTE_OFF_70', 'NOTE_ON_70', 'VELOCITY_14', 'NOTE_OFF_77', 'NOTE_ON_42', 'VELOCITY_13', 'NOTE_ON_72', 'VELOCITY_18', 'NOTE_ON_33', 'VELOCITY_22', 'NOTE_OFF_42', 'NOTE_ON_35', 'VELOCITY_25', 'NOTE_OFF_76', 'NOTE_ON_64', 'VELOCITY_12', 'TIME_SHIFT_10ms', 'TIME_SHIFT_10ms', 'NOTE_OFF_64', 'TIME_SHIFT_30ms', 'TIME_SHIFT_10ms', 'NOTE_OFF_60', 'TIME_SHIFT_10ms', 'TIME_SHIFT_10ms', 'TIME_SHIFT_30ms', 'TIME_SHIFT_10ms', 'NOTE_OFF_64', 'NOTE_OFF_72', 'TIME_SHIFT_10ms', 'TIME_SHIFT_10ms', 'NOTE_OFF_35', 'TIME_SHIFT_10ms', 'TIME_SHIFT_10ms', 'NOTE_OFF_67', 'TIME_SHIFT_10ms', 'TIME_SHIFT_10ms', 'NOTE_ON_70', 'VELOCITY_17', 'NOTE_OFF_70', 'TIME_SHIFT_10ms', 'TIME_SHIFT_10ms', 'NOTE_OFF_33', 'TIME_SHIFT_50ms', 'NOTE_OFF_72', 'NOTE_OFF_60', 'TIME_SHIFT_30ms', 'TIME_SHIFT_10ms', 'TIME_SHIFT_10ms', 'TIME_SHIFT_10ms', 'NOTE_ON_62', 'VELOCITY_20', 'NOTE_ON_74', 'VELOCITY_20', 'TIME_SHIFT_10ms', 'TIME_SHIFT_10ms', 'TIME_SHIFT_30ms', 'TIME_SHIFT_10ms', 'NOTE_ON_65', 'VELOCITY_20', 'NOTE_OFF_55', 'NOTE_OFF_70', 'NOTE_ON_77', 'VELOCITY_24', 'NOTE_ON_34', 'VELOCITY_22', 'NOTE_ON_46', 'VELOCITY_17', 'NOTE_ON_62', 'VELOCITY_22', 'NOTE_OFF_64', 'NOTE_ON_46', 'VELOCITY_15', 'NOTE_ON_62', 'VELOCITY_19', 'NOTE_ON_62', 'VELOCITY_18', 'NOTE_ON_53', 'VELOCITY_20', 'NOTE_ON_58', 'VELOCITY_19', 'NOTE_ON_35', 'VELOCITY_25', 'NOTE_ON_42', 'VELOCITY_27', 'NOTE_ON_70', 'VELOCITY_20', 'NOTE_OFF_60', 'NOTE_OFF_42', 'NOTE_OFF_79', 'TIME_SHIFT_110ms', 'TIME_SHIFT_10ms', 'TIME_SHIFT_110ms', 'TIME_SHIFT_10ms', 'TIME_SHIFT_30ms', 'TIME_SHIFT_10ms', 'NOTE_OFF_35', 'TIME_SHIFT_50ms', 'NOTE_ON_42', 'VELOCITY_13', 'NOTE_OFF_77', 'NOTE_ON_74', 'VELOCITY_22', 'NOTE_ON_69', 'VELOCITY_22', 'NOTE_ON_65', 'VELOCITY_18', 'NOTE_ON_70', 'VELOCITY_10', 'NOTE_ON_76', 'VELOCITY_24', 'NOTE_OFF_70', 'NOTE_OFF_42', 'TIME_SHIFT_30ms', 'TIME_SHIFT_10ms', 'TIME_SHIFT_110ms', 'TIME_SHIFT_10ms', 'TIME_SHIFT_10ms', 'TIME_SHIFT_10ms', 'NOTE_OFF_65', 'TIME_SHIFT_10ms', 'TIME_SHIFT_10ms', 'NOTE_OFF_34', 'TIME_SHIFT_10ms', 'TIME_SHIFT_10ms', 'NOTE_OFF_62', 'TIME_SHIFT_60ms', 'TIME_SHIFT_10ms', 'TIME_SHIFT_10ms', 'TIME_SHIFT_10ms', 'NOTE_OFF_46', 'TIME_SHIFT_30ms', 'TIME_SHIFT_10ms', 'NOTE_ON_42', 'VELOCITY_13', 'NOTE_OFF_76', 'NOTE_OFF_70', 'NOTE_ON_72', 'VELOCITY_24', 'NOTE_ON_70', 'VELOCITY_9', 'NOTE_ON_34', 'VELOCITY_20', 'NOTE_OFF_42', 'TIME_SHIFT_60ms', 'TIME_SHIFT_10ms', 'TIME_SHIFT_50ms', 'NOTE_OFF_62', 'TIME_SHIFT_50ms', 'TIME_SHIFT_50ms', 'TIME_SHIFT_50ms', 'NOTE_OFF_34', 'TIME_SHIFT_10ms', 'TIME_SHIFT_10ms', 'NOTE_OFF_46', 'TIME_SHIFT_10ms', 'TIME_SHIFT_10ms', 'NOTE_ON_65', 'VELOCITY_17', 'NOTE_ON_57', 'VELOCITY_14', 'NOTE_ON_74', 'VELOCITY_24', 'NOTE_ON_62', 'VELOCITY_19', 'NOTE_OFF_62', 'NOTE_ON_50', 'VELOCITY_20', 'NOTE_OFF_53', 'NOTE_ON_57', 'VELOCITY_19', 'NOTE_OFF_58', 'NOTE_ON_65', 'VELOCITY_20', 'NOTE_ON_62', 'VELOCITY_22', 'NOTE_ON_38', 'VELOCITY_21', 'NOTE_OFF_72', 'NOTE_ON_70', 'VELOCITY_17', 'NOTE_OFF_70', 'NOTE_ON_46', 'VELOCITY_19', 'NOTE_OFF_42', 'NOTE_ON_57', 'VELOCITY_21', 'NOTE_ON_38', 'VELOCITY_21', 'NOTE_ON_62', 'VELOCITY_22', 'TIME_SHIFT_130ms', 'TIME_SHIFT_10ms', 'TIME_SHIFT_100ms', 'NOTE_OFF_38', 'TIME_SHIFT_10ms', 'TIME_SHIFT_10ms', 'TIME_SHIFT_60ms', 'TIME_SHIFT_10ms', 'NOTE_OFF_74', 'NOTE_OFF_46', 'NOTE_ON_70', 'VELOCITY_10', 'NOTE_OFF_70', 'NOTE_ON_42', 'VELOCITY_18', 'TIME_SHIFT_110ms', 'TIME_SHIFT_10ms', 'NOTE_OFF_57', 'TIME_SHIFT_30ms', 'TIME_SHIFT_10ms', 'NOTE_OFF_38', 'TIME_SHIFT_10ms', 'TIME_SHIFT_10ms', 'NOTE_ON_70', 'VELOCITY_8', 'NOTE_OFF_70', 'TIME_SHIFT_100ms', 'NOTE_OFF_62', 'TIME_SHIFT_10ms', 'TIME_SHIFT_10ms', 'NOTE_OFF_65', 'TIME_SHIFT_30ms', 'TIME_SHIFT_10ms', 'NOTE_ON_38', 'VELOCITY_22', 'NOTE_ON_42', 'VELOCITY_17', 'NOTE_OFF_70', 'NOTE_ON_35', 'VELOCITY_25', 'NOTE_OFF_42', 'NOTE_ON_70', 'VELOCITY_13', 'TIME_SHIFT_100ms', 'NOTE_OFF_50', 'TIME_SHIFT_10ms', 'TIME_SHIFT_10ms', 'NOTE_OFF_57', 'TIME_SHIFT_30ms', 'TIME_SHIFT_10ms', 'NOTE_OFF_35', 'TIME_SHIFT_10ms', 'TIME_SHIFT_10ms', 'NOTE_OFF_70', 'NOTE_ON_70', 'VELOCITY_21', 'TIME_SHIFT_10ms', 'TIME_SHIFT_10ms', 'NOTE_OFF_65', 'TIME_SHIFT_10ms', 'TIME_SHIFT_10ms', 'NOTE_OFF_74', 'TIME_SHIFT_10ms', 'TIME_SHIFT_10ms', 'NOTE_OFF_69', 'TIME_SHIFT_30ms', 'TIME_SHIFT_10ms', 'NOTE_OFF_62', 'TIME_SHIFT_50ms', 'NOTE_OFF_38', 'TIME_SHIFT_10ms', 'TIME_SHIFT_10ms', 'NOTE_OFF_65', 'NOTE_ON_31', 'VELOCITY_22', 'NOTE_OFF_57', 'NOTE_ON_70', 'VELOCITY_18', 'NOTE_OFF_62', 'NOTE_ON_70', 'VELOCITY_15', 'NOTE_ON_62', 'VELOCITY_20', 'NOTE_ON_58', 'VELOCITY_18', 'NOTE_ON_67', 'VELOCITY_20', 'NOTE_ON_74', 'VELOCITY_20', 'NOTE_ON_55', 'VELOCITY_20', 'NOTE_ON_67', 'VELOCITY_20', 'NOTE_ON_35', 'VELOCITY_25', 'NOTE_ON_43', 'VELOCITY_17', 'NOTE_OFF_42', 'NOTE_ON_43', 'VELOCITY_20', 'NOTE_OFF_70', 'NOTE_ON_58', 'VELOCITY_17', 'NOTE_ON_70', 'VELOCITY_24', 'NOTE_ON_62', 'VELOCITY_20', 'NOTE_ON_42', 'VELOCITY_25', 'TIME_SHIFT_30ms', 'TIME_SHIFT_10ms', 'NOTE_ON_79', 'VELOCITY_21', 'NOTE_ON_67', 'VELOCITY_21', 'TIME_SHIFT_10ms', 'TIME_SHIFT_10ms', 'NOTE_OFF_62', 'NOTE_OFF_74', 'TIME_SHIFT_30ms', 'TIME_SHIFT_10ms', 'TIME_SHIFT_60ms', 'TIME_SHIFT_10ms', 'TIME_SHIFT_60ms', 'TIME_SHIFT_10ms', 'TIME_SHIFT_60ms', 'TIME_SHIFT_10ms', 'TIME_SHIFT_30ms', 'TIME_SHIFT_10ms', 'NOTE_ON_42', 'VELOCITY_5', 'NOTE_ON_70', 'VELOCITY_11', 'NOTE_ON_70', 'VELOCITY_24', 'NOTE_OFF_70', 'NOTE_OFF_70', 'NOTE_OFF_42', 'TIME_SHIFT_50ms', 'NOTE_OFF_67', 'NOTE_OFF_35', 'NOTE_OFF_62', 'TIME_SHIFT_50ms', 'NOTE_OFF_58', 'TIME_SHIFT_60ms', 'TIME_SHIFT_10ms', 'TIME_SHIFT_10ms', 'TIME_SHIFT_10ms', 'NOTE_OFF_31', 'TIME_SHIFT_100ms', 'TIME_SHIFT_30ms', 'TIME_SHIFT_10ms', 'NOTE_OFF_70', 'NOTE_ON_70', 'VELOCITY_10', 'NOTE_ON_58', 'VELOCITY_16', 'NOTE_ON_58', 'VELOCITY_16', 'NOTE_ON_67', 'VELOCITY_20', 'NOTE_ON_67', 'VELOCITY_20', 'NOTE_ON_35', 'VELOCITY_25', 'NOTE_ON_31', 'VELOCITY_22', 'NOTE_ON_70', 'VELOCITY_24', 'NOTE_ON_62', 'VELOCITY_20', 'NOTE_ON_42', 'VELOCITY_11', 'NOTE_OFF_70', 'NOTE_ON_62', 'VELOCITY_20', 'NOTE_OFF_42', 'TIME_SHIFT_80ms', 'TIME_SHIFT_10ms', 'TIME_SHIFT_80ms', 'TIME_SHIFT_10ms', 'NOTE_OFF_35', 'TIME_SHIFT_30ms', 'TIME_SHIFT_10ms', 'TIME_SHIFT_100ms', 'NOTE_OFF_31', 'TIME_SHIFT_10ms', 'TIME_SHIFT_10ms', 'NOTE_OFF_42', 'NOTE_OFF_70', 'NOTE_OFF_70', 'NOTE_ON_70', 'VELOCITY_24', 'NOTE_ON_38', 'VELOCITY_22', 'NOTE_ON_42', 'VELOCITY_25', 'NOTE_ON_70', 'VELOCITY_18', 'TIME_SHIFT_110ms', 'TIME_SHIFT_10ms', 'NOTE_OFF_74', 'TIME_SHIFT_30ms', 'TIME_SHIFT_10ms', 'NOTE_OFF_67', 'TIME_SHIFT_10ms', 'TIME_SHIFT_10ms', 'NOTE_OFF_58', 'NOTE_OFF_38', 'NOTE_OFF_62', 'NOTE_OFF_70', 'TIME_SHIFT_10ms', 'TIME_SHIFT_10ms', 'NOTE_OFF_67', 'TIME_SHIFT_60ms', 'TIME_SHIFT_10ms', 'NOTE_OFF_67', 'TIME_SHIFT_30ms', 'TIME_SHIFT_10ms', 'NOTE_OFF_62', 'TIME_SHIFT_30ms', 'TIME_SHIFT_10ms', 'NOTE_OFF_58', 'NOTE_ON_70', 'VELOCITY_8', 'NOTE_OFF_43', 'NOTE_ON_69', 'VELOCITY_24', 'NOTE_OFF_70', 'NOTE_OFF_70', 'NOTE_ON_70', 'VELOCITY_23', 'NOTE_ON_42', 'VELOCITY_15', 'NOTE_ON_65', 'VELOCITY_15', 'NOTE_OFF_42', 'NOTE_ON_58', 'VELOCITY_14', 'NOTE_ON_67', 'VELOCITY_20', 'NOTE_ON_62', 'VELOCITY_19', 'NOTE_ON_31', 'VELOCITY_21', 'NOTE_ON_67', 'VELOCITY_18', 'TIME_SHIFT_30ms', 'TIME_SHIFT_10ms', 'TIME_SHIFT_80ms', 'TIME_SHIFT_10ms', 'TIME_SHIFT_30ms', 'TIME_SHIFT_10ms', 'NOTE_OFF_70', 'NOTE_ON_70', 'VELOCITY_10', 'TIME_SHIFT_30ms', 'TIME_SHIFT_10ms', 'NOTE_OFF_70', 'TIME_SHIFT_50ms', 'NOTE_OFF_67', 'TIME_SHIFT_10ms', 'TIME_SHIFT_10ms', 'NOTE_OFF_31', 'NOTE_ON_74', 'VELOCITY_17', 'NOTE_ON_86', 'VELOCITY_17', 'NOTE_OFF_65', 'TIME_SHIFT_10ms', 'TIME_SHIFT_10ms', 'NOTE_OFF_67', 'NOTE_OFF_79', 'TIME_SHIFT_30ms', 'TIME_SHIFT_10ms', 'NOTE_OFF_58', 'TIME_SHIFT_10ms', 'TIME_SHIFT_10ms', 'NOTE_OFF_67', 'NOTE_OFF_43', 'NOTE_OFF_69', 'NOTE_OFF_42', 'NOTE_OFF_70', 'NOTE_ON_67', 'VELOCITY_24', 'NOTE_ON_31', 'VELOCITY_20', 'NOTE_ON_64', 'VELOCITY_16', 'NOTE_ON_64', 'VELOCITY_13', 'NOTE_ON_35', 'VELOCITY_25', 'NOTE_ON_42', 'VELOCITY_13', 'NOTE_ON_70', 'VELOCITY_14', 'TIME_SHIFT_10ms', 'TIME_SHIFT_10ms', 'NOTE_OFF_62', 'TIME_SHIFT_60ms', 'TIME_SHIFT_10ms', 'TIME_SHIFT_30ms', 'TIME_SHIFT_10ms', 'NOTE_OFF_35', 'TIME_SHIFT_10ms', 'TIME_SHIFT_10ms', 'TIME_SHIFT_10ms', 'TIME_SHIFT_10ms', 'NOTE_ON_70', 'VELOCITY_17', 'NOTE_OFF_70', 'TIME_SHIFT_10ms', 'TIME_SHIFT_10ms', 'TIME_SHIFT_50ms', 'TIME_SHIFT_30ms', 'TIME_SHIFT_10ms', 'NOTE_OFF_31', 'TIME_SHIFT_10ms', 'TIME_SHIFT_10ms', 'NOTE_OFF_64', 'TIME_SHIFT_10ms', 'TIME_SHIFT_10ms', 'NOTE_OFF_64', 'NOTE_ON_69', 'VELOCITY_21', 'NOTE_ON_81', 'VELOCITY_21', 'TIME_SHIFT_10ms', 'TIME_SHIFT_10ms', 'NOTE_OFF_86', 'NOTE_OFF_74', 'TIME_SHIFT_10ms', 'TIME_SHIFT_10ms', 'NOTE_ON_62', 'VELOCITY_16', 'NOTE_OFF_55', 'NOTE_ON_62', 'VELOCITY_21', 'NOTE_OFF_67', 'NOTE_ON_42', 'VELOCITY_27', 'NOTE_ON_57', 'VELOCITY_21', 'NOTE_OFF_42', 'NOTE_OFF_58', 'NOTE_OFF_62', 'NOTE_OFF_70', 'NOTE_ON_50', 'VELOCITY_20', 'NOTE_ON_65', 'VELOCITY_20', 'NOTE_ON_69', 'VELOCITY_24', 'NOTE_ON_35', 'VELOCITY_25', 'NOTE_ON_26', 'VELOCITY_21', 'NOTE_ON_70', 'VELOCITY_20', 'NOTE_ON_50', 'VELOCITY_19', 'NOTE_ON_65', 'VELOCITY_17', 'TIME_SHIFT_110ms', 'TIME_SHIFT_10ms', 'TIME_SHIFT_110ms', 'TIME_SHIFT_10ms', 'TIME_SHIFT_30ms', 'TIME_SHIFT_10ms', 'NOTE_OFF_35', 'TIME_SHIFT_50ms', 'NOTE_ON_67', 'VELOCITY_24', 'NOTE_ON_65', 'VELOCITY_19', 'NOTE_ON_70', 'VELOCITY_10', 'NOTE_ON_42', 'VELOCITY_13', 'NOTE_OFF_70', 'NOTE_OFF_69', 'NOTE_ON_69', 'VELOCITY_22', 'NOTE_OFF_42', 'TIME_SHIFT_30ms', 'TIME_SHIFT_10ms', 'TIME_SHIFT_10ms', 'TIME_SHIFT_10ms', 'NOTE_OFF_65', 'TIME_SHIFT_10ms', 'TIME_SHIFT_10ms', 'NOTE_OFF_62', 'TIME_SHIFT_10ms', 'TIME_SHIFT_10ms', 'NOTE_OFF_26', 'TIME_SHIFT_60ms', 'TIME_SHIFT_10ms', 'TIME_SHIFT_10ms', 'TIME_SHIFT_10ms', 'NOTE_OFF_50', 'TIME_SHIFT_30ms', 'TIME_SHIFT_10ms', 'NOTE_OFF_69', 'TIME_SHIFT_30ms', 'TIME_SHIFT_10ms', 'NOTE_OFF_65', 'TIME_SHIFT_30ms', 'TIME_SHIFT_10ms', 'TIME_SHIFT_50ms', 'NOTE_ON_65', 'VELOCITY_17', 'NOTE_ON_57', 'VELOCITY_16', 'NOTE_ON_70', 'VELOCITY_9', 'NOTE_ON_42', 'VELOCITY_13', 'NOTE_ON_64', 'VELOCITY_19', 'NOTE_ON_67', 'VELOCITY_20', 'NOTE_OFF_70', 'NOTE_ON_57', 'VELOCITY_20', 'NOTE_OFF_67', 'NOTE_ON_65', 'VELOCITY_19', 'NOTE_ON_65', 'VELOCITY_24', 'NOTE_ON_62', 'VELOCITY_22', 'NOTE_ON_26', 'VELOCITY_21', 'NOTE_OFF_42', 'TIME_SHIFT_80ms', 'TIME_SHIFT_10ms', 'TIME_SHIFT_30ms', 'TIME_SHIFT_10ms', 'TIME_SHIFT_50ms', 'NOTE_OFF_64', 'TIME_SHIFT_50ms', 'TIME_SHIFT_50ms', 'TIME_SHIFT_10ms', 'TIME_SHIFT_10ms', 'NOTE_OFF_67', 'TIME_SHIFT_30ms', 'TIME_SHIFT_10ms', 'NOTE_OFF_70', 'NOTE_OFF_65', 'NOTE_ON_69', 'VELOCITY_24', 'NOTE_OFF_42', 'NOTE_ON_65', 'VELOCITY_18', 'NOTE_ON_69', 'VELOCITY_23', 'NOTE_ON_38', 'VELOCITY_21', 'NOTE_ON_46', 'VELOCITY_19', 'NOTE_ON_70', 'VELOCITY_17', 'TIME_SHIFT_10ms', 'TIME_SHIFT_10ms', 'NOTE_OFF_65', 'TIME_SHIFT_50ms', 'NOTE_OFF_57', 'TIME_SHIFT_10ms', 'TIME_SHIFT_10ms', 'NOTE_OFF_62', 'TIME_SHIFT_80ms', 'TIME_SHIFT_10ms', 'TIME_SHIFT_50ms', 'NOTE_OFF_38', 'TIME_SHIFT_100ms', 'NOTE_OFF_69', 'NOTE_ON_42', 'VELOCITY_18', 'NOTE_ON_62', 'VELOCITY_18', 'NOTE_ON_70', 'VELOCITY_10', 'NOTE_ON_65', 'VELOCITY_18', 'NOTE_OFF_26', 'NOTE_ON_57', 'VELOCITY_15', 'NOTE_OFF_46', 'NOTE_ON_64', 'VELOCITY_17', 'NOTE_OFF_70', 'TIME_SHIFT_30ms', 'TIME_SHIFT_10ms', 'NOTE_OFF_65', 'TIME_SHIFT_110ms', 'TIME_SHIFT_10ms', 'NOTE_ON_70', 'VELOCITY_8', 'NOTE_OFF_70', 'TIME_SHIFT_10ms', 'TIME_SHIFT_10ms', 'NOTE_OFF_62', 'TIME_SHIFT_100ms', 'TIME_SHIFT_30ms', 'TIME_SHIFT_10ms', 'NOTE_OFF_57', 'TIME_SHIFT_10ms', 'TIME_SHIFT_10ms', 'NOTE_ON_62', 'VELOCITY_18', 'NOTE_ON_69', 'VELOCITY_24', 'NOTE_OFF_42', 'NOTE_ON_26', 'VELOCITY_21', 'NOTE_ON_62', 'VELOCITY_13', 'NOTE_ON_70', 'VELOCITY_13', 'NOTE_ON_35', 'VELOCITY_25', 'NOTE_ON_42', 'VELOCITY_17', 'NOTE_OFF_70', 'TIME_SHIFT_10ms', 'TIME_SHIFT_10ms', 'NOTE_OFF_64', 'NOTE_OFF_50', 'TIME_SHIFT_50ms', 'NOTE_OFF_65', 'TIME_SHIFT_30ms', 'TIME_SHIFT_10ms', 'TIME_SHIFT_10ms', 'TIME_SHIFT_10ms', 'NOTE_OFF_69', 'TIME_SHIFT_10ms', 'TIME_SHIFT_10ms', 'NOTE_OFF_35', 'NOTE_OFF_62', 'TIME_SHIFT_10ms', 'TIME_SHIFT_10ms', 'NOTE_OFF_70', 'NOTE_ON_70', 'VELOCITY_21', 'TIME_SHIFT_10ms', 'TIME_SHIFT_10ms', 'TIME_SHIFT_10ms', 'TIME_SHIFT_10ms', 'NOTE_OFF_65', 'TIME_SHIFT_30ms', 'TIME_SHIFT_10ms', 'NOTE_OFF_69', 'TIME_SHIFT_30ms', 'TIME_SHIFT_10ms', 'NOTE_OFF_81', 'NOTE_OFF_69', 'NOTE_OFF_57', 'TIME_SHIFT_30ms', 'TIME_SHIFT_10ms', 'NOTE_OFF_26', 'TIME_SHIFT_30ms', 'TIME_SHIFT_10ms', 'NOTE_OFF_65', 'NOTE_ON_70', 'VELOCITY_15', 'NOTE_ON_57', 'VELOCITY_15', 'NOTE_ON_64', 'VELOCITY_17', 'NOTE_ON_76', 'VELOCITY_19', 'NOTE_ON_64', 'VELOCITY_22', 'NOTE_ON_57', 'VELOCITY_22', 'NOTE_ON_45', 'VELOCITY_22', 'NOTE_ON_33', 'VELOCITY_24', 'NOTE_ON_76', 'VELOCITY_24', 'NOTE_OFF_70', 'NOTE_OFF_62', 'NOTE_OFF_57', 'NOTE_OFF_42', 'NOTE_ON_60', 'VELOCITY_18', 'NOTE_ON_35', 'VELOCITY_25', 'NOTE_ON_42', 'VELOCITY_25', 'TIME_SHIFT_10ms', 'TIME_SHIFT_10ms', 'NOTE_ON_64', 'VELOCITY_19', 'NOTE_OFF_62', 'NOTE_ON_69', 'VELOCITY_22', 'NOTE_ON_60', 'VELOCITY_17', 'TIME_SHIFT_100ms', 'TIME_SHIFT_110ms', 'TIME_SHIFT_10ms', 'TIME_SHIFT_60ms', 'TIME_SHIFT_10ms', 'NOTE_OFF_76', 'NOTE_ON_70', 'VELOCITY_11', 'NOTE_OFF_42', 'NOTE_OFF_70', 'NOTE_ON_42', 'VELOCITY_5', 'NOTE_ON_76', 'VELOCITY_24', 'TIME_SHIFT_30ms', 'TIME_SHIFT_10ms', 'NOTE_OFF_33', 'TIME_SHIFT_10ms', 'TIME_SHIFT_10ms', 'NOTE_OFF_35', 'TIME_SHIFT_50ms', 'TIME_SHIFT_50ms', 'TIME_SHIFT_30ms', 'TIME_SHIFT_10ms', 'TIME_SHIFT_50ms', 'TIME_SHIFT_50ms', 'TIME_SHIFT_30ms', 'TIME_SHIFT_10ms', 'NOTE_OFF_57', 'NOTE_ON_60', 'VELOCITY_15', 'NOTE_OFF_76', 'NOTE_ON_70', 'VELOCITY_10', 'NOTE_ON_64', 'VELOCITY_21', 'NOTE_ON_35', 'VELOCITY_25', 'NOTE_ON_42', 'VELOCITY_11', 'NOTE_ON_60', 'VELOCITY_17', 'NOTE_OFF_70', 'NOTE_ON_67', 'VELOCITY_19', 'NOTE_ON_69', 'VELOCITY_21', 'NOTE_OFF_42', 'NOTE_ON_64', 'VELOCITY_18', 'NOTE_ON_33', 'VELOCITY_22', 'NOTE_ON_76', 'VELOCITY_24', 'TIME_SHIFT_80ms', 'TIME_SHIFT_10ms', 'TIME_SHIFT_60ms', 'TIME_SHIFT_10ms', 'NOTE_OFF_69', 'TIME_SHIFT_10ms', 'TIME_SHIFT_10ms', 'NOTE_OFF_35', 'TIME_SHIFT_10ms', 'TIME_SHIFT_10ms', 'NOTE_OFF_64', 'TIME_SHIFT_10ms', 'TIME_SHIFT_10ms', 'NOTE_OFF_60', 'TIME_SHIFT_30ms', 'TIME_SHIFT_10ms', 'NOTE_OFF_67', 'TIME_SHIFT_10ms', 'TIME_SHIFT_10ms', 'NOTE_OFF_64', 'TIME_SHIFT_10ms', 'TIME_SHIFT_10ms', 'NOTE_OFF_60', 'TIME_SHIFT_30ms', 'TIME_SHIFT_10ms', 'NOTE_OFF_33', 'TIME_SHIFT_10ms', 'TIME_SHIFT_10ms', 'NOTE_OFF_76', 'NOTE_OFF_42', 'NOTE_ON_70', 'VELOCITY_18', 'NOTE_ON_38', 'VELOCITY_22', 'NOTE_ON_42', 'VELOCITY_25', 'NOTE_OFF_70', 'NOTE_ON_76', 'VELOCITY_24', 'TIME_SHIFT_80ms', 'TIME_SHIFT_10ms', 'NOTE_OFF_69', 'TIME_SHIFT_30ms', 'TIME_SHIFT_10ms', 'TIME_SHIFT_10ms', 'TIME_SHIFT_10ms', 'NOTE_OFF_64', 'TIME_SHIFT_10ms', 'TIME_SHIFT_10ms', 'NOTE_OFF_60', 'TIME_SHIFT_10ms', 'TIME_SHIFT_10ms', 'NOTE_OFF_38', 'TIME_SHIFT_80ms', 'TIME_SHIFT_10ms', 'TIME_SHIFT_60ms', 'TIME_SHIFT_10ms', 'NOTE_ON_67', 'VELOCITY_20', 'NOTE_ON_60', 'VELOCITY_12', 'NOTE_OFF_76', 'NOTE_OFF_70', 'NOTE_OFF_42', 'NOTE_ON_42', 'VELOCITY_15', 'NOTE_ON_64', 'VELOCITY_16', 'NOTE_ON_64', 'VELOCITY_16', 'NOTE_ON_79', 'VELOCITY_24', 'NOTE_ON_70', 'VELOCITY_8', 'NOTE_ON_60', 'VELOCITY_12', 'TIME_SHIFT_50ms', 'TIME_SHIFT_30ms', 'TIME_SHIFT_10ms', 'NOTE_OFF_45', 'NOTE_OFF_60', 'NOTE_OFF_64', 'TIME_SHIFT_80ms', 'TIME_SHIFT_10ms', 'NOTE_OFF_70', 'NOTE_ON_70', 'VELOCITY_10', 'TIME_SHIFT_110ms', 'TIME_SHIFT_10ms', 'NOTE_OFF_67', 'TIME_SHIFT_30ms', 'TIME_SHIFT_10ms', 'NOTE_ON_69', 'VELOCITY_15', 'NOTE_OFF_42', 'NOTE_OFF_79', 'NOTE_ON_42', 'VELOCITY_13', 'NOTE_ON_70', 'VELOCITY_14', 'NOTE_OFF_70', 'NOTE_ON_35', 'VELOCITY_25', 'NOTE_ON_76', 'VELOCITY_24', 'NOTE_ON_33', 'VELOCITY_22', 'TIME_SHIFT_10ms', 'TIME_SHIFT_10ms', 'NOTE_ON_64', 'VELOCITY_20', 'NOTE_ON_69', 'VELOCITY_21', 'NOTE_ON_60', 'VELOCITY_18', 'TIME_SHIFT_60ms', 'TIME_SHIFT_10ms', 'TIME_SHIFT_10ms', 'TIME_SHIFT_10ms', 'NOTE_OFF_64', 'NOTE_OFF_69', 'NOTE_OFF_60', 'TIME_SHIFT_10ms', 'TIME_SHIFT_10ms', 'NOTE_OFF_35', 'TIME_SHIFT_50ms', 'NOTE_OFF_70', 'NOTE_ON_70', 'VELOCITY_17', 'TIME_SHIFT_30ms', 'TIME_SHIFT_10ms', 'TIME_SHIFT_80ms', 'TIME_SHIFT_10ms', 'NOTE_OFF_69', 'TIME_SHIFT_10ms', 'TIME_SHIFT_10ms', 'NOTE_OFF_64', 'TIME_SHIFT_10ms', 'TIME_SHIFT_10ms', 'NOTE_ON_76', 'VELOCITY_24', 'NOTE_OFF_76', 'NOTE_OFF_70', 'NOTE_ON_36', 'VELOCITY_21', 'NOTE_OFF_42', 'NOTE_OFF_57', 'NOTE_ON_64', 'VELOCITY_19', 'NOTE_ON_48', 'VELOCITY_22', 'NOTE_OFF_64', 'NOTE_ON_55', 'VELOCITY_19', 'NOTE_ON_70', 'VELOCITY_20', 'NOTE_ON_60', 'VELOCITY_20', 'NOTE_ON_42', 'VELOCITY_27', 'NOTE_OFF_60', 'NOTE_ON_35', 'VELOCITY_25', 'TIME_SHIFT_10ms', 'TIME_SHIFT_10ms', 'NOTE_ON_60', 'VELOCITY_18', 'NOTE_OFF_60', 'NOTE_ON_64', 'VELOCITY_21', 'NOTE_ON_67', 'VELOCITY_22', 'TIME_SHIFT_30ms', 'TIME_SHIFT_10ms', 'NOTE_OFF_33', 'TIME_SHIFT_110ms', 'TIME_SHIFT_10ms', 'TIME_SHIFT_100ms', 'NOTE_OFF_35', 'TIME_SHIFT_50ms', 'NOTE_ON_67', 'VELOCITY_18', 'NOTE_OFF_42', 'NOTE_ON_60', 'VELOCITY_14', 'NOTE_OFF_76', 'NOTE_ON_42', 'VELOCITY_13', 'NOTE_ON_64', 'VELOCITY_18', 'NOTE_OFF_70', 'NOTE_ON_70', 'VELOCITY_10', 'TIME_SHIFT_10ms', 'TIME_SHIFT_10ms', 'NOTE_OFF_36', 'TIME_SHIFT_130ms', 'TIME_SHIFT_10ms', 'NOTE_OFF_67', 'TIME_SHIFT_80ms', 'TIME_SHIFT_10ms', 'NOTE_OFF_64', 'NOTE_OFF_60', 'TIME_SHIFT_50ms', 'TIME_SHIFT_30ms', 'TIME_SHIFT_10ms', 'NOTE_OFF_70', 'NOTE_OFF_42', 'NOTE_ON_64', 'VELOCITY_20', 'NOTE_ON_76', 'VELOCITY_24', 'NOTE_ON_36', 'VELOCITY_20', 'NOTE_ON_67', 'VELOCITY_19', 'NOTE_ON_42', 'VELOCITY_13', 'NOTE_ON_60', 'VELOCITY_17', 'NOTE_ON_70', 'VELOCITY_9', 'TIME_SHIFT_80ms', 'TIME_SHIFT_10ms', 'TIME_SHIFT_10ms', 'TIME_SHIFT_10ms', 'NOTE_OFF_67', 'NOTE_OFF_64', 'TIME_SHIFT_10ms', 'TIME_SHIFT_10ms', 'NOTE_OFF_60', 'TIME_SHIFT_80ms', 'TIME_SHIFT_10ms', 'TIME_SHIFT_110ms', 'TIME_SHIFT_10ms', 'NOTE_ON_38', 'VELOCITY_21', 'NOTE_OFF_76', 'NOTE_ON_70', 'VELOCITY_17', 'NOTE_OFF_42', 'NOTE_OFF_70', 'NOTE_ON_79', 'VELOCITY_24', 'NOTE_ON_46', 'VELOCITY_19', 'TIME_SHIFT_60ms', 'TIME_SHIFT_10ms', 'NOTE_OFF_36', 'TIME_SHIFT_100ms', 'TIME_SHIFT_10ms', 'TIME_SHIFT_10ms', 'NOTE_OFF_67', 'TIME_SHIFT_30ms', 'TIME_SHIFT_10ms', 'NOTE_OFF_38', 'TIME_SHIFT_50ms', 'NOTE_OFF_64', 'TIME_SHIFT_10ms', 'TIME_SHIFT_10ms', 'NOTE_OFF_60', 'TIME_SHIFT_30ms', 'TIME_SHIFT_10ms', 'NOTE_ON_64', 'VELOCITY_19', 'NOTE_ON_64', 'VELOCITY_13', 'NOTE_ON_67', 'VELOCITY_18', 'NOTE_ON_60', 'VELOCITY_14', 'NOTE_ON_70', 'VELOCITY_10', 'NOTE_OFF_70', 'NOTE_ON_60', 'VELOCITY_12', 'NOTE_OFF_46', 'NOTE_OFF_79', 'NOTE_ON_42', 'VELOCITY_18', 'TIME_SHIFT_10ms', 'TIME_SHIFT_10ms', 'TIME_SHIFT_30ms', 'TIME_SHIFT_10ms', 'NOTE_OFF_48', 'TIME_SHIFT_100ms', 'NOTE_OFF_70', 'NOTE_ON_70', 'VELOCITY_8', 'TIME_SHIFT_110ms', 'TIME_SHIFT_10ms', 'TIME_SHIFT_10ms', 'TIME_SHIFT_10ms', 'NOTE_ON_60', 'VELOCITY_18', 'NOTE_ON_67', 'VELOCITY_19', 'NOTE_ON_64', 'VELOCITY_22', 'TIME_SHIFT_30ms', 'TIME_SHIFT_10ms', 'NOTE_ON_72', 'VELOCITY_24', 'NOTE_ON_35', 'VELOCITY_25', 'NOTE_ON_42', 'VELOCITY_17', 'NOTE_ON_65', 'VELOCITY_14', 'NOTE_ON_36', 'VELOCITY_21', 'NOTE_ON_70', 'VELOCITY_13', 'NOTE_OFF_70', 'NOTE_OFF_42', 'TIME_SHIFT_10ms', 'TIME_SHIFT_10ms', 'NOTE_OFF_64', 'TIME_SHIFT_30ms', 'TIME_SHIFT_10ms', 'NOTE_OFF_67', 'NOTE_OFF_64', 'TIME_SHIFT_10ms', 'TIME_SHIFT_10ms', 'NOTE_OFF_60', 'NOTE_OFF_64', 'TIME_SHIFT_10ms', 'TIME_SHIFT_10ms', 'NOTE_OFF_65', 'TIME_SHIFT_10ms', 'TIME_SHIFT_10ms', 'NOTE_OFF_67', 'TIME_SHIFT_10ms', 'TIME_SHIFT_10ms', 'NOTE_OFF_60', 'TIME_SHIFT_10ms', 'TIME_SHIFT_10ms', 'NOTE_OFF_35', 'TIME_SHIFT_10ms', 'TIME_SHIFT_10ms', 'NOTE_ON_70', 'VELOCITY_21', 'NOTE_OFF_70', 'TIME_SHIFT_50ms', 'NOTE_OFF_60', 'TIME_SHIFT_100ms', 'NOTE_OFF_36', 'TIME_SHIFT_10ms', 'TIME_SHIFT_10ms', 'NOTE_OFF_64', 'NOTE_OFF_60', 'NOTE_OFF_42', 'NOTE_OFF_64', 'NOTE_OFF_55', 'NOTE_OFF_76', 'NOTE_OFF_70', 'NOTE_ON_74', 'VELOCITY_24', 'NOTE_OFF_72', 'NOTE_ON_74', 'VELOCITY_22', 'NOTE_ON_38', 'VELOCITY_22', 'NOTE_ON_42', 'VELOCITY_25', 'NOTE_ON_70', 'VELOCITY_18', 'NOTE_ON_62', 'VELOCITY_18', 'NOTE_ON_57', 'VELOCITY_20', 'NOTE_ON_65', 'VELOCITY_18', 'NOTE_ON_35', 'VELOCITY_25', 'NOTE_ON_62', 'VELOCITY_22', 'NOTE_ON_62', 'VELOCITY_23', 'NOTE_ON_50', 'VELOCITY_22', 'NOTE_ON_50', 'VELOCITY_18', 'NOTE_ON_65', 'VELOCITY_16', 'NOTE_ON_57', 'VELOCITY_14', 'NOTE_ON_65', 'VELOCITY_19', 'NOTE_ON_62', 'VELOCITY_19', 'TIME_SHIFT_130ms', 'TIME_SHIFT_10ms', 'TIME_SHIFT_150ms', 'TIME_SHIFT_30ms', 'TIME_SHIFT_10ms', 'NOTE_OFF_38', 'NOTE_ON_70', 'VELOCITY_15', 'NOTE_ON_42', 'VELOCITY_5', 'NOTE_OFF_70', 'NOTE_OFF_42', 'TIME_SHIFT_50ms', 'NOTE_OFF_35', 'TIME_SHIFT_30ms', 'TIME_SHIFT_10ms', 'NOTE_OFF_74', 'TIME_SHIFT_10ms', 'TIME_SHIFT_10ms', 'TIME_SHIFT_160ms', 'TIME_SHIFT_10ms', 'TIME_SHIFT_50ms', 'NOTE_ON_70', 'VELOCITY_15', 'NOTE_ON_60', 'VELOCITY_18', 'NOTE_ON_42', 'VELOCITY_11', 'NOTE_OFF_70', 'NOTE_OFF_42', 'NOTE_ON_74', 'VELOCITY_24', 'NOTE_ON_38', 'VELOCITY_22', 'NOTE_ON_62', 'VELOCITY_15', 'NOTE_ON_65', 'VELOCITY_20', 'NOTE_ON_35', 'VELOCITY_25', 'TIME_SHIFT_50ms', 'NOTE_OFF_62', 'TIME_SHIFT_60ms', 'TIME_SHIFT_10ms', 'NOTE_OFF_65', 'TIME_SHIFT_30ms', 'TIME_SHIFT_10ms', 'NOTE_OFF_35', 'TIME_SHIFT_60ms', 'TIME_SHIFT_10ms', 'NOTE_OFF_60', 'TIME_SHIFT_100ms', 'NOTE_ON_70', 'VELOCITY_19', 'NOTE_ON_38', 'VELOCITY_22', 'NOTE_OFF_70', 'NOTE_ON_42', 'VELOCITY_25', 'NOTE_OFF_42', 'TIME_SHIFT_150ms', 'NOTE_OFF_38', 'TIME_SHIFT_80ms', 'TIME_SHIFT_10ms', 'NOTE_OFF_38', 'TIME_SHIFT_80ms', 'TIME_SHIFT_10ms', 'NOTE_ON_42', 'VELOCITY_15', 'NOTE_OFF_70', 'NOTE_ON_70', 'VELOCITY_10', 'NOTE_OFF_42', 'NOTE_ON_64', 'VELOCITY_20', 'TIME_SHIFT_150ms', 'NOTE_ON_70', 'VELOCITY_13', 'NOTE_OFF_70', 'TIME_SHIFT_110ms', 'TIME_SHIFT_10ms', 'TIME_SHIFT_30ms', 'TIME_SHIFT_10ms', 'NOTE_ON_35', 'VELOCITY_25', 'NOTE_OFF_70', 'NOTE_ON_38', 'VELOCITY_21', 'NOTE_ON_70', 'VELOCITY_7', 'NOTE_ON_62', 'VELOCITY_15', 'NOTE_ON_42', 'VELOCITY_13', 'NOTE_OFF_42', 'TIME_SHIFT_10ms', 'TIME_SHIFT_10ms', 'NOTE_OFF_57', 'NOTE_OFF_64', 'TIME_SHIFT_50ms', 'NOTE_OFF_62', 'TIME_SHIFT_30ms', 'TIME_SHIFT_10ms', 'NOTE_OFF_65', 'TIME_SHIFT_30ms', 'TIME_SHIFT_10ms', 'NOTE_OFF_38', 'NOTE_OFF_62', 'NOTE_OFF_35', 'TIME_SHIFT_30ms', 'TIME_SHIFT_10ms', 'NOTE_ON_70', 'VELOCITY_19', 'NOTE_OFF_70', 'TIME_SHIFT_10ms', 'TIME_SHIFT_10ms', 'NOTE_OFF_50', 'TIME_SHIFT_30ms', 'TIME_SHIFT_10ms', 'NOTE_OFF_50', 'TIME_SHIFT_100ms', 'NOTE_ON_65', 'VELOCITY_20', 'NOTE_OFF_62', 'NOTE_OFF_57', 'NOTE_OFF_42', 'NOTE_ON_42', 'VELOCITY_27', 'NOTE_ON_62', 'VELOCITY_18', 'NOTE_ON_70', 'VELOCITY_23', 'NOTE_OFF_70', 'NOTE_ON_35', 'VELOCITY_25', 'NOTE_ON_50', 'VELOCITY_16', 'NOTE_OFF_62', 'NOTE_OFF_65', 'NOTE_OFF_74', 'NOTE_ON_57', 'VELOCITY_20', 'NOTE_ON_38', 'VELOCITY_23', 'NOTE_ON_57', 'VELOCITY_20', 'TIME_SHIFT_30ms', 'TIME_SHIFT_10ms', 'NOTE_OFF_62', 'TIME_SHIFT_30ms', 'TIME_SHIFT_10ms', 'NOTE_OFF_65', 'TIME_SHIFT_100ms', 'NOTE_OFF_70', 'TIME_SHIFT_110ms', 'TIME_SHIFT_10ms', 'NOTE_OFF_35', 'TIME_SHIFT_30ms', 'TIME_SHIFT_10ms', 'NOTE_OFF_42', 'NOTE_OFF_38', 'TIME_SHIFT_100ms', 'NOTE_OFF_57', 'TIME_SHIFT_10ms', 'TIME_SHIFT_10ms', 'NOTE_OFF_50', 'TIME_SHIFT_10ms', 'TIME_SHIFT_10ms', 'NOTE_OFF_74', 'TIME_SHIFT_10ms', 'TIME_SHIFT_10ms', 'NOTE_OFF_62', 'TIME_SHIFT_30ms', 'TIME_SHIFT_10ms', 'NOTE_OFF_65', 'TIME_SHIFT_450ms', 'NOTE_OFF_57', 'TIME_SHIFT_950ms', 'NOTE_ON_70', 'VELOCITY_16', 'NOTE_ON_77', 'VELOCITY_24', 'TIME_SHIFT_160ms', 'TIME_SHIFT_10ms', 'TIME_SHIFT_150ms', 'NOTE_OFF_77', 'NOTE_ON_77', 'VELOCITY_24', 'TIME_SHIFT_10ms', 'TIME_SHIFT_10ms', 'TIME_SHIFT_10ms', 'TIME_SHIFT_10ms', 'TIME_SHIFT_110ms', 'TIME_SHIFT_10ms', 'TIME_SHIFT_130ms', 'TIME_SHIFT_10ms', 'TIME_SHIFT_30ms', 'TIME_SHIFT_10ms', 'NOTE_ON_77', 'VELOCITY_24', 'NOTE_OFF_77', 'TIME_SHIFT_80ms', 'TIME_SHIFT_10ms', 'TIME_SHIFT_60ms', 'TIME_SHIFT_10ms', 'TIME_SHIFT_60ms', 'TIME_SHIFT_10ms', 'TIME_SHIFT_60ms', 'TIME_SHIFT_10ms', 'TIME_SHIFT_30ms', 'TIME_SHIFT_10ms', 'NOTE_ON_54', 'VELOCITY_19', 'NOTE_ON_77', 'VELOCITY_24', 'NOTE_ON_70', 'VELOCITY_13', 'NOTE_OFF_77', 'NOTE_OFF_70', 'TIME_SHIFT_50ms', 'TIME_SHIFT_50ms', 'TIME_SHIFT_30ms', 'TIME_SHIFT_10ms', 'TIME_SHIFT_50ms', 'TIME_SHIFT_50ms', 'TIME_SHIFT_80ms', 'TIME_SHIFT_10ms', 'NOTE_OFF_77', 'NOTE_ON_74', 'VELOCITY_24', 'TIME_SHIFT_30ms', 'TIME_SHIFT_10ms', 'TIME_SHIFT_60ms', 'TIME_SHIFT_10ms', 'TIME_SHIFT_80ms', 'TIME_SHIFT_10ms', 'TIME_SHIFT_60ms', 'TIME_SHIFT_10ms', 'TIME_SHIFT_60ms', 'TIME_SHIFT_10ms', 'NOTE_ON_74', 'VELOCITY_24', 'NOTE_OFF_74', 'TIME_SHIFT_60ms', 'TIME_SHIFT_10ms', 'TIME_SHIFT_130ms', 'TIME_SHIFT_10ms', 'TIME_SHIFT_110ms', 'TIME_SHIFT_10ms', 'NOTE_ON_76', 'VELOCITY_24', 'NOTE_OFF_74', 'NOTE_ON_70', 'VELOCITY_17', 'NOTE_OFF_70', 'NOTE_OFF_54', 'TIME_SHIFT_60ms', 'TIME_SHIFT_10ms', 'TIME_SHIFT_60ms', 'TIME_SHIFT_10ms', 'TIME_SHIFT_60ms', 'TIME_SHIFT_10ms', 'TIME_SHIFT_110ms', 'TIME_SHIFT_10ms', 'NOTE_OFF_76', 'NOTE_ON_76', 'VELOCITY_24', 'TIME_SHIFT_30ms', 'TIME_SHIFT_10ms', 'TIME_SHIFT_60ms', 'TIME_SHIFT_10ms', 'TIME_SHIFT_80ms', 'TIME_SHIFT_10ms', 'TIME_SHIFT_60ms', 'TIME_SHIFT_10ms', 'TIME_SHIFT_60ms', 'TIME_SHIFT_10ms', 'NOTE_OFF_76', 'NOTE_ON_76', 'VELOCITY_24', 'TIME_SHIFT_60ms', 'TIME_SHIFT_10ms', 'TIME_SHIFT_50ms', 'TIME_SHIFT_50ms', 'TIME_SHIFT_50ms', 'TIME_SHIFT_50ms', 'TIME_SHIFT_30ms', 'TIME_SHIFT_10ms', 'NOTE_ON_70', 'VELOCITY_17', 'NOTE_ON_72', 'VELOCITY_24', 'NOTE_OFF_76', 'NOTE_ON_54', 'VELOCITY_19', 'NOTE_OFF_70', 'TIME_SHIFT_130ms', 'TIME_SHIFT_10ms', 'TIME_SHIFT_110ms', 'TIME_SHIFT_10ms', 'TIME_SHIFT_60ms', 'TIME_SHIFT_10ms', 'NOTE_OFF_72', 'TIME_SHIFT_280ms', 'TIME_SHIFT_10ms', 'TIME_SHIFT_30ms', 'TIME_SHIFT_10ms', 'NOTE_ON_67', 'VELOCITY_24', 'TIME_SHIFT_80ms', 'TIME_SHIFT_10ms', 'TIME_SHIFT_50ms', 'NOTE_OFF_67', 'TIME_SHIFT_60ms', 'TIME_SHIFT_10ms', 'TIME_SHIFT_110ms', 'TIME_SHIFT_10ms', 'NOTE_OFF_54', 'NOTE_ON_76', 'VELOCITY_24', 'NOTE_ON_70', 'VELOCITY_18', 'NOTE_OFF_70', 'TIME_SHIFT_110ms', 'TIME_SHIFT_10ms', 'TIME_SHIFT_130ms', 'TIME_SHIFT_10ms', 'TIME_SHIFT_60ms', 'TIME_SHIFT_10ms', 'NOTE_OFF_76', 'NOTE_ON_76', 'VELOCITY_24', 'TIME_SHIFT_50ms', 'TIME_SHIFT_110ms', 'TIME_SHIFT_10ms', 'TIME_SHIFT_110ms', 'TIME_SHIFT_10ms', 'TIME_SHIFT_30ms', 'TIME_SHIFT_10ms', 'NOTE_OFF_76', 'NOTE_ON_76', 'VELOCITY_24', 'TIME_SHIFT_80ms', 'TIME_SHIFT_10ms', 'TIME_SHIFT_60ms', 'TIME_SHIFT_10ms', 'TIME_SHIFT_60ms', 'TIME_SHIFT_10ms', 'TIME_SHIFT_80ms', 'TIME_SHIFT_10ms', 'TIME_SHIFT_10ms', 'TIME_SHIFT_10ms', 'NOTE_OFF_76', 'NOTE_OFF_70', 'NOTE_ON_76', 'VELOCITY_24', 'NOTE_ON_70', 'VELOCITY_13', 'NOTE_ON_54', 'VELOCITY_21', 'TIME_SHIFT_160ms', 'TIME_SHIFT_10ms', 'TIME_SHIFT_150ms', 'NOTE_ON_77', 'VELOCITY_24', 'NOTE_OFF_76', 'TIME_SHIFT_30ms', 'TIME_SHIFT_10ms', 'TIME_SHIFT_130ms', 'TIME_SHIFT_10ms', 'TIME_SHIFT_110ms', 'TIME_SHIFT_10ms', 'TIME_SHIFT_30ms', 'TIME_SHIFT_10ms', 'NOTE_ON_79', 'VELOCITY_24', 'NOTE_OFF_77', 'TIME_SHIFT_80ms', 'TIME_SHIFT_10ms', 'TIME_SHIFT_50ms', 'TIME_SHIFT_30ms', 'TIME_SHIFT_10ms', 'TIME_SHIFT_50ms', 'TIME_SHIFT_50ms', 'TIME_SHIFT_50ms', 'NOTE_OFF_70', 'NOTE_ON_70', 'VELOCITY_11', 'NOTE_OFF_54', 'NOTE_ON_77', 'VELOCITY_24', 'NOTE_OFF_79', 'TIME_SHIFT_60ms', 'TIME_SHIFT_10ms', 'TIME_SHIFT_60ms', 'TIME_SHIFT_10ms', 'TIME_SHIFT_80ms', 'TIME_SHIFT_10ms', 'TIME_SHIFT_100ms', 'NOTE_OFF_77', 'NOTE_ON_76', 'VELOCITY_24', 'TIME_SHIFT_30ms', 'TIME_SHIFT_10ms', 'TIME_SHIFT_110ms', 'TIME_SHIFT_10ms', 'TIME_SHIFT_110ms', 'TIME_SHIFT_10ms', 'TIME_SHIFT_50ms', 'NOTE_ON_72', 'VELOCITY_24', 'NOTE_OFF_76', 'TIME_SHIFT_80ms', 'TIME_SHIFT_10ms', 'TIME_SHIFT_30ms', 'TIME_SHIFT_10ms', 'TIME_SHIFT_50ms', 'TIME_SHIFT_50ms', 'TIME_SHIFT_50ms', 'TIME_SHIFT_50ms', 'NOTE_ON_54', 'VELOCITY_21', 'NOTE_ON_70', 'VELOCITY_13', 'NOTE_OFF_72', 'NOTE_OFF_70', 'NOTE_ON_74', 'VELOCITY_24', 'TIME_SHIFT_110ms', 'TIME_SHIFT_10ms', 'TIME_SHIFT_110ms', 'TIME_SHIFT_10ms', 'TIME_SHIFT_80ms', 'TIME_SHIFT_10ms', 'NOTE_OFF_74', 'TIME_SHIFT_630ms', 'TIME_SHIFT_10ms', 'NOTE_ON_70', 'VELOCITY_24', 'NOTE_OFF_70', 'NOTE_ON_55', 'VELOCITY_20', 'NOTE_ON_55', 'VELOCITY_20', 'NOTE_ON_58', 'VELOCITY_18', 'NOTE_ON_51', 'VELOCITY_17', 'NOTE_OFF_54', 'NOTE_ON_62', 'VELOCITY_20', 'NOTE_ON_70', 'VELOCITY_16', 'NOTE_ON_35', 'VELOCITY_25', 'TIME_SHIFT_30ms', 'TIME_SHIFT_10ms', 'TIME_SHIFT_80ms', 'TIME_SHIFT_10ms', 'TIME_SHIFT_110ms', 'TIME_SHIFT_10ms', 'TIME_SHIFT_80ms', 'TIME_SHIFT_10ms', 'NOTE_OFF_35', 'NOTE_ON_58', 'VELOCITY_9', 'NOTE_ON_36', 'VELOCITY_14', 'NOTE_OFF_70', 'NOTE_ON_70', 'VELOCITY_9', 'NOTE_OFF_70', 'NOTE_ON_70', 'VELOCITY_24', 'TIME_SHIFT_30ms', 'TIME_SHIFT_10ms', 'TIME_SHIFT_160ms', 'TIME_SHIFT_10ms', 'TIME_SHIFT_100ms', 'NOTE_ON_70', 'VELOCITY_7', 'NOTE_OFF_70', 'NOTE_OFF_36', 'NOTE_ON_36', 'VELOCITY_14', 'NOTE_ON_70', 'VELOCITY_24', 'NOTE_ON_62', 'VELOCITY_10', 'NOTE_OFF_70', 'TIME_SHIFT_60ms', 'TIME_SHIFT_10ms', 'TIME_SHIFT_10ms', 'TIME_SHIFT_10ms', 'TIME_SHIFT_60ms', 'TIME_SHIFT_10ms', 'TIME_SHIFT_80ms', 'TIME_SHIFT_10ms', 'TIME_SHIFT_30ms', 'TIME_SHIFT_10ms', 'NOTE_OFF_62', 'TIME_SHIFT_10ms', 'TIME_SHIFT_10ms', 'NOTE_OFF_58', 'TIME_SHIFT_10ms', 'TIME_SHIFT_10ms', 'TIME_SHIFT_10ms', 'TIME_SHIFT_10ms', 'NOTE_ON_67', 'VELOCITY_18', 'NOTE_ON_51', 'VELOCITY_17', 'NOTE_OFF_70', 'NOTE_ON_70', 'VELOCITY_17', 'NOTE_OFF_36', 'NOTE_OFF_51', 'NOTE_ON_70', 'VELOCITY_24', 'NOTE_OFF_70', 'TIME_SHIFT_110ms', 'TIME_SHIFT_10ms', 'TIME_SHIFT_100ms', 'NOTE_OFF_67', 'TIME_SHIFT_30ms', 'TIME_SHIFT_10ms', 'TIME_SHIFT_60ms', 'TIME_SHIFT_10ms', 'NOTE_OFF_70', 'NOTE_ON_43', 'VELOCITY_15', 'NOTE_ON_70', 'VELOCITY_9', 'NOTE_OFF_70', 'NOTE_ON_69', 'VELOCITY_24', 'TIME_SHIFT_50ms', 'TIME_SHIFT_130ms', 'TIME_SHIFT_10ms', 'NOTE_OFF_55', 'TIME_SHIFT_30ms', 'TIME_SHIFT_10ms', 'TIME_SHIFT_100ms', 'NOTE_OFF_70', 'NOTE_OFF_69', 'NOTE_OFF_43', 'NOTE_ON_45', 'VELOCITY_14', 'NOTE_ON_70', 'VELOCITY_9', 'NOTE_ON_67', 'VELOCITY_24', 'TIME_SHIFT_60ms', 'TIME_SHIFT_10ms', 'TIME_SHIFT_10ms', 'TIME_SHIFT_10ms', 'TIME_SHIFT_60ms', 'TIME_SHIFT_10ms', 'TIME_SHIFT_80ms', 'TIME_SHIFT_10ms', 'TIME_SHIFT_60ms', 'TIME_SHIFT_10ms', 'TIME_SHIFT_10ms', 'TIME_SHIFT_10ms', 'NOTE_ON_69', 'VELOCITY_24', 'NOTE_OFF_58', 'NOTE_OFF_51', 'NOTE_ON_57', 'VELOCITY_21', 'NOTE_OFF_67', 'NOTE_OFF_55', 'NOTE_OFF_62', 'NOTE_ON_70', 'VELOCITY_13', 'NOTE_ON_51', 'VELOCITY_16', 'NOTE_OFF_45', 'NOTE_OFF_70', 'NOTE_ON_50', 'VELOCITY_20', 'NOTE_ON_65', 'VELOCITY_17', 'NOTE_ON_62', 'VELOCITY_21', 'TIME_SHIFT_60ms', 'TIME_SHIFT_10ms', 'TIME_SHIFT_50ms', 'TIME_SHIFT_110ms', 'TIME_SHIFT_10ms', 'TIME_SHIFT_80ms', 'TIME_SHIFT_10ms', 'NOTE_OFF_70', 'NOTE_ON_57', 'VELOCITY_9', 'NOTE_ON_70', 'VELOCITY_10', 'NOTE_ON_67', 'VELOCITY_24', 'NOTE_OFF_69', 'TIME_SHIFT_50ms', 'TIME_SHIFT_60ms', 'TIME_SHIFT_10ms', 'TIME_SHIFT_60ms', 'TIME_SHIFT_10ms', 'TIME_SHIFT_60ms', 'TIME_SHIFT_10ms', 'TIME_SHIFT_60ms', 'TIME_SHIFT_10ms', 'NOTE_ON_70', 'VELOCITY_8', 'NOTE_ON_65', 'VELOCITY_19', 'NOTE_ON_65', 'VELOCITY_24', 'NOTE_OFF_70', 'NOTE_OFF_67', 'TIME_SHIFT_10ms', 'TIME_SHIFT_10ms', 'TIME_SHIFT_60ms', 'TIME_SHIFT_10ms', 'TIME_SHIFT_30ms', 'TIME_SHIFT_10ms', 'NOTE_OFF_57', 'TIME_SHIFT_10ms', 'TIME_SHIFT_10ms', 'TIME_SHIFT_50ms', 'TIME_SHIFT_30ms', 'TIME_SHIFT_10ms', 'TIME_SHIFT_50ms', 'TIME_SHIFT_50ms', 'NOTE_OFF_51', 'NOTE_ON_69', 'VELOCITY_24', 'NOTE_OFF_70', 'NOTE_ON_51', 'VELOCITY_18', 'NOTE_ON_54', 'VELOCITY_18', 'NOTE_ON_70', 'VELOCITY_15', 'NOTE_OFF_65', 'TIME_SHIFT_60ms', 'TIME_SHIFT_10ms', 'TIME_SHIFT_80ms', 'TIME_SHIFT_10ms', 'TIME_SHIFT_60ms', 'TIME_SHIFT_10ms', 'TIME_SHIFT_100ms', 'NOTE_OFF_69', 'NOTE_OFF_50', 'NOTE_ON_70', 'VELOCITY_9', 'NOTE_OFF_65', 'NOTE_OFF_70', 'TIME_SHIFT_150ms', 'NOTE_ON_70', 'VELOCITY_8', 'NOTE_OFF_70', 'TIME_SHIFT_130ms', 'TIME_SHIFT_10ms', 'TIME_SHIFT_30ms', 'TIME_SHIFT_10ms', 'NOTE_ON_70', 'VELOCITY_10', 'NOTE_ON_69', 'VELOCITY_24', 'NOTE_OFF_70', 'TIME_SHIFT_50ms', 'TIME_SHIFT_50ms', 'TIME_SHIFT_10ms', 'TIME_SHIFT_10ms', 'NOTE_OFF_69', 'TIME_SHIFT_30ms', 'TIME_SHIFT_10ms', 'NOTE_ON_70', 'VELOCITY_13', 'NOTE_OFF_70', 'TIME_SHIFT_30ms', 'TIME_SHIFT_10ms', 'TIME_SHIFT_130ms', 'TIME_SHIFT_10ms', 'NOTE_OFF_70', 'NOTE_ON_67', 'VELOCITY_24', 'NOTE_ON_46', 'VELOCITY_17', 'NOTE_OFF_54', 'NOTE_OFF_57', 'NOTE_ON_58', 'VELOCITY_17', 'NOTE_ON_62', 'VELOCITY_19', 'NOTE_ON_70', 'VELOCITY_16', 'NOTE_ON_35', 'VELOCITY_25', 'NOTE_OFF_51', 'NOTE_ON_55', 'VELOCITY_20', 'NOTE_ON_51', 'VELOCITY_17', 'NOTE_OFF_65', 'NOTE_OFF_62', 'TIME_SHIFT_110ms', 'TIME_SHIFT_10ms', 'TIME_SHIFT_110ms', 'TIME_SHIFT_10ms', 'TIME_SHIFT_80ms', 'TIME_SHIFT_10ms', 'NOTE_OFF_70', 'NOTE_ON_67', 'VELOCITY_24', 'NOTE_OFF_35', 'NOTE_OFF_67', 'NOTE_ON_58', 'VELOCITY_9', 'NOTE_ON_70', 'VELOCITY_9', 'NOTE_ON_36', 'VELOCITY_14', 'TIME_SHIFT_30ms', 'TIME_SHIFT_10ms', 'TIME_SHIFT_110ms', 'TIME_SHIFT_10ms', 'TIME_SHIFT_110ms', 'TIME_SHIFT_10ms', 'TIME_SHIFT_50ms', 'NOTE_ON_36', 'VELOCITY_14', 'NOTE_OFF_70', 'NOTE_OFF_36', 'NOTE_ON_62', 'VELOCITY_15', 'NOTE_OFF_67', 'NOTE_ON_70', 'VELOCITY_7', 'NOTE_ON_67', 'VELOCITY_24', 'TIME_SHIFT_60ms', 'TIME_SHIFT_10ms', 'TIME_SHIFT_30ms', 'TIME_SHIFT_10ms', 'NOTE_OFF_62', 'TIME_SHIFT_50ms', 'TIME_SHIFT_60ms', 'TIME_SHIFT_10ms', 'TIME_SHIFT_60ms', 'TIME_SHIFT_10ms', 'NOTE_OFF_58', 'TIME_SHIFT_30ms', 'TIME_SHIFT_10ms', 'NOTE_OFF_70', 'NOTE_ON_70', 'VELOCITY_17', 'NOTE_OFF_36', 'NOTE_OFF_67', 'NOTE_ON_67', 'VELOCITY_24', 'NOTE_ON_67', 'VELOCITY_18', 'NOTE_ON_51', 'VELOCITY_17', 'NOTE_OFF_51', 'TIME_SHIFT_110ms', 'TIME_SHIFT_10ms', 'TIME_SHIFT_110ms', 'TIME_SHIFT_10ms', 'TIME_SHIFT_80ms', 'TIME_SHIFT_10ms', 'NOTE_ON_70', 'VELOCITY_9', 'NOTE_ON_43', 'VELOCITY_15', 'NOTE_ON_65', 'VELOCITY_24', 'NOTE_OFF_67', 'NOTE_OFF_70', 'TIME_SHIFT_30ms', 'TIME_SHIFT_10ms', 'TIME_SHIFT_50ms', 'NOTE_OFF_46', 'NOTE_OFF_67', 'TIME_SHIFT_10ms', 'TIME_SHIFT_10ms', 'TIME_SHIFT_60ms', 'TIME_SHIFT_10ms', 'TIME_SHIFT_80ms', 'TIME_SHIFT_10ms', 'TIME_SHIFT_60ms', 'TIME_SHIFT_10ms', 'NOTE_OFF_65', 'NOTE_OFF_70', 'NOTE_ON_70', 'VELOCITY_9', 'NOTE_ON_45', 'VELOCITY_14', 'NOTE_OFF_43', 'NOTE_ON_67', 'VELOCITY_24', 'TIME_SHIFT_60ms', 'TIME_SHIFT_10ms', 'TIME_SHIFT_80ms', 'TIME_SHIFT_10ms', 'TIME_SHIFT_50ms', 'TIME_SHIFT_10ms', 'TIME_SHIFT_10ms', 'TIME_SHIFT_60ms', 'TIME_SHIFT_10ms', 'TIME_SHIFT_10ms', 'TIME_SHIFT_10ms', 'NOTE_ON_70', 'VELOCITY_13', 'NOTE_OFF_45', 'NOTE_ON_57', 'VELOCITY_17', 'NOTE_OFF_62', 'NOTE_OFF_70', 'NOTE_ON_64', 'VELOCITY_19', 'NOTE_OFF_67', 'NOTE_ON_45', 'VELOCITY_20', 'NOTE_OFF_55', 'NOTE_ON_51', 'VELOCITY_16', 'NOTE_OFF_58', 'NOTE_ON_69', 'VELOCITY_24', 'NOTE_ON_61', 'VELOCITY_15', 'NOTE_OFF_51', 'TIME_SHIFT_50ms', 'TIME_SHIFT_80ms', 'TIME_SHIFT_10ms', 'TIME_SHIFT_110ms', 'TIME_SHIFT_10ms', 'TIME_SHIFT_60ms', 'TIME_SHIFT_10ms', 'NOTE_OFF_69', 'NOTE_ON_67', 'VELOCITY_24', 'NOTE_ON_35', 'VELOCITY_25', 'NOTE_ON_67', 'VELOCITY_26', 'NOTE_ON_31', 'VELOCITY_23', 'NOTE_ON_55', 'VELOCITY_18', 'NOTE_ON_55', 'VELOCITY_25', 'NOTE_ON_60', 'VELOCITY_22', 'NOTE_ON_67', 'VELOCITY_29', 'NOTE_OFF_70', 'NOTE_ON_52', 'VELOCITY_12', 'NOTE_ON_38', 'VELOCITY_21', 'NOTE_ON_55', 'VELOCITY_24', 'TIME_SHIFT_50ms', 'TIME_SHIFT_60ms', 'TIME_SHIFT_10ms', 'NOTE_OFF_55', 'TIME_SHIFT_30ms', 'TIME_SHIFT_10ms', 'NOTE_OFF_67', 'TIME_SHIFT_60ms', 'TIME_SHIFT_10ms', 'NOTE_OFF_31', 'TIME_SHIFT_50ms', 'NOTE_OFF_55', 'TIME_SHIFT_10ms', 'TIME_SHIFT_10ms', 'NOTE_OFF_67', 'TIME_SHIFT_30ms', 'TIME_SHIFT_10ms', 'NOTE_ON_57', 'VELOCITY_25', 'NOTE_ON_69', 'VELOCITY_29', 'NOTE_ON_57', 'VELOCITY_14', 'NOTE_ON_35', 'VELOCITY_25', 'NOTE_ON_38', 'VELOCITY_22', 'NOTE_ON_55', 'VELOCITY_20', 'NOTE_ON_57', 'VELOCITY_29', 'NOTE_ON_69', 'VELOCITY_28', 'NOTE_OFF_67', 'NOTE_OFF_38', 'NOTE_ON_33', 'VELOCITY_23', 'NOTE_OFF_55', 'NOTE_ON_57', 'VELOCITY_23', 'NOTE_OFF_60', 'NOTE_OFF_35', 'NOTE_ON_69', 'VELOCITY_24', 'TIME_SHIFT_60ms', 'TIME_SHIFT_10ms', 'TIME_SHIFT_10ms', 'TIME_SHIFT_10ms', 'TIME_SHIFT_50ms', 'NOTE_OFF_69', 'TIME_SHIFT_10ms', 'TIME_SHIFT_10ms', 'NOTE_OFF_57', 'TIME_SHIFT_30ms', 'TIME_SHIFT_10ms', 'NOTE_OFF_33', 'TIME_SHIFT_10ms', 'TIME_SHIFT_10ms', 'NOTE_OFF_57', 'TIME_SHIFT_30ms', 'TIME_SHIFT_10ms', 'NOTE_OFF_69', 'TIME_SHIFT_60ms', 'TIME_SHIFT_10ms', 'TIME_SHIFT_10ms', 'TIME_SHIFT_10ms', 'NOTE_OFF_69', 'NOTE_OFF_51', 'NOTE_ON_55', 'VELOCITY_25', 'NOTE_ON_69', 'VELOCITY_24', 'NOTE_ON_69', 'VELOCITY_30', 'NOTE_ON_38', 'VELOCITY_29', 'NOTE_ON_35', 'VELOCITY_26', 'NOTE_ON_64', 'VELOCITY_20', 'NOTE_OFF_38', 'NOTE_ON_33', 'VELOCITY_24', 'NOTE_ON_57', 'VELOCITY_29', 'NOTE_ON_57', 'VELOCITY_21', 'NOTE_OFF_55', 'NOTE_OFF_35', 'NOTE_ON_69', 'VELOCITY_28', 'NOTE_OFF_57', 'TIME_SHIFT_80ms', 'TIME_SHIFT_10ms', 'NOTE_OFF_57', 'TIME_SHIFT_50ms', 'NOTE_OFF_69', 'NOTE_OFF_57', 'TIME_SHIFT_30ms', 'TIME_SHIFT_10ms', 'TIME_SHIFT_30ms', 'TIME_SHIFT_10ms', 'NOTE_OFF_69', 'TIME_SHIFT_30ms', 'TIME_SHIFT_10ms', 'NOTE_OFF_57', 'TIME_SHIFT_10ms', 'TIME_SHIFT_10ms', 'NOTE_OFF_33', 'TIME_SHIFT_60ms', 'TIME_SHIFT_10ms', 'NOTE_OFF_55', 'NOTE_ON_59', 'VELOCITY_30', 'NOTE_OFF_69', 'NOTE_OFF_35', 'NOTE_OFF_38', 'NOTE_ON_61', 'VELOCITY_17', 'TIME_SHIFT_50ms', 'NOTE_OFF_64', 'TIME_SHIFT_110ms', 'TIME_SHIFT_10ms', 'NOTE_ON_57', 'VELOCITY_20', 'NOTE_OFF_59', 'TIME_SHIFT_100ms', 'NOTE_OFF_61', 'TIME_SHIFT_10ms', 'TIME_SHIFT_10ms', 'NOTE_OFF_45', 'TIME_SHIFT_10ms', 'TIME_SHIFT_10ms', 'NOTE_OFF_52', 'TIME_SHIFT_10ms', 'TIME_SHIFT_10ms', 'NOTE_ON_55', 'VELOCITY_28', 'NOTE_ON_57', 'VELOCITY_18', 'NOTE_OFF_57', 'TIME_SHIFT_80ms', 'TIME_SHIFT_10ms', 'NOTE_OFF_57', 'TIME_SHIFT_80ms', 'TIME_SHIFT_10ms', 'NOTE_ON_53', 'VELOCITY_31', 'NOTE_OFF_55', 'TIME_SHIFT_60ms', 'TIME_SHIFT_10ms', 'TIME_SHIFT_80ms', 'TIME_SHIFT_10ms', 'NOTE_ON_46', 'VELOCITY_21', 'NOTE_ON_34', 'VELOCITY_24', 'NOTE_ON_77', 'VELOCITY_24', 'NOTE_ON_65', 'VELOCITY_22', 'NOTE_ON_58', 'VELOCITY_21', 'NOTE_ON_62', 'VELOCITY_24', 'NOTE_OFF_64', 'NOTE_ON_35', 'VELOCITY_25', 'NOTE_ON_60', 'VELOCITY_21', 'NOTE_ON_38', 'VELOCITY_25', 'NOTE_ON_42', 'VELOCITY_25', 'NOTE_ON_74', 'VELOCITY_24', 'NOTE_ON_35', 'VELOCITY_25', 'NOTE_ON_62', 'VELOCITY_22', 'NOTE_ON_77', 'VELOCITY_22', 'NOTE_OFF_61', 'NOTE_ON_65', 'VELOCITY_20', 'NOTE_ON_57', 'VELOCITY_20', 'NOTE_ON_70', 'VELOCITY_23', 'NOTE_OFF_53', 'NOTE_OFF_57', 'TIME_SHIFT_60ms', 'TIME_SHIFT_10ms', 'NOTE_OFF_62', 'TIME_SHIFT_10ms', 'TIME_SHIFT_10ms', 'NOTE_OFF_62', 'NOTE_OFF_74', 'NOTE_OFF_70', 'NOTE_OFF_58', 'TIME_SHIFT_10ms', 'TIME_SHIFT_10ms', 'NOTE_OFF_77', 'NOTE_OFF_34', 'NOTE_OFF_60', 'NOTE_OFF_65', 'TIME_SHIFT_10ms', 'TIME_SHIFT_10ms', 'NOTE_OFF_65', 'TIME_SHIFT_30ms', 'TIME_SHIFT_10ms', 'NOTE_OFF_46', 'TIME_SHIFT_80ms', 'TIME_SHIFT_10ms', 'TIME_SHIFT_80ms', 'TIME_SHIFT_10ms', 'NOTE_ON_74', 'VELOCITY_23', 'NOTE_ON_58', 'VELOCITY_16', 'NOTE_ON_70', 'VELOCITY_21', 'NOTE_ON_65', 'VELOCITY_19', 'NOTE_ON_62', 'VELOCITY_20', 'NOTE_ON_35', 'VELOCITY_25', 'NOTE_ON_77', 'VELOCITY_22', 'NOTE_ON_62', 'VELOCITY_20', 'NOTE_ON_38', 'VELOCITY_17', 'NOTE_ON_65', 'VELOCITY_20', 'NOTE_ON_60', 'VELOCITY_16', 'NOTE_ON_46', 'VELOCITY_17', 'NOTE_ON_34', 'VELOCITY_23', 'NOTE_OFF_38', 'NOTE_ON_77', 'VELOCITY_24', 'NOTE_OFF_42', 'NOTE_OFF_77', 'NOTE_OFF_35', 'TIME_SHIFT_30ms', 'TIME_SHIFT_10ms', 'TIME_SHIFT_60ms', 'TIME_SHIFT_10ms', 'NOTE_OFF_62', 'NOTE_OFF_62', 'NOTE_OFF_60', 'NOTE_OFF_70', 'NOTE_OFF_74', 'NOTE_OFF_77', 'NOTE_OFF_58', 'NOTE_OFF_34', 'TIME_SHIFT_10ms', 'TIME_SHIFT_10ms', 'NOTE_OFF_65', 'NOTE_OFF_65', 'TIME_SHIFT_30ms', 'TIME_SHIFT_10ms', 'NOTE_OFF_46', 'TIME_SHIFT_10ms', 'TIME_SHIFT_10ms', 'TIME_SHIFT_110ms', 'TIME_SHIFT_10ms', 'TIME_SHIFT_30ms', 'TIME_SHIFT_10ms', 'NOTE_ON_46', 'VELOCITY_19', 'NOTE_ON_65', 'VELOCITY_20', 'NOTE_ON_34', 'VELOCITY_24', 'NOTE_OFF_38', 'NOTE_ON_77', 'VELOCITY_23', 'NOTE_ON_70', 'VELOCITY_25', 'NOTE_ON_74', 'VELOCITY_23', 'NOTE_ON_38', 'VELOCITY_20', 'NOTE_ON_58', 'VELOCITY_17', 'NOTE_OFF_77', 'NOTE_ON_65', 'VELOCITY_19', 'NOTE_ON_35', 'VELOCITY_25', 'NOTE_ON_62', 'VELOCITY_20', 'NOTE_ON_62', 'VELOCITY_21', 'NOTE_OFF_35', 'NOTE_ON_77', 'VELOCITY_24', 'NOTE_ON_60', 'VELOCITY_16', 'TIME_SHIFT_80ms', 'TIME_SHIFT_10ms', 'NOTE_OFF_58', 'NOTE_OFF_62', 'TIME_SHIFT_10ms', 'TIME_SHIFT_10ms', 'NOTE_OFF_65', 'NOTE_OFF_70', 'NOTE_OFF_34', 'NOTE_OFF_74', 'TIME_SHIFT_30ms', 'TIME_SHIFT_10ms', 'NOTE_OFF_60', 'NOTE_OFF_77', 'TIME_SHIFT_10ms', 'TIME_SHIFT_10ms', 'NOTE_OFF_62', 'NOTE_OFF_46', 'NOTE_OFF_65', 'TIME_SHIFT_50ms', 'TIME_SHIFT_110ms', 'TIME_SHIFT_10ms', 'NOTE_ON_77', 'VELOCITY_24', 'NOTE_OFF_38', 'NOTE_ON_34', 'VELOCITY_24', 'NOTE_OFF_77', 'NOTE_ON_46', 'VELOCITY_18', 'NOTE_OFF_35', 'NOTE_ON_70', 'VELOCITY_27', 'NOTE_ON_62', 'VELOCITY_20', 'NOTE_ON_65', 'VELOCITY_18', 'NOTE_ON_65', 'VELOCITY_22', 'NOTE_ON_74', 'VELOCITY_24', 'NOTE_ON_60', 'VELOCITY_17', 'NOTE_ON_35', 'VELOCITY_25', 'NOTE_ON_77', 'VELOCITY_25', 'NOTE_ON_62', 'VELOCITY_22', 'NOTE_OFF_57', 'NOTE_ON_38', 'VELOCITY_25', 'NOTE_ON_58', 'VELOCITY_23', 'TIME_SHIFT_100ms', 'NOTE_OFF_58', 'NOTE_OFF_74', 'NOTE_OFF_62', 'TIME_SHIFT_10ms', 'TIME_SHIFT_10ms', 'NOTE_OFF_34', 'NOTE_OFF_70', 'NOTE_OFF_65', 'TIME_SHIFT_10ms', 'TIME_SHIFT_10ms', 'NOTE_OFF_60', 'NOTE_OFF_62', 'TIME_SHIFT_10ms', 'TIME_SHIFT_10ms', 'NOTE_OFF_77', 'TIME_SHIFT_10ms', 'TIME_SHIFT_10ms', 'NOTE_OFF_65', 'TIME_SHIFT_10ms', 'TIME_SHIFT_10ms', 'NOTE_OFF_46', 'TIME_SHIFT_50ms', 'TIME_SHIFT_80ms', 'TIME_SHIFT_10ms', 'NOTE_OFF_35', 'NOTE_ON_74', 'VELOCITY_24', 'NOTE_OFF_38', 'NOTE_OFF_77', 'TIME_SHIFT_30ms', 'TIME_SHIFT_10ms', 'TIME_SHIFT_60ms', 'TIME_SHIFT_10ms', 'TIME_SHIFT_80ms', 'TIME_SHIFT_10ms', 'TIME_SHIFT_60ms', 'TIME_SHIFT_10ms', 'TIME_SHIFT_60ms', 'TIME_SHIFT_10ms', 'NOTE_OFF_74', 'NOTE_ON_38', 'VELOCITY_22', 'NOTE_ON_74', 'VELOCITY_24', 'TIME_SHIFT_80ms', 'TIME_SHIFT_10ms', 'TIME_SHIFT_110ms', 'TIME_SHIFT_10ms', 'TIME_SHIFT_110ms', 'TIME_SHIFT_10ms', 'NOTE_ON_72', 'VELOCITY_23', 'NOTE_ON_76', 'VELOCITY_24', 'NOTE_ON_60', 'VELOCITY_17', 'NOTE_ON_38', 'VELOCITY_23', 'NOTE_ON_69', 'VELOCITY_24', 'NOTE_ON_67', 'VELOCITY_22', 'NOTE_ON_64', 'VELOCITY_22', 'NOTE_OFF_38', 'NOTE_ON_60', 'VELOCITY_22', 'NOTE_ON_35', 'VELOCITY_25', 'NOTE_ON_57', 'VELOCITY_22', 'NOTE_ON_76', 'VELOCITY_24', 'NOTE_ON_55', 'VELOCITY_20', 'NOTE_ON_33', 'VELOCITY_24', 'NOTE_OFF_74', 'NOTE_ON_64', 'VELOCITY_21', 'NOTE_ON_45', 'VELOCITY_21', 'TIME_SHIFT_60ms', 'TIME_SHIFT_10ms', 'NOTE_OFF_60', 'NOTE_OFF_69', 'TIME_SHIFT_10ms', 'TIME_SHIFT_10ms', 'NOTE_OFF_72', 'NOTE_OFF_57', 'NOTE_OFF_64', 'TIME_SHIFT_30ms', 'TIME_SHIFT_10ms', 'NOTE_OFF_76', 'NOTE_OFF_55', 'TIME_SHIFT_10ms', 'TIME_SHIFT_10ms', 'NOTE_OFF_67', 'NOTE_OFF_64', 'NOTE_OFF_60', 'TIME_SHIFT_10ms', 'TIME_SHIFT_10ms', 'NOTE_OFF_45', 'TIME_SHIFT_30ms', 'TIME_SHIFT_10ms', 'NOTE_OFF_33', 'TIME_SHIFT_30ms', 'TIME_SHIFT_10ms', 'TIME_SHIFT_60ms', 'TIME_SHIFT_10ms', 'TIME_SHIFT_30ms', 'TIME_SHIFT_10ms', 'NOTE_ON_69', 'VELOCITY_23', 'NOTE_ON_64', 'VELOCITY_22', 'NOTE_ON_76', 'VELOCITY_23', 'NOTE_ON_72', 'VELOCITY_20', 'NOTE_ON_60', 'VELOCITY_20', 'NOTE_ON_60', 'VELOCITY_18', 'NOTE_ON_57', 'VELOCITY_20', 'NOTE_ON_33', 'VELOCITY_23', 'NOTE_ON_35', 'VELOCITY_25', 'NOTE_ON_76', 'VELOCITY_24', 'NOTE_ON_38', 'VELOCITY_20', 'NOTE_ON_55', 'VELOCITY_16', 'NOTE_ON_45', 'VELOCITY_19', 'NOTE_OFF_38', 'NOTE_ON_67', 'VELOCITY_21', 'NOTE_ON_64', 'VELOCITY_22', 'NOTE_OFF_35', 'NOTE_OFF_76', 'TIME_SHIFT_30ms', 'TIME_SHIFT_10ms', 'TIME_SHIFT_50ms', 'NOTE_OFF_57', 'NOTE_OFF_60', 'NOTE_OFF_72', 'NOTE_OFF_69', 'TIME_SHIFT_10ms', 'TIME_SHIFT_10ms', 'NOTE_OFF_60', 'NOTE_OFF_64', 'NOTE_OFF_33', 'NOTE_OFF_76', 'NOTE_OFF_67', 'NOTE_OFF_55', 'TIME_SHIFT_10ms', 'TIME_SHIFT_10ms', 'NOTE_OFF_45', 'NOTE_OFF_64', 'TIME_SHIFT_30ms', 'TIME_SHIFT_10ms', 'TIME_SHIFT_110ms', 'TIME_SHIFT_10ms', 'TIME_SHIFT_50ms', 'NOTE_ON_60', 'VELOCITY_20', 'NOTE_ON_64', 'VELOCITY_21', 'NOTE_ON_57', 'VELOCITY_21', 'NOTE_ON_72', 'VELOCITY_22', 'NOTE_ON_55', 'VELOCITY_15', 'NOTE_ON_38', 'VELOCITY_24', 'NOTE_OFF_76', 'NOTE_ON_35', 'VELOCITY_25', 'NOTE_ON_67', 'VELOCITY_20', 'NOTE_ON_69', 'VELOCITY_24', 'NOTE_OFF_35', 'NOTE_OFF_38', 'NOTE_ON_76', 'VELOCITY_24', 'NOTE_ON_33', 'VELOCITY_22', 'NOTE_ON_60', 'VELOCITY_16', 'NOTE_ON_76', 'VELOCITY_24', 'NOTE_ON_45', 'VELOCITY_18', 'NOTE_ON_64', 'VELOCITY_20', 'TIME_SHIFT_60ms', 'TIME_SHIFT_10ms', 'TIME_SHIFT_10ms', 'TIME_SHIFT_10ms', 'NOTE_OFF_57', 'NOTE_OFF_60', 'NOTE_OFF_72', 'NOTE_OFF_69', 'TIME_SHIFT_10ms', 'TIME_SHIFT_10ms', 'NOTE_OFF_76', 'NOTE_OFF_64', 'TIME_SHIFT_10ms', 'TIME_SHIFT_10ms', 'NOTE_OFF_33', 'TIME_SHIFT_10ms', 'TIME_SHIFT_10ms', 'NOTE_OFF_55', 'NOTE_OFF_60', 'NOTE_OFF_45', 'TIME_SHIFT_10ms', 'TIME_SHIFT_10ms', 'NOTE_OFF_64', 'NOTE_OFF_67', 'TIME_SHIFT_10ms', 'TIME_SHIFT_10ms', 'TIME_SHIFT_50ms', 'TIME_SHIFT_50ms', 'TIME_SHIFT_50ms', 'NOTE_ON_38', 'VELOCITY_22', 'NOTE_ON_35', 'VELOCITY_26', 'NOTE_ON_57', 'VELOCITY_22', 'NOTE_ON_60', 'VELOCITY_22', 'NOTE_ON_64', 'VELOCITY_22', 'NOTE_ON_72', 'VELOCITY_23', 'NOTE_ON_69', 'VELOCITY_28', 'NOTE_ON_76', 'VELOCITY_28', 'NOTE_ON_60', 'VELOCITY_19', 'NOTE_ON_67', 'VELOCITY_22', 'NOTE_OFF_76', 'NOTE_ON_64', 'VELOCITY_22', 'NOTE_ON_55', 'VELOCITY_21', 'NOTE_ON_33', 'VELOCITY_24', 'NOTE_ON_72', 'VELOCITY_24', 'NOTE_OFF_35', 'NOTE_OFF_38', 'NOTE_ON_45', 'VELOCITY_24', 'TIME_SHIFT_100ms', 'NOTE_OFF_60', 'NOTE_OFF_72', 'NOTE_OFF_64', 'TIME_SHIFT_10ms', 'TIME_SHIFT_10ms', 'NOTE_OFF_57', 'NOTE_OFF_69', 'TIME_SHIFT_30ms', 'TIME_SHIFT_10ms', 'NOTE_OFF_64', 'NOTE_OFF_60', 'NOTE_OFF_55', 'NOTE_OFF_76', 'TIME_SHIFT_10ms', 'TIME_SHIFT_10ms', 'NOTE_OFF_45', 'TIME_SHIFT_10ms', 'TIME_SHIFT_10ms', 'NOTE_OFF_67', 'TIME_SHIFT_10ms', 'TIME_SHIFT_10ms', 'NOTE_OFF_33', 'TIME_SHIFT_30ms', 'TIME_SHIFT_10ms', 'TIME_SHIFT_60ms', 'TIME_SHIFT_10ms', 'NOTE_OFF_38', 'NOTE_OFF_35', 'NOTE_OFF_72', 'TIME_SHIFT_280ms', 'TIME_SHIFT_10ms', 'TIME_SHIFT_30ms', 'TIME_SHIFT_10ms', 'NOTE_ON_67', 'VELOCITY_24', 'TIME_SHIFT_10ms', 'TIME_SHIFT_10ms', 'TIME_SHIFT_50ms', 'TIME_SHIFT_50ms', 'TIME_SHIFT_10ms', 'TIME_SHIFT_10ms', 'NOTE_OFF_67', 'TIME_SHIFT_10ms', 'TIME_SHIFT_10ms', 'TIME_SHIFT_160ms', 'TIME_SHIFT_10ms', 'NOTE_ON_74', 'VELOCITY_13', 'NOTE_ON_72', 'VELOCITY_20', 'NOTE_ON_76', 'VELOCITY_23', 'NOTE_ON_64', 'VELOCITY_23', 'NOTE_ON_64', 'VELOCITY_24', 'NOTE_ON_72', 'VELOCITY_24', 'NOTE_ON_36', 'VELOCITY_23', 'NOTE_ON_60', 'VELOCITY_19', 'NOTE_ON_76', 'VELOCITY_24', 'NOTE_ON_55', 'VELOCITY_22', 'NOTE_ON_76', 'VELOCITY_20', 'NOTE_ON_67', 'VELOCITY_16', 'NOTE_ON_38', 'VELOCITY_18', 'NOTE_ON_67', 'VELOCITY_24', 'NOTE_ON_48', 'VELOCITY_19', 'NOTE_ON_55', 'VELOCITY_23', 'NOTE_ON_57', 'VELOCITY_20', 'NOTE_ON_60', 'VELOCITY_22', 'NOTE_ON_35', 'VELOCITY_24', 'TIME_SHIFT_10ms', 'TIME_SHIFT_10ms', 'NOTE_OFF_74', 'NOTE_OFF_76', 'NOTE_OFF_72', 'NOTE_OFF_67', 'TIME_SHIFT_60ms', 'TIME_SHIFT_10ms', 'NOTE_OFF_55', 'NOTE_OFF_64', 'NOTE_OFF_60', 'NOTE_OFF_72', 'NOTE_OFF_48', 'NOTE_OFF_67', 'NOTE_OFF_76', 'TIME_SHIFT_10ms', 'TIME_SHIFT_10ms', 'NOTE_OFF_60', 'NOTE_OFF_64', 'TIME_SHIFT_10ms', 'TIME_SHIFT_10ms', 'NOTE_OFF_55', 'TIME_SHIFT_10ms', 'TIME_SHIFT_10ms', 'NOTE_OFF_36', 'TIME_SHIFT_110ms', 'TIME_SHIFT_10ms', 'TIME_SHIFT_60ms', 'TIME_SHIFT_10ms', 'NOTE_ON_67', 'VELOCITY_21', 'NOTE_OFF_38', 'NOTE_ON_36', 'VELOCITY_22', 'NOTE_ON_76', 'VELOCITY_24', 'NOTE_ON_64', 'VELOCITY_22', 'NOTE_ON_76', 'VELOCITY_21', 'NOTE_ON_55', 'VELOCITY_22', 'NOTE_ON_60', 'VELOCITY_20', 'NOTE_OFF_57', 'NOTE_ON_48', 'VELOCITY_18', 'NOTE_ON_57', 'VELOCITY_20', 'NOTE_OFF_35', 'NOTE_ON_35', 'VELOCITY_25', 'NOTE_OFF_76', 'NOTE_ON_38', 'VELOCITY_19', 'NOTE_ON_64', 'VELOCITY_23', 'NOTE_ON_55', 'VELOCITY_22', 'NOTE_ON_60', 'VELOCITY_21', 'NOTE_ON_72', 'VELOCITY_22', 'TIME_SHIFT_50ms', 'TIME_SHIFT_30ms', 'TIME_SHIFT_10ms', 'NOTE_OFF_48', 'TIME_SHIFT_10ms', 'TIME_SHIFT_10ms', 'NOTE_OFF_55', 'NOTE_OFF_64', 'NOTE_OFF_60', 'NOTE_OFF_76', 'NOTE_OFF_67', 'NOTE_OFF_60', 'NOTE_OFF_55', 'NOTE_OFF_72', 'NOTE_OFF_64', 'TIME_SHIFT_10ms', 'TIME_SHIFT_10ms', 'NOTE_OFF_36', 'TIME_SHIFT_30ms', 'TIME_SHIFT_10ms', 'NOTE_OFF_35', 'TIME_SHIFT_60ms', 'TIME_SHIFT_10ms', 'TIME_SHIFT_100ms', 'NOTE_ON_60', 'VELOCITY_21', 'NOTE_ON_64', 'VELOCITY_23', 'NOTE_ON_67', 'VELOCITY_24', 'NOTE_ON_36', 'VELOCITY_22', 'NOTE_ON_72', 'VELOCITY_23', 'NOTE_ON_60', 'VELOCITY_22', 'NOTE_ON_55', 'VELOCITY_23', 'NOTE_ON_64', 'VELOCITY_23', 'NOTE_ON_48', 'VELOCITY_19', 'NOTE_ON_35', 'VELOCITY_24', 'NOTE_ON_57', 'VELOCITY_22', 'NOTE_ON_76', 'VELOCITY_22', 'NOTE_ON_38', 'VELOCITY_17', 'NOTE_ON_55', 'VELOCITY_22', 'NOTE_ON_76', 'VELOCITY_24', 'NOTE_OFF_76', 'NOTE_OFF_35', 'NOTE_OFF_38', 'NOTE_OFF_57', 'TIME_SHIFT_60ms', 'TIME_SHIFT_10ms', 'TIME_SHIFT_10ms', 'TIME_SHIFT_10ms', 'NOTE_OFF_60', 'NOTE_OFF_48', 'TIME_SHIFT_10ms', 'TIME_SHIFT_10ms', 'NOTE_OFF_60', 'NOTE_OFF_72', 'NOTE_OFF_67', 'NOTE_OFF_76', 'NOTE_OFF_55', 'TIME_SHIFT_10ms', 'TIME_SHIFT_10ms', 'NOTE_OFF_64', 'NOTE_OFF_55', 'NOTE_OFF_36', 'NOTE_OFF_64', 'TIME_SHIFT_30ms', 'TIME_SHIFT_10ms', 'TIME_SHIFT_80ms', 'TIME_SHIFT_10ms', 'TIME_SHIFT_60ms', 'TIME_SHIFT_10ms', 'TIME_SHIFT_10ms', 'TIME_SHIFT_10ms', 'NOTE_OFF_57', 'NOTE_ON_48', 'VELOCITY_18', 'NOTE_OFF_76', 'NOTE_ON_76', 'VELOCITY_24', 'NOTE_ON_76', 'VELOCITY_22', 'NOTE_ON_36', 'VELOCITY_23', 'NOTE_ON_72', 'VELOCITY_24', 'NOTE_OFF_38', 'NOTE_ON_67', 'VELOCITY_25', 'NOTE_OFF_35', 'NOTE_ON_64', 'VELOCITY_23', 'NOTE_ON_64', 'VELOCITY_24', 'NOTE_ON_60', 'VELOCITY_22', 'NOTE_ON_55', 'VELOCITY_22', 'NOTE_ON_55', 'VELOCITY_24', 'NOTE_ON_60', 'VELOCITY_21', 'NOTE_ON_35', 'VELOCITY_25', 'NOTE_ON_57', 'VELOCITY_22', 'NOTE_ON_38', 'VELOCITY_22', 'TIME_SHIFT_110ms', 'TIME_SHIFT_10ms', 'NOTE_OFF_72', 'NOTE_OFF_64', 'NOTE_OFF_76', 'NOTE_OFF_60', 'NOTE_OFF_64', 'NOTE_OFF_55', 'NOTE_OFF_67', 'NOTE_OFF_60', 'TIME_SHIFT_10ms', 'TIME_SHIFT_10ms', 'NOTE_OFF_55', 'TIME_SHIFT_10ms', 'TIME_SHIFT_10ms', 'NOTE_OFF_48', 'TIME_SHIFT_80ms', 'TIME_SHIFT_10ms', 'NOTE_OFF_36', 'TIME_SHIFT_80ms', 'TIME_SHIFT_10ms', 'NOTE_OFF_76', 'NOTE_ON_77', 'VELOCITY_24', 'NOTE_OFF_35', 'NOTE_OFF_38', 'NOTE_OFF_57', 'TIME_SHIFT_30ms', 'TIME_SHIFT_10ms', 'TIME_SHIFT_160ms', 'TIME_SHIFT_10ms', 'TIME_SHIFT_110ms', 'TIME_SHIFT_10ms', 'NOTE_ON_79', 'VELOCITY_24', 'NOTE_OFF_77', 'TIME_SHIFT_50ms', 'TIME_SHIFT_30ms', 'TIME_SHIFT_10ms', 'TIME_SHIFT_60ms', 'TIME_SHIFT_10ms', 'TIME_SHIFT_60ms', 'TIME_SHIFT_10ms', 'TIME_SHIFT_80ms', 'TIME_SHIFT_10ms', 'TIME_SHIFT_10ms', 'TIME_SHIFT_10ms', 'NOTE_ON_62', 'VELOCITY_20', 'NOTE_ON_65', 'VELOCITY_20', 'NOTE_ON_70', 'VELOCITY_21', 'NOTE_ON_58', 'VELOCITY_23', 'NOTE_ON_49', 'VELOCITY_17', 'NOTE_ON_35', 'VELOCITY_25', 'NOTE_ON_53', 'VELOCITY_20', 'NOTE_ON_62', 'VELOCITY_22', 'NOTE_ON_34', 'VELOCITY_23', 'NOTE_ON_74', 'VELOCITY_22', 'NOTE_OFF_79', 'NOTE_ON_77', 'VELOCITY_24', 'NOTE_ON_58', 'VELOCITY_23', 'NOTE_ON_46', 'VELOCITY_17', 'TIME_SHIFT_110ms', 'TIME_SHIFT_10ms', 'TIME_SHIFT_110ms', 'TIME_SHIFT_10ms', 'TIME_SHIFT_80ms', 'TIME_SHIFT_10ms', 'NOTE_ON_76', 'VELOCITY_24', 'NOTE_OFF_77', 'TIME_SHIFT_30ms', 'TIME_SHIFT_10ms', 'TIME_SHIFT_110ms', 'TIME_SHIFT_10ms', 'TIME_SHIFT_130ms', 'TIME_SHIFT_10ms', 'TIME_SHIFT_30ms', 'TIME_SHIFT_10ms', 'NOTE_OFF_76', 'NOTE_ON_72', 'VELOCITY_24', 'TIME_SHIFT_80ms', 'TIME_SHIFT_10ms', 'TIME_SHIFT_30ms', 'TIME_SHIFT_10ms', 'TIME_SHIFT_50ms', 'TIME_SHIFT_30ms', 'TIME_SHIFT_10ms', 'NOTE_OFF_58', 'NOTE_OFF_62', 'TIME_SHIFT_10ms', 'TIME_SHIFT_10ms', 'NOTE_OFF_53', 'TIME_SHIFT_50ms', 'NOTE_OFF_34', 'NOTE_OFF_58', 'NOTE_OFF_62', 'NOTE_OFF_65', 'TIME_SHIFT_10ms', 'TIME_SHIFT_10ms', 'NOTE_OFF_70', 'TIME_SHIFT_30ms', 'TIME_SHIFT_10ms', 'NOTE_ON_53', 'VELOCITY_20', 'NOTE_ON_35', 'VELOCITY_25', 'NOTE_ON_74', 'VELOCITY_24', 'NOTE_ON_62', 'VELOCITY_23', 'NOTE_ON_38', 'VELOCITY_23', 'NOTE_ON_57', 'VELOCITY_23', 'NOTE_ON_69', 'VELOCITY_25', 'NOTE_ON_57', 'VELOCITY_22', 'NOTE_OFF_72', 'NOTE_ON_62', 'VELOCITY_23', 'NOTE_ON_65', 'VELOCITY_19', 'NOTE_ON_65', 'VELOCITY_20', 'NOTE_OFF_74', 'NOTE_ON_57', 'VELOCITY_21', 'NOTE_ON_50', 'VELOCITY_21', 'NOTE_ON_74', 'VELOCITY_21', 'NOTE_OFF_49', 'NOTE_OFF_35', 'TIME_SHIFT_10ms', 'TIME_SHIFT_10ms', 'NOTE_OFF_46', 'TIME_SHIFT_100ms', 'TIME_SHIFT_110ms', 'TIME_SHIFT_10ms', 'TIME_SHIFT_80ms', 'TIME_SHIFT_10ms', 'NOTE_OFF_74', 'TIME_SHIFT_510ms', 'TIME_SHIFT_10ms', 'NOTE_OFF_65', 'TIME_SHIFT_10ms', 'TIME_SHIFT_10ms', 'NOTE_OFF_57', 'TIME_SHIFT_10ms', 'TIME_SHIFT_10ms', 'NOTE_OFF_53', 'TIME_SHIFT_10ms', 'TIME_SHIFT_10ms', 'NOTE_OFF_74', 'NOTE_OFF_69', 'TIME_SHIFT_10ms', 'TIME_SHIFT_10ms', 'NOTE_OFF_38', 'NOTE_OFF_62', 'TIME_SHIFT_10ms', 'TIME_SHIFT_10ms', 'NOTE_OFF_62', 'NOTE_OFF_57', 'TIME_SHIFT_30ms', 'TIME_SHIFT_10ms', 'NOTE_ON_58', 'VELOCITY_18', 'NOTE_ON_70', 'VELOCITY_18', 'NOTE_ON_70', 'VELOCITY_15', 'NOTE_ON_42', 'VELOCITY_25', 'NOTE_ON_58', 'VELOCITY_17', 'NOTE_ON_35', 'VELOCITY_25', 'NOTE_ON_67', 'VELOCITY_20', 'NOTE_ON_62', 'VELOCITY_20', 'NOTE_ON_55', 'VELOCITY_20', 'NOTE_ON_43', 'VELOCITY_20', 'NOTE_ON_74', 'VELOCITY_20', 'NOTE_ON_57', 'VELOCITY_20', 'NOTE_OFF_57', 'NOTE_ON_62', 'VELOCITY_20', 'NOTE_ON_67', 'VELOCITY_20', 'NOTE_ON_70', 'VELOCITY_24', 'NOTE_ON_43', 'VELOCITY_17', 'NOTE_OFF_35', 'NOTE_OFF_65', 'NOTE_ON_31', 'VELOCITY_22', 'TIME_SHIFT_30ms', 'TIME_SHIFT_10ms', 'NOTE_ON_79', 'VELOCITY_21', 'NOTE_OFF_50', 'NOTE_ON_67', 'VELOCITY_21', 'TIME_SHIFT_30ms', 'TIME_SHIFT_10ms', 'TIME_SHIFT_60ms', 'TIME_SHIFT_10ms', 'TIME_SHIFT_60ms', 'TIME_SHIFT_10ms', 'TIME_SHIFT_80ms', 'TIME_SHIFT_10ms', 'TIME_SHIFT_30ms', 'TIME_SHIFT_10ms', 'NOTE_ON_70', 'VELOCITY_11', 'NOTE_ON_70', 'VELOCITY_24', 'NOTE_OFF_70', 'NOTE_OFF_42', 'NOTE_OFF_70', 'NOTE_ON_42', 'VELOCITY_5', 'TIME_SHIFT_30ms', 'TIME_SHIFT_10ms', 'NOTE_OFF_35', 'NOTE_OFF_62', 'NOTE_OFF_67', 'TIME_SHIFT_50ms', 'NOTE_OFF_58', 'TIME_SHIFT_60ms', 'TIME_SHIFT_10ms', 'TIME_SHIFT_10ms', 'TIME_SHIFT_10ms', 'NOTE_OFF_31', 'TIME_SHIFT_100ms', 'TIME_SHIFT_50ms', 'NOTE_OFF_42', 'NOTE_ON_35', 'VELOCITY_25', 'NOTE_ON_70', 'VELOCITY_24', 'NOTE_ON_58', 'VELOCITY_16', 'NOTE_ON_67', 'VELOCITY_20', 'NOTE_ON_62', 'VELOCITY_20', 'NOTE_ON_58', 'VELOCITY_16', 'NOTE_ON_67', 'VELOCITY_20', 'NOTE_ON_70', 'VELOCITY_10', 'NOTE_ON_62', 'VELOCITY_20', 'NOTE_OFF_70', 'NOTE_ON_42', 'VELOCITY_11', 'NOTE_OFF_70', 'NOTE_ON_31', 'VELOCITY_22', 'TIME_SHIFT_60ms', 'TIME_SHIFT_10ms', 'TIME_SHIFT_80ms', 'TIME_SHIFT_10ms', 'NOTE_OFF_35', 'TIME_SHIFT_30ms', 'TIME_SHIFT_10ms', 'TIME_SHIFT_100ms', 'NOTE_OFF_31', 'TIME_SHIFT_10ms', 'TIME_SHIFT_10ms', 'NOTE_OFF_42', 'NOTE_ON_42', 'VELOCITY_25', 'NOTE_ON_38', 'VELOCITY_22', 'NOTE_ON_70', 'VELOCITY_24', 'NOTE_ON_70', 'VELOCITY_18', 'NOTE_OFF_70', 'NOTE_OFF_70', 'NOTE_OFF_57', 'TIME_SHIFT_130ms', 'TIME_SHIFT_10ms', 'NOTE_OFF_74', 'TIME_SHIFT_10ms', 'TIME_SHIFT_10ms', 'NOTE_OFF_67', 'TIME_SHIFT_10ms', 'TIME_SHIFT_10ms', 'NOTE_OFF_62', 'NOTE_OFF_38', 'NOTE_OFF_58', 'NOTE_OFF_70', 'TIME_SHIFT_10ms', 'TIME_SHIFT_10ms', 'NOTE_OFF_67', 'TIME_SHIFT_80ms', 'TIME_SHIFT_10ms', 'NOTE_OFF_67', 'TIME_SHIFT_10ms', 'TIME_SHIFT_10ms', 'NOTE_OFF_62', 'TIME_SHIFT_30ms', 'TIME_SHIFT_10ms', 'NOTE_ON_42', 'VELOCITY_15', 'NOTE_ON_62', 'VELOCITY_19', 'NOTE_OFF_70', 'NOTE_ON_65', 'VELOCITY_15', 'NOTE_ON_58', 'VELOCITY_14', 'NOTE_ON_67', 'VELOCITY_18', 'NOTE_OFF_42', 'NOTE_ON_67', 'VELOCITY_20', 'NOTE_OFF_58', 'NOTE_ON_70', 'VELOCITY_23', 'NOTE_ON_69', 'VELOCITY_24', 'NOTE_OFF_70', 'NOTE_ON_70', 'VELOCITY_8', 'NOTE_ON_31', 'VELOCITY_21', 'TIME_SHIFT_10ms', 'TIME_SHIFT_10ms', 'NOTE_OFF_43', 'TIME_SHIFT_30ms', 'TIME_SHIFT_10ms', 'TIME_SHIFT_60ms', 'TIME_SHIFT_10ms', 'TIME_SHIFT_50ms', 'NOTE_ON_70', 'VELOCITY_10', 'NOTE_OFF_70', 'TIME_SHIFT_10ms', 'TIME_SHIFT_10ms', 'NOTE_OFF_70', 'TIME_SHIFT_60ms', 'TIME_SHIFT_10ms', 'NOTE_ON_86', 'VELOCITY_17', 'NOTE_OFF_31', 'NOTE_OFF_67', 'NOTE_ON_74', 'VELOCITY_17', 'TIME_SHIFT_10ms', 'TIME_SHIFT_10ms', 'NOTE_OFF_67', 'NOTE_OFF_79', 'NOTE_OFF_65', 'TIME_SHIFT_50ms', 'NOTE_OFF_58', 'NOTE_OFF_42', 'NOTE_ON_42', 'VELOCITY_13', 'NOTE_ON_35', 'VELOCITY_25', 'NOTE_ON_70', 'VELOCITY_14', 'NOTE_ON_67', 'VELOCITY_24', 'NOTE_ON_31', 'VELOCITY_20', 'NOTE_OFF_43', 'NOTE_ON_64', 'VELOCITY_13', 'NOTE_OFF_70', 'NOTE_ON_64', 'VELOCITY_16', 'NOTE_OFF_69', 'TIME_SHIFT_10ms', 'TIME_SHIFT_10ms', 'NOTE_OFF_62', 'NOTE_OFF_67', 'TIME_SHIFT_60ms', 'TIME_SHIFT_10ms', 'TIME_SHIFT_30ms', 'TIME_SHIFT_10ms', 'NOTE_OFF_35', 'TIME_SHIFT_10ms', 'TIME_SHIFT_10ms', 'TIME_SHIFT_30ms', 'TIME_SHIFT_10ms', 'NOTE_OFF_70', 'NOTE_ON_70', 'VELOCITY_17', 'TIME_SHIFT_10ms', 'TIME_SHIFT_10ms', 'TIME_SHIFT_50ms', 'TIME_SHIFT_10ms', 'TIME_SHIFT_10ms', 'NOTE_OFF_31', 'TIME_SHIFT_10ms', 'TIME_SHIFT_10ms', 'NOTE_OFF_64', 'TIME_SHIFT_10ms', 'TIME_SHIFT_10ms', 'NOTE_ON_81', 'VELOCITY_21', 'NOTE_ON_69', 'VELOCITY_21', 'TIME_SHIFT_10ms', 'TIME_SHIFT_10ms', 'NOTE_OFF_86', 'NOTE_OFF_74', 'NOTE_OFF_64', 'TIME_SHIFT_10ms', 'TIME_SHIFT_10ms', 'NOTE_OFF_42', 'NOTE_OFF_55', 'NOTE_OFF_62', 'NOTE_OFF_58', 'NOTE_OFF_70', 'NOTE_ON_62', 'VELOCITY_21', 'NOTE_ON_42', 'VELOCITY_27', 'NOTE_ON_69', 'VELOCITY_24', 'NOTE_ON_50', 'VELOCITY_19', 'NOTE_ON_26', 'VELOCITY_21', 'NOTE_ON_70', 'VELOCITY_20', 'NOTE_ON_50', 'VELOCITY_20', 'NOTE_ON_65', 'VELOCITY_17', 'NOTE_ON_35', 'VELOCITY_25', 'NOTE_OFF_67', 'NOTE_ON_65', 'VELOCITY_20', 'NOTE_ON_62', 'VELOCITY_16', 'NOTE_ON_57', 'VELOCITY_21', 'TIME_SHIFT_110ms', 'TIME_SHIFT_10ms', 'TIME_SHIFT_110ms', 'TIME_SHIFT_10ms', 'TIME_SHIFT_30ms', 'TIME_SHIFT_10ms', 'NOTE_OFF_35', 'TIME_SHIFT_50ms', 'NOTE_OFF_42', 'NOTE_OFF_69', 'NOTE_ON_42', 'VELOCITY_13', 'NOTE_ON_70', 'VELOCITY_10', 'NOTE_ON_69', 'VELOCITY_22', 'NOTE_ON_67', 'VELOCITY_24', 'NOTE_ON_65', 'VELOCITY_19', 'NOTE_OFF_70', 'TIME_SHIFT_50ms', 'NOTE_OFF_65', 'TIME_SHIFT_10ms', 'TIME_SHIFT_10ms', 'NOTE_OFF_62', 'TIME_SHIFT_10ms', 'TIME_SHIFT_10ms', 'NOTE_OFF_26', 'TIME_SHIFT_80ms', 'TIME_SHIFT_10ms', 'NOTE_OFF_50', 'TIME_SHIFT_30ms', 'TIME_SHIFT_10ms', 'NOTE_OFF_69', 'TIME_SHIFT_30ms', 'TIME_SHIFT_10ms', 'NOTE_OFF_65', 'TIME_SHIFT_50ms', 'TIME_SHIFT_30ms', 'TIME_SHIFT_10ms', 'NOTE_ON_57', 'VELOCITY_16', 'NOTE_ON_57', 'VELOCITY_20', 'NOTE_ON_42', 'VELOCITY_13', 'NOTE_ON_65', 'VELOCITY_19', 'NOTE_ON_64', 'VELOCITY_19', 'NOTE_ON_67', 'VELOCITY_20', 'NOTE_ON_70', 'VELOCITY_9', 'NOTE_ON_65', 'VELOCITY_17', 'NOTE_ON_26', 'VELOCITY_21', 'NOTE_ON_62', 'VELOCITY_22', 'NOTE_ON_65', 'VELOCITY_24', 'NOTE_OFF_70', 'NOTE_OFF_42', 'NOTE_OFF_67', 'TIME_SHIFT_80ms', 'TIME_SHIFT_10ms', 'TIME_SHIFT_50ms', 'TIME_SHIFT_50ms', 'NOTE_OFF_64', 'TIME_SHIFT_30ms', 'TIME_SHIFT_10ms', 'TIME_SHIFT_50ms', 'TIME_SHIFT_30ms', 'TIME_SHIFT_10ms', 'NOTE_OFF_67', 'TIME_SHIFT_10ms', 'TIME_SHIFT_10ms', 'NOTE_ON_69', 'VELOCITY_23', 'NOTE_OFF_42', 'NOTE_OFF_70', 'NOTE_ON_69', 'VELOCITY_24', 'NOTE_ON_38', 'VELOCITY_21', 'NOTE_ON_46', 'VELOCITY_19', 'NOTE_OFF_65', 'NOTE_ON_65', 'VELOCITY_18', 'NOTE_ON_70', 'VELOCITY_17', 'TIME_SHIFT_30ms', 'TIME_SHIFT_10ms', 'NOTE_OFF_65', 'TIME_SHIFT_50ms', 'NOTE_OFF_57', 'TIME_SHIFT_10ms', 'TIME_SHIFT_10ms', 'NOTE_OFF_62', 'TIME_SHIFT_60ms', 'TIME_SHIFT_10ms', 'TIME_SHIFT_50ms', 'NOTE_OFF_38', 'TIME_SHIFT_100ms', 'NOTE_ON_65', 'VELOCITY_18', 'NOTE_OFF_70', 'NOTE_ON_64', 'VELOCITY_17', 'NOTE_OFF_26', 'NOTE_ON_57', 'VELOCITY_15', 'NOTE_ON_42', 'VELOCITY_18', 'NOTE_OFF_69', 'NOTE_ON_70', 'VELOCITY_10', 'NOTE_ON_62', 'VELOCITY_18', 'NOTE_OFF_46', 'TIME_SHIFT_30ms', 'TIME_SHIFT_10ms', 'NOTE_OFF_65', 'TIME_SHIFT_110ms', 'TIME_SHIFT_10ms', 'NOTE_ON_70', 'VELOCITY_8', 'NOTE_OFF_70', 'TIME_SHIFT_10ms', 'TIME_SHIFT_10ms', 'NOTE_OFF_62', 'TIME_SHIFT_110ms', 'TIME_SHIFT_10ms', 'TIME_SHIFT_10ms', 'TIME_SHIFT_10ms', 'NOTE_OFF_57', 'TIME_SHIFT_10ms', 'TIME_SHIFT_10ms', 'NOTE_OFF_42', 'NOTE_OFF_70', 'NOTE_ON_62', 'VELOCITY_13', 'NOTE_ON_62', 'VELOCITY_18', 'NOTE_ON_42', 'VELOCITY_17', 'NOTE_ON_35', 'VELOCITY_25', 'NOTE_ON_70', 'VELOCITY_13', 'NOTE_ON_26', 'VELOCITY_21', 'NOTE_ON_69', 'VELOCITY_24', 'TIME_SHIFT_10ms', 'TIME_SHIFT_10ms', 'NOTE_OFF_50', 'NOTE_OFF_64', 'TIME_SHIFT_10ms', 'TIME_SHIFT_10ms', 'TIME_SHIFT_30ms', 'TIME_SHIFT_10ms', 'NOTE_OFF_65', 'TIME_SHIFT_30ms', 'TIME_SHIFT_10ms', 'TIME_SHIFT_30ms', 'TIME_SHIFT_10ms', 'NOTE_OFF_69', 'NOTE_OFF_62', 'NOTE_OFF_35', 'TIME_SHIFT_10ms', 'TIME_SHIFT_10ms', 'NOTE_OFF_70', 'NOTE_ON_70', 'VELOCITY_21', 'TIME_SHIFT_10ms', 'TIME_SHIFT_10ms', 'TIME_SHIFT_30ms', 'TIME_SHIFT_10ms', 'NOTE_OFF_65', 'TIME_SHIFT_10ms', 'TIME_SHIFT_10ms', 'NOTE_OFF_69', 'TIME_SHIFT_30ms', 'TIME_SHIFT_10ms', 'NOTE_OFF_69', 'NOTE_OFF_81', 'TIME_SHIFT_10ms', 'TIME_SHIFT_10ms', 'NOTE_OFF_57', 'TIME_SHIFT_10ms', 'TIME_SHIFT_10ms', 'NOTE_OFF_26', 'TIME_SHIFT_30ms', 'TIME_SHIFT_10ms', 'NOTE_OFF_57', 'NOTE_OFF_62', 'NOTE_OFF_70', 'NOTE_ON_42', 'VELOCITY_25', 'NOTE_OFF_42', 'NOTE_ON_33', 'VELOCITY_24', 'NOTE_OFF_65', 'NOTE_ON_45', 'VELOCITY_22', 'NOTE_ON_57', 'VELOCITY_22', 'NOTE_ON_76', 'VELOCITY_24', 'NOTE_ON_64', 'VELOCITY_22', 'NOTE_ON_57', 'VELOCITY_15', 'NOTE_ON_76', 'VELOCITY_19', 'NOTE_ON_64', 'VELOCITY_17', 'NOTE_ON_70', 'VELOCITY_15', 'NOTE_ON_60', 'VELOCITY_18', 'NOTE_ON_35', 'VELOCITY_25', 'TIME_SHIFT_30ms', 'TIME_SHIFT_10ms', 'NOTE_ON_64', 'VELOCITY_19', 'NOTE_ON_69', 'VELOCITY_22', 'NOTE_OFF_62', 'NOTE_ON_60', 'VELOCITY_17', 'TIME_SHIFT_80ms', 'TIME_SHIFT_10ms', 'TIME_SHIFT_110ms', 'TIME_SHIFT_10ms', 'TIME_SHIFT_80ms', 'TIME_SHIFT_10ms', 'NOTE_OFF_42', 'NOTE_ON_42', 'VELOCITY_5', 'NOTE_OFF_70', 'NOTE_ON_70', 'VELOCITY_11', 'NOTE_OFF_76', 'NOTE_ON_76', 'VELOCITY_24', 'TIME_SHIFT_30ms', 'TIME_SHIFT_10ms', 'NOTE_OFF_33', 'TIME_SHIFT_10ms', 'TIME_SHIFT_10ms', 'NOTE_OFF_35', 'TIME_SHIFT_30ms', 'TIME_SHIFT_10ms', 'TIME_SHIFT_50ms', 'TIME_SHIFT_50ms', 'TIME_SHIFT_50ms', 'TIME_SHIFT_30ms', 'TIME_SHIFT_10ms', 'TIME_SHIFT_50ms', 'NOTE_ON_33', 'VELOCITY_22', 'NOTE_OFF_42', 'NOTE_OFF_57', 'NOTE_OFF_76', 'NOTE_ON_60', 'VELOCITY_15', 'NOTE_ON_76', 'VELOCITY_24', 'NOTE_ON_64', 'VELOCITY_18', 'NOTE_ON_67', 'VELOCITY_19', 'NOTE_OFF_70', 'NOTE_ON_64', 'VELOCITY_21', 'NOTE_ON_35', 'VELOCITY_25', 'NOTE_ON_69', 'VELOCITY_21', 'NOTE_ON_60', 'VELOCITY_17', 'NOTE_ON_70', 'VELOCITY_10', 'NOTE_ON_42', 'VELOCITY_11', 'TIME_SHIFT_80ms', 'TIME_SHIFT_10ms', 'TIME_SHIFT_60ms', 'TIME_SHIFT_10ms', 'NOTE_OFF_69', 'NOTE_OFF_35', 'TIME_SHIFT_30ms', 'TIME_SHIFT_10ms', 'NOTE_OFF_64', 'TIME_SHIFT_10ms', 'TIME_SHIFT_10ms', 'NOTE_OFF_60', 'TIME_SHIFT_10ms', 'TIME_SHIFT_10ms', 'NOTE_OFF_67', 'TIME_SHIFT_10ms', 'TIME_SHIFT_10ms', 'NOTE_OFF_64', 'TIME_SHIFT_10ms', 'TIME_SHIFT_10ms', 'NOTE_OFF_60', 'TIME_SHIFT_30ms', 'TIME_SHIFT_10ms', 'NOTE_OFF_33', 'TIME_SHIFT_30ms', 'TIME_SHIFT_10ms', 'NOTE_ON_70', 'VELOCITY_18', 'NOTE_ON_38', 'VELOCITY_22', 'NOTE_OFF_76', 'NOTE_ON_76', 'VELOCITY_24', 'NOTE_OFF_70', 'NOTE_OFF_42', 'NOTE_ON_42', 'VELOCITY_25', 'TIME_SHIFT_60ms', 'TIME_SHIFT_10ms', 'NOTE_OFF_69', 'TIME_SHIFT_50ms', 'NOTE_OFF_64', 'TIME_SHIFT_10ms', 'TIME_SHIFT_10ms', 'NOTE_OFF_60', 'TIME_SHIFT_10ms', 'TIME_SHIFT_10ms', 'NOTE_OFF_38', 'TIME_SHIFT_80ms', 'TIME_SHIFT_10ms', 'TIME_SHIFT_80ms', 'TIME_SHIFT_10ms', 'NOTE_ON_79', 'VELOCITY_24', 'NOTE_ON_70', 'VELOCITY_8', 'NOTE_ON_60', 'VELOCITY_12', 'NOTE_OFF_76', 'NOTE_ON_60', 'VELOCITY_12', 'NOTE_OFF_42', 'NOTE_ON_64', 'VELOCITY_16', 'NOTE_ON_42', 'VELOCITY_15', 'NOTE_ON_64', 'VELOCITY_16', 'NOTE_OFF_70', 'NOTE_ON_67', 'VELOCITY_20', 'TIME_SHIFT_30ms', 'TIME_SHIFT_10ms', 'TIME_SHIFT_30ms', 'TIME_SHIFT_10ms', 'NOTE_OFF_60', 'NOTE_OFF_64', 'TIME_SHIFT_10ms', 'TIME_SHIFT_10ms', 'NOTE_OFF_45', 'TIME_SHIFT_60ms', 'TIME_SHIFT_10ms', 'NOTE_ON_70', 'VELOCITY_10', 'NOTE_OFF_70', 'TIME_SHIFT_110ms', 'TIME_SHIFT_10ms', 'TIME_SHIFT_10ms', 'TIME_SHIFT_10ms', 'NOTE_OFF_67', 'TIME_SHIFT_30ms', 'TIME_SHIFT_10ms', 'NOTE_OFF_70', 'NOTE_ON_33', 'VELOCITY_22', 'NOTE_ON_70', 'VELOCITY_14', 'NOTE_OFF_42', 'NOTE_OFF_79', 'NOTE_ON_42', 'VELOCITY_13', 'NOTE_ON_64', 'VELOCITY_20', 'NOTE_ON_69', 'VELOCITY_21', 'NOTE_ON_69', 'VELOCITY_15', 'NOTE_ON_35', 'VELOCITY_25', 'NOTE_ON_76', 'VELOCITY_24', 'NOTE_ON_60', 'VELOCITY_18', 'TIME_SHIFT_60ms', 'TIME_SHIFT_10ms', 'TIME_SHIFT_10ms', 'TIME_SHIFT_10ms', 'NOTE_OFF_64', 'NOTE_OFF_69', 'TIME_SHIFT_10ms', 'TIME_SHIFT_10ms', 'NOTE_OFF_60', 'TIME_SHIFT_10ms', 'TIME_SHIFT_10ms', 'NOTE_OFF_35', 'TIME_SHIFT_30ms', 'TIME_SHIFT_10ms', 'NOTE_OFF_70', 'NOTE_ON_70', 'VELOCITY_17', 'TIME_SHIFT_30ms', 'TIME_SHIFT_10ms', 'TIME_SHIFT_100ms', 'NOTE_OFF_69', 'TIME_SHIFT_10ms', 'TIME_SHIFT_10ms', 'NOTE_OFF_64', 'TIME_SHIFT_10ms', 'TIME_SHIFT_10ms', 'NOTE_ON_70', 'VELOCITY_20', 'NOTE_ON_64', 'VELOCITY_21', 'NOTE_ON_60', 'VELOCITY_18', 'NOTE_OFF_76', 'NOTE_ON_67', 'VELOCITY_22', 'NOTE_ON_42', 'VELOCITY_27', 'NOTE_OFF_60', 'NOTE_OFF_57', 'NOTE_ON_48', 'VELOCITY_22', 'NOTE_ON_35', 'VELOCITY_25', 'NOTE_ON_36', 'VELOCITY_21', 'NOTE_ON_60', 'VELOCITY_20', 'NOTE_OFF_60', 'NOTE_OFF_42', 'NOTE_OFF_64', 'NOTE_ON_64', 'VELOCITY_19', 'NOTE_OFF_70', 'NOTE_ON_76', 'VELOCITY_24', 'NOTE_ON_55', 'VELOCITY_19', 'TIME_SHIFT_30ms', 'TIME_SHIFT_10ms', 'NOTE_OFF_33', 'TIME_SHIFT_110ms', 'TIME_SHIFT_10ms', 'TIME_SHIFT_110ms', 'TIME_SHIFT_10ms', 'NOTE_OFF_35', 'TIME_SHIFT_30ms', 'TIME_SHIFT_10ms', 'NOTE_ON_67', 'VELOCITY_18', 'NOTE_ON_64', 'VELOCITY_18', 'NOTE_OFF_42', 'NOTE_ON_42', 'VELOCITY_13', 'NOTE_ON_60', 'VELOCITY_14', 'NOTE_OFF_76', 'NOTE_OFF_70', 'NOTE_ON_70', 'VELOCITY_10', 'TIME_SHIFT_10ms', 'TIME_SHIFT_10ms', 'NOTE_OFF_36', 'TIME_SHIFT_130ms', 'TIME_SHIFT_10ms', 'NOTE_OFF_67', 'TIME_SHIFT_80ms', 'TIME_SHIFT_10ms', 'NOTE_OFF_64', 'TIME_SHIFT_10ms', 'TIME_SHIFT_10ms', 'NOTE_OFF_60', 'TIME_SHIFT_30ms', 'TIME_SHIFT_10ms', 'TIME_SHIFT_30ms', 'TIME_SHIFT_10ms', 'NOTE_ON_67', 'VELOCITY_19', 'NOTE_ON_76', 'VELOCITY_24', 'NOTE_OFF_42', 'NOTE_OFF_70', 'NOTE_ON_70', 'VELOCITY_9', 'NOTE_ON_64', 'VELOCITY_20', 'NOTE_ON_42', 'VELOCITY_13', 'NOTE_ON_36', 'VELOCITY_20', 'NOTE_ON_60', 'VELOCITY_17', 'TIME_SHIFT_80ms', 'TIME_SHIFT_10ms', 'TIME_SHIFT_10ms', 'TIME_SHIFT_10ms', 'NOTE_OFF_67', 'TIME_SHIFT_10ms', 'TIME_SHIFT_10ms', 'NOTE_OFF_60', 'NOTE_OFF_64', 'TIME_SHIFT_80ms', 'TIME_SHIFT_10ms', 'TIME_SHIFT_110ms', 'TIME_SHIFT_10ms', 'NOTE_OFF_76', 'NOTE_ON_46', 'VELOCITY_19', 'NOTE_ON_38', 'VELOCITY_21', 'NOTE_OFF_70', 'NOTE_ON_79', 'VELOCITY_24', 'NOTE_OFF_42', 'NOTE_ON_70', 'VELOCITY_17', 'TIME_SHIFT_60ms', 'TIME_SHIFT_10ms', 'NOTE_OFF_36', 'TIME_SHIFT_100ms', 'TIME_SHIFT_30ms', 'TIME_SHIFT_10ms', 'NOTE_OFF_67', 'TIME_SHIFT_30ms', 'TIME_SHIFT_10ms', 'NOTE_OFF_38', 'TIME_SHIFT_30ms', 'TIME_SHIFT_10ms', 'NOTE_OFF_64', 'TIME_SHIFT_10ms', 'TIME_SHIFT_10ms', 'NOTE_OFF_60', 'TIME_SHIFT_30ms', 'TIME_SHIFT_10ms', 'NOTE_ON_64', 'VELOCITY_13', 'NOTE_OFF_46', 'NOTE_OFF_70', 'NOTE_ON_67', 'VELOCITY_18', 'NOTE_OFF_79', 'NOTE_ON_60', 'VELOCITY_14', 'NOTE_ON_64', 'VELOCITY_19', 'NOTE_ON_42', 'VELOCITY_18', 'NOTE_ON_60', 'VELOCITY_12', 'NOTE_ON_70', 'VELOCITY_10', 'TIME_SHIFT_10ms', 'TIME_SHIFT_10ms', 'TIME_SHIFT_50ms', 'NOTE_OFF_48', 'TIME_SHIFT_100ms', 'NOTE_ON_70', 'VELOCITY_8', 'NOTE_OFF_70', 'TIME_SHIFT_110ms', 'TIME_SHIFT_10ms', 'TIME_SHIFT_10ms', 'TIME_SHIFT_10ms', 'NOTE_ON_60', 'VELOCITY_18', 'NOTE_ON_67', 'VELOCITY_19', 'NOTE_ON_64', 'VELOCITY_22', 'TIME_SHIFT_10ms', 'TIME_SHIFT_10ms', 'NOTE_ON_35', 'VELOCITY_25', 'NOTE_ON_70', 'VELOCITY_13', 'NOTE_ON_42', 'VELOCITY_17', 'NOTE_ON_72', 'VELOCITY_24', 'NOTE_ON_65', 'VELOCITY_14', 'NOTE_ON_36', 'VELOCITY_21', 'NOTE_OFF_42', 'NOTE_OFF_70', 'TIME_SHIFT_30ms', 'TIME_SHIFT_10ms', 'NOTE_OFF_64', 'TIME_SHIFT_10ms', 'TIME_SHIFT_10ms', 'NOTE_OFF_64', 'TIME_SHIFT_10ms', 'TIME_SHIFT_10ms', 'NOTE_OFF_64', 'NOTE_OFF_67', 'NOTE_OFF_60', 'TIME_SHIFT_10ms', 'TIME_SHIFT_10ms', 'NOTE_OFF_65', 'TIME_SHIFT_10ms', 'TIME_SHIFT_10ms', 'NOTE_OFF_67', 'TIME_SHIFT_10ms', 'TIME_SHIFT_10ms', 'NOTE_OFF_60', 'TIME_SHIFT_30ms', 'TIME_SHIFT_10ms', 'NOTE_OFF_35', 'TIME_SHIFT_10ms', 'TIME_SHIFT_10ms', 'NOTE_OFF_70', 'NOTE_ON_70', 'VELOCITY_21', 'TIME_SHIFT_30ms', 'TIME_SHIFT_10ms', 'TIME_SHIFT_10ms', 'TIME_SHIFT_10ms', 'NOTE_OFF_60', 'TIME_SHIFT_100ms', 'NOTE_ON_62', 'VELOCITY_22', 'NOTE_ON_62', 'VELOCITY_23', 'NOTE_ON_74', 'VELOCITY_22', 'NOTE_ON_70', 'VELOCITY_15', 'NOTE_ON_65', 'VELOCITY_18', 'NOTE_ON_57', 'VELOCITY_20', 'NOTE_ON_50', 'VELOCITY_23', 'NOTE_ON_35', 'VELOCITY_25', 'NOTE_ON_69', 'VELOCITY_22', 'NOTE_OFF_36', 'NOTE_ON_74', 'VELOCITY_22', 'NOTE_ON_50', 'VELOCITY_20', 'NOTE_ON_38', 'VELOCITY_22', 'NOTE_ON_74', 'VELOCITY_24', 'NOTE_OFF_70', 'NOTE_OFF_72', 'NOTE_ON_65', 'VELOCITY_18', 'NOTE_OFF_42', 'NOTE_ON_42', 'VELOCITY_25', 'NOTE_OFF_64', 'NOTE_OFF_64', 'NOTE_OFF_60', 'NOTE_OFF_76', 'NOTE_OFF_55', 'TIME_SHIFT_150ms', 'TIME_SHIFT_130ms', 'TIME_SHIFT_10ms', 'TIME_SHIFT_30ms', 'TIME_SHIFT_10ms', 'NOTE_OFF_42', 'NOTE_ON_42', 'VELOCITY_5', 'NOTE_ON_70', 'VELOCITY_11', 'NOTE_OFF_70', 'NOTE_ON_57', 'VELOCITY_21', 'TIME_SHIFT_10ms', 'TIME_SHIFT_10ms', 'NOTE_OFF_38', 'TIME_SHIFT_30ms', 'TIME_SHIFT_10ms', 'NOTE_OFF_35', 'TIME_SHIFT_30ms', 'TIME_SHIFT_10ms', 'NOTE_OFF_74', 'TIME_SHIFT_30ms', 'TIME_SHIFT_10ms', 'TIME_SHIFT_50ms', 'NOTE_OFF_74', 'TIME_SHIFT_10ms', 'TIME_SHIFT_10ms', 'NOTE_OFF_65', 'NOTE_OFF_69', 'TIME_SHIFT_100ms', 'TIME_SHIFT_30ms', 'TIME_SHIFT_10ms', 'NOTE_ON_65', 'VELOCITY_17', 'NOTE_ON_74', 'VELOCITY_24', 'NOTE_ON_62', 'VELOCITY_19', 'NOTE_ON_69', 'VELOCITY_20', 'NOTE_ON_74', 'VELOCITY_22', 'NOTE_OFF_42', 'NOTE_ON_65', 'VELOCITY_21', 'NOTE_ON_62', 'VELOCITY_20', 'NOTE_ON_70', 'VELOCITY_10', 'NOTE_ON_35', 'VELOCITY_25', 'NOTE_ON_42', 'VELOCITY_11', 'NOTE_ON_38', 'VELOCITY_22', 'NOTE_OFF_70', 'TIME_SHIFT_160ms', 'TIME_SHIFT_10ms', 'NOTE_OFF_35', 'TIME_SHIFT_110ms', 'TIME_SHIFT_10ms', 'NOTE_OFF_62', 'TIME_SHIFT_30ms', 'TIME_SHIFT_10ms', 'NOTE_ON_70', 'VELOCITY_18', 'NOTE_ON_64', 'VELOCITY_22', 'NOTE_ON_42', 'VELOCITY_25', 'NOTE_OFF_42', 'NOTE_OFF_70', 'NOTE_ON_38', 'VELOCITY_22', 'TIME_SHIFT_150ms', 'NOTE_OFF_38', 'TIME_SHIFT_30ms', 'TIME_SHIFT_10ms', 'NOTE_OFF_62', 'TIME_SHIFT_30ms', 'TIME_SHIFT_10ms', 'NOTE_OFF_65', 'TIME_SHIFT_10ms', 'TIME_SHIFT_10ms', 'NOTE_OFF_38', 'TIME_SHIFT_50ms', 'NOTE_OFF_64', 'TIME_SHIFT_30ms', 'TIME_SHIFT_10ms', 'NOTE_ON_64', 'VELOCITY_19', 'NOTE_ON_70', 'VELOCITY_8', 'NOTE_ON_62', 'VELOCITY_16', 'NOTE_ON_42', 'VELOCITY_15', 'NOTE_OFF_42', 'NOTE_OFF_70', 'TIME_SHIFT_110ms', 'TIME_SHIFT_10ms', 'NOTE_OFF_62', 'TIME_SHIFT_30ms', 'TIME_SHIFT_10ms', 'NOTE_OFF_70', 'NOTE_ON_70', 'VELOCITY_10', 'TIME_SHIFT_30ms', 'TIME_SHIFT_10ms', 'NOTE_OFF_57', 'TIME_SHIFT_80ms', 'TIME_SHIFT_10ms', 'TIME_SHIFT_50ms', 'NOTE_OFF_42', 'NOTE_ON_38', 'VELOCITY_21', 'NOTE_OFF_70', 'NOTE_ON_65', 'VELOCITY_21', 'NOTE_ON_65', 'VELOCITY_20', 'NOTE_ON_70', 'VELOCITY_14', 'NOTE_ON_35', 'VELOCITY_25', 'NOTE_ON_42', 'VELOCITY_13', 'TIME_SHIFT_10ms', 'TIME_SHIFT_10ms', 'NOTE_OFF_64', 'TIME_SHIFT_100ms', 'NOTE_OFF_38', 'NOTE_OFF_35', 'TIME_SHIFT_30ms', 'TIME_SHIFT_10ms', 'NOTE_OFF_70', 'NOTE_ON_70', 'VELOCITY_17', 'TIME_SHIFT_10ms', 'TIME_SHIFT_10ms', 'NOTE_OFF_65', 'TIME_SHIFT_150ms', 'NOTE_ON_70', 'VELOCITY_20', 'NOTE_ON_42', 'VELOCITY_27', 'NOTE_OFF_70', 'NOTE_OFF_42', 'NOTE_ON_57', 'VELOCITY_18', 'NOTE_ON_35', 'VELOCITY_25', 'NOTE_ON_38', 'VELOCITY_23', 'TIME_SHIFT_260ms', 'TIME_SHIFT_10ms', 'NOTE_OFF_35', 'TIME_SHIFT_30ms', 'TIME_SHIFT_10ms', 'NOTE_OFF_38', 'TIME_SHIFT_10ms', 'TIME_SHIFT_10ms', 'NOTE_ON_62', 'VELOCITY_16', 'NOTE_ON_70', 'VELOCITY_10', 'NOTE_ON_57', 'VELOCITY_16', 'NOTE_OFF_42', 'NOTE_ON_42', 'VELOCITY_13', 'NOTE_OFF_70', 'TIME_SHIFT_110ms', 'TIME_SHIFT_10ms', 'NOTE_OFF_74', 'TIME_SHIFT_80ms', 'TIME_SHIFT_10ms', 'NOTE_OFF_57', 'TIME_SHIFT_50ms', 'NOTE_OFF_62', 'TIME_SHIFT_60ms', 'TIME_SHIFT_10ms', 'NOTE_OFF_70', 'NOTE_ON_38', 'VELOCITY_21', 'NOTE_OFF_42', 'NOTE_ON_62', 'VELOCITY_11', 'NOTE_ON_70', 'VELOCITY_9', 'NOTE_ON_65', 'VELOCITY_19', 'NOTE_ON_42', 'VELOCITY_13', 'TIME_SHIFT_250ms', 'NOTE_OFF_62', 'TIME_SHIFT_60ms', 'TIME_SHIFT_10ms', 'NOTE_ON_38', 'VELOCITY_21', 'NOTE_OFF_70', 'NOTE_ON_70', 'VELOCITY_17', 'NOTE_OFF_42', 'NOTE_ON_46', 'VELOCITY_19', 'NOTE_ON_57', 'VELOCITY_14', 'TIME_SHIFT_50ms', 'NOTE_OFF_65', 'NOTE_OFF_65', 'TIME_SHIFT_100ms', 'NOTE_OFF_38', 'TIME_SHIFT_60ms', 'TIME_SHIFT_10ms', 'NOTE_OFF_38', 'TIME_SHIFT_100ms', 'NOTE_OFF_70', 'NOTE_ON_67', 'VELOCITY_22', 'NOTE_OFF_46', 'NOTE_ON_42', 'VELOCITY_18', 'NOTE_ON_70', 'VELOCITY_10', 'NOTE_ON_38', 'VELOCITY_22', 'NOTE_ON_65', 'VELOCITY_18', 'TIME_SHIFT_150ms', 'NOTE_ON_70', 'VELOCITY_8', 'NOTE_OFF_57', 'NOTE_OFF_70', 'TIME_SHIFT_100ms', 'NOTE_OFF_50', 'NOTE_ON_69', 'VELOCITY_24', 'TIME_SHIFT_10ms', 'TIME_SHIFT_10ms', 'NOTE_OFF_38', 'TIME_SHIFT_10ms', 'TIME_SHIFT_10ms', 'NOTE_OFF_67', 'TIME_SHIFT_10ms', 'TIME_SHIFT_10ms', 'NOTE_ON_42', 'VELOCITY_17', 'NOTE_ON_70', 'VELOCITY_13', 'NOTE_OFF_65', 'NOTE_ON_64', 'VELOCITY_15', 'NOTE_ON_69', 'VELOCITY_21', 'NOTE_OFF_42', 'NOTE_OFF_70', 'NOTE_ON_38', 'VELOCITY_21', 'NOTE_ON_35', 'VELOCITY_25', 'TIME_SHIFT_80ms', 'TIME_SHIFT_10ms', 'NOTE_OFF_65', 'TIME_SHIFT_10ms', 'TIME_SHIFT_10ms', 'NOTE_OFF_57', 'NOTE_OFF_74', 'TIME_SHIFT_10ms', 'TIME_SHIFT_10ms', 'NOTE_OFF_64', 'NOTE_OFF_69', 'TIME_SHIFT_10ms', 'TIME_SHIFT_10ms', 'TIME_SHIFT_10ms', 'TIME_SHIFT_10ms', 'NOTE_OFF_35', 'NOTE_OFF_50', 'TIME_SHIFT_10ms', 'TIME_SHIFT_10ms', 'NOTE_OFF_38', 'NOTE_OFF_70', 'NOTE_ON_70', 'VELOCITY_21', 'TIME_SHIFT_10ms', 'TIME_SHIFT_10ms', 'NOTE_OFF_69', 'TIME_SHIFT_30ms', 'TIME_SHIFT_10ms', 'NOTE_OFF_69', 'TIME_SHIFT_60ms', 'TIME_SHIFT_10ms', 'TIME_SHIFT_30ms', 'TIME_SHIFT_10ms', 'NOTE_ON_33', 'VELOCITY_24', 'NOTE_OFF_57', 'NOTE_OFF_62', 'NOTE_OFF_62', 'NOTE_OFF_74', 'NOTE_OFF_42', 'NOTE_OFF_70', 'NOTE_ON_76', 'VELOCITY_24', 'NOTE_OFF_65', 'NOTE_ON_70', 'VELOCITY_15', 'NOTE_ON_42', 'VELOCITY_25', 'NOTE_ON_76', 'VELOCITY_19', 'NOTE_ON_35', 'VELOCITY_25', 'NOTE_ON_60', 'VELOCITY_18', 'NOTE_ON_57', 'VELOCITY_15', 'NOTE_ON_64', 'VELOCITY_17', 'NOTE_ON_64', 'VELOCITY_22', 'NOTE_ON_57', 'VELOCITY_22', 'NOTE_ON_45', 'VELOCITY_22', 'TIME_SHIFT_30ms', 'TIME_SHIFT_10ms', 'NOTE_ON_64', 'VELOCITY_19', 'NOTE_ON_69', 'VELOCITY_22', 'NOTE_ON_60', 'VELOCITY_17', 'TIME_SHIFT_100ms', 'TIME_SHIFT_110ms', 'TIME_SHIFT_10ms', 'TIME_SHIFT_60ms', 'TIME_SHIFT_10ms', 'NOTE_ON_42', 'VELOCITY_5', 'NOTE_ON_70', 'VELOCITY_11', 'NOTE_ON_76', 'VELOCITY_24', 'NOTE_OFF_70', 'NOTE_OFF_76', 'NOTE_OFF_42', 'TIME_SHIFT_30ms', 'TIME_SHIFT_10ms', 'NOTE_OFF_33', 'TIME_SHIFT_10ms', 'TIME_SHIFT_10ms', 'NOTE_OFF_35', 'TIME_SHIFT_50ms', 'TIME_SHIFT_30ms', 'TIME_SHIFT_10ms', 'TIME_SHIFT_50ms', 'TIME_SHIFT_50ms', 'TIME_SHIFT_50ms', 'TIME_SHIFT_30ms', 'TIME_SHIFT_10ms', 'NOTE_OFF_70', 'NOTE_ON_35', 'VELOCITY_25', 'NOTE_OFF_76', 'NOTE_ON_42', 'VELOCITY_11', 'NOTE_OFF_42', 'NOTE_ON_67', 'VELOCITY_19', 'NOTE_OFF_57', 'NOTE_ON_76', 'VELOCITY_24', 'NOTE_ON_70', 'VELOCITY_10', 'NOTE_ON_33', 'VELOCITY_22', 'NOTE_ON_64', 'VELOCITY_21', 'NOTE_ON_69', 'VELOCITY_21', 'NOTE_ON_60', 'VELOCITY_15', 'NOTE_ON_60', 'VELOCITY_17', 'NOTE_ON_64', 'VELOCITY_18', 'TIME_SHIFT_80ms', 'TIME_SHIFT_10ms', 'TIME_SHIFT_60ms', 'TIME_SHIFT_10ms', 'NOTE_OFF_69', 'TIME_SHIFT_10ms', 'TIME_SHIFT_10ms', 'NOTE_OFF_35', 'TIME_SHIFT_10ms', 'TIME_SHIFT_10ms', 'NOTE_OFF_64', 'TIME_SHIFT_10ms', 'TIME_SHIFT_10ms', 'NOTE_OFF_60', 'TIME_SHIFT_30ms', 'TIME_SHIFT_10ms', 'NOTE_OFF_67', 'TIME_SHIFT_10ms', 'TIME_SHIFT_10ms', 'NOTE_OFF_64', 'TIME_SHIFT_10ms', 'TIME_SHIFT_10ms', 'NOTE_OFF_60', 'TIME_SHIFT_30ms', 'TIME_SHIFT_10ms', 'NOTE_OFF_33', 'TIME_SHIFT_10ms', 'TIME_SHIFT_10ms', 'NOTE_OFF_76', 'NOTE_OFF_70', 'NOTE_ON_76', 'VELOCITY_24', 'NOTE_ON_38', 'VELOCITY_22', 'NOTE_OFF_42', 'NOTE_ON_42', 'VELOCITY_25', 'NOTE_ON_70', 'VELOCITY_18', 'TIME_SHIFT_80ms', 'TIME_SHIFT_10ms', 'NOTE_OFF_69', 'TIME_SHIFT_30ms', 'TIME_SHIFT_10ms', 'TIME_SHIFT_10ms', 'TIME_SHIFT_10ms', 'NOTE_OFF_64', 'TIME_SHIFT_10ms', 'TIME_SHIFT_10ms', 'NOTE_OFF_60', 'TIME_SHIFT_10ms', 'TIME_SHIFT_10ms', 'NOTE_OFF_38', 'TIME_SHIFT_60ms', 'TIME_SHIFT_10ms', 'TIME_SHIFT_80ms', 'TIME_SHIFT_10ms', 'NOTE_ON_67', 'VELOCITY_20', 'NOTE_ON_64', 'VELOCITY_16', 'NOTE_OFF_76', 'NOTE_ON_70', 'VELOCITY_8', 'NOTE_OFF_42', 'NOTE_ON_42', 'VELOCITY_15', 'NOTE_OFF_70', 'NOTE_ON_79', 'VELOCITY_24', 'NOTE_ON_60', 'VELOCITY_12', 'NOTE_ON_60', 'VELOCITY_12', 'NOTE_ON_64', 'VELOCITY_16', 'TIME_SHIFT_50ms', 'TIME_SHIFT_30ms', 'TIME_SHIFT_10ms', 'NOTE_OFF_64', 'NOTE_OFF_60', 'NOTE_OFF_45', 'TIME_SHIFT_80ms', 'TIME_SHIFT_10ms', 'NOTE_OFF_70', 'NOTE_ON_70', 'VELOCITY_10', 'TIME_SHIFT_110ms', 'TIME_SHIFT_10ms', 'NOTE_OFF_67', 'TIME_SHIFT_30ms', 'TIME_SHIFT_10ms', 'NOTE_ON_35', 'VELOCITY_25', 'NOTE_ON_42', 'VELOCITY_13', 'NOTE_OFF_42', 'NOTE_ON_33', 'VELOCITY_22', 'NOTE_ON_70', 'VELOCITY_14', 'NOTE_ON_69', 'VELOCITY_15', 'NOTE_OFF_79', 'NOTE_OFF_70', 'TIME_SHIFT_10ms', 'TIME_SHIFT_10ms', 'NOTE_ON_60', 'VELOCITY_18', 'NOTE_ON_69', 'VELOCITY_21', 'NOTE_ON_64', 'VELOCITY_20', 'TIME_SHIFT_60ms', 'TIME_SHIFT_10ms', 'TIME_SHIFT_10ms', 'TIME_SHIFT_10ms', 'NOTE_OFF_60', 'NOTE_OFF_64', 'NOTE_OFF_69', 'TIME_SHIFT_10ms', 'TIME_SHIFT_10ms', 'NOTE_OFF_35', 'TIME_SHIFT_10ms', 'TIME_SHIFT_10ms', 'NOTE_ON_76', 'VELOCITY_24', 'TIME_SHIFT_30ms', 'TIME_SHIFT_10ms', 'NOTE_ON_70', 'VELOCITY_17', 'NOTE_OFF_70', 'TIME_SHIFT_80ms', 'TIME_SHIFT_10ms', 'TIME_SHIFT_30ms', 'TIME_SHIFT_10ms', 'NOTE_OFF_69', 'TIME_SHIFT_10ms', 'TIME_SHIFT_10ms', 'NOTE_OFF_64', 'TIME_SHIFT_10ms', 'TIME_SHIFT_10ms', 'NOTE_ON_42', 'VELOCITY_27', 'NOTE_ON_60', 'VELOCITY_20', 'NOTE_OFF_57', 'NOTE_ON_70', 'VELOCITY_20', 'NOTE_ON_64', 'VELOCITY_19', 'NOTE_OFF_70', 'NOTE_ON_36', 'VELOCITY_21', 'NOTE_OFF_64', 'NOTE_OFF_42', 'NOTE_ON_55', 'VELOCITY_19', 'NOTE_ON_48', 'VELOCITY_22', 'NOTE_OFF_60', 'NOTE_ON_35', 'VELOCITY_25', 'TIME_SHIFT_10ms', 'TIME_SHIFT_10ms', 'NOTE_ON_67', 'VELOCITY_22', 'NOTE_OFF_60', 'NOTE_ON_64', 'VELOCITY_21', 'NOTE_ON_60', 'VELOCITY_18', 'TIME_SHIFT_10ms', 'TIME_SHIFT_10ms', 'NOTE_OFF_33', 'TIME_SHIFT_10ms', 'TIME_SHIFT_10ms', 'NOTE_OFF_76', 'TIME_SHIFT_50ms', 'TIME_SHIFT_130ms', 'TIME_SHIFT_10ms', 'TIME_SHIFT_30ms', 'TIME_SHIFT_10ms', 'NOTE_OFF_35', 'TIME_SHIFT_50ms', 'NOTE_OFF_70', 'NOTE_ON_64', 'VELOCITY_18', 'NOTE_OFF_42', 'NOTE_ON_42', 'VELOCITY_13', 'NOTE_ON_70', 'VELOCITY_10', 'NOTE_ON_76', 'VELOCITY_24', 'NOTE_ON_67', 'VELOCITY_18', 'NOTE_ON_60', 'VELOCITY_14', 'TIME_SHIFT_10ms', 'TIME_SHIFT_10ms', 'NOTE_OFF_36', 'TIME_SHIFT_130ms', 'TIME_SHIFT_10ms', 'NOTE_OFF_67', 'TIME_SHIFT_80ms', 'TIME_SHIFT_10ms', 'NOTE_OFF_60', 'NOTE_OFF_64', 'TIME_SHIFT_80ms', 'TIME_SHIFT_10ms', 'NOTE_OFF_42', 'NOTE_ON_42', 'VELOCITY_13', 'NOTE_ON_64', 'VELOCITY_20', 'NOTE_ON_60', 'VELOCITY_17', 'NOTE_ON_70', 'VELOCITY_9', 'NOTE_OFF_70', 'NOTE_ON_36', 'VELOCITY_20', 'NOTE_ON_67', 'VELOCITY_19', 'TIME_SHIFT_100ms', 'NOTE_OFF_67', 'NOTE_OFF_64', 'TIME_SHIFT_10ms', 'TIME_SHIFT_10ms', 'NOTE_OFF_60', 'TIME_SHIFT_200ms', 'NOTE_OFF_42', 'NOTE_ON_70', 'VELOCITY_17', 'NOTE_ON_46', 'VELOCITY_19', 'NOTE_OFF_70', 'NOTE_ON_38', 'VELOCITY_21', 'TIME_SHIFT_60ms', 'TIME_SHIFT_10ms', 'NOTE_OFF_36', 'TIME_SHIFT_110ms', 'TIME_SHIFT_10ms', 'NOTE_OFF_67', 'TIME_SHIFT_30ms', 'TIME_SHIFT_10ms', 'NOTE_OFF_38', 'TIME_SHIFT_50ms', 'NOTE_OFF_64', 'TIME_SHIFT_10ms', 'TIME_SHIFT_10ms', 'NOTE_OFF_60', 'TIME_SHIFT_30ms', 'TIME_SHIFT_10ms', 'NOTE_ON_70', 'VELOCITY_10', 'NOTE_ON_67', 'VELOCITY_18', 'NOTE_ON_60', 'VELOCITY_12', 'NOTE_ON_42', 'VELOCITY_18', 'NOTE_ON_64', 'VELOCITY_13', 'NOTE_ON_60', 'VELOCITY_14', 'NOTE_OFF_46', 'NOTE_OFF_70', 'NOTE_ON_64', 'VELOCITY_19', 'TIME_SHIFT_50ms', 'NOTE_OFF_48', 'TIME_SHIFT_100ms', 'NOTE_ON_70', 'VELOCITY_8', 'NOTE_OFF_70', 'TIME_SHIFT_130ms', 'TIME_SHIFT_10ms', 'NOTE_ON_60', 'VELOCITY_18', 'NOTE_ON_67', 'VELOCITY_19', 'NOTE_ON_64', 'VELOCITY_22', 'TIME_SHIFT_10ms', 'TIME_SHIFT_10ms', 'NOTE_OFF_76', 'TIME_SHIFT_10ms', 'TIME_SHIFT_10ms', 'NOTE_ON_36', 'VELOCITY_21', 'NOTE_OFF_70', 'NOTE_ON_76', 'VELOCITY_24', 'NOTE_ON_35', 'VELOCITY_25', 'NOTE_ON_65', 'VELOCITY_14', 'NOTE_ON_42', 'VELOCITY_17', 'NOTE_ON_70', 'VELOCITY_13', 'NOTE_OFF_42', 'TIME_SHIFT_10ms', 'TIME_SHIFT_10ms', 'NOTE_OFF_64', 'TIME_SHIFT_30ms', 'TIME_SHIFT_10ms', 'NOTE_OFF_67', 'NOTE_OFF_64', 'TIME_SHIFT_10ms', 'TIME_SHIFT_10ms', 'NOTE_OFF_60', 'NOTE_OFF_64', 'TIME_SHIFT_10ms', 'TIME_SHIFT_10ms', 'NOTE_OFF_67', 'NOTE_OFF_65', 'TIME_SHIFT_10ms', 'TIME_SHIFT_10ms', 'TIME_SHIFT_10ms', 'TIME_SHIFT_10ms', 'NOTE_OFF_60', 'NOTE_OFF_76', 'TIME_SHIFT_10ms', 'TIME_SHIFT_10ms', 'NOTE_OFF_35', 'TIME_SHIFT_10ms', 'TIME_SHIFT_10ms', 'NOTE_OFF_70', 'NOTE_ON_70', 'VELOCITY_21', 'TIME_SHIFT_50ms', 'NOTE_OFF_60', 'TIME_SHIFT_100ms', 'NOTE_OFF_36', 'TIME_SHIFT_10ms', 'TIME_SHIFT_10ms', 'NOTE_OFF_55', 'NOTE_OFF_76', 'NOTE_OFF_64', 'NOTE_OFF_64', 'NOTE_ON_49', 'VELOCITY_19', 'NOTE_ON_46', 'VELOCITY_17', 'NOTE_ON_42', 'VELOCITY_25', 'NOTE_ON_67', 'VELOCITY_21', 'NOTE_OFF_60', 'NOTE_ON_35', 'VELOCITY_25', 'NOTE_ON_79', 'VELOCITY_24', 'NOTE_ON_34', 'VELOCITY_22', 'NOTE_ON_62', 'VELOCITY_19', 'NOTE_OFF_70', 'NOTE_OFF_42', 'NOTE_ON_70', 'VELOCITY_15', 'NOTE_ON_60', 'VELOCITY_15', 'TIME_SHIFT_310ms', 'TIME_SHIFT_10ms', 'NOTE_ON_70', 'VELOCITY_11', 'NOTE_OFF_42', 'NOTE_ON_42', 'VELOCITY_5', 'NOTE_OFF_70', 'TIME_SHIFT_30ms', 'TIME_SHIFT_10ms', 'NOTE_OFF_35', 'TIME_SHIFT_280ms', 'TIME_SHIFT_10ms', 'NOTE_OFF_70', 'NOTE_OFF_42', 'NOTE_ON_42', 'VELOCITY_11', 'NOTE_ON_70', 'VELOCITY_10', 'TIME_SHIFT_310ms', 'TIME_SHIFT_10ms', 'NOTE_OFF_42', 'NOTE_ON_70', 'VELOCITY_18', 'NOTE_ON_42', 'VELOCITY_25', 'NOTE_OFF_70', 'TIME_SHIFT_300ms', 'NOTE_OFF_42', 'NOTE_ON_70', 'VELOCITY_8', 'NOTE_OFF_70', 'NOTE_ON_42', 'VELOCITY_15', 'TIME_SHIFT_160ms', 'TIME_SHIFT_10ms', 'NOTE_OFF_70', 'NOTE_ON_70', 'VELOCITY_10', 'TIME_SHIFT_150ms', 'NOTE_ON_42', 'VELOCITY_13', 'NOTE_ON_70', 'VELOCITY_14', 'NOTE_ON_35', 'VELOCITY_25', 'NOTE_OFF_70', 'NOTE_OFF_42', 'TIME_SHIFT_110ms', 'TIME_SHIFT_10ms', 'NOTE_OFF_35', 'TIME_SHIFT_50ms', 'NOTE_ON_70', 'VELOCITY_17', 'NOTE_OFF_70', 'TIME_SHIFT_150ms', 'NOTE_OFF_60', 'NOTE_OFF_67', 'NOTE_OFF_79', 'NOTE_OFF_62', 'NOTE_OFF_34', 'NOTE_OFF_49', 'NOTE_OFF_46', 'NOTE_ON_67', 'VELOCITY_19', 'NOTE_ON_72', 'VELOCITY_24', 'NOTE_ON_64', 'VELOCITY_17', 'NOTE_ON_57', 'VELOCITY_25', 'NOTE_ON_62', 'VELOCITY_14', 'NOTE_ON_35', 'VELOCITY_25', 'NOTE_ON_42', 'VELOCITY_27', 'NOTE_ON_70', 'VELOCITY_20', 'NOTE_OFF_70', 'NOTE_ON_36', 'VELOCITY_22', 'NOTE_OFF_42', 'NOTE_ON_55', 'VELOCITY_16', 'NOTE_ON_48', 'VELOCITY_14', 'TIME_SHIFT_260ms', 'TIME_SHIFT_10ms', 'NOTE_OFF_35', 'TIME_SHIFT_50ms', 'NOTE_OFF_70', 'NOTE_ON_42', 'VELOCITY_13', 'NOTE_ON_70', 'VELOCITY_10', 'NOTE_OFF_42', 'TIME_SHIFT_300ms', 'TIME_SHIFT_10ms', 'TIME_SHIFT_10ms', 'NOTE_OFF_70', 'NOTE_OFF_42', 'NOTE_ON_70', 'VELOCITY_9', 'NOTE_ON_42', 'VELOCITY_13', 'TIME_SHIFT_300ms', 'TIME_SHIFT_10ms', 'TIME_SHIFT_10ms', 'NOTE_OFF_72', 'NOTE_OFF_42', 'NOTE_ON_38', 'VELOCITY_21', 'NOTE_ON_46', 'VELOCITY_19', 'NOTE_ON_74', 'VELOCITY_24', 'NOTE_ON_70', 'VELOCITY_17', 'NOTE_OFF_70', 'TIME_SHIFT_210ms', 'TIME_SHIFT_10ms', 'NOTE_OFF_38', 'TIME_SHIFT_100ms', 'NOTE_ON_42', 'VELOCITY_18', 'NOTE_ON_35', 'VELOCITY_22', 'NOTE_OFF_70', 'NOTE_OFF_46', 'NOTE_ON_70', 'VELOCITY_10', 'TIME_SHIFT_160ms', 'TIME_SHIFT_10ms', 'NOTE_OFF_70', 'NOTE_ON_70', 'VELOCITY_8', 'TIME_SHIFT_130ms', 'TIME_SHIFT_10ms', 'TIME_SHIFT_10ms', 'TIME_SHIFT_10ms', 'NOTE_ON_35', 'VELOCITY_25', 'NOTE_ON_70', 'VELOCITY_13', 'NOTE_OFF_42', 'NOTE_ON_35', 'VELOCITY_25', 'NOTE_ON_42', 'VELOCITY_17', 'NOTE_OFF_70', 'TIME_SHIFT_10ms', 'TIME_SHIFT_10ms', 'NOTE_OFF_35', 'TIME_SHIFT_130ms', 'TIME_SHIFT_10ms', 'NOTE_OFF_35', 'NOTE_ON_70', 'VELOCITY_21', 'NOTE_OFF_70', 'TIME_SHIFT_150ms', 'TIME_SHIFT_10ms', 'TIME_SHIFT_10ms', 'NOTE_OFF_48', 'NOTE_OFF_55', 'NOTE_OFF_57', 'NOTE_OFF_62', 'NOTE_OFF_67', 'NOTE_OFF_74', 'NOTE_OFF_64', 'NOTE_OFF_36', 'NOTE_ON_57', 'VELOCITY_17', 'NOTE_OFF_42', 'NOTE_OFF_70', 'NOTE_ON_74', 'VELOCITY_25', 'NOTE_ON_35', 'VELOCITY_25', 'NOTE_ON_26', 'VELOCITY_23', 'NOTE_ON_62', 'VELOCITY_20', 'NOTE_ON_50', 'VELOCITY_19', 'NOTE_ON_65', 'VELOCITY_17', 'NOTE_ON_65', 'VELOCITY_17', 'NOTE_ON_42', 'VELOCITY_25', 'NOTE_ON_57', 'VELOCITY_13', 'NOTE_ON_65', 'VELOCITY_18', 'NOTE_ON_50', 'VELOCITY_19', 'TIME_SHIFT_10ms', 'TIME_SHIFT_10ms', 'NOTE_ON_77', 'VELOCITY_29', 'TIME_SHIFT_50ms', 'TIME_SHIFT_160ms', 'TIME_SHIFT_10ms', 'NOTE_OFF_65', 'TIME_SHIFT_50ms', 'NOTE_OFF_65', 'TIME_SHIFT_30ms', 'TIME_SHIFT_10ms', 'NOTE_OFF_42', 'NOTE_ON_57', 'VELOCITY_17', 'NOTE_ON_57', 'VELOCITY_14', 'NOTE_ON_42', 'VELOCITY_5', 'TIME_SHIFT_50ms', 'NOTE_OFF_35', 'TIME_SHIFT_260ms', 'TIME_SHIFT_10ms', 'NOTE_OFF_26', 'NOTE_ON_42', 'VELOCITY_11', 'NOTE_ON_35', 'VELOCITY_25', 'NOTE_ON_62', 'VELOCITY_22', 'NOTE_OFF_42', 'NOTE_ON_62', 'VELOCITY_16', 'NOTE_ON_26', 'VELOCITY_22', 'TIME_SHIFT_150ms', 'NOTE_OFF_35', 'TIME_SHIFT_60ms', 'TIME_SHIFT_10ms', 'NOTE_OFF_26', 'TIME_SHIFT_60ms', 'TIME_SHIFT_10ms', 'NOTE_OFF_62', 'TIME_SHIFT_10ms', 'TIME_SHIFT_10ms', 'NOTE_OFF_77', 'TIME_SHIFT_10ms', 'TIME_SHIFT_10ms', 'NOTE_ON_42', 'VELOCITY_25', 'NOTE_OFF_57', 'NOTE_OFF_42', 'NOTE_ON_38', 'VELOCITY_22', 'TIME_SHIFT_10ms', 'TIME_SHIFT_10ms', 'NOTE_ON_74', 'VELOCITY_22', 'TIME_SHIFT_80ms', 'TIME_SHIFT_10ms', 'NOTE_OFF_57', 'TIME_SHIFT_10ms', 'TIME_SHIFT_10ms', 'NOTE_OFF_62', 'TIME_SHIFT_30ms', 'TIME_SHIFT_10ms', 'NOTE_OFF_38', 'TIME_SHIFT_60ms', 'TIME_SHIFT_10ms', 'NOTE_OFF_57', 'TIME_SHIFT_80ms', 'TIME_SHIFT_10ms', 'TIME_SHIFT_10ms', 'TIME_SHIFT_10ms', 'NOTE_ON_65', 'VELOCITY_18', 'NOTE_ON_65', 'VELOCITY_19', 'NOTE_ON_42', 'VELOCITY_15', 'NOTE_OFF_42', 'TIME_SHIFT_200ms', 'TIME_SHIFT_10ms', 'TIME_SHIFT_10ms', 'NOTE_OFF_65', 'TIME_SHIFT_50ms', 'TIME_SHIFT_50ms', 'NOTE_ON_57', 'VELOCITY_14', 'NOTE_ON_42', 'VELOCITY_13', 'NOTE_ON_57', 'VELOCITY_15', 'NOTE_ON_35', 'VELOCITY_25', 'NOTE_ON_26', 'VELOCITY_22', 'NOTE_OFF_42', 'TIME_SHIFT_10ms', 'TIME_SHIFT_10ms', 'TIME_SHIFT_10ms', 'TIME_SHIFT_10ms', 'NOTE_OFF_65', 'TIME_SHIFT_50ms', 'TIME_SHIFT_30ms', 'TIME_SHIFT_10ms', 'NOTE_OFF_35', 'TIME_SHIFT_50ms', 'NOTE_OFF_26', 'TIME_SHIFT_50ms', 'TIME_SHIFT_100ms', 'NOTE_ON_42', 'VELOCITY_27', 'NOTE_ON_35', 'VELOCITY_25', 'NOTE_ON_62', 'VELOCITY_18', 'NOTE_ON_26', 'VELOCITY_22', 'NOTE_OFF_42', 'TIME_SHIFT_30ms', 'TIME_SHIFT_10ms', 'TIME_SHIFT_30ms', 'TIME_SHIFT_10ms', 'NOTE_OFF_62', 'TIME_SHIFT_10ms', 'TIME_SHIFT_10ms', 'TIME_SHIFT_10ms', 'TIME_SHIFT_10ms', 'NOTE_OFF_57', 'TIME_SHIFT_30ms', 'TIME_SHIFT_10ms', 'TIME_SHIFT_30ms', 'TIME_SHIFT_10ms', 'TIME_SHIFT_80ms', 'TIME_SHIFT_10ms', 'TIME_SHIFT_10ms', 'TIME_SHIFT_10ms', 'NOTE_OFF_35', 'TIME_SHIFT_50ms', 'NOTE_ON_42', 'VELOCITY_13', 'NOTE_OFF_57', 'NOTE_OFF_42', 'NOTE_ON_65', 'VELOCITY_15', 'NOTE_ON_69', 'VELOCITY_22', 'TIME_SHIFT_130ms', 'TIME_SHIFT_10ms', 'TIME_SHIFT_80ms', 'TIME_SHIFT_10ms', 'NOTE_OFF_26', 'TIME_SHIFT_10ms', 'TIME_SHIFT_10ms', 'NOTE_OFF_74', 'TIME_SHIFT_10ms', 'TIME_SHIFT_10ms', 'NOTE_OFF_65', 'TIME_SHIFT_10ms', 'TIME_SHIFT_10ms', 'NOTE_ON_69', 'VELOCITY_23', 'TIME_SHIFT_30ms', 'TIME_SHIFT_10ms', 'NOTE_ON_62', 'VELOCITY_19', 'NOTE_OFF_42', 'NOTE_ON_57', 'VELOCITY_13', 'NOTE_OFF_69', 'NOTE_ON_26', 'VELOCITY_22', 'NOTE_ON_42', 'VELOCITY_13', 'TIME_SHIFT_160ms', 'TIME_SHIFT_10ms', 'TIME_SHIFT_30ms', 'TIME_SHIFT_10ms', 'NOTE_OFF_26', 'TIME_SHIFT_10ms', 'TIME_SHIFT_10ms', 'NOTE_OFF_57', 'NOTE_OFF_50', 'TIME_SHIFT_60ms', 'TIME_SHIFT_10ms', 'NOTE_OFF_69', 'TIME_SHIFT_30ms', 'TIME_SHIFT_10ms', 'NOTE_OFF_42', 'NOTE_ON_62', 'VELOCITY_15', 'NOTE_ON_38', 'VELOCITY_21', 'NOTE_ON_50', 'VELOCITY_3', 'NOTE_ON_77', 'VELOCITY_23', 'NOTE_ON_46', 'VELOCITY_19', 'TIME_SHIFT_50ms', 'NOTE_OFF_62', 'TIME_SHIFT_30ms', 'TIME_SHIFT_10ms', 'TIME_SHIFT_150ms', 'NOTE_OFF_38', 'NOTE_OFF_50', 'TIME_SHIFT_80ms', 'TIME_SHIFT_10ms', 'NOTE_ON_26', 'VELOCITY_20', 'NOTE_ON_57', 'VELOCITY_11', 'NOTE_ON_57', 'VELOCITY_16', 'NOTE_ON_42', 'VELOCITY_18', 'NOTE_OFF_46', 'TIME_SHIFT_10ms', 'TIME_SHIFT_10ms', 'NOTE_ON_79', 'VELOCITY_21', 'TIME_SHIFT_10ms', 'TIME_SHIFT_10ms', 'NOTE_OFF_62', 'TIME_SHIFT_10ms', 'TIME_SHIFT_10ms', 'TIME_SHIFT_30ms', 'TIME_SHIFT_10ms', 'NOTE_OFF_77', 'TIME_SHIFT_10ms', 'TIME_SHIFT_10ms', 'NOTE_OFF_50', 'TIME_SHIFT_60ms', 'TIME_SHIFT_10ms', 'NOTE_OFF_57', 'TIME_SHIFT_60ms', 'TIME_SHIFT_10ms', 'TIME_SHIFT_50ms', 'NOTE_OFF_26', 'NOTE_OFF_79', 'TIME_SHIFT_30ms', 'TIME_SHIFT_10ms', 'NOTE_ON_29', 'VELOCITY_20', 'NOTE_ON_42', 'VELOCITY_17', 'NOTE_OFF_42', 'NOTE_ON_74', 'VELOCITY_21', 'NOTE_ON_62', 'VELOCITY_19', 'NOTE_ON_35', 'VELOCITY_25', 'TIME_SHIFT_100ms', 'TIME_SHIFT_50ms', 'NOTE_OFF_35', 'NOTE_OFF_35', 'TIME_SHIFT_10ms', 'TIME_SHIFT_10ms', 'NOTE_OFF_29', 'TIME_SHIFT_10ms', 'TIME_SHIFT_10ms', 'NOTE_OFF_57', 'TIME_SHIFT_30ms', 'TIME_SHIFT_10ms', 'TIME_SHIFT_10ms', 'TIME_SHIFT_10ms', 'TIME_SHIFT_30ms', 'TIME_SHIFT_10ms', 'NOTE_OFF_62', 'TIME_SHIFT_30ms', 'TIME_SHIFT_10ms', 'NOTE_OFF_74', 'TIME_SHIFT_10ms', 'TIME_SHIFT_10ms', 'NOTE_OFF_65', 'NOTE_OFF_42', 'NOTE_OFF_57', 'NOTE_OFF_74', 'NOTE_OFF_62', 'NOTE_ON_64', 'VELOCITY_18', 'NOTE_ON_33', 'VELOCITY_21', 'NOTE_ON_45', 'VELOCITY_16', 'NOTE_ON_45', 'VELOCITY_20', 'NOTE_ON_64', 'VELOCITY_22', 'NOTE_ON_42', 'VELOCITY_25', 'NOTE_ON_64', 'VELOCITY_17', 'NOTE_ON_35', 'VELOCITY_25', 'NOTE_ON_60', 'VELOCITY_21', 'NOTE_ON_57', 'VELOCITY_20', 'TIME_SHIFT_10ms', 'TIME_SHIFT_10ms', 'NOTE_ON_76', 'VELOCITY_22', 'TIME_SHIFT_50ms', 'TIME_SHIFT_100ms', 'NOTE_OFF_64', 'TIME_SHIFT_110ms', 'TIME_SHIFT_10ms', 'NOTE_OFF_64', 'TIME_SHIFT_30ms', 'TIME_SHIFT_10ms', 'NOTE_OFF_42', 'NOTE_ON_42', 'VELOCITY_5', 'NOTE_ON_52', 'VELOCITY_8', 'NOTE_ON_52', 'VELOCITY_18', 'NOTE_ON_60', 'VELOCITY_13', 'TIME_SHIFT_50ms', 'NOTE_OFF_35', 'TIME_SHIFT_180ms', 'TIME_SHIFT_10ms', 'NOTE_OFF_33', 'TIME_SHIFT_50ms', 'NOTE_OFF_60', 'TIME_SHIFT_30ms', 'TIME_SHIFT_10ms', 'NOTE_ON_42', 'VELOCITY_11', 'NOTE_ON_64', 'VELOCITY_14', 'NOTE_OFF_42', 'NOTE_ON_33', 'VELOCITY_22', 'NOTE_ON_57', 'VELOCITY_17', 'NOTE_ON_35', 'VELOCITY_25', 'TIME_SHIFT_110ms', 'TIME_SHIFT_10ms', 'TIME_SHIFT_30ms', 'TIME_SHIFT_10ms', 'TIME_SHIFT_10ms', 'TIME_SHIFT_10ms', 'NOTE_OFF_35', 'TIME_SHIFT_10ms', 'TIME_SHIFT_10ms', 'TIME_SHIFT_110ms', 'TIME_SHIFT_10ms', 'NOTE_OFF_33', 'TIME_SHIFT_10ms', 'TIME_SHIFT_10ms', 'NOTE_OFF_42', 'NOTE_ON_67', 'VELOCITY_17', 'NOTE_ON_55', 'VELOCITY_13', 'NOTE_ON_42', 'VELOCITY_25', 'NOTE_ON_38', 'VELOCITY_22', 'TIME_SHIFT_10ms', 'TIME_SHIFT_10ms', 'TIME_SHIFT_10ms', 'TIME_SHIFT_10ms', 'NOTE_OFF_64', 'TIME_SHIFT_10ms', 'TIME_SHIFT_10ms', 'TIME_SHIFT_10ms', 'TIME_SHIFT_10ms', 'NOTE_ON_72', 'VELOCITY_21', 'TIME_SHIFT_30ms', 'TIME_SHIFT_10ms', 'NOTE_OFF_76', 'TIME_SHIFT_60ms', 'TIME_SHIFT_10ms', 'NOTE_OFF_38', 'TIME_SHIFT_110ms', 'TIME_SHIFT_10ms', 'NOTE_OFF_67', 'TIME_SHIFT_30ms', 'TIME_SHIFT_10ms', 'NOTE_OFF_42', 'NOTE_ON_42', 'VELOCITY_15', 'NOTE_ON_64', 'VELOCITY_17', 'NOTE_ON_60', 'VELOCITY_8', 'TIME_SHIFT_210ms', 'TIME_SHIFT_10ms', 'NOTE_OFF_60', 'TIME_SHIFT_30ms', 'TIME_SHIFT_10ms', 'NOTE_OFF_55', 'TIME_SHIFT_30ms', 'TIME_SHIFT_10ms', 'TIME_SHIFT_10ms', 'TIME_SHIFT_10ms', 'NOTE_OFF_64', 'TIME_SHIFT_10ms', 'TIME_SHIFT_10ms', 'NOTE_ON_33', 'VELOCITY_22', 'NOTE_ON_69', 'VELOCITY_16', 'NOTE_ON_42', 'VELOCITY_13', 'NOTE_ON_35', 'VELOCITY_25', 'NOTE_OFF_57', 'NOTE_OFF_42', 'NOTE_ON_60', 'VELOCITY_14', 'TIME_SHIFT_60ms', 'TIME_SHIFT_10ms', 'TIME_SHIFT_50ms', 'NOTE_OFF_35', 'TIME_SHIFT_100ms', 'TIME_SHIFT_50ms', 'NOTE_OFF_33', 'TIME_SHIFT_50ms', 'NOTE_OFF_42', 'NOTE_ON_57', 'VELOCITY_13', 'NOTE_ON_33', 'VELOCITY_22', 'NOTE_ON_42', 'VELOCITY_27', 'NOTE_ON_35', 'VELOCITY_25', 'TIME_SHIFT_60ms', 'TIME_SHIFT_10ms', 'TIME_SHIFT_30ms', 'TIME_SHIFT_10ms', 'TIME_SHIFT_30ms', 'TIME_SHIFT_10ms', 'TIME_SHIFT_10ms', 'TIME_SHIFT_10ms', 'NOTE_OFF_60', 'TIME_SHIFT_80ms', 'TIME_SHIFT_10ms', 'TIME_SHIFT_10ms', 'TIME_SHIFT_10ms', 'NOTE_OFF_69', 'NOTE_OFF_52', 'TIME_SHIFT_10ms', 'TIME_SHIFT_10ms', 'NOTE_OFF_35', 'TIME_SHIFT_30ms', 'TIME_SHIFT_10ms', 'TIME_SHIFT_10ms', 'TIME_SHIFT_10ms', 'NOTE_ON_67', 'VELOCITY_22', 'NOTE_ON_60', 'VELOCITY_9', 'NOTE_OFF_42', 'NOTE_ON_42', 'VELOCITY_13', 'TIME_SHIFT_50ms', 'NOTE_OFF_57', 'TIME_SHIFT_30ms', 'TIME_SHIFT_10ms', 'NOTE_OFF_33', 'TIME_SHIFT_110ms', 'TIME_SHIFT_10ms', 'TIME_SHIFT_50ms', 'TIME_SHIFT_60ms', 'TIME_SHIFT_10ms', 'NOTE_OFF_42', 'NOTE_ON_33', 'VELOCITY_22', 'NOTE_ON_64', 'VELOCITY_14', 'NOTE_ON_42', 'VELOCITY_13', 'NOTE_ON_64', 'VELOCITY_13', 'TIME_SHIFT_10ms', 'TIME_SHIFT_10ms', 'NOTE_OFF_67', 'TIME_SHIFT_50ms', 'TIME_SHIFT_110ms', 'TIME_SHIFT_10ms', 'TIME_SHIFT_30ms', 'TIME_SHIFT_10ms', 'NOTE_OFF_64', 'TIME_SHIFT_30ms', 'TIME_SHIFT_10ms', 'TIME_SHIFT_50ms', 'NOTE_OFF_60', 'TIME_SHIFT_10ms', 'TIME_SHIFT_10ms', 'NOTE_OFF_42', 'NOTE_OFF_33', 'NOTE_ON_38', 'VELOCITY_21', 'NOTE_ON_46', 'VELOCITY_19', 'NOTE_ON_57', 'VELOCITY_13', 'NOTE_ON_55', 'VELOCITY_7', 'TIME_SHIFT_50ms', 'NOTE_OFF_64', 'TIME_SHIFT_50ms', 'TIME_SHIFT_100ms', 'TIME_SHIFT_10ms', 'TIME_SHIFT_10ms', 'NOTE_OFF_55', 'NOTE_OFF_38', 'TIME_SHIFT_10ms', 'TIME_SHIFT_10ms', 'NOTE_OFF_57', 'NOTE_OFF_45', 'NOTE_OFF_52', 'NOTE_OFF_45', 'TIME_SHIFT_80ms', 'TIME_SHIFT_10ms', 'NOTE_OFF_46', 'NOTE_ON_42', 'VELOCITY_18', 'NOTE_ON_60', 'VELOCITY_10', 'NOTE_ON_60', 'VELOCITY_9', 'NOTE_ON_31', 'VELOCITY_20', 'TIME_SHIFT_180ms', 'TIME_SHIFT_10ms', 'NOTE_OFF_60', 'TIME_SHIFT_110ms', 'TIME_SHIFT_10ms', 'NOTE_OFF_31', 'TIME_SHIFT_10ms', 'TIME_SHIFT_10ms', 'NOTE_ON_64', 'VELOCITY_10', 'NOTE_ON_35', 'VELOCITY_25', 'NOTE_ON_42', 'VELOCITY_17', 'NOTE_OFF_42', 'NOTE_ON_33', 'VELOCITY_21', 'TIME_SHIFT_60ms', 'TIME_SHIFT_10ms', 'NOTE_OFF_64', 'TIME_SHIFT_60ms', 'TIME_SHIFT_10ms', 'NOTE_OFF_35', 'TIME_SHIFT_10ms', 'TIME_SHIFT_10ms', 'NOTE_OFF_72', 'NOTE_OFF_60', 'TIME_SHIFT_30ms', 'TIME_SHIFT_10ms', 'TIME_SHIFT_50ms', 'NOTE_OFF_33', 'TIME_SHIFT_60ms', 'TIME_SHIFT_10ms', 'NOTE_OFF_64', 'NOTE_OFF_42', 'NOTE_OFF_57', 'NOTE_OFF_60', 'NOTE_ON_31', 'VELOCITY_23', 'NOTE_ON_43', 'VELOCITY_16', 'NOTE_ON_62', 'VELOCITY_22', 'NOTE_ON_35', 'VELOCITY_25', 'NOTE_ON_62', 'VELOCITY_17', 'NOTE_ON_42', 'VELOCITY_25', 'NOTE_ON_62', 'VELOCITY_17', 'NOTE_ON_43', 'VELOCITY_16', 'NOTE_ON_58', 'VELOCITY_17', 'NOTE_ON_55', 'VELOCITY_19', 'TIME_SHIFT_10ms', 'TIME_SHIFT_10ms', 'NOTE_ON_70', 'VELOCITY_25', 'TIME_SHIFT_10ms', 'TIME_SHIFT_10ms', 'TIME_SHIFT_60ms', 'TIME_SHIFT_10ms', 'TIME_SHIFT_50ms', 'TIME_SHIFT_30ms', 'TIME_SHIFT_10ms', 'NOTE_OFF_62', 'TIME_SHIFT_130ms', 'TIME_SHIFT_10ms', 'NOTE_OFF_62', 'NOTE_ON_50', 'VELOCITY_12', 'NOTE_ON_50', 'VELOCITY_18', 'NOTE_OFF_42', 'NOTE_ON_42', 'VELOCITY_5', 'TIME_SHIFT_50ms', 'NOTE_OFF_35', 'TIME_SHIFT_10ms', 'TIME_SHIFT_10ms', 'TIME_SHIFT_50ms', 'TIME_SHIFT_50ms', 'NOTE_OFF_31', 'TIME_SHIFT_60ms', 'TIME_SHIFT_10ms', 'TIME_SHIFT_50ms', 'TIME_SHIFT_30ms', 'TIME_SHIFT_10ms', 'NOTE_ON_55', 'VELOCITY_14', 'NOTE_ON_31', 'VELOCITY_22', 'NOTE_ON_55', 'VELOCITY_16', 'NOTE_ON_42', 'VELOCITY_11', 'NOTE_ON_35', 'VELOCITY_25', 'NOTE_OFF_42', 'TIME_SHIFT_10ms', 'TIME_SHIFT_10ms', 'TIME_SHIFT_50ms', 'TIME_SHIFT_60ms', 'TIME_SHIFT_10ms', 'TIME_SHIFT_30ms', 'TIME_SHIFT_10ms', 'NOTE_OFF_35', 'TIME_SHIFT_100ms', 'NOTE_OFF_31', 'TIME_SHIFT_30ms', 'TIME_SHIFT_10ms', 'NOTE_OFF_70', 'TIME_SHIFT_10ms', 'TIME_SHIFT_10ms', 'NOTE_OFF_42', 'NOTE_ON_38', 'VELOCITY_22', 'NOTE_ON_42', 'VELOCITY_25', 'NOTE_ON_62', 'VELOCITY_21', 'TIME_SHIFT_30ms', 'TIME_SHIFT_10ms', 'NOTE_ON_67', 'VELOCITY_22', 'TIME_SHIFT_130ms', 'TIME_SHIFT_10ms', 'NOTE_OFF_38', 'TIME_SHIFT_50ms', 'TIME_SHIFT_80ms', 'TIME_SHIFT_10ms', 'NOTE_OFF_62', 'TIME_SHIFT_10ms', 'TIME_SHIFT_10ms', 'NOTE_ON_58', 'VELOCITY_10', 'NOTE_ON_42', 'VELOCITY_15', 'NOTE_ON_62', 'VELOCITY_18', 'NOTE_ON_58', 'VELOCITY_13', 'NOTE_OFF_42', 'TIME_SHIFT_60ms', 'TIME_SHIFT_10ms', 'NOTE_OFF_58', 'TIME_SHIFT_10ms', 'TIME_SHIFT_10ms', 'NOTE_OFF_50', 'TIME_SHIFT_10ms', 'TIME_SHIFT_10ms', 'NOTE_OFF_62', 'TIME_SHIFT_80ms', 'TIME_SHIFT_10ms', 'NOTE_OFF_55', 'TIME_SHIFT_130ms', 'TIME_SHIFT_10ms', 'NOTE_ON_35', 'VELOCITY_25', 'NOTE_ON_42', 'VELOCITY_13', 'NOTE_OFF_42', 'NOTE_ON_31', 'VELOCITY_22', 'NOTE_ON_62', 'VELOCITY_11', 'NOTE_ON_62', 'VELOCITY_20', 'NOTE_ON_58', 'VELOCITY_10', 'TIME_SHIFT_110ms', 'TIME_SHIFT_10ms', 'NOTE_OFF_35', 'TIME_SHIFT_10ms', 'TIME_SHIFT_10ms', 'NOTE_OFF_62', 'TIME_SHIFT_50ms', 'NOTE_OFF_43', 'TIME_SHIFT_80ms', 'TIME_SHIFT_10ms', 'NOTE_OFF_31', 'TIME_SHIFT_30ms', 'TIME_SHIFT_10ms', 'NOTE_OFF_62', 'NOTE_OFF_58', 'TIME_SHIFT_10ms', 'TIME_SHIFT_10ms', 'NOTE_ON_67', 'VELOCITY_22', 'NOTE_ON_42', 'VELOCITY_27', 'NOTE_ON_31', 'VELOCITY_22', 'NOTE_OFF_42', 'NOTE_ON_35', 'VELOCITY_25', 'TIME_SHIFT_130ms', 'TIME_SHIFT_10ms', 'NOTE_OFF_67', 'TIME_SHIFT_60ms', 'TIME_SHIFT_10ms', 'NOTE_OFF_58', 'TIME_SHIFT_60ms', 'TIME_SHIFT_10ms', 'NOTE_OFF_35', 'TIME_SHIFT_50ms', 'NOTE_OFF_42', 'NOTE_ON_58', 'VELOCITY_12', 'NOTE_ON_42', 'VELOCITY_13', 'NOTE_ON_67', 'VELOCITY_19', 'TIME_SHIFT_160ms', 'TIME_SHIFT_10ms', 'NOTE_OFF_31', 'TIME_SHIFT_50ms', 'NOTE_OFF_58', 'TIME_SHIFT_30ms', 'TIME_SHIFT_10ms', 'NOTE_OFF_67', 'TIME_SHIFT_50ms', 'NOTE_OFF_67', 'NOTE_ON_62', 'VELOCITY_16', 'TIME_SHIFT_10ms', 'TIME_SHIFT_10ms', 'NOTE_ON_62', 'VELOCITY_15', 'NOTE_ON_42', 'VELOCITY_13', 'NOTE_ON_69', 'VELOCITY_14', 'NOTE_ON_31', 'VELOCITY_22', 'NOTE_OFF_42', 'TIME_SHIFT_230ms', 'TIME_SHIFT_10ms', 'NOTE_OFF_69', 'TIME_SHIFT_10ms', 'TIME_SHIFT_10ms', 'NOTE_OFF_31', 'TIME_SHIFT_50ms', 'NOTE_ON_70', 'VELOCITY_18', 'TIME_SHIFT_10ms', 'TIME_SHIFT_10ms', 'NOTE_OFF_62', 'NOTE_OFF_42', 'NOTE_ON_46', 'VELOCITY_19', 'NOTE_ON_55', 'VELOCITY_16', 'NOTE_ON_38', 'VELOCITY_21', 'TIME_SHIFT_50ms', 'NOTE_OFF_62', 'TIME_SHIFT_160ms', 'TIME_SHIFT_10ms', 'NOTE_OFF_50', 'NOTE_OFF_38', 'TIME_SHIFT_30ms', 'TIME_SHIFT_10ms', 'NOTE_OFF_43', 'TIME_SHIFT_30ms', 'TIME_SHIFT_10ms', 'NOTE_OFF_55', 'TIME_SHIFT_30ms', 'TIME_SHIFT_10ms', 'NOTE_ON_58', 'VELOCITY_15', 'NOTE_ON_42', 'VELOCITY_18', 'NOTE_ON_74', 'VELOCITY_21', 'NOTE_ON_33', 'VELOCITY_21', 'NOTE_ON_58', 'VELOCITY_13', 'NOTE_OFF_46', 'TIME_SHIFT_50ms', 'NOTE_OFF_55', 'NOTE_OFF_70', 'TIME_SHIFT_200ms', 'NOTE_OFF_74', 'TIME_SHIFT_10ms', 'TIME_SHIFT_10ms', 'NOTE_OFF_33', 'TIME_SHIFT_10ms', 'TIME_SHIFT_10ms', 'NOTE_ON_67', 'VELOCITY_19', 'TIME_SHIFT_30ms', 'TIME_SHIFT_10ms', 'NOTE_OFF_58', 'NOTE_OFF_42', 'NOTE_ON_42', 'VELOCITY_17', 'NOTE_ON_62', 'VELOCITY_7', 'NOTE_ON_35', 'VELOCITY_25', 'NOTE_ON_34', 'VELOCITY_20', 'TIME_SHIFT_80ms', 'TIME_SHIFT_10ms', 'NOTE_OFF_62', 'TIME_SHIFT_50ms', 'NOTE_OFF_35', 'NOTE_OFF_58', 'TIME_SHIFT_100ms', 'TIME_SHIFT_30ms', 'TIME_SHIFT_10ms', 'NOTE_OFF_67', 'TIME_SHIFT_30ms', 'TIME_SHIFT_10ms', 'NOTE_ON_69', 'VELOCITY_22', 'NOTE_OFF_34', 'TIME_SHIFT_10ms', 'TIME_SHIFT_10ms', 'NOTE_OFF_42', 'NOTE_OFF_58', 'NOTE_OFF_62', 'NOTE_OFF_55', 'NOTE_ON_50', 'VELOCITY_22', 'NOTE_ON_42', 'VELOCITY_25', 'NOTE_ON_26', 'VELOCITY_21', 'NOTE_ON_62', 'VELOCITY_21', 'NOTE_ON_65', 'VELOCITY_18', 'NOTE_ON_50', 'VELOCITY_19', 'NOTE_ON_35', 'VELOCITY_25', 'NOTE_ON_57', 'VELOCITY_19', 'TIME_SHIFT_50ms', 'TIME_SHIFT_10ms', 'TIME_SHIFT_10ms', 'TIME_SHIFT_250ms', 'NOTE_OFF_42', 'NOTE_ON_57', 'VELOCITY_9', 'NOTE_ON_42', 'VELOCITY_5', 'NOTE_ON_53', 'VELOCITY_16', 'TIME_SHIFT_50ms', 'NOTE_OFF_35', 'TIME_SHIFT_130ms', 'TIME_SHIFT_10ms', 'NOTE_OFF_26', 'TIME_SHIFT_10ms', 'TIME_SHIFT_10ms', 'NOTE_OFF_57', 'TIME_SHIFT_110ms', 'TIME_SHIFT_10ms', 'NOTE_ON_35', 'VELOCITY_25', 'NOTE_ON_65', 'VELOCITY_13', 'NOTE_ON_26', 'VELOCITY_21', 'NOTE_ON_42', 'VELOCITY_11', 'NOTE_ON_57', 'VELOCITY_15', 'NOTE_OFF_42', 'TIME_SHIFT_150ms', 'NOTE_OFF_35', 'TIME_SHIFT_130ms', 'TIME_SHIFT_10ms', 'NOTE_OFF_57', 'TIME_SHIFT_10ms', 'TIME_SHIFT_10ms', 'NOTE_OFF_69', 'TIME_SHIFT_10ms', 'TIME_SHIFT_10ms', 'NOTE_ON_65', 'VELOCITY_20', 'NOTE_ON_38', 'VELOCITY_22', 'NOTE_ON_65', 'VELOCITY_22', 'NOTE_OFF_42', 'NOTE_ON_42', 'VELOCITY_25', 'TIME_SHIFT_60ms', 'TIME_SHIFT_10ms', 'NOTE_OFF_26', 'TIME_SHIFT_80ms', 'TIME_SHIFT_10ms', 'NOTE_OFF_38', 'TIME_SHIFT_60ms', 'TIME_SHIFT_10ms', 'NOTE_OFF_65', 'TIME_SHIFT_10ms', 'TIME_SHIFT_10ms', 'NOTE_OFF_65', 'TIME_SHIFT_60ms', 'TIME_SHIFT_10ms', 'NOTE_ON_57', 'VELOCITY_13', 'NOTE_ON_62', 'VELOCITY_14', 'NOTE_OFF_42', 'NOTE_ON_42', 'VELOCITY_15', 'TIME_SHIFT_280ms', 'TIME_SHIFT_10ms', 'TIME_SHIFT_10ms', 'TIME_SHIFT_10ms', 'NOTE_OFF_62', 'NOTE_OFF_50', 'TIME_SHIFT_10ms', 'TIME_SHIFT_10ms', 'NOTE_ON_42', 'VELOCITY_13', 'NOTE_ON_64', 'VELOCITY_18', 'NOTE_ON_57', 'VELOCITY_10', 'NOTE_OFF_53', 'NOTE_ON_35', 'VELOCITY_25', 'NOTE_OFF_42', 'NOTE_ON_26', 'VELOCITY_22', 'TIME_SHIFT_50ms', 'TIME_SHIFT_80ms', 'TIME_SHIFT_10ms', 'NOTE_OFF_35', 'TIME_SHIFT_60ms', 'TIME_SHIFT_10ms', 'TIME_SHIFT_30ms', 'TIME_SHIFT_10ms', 'NOTE_OFF_57', 'TIME_SHIFT_30ms', 'TIME_SHIFT_10ms', 'TIME_SHIFT_10ms', 'TIME_SHIFT_10ms', 'NOTE_OFF_26', 'TIME_SHIFT_30ms', 'TIME_SHIFT_10ms', 'NOTE_ON_42', 'VELOCITY_27', 'NOTE_ON_26', 'VELOCITY_23', 'NOTE_OFF_42', 'NOTE_ON_35', 'VELOCITY_25', 'NOTE_ON_53', 'VELOCITY_13', 'TIME_SHIFT_30ms', 'TIME_SHIFT_10ms', 'TIME_SHIFT_30ms', 'TIME_SHIFT_10ms', 'TIME_SHIFT_10ms', 'TIME_SHIFT_10ms', 'NOTE_OFF_64', 'TIME_SHIFT_10ms', 'TIME_SHIFT_10ms', 'TIME_SHIFT_80ms', 'TIME_SHIFT_10ms', 'TIME_SHIFT_80ms', 'TIME_SHIFT_10ms', 'NOTE_OFF_35', 'TIME_SHIFT_10ms', 'TIME_SHIFT_10ms', 'TIME_SHIFT_30ms', 'TIME_SHIFT_10ms', 'NOTE_ON_42', 'VELOCITY_13', 'NOTE_OFF_42', 'NOTE_ON_65', 'VELOCITY_9', 'NOTE_ON_57', 'VELOCITY_13', 'TIME_SHIFT_10ms', 'TIME_SHIFT_10ms', 'TIME_SHIFT_30ms', 'TIME_SHIFT_10ms', 'TIME_SHIFT_10ms', 'TIME_SHIFT_10ms', 'NOTE_OFF_57', 'TIME_SHIFT_30ms', 'TIME_SHIFT_10ms', 'NOTE_OFF_26', 'TIME_SHIFT_30ms', 'TIME_SHIFT_10ms', 'TIME_SHIFT_30ms', 'TIME_SHIFT_10ms', 'TIME_SHIFT_50ms', 'TIME_SHIFT_50ms', 'NOTE_OFF_53', 'NOTE_OFF_65', 'TIME_SHIFT_30ms', 'TIME_SHIFT_10ms', 'TIME_SHIFT_10ms', 'TIME_SHIFT_10ms', 'NOTE_OFF_57', 'NOTE_OFF_42', 'NOTE_ON_65', 'VELOCITY_23', 'NOTE_ON_42', 'VELOCITY_13', 'NOTE_ON_26', 'VELOCITY_23', 'NOTE_ON_62', 'VELOCITY_16', 'TIME_SHIFT_10ms', 'TIME_SHIFT_10ms', 'TIME_SHIFT_30ms', 'TIME_SHIFT_10ms', 'TIME_SHIFT_30ms', 'TIME_SHIFT_10ms', 'TIME_SHIFT_30ms', 'TIME_SHIFT_10ms', 'TIME_SHIFT_50ms', 'TIME_SHIFT_150ms', 'NOTE_OFF_42', 'NOTE_ON_53', 'VELOCITY_5', 'NOTE_ON_38', 'VELOCITY_21', 'NOTE_ON_46', 'VELOCITY_19', 'TIME_SHIFT_30ms', 'TIME_SHIFT_10ms', 'TIME_SHIFT_30ms', 'TIME_SHIFT_10ms', 'TIME_SHIFT_10ms', 'TIME_SHIFT_10ms', 'NOTE_OFF_53', 'TIME_SHIFT_10ms', 'TIME_SHIFT_10ms', 'TIME_SHIFT_30ms', 'TIME_SHIFT_10ms', 'TIME_SHIFT_30ms', 'TIME_SHIFT_10ms', 'NOTE_OFF_50', 'TIME_SHIFT_30ms', 'TIME_SHIFT_10ms', 'TIME_SHIFT_10ms', 'TIME_SHIFT_10ms', 'NOTE_OFF_38', 'TIME_SHIFT_30ms', 'TIME_SHIFT_10ms', 'TIME_SHIFT_30ms', 'TIME_SHIFT_10ms', 'NOTE_OFF_62', 'TIME_SHIFT_10ms', 'TIME_SHIFT_10ms', 'TIME_SHIFT_10ms', 'TIME_SHIFT_10ms', 'NOTE_OFF_46', 'NOTE_ON_57', 'VELOCITY_6', 'NOTE_ON_42', 'VELOCITY_18', 'NOTE_ON_57', 'VELOCITY_14', 'TIME_SHIFT_10ms', 'TIME_SHIFT_10ms', 'TIME_SHIFT_30ms', 'TIME_SHIFT_10ms', 'TIME_SHIFT_50ms', 'TIME_SHIFT_50ms', 'NOTE_OFF_26', 'TIME_SHIFT_30ms', 'TIME_SHIFT_10ms', 'TIME_SHIFT_110ms', 'TIME_SHIFT_10ms', 'NOTE_OFF_65', 'NOTE_OFF_65', 'TIME_SHIFT_10ms', 'TIME_SHIFT_10ms', 'NOTE_ON_35', 'VELOCITY_25', 'NOTE_OFF_42', 'NOTE_ON_62', 'VELOCITY_17', 'NOTE_ON_26', 'VELOCITY_23', 'NOTE_ON_42', 'VELOCITY_17', 'TIME_SHIFT_30ms', 'TIME_SHIFT_10ms', 'NOTE_ON_69', 'VELOCITY_20', 'TIME_SHIFT_110ms', 'TIME_SHIFT_10ms', 'NOTE_OFF_57', 'NOTE_OFF_35', 'TIME_SHIFT_10ms', 'TIME_SHIFT_10ms', 'NOTE_OFF_62', 'TIME_SHIFT_10ms', 'TIME_SHIFT_10ms', 'TIME_SHIFT_10ms', 'TIME_SHIFT_10ms', 'NOTE_OFF_69', 'TIME_SHIFT_50ms', 'NOTE_OFF_26', 'TIME_SHIFT_10ms', 'TIME_SHIFT_10ms', 'NOTE_OFF_57', 'TIME_SHIFT_50ms', 'NOTE_OFF_57', 'NOTE_OFF_62', 'NOTE_OFF_42', 'NOTE_OFF_65', 'NOTE_ON_56', 'VELOCITY_17', 'NOTE_ON_28', 'VELOCITY_23', 'NOTE_ON_52', 'VELOCITY_23', 'NOTE_ON_35', 'VELOCITY_25', 'NOTE_ON_68', 'VELOCITY_27', 'NOTE_ON_59', 'VELOCITY_19', 'NOTE_ON_52', 'VELOCITY_18', 'NOTE_ON_42', 'VELOCITY_25', 'NOTE_ON_64', 'VELOCITY_16', 'TIME_SHIFT_50ms', 'TIME_SHIFT_260ms', 'TIME_SHIFT_10ms', 'NOTE_ON_56', 'VELOCITY_10', 'NOTE_OFF_42', 'NOTE_ON_42', 'VELOCITY_5', 'NOTE_ON_56', 'VELOCITY_15', 'TIME_SHIFT_50ms', 'NOTE_OFF_35', 'TIME_SHIFT_110ms', 'TIME_SHIFT_10ms', 'NOTE_OFF_28', 'TIME_SHIFT_150ms', 'NOTE_ON_42', 'VELOCITY_11', 'NOTE_ON_59', 'VELOCITY_11', 'NOTE_ON_28', 'VELOCITY_22', 'NOTE_ON_35', 'VELOCITY_25', 'NOTE_ON_59', 'VELOCITY_16', 'NOTE_OFF_42', 'TIME_SHIFT_150ms', 'NOTE_OFF_35', 'TIME_SHIFT_150ms', 'NOTE_OFF_28', 'TIME_SHIFT_10ms', 'TIME_SHIFT_10ms', 'NOTE_ON_38', 'VELOCITY_22', 'NOTE_ON_64', 'VELOCITY_20', 'NOTE_ON_42', 'VELOCITY_25', 'NOTE_OFF_68', 'NOTE_OFF_59', 'NOTE_OFF_42', 'TIME_SHIFT_10ms', 'TIME_SHIFT_10ms', 'NOTE_ON_64', 'VELOCITY_21', 'TIME_SHIFT_80ms', 'TIME_SHIFT_10ms', 'NOTE_OFF_59', 'TIME_SHIFT_50ms', 'NOTE_OFF_38', 'TIME_SHIFT_60ms', 'TIME_SHIFT_10ms', 'NOTE_OFF_64', 'TIME_SHIFT_100ms', 'NOTE_ON_64', 'VELOCITY_18', 'NOTE_ON_59', 'VELOCITY_11', 'NOTE_ON_42', 'VELOCITY_15', 'NOTE_OFF_42', 'TIME_SHIFT_230ms', 'TIME_SHIFT_10ms', 'NOTE_OFF_59', 'TIME_SHIFT_10ms', 'TIME_SHIFT_10ms', 'NOTE_OFF_64', 'TIME_SHIFT_30ms', 'TIME_SHIFT_10ms', 'NOTE_OFF_56', 'TIME_SHIFT_10ms', 'TIME_SHIFT_10ms', 'NOTE_OFF_56', 'NOTE_OFF_52', 'NOTE_OFF_52', 'TIME_SHIFT_10ms', 'TIME_SHIFT_10ms', 'NOTE_ON_35', 'VELOCITY_25', 'NOTE_ON_42', 'VELOCITY_13', 'NOTE_ON_68', 'VELOCITY_17', 'NOTE_ON_59', 'VELOCITY_11', 'NOTE_OFF_42', 'NOTE_ON_28', 'VELOCITY_22', 'TIME_SHIFT_100ms', 'NOTE_OFF_68', 'TIME_SHIFT_10ms', 'TIME_SHIFT_10ms', 'NOTE_OFF_35', 'TIME_SHIFT_130ms', 'TIME_SHIFT_10ms', 'NOTE_OFF_28', 'TIME_SHIFT_60ms', 'TIME_SHIFT_10ms', 'NOTE_ON_28', 'VELOCITY_22', 'NOTE_ON_56', 'VELOCITY_10', 'NOTE_ON_42', 'VELOCITY_27', 'NOTE_ON_35', 'VELOCITY_25', 'NOTE_OFF_42', 'TIME_SHIFT_100ms', 'NOTE_OFF_59', 'TIME_SHIFT_160ms', 'TIME_SHIFT_10ms', 'NOTE_OFF_35', 'TIME_SHIFT_50ms', 'NOTE_ON_59', 'VELOCITY_13', 'NOTE_ON_42', 'VELOCITY_13', 'NOTE_ON_62', 'VELOCITY_14', 'NOTE_OFF_42', 'TIME_SHIFT_150ms', 'NOTE_OFF_28', 'TIME_SHIFT_10ms', 'TIME_SHIFT_10ms', 'NOTE_OFF_64', 'TIME_SHIFT_100ms', 'NOTE_OFF_56', 'TIME_SHIFT_10ms', 'TIME_SHIFT_10ms', 'NOTE_OFF_62', 'NOTE_ON_64', 'VELOCITY_21', 'TIME_SHIFT_30ms', 'TIME_SHIFT_10ms', 'NOTE_ON_42', 'VELOCITY_13', 'NOTE_ON_59', 'VELOCITY_12', 'NOTE_ON_71', 'VELOCITY_20', 'NOTE_ON_28', 'VELOCITY_21', 'NOTE_OFF_42', 'TIME_SHIFT_80ms', 'TIME_SHIFT_10ms', 'NOTE_OFF_59', 'TIME_SHIFT_210ms', 'TIME_SHIFT_10ms', 'NOTE_OFF_64', 'NOTE_ON_46', 'VELOCITY_19', 'NOTE_ON_56', 'VELOCITY_13', 'NOTE_ON_38', 'VELOCITY_21', 'NOTE_ON_56', 'VELOCITY_7', 'NOTE_OFF_42', 'NOTE_ON_71', 'VELOCITY_23', 'TIME_SHIFT_10ms', 'TIME_SHIFT_10ms', 'NOTE_OFF_28', 'TIME_SHIFT_50ms', 'NOTE_OFF_59', 'TIME_SHIFT_150ms', 'NOTE_OFF_56', 'TIME_SHIFT_10ms', 'TIME_SHIFT_10ms', 'NOTE_OFF_38', 'TIME_SHIFT_80ms', 'TIME_SHIFT_10ms', 'NOTE_ON_74', 'VELOCITY_22', 'NOTE_ON_28', 'VELOCITY_21', 'NOTE_OFF_46', 'NOTE_ON_42', 'VELOCITY_18', 'NOTE_ON_59', 'VELOCITY_11', 'NOTE_ON_59', 'VELOCITY_13', 'TIME_SHIFT_10ms', 'TIME_SHIFT_10ms', 'NOTE_OFF_71', 'TIME_SHIFT_80ms', 'TIME_SHIFT_10ms', 'NOTE_OFF_56', 'TIME_SHIFT_160ms', 'TIME_SHIFT_10ms', 'NOTE_OFF_59', 'TIME_SHIFT_10ms', 'TIME_SHIFT_10ms', 'NOTE_OFF_74', 'NOTE_OFF_28', 'TIME_SHIFT_30ms', 'TIME_SHIFT_10ms', 'NOTE_ON_62', 'VELOCITY_7', 'NOTE_ON_71', 'VELOCITY_20', 'NOTE_ON_35', 'VELOCITY_25', 'NOTE_ON_31', 'VELOCITY_21', 'NOTE_OFF_42', 'NOTE_ON_42', 'VELOCITY_17', 'TIME_SHIFT_150ms', 'NOTE_OFF_35', 'TIME_SHIFT_30ms', 'TIME_SHIFT_10ms', 'TIME_SHIFT_50ms', 'TIME_SHIFT_10ms', 'TIME_SHIFT_10ms', 'NOTE_OFF_62', 'TIME_SHIFT_50ms', 'NOTE_OFF_71', 'TIME_SHIFT_10ms', 'TIME_SHIFT_10ms', 'NOTE_OFF_56', 'NOTE_OFF_59', 'NOTE_ON_45', 'VELOCITY_25', 'NOTE_ON_64', 'VELOCITY_18', 'NOTE_ON_45', 'VELOCITY_17', 'NOTE_OFF_42', 'NOTE_OFF_64', 'NOTE_ON_35', 'VELOCITY_25', 'NOTE_ON_33', 'VELOCITY_22', 'NOTE_ON_61', 'VELOCITY_19', 'NOTE_ON_42', 'VELOCITY_25', 'NOTE_ON_57', 'VELOCITY_22', 'TIME_SHIFT_10ms', 'TIME_SHIFT_10ms', 'NOTE_OFF_71', 'NOTE_OFF_31', 'NOTE_ON_73', 'VELOCITY_22', 'TIME_SHIFT_50ms', 'TIME_SHIFT_60ms', 'TIME_SHIFT_10ms', 'NOTE_OFF_59', 'TIME_SHIFT_180ms', 'TIME_SHIFT_10ms', 'NOTE_ON_52', 'VELOCITY_14', 'NOTE_ON_52', 'VELOCITY_18', 'NOTE_ON_42', 'VELOCITY_5', 'NOTE_OFF_42', 'TIME_SHIFT_50ms', 'NOTE_OFF_35', 'TIME_SHIFT_150ms', 'NOTE_OFF_33', 'TIME_SHIFT_110ms', 'TIME_SHIFT_10ms', 'NOTE_OFF_42', 'NOTE_ON_35', 'VELOCITY_25', 'NOTE_ON_42', 'VELOCITY_11', 'NOTE_ON_55', 'VELOCITY_19', 'NOTE_ON_57', 'VELOCITY_11', 'NOTE_ON_33', 'VELOCITY_22', 'TIME_SHIFT_160ms', 'TIME_SHIFT_10ms', 'NOTE_OFF_35', 'TIME_SHIFT_110ms', 'TIME_SHIFT_10ms', 'NOTE_OFF_33', 'TIME_SHIFT_30ms', 'TIME_SHIFT_10ms', 'NOTE_ON_42', 'VELOCITY_25', 'NOTE_ON_38', 'VELOCITY_22', 'NOTE_OFF_42', 'TIME_SHIFT_160ms', 'TIME_SHIFT_10ms', 'NOTE_OFF_38', 'TIME_SHIFT_60ms', 'TIME_SHIFT_10ms', 'NOTE_OFF_57', 'TIME_SHIFT_60ms', 'TIME_SHIFT_10ms', 'TIME_SHIFT_10ms', 'TIME_SHIFT_10ms', 'NOTE_ON_31', 'VELOCITY_21', 'NOTE_ON_59', 'VELOCITY_17', 'NOTE_ON_61', 'VELOCITY_16', 'NOTE_ON_42', 'VELOCITY_15', 'NOTE_OFF_42', 'TIME_SHIFT_80ms', 'TIME_SHIFT_10ms', 'TIME_SHIFT_150ms', 'TIME_SHIFT_10ms', 'TIME_SHIFT_10ms', 'NOTE_OFF_31', 'TIME_SHIFT_30ms', 'TIME_SHIFT_10ms', 'TIME_SHIFT_30ms', 'TIME_SHIFT_10ms', 'NOTE_ON_61', 'VELOCITY_15', 'NOTE_OFF_61', 'NOTE_ON_42', 'VELOCITY_13', 'NOTE_OFF_42', 'NOTE_ON_57', 'VELOCITY_12', 'NOTE_ON_33', 'VELOCITY_23', 'NOTE_ON_35', 'VELOCITY_25', 'TIME_SHIFT_80ms', 'TIME_SHIFT_10ms', 'TIME_SHIFT_30ms', 'TIME_SHIFT_10ms', 'NOTE_OFF_35', 'TIME_SHIFT_30ms', 'TIME_SHIFT_10ms', 'NOTE_OFF_57', 'TIME_SHIFT_10ms', 'TIME_SHIFT_10ms', 'TIME_SHIFT_30ms', 'TIME_SHIFT_10ms', 'TIME_SHIFT_30ms', 'TIME_SHIFT_10ms', 'NOTE_OFF_33', 'TIME_SHIFT_30ms', 'TIME_SHIFT_10ms', 'NOTE_OFF_59', 'TIME_SHIFT_30ms', 'TIME_SHIFT_10ms', 'TIME_SHIFT_10ms', 'TIME_SHIFT_10ms', 'NOTE_ON_64', 'VELOCITY_18', 'NOTE_ON_42', 'VELOCITY_27', 'NOTE_ON_35', 'VELOCITY_25', 'NOTE_ON_33', 'VELOCITY_24', 'NOTE_OFF_42', 'NOTE_ON_69', 'VELOCITY_9', 'NOTE_ON_57', 'VELOCITY_20', 'TIME_SHIFT_10ms', 'TIME_SHIFT_10ms', 'NOTE_OFF_61', 'TIME_SHIFT_110ms', 'TIME_SHIFT_10ms', 'NOTE_OFF_69', 'TIME_SHIFT_30ms', 'TIME_SHIFT_10ms', 'NOTE_OFF_73', 'TIME_SHIFT_100ms', 'NOTE_OFF_35', 'TIME_SHIFT_10ms', 'TIME_SHIFT_10ms', 'TIME_SHIFT_10ms', 'TIME_SHIFT_10ms', 'NOTE_OFF_52', 'TIME_SHIFT_10ms', 'TIME_SHIFT_10ms', 'NOTE_OFF_42', 'TIME_SHIFT_10ms', 'TIME_SHIFT_10ms', 'NOTE_OFF_64', 'TIME_SHIFT_60ms', 'TIME_SHIFT_10ms', 'TIME_SHIFT_80ms', 'TIME_SHIFT_10ms', 'TIME_SHIFT_100ms', 'TIME_SHIFT_50ms', 'TIME_SHIFT_60ms', 'TIME_SHIFT_10ms', 'TIME_SHIFT_10ms', 'TIME_SHIFT_10ms', 'NOTE_OFF_55', 'TIME_SHIFT_30ms', 'TIME_SHIFT_10ms', 'TIME_SHIFT_60ms', 'TIME_SHIFT_10ms', 'TIME_SHIFT_60ms', 'TIME_SHIFT_10ms', 'TIME_SHIFT_60ms', 'TIME_SHIFT_10ms', 'NOTE_OFF_57', 'NOTE_ON_74', 'VELOCITY_22', 'TIME_SHIFT_60ms', 'TIME_SHIFT_10ms', 'TIME_SHIFT_100ms', 'TIME_SHIFT_50ms', 'TIME_SHIFT_30ms', 'TIME_SHIFT_10ms', 'NOTE_OFF_52', 'TIME_SHIFT_30ms', 'TIME_SHIFT_10ms', 'TIME_SHIFT_10ms', 'TIME_SHIFT_10ms', 'NOTE_OFF_45', 'TIME_SHIFT_300ms', 'TIME_SHIFT_30ms', 'TIME_SHIFT_10ms', 'NOTE_OFF_33', 'NOTE_OFF_45', 'TIME_SHIFT_60ms', 'TIME_SHIFT_10ms', 'TIME_SHIFT_10ms', 'TIME_SHIFT_10ms', 'TIME_SHIFT_30ms', 'TIME_SHIFT_10ms', 'TIME_SHIFT_10ms', 'TIME_SHIFT_10ms', 'TIME_SHIFT_10ms', 'TIME_SHIFT_10ms', 'TIME_SHIFT_30ms', 'TIME_SHIFT_10ms', 'TIME_SHIFT_10ms', 'TIME_SHIFT_10ms', 'TIME_SHIFT_30ms', 'TIME_SHIFT_10ms', 'TIME_SHIFT_30ms', 'TIME_SHIFT_10ms', 'TIME_SHIFT_50ms', 'NOTE_OFF_57', 'NOTE_OFF_74', 'NOTE_OFF_64', 'NOTE_OFF_61', 'NOTE_ON_57', 'VELOCITY_22', 'NOTE_ON_26', 'VELOCITY_23', 'NOTE_ON_62', 'VELOCITY_20', 'NOTE_ON_74', 'VELOCITY_23', 'NOTE_ON_53', 'VELOCITY_19', 'NOTE_ON_50', 'VELOCITY_22', 'TIME_SHIFT_30ms', 'TIME_SHIFT_10ms', 'TIME_SHIFT_50ms', 'NOTE_ON_50', 'VELOCITY_25', 'TIME_SHIFT_30ms', 'TIME_SHIFT_10ms', 'TIME_SHIFT_330ms', 'TIME_SHIFT_10ms', 'NOTE_ON_57', 'VELOCITY_17', 'TIME_SHIFT_30ms', 'TIME_SHIFT_10ms', 'NOTE_ON_57', 'VELOCITY_18', 'TIME_SHIFT_250ms', 'NOTE_ON_62', 'VELOCITY_16', 'NOTE_ON_62', 'VELOCITY_13', 'TIME_SHIFT_180ms', 'TIME_SHIFT_10ms', 'NOTE_OFF_62', 'TIME_SHIFT_10ms', 'TIME_SHIFT_10ms', 'NOTE_ON_64', 'VELOCITY_16', 'TIME_SHIFT_10ms', 'TIME_SHIFT_10ms', 'NOTE_OFF_62', 'TIME_SHIFT_60ms', 'TIME_SHIFT_10ms', 'NOTE_ON_64', 'VELOCITY_13', 'TIME_SHIFT_60ms', 'TIME_SHIFT_10ms', 'NOTE_OFF_64', 'TIME_SHIFT_60ms', 'TIME_SHIFT_10ms', 'NOTE_ON_65', 'VELOCITY_17', 'TIME_SHIFT_60ms', 'TIME_SHIFT_10ms', 'NOTE_OFF_65', 'TIME_SHIFT_10ms', 'TIME_SHIFT_10ms', 'NOTE_OFF_64', 'TIME_SHIFT_10ms', 'TIME_SHIFT_10ms', 'TIME_SHIFT_30ms', 'TIME_SHIFT_10ms', 'NOTE_ON_65', 'VELOCITY_17', 'TIME_SHIFT_60ms', 'TIME_SHIFT_10ms', 'NOTE_OFF_65', 'TIME_SHIFT_150ms', 'NOTE_ON_69', 'VELOCITY_10', 'TIME_SHIFT_60ms', 'TIME_SHIFT_10ms', 'TIME_SHIFT_60ms', 'TIME_SHIFT_10ms', 'NOTE_ON_69', 'VELOCITY_14', 'NOTE_OFF_69', 'TIME_SHIFT_130ms', 'TIME_SHIFT_10ms', 'NOTE_OFF_69', 'TIME_SHIFT_60ms', 'TIME_SHIFT_10ms', 'NOTE_ON_74', 'VELOCITY_16', 'TIME_SHIFT_50ms', 'TIME_SHIFT_80ms', 'TIME_SHIFT_10ms', 'NOTE_OFF_74', 'TIME_SHIFT_30ms', 'TIME_SHIFT_10ms', 'NOTE_ON_74', 'VELOCITY_11', 'NOTE_OFF_57', 'TIME_SHIFT_50ms', 'NOTE_OFF_50', 'TIME_SHIFT_60ms', 'TIME_SHIFT_10ms', 'NOTE_OFF_74', 'TIME_SHIFT_80ms', 'TIME_SHIFT_10ms', 'TIME_SHIFT_80ms', 'TIME_SHIFT_10ms', 'NOTE_ON_77', 'VELOCITY_14', 'TIME_SHIFT_60ms', 'TIME_SHIFT_10ms', 'NOTE_OFF_77', 'TIME_SHIFT_160ms', 'TIME_SHIFT_10ms', 'TIME_SHIFT_180ms', 'TIME_SHIFT_10ms', 'NOTE_ON_81', 'VELOCITY_13', 'TIME_SHIFT_130ms', 'TIME_SHIFT_10ms', 'NOTE_OFF_81', 'TIME_SHIFT_310ms', 'TIME_SHIFT_10ms', 'TIME_SHIFT_110ms', 'TIME_SHIFT_10ms', 'NOTE_ON_86', 'VELOCITY_7', 'TIME_SHIFT_50ms', 'NOTE_OFF_57', 'TIME_SHIFT_100ms', 'NOTE_OFF_86', 'TIME_SHIFT_50ms', 'TIME_SHIFT_60ms', 'TIME_SHIFT_10ms', 'NOTE_OFF_50', 'TIME_SHIFT_250ms', 'NOTE_OFF_57', 'NOTE_OFF_53', 'NOTE_OFF_26', 'NOTE_OFF_62', 'TIME_SHIFT_50ms', 'NOTE_OFF_74', 'TIME_SHIFT_160ms', 'TIME_SHIFT_10ms', 'TIME_SHIFT_100ms', 'NOTE_OFF_0', 'NOTE_OFF_0', 'TIME_SHIFT_10ms', 'TIME_SHIFT_10ms', 'NOTE_OFF_0', 'NOTE_OFF_0']\n"
     ]
    }
   ],
   "source": [
    "def ids_to_tokens(vocab, id_sequence):\n",
    "    # Reverse the vocab (ID -> Token)\n",
    "    id_to_token = {v: k for k, v in vocab.items()}\n",
    "\n",
    "    # Convert token IDs back to tokens\n",
    "    token_sequence = [id_to_token.get(token_id, \"<UNK>\") for token_id in id_sequence]\n",
    "\n",
    "    return token_sequence\n",
    "\n",
    "id_sequence = train_sequences[1]  # Example sequence of token IDs\n",
    "tokens = ids_to_tokens(vocab, id_sequence)\n",
    "\n",
    "print(len(tokens))\n",
    "print(\"Decoded Tokens:\", tokens)\n"
   ]
  },
  {
   "cell_type": "code",
   "execution_count": 7,
   "id": "5f0f8ec2-f2f2-48d2-8385-e92266590d31",
   "metadata": {},
   "outputs": [
    {
     "name": "stdout",
     "output_type": "stream",
     "text": [
      "Min Length: 11\n",
      "Max Length: 206095\n",
      "Mean Length: 22463.30\n",
      "Median Length: 21812.0\n",
      "Number of zero lenght sequences: 0\n"
     ]
    },
    {
     "data": {
      "image/png": "iVBORw0KGgoAAAANSUhEUgAAA1IAAAHWCAYAAAB9mLjgAAAAOnRFWHRTb2Z0d2FyZQBNYXRwbG90bGliIHZlcnNpb24zLjEwLjAsIGh0dHBzOi8vbWF0cGxvdGxpYi5vcmcvlHJYcgAAAAlwSFlzAAAPYQAAD2EBqD+naQAAYulJREFUeJzt3Qd8FGX6wPFnN70HEpIQSOgd6YpgFxQVFex62O4829m9s3CK7bzDrqfHiXp/2x2ep55ix1NQLBQBpRqQHloSQnovO//P84Zds5BAFpJs+30/n3FmZ2Znn50MZp687/uMzbIsSwAAAAAALWZv+a4AAAAAAEUiBQAAAAAeIpECAAAAAA+RSAEAAACAh0ikAAAAAMBDJFIAAAAA4CESKQAAAADwEIkUAAAAAHiIRAoAAAAAPEQiBQAH8MADD4jNZmuXzzrxxBPN5PTVV1+Zz37nnXfa5fOvvPJK6d69u/iysrIy+e1vfytpaWnm3Nx6663eDgl+ZMuWLea6eeKJJ7wdCoAAQCIFIGi8+uqr5ibKOUVGRkp6erpMmDBBnn32WSktLW2Vz9m5c6dJwJYvXy6+xpdja4m//OUv5ud4/fXXyz//+U+57LLLmt23pqZG/vrXv8rw4cMlPj5eEhMTZdCgQXLNNdfI2rVr2zXuQKMJ/+DBg8VXffLJJ+Y6B4C2FNqmRwcAH/TQQw9Jjx49pLa2VnJyckzLj7ZsPPXUU/LBBx/IkCFDXPvee++9cvfdd3ucrDz44IOmdWfYsGEtft///vc/aWsHiu2ll14Sh8MhvmzevHly9NFHy/3333/Qfc877zz59NNP5ZJLLpGrr77a/Lw1gfroo49k7Nix0r9//3aJGd5JpGbMmEEyBaBNkUgBCDqnn366jBo1yvV66tSp5gb9zDPPlLPPPluysrIkKirKbAsNDTVTW6qoqJDo6GgJDw8XbwoLCxNfl5eXJwMHDjzofkuWLDEJ05///Gf54x//6Lbtb3/7mxQVFbVhlACAYEDXPgAQkZNPPlmmTZsmW7dulX/9618HHCP1+eefy7HHHmu6isXGxkq/fv1cN+vaunXkkUea5V//+teuboTaHa1xl6hly5bJ8ccfbxIo53v3HSPlVF9fb/bRcUExMTEm2du2bZvbPtrCpGOc9tX4mAeLrakxUuXl5fL73/9eMjIyJCIiwnxXHV9iWZbbfnqcG2+8UWbPnm2+n+6r3ejmzJnT4gTpqquuktTUVNPlcujQofLaa6/tN15s8+bN8vHHH7ti1zEvTdm4caOZH3PMMfttCwkJkaSkJLd1O3bskN/85jfm852xv/zyy/u9d/v27TJ58mTzc0hJSZHbbrtNPvvsMxOLxujJz8OpurratLD17t3bfLae6zvvvNOsP9RzrN9Hz6d2XdX9tAVWu0Nqd0cnTSa1Jdb5s9XPf/TRR1u1VVJbBI877jhzvuLi4mTixImyZs0at330POm/I41Zz60ud+rUSf7whz+Ya7+xPXv2mO6czq6aV1xxhaxYsWK/61hbo5znzDnt68UXX5RevXqZ767/LjT5bkxbq/XfSdeuXc0+nTt3lkmTJjV7zQEIPrRIAcBeeoOmCYt2sdOuYE3Rm0BtudLuf9pFUG+wNmzYIN99953ZPmDAALP+vvvuM2Nx9CZSaVeyxjeD2ip28cUXy6WXXmpu3g9EW1X0RvCuu+4yCcczzzwj48ePN+OcnC1nLdGS2BrTZEmTti+//NLclGtXQE0a7rjjDnPT+/TTT7vt/+2338q7774rv/vd78xNs4470+512dnZ+yUujVVWVprkQs+jJgp60//222+bG2K92b/llltM7DomShMXvbHV5E7pDXdTunXrZuazZs0yydSBWhVzc3NNd0FnoqLH1ARAv3NJSYmroIXGOW7cOPN9br75ZpOkaEzamnmoNGnRc6znTn8m+j1XrVplzu3PP/9skiZPz7F23zzqqKPMudNjahdG/Xlp0RJt/dSWT52fcMIJZv21114rmZmZsmDBAtM6u2vXLnONHS49N5ro6BhETdD0M59//nnzR4gff/zRLWnXhEn3Gz16tEnUv/jiC3nyySdNoqMJoPNcnXXWWfL999+bdfq93n//ffMZjen30XOgf/DQGJryxhtvmDGRuq/+3B977DE599xzZdOmTa6WWT2v+u/9pptuMrHqvz09pp5rXy/KAqCdWAAQJF555RVtRrGWLFnS7D4JCQnW8OHDXa/vv/9+8x6np59+2rzevXt3s8fQ4+s++nn7OuGEE8y2mTNnNrlNJ6cvv/zS7NulSxerpKTEtf6tt94y6//617+61nXr1s264oorDnrMA8Wm79fjOM2ePdvs+/DDD7vtd/7551s2m83asGGDa53uFx4e7rZuxYoVZv1zzz1nHcgzzzxj9vvXv/7lWldTU2ONGTPGio2NdfvuGt/EiROtg3E4HK5znZqaal1yySXWjBkzrK1bt+6371VXXWV17tzZys/Pd1t/8cUXm+uhoqLCLU49/07l5eVW7969zXr9eXn68/jnP/9p2e1265tvvnHbT68PPeZ3333n8Tm+/PLLzTGbus71vKg//elPVkxMjPXzzz+7bb/77rutkJAQKzs7u4mz6v49Bg0a1Oz20tJSKzEx0br66qvd1ufk5Jhz2ni9nif9Dg899JDbvvrvcOTIka7X//3vf81++nNwqq+vt04++eT9rukbbrjB7d+t0+bNm836pKQkq6CgwLX+/fffN+s//PBD87qwsNC8fvzxxw94HgAEN7r2AUAj2q3oQNX7tDuR0r+EH2oXKG3F0i5DLXX55Zeb1gen888/33Qz0gH1bUmPr93gtPWlMW0N0vt6bbVpTFvJtAXBSVvttAuW/pX/YJ+j3Ra1KISTtgro52q58/nz53scu7YyaOvZww8/LB06dJB///vfcsMNN5iWqosuusg1Rkq/x3//+1/T0qHL+fn5rklbSIqLi+WHH35wxannXc+/k3bN1FafQ6Utb9oKpa0rjT9bu5oqbQ305BzrNamtWPp9Go8DbHxenJ+rLZJ6bhp/rh5fW4e+/vprORzacqPnWH+mjY+v15O2Ou37vdR1113n9lrja3ztaBdGvS4atxbb7Xbzc/WUXgP63Rt/lnJ+nrb0asuddtcsLCz0+PgAggNd+wCgEb1x17EvB7oB+8c//mGeZaTV/LSrl3YJ0ptrvalriS5dunhUWKJPnz773QzreJa2Hquh48W0+1rjJE7pjb9ze2PaPWxferN6sBtRPY5+x33PX3Of40nCes8995hJu6tpQqbl0N966y1zQ65j4Xbv3m1u+HW8jE5N0S5dzjj0vO873kbHjR2q9evXm+ImzXVRdH52S8+xfh/tjniw0uT6uStXrmzx53pKj6+cCeG+NPlrTMfF7RvLvteOnn9NZDV5bUx/Jp7a9zw6kyrn5+m1o90R9Y8G2vVWu35ql179o4Ym/QCgSKQAoFEhAW2BONCNmf6lWv9ar39R16IH+lfy//znP+aGUcdW6V/cD8aTcU0t1dxDg7V1oSUxtYbmPmffwhTeoDfgOiZNx71ogQZNprQ4gbNVUceq7TvWxqlxOfzW/nno5x9xxBGm9H5TtBBEW5xj/dxTTjnFFLVoSt++fT06XlPHVzpGqanEY98xa+11jXpyHnVsnLbsaQuftm5qMZrp06ebMXH6bDIAIJECgL2cA9O1S9eBaMuJtkTppDfA+pBYbfXQ5Eq7RjV3E324f91vfLOnhRka3+DrX9SbKumtf8Xv2bOn67UnsWk3OB30r10dG7dKOR9m6yzocLj0ONo6ojffjVulWvtzlLZE6XnTc6pdzbQVRL+bJjj6sztYnKtXrzbnv/F5XLdu3X77tvTnod30tOqcXkutcd3o99HWHo3zQPRztfX1YN/5UDm7H2rrbmt9hp5//TfmfFyAk/5b2Fdr/RvU76GtUjrpNaMFV7QIRuPKngCCF2OkAGDvg17/9Kc/mYpxU6ZMaXa/goKC/dY5H2zrLFetpZ5Vaz2r6PXXX3cbt6XV17Srmlb+a3zDt2jRIrfy1vocpX3LpHsS2xlnnGESDH3uUmNaUU5vVBt//uHQz9FS09qy51RXVyfPPfecGbOm1eU8pTe9Wl1tX/q9Fy5caBIdTTq0ZUJbqXScVFPJh3aVaxynVoPT8++kN/VNdQls6c/jwgsvNJXz9GHI+9IqgVp+3hOaiGoJ8Q8//FCWLl3abIuLfq6eB21paeoc6fk/HPrHCE3o9I8M+iDkA51XT46px2p8rjT5dpY6b+xw/w3qz7Wqqmq/n6km3fuWpQcQvGiRAhB0tEiCtnbozaKWvtYkSgfH61+8P/jgAzNeozlaPly79unzcHR/HUvy97//3ZTk1rLOzhsuLUoxc+ZMc+OlN3U6wF6TtEPRsWNHc2wtUKHxamlq7X7YeNC9jtnSG/zTTjvN3CTrc5T0r+aNCxN4Gpt2azrppJNMa5uOx9JnO2n3RS20od2e9j32odJiDS+88IIpd67P19LS0vpdtKS8ftd9x2i1hLby/OpXvzLJnhYS0HOoCYs+m0qTIT2us3vXI488Ylo69DzoOdUH/mrCrEUmtEXOmTzrNk0qdZyMxqndBbUVc98xO578PLTkvnYz1EILGoOWatfkVa9PXa+JTlNFIw5Ekxf9OWkC6iyprom3FpjQ8un689cS9nqt67gfPe8jR440SZuWXte49eednJx8wM/RZEiLeezL+ccILXWu32/EiBGmW6UmrprcapdY/Z77JugHowmilnXX1iFthdICHfodnD+fxq1Q+n2UFizRBEx/1hpDS2npeW0l1J+dXg/aFfG9994z//48OQ6AAOftsoEA0N7lz52TlpJOS0uzTjnlFFNKvHGZ7ebKn8+dO9eaNGmSlZ6ebt6vcy2tvW8ZaS2nPHDgQCs0NNStNPOBykY3V/783//+tzV16lQrJSXFioqKMuW/myrj/eSTT5pS6REREdYxxxxjLV26dL9jHii2fcufO8tY33bbbeZ7hoWFWX369DEloZ1ltJ30OFpyel/NlQHfV25urvXrX//aSk5ONuf1iCOOaLJEe0vLn+vxHnnkEfPdtbS5ftcOHTqYUtnvvPNOk/tr/BkZGeZ76nUxbtw468UXX3TbT8/72WefbUVHR5tYb7nlFmvOnDn7lT/35Oehpd4fffRRc13ovhqnlv1+8MEHreLi4kM6xxqnlkHv1KmTOWbPnj3Ne6urq91+tnpdafl2Pef6fcaOHWs98cQTJqYDcZaWb2rS8+ak52TChAmm5HlkZKTVq1cv68orrzTnwklj11LsB/u3p/SxA7/61a+suLg4c0w9lpaI1/3efPNN1351dXXWTTfdZL6/lup3HsdZ/rypsua6Xj9TaSl8PV/9+/c3selnjR492q30PQDY9D/eTuYAAPBXWiJbW+60RUkfLIz2pcUgzjnnHNPapi1dANBeGCMFAAD8go4ba0y7QepYOh2PpV0IAaA9MUYKAAD4hZtuuskkU2PGjDFFH959911ZsGCBGRfWFo8VAIADIZECAAB+QZ/XpuXHtQKiVtXToivaInXjjTd6OzQAQYgxUgAAAADgIcZIAQAAAICHSKQAAAAAwEOMkdr7ZHR9QKM+9LHxA/0AAAAABBfLsqS0tFTS09PFbm++3YlESsQkURkZGd4OAwAAAICP2LZtm3Tt2rXZ7SRSIqYlynmy9FkUAAAAAIJTSUmJaWRx5gjNIZHS0oV7u/NpEkUiBQAAAMB2kCE/FJsAAAAAAA+RSAEAAACAh0ikAAAAAMBDJFIAAAAA4CESKQAAAADwEIkUAAAAAHiIRAoAAAAAPEQiBQAAAAAeIpECAAAAAA+RSAEAAACAh0ikAAAAAMBDJFIAAAAA4CESKQAAAADwEIkUAAAAAHgo1NM3oO1lZ2dLfn6+x+9LTk6WzMzMNokJAAAAwC9IpHwwieo/YIBUVlR4/N6o6GhZm5VFMgUAAAC0MRIpH6MtUZpETbnrcUnN7NXi9+Vmb5RZj95h3k8iBQAAALQtEikfpUlU1z6DvB0GAAAAgCZQbAIAAAAAPEQiBQAAAAAeIpECAAAAAA+RSAEAAACAh0ikAAAAAMBDJFIAAAAA4CESKQAAAADwEM+Rgt/Izs42Dxz2VHJyMg8pBgAAQKsikYLfJFH9BwyQyooKj98bFR0ta7OySKYAAADQakik4Be0JUqTqCl3PS6pmb1a/L7c7I0y69E7zPtJpAAAANBaSKTgVzSJ6tpnkLfDAAAAQJCj2AQAAAAAeIhECgAAAAA8RCIFAAAAAB4ikQIAAAAAD5FIAQAAAICHSKQAAAAAwEMkUgAAAADgIRIpAAAAAPAQiRQAAAAAeIhECgAAAAA8RCIFAAAAAB4ikQIAAAAAD5FIAQAAAIA/JVJff/21nHXWWZKeni42m01mz57t2lZbWyt33XWXHHHEERITE2P2ufzyy2Xnzp1uxygoKJApU6ZIfHy8JCYmylVXXSVlZWVe+DYAAAAAgoVXE6ny8nIZOnSozJgxY79tFRUV8sMPP8i0adPM/N1335V169bJ2Wef7bafJlFr1qyRzz//XD766COTnF1zzTXt+C0AAAAABJtQb3746aefbqamJCQkmOSosb/97W9y1FFHSXZ2tmRmZkpWVpbMmTNHlixZIqNGjTL7PPfcc3LGGWfIE088YVqxAAAAACCox0gVFxebLoDahU8tXLjQLDuTKDV+/Hix2+2yePHiZo9TXV0tJSUlbhMAAAAABFwiVVVVZcZMXXLJJWY8lMrJyZGUlBS3/UJDQ6Vjx45mW3OmT59uWrycU0ZGRpvHDwAAACBw+EUipYUnLrzwQrEsS55//vnDPt7UqVNN65Zz2rZtW6vECQAAACA4eHWMlCdJ1NatW2XevHmu1iiVlpYmeXl5bvvX1dWZSn66rTkRERFmAgAAAICAa5FyJlHr16+XL774QpKSkty2jxkzRoqKimTZsmWudZpsORwOGT16tBciBgAAABAMvNoipc972rBhg+v15s2bZfny5WaMU+fOneX88883pc+1rHl9fb1r3JNuDw8PlwEDBshpp50mV199tcycOdMkXjfeeKNcfPHFVOwDAAAAEJiJ1NKlS+Wkk05yvb799tvN/IorrpAHHnhAPvjgA/N62LBhbu/78ssv5cQTTzTLs2bNMsnTuHHjTLW+8847T5599tl2/R4AAAAAgotXEylNhrSARHMOtM1JW6feeOONVo4MAAAAAPx0jBQAAAAA+CISKQAAAADwEIkUAAAAAHiIRAoAAAAAPEQiBQAAAAAeIpECAAAAAA+RSAEAAACAh0ikAAAAAMCfHsgLHK7y6jpZvq1I1uaUSlxkqAzpmiB9UuIkxG7zdmgAAAAIYCRS8EslVbXy/eYCWburVOoty6wrq66TXcVV8s36fBnaNVFGduvg7TABAAAQoEik4HeqauvlnWXbpbSqzrzunBApwzISpbCiRlZtL5bymnpZuGmPSbb6hXg7WgAAAAQiEin4FW18+iIr1yRRCVFhcurAVElPjHJtH9Wto2TllMi8rDxZs7NEQjswDBAAAACtj7tM+JVNZXbZuLtcdAjUGYPT3JIopWOjBqcnyLG9k83rlYUhEtltqJeiBQAAQKAikYLfCEvpYRIjpYlSSnxks/sOz0yU/mlxYolNkifdJTllDd0AAQAAgNZAIgW/UFnrkE5n3yUOsUnP5BgzJupAbDabjOufIh3CHRISFS+PLygUh6OhKAUAAABwuEik4Bc+2VAhYUldJSrEkvEDU02idDChIXYZk1wnjupy2VxUJx+u3NkusQIAACDwkUjBL6r0fby+3CwPTqyXqLCWl+KLChUpWfyuWX7q85+ltt7RZnECAAAgeJBIwefN/nGHFFU5pK4kT7pGe54IlSx9XxIi7LJ1T4W8vXR7m8QIAACA4EIiBZ+m45pe/GaTWS5Z+oGp1ucpq7ZKzh8Qa5afnbvetHABAAAAh4NECj5t7to82bS7XKLDbFK24rNDPs6pvaKlS2KU5JRUyT8Xbm3VGAEAABB8SKTg016Yv9HMJ/SKFqum8pCPExZik1vG9zHLf/9qg5RW1bZajAAAAAg+JFLwWcu2FsrSrYUmCZrYJ+awj3fu8C7Sq1OMFFbUyqzF2a0SIwAAAIITiRR81ktfN4yNmjysi3SManmlvgOVQ7/2+F5m+d/fZ/NcKQAAAByy0EN/K9B29pRVy+dZuWb5t8f1lPKd6w/reFlZWWbe1XKY8VZawe/VOYtkWFrEAd+XnJwsmZmZh/XZAAAACDwkUvBJn6zOkXqHJYO7xEu/tDj54RCfpVtSsNvML730Ute6DuOvlfiRZ8ldL30o+bOnH/D9UdHRsjYri2QKAAAAbkik4JM+WL7DzCcN7XJYx6ksKzHzidfeI/2GjDTLxTU2+SJHJLbfWLng2XeluV6DudkbZdajd0h+fj6JFAAAANyQSMHn7CiqlCVbCsVmEzlzaOdWOWZSejfp2meQWe4qImsqt8mu4iopjOgsfXp0bJXPAAAAQPCg2AR8zkcrGvrxHdW9o3ROiGqTzziiS4KZr95ZLA6LohMAAADwDIkUfM77yxsSqbOHpbfZZ/RJiZWIULuUVtWZwhMAAACAJ0ik4FM25JXJT7tKJNRukzMGt063vuZKoQ/oHG+WV+8obrPPAQAAQGAikYJP+WBvt77j+3aSDjHhbfpZzu59m/PLpaKmrk0/CwAAAIGFRAo+w7Is+XBvInX20Lbr1ufUMSZcUuIiREdIbdxd3uafBwAAgMBBIgWfsWpHsWkdigyzyykDU9vlM3WslFqfW9ounwcAAIDAQCIFn/Hp6hwzHzcgVWIi2qcyf5/UODPfXlhJ9z4AAAC0GM+RQrvLzs42D7nd18c/7jbzvtGV8sMPP7hty8rKapNYEqLCTPe+vNJqU+hiSNfENvkcAAAABBYSKbR7EtV/wACprHAvOR4SnyJdr39ZLEe93H7JaeKoKmvy/WVlTa8/HH1T40witZ5ECgAAAC1EIoV2pS1RmkRNuetxSc3s5Vq/odQuKwpFOkXZ5PwnX9/vfVnfz5dPX/urVFVVtck4qW835MuOwkopr65rt26FAAAA8F/cMcIrNInq2meQ6/XSH3eISIX0z0iRrt067Ld/bvbGNoslPipMUuMjJLekWjbsLpOhtEoBAADgICg2Aa+rqXOYYg+qR3KMV2Lom9JQdGJ9but3HQQAAEDgIZGC12UXVEi9ZZnCDx2iw7wSQ++9ZdB3FDV07wMAAAAOhEQKXqfPjnK2RtlsNq/EoN370uIjzbJW7wMAAAAOhEQKXmVZlmzZ80si5U3OVqnNe+MBAAAAmkMiBa/SAg8VNfUSHmKXLolRXo2le1K0met4rdp6h1djAQAAgG8jkYJPdOvLTIqWELt3uvU5dYwJl/jIUKl3WLKt0P05VwAAAEBjJFLwqs0+0q1P6fis7kkNcWzJJ5ECAACAjyZSX3/9tZx11lmSnp5ubmJnz5693/iZ++67Tzp37ixRUVEyfvx4Wb9+vds+BQUFMmXKFImPj5fExES56qqrpKyMYgH+QKvj7S6tdutW523d9yZ0Om7LsrwdDQAAAHyVVxOp8vJyGTp0qMyYMaPJ7Y899pg8++yzMnPmTFm8eLHExMTIhAkTpKqqyrWPJlFr1qyRzz//XD766COTnF1zzTXt+C1wOGXPVUpchESH+8azobt2iDJdDEur6qS01rtdDQEAAOC7vHr3evrpp5upKdoa9cwzz8i9994rkyZNMutef/11SU1NNS1XF198sWRlZcmcOXNkyZIlMmrUKLPPc889J2eccYY88cQTpqULvmvr3kQqs6NvtEapsBC7Saa27qmQXVUkUgAAAPCzMVKbN2+WnJwc053PKSEhQUaPHi0LFy40r3Wu3fmcSZTS/e12u2nBak51dbWUlJS4TWhf2m0ue09DItXNR7r1OfXYO04qp9Jn/3kAAADAy3z2TlGTKKUtUI3pa+c2naekpLhtDw0NlY4dO7r2acr06dNNUuacMjIy2uQ7oHnFtTaprK2XsBCbdE7wbtnz5sZJ7am2iS3ct5I8AAAA+AafTaTa0tSpU6W4uNg1bdu2zdshBZ3cvd3munbwftnzfSVEhUmH6DCxxCZRPYZ7OxwAAAD4IJ9NpNLS0sw8NzfXbb2+dm7TeV5entv2uro6U8nPuU9TIiIiTJW/xhPaV+7ebnPdfGh8VGPOcuxRvX7pNgoAAAD4fCLVo0cPkwzNnTvXtU7HMunYpzFjxpjXOi8qKpJly5a59pk3b544HA4zlgq+yRYWYbrNOR/E64ucz5OK6jFKHNRBBwAAgC9V7dPnPW3YsMGtwMTy5cvNGKfMzEy59dZb5eGHH5Y+ffqYxGratGmmEt/kyZPN/gMGDJDTTjtNrr76alMivba2Vm688UZT0Y+Kfb4rIuMIcYhN4iJDJTEqTHxRemKUhNgskdgOkl1cJ7RLAQAAwGcSqaVLl8pJJ53ken377beb+RVXXCGvvvqq3HnnneZZU/pcKG15OvbYY02588jISNd7Zs2aZZKncePGmWp95513nnn2FHyXc9yRduvTBzH7Ih23lRxhmbFcq/Jq5FxvBwQAAACf4tVE6sQTTzTPi2qO3mQ/9NBDZmqOtl698cYbbRQh2kJk9+E+3a3PKSXSIblVdlmVV+3tUAAAAOBjfHaMFAJTfkW9hCdn6pOkJKODbydSnSIbkvyfdtdIXb3D2+EAAADAh5BIoV0tz2lo3ekYbklkWIj4ssQwS+orS6Wi1pLVO3loMwAAAH5BIoV2tTy3IZFK3dva48t0+FZ19iqzvGBjvrfDAQAAgA8hkUK7qXdYstKZSEX5R1e5quyVZr5w4x5vhwIAAAAfQiKFdrNmZ7GU1VjiqC6XDuG+3yKlqrauMPMlWwqkuq7e2+EAAADAR5BIod18s76he1zV1pVi982q5/up3bNNEiPtUlXrkOXZRd4OBwAAAD6CRArt5pv1u828csuP4k+OSAk38wV07wMAAMBeJFJoF+XVdbJsa6FZrtrsX4nU4JQIM2ecFAAAAJxIpNAuvt9cILX1lqTEhEhd0S7xxxapH7cVSkVNnbfDAQAAgA8I9XYACA5f7+3WNzQ1QpaIfynIXi+dopNkd0W9vPnFEhmW1tBCdSDJycmSmakPHgYAAEAgIpFCuxaaGJbW0LrjD0oKGpK/yy67VJJOv0Vih5wiv3/sBSma/9pB3xsVHS1rs7JIpgAAAAIUiRTa3K7iStmQV2Yq9R2xd7yRP6gsKzHzidfeI5E9j5SlBSI9jz9PTrxw0gHfl5u9UWY9eofk5+eTSAEAAAQoEim0W2vUkK6JEhvuf8PyktK7SY/+vWXpgi1SWGuXtJ4DJDTE/74HAAAAWg93g2hz3+5NpI7rkyz+Kj4yVGIiQsRhieSWVHs7HAAAAHgZiRTalMNhybcbnIlUJ/FXNptN0hOizPKO4kpvhwMAAAAvI5FCm/ppV4kUlNdITHiIDM9MFH+WntiQSO0sIpECAAAIdiRSaJfxUWN6JUmYn48rSk+MNPNdxVXisCxvhwMAAAAv8u87W/i8b/Y+P8qfu/U5JcdESHiIXWrqHLKnrMbb4QAAAMCLSKTQZipr6mXplkKzfKwfF5pwstttkpbQ0CpF9z4AAIDgRiKFNrN48x6pqXdIl8Qo6ZkcI4FAv4vaScEJAACAoEYihTYfH6Vlz7XqXSBwjpPaWVQlFuOkAAAAghaJFNr8+VGB0K3PKTU+Uuw2kbLqOimtqvN2OAAAAPASEim0idySKlmXWyraEHVMr8BJpLTyYEoc46QAAACCHYkU2rRb3xFdEqRDTLgEEmf3Ph7MCwAAELxIpNAmvnWVPQ+c1qh9H8y7q6jK26EAAADAS0ik0OocDku+3ZAfMM+P2lfnvSXQ95TXSFVtvbfDAQAAgBeQSKHVZeWUSH5ZjUSHh8iIzA4SaKLDQyUxOsws5xTTKgUAABCMSKTQZtX6ju6ZJOGhgXmJdY5vaJXaVUIiBQAAEIwC8y4XXjVvbV7Ajo9yStvbvY8WKQAAgOBEIoVWVVxRK0u3Fprl8QNSJeATqRIezAsAABCMSKTQqr76OU/qHZb0TY2VjI7REqiSYyIk1G6TmjqHFFbUejscAAAAtDMSKbSqz3/KDfjWKGW32yTVOU6K50kBAAAEHRIptJraeofM/7nh+VHjAjyRUoyTAgAACF4kUmg1SzYXSGlVnSTHhsuwjEQJdGnxv4yTAgAAQHAJ9XYA8F/Z2dmSn99Q6lzN+rHYzIckh8iK5T82+Z6srCwJtBapPWU1ZqxUoJZ6BwAAwP5IpHDISVT/AQOksqLCtS79mpckrENnefOpe+WV9QsP+P6ysjLxd7ERoRIXGWpa4XJLqgK6uAYAAADckUjhkGhLlCZRU+56XFIze0lJrcjnu8LFLpZcffMd0lzjTNb38+XT1/4qVVVVAdO9r7SqzHTvI5ECAAAIHiRSOCyaRHXtM0iWbCnQTm6SkRQj3ft1aXb/3OyNEki0e9/6vDIKTgAAAAQZBnWgVWzOLzfznskxEkw67x0ntauYB/MCAAAEExKpAFNUVS+LN+2R937cLsXt9KDYipo6k0ioHkGWSHWKjRC7TaSytl5Kquq8HQ4AAADaCV37AoC2hPxQECJdb35DfvNBnojoJDK4S7y8ec0YUxShLf2c21A4IjU+QuIiwySYhIbYpVNchOSWVJvufQlRwfX9AQAAghUtUgEgu6BCNpeFSEhUvNhEJKNjlMRHhsrqHSXyu1k/mAfltqWsXSVm3j8tXoJR5/goM2ecFAAAQPAgkQqA1qhFm7TQg0jpDx/JG+emyTd3niyvXzVaosJC5Oufd8sf313VZuN3tFpfXmm12GwifVNjJRg5nye1q6TS26EAAACgnZBI+bmteypM6e0QmyVF370pEaHaJiUyLCNR/var4Wb8ztvLtsvTX6xvk8/fVh5i5t06Rkt0eGhQJ1K7S6ulro1b/wAAAOAbSKT8vTVq8x6z3DPWIY6KIrft4wakysOTjzDLz85dL4s2NezbemySXd5wCQ3oHJzd+pR2o9TWP4clsrus2tvhAAAAINgTqfr6epk2bZr06NFDoqKipFevXvKnP/3JrZuaLt93333SuXNns8/48eNl/fq2aX3xNVv2VJgiB6F2m/SNr29yn1+NzpRLjso0yw9++JPU691+K4noOlAq6m0SHmIPurLnjdlsNrcy6AAAAAh8Pp1IPfroo/L888/L3/72N8nKyjKvH3vsMXnuuedc++jrZ599VmbOnCmLFy+WmJgYmTBhglRVVQXB2KiGFqahXRMlsqGHXZPumNDPtJpoUYj/LNnWajHEDDrRzHunxJrqdcHM2b2PghMAAADBwafvfhcsWCCTJk2SiRMnSvfu3eX888+XU089Vb7//ntXMvHMM8/Ivffea/YbMmSIvP7667Jz506ZPXu2BPoDcLXIQ1iITUZ0Szzgvh1jwuXW8X3N8hP/WyfFlYf/fKmaekui+x9nlvunxUmwS4vfm0iVkEgBAAAEA59OpMaOHStz586Vn3/+2bxesWKFfPvtt3L66aeb15s3b5acnBzTnc8pISFBRo8eLQsXLmz2uNXV1VJSUuI2+Rvns5sGpye0qMjDZWO6Sa9OMVJQXmPGSx2uH3ZVSUhkrESFWNK1Q0P572CWGh9pSs+XVtVJZdO9LAEAABBAfDqRuvvuu+Xiiy+W/v37S1hYmAwfPlxuvfVWmTJlitmuSZRKTU11e5++dm5ryvTp003C5ZwyMjLEn2hL3I6ihlLbPVo4NiksxC73nTXILL+2YItsyGtIxA7V/zY1fH5GtMOMEQp24aF2SYoNN8sF1ZwPAACAQOfTidRbb70ls2bNkjfeeEN++OEHee211+SJJ54w88MxdepUKS4udk3btrXeuKH2oF3zyqrrTGlz59icljihbycZ1z9F6hyWPPjhmkN+ttSyrYWyPKdaLEe99Iij+WXf7n0FNT79zwoAAACtwKfv+O644w5Xq9QRRxwhl112mdx2222mRUmlpaWZeW5urtv79LVzW1MiIiIkPj7ebfInztYo7U6mLU2euPfMgabK3jfr8+XT1c232h3IM180dLUsXz1XYoPz0VFNcia1tEgBAAAEPp9OpCoqKsRudw8xJCREHI6Gh55qWXRNmHQclZOOd9LqfWPGjJFAtb2wIZE6lLFJ2hXwuhN7meWHPvzJtGx5YtnWApOEhdhEihf8x+PPD4YWqcIam4jNp/9pAQAA4DD59N3eWWedJX/+85/l448/li1btsh7770nTz31lJxzzjlmu47N0TFTDz/8sHzwwQeyatUqufzyyyU9PV0mT54sgcrZItUl8dCKPPzuxF6S2THaVJjztPDEM1807H9S9yipK3ZvCQx2Wh1RW/vqLZuEderm7XAAAAAQrImUPi9KS57/7ne/kwEDBsgf/vAHufbaa81DeZ3uvPNOuemmm+Saa66RI488UsrKymTOnDkSGdnysUP+pKSy1lSG0/FR6YeYSEWGhciDkxoKT/zft5tlXU5pi963dEtDa5Q+APj8gbGH9NmBTBN7Z/e+iPT+3g4HAAAAwZpIxcXFmedEbd26VSorK2Xjxo2m9Sk8vKE6mvPm9aGHHjJV+vQhvF988YX07dvwzKRAtH1va1RKnOfjoxo7qV+KnDYoTeodltw7e5U4HFaLW6MuGNVVUmIYHHWg7n0R6f28HQoAAADaEHfDfmbH3vFRXZoZH5WVldXiY53bwyFfrbPJki2Fct8Hq+VPkwY3W8r8le82y7cb8s0DgG84qbfkbV57iN8gsP3SIkUiBQAAEMhIpPx0fNS+hSZKCnab+aWXXurR8aIHnCDJZ/1e/rUoW2xik4cmDdovmXp94RZ58MOfzPLNJ/eRrh2iJW/zYX6RAE+kwpIypLS6oSgKAAAAAg+JlB8prao1z5DSPCc9wT2RqiwrMfOJ194j/YaMbPExc7M3yuyPn5FOE2+Xfy7aasZePXD2L8nUvxZtlfveX2OWrz+xl9x4cu9W/U6BJiosRGJDLSmrs8n6gho5wdsBAQAAoE2QSPlht76UuAgJD216fFRSejfp2qehkERLla+eJw888KDMWFosry3cKl9k5UlcZKhEhIXIim1FZp9rju8pd07o12zXP/yiY7hDyupC5Oc9td4OBQAAAG2ERMoPC00catnzAzm5R7RkZnaTqe+tcnUfdLrq2B4y9fT+JFEt1DHCkuwKkZ8LSKQAAAACFYmUH7ZI6RiltnDhkRlyQr9O5oG/FTV1UlFTb56NNKpbB5IoDxMptX5PjamGaNf+kgAAAAgoh5RI9ezZU5YsWSJJSUlu64uKimTEiBGyadOm1ooPe2liU1TZ0MKRnth2z8hKjY80Ew5dQpgljtoqKZdI2ZRfLr1TeOYWAABAoDmkBxFt2bJF6uvr91tfXV0tO3bsaI24sI89ZTVmnhAVJhGhId4OBwegDVA1ORvM8o/Zhd4OBwAAAN5ukfrggw9cy5999pkkJCS4XmtiNXfuXOnevXvrRgijoLwhkUqK+eVhxPBd1TvWSmTGYPlxW5FcMCrD2+EAAADAm4nU5MmTzVzHy1xxxRVu28LCwkwS9eSTT7ZuhDD27E2kdMwSfF/1znVm/mN2Q9VDAAAABHEi5XA0PGC0R48eZoxUcnJyW8WFfdAi5V9qdjUkUutySqS8uk5iIqjrAgAAIME+Rmrz5s0kUe3IsizZU15tljvGkkj5g/qyAkmODhGHJbJye7G3wwEAAEArO+Q/k+t4KJ3y8vJcLVVOL7/8cmvEhr0qa+ulqrbhHHeMJpHyF32TwiS/ol5+yC6UMb3cK1wCAAAgCFukHnzwQTn11FNNIpWfny+FhYVuE9quYl9oyCH9yOAF/TqGmTnjpAAAAALPIbVIzZw5U1599VW57LLLWj8i7IfxUf6pb1LDz2v5tkLTPZOHGgMAAASOQ2reqKmpkbFjx7Z+NGgSFfv8U48OYRIWYpP8shrZXljp7XAAAADg7UTqt7/9rbzxxhutGQda0iJFoQm/Eh5ik4HpDc9a03FSAAAACPKufVVVVfLiiy/KF198IUOGDDHPkGrsqaeeaq34gp5bxT5apPzO8IxEWbGtyIyTmjSsi7fDAQAAgDcTqZUrV8qwYcPM8urVq922MQ6kdVXUNFTs07NKxT7/MzwzUV5doAUnaJECAACQYE+kvvzyy9aPBAfs1hdPxT6/NLJbBzNfs7NEKmvqJSo8xNshAQAAoBVwZ+7jqNjn37okRklafKTUOSxZvo0y6AAAAEHdInXSSScdsAvfvHnzDicmNELFPv+m/05Gdu8gH6/cxYN5AQAAgj2Rco6PcqqtrZXly5eb8VJXXHFFa8UGk0g1FJqgYp//GpnZkEgt3VLg7VAAAADgzUTq6aefbnL9Aw88IGVlZYcbExpV7Csoo0XK343q3jBOatnWQnE4LLHbKcgCAADg71p1jNSll14qL7/8cmseMqiZin11VOzzdwM6x0tUWIiUVNXJht38oQEAACAQtGoitXDhQomMjGzNQwY1KvYFhrAQuwzLSDTLS7dQBh0AACBou/ade+65+3VB27VrlyxdulSmTZvWWrEFPSr2BVb3voWb9sjSrQXyq9GZ3g4HAAAA3kikEhIS3F7b7Xbp16+fPPTQQ3LqqacebkzYi4p9gWPE3udJ/bCVFikAAICgTaReeeWV1o8E+ymurDXzDiRSfm9EZgfRJwZs2VMhu0urpVNchLdDAgAAQHsnUk7Lli2TrKwsszxo0CAZPnz44RwOzSRSCZFh3g4FhykhKkz6psTJutxSU73vtMFp3g4JAAAA7Z1I5eXlycUXXyxfffWVJCY2DKIvKioyD+p98803pVOnTocTE0TEYYmUVu1NpKJIpAKBPpi3IZEqIJECAADwc4dUCu6mm26S0tJSWbNmjRQUFJhJH8ZbUlIiN998c+tHGYQq6xuSqRC7TWIiQrwdDlrBqL3jpJYyTgoAACA4W6TmzJkjX3zxhQwYMMC1buDAgTJjxgyKTbSS8rqGh7bGR4aKTQfXwO+N3JtIrd5RLFW19RIZRoIMAAAQVC1SDodDwsL2726m63QbWi+Roltf4MjsGC3JsRFSW2/Jyu3F3g4HAAAA7Z1InXzyyXLLLbfIzp07Xet27Nght912m4wbN+5w4sFeZSRSAUdbFo/q0dAq9f3mPd4OBwAAAO2dSP3tb38z46G6d+8uvXr1MlOPHj3Muueee+5w4sFe5XUNcxKpwDK6R5KZL95c4O1QAAAA0N5jpDIyMuSHH34w46TWrl1r1ul4qfHjxx9OLGiErn2BaXTPjma+dEuh1NY7JCzkkP6WAQAAAH9KpObNmyc33nijLFq0SOLj4+WUU04xkyouLjbPkpo5c6Ycd9xxbRVv8BWbIJHyW85nrDXmsCyJDbdJWU29vDP3e+mX7P6w5eTkZMnMzGzHKAEAANDmidQzzzwjV199tUmi9pWQkCDXXnutPPXUUyRSh8keESO1Dlqk/FVJwW4zv/TSS5vc3mnyHyW631i57r4npWTxO27boqKjZW1WFskUAABAICVSK1askEcffbTZ7Vr6/IknnmiNuIJaaGLDw1qjw0ParetXU60nrbl/MKksKzHzidfeI/2GjNxv+/oSu6wsEul/2uVy7OW/cq3Pzd4osx69Q/Lz80mkAAAAAimRys3NbbLsuetgoaGye3fDX+Nx+IlUe7RGHaz15GDKyspaOaLAkZTeTbr2GbTf+ojSaln5fbYU1IZIeq++YrfznDAAAICATqS6dOkiq1evlt69eze5feXKldK5c+fWii1otWcidbDWk+ZkfT9fPn3tr1JVVdWG0QWmpNhwiQi1S3WdQ/JKqyUtIdLbIQEAAKAtE6kzzjhDpk2bJqeddppERrrf/FVWVsr9998vZ555pqcxwIuJ1MFaT5qj3dBwaOw2m3RJjJJN+eWyo6iSRAoAACDQE6l7771X3n33Xenbt6+p3tevXz+zXkugz5gxQ+rr6+Wee+5pq1iDRmhiQ6sehSYCV5cODYnU9sIKGdmt4SG9AAAACNBEKjU1VRYsWCDXX3+9TJ06VSzLMuttNptMmDDBJFO6D1qnRYrS54FLW6TUzqIqUxJdW6kAAADgPzwuCdetWzf55JNPTGWxxYsXm2dK6bKu69GjR6sHuGPHDlMIISkpSaKiouSII46QpUuXurZrMnffffeZsVm6XR8KvH79evFXdQ5LQuM7mWVapAJXp7gICQ+xS029Q3aXVns7HAAAAHjokGtrd+jQQY488kg56qijzHJbKCwslGOOOcZUCvz000/lp59+kieffNLt8x577DF59tlnzYOANbGLiYkxrWP+WgQhv6JebPYQsdssiQkP8XY4aCPaApWe2DA2akdhpbfDAQAAQFt27Wtv+syqjIwMeeWVV1zrGrd6aWuUPiRYx25NmjTJrHv99ddN98LZs2fLxRdfLP4mt7zezGNCLdNlEoGra4do2bKnQrYXVcoIxkkBAAD4lfZ52ush+uCDD2TUqFFywQUXSEpKigwfPlxeeukl1/bNmzdLTk6O6c7nlJCQIKNHj5aFCxc2e9zq6mopKSlxm3xFTlmdmcfQGBUUBSecLVIOR8N4QwAAAPgHn06kNm3aJM8//7z06dNHPvvsM1Pk4uabb5bXXnvNbNckSu1b4EJfO7c1Zfr06Sbhck7a6uUrcst+aZFCYEuJizDPk9JxUjkl/tkVFQAAIFj5dCLlcDhkxIgR8pe//MW0Rl1zzTVy9dVXm/FQh0MrDhYXF7umbdu2iS927UPgj5PK6BhtlrMLKrwdDgAAAAIlkdJKfAMHDnRbN2DAAMnOzjbLaWkNZcJzc3Pd9tHXzm1NiYiIkPj4eLfJV+SWN3Ttiw0jkQoGmSRSAAAAfsmnEymt2Ldu3Tq3dT///LMpwe4sPKEJ09y5c13bdbyTVu8bM2aM+CO69gVnIqVd+2od3o4GAAAAAVG177bbbpOxY8earn0XXnihfP/99/Liiy+aSWlVu1tvvVUefvhhM45KE6tp06ZJenq6TJ48WfxNUUWNlNc2JFDRFJsICvqsMJ2KK2tldxVVGgEAAPyFTydS+pyq9957z4xpeuihh0yipOXOp0yZ4trnzjvvlPLycjN+qqioSI499liZM2eOREY2PKPHnzi7d9WV7pFQe5y3w0E7tkqt2lEseVU+3UAMAACARnz+zu3MM8+UVatWmQfsZmVlmWITjWmrlCZZWqVP9/niiy+kb9++4o96JMfIfcd3lILPD6+YBvyze18uiRQAAIDf4M7Nh8RFhsmwtAipXN/8M7AQeDI6RIl26iurs0lIXCdvhwMAAIAWIJECvCwiLERS4xu6okb1GObtcAAAANACJFKAD3Xvi+w+3NuhAAAAoAVIpABfSqS6DRWHRel7AAAAX0ciBfiAtIRICbVZEhKdIJuLGh7KDAAAAN9FIgX4gBC7TTpFNrRE/bir2tvhAAAA4CBIpAAfkRbpMPNlu6q8HQoAAAAOgkQK8BFpUQ2J1PqCWikor/F2OAAAADgAEinAR0SHitTkbRaHJTL/5zxvhwMAAIADIJECfEjlxiVmPm/tbm+HAgAAgAMgkQJ8MJGavy5P6uobuvoBAADA95BIAT6keuc6iQ23SUlVnSzbWujtcAAAANAMEinAl1gOGZEWYRbnrWOcFAAAgK8ikQJ8zKj0SDP/ci2JFAAAgK8ikQJ8zLC0CPOA3p9zy2RbQYW3wwEAAEATSKQAHxMbbpeRmR3M8pd07wMAAPBJJFKADzp5QIqZz6N7HwAAgE8ikQJ80Lj+DYnUgo17pKy6ztvhAAAAYB8kUoAP6p0SK92ToqWmziHz1/FwXgAAAF9DIgX4IJvNJhMGpZnlz9bkeDscAAAA7INECvBRp+5NpLQMurZMAQAAwHeQSAE+anhGoqTERUhpdZ0s2Jjv7XAAAADQCIkU4KPsdpucMjDVLH+2Jtfb4QAAAKAREinAhznHSX3+U47UOyxvhwMAAIC9SKQAH3Z0zySJiwyV/LIa+SG70NvhAAAAYC8SKcCHhYfaXc+U+mw11fsAAAB8BYkU4ONcZdB/yhHLonsfAACALyCRAnzcCf06SUSoXbYVVErWrlJvhwMAAAASKcD3RYeHyvF9O5nlOat3eTscAAAAkEgB/uGMIxq69328ahfd+wAAAHwAiRTgB8YPSDWFJzbuLpefc8u8HQ4AAEDQC/V2AADcZWVlNbl+aEqYLNlZLf/43w9yyeA4t23JycmSmZnZThECAACARArwESUFu8380ksvbXJ7zMATJfmsP8gb32TJE1dc77YtKjpa1mZlkUwBAAC0ExIpwEdUlpWY+cRr75F+Q0but73WIfLRdkvCkjLkqqffk4TwhrFSudkbZdajd0h+fj6JFAAAQDshkQJ8TFJ6N+naZ1CT27pX7ZRN+eVSEpkqg3oltXtsAAAAaECxCcCP9EmNNfP1eaVU7wMAAPAiEinAj/RMjpUQu00KK2olv6zG2+EAAAAELRIpwI9oCfTuSdFmeUMeZdABAAC8hUQK8DN9UhpKn/9M9z4AAACvIZEC/EyP5BjTva+oolZ2l1V7OxwAAICgRCIF+GH3vp7JMWZ5XU6pt8MBAAAISiRSgB/qm7q3e19umdC7DwAAoP2RSAF+SAtOhIfYpay6TvZU27wdDgAAQNAhkQL8UGiIXXqlNHTv21bBP2MAAID2xh0Y4Kf67e3et10TKXuIt8MBAAAIKn6VSD3yyCNis9nk1ltvda2rqqqSG264QZKSkiQ2NlbOO+88yc3N9WqcQHvI6BAtUWEhUuOwSWT3Yd4OBwAAIKj4TSK1ZMkSeeGFF2TIkCFu62+77Tb58MMP5e2335b58+fLzp075dxzz/VanEB7sdtt0ic11izHDDjB2+EAAAAEFb9IpMrKymTKlCny0ksvSYcOHVzri4uL5f/+7//kqaeekpNPPllGjhwpr7zyiixYsEAWLVrk1ZiB9uzeF93naKmuo3wfAABAe/GLREq77k2cOFHGjx/vtn7ZsmVSW1vrtr5///6SmZkpCxcubPZ41dXVUlJS4jYB/qhzQqREh1hij4iWZbuqvB0OAABA0PD5ROrNN9+UH374QaZPn77ftpycHAkPD5fExES39ampqWZbc/RYCQkJrikjI6NNYgfamo4Z7BrjMMtfZ1d6OxwAAICg4dOJ1LZt2+SWW26RWbNmSWRkZKsdd+rUqaZboHPSzwH8VWZ0QyL1w65qKSyv8XY4AAAAQcGnEyntupeXlycjRoyQ0NBQM2lBiWeffdYsa8tTTU2NFBUVub1Pq/alpaU1e9yIiAiJj493mwB/lRBuSU3uJqlziHy8ape3wwEAAAgKPp1IjRs3TlatWiXLly93TaNGjTKFJ5zLYWFhMnfuXNd71q1bJ9nZ2TJmzBivxg60p7I1X5r5ez/u8HYoAAAAQSFUfFhcXJwMHjzYbV1MTIx5ZpRz/VVXXSW33367dOzY0bQs3XTTTSaJOvroo70UNdD+KrLmS/K4q2TZ1kLJ3lMhmUnR3g4JAAAgoPl0i1RLPP3003LmmWeaB/Eef/zxpkvfu+++6+2wgHZVX1YgR6SEm2VapQAAAIK8RaopX331ldtrLUIxY8YMMwHB7IRuUbIit0ZmL98hN4/rbSr6AQAAoG34fYsUgAaju0RKVFiIbM4vl+Xb3AuwAAAAoHWRSAEBIirMLhMGpZrl2XTvAwAAaFMkUkAAmTy8i5l/uHKX1Gg9dAAAALQJEikggBzbO1k6xUVIQXmNfLkuz9vhAAAABCwSKSCAhIbY5dy9rVJvL93u7XAAAAACFokUEGAuGNXVzLVFandptbfDAQAACEgkUkCA6Z0SJ8MyEqXeYVF0AgAAoI2QSAEB3Cr1zrLtYlmWt8MBAAAIOCRSQAA6a2i6RITaZV1uqazaUeztcAAAAAIOiRQQgOIjw+S0wWlmmaITAAAArY9ECghQF4zMMPP3l++Qqtp6b4cDAAAQUEK9HQCA1pGVleX2OtKyJDnaLvkVdfLix4vk2Myo/d6TnJwsmZmZ7RglAABAYCCRAvxcScFuM7/00kv325Zw7BRJPOYS+fObX0ref6bttz0qOlrWZmWRTAEAAHiIRArwc5VlJWY+8dp7pN+QkW7byutE5uy0JKr7cLnmmXclNuyXbbnZG2XWo3dIfn4+iRQAAICHSKSAAJGU3k269hm03/q11Ttky54KyQ9Llf59kr0SGwAAQKCh2AQQ4I7okmDmP+0qkTqHw9vhAAAABAQSKSDAdU+KkdiIUKmsrZeNeeXeDgcAACAgkEgBAc5ut8mg9HizzMN5AQAAWgeJFBAEBqcniM0msqOoUgrKa7wdDgAAgN8jkQKCQGxkqPRIijHLtEoBAAAcPhIpIEgc0bWh6ETWrhKprafoBAAAwOEgkQKCRLeO0RIfGSrVdQ5Zm1Pq7XAAAAD8GokUECRsNpsMy0g0yz9mF4pleTsiAAAA/0UiBQSRgenxEh5il8KKWsmtsnk7HAAAAL9FIgUEkYjQEBnUpaEU+vrSEG+HAwAA4LdIpIAgM6xromhbVF6VXcKSu3k7HAAAAL9EIgUEmfioMOmVEtuwfOQkb4cDAADgl0ikgCA0IrOh6ETMwJOkqKre2+EAAAD4HRIpIAh1ToiSjuEOsYWGyZwNFd4OBwAAwO+QSAFBqk98Q0vUJxvKpaSq1tvhAAAA+BUSKSBIdYmypCY/W8pqLHntuy3eDgcAAMCvkEgBQcpmEyle8KZZ/se3m6WUVikAAIAWI5ECgljF2m+lS1yIFFfWymsLaJUCAABoKRIpIJhZDrlgYJxZpFUKAACg5UikgCB3TEak9OwUI0UVtfL6wq3eDgcAAMAvkEgBQS7EbpNbxvUxyy99s4lWKQAAgBYgkQIgZw5Jl157W6We/2qjt8MBAADweSRSAEyr1NTTB7jGSm0r4CG9AAAAB0IiBcAYNyBFju2dLDV1Dpn+aZa3wwEAAPBpJFIADJvNJveeOUDsNpFPVuXIok17vB0SAACAzyKRAuDSPy1eLjkq0yz/6aOfpN5heTskAAAAn0QiBcDN7af0lbjIUFmzs0TeWbbN2+EAAAD4JBIpAG6SYiNc5dCnf7pWdpdWezskAAAAn0MiBWA/V4ztLgM6x5ty6Pe9v9rb4QAAAPgcEikA+wkLscvj5w+RULtNPl2dIx+v3OXtkAAAAHyKTydS06dPlyOPPFLi4uIkJSVFJk+eLOvWrXPbp6qqSm644QZJSkqS2NhYOe+88yQ3N9drMQOBYnCXBLn+xF5mWVul9pTRxQ8AAMAvEqn58+ebJGnRokXy+eefS21trZx66qlSXl7u2ue2226TDz/8UN5++22z/86dO+Xcc8/1atxAoLjx5N7SLzVO9pTXyAMf/uTtcAAAAHxGqPiwOXPmuL1+9dVXTcvUsmXL5Pjjj5fi4mL5v//7P3njjTfk5JNPNvu88sorMmDAAJN8HX300V6KHAgMEaEh8vgFQ+Scvy+QD1fslFMHpspZQ9O9HRYAAIDX+XQitS9NnFTHjh3NXBMqbaUaP368a5/+/ftLZmamLFy4sNlEqrq62kxOJSUlbR474KuysrIOus85/WLknawyufPt5WIr2i5DeqSZf2cAAADBym8SKYfDIbfeeqscc8wxMnjwYLMuJydHwsPDJTEx0W3f1NRUs+1AY68efPDBNo8Z8GUlBbvN/NJLLz34zja7pF78Z5HMI+SaVxdL0X+nydrVK0mmAABA0PKbRErHSq1evVq+/fbbwz7W1KlT5fbbb3drkcrIyDjs4wL+pLKsoSV24rX3SL8hIw++f53I3BxLJLWnRI29VPLz80mkAABA0PKLROrGG2+Ujz76SL7++mvp2rWra31aWprU1NRIUVGRW6uUVu3Tbc2JiIgwEwCRpPRu0rXPoBbtG55SLrOX75C4YafL/K2VMmJEm4cHAADgk3y6ap9lWSaJeu+992TevHnSo0cPt+0jR46UsLAwmTt3rmudlkfPzs6WMWPGeCFiILB1S4qR/vEOs/z80iJZvaNh3CIAAECwCfX17nxake/99983z5JyjntKSEiQqKgoM7/qqqtMNz0tQBEfHy833XSTSaKo2Ae0jYEJ9fLj8h9Feo6Sy/+xQB4bnywdo0Ja9N7k5GS6AwIAgIDg04nU888/b+Ynnnii23otcX7llVea5aefflrsdrt5EK9W4pswYYL8/e9/90q8QDAoLdwtu99/TNIue0IKkjPlshe+ldx/3y1WXc1B3xsVHS1rs7JIpgAAgN8L9fWufQcTGRkpM2bMMBOA9ilSYdVUyKDwfNlqzxBJ7ytjp70tRyXVi83W/PtyszfKrEfvoEgFAAAICD6dSAHwXelpaTKkf1d578cdsr0iRNI6JcsxvZO9HRYAAEC78OliEwB8W9cO0XJy/xSzvHRrofyYXejtkAAAANoFiRSAwzIoPUHG9koyy1+vz5e1OQ3PpwIAAAhkJFIADtuobh1kWEbDs9w+/ylXtuSXezskAACANkUiBeCw2Ww2Ob5PsvRLjROHJfLxql2yq7jS22EBAAC0GRIpAK2WTJ0yMFW6dYyWOoclHyzfKQXlBy+JDgAA4I9IpAC0mhC7TSYO6Sxp8ZFSVecwFf1Kq2q9HRYAAECrI5EC0KrCQuxy9rB06RAdJmXVdSaZqqyp93ZYAAAArYpECkCriwoLkcnDu0hsRKgUVtTK7OU7pMbh7agAAABaD4kUgDYRHxkm5wzvYpKqvNJq+S4vVGzhUd4OCwAAoFWQSAFoMx1jwk0yFRFql4Iau6Scd59U11neDgsAAOCwkUgBaFOd4iJMMhVqsyQy8wh55LsCqaplzBQAAPBvJFIA2lxqfKQcm1InjppKWZFbI799bSkFKAAAgF8jkQLQLpIiLMl7+wGJDLXJtxvy5TevLpGKmjpvhwUAAHBISKQAtJvq7Wtk2vEdTTW/hZv2yJWvLJHyapIpAADgf0ikALSrAcnh8vpVR0lcRKh8v7lAfvWPxVJQXuPtsAAAADxCIgWg3Y3I7CD/+u1oSYwOkxXbiuSCmQtkR1Glt8MCAABoMRIpAF4xNCNR3rlujHROiJSNu8vl/OcXyIa8Um+HBQAA0CIkUgC8pndKnPz3+rHSq1OM7CqukvOeXygLNuR7OywAAICDIpEC4FXpiVHy9nVjZXhmohRX1splL38v/1y4xdthAQAAHBCJFACv6xgTLv+++miZPCxd6h2WTHt/jdw7e5XU1ju8HRoAAECTSKQA+ITIsBB5+qJhcudp/cRmE/nXomy5+MVFFKEAAAA+iUQKgM+w2WzyuxN7y4uXjTLl0ZdtLZTTn/la5qzO8XZoAAAAbkikAPicUwamysc3H2cq+5VU1cl1/1om02avlooaHt4LAAB8A4kUAJ+UmRQtb187Rq49vqd5/c9FW2XCM1/Ld1T1AwAAPiDU2wEACC5ZWVke7T8hTaTPmd3l6W9zZVtBpUz5x2K5aFSG/PGMAZIQHdZmcQIAABwIiRSAdlFSsNvML730Uo/fGxUdLT+sWC1vrCmX1xdulf8s3SafZ+XKHRP6yYWjMiTEbmuDiAEAAJpHIgWgXVSWlZj5xGvvkX5DRrb4fbnZG2XWo3dIRUmhPDRphJw5JF3++N4q2ZBXJlPfXSWzFm+VB84aJKO6d2zD6AEAANyRSAFoV0np3aRrn0GH3CVQ/6f1l+Nj5dMNdvnPmlJZvaNEzp+5UI7qEiFTBsdJRsIv3f2Sk5MlMzOzVeMHAABQJFIA/LZLoD0qXhKPv0xih5wq3++olsXbKqR89Twp+u4NqS/ZbboErs3KIpkCAACtjkQKgN93CSyprZc1RTbZWRkisUNOkbgh4yVFiuSHmX+Q/Px8EikAANDqSKQABESXwIEiklNcJd9tzJfthZWSKx0k/ZoX5W/fF8kfu5ZJ75TYdo0XAAAENp4jBSBgpCVEynkjusr5I7tKSqRDbPYQmbelUsY/NV9++9pSWbKlQCzL8naYAAAgAJBIAQg4XRKj5LiUOtn1z9/LUekRYrOJfJGVKxfMXCiTZ3wn7yzbLlW19d4OEwAA+DESKQABq2bnOrn72I7yxe0nyCVHZUh4qF1WbC+WP7y9QsZMnyvTP8mSjbvLvB0mAADwQyRSAAJer06xMv3cIbLw7pPNQ3y1xaqwolZe+HqTjHtyvmml+teirVJcUevtUAEAgJ+g2ASAoJEUGyE3nNRbrjuhl8xbmyf//j5b5v+8W5ZvKzLTAx+skbG9k+X0wWly6sBUsz8AAEBTSKQABDTng3z3lSQiNw4JkSl9Osk32ZXy5ZZK2VpcJ1//vNtM97y3Snp1CJPhaRFm6t0xTELstgN+Fg8ABgAgeJBIAQi6B/k2J7RDukT3O0ai+46ViM59ZH1BrZne+qlMHNXlUr0jS6q2rZHq7T9JTe5GsWqr3N7PA4ABAAgeJFIAgvZBvk3J+n6+fPrabXLqdQ9KbI+hklNlk7xKu9RGxEhUz1FmamBJbKhIYrhDEsMtsYp2ypznpvIAYAAAggSJFICgfpDvvnKzN5p5WufOMmz4ALPssCzJL6uWnUVVsqOoUnYVVUp5Tb2U1YmU1YXI9grdK1Mybpolv/0wV/ovWyTdk2OkR1KM9EiOMcuZHaNN1UAAABAYSKQA4CDsNpukxEWaaVhGollXXl0nu8uqZXdpw7SroFTK6mxSUOmQBRv3mMn9GCJdOkRJt44xktEx2iRWGR2jzFynhKgwsekDrwAAgF8gkQKAQxATEWqm7kkx5vX29QXy9G1T5F8fzpOwjl1ky55y2ZJfIZvzy81yRU29bCuoNFOTxwu3S0q0XVJjQiUlJkTSYkOkS3yoZMSHSkKEvdkkiwIXAAB4B4kUALQSq6ZS+ieHy4gRGe7rLcu0Wm3KL5dtBRUNU2GlZBdUmEm3ldc4ZLNORXX7Hbe+slRq92xzn3ZvlfrSfApcAADgJSRSANDGtDUpJT7STEf31MLr7hZ+v0xOOOMcGf/bP0pYh85SXmeTslqblNbZpLxOJCQqTkK6DpTIrgPd3hci9VK+fZ08PGejHDPYIX1T46RfWpx0jAlvx28HAEBwCphEasaMGfL4449LTk6ODB06VJ577jk56qijvB0WgCDT3HOrDmTT+rWmlWlAZqp07dNQ4MKprt4hhRW1UlBeIwUVNVJYXiN7ymukqKJG6q0Qk1z9b1OF/G/TGtd7EiPtkpkQKpnxYQ3zhIYuglFhvxS7oEsgAKAtZGdnmwq2nvLH30sBkUj95z//kdtvv11mzpwpo0ePlmeeeUYmTJgg69atk5SUFG+HByAIHMpzq/ZVVla237rQELt0ioswU2P1DkuWLvpOPvzPaxKe3E3COunUXcIS06SoyiFFVTWyMrfG7T11RTlSV5wrdSW7xVZZJA/ceYsM7tlF0hMipXNilMRGBMSvBACAF5Oo/gMGSGVFhYg9VGxhEWIPixBbaIRZNq8bLTvX6z5hUbHy2qNTZeJo9z8o+rKA+K351FNPydVXXy2//vWvzWtNqD7++GN5+eWX5e677/Z2eACCwKE+t+qXZ1f9Vaqq3B/weyAhdpuEVhZIRdbXcpL5zBFmfZ2jRkpqbVJcazNzM9XYpMphk9DENDM5Pf7VDhGd9goPsUt8VKjER4ZJXFSYxEeGSryZh0lkmN2Ub9d9zBRql7C9c43Ftre6oS7Y9nZn1EqFDatsDXNbw366rPtSoxDwDutg2w+yg3WQIxz8/Qf7/IPt4cXY2/i7HXBrO/xcausdUlPnkJp6h9TWWQ2v3db98rqytl4qa+qlSud7p9KKakm+5lWxR0Tp/+3FUws37CaRak81NTWybNkymTp1qmud3W6X8ePHy8KFC5t8T3V1tZmciouLzbykpOFGyJucf5Hevn6NVFeah9N49OybnC0/y8aYaN53mO/zp1h5n2+9r7am2qN/u873tOZnah3BmBCR9BARiWxYV1MvUlJnk6p6m+wuKJSslT/KsLEnSbU9UvIr9ReiJZrGVVWI5HkUPQAA7hzVv1SotYklIeYPaGLmofaG165Jf49VlciWlUskdeQFPnE/7ozhYImvzTqctN8H7Ny5U7p06SILFiyQMWPGuNbfeeedMn/+fFm8ePF+73nggQfkwQcfbOdIAQAAAPiLbdu2SdeuXQO3RepQaOuVjqlycjgcUlBQIElJSV5/IKZmwBkZGeYHFx8f79VYgAPhWoW/4FqFv+Bahb8I9GvVsiwpLS2V9PT0A+7n94mUVvgICQmR3Nxct/X6Oi3tl7EAjUVERJipscTERPElelEG4oWJwMO1Cn/BtQp/wbUKfxEfwNdqQkLCQff5pRaunwoPD5eRI0fK3Llz3VqY9HXjrn4AAAAA0Fr8vkVKaTe9K664QkaNGmWeHaXlz8vLy11V/AAAAACgNQVEInXRRRfJ7t275b777jMP5B02bJjMmTNHUlNTxd9ol8P7779/v66HgK/hWoW/4FqFv+Bahb/gWg2Qqn0AAAAA0N78fowUAAAAALQ3EikAAAAA8BCJFAAAAAB4iEQKAAAAADxEIuVDZsyYId27d5fIyEgZPXq0fP/9994OCQHkgQceEJvN5jb179/ftb2qqkpuuOEGSUpKktjYWDnvvPP2e9B1dna2TJw4UaKjoyUlJUXuuOMOqaurc9vnq6++khEjRphKPr1795ZXX311v1i41tHY119/LWeddZZ5grxel7Nnz3bbrjWRtCpr586dJSoqSsaPHy/r169326egoECmTJliHgypD1i/6qqrpKyszG2flStXynHHHWeuu4yMDHnsscf2i+Xtt982/y50nyOOOEI++eQTj2NB8F6rV1555X7/nz3ttNPc9uFaRVubPn26HHnkkRIXF2d+V0+ePFnWrVvnto8v/c6vakEsPkur9sH73nzzTSs8PNx6+eWXrTVr1lhXX321lZiYaOXm5no7NASI+++/3xo0aJC1a9cu17R7927X9uuuu87KyMiw5s6day1dutQ6+uijrbFjx7q219XVWYMHD7bGjx9v/fjjj9Ynn3xiJScnW1OnTnXts2nTJis6Otq6/fbbrZ9++sl67rnnrJCQEGvOnDmufbjWsS+9lu655x7r3Xff1Sqy1nvvvee2/ZFHHrESEhKs2bNnWytWrLDOPvtsq0ePHlZlZaVrn9NOO80aOnSotWjRIuubb76xevfubV1yySWu7cXFxVZqaqo1ZcoUa/Xq1da///1vKyoqynrhhRdc+3z33Xfmen3sscfM9XvvvfdaYWFh1qpVqzyKBcF7rV5xxRXmWmz8/9mCggK3fbhW0dYmTJhgvfLKK+b6Wb58uXXGGWdYmZmZVllZmU/+zr/uILH4MhIpH3HUUUdZN9xwg+t1fX29lZ6ebk2fPt2rcSGwEin95d2UoqIi80v47bffdq3LysoyNwoLFy40r/V/ona73crJyXHt8/zzz1vx8fFWdXW1eX3nnXeaZK2xiy66yPxP3YlrHQey782pw+Gw0tLSrMcff9zteo2IiDA3mEp/gev7lixZ4trn008/tWw2m7Vjxw7z+u9//7vVoUMH17Wq7rrrLqtfv36u1xdeeKE1ceJEt3hGjx5tXXvttS2OBcGjuURq0qRJzb6HaxXekJeXZ667+fPn+9zv/KIWxOLL6NrnA2pqamTZsmWm2d3Jbreb1wsXLvRqbAgs2q1Du6T07NnTdC3RZnul119tba3bNahdRjIzM13XoM61+0jjB11PmDBBSkpKZM2aNa59Gh/DuY/zGFzr8NTmzZvNg9YbXzMJCQmme0jja1O7SI0aNcq1j+6v19bixYtd+xx//PESHh7udm1qd5fCwsIWXb8tiQXQrk7aDapfv35y/fXXy549e1zbuFbhDcXFxWbesWNHn/udv6wFsfgyEikfkJ+fL/X19W4Xq9LX+j9CoDXoL1Dtuzxnzhx5/vnnzS9a7YNfWlpqrjP9pa2/4Ju7BnXe1DXq3HagffR/vJWVlVzr8JjzujjQNaNzvXFtLDQ01Nw0tMb123j7wWJBcNPxUK+//rrMnTtXHn30UZk/f76cfvrp5v97imsV7c3hcMitt94qxxxzjAwePNis86Xf+TktiMWXhXo7AADtQ3+ZOw0ZMsQkVt26dZO33nrLDEQGAByeiy++2LWsf83X/9f26tXLtFKNGzfOq7EhOGkRh9WrV8u3337r7VACEi1SPiA5OVlCQkL2q1Cir9PS0rwWFwKb/vWnb9++smHDBnOdaRN8UVFRs9egzpu6Rp3bDrSPVqfSZI1rHZ5yXhcHumZ0npeX57ZdK0tpdbTWuH4bbz9YLEBj2o1a/7+n/59VXKtoTzfeeKN89NFH8uWXX0rXrl1d633pd35aC2LxZSRSPkCbNEeOHGm6AjRuitXXY8aM8WpsCFxabnfjxo2mNK5ef2FhYW7XoPbH1zFUzmtQ56tWrXK7Cfj888/N/zAHDhzo2qfxMZz7OI/BtQ5P9ejRw/wybXzNaLcRHU/S+NrUX8La195p3rx55trSllfnPlq6WvviN742dRxLhw4dWnT9tiQWoLHt27ebMVL6/1nFtYr2oLVQNIl67733zPWl10NjvvQ7f2QLYvFp3q52gV/KQ2o1nVdffdVU9bnmmmtMecjG1VKAw/H73//e+uqrr6zNmzeb0rla0lRLmWo1H2f5US2POm/ePFN+dMyYMWbatxTqqaeeasqpannTTp06NVkK9Y477jBVd2bMmNFkKVSudTRWWlpqyuvqpL+WnnrqKbO8detWVxlnvUbef/99a+XKlaYqWlPlz4cPH24tXrzY+vbbb60+ffq4lZTWylBaUvqyyy4zJYH1OtRrdd+S0qGhodYTTzxhrl+tdNlUSemDxYLgvFZ12x/+8AdTaUz/P/vFF19YI0aMMNdiVVWV6xhcq2hr119/vSl9r7/zG5fir6iocO3jS7/zrztILL6MRMqHaP19vZC03r6Wi9RnTACtRUuSdu7c2VxfXbp0Ma83bNjg2q6/XH/3u9+Zsrv6P8ZzzjnH/I+3sS1btlinn366eaaJJmGanNXW1rrt8+WXX1rDhg0zn9OzZ0/zLIt9ca1j32tGb0r3nbSUtLOU87Rp08zNpf5CHjdunLVu3Tq3Y+zZs8fcjMbGxpryvL/+9a/NjW1j+iydY4891hxD/w3ojea+3nrrLatv377m2tSyvh9//LHb9pbEguC8VvUmVW869WZTk5pu3bqZZ+bs+0cirlW0taauUZ0a/z72pd/5lS2IxVfZ9D/ebhUDAAAAAH/CGCkAAAAA8BCJFAAAAAB4iEQKAAAAADxEIgUAAAAAHiKRAgAAAAAPkUgBAAAAgIdIpAAAAADAQyRSAAAAAOAhEikAAAKYzWaT2bNnezsMAAg4JFIAgAPavXu3XH/99ZKZmSkRERGSlpYmEyZMkO+++87bofkMX0hWHnjgARk2bJhXYwCAYBLq7QAAAL7tvPPOk5qaGnnttdekZ8+ekpubK3PnzpU9e/Z4OzQAALyGFikAQLOKiorkm2++kUcffVROOukk6datmxx11FEydepUOfvss932++1vfyudOnWS+Ph4Ofnkk2XFihVux3rkkUckNTVV4uLi5KqrrpK7777brQXlxBNPlFtvvdXtPZMnT5Yrr7zS9bq6ulr+8Ic/SJcuXSQmJkZGjx4tX331lWv7q6++KomJifLZZ5/JgAEDJDY2Vk477TTZtWuX23FffvllGTRokGlh69y5s9x4440efRdP/eMf/zDxREZGSv/+/eXvf/+7a9uWLVtMi9a7775rznF0dLQMHTpUFi5c6HaMl156STIyMsz2c845R5566inzXZ3f+8EHHzRx6rF00nVO+fn55j363j59+sgHH3xwWN8HAEAiBQA4AE1EdNJua5rENOeCCy6QvLw8+fTTT2XZsmUyYsQIGTdunBQUFJjtb731lul69pe//EWWLl1qkpfGyURLacKjCcabb74pK1euNJ+ridL69etd+1RUVMgTTzwh//znP+Xrr7+W7Oxsk3w5Pf/883LDDTfINddcI6tWrTJJRe/evVv8XTw1a9Ysue++++TPf/6zZGVlmXMwbdo008LX2D333GPiXL58ufTt21cuueQSqaurM9u0G+V1110nt9xyi9l+yimnmOM5XXTRRfL73//eJIeaNOqk65w0ybrwwgvNOTvjjDNkypQph/x9AAB7WQAAHMA777xjdejQwYqMjLTGjh1rTZ061VqxYoVr+zfffGPFx8dbVVVVbu/r1auX9cILL5jlMWPGWL/73e/cto8ePdoaOnSo6/UJJ5xg3XLLLW77TJo0ybriiivM8tatW62QkBBrx44dbvuMGzfOxKReeeUVS3+1bdiwwbV9xowZVmpqqut1enq6dc899zT5XVvyXZqin/nee+81uU3f+8Ybb7it+9Of/mTOidq8ebN5/z/+8Q/X9jVr1ph1WVlZ5vVFF11kTZw40e0YU6ZMsRISElyv77//frfz2Ti2e++91/W6rKzMrPv000+b/T4AgIOjRQoAcNAxUjt37jQtN9r6o13ptJXG2XVMu5OVlZVJUlKSqwVLp82bN8vGjRvNPtoSo93wGhszZoxHcWjrUX19vWmtafw58+fPd32O0u5rvXr1cr3W1i9tYVI61++iLUxNacl38UR5ebl5n3ZlbHy8hx9+eL/jDRkyxC1mZ7xq3bp1pktlY/u+PpDGx9Yukdpl0XlsAMChodgEAOCgdGyPdifTSbul6Rii+++/34xf0sRDb/wbj1Vyco7haQm73a69JNzW1dbWupb1c0JCQkx3O503psmJU1hYmNs2HS/kPG5UVNQBY2it79L4eM7xTfsmkvt+h8Zxa8zK4XBIa2jqnLTWsQEgWJFIAQA8NnDgQFe5b22dysnJkdDQUOnevXuT+2uhhcWLF8vll1/uWrdo0SK3fbS4Q+OiENr6tHr1alOAQQ0fPtys05aU44477pDi1kIXGqNWHXQet7GWfBdPaHGN9PR02bRpkxmXdKj69esnS5YscVu37+vw8HBzfgAA7YNECgDQLC1xrsUXfvOb35juYZqIaLGIxx57TCZNmmT2GT9+vOmmpxX2dL12vdPucx9//LGpFDdq1ChTJEFbr3T5mGOOMQUY1qxZY8qpO2l1vNtvv928T7vmaVU6raDnpMfVZESTsSeffNIkVvqMK02KNLaJEye26Dtp0Qst3JCSkiKnn366lJaWmmION910U4u+S3O0+58WgmhMK+RpoYebb75ZEhISTNdILdqh57CwsNB835bQ2I4//nhzTs466yyZN2+eKYbhbLlSmvg5Y+jatav5WWlVQgBAG2nBOCoAQJDSogt33323NWLECFPYIDo62urXr58pXlBRUeHar6SkxLrppptMIYewsDArIyPDFEPIzs527fPnP//ZSk5OtmJjY00BiTvvvNOtOEJNTY11/fXXWx07drRSUlKs6dOnuxWbcO5z3333Wd27dzef07lzZ+ucc86xVq5c6So20bgAg9IiEPv+ups5c6b5Hs5jaOyefJd96fGbmrR4hZo1a5Y1bNgwKzw83BTuOP744613333XrdjEjz/+6DpeYWGhWffll1+61r344otWly5drKioKGvy5MnWww8/bKWlpbn9rM477zwrMTHRvFfPRXOFMPQcObcDAA6NTf/TVkkaAAAHahnS7oH7tuKgZa6++mpZu3atec4XAKD90bUPAAA/oM/G0mIfWnVPu/Xpc6gO5VlcAIDWQSIFAIAf+P777824LR3TpWPLnn32WVM9EQDgHXTtAwAAAAAP8UBeAAAAAPAQiRQAAAAAeIhECgAAAAA8RCIFAAAAAB4ikQIAAAAAD5FIAQAAAICHSKQAAAAAwEMkUgAAAAAgnvl/2giRiO1ctzcAAAAASUVORK5CYII=",
      "text/plain": [
       "<Figure size 1000x500 with 1 Axes>"
      ]
     },
     "metadata": {},
     "output_type": "display_data"
    }
   ],
   "source": [
    "seq_lengths = []\n",
    "num_zero_len = 0\n",
    "for seq in train_sequences:\n",
    "    seq_lengths.append(len(seq))\n",
    "    if len(seq) == 0:\n",
    "        num_zero_len += 1\n",
    "\n",
    "# Statistics\n",
    "print(f\"Min Length: {np.min(seq_lengths)}\")\n",
    "print(f\"Max Length: {np.max(seq_lengths)}\")\n",
    "print(f\"Mean Length: {np.mean(seq_lengths):.2f}\")\n",
    "print(f\"Median Length: {np.median(seq_lengths)}\")\n",
    "print(f\"Number of zero lenght sequences: {num_zero_len}\")\n",
    "\n",
    "# Histogram of sequence lengths\n",
    "plt.figure(figsize=(10, 5))\n",
    "sns.histplot(seq_lengths, bins=50, kde=True)\n",
    "plt.xlabel(\"Sequence Length\")\n",
    "plt.ylabel(\"Count\")\n",
    "plt.title(\"Distribution of Sequence Lengths\")\n",
    "plt.show()\n"
   ]
  },
  {
   "cell_type": "code",
   "execution_count": 9,
   "id": "9c5d61a1-fbc2-42ef-992e-84607ed9f588",
   "metadata": {},
   "outputs": [
    {
     "name": "stdout",
     "output_type": "stream",
     "text": [
      "Top 20 Most Frequent Tokens:\n",
      "TIME_SHIFT_10ms: 6024382\n",
      "TIME_SHIFT_20ms: 485016\n",
      "VELOCITY_25: 406238\n",
      "NOTE_ON_42: 386689\n",
      "NOTE_OFF_42: 386662\n",
      "TIME_SHIFT_30ms: 365672\n",
      "VELOCITY_32: 346969\n",
      "VELOCITY_20: 315293\n",
      "VELOCITY_23: 282887\n",
      "VELOCITY_21: 250825\n",
      "VELOCITY_24: 250398\n",
      "VELOCITY_28: 233252\n",
      "VELOCITY_22: 221399\n",
      "VELOCITY_18: 218582\n",
      "VELOCITY_16: 217284\n",
      "TIME_SHIFT_40ms: 215991\n",
      "VELOCITY_26: 215753\n",
      "TIME_SHIFT_50ms: 211109\n",
      "VELOCITY_19: 206074\n",
      "NOTE_OFF_64: 193050\n"
     ]
    },
    {
     "data": {
      "image/png": "iVBORw0KGgoAAAANSUhEUgAAA9wAAAJFCAYAAAAvTv8iAAAAOnRFWHRTb2Z0d2FyZQBNYXRwbG90bGliIHZlcnNpb24zLjEwLjAsIGh0dHBzOi8vbWF0cGxvdGxpYi5vcmcvlHJYcgAAAAlwSFlzAAAPYQAAD2EBqD+naQAAYs9JREFUeJzt3Qm8zPX++PH3sctybBFZK7tE0qZFVBJF3darSKmbq6JVukVaSIvqtlKhjbotSopKlgolXIQIKUqWEgeF8P0/3p//nfnNGedwnM535vOeeT0fj2FmvnPOec9nPvP9ft/fz5YRBEEgAAAAAACgQBUq2F8HAAAAAAAUCTcAAAAAACEg4QYAAAAAIAQk3AAAAAAAhICEGwAAAACAEJBwAwAAAAAQAhJuAAAAAABCQMINAAAAAEAISLgBAAAAAAgBCTcAAPBG7dq1pWPHjmIp3iuuuCLZYQAAPEXCDQAJkpGRkafb1KlTQ41j9erVMnDgQDn22GOlfPnyUqlSJWndurVMmjQpx9dv2rRJrrnmGjn44IOlVKlSctppp8ncuXPz9Lf09+p7qlu3bo7bP/744+j7fvPNNyUMH3zwgdx99915fn0k5pxuS5YskXTx+++/u3LLS33UpDMvdXvUqFEJid0yLfPYMjvooIOkZs2acs4558jIkSNlx44dCfsuhG3QoEHyzjvvJDsMAAhVkXB/PQAg4uWXX872+KWXXnIJZ/zzDRs2DDWOd999V4YMGSKdO3eWbt26ya5du1wsZ5xxhowYMUK6d+8efe2ePXukQ4cOMn/+fLn11ltdcv7000+7pHTOnDm5JtKxSpQoIcuXL5dZs2a5JD/Wq6++6rZv375dwqJJxlNPPXVAiUb16tVl8ODBez1frVo1SaeEWy/MKP289+Wxxx6TrVu3ZivzMWPGyKOPPurqTMSJJ54oqWbp0qVSqFDBt18888wzUrp0aZdg//TTT/Lhhx/KlVde6cp6/PjxUqNGjYR8F8JOuC+44AK3LwKAVEXCDQAJctlll2V7/MUXX7iEO/75sGkL9apVq7IlQtdee600a9ZM+vfvny3h1lbnGTNmyBtvvOFOjNVFF10k9erVkwEDBsjo0aP3+/cOP/xwl9RrAhabcGuSPXbsWJfQv/XWW+KTzMzMA/pctm3b5lr/01V8wrR27Vr3eevz2vqdyooXLx7K79XvW+x3VL+beoGqa9eucuGFF7r9BwDAf3QpBwCPaOJ28803u9YrPZGvX7++PPzwwxIEQbbXaVfT6667zp2A62u0lbhFixby6aef7vdvNG7cONuJvNK/dfbZZ8uPP/4oW7ZsyZZwV6lSRc4///zoc9q1XJNubSnPa/fWSy+9VF5//XXXYh7x3nvvuVZU/V05+e9//yvt27eXsmXLupa+tm3b7pVk/Pnnn64VVlvatQwqVqwoJ510kruQoXRsrbboRcoscvsr9HdqPCtWrHBlVqZMGenSpYvbpu9PWyC1jDUeLbt//OMf8ttvv2X7Hfp53nfffa4lXbsM60WQRYsW7TUeONK9OJ52zdbnv//++2zPT5gwQU4++WSX/GtcejFDf29O8WurqSbEel8/01tuuUV2797tXqO/V59TWr6RcvsrLaN60eXee+91F2C0vul7veOOO/JUh1588UUpUqSI62UR8eWXX8pZZ53lLo5oGZ566qkyffr0bD8XKT/tYaHvu1y5cu71elFJ614srTNad/Q1Wib6vdL49if+M4t8NhrLTTfdFB2Kcd5558mGDRvkr9B61qNHD/feI3VcffbZZy4J167nWra6/7jxxhvljz/+iL5mf98F3c9oDwT9DpUsWdLtT3Ia5pGXctLPVC/IHXHEEdF4brvttmyftf5t3d/pZxuJhbHwAFIRLdwA4AlNws4991yZMmWKXHXVVa7FWbuRapKhyZF2z401bdo0l8TecMMN7qRWu3prAqJdt5s0aXLAf19bJTVx0Vts0nv00Ufv1WVWW6qHDx8u3377rRx55JH7/d1///vfo+OB27Rp457T1nFNoitXrrzX6zVJ1MRRk209US9atKgMGzbMdW3W933ccce51+nv1K7fmoRoTFlZWTJ79mw3xly7yGuyu2bNmhy77u+LJp6//PJLtuc0gdYEI5I8tmvXziUemqhEykz/niZcmtDp57Jy5Up58sknXTlqAqbvI9JaqQm3Jux603jPPPNM2blzp+SXvj8dIqBx6ZABTSi1W7LGqH8/tqVZ35++TstR49fx+4888ohLhnv27OmSRP1Zva+JYuSCS9OmTfMdn35Gmlxpy61eVNKkUT+7b775xvV0yI3WM+2BoUmdlpmaPHmyuxijSaEmdlo/dXyz1i1NPuOHLuhFnTp16ri/p2X9/PPPu3qn5RSpbzpRm76/e+65x32fNEmPT+APxPXXX+/mSND49AKGXojRi2T6nf0rLr/8clcmH330kavjSnug6Oetn5cmzLoPeOKJJ9wFNN2m9vddePzxx93+R5N6rYevvfaaS+K1+7peuMlrOelFJ/09n3/+uZv7QYfIfP31127/pfuLyJhtjSHyvdXXKa1/AJByAgBAUvTq1UubraOP33nnHff4vvvuy/a6Cy64IMjIyAiWL18efU5fp7fZs2dHn/vhhx+CEiVKBOedd94Bx7Js2TL3s5dffnm250uVKhVceeWVe73+/fffd39/4sSJ+/y9p556atC4cWN3/5hjjgmuuuoqd/+3334LihUrFrz44ovBlClT3O964403oj/XuXNnt33FihXR59asWROUKVMmOOWUU6LPHXXUUUGHDh0OqJz3R2OOlG/srVu3bm67/q+Pb7/99mw/99lnn7nnX3311WzPaxnFPr9+/Xr33jTuPXv2RF93xx13ZPs7asCAATnGPnLkSPf8ypUr3eMtW7YE5cqVC66++upsr1u7dm2QmZmZ7flI/Pfcc0+21zZv3jxo0aJF9PGGDRvc6zSGA/XQQw9li2/evHnucY8ePbK97pZbbnHPT548OfpcrVq1op/p448/7ur+vffeG92uZVa3bt2gXbt22crv999/D+rUqROcccYZe5VffB3W70jFihWjjx999FH3On3PB0rjjf3MIp/N6aefni2+G2+8MShcuHCwadOmff6+SMy5xaLfHd0e+z3X9x5v8ODBrux0v5CX70L879i5c2fQpEmToE2bNgdUTi+//HJQqFAh932I9eyzz7qfnT59erb9S2zZAUAqoks5AHhCJzQqXLiwaxmNpa2BmmNrd+FYJ5xwgmvhi9DupJ06dXKt4pGuwXmhLWPakqXdSB944IFs27RLak5jVLW1N7I9r7SV++2333atZ9pVVd+rtp7G09i19U67Ox922GHR56tWrep+h7acaUu20m6t2uq2bNkyKUjaGqwtgbE3bWmPpa2JsbQlUbsra6ujto5HbvoZacu49lxQ2pqsZaAtoLFdevv06ZPveDU+nU1eu+7H/m0tY23FjvztWNpqHEt7FHz33XcSVt1W2sU6vm6r999/f6+fefDBB6V3796uFfrOO++MPj9v3jz3eWtd+PXXX6PvVbsna48JHVYRO3Qht/eqPxtbj5QOk4j/2fzSVtvYz1f/ptbtH3744S/93kgvi9ihH/rdjdBy0PLQ7uG639DeDXkR+zt0CMTmzZtdzLErEuSlnPR7oK3aDRo0yFYXIz1bcqqLAJDKUibh1gOsLpmhM8jqAS4/y0zogUm71ulkQHqCeeihh8r9998fSrwAEE9PxHUfpmNvc5q1PP5EPacZwnX/pQl0XseKagJwySWXyOLFi10SHD8Lt56E5zTGNjKreOxJ+v7o39GTeL1woGPPtWtq/HtVGru+Bx0bGk/LQk/0dWkzpd1aNdHU961d27X7/YIFC+Sv0jG3p59+erZbo0aNott1PLGOv46lSaC+P+2qrF2yY286g/f69euzfY7xn5++Trsg50fkgoMmNfF/Wy9eRP527AWTyBjtCP3b8WPNC4q+Z+32rWN6Yx1yyCEuiYuv2zpsoG/fvu4WO2479r1q9/n496pdxbW+6ucQSy9GxYqUc+T9XnzxxdKqVSvXxVnH3Wtd/c9//vOXku/9/c38iswGH/vd0UkQdfxzhQoVomPydUy7ii+L3GjX8eOPP97VDf09kWEFsT+fl3LSz0cvgsV/NvodVfF1EQBSXcqM4dYrukcddZRbMiN2cp8DoVfS9cREk249cdu4caO7AUCquvrqq92JtibAkRaoWNqq/PPPP+/1fOS5A1kmS3+XjsHWscI65rMgZiY/5ZRT3ORl2uKm+29NuHSs6LPPPuuSgrDoRdn4ce2adGiyrWWZk/gENy9ym+AtvgdDJOHRcbGaxMbTCwSxtOU7GfI6YZ1OOqcXUvT96NhjHX8d/14feughN8/BvlqB9/d+I5MR6oUjvXCvra/a2j5x4kQ31lq/E1qv8lNe+/ub+bVw4UL3f+TihdYF7VWh5yt6gUJblvWCkc77oEl4Xi4a6Lh3HXet3yedC0K/qzrfgI6Lj12JIC/lpH9Pz6GGDh2a49/Kz3JmAGBZyiTcOnmK3nKjV7z/9a9/uWVK9CCuEwppN7XI2qI6aYteydUDWaRVJfYADwBhq1WrluturF1FY1uvlixZEt0eK6du1DopkU7glZfkTlsO9YRaJ3PSrsg50YRGT8b1JDo2wdQJr/TvRFqt8kq7AWsirK2aOllYTjR2/d26vnE8LQuNI/akXVvjdJIyvWnrnyYNOplaJOH+q7OS55VO+KSfn7YA7qvlP/I56ucX22VeW/bjWz8jraJ63Ip051XxLcKRyaY04dfW+IJQkOWm71nrkL7n2HXm161b595bfN3WWfS1x4VO+KbdxHUYQeTiTuS96oR6BfVeldYr/Vt602RR14jW8wZNLgvy7/xVkQnPdNI7pROS6fdeJ6TTJcMiYmcx399nqhe/tGVbh6PEDiHR/cOBlpN+PvPnz3fb91eHEvXdBIBkSpku5fujM4POnDnTzbqp3Q11vKLO5hs5YdXlafTER1t6NNHW8Xt6skYLN4BE0QRUW6t0VutY2mKrJ6bxFxV1nxY7vlK7WWtLr852vb8WOW0d1N48OvOz9u7Jjc4orUmRjr2O0PGYOk5Th/Ec6BrE+vt01mZtRStWrFiOr9HY9T3oe4ld9krj0NY2TcI02VI6Dje+ZVNb/mK7wUfWx9bELkw6E7Z+frr0VTyd1Tzy9zUp0dZDnUU6trVTL3zEiySXscu9RZZSiqXJl5aJJj+6VFq8/CxHFZl5vSDKLXJxJf49RlpBI7Ngx9Iu+3oBQ+cJ0BbcyGetY+K1XLT+RrpX/9X3mtOxPtJ6ntel7xJB67/24tD5GzShVZHvemxd0vs663i83L4L+jt0HxPbc0K/e/HD8/JSTvo90Nb15557bq/X6mep9Tc2nrC/lwCQbCnTwr0vOrZJr9Lq/5Er5LreqHaF0uf1BEUnitEWAz2JfOmll9xBR9ew1JNDXX4EAMKmCayux6ytRXqyq8NktJumJp46oVb8kjnaU0cTrdhlwSLrJu+LLsGkE4DpGGJtbXzllVeybdfkRsdnKt0H6rhObT3Wcd7a8qh/R/eR+/s7OdFJxfKylrMu/xRZ7/ef//yn6xKty4LpSb1OphWh46q1p5ImYdrSrUuCacuoXmSNiEwsp+Wk5aXJhY49LWg6Zla7P+vSUzqxl1400MRaL+zqsUUTIC3PyJrX+jodx67JqE5spWPb49dH19+hY4F1mTjtkaCxjxgxwv0OPaZFaLKtvbR0yShdxk3fX+Q12vVXW93jL+Tsj7bSa/lql2HtyaDlq3UuP0vOaV3WMde6nJUmWFpWunSVXjjQyfG03udEL57od0A/Y/3s9His71WTTr0ApV3PtW7qnCua5Gkrq27Xi+gHQucC0Isamvhra7uOM9Z6rkm/1sFk0HqsF5B0gj19b9r6rEMxtCwjS30p7UKu+watU/o6ff/aYp3TWPHcvgv6vvXihzZEaC8Uff+6ZreWf+ycCHkpJ62DOq5bJ6rTz0Prnu4vtHeKPq/v45hjjonGoxdV9G/r+Zk2eESW/AOAlBGkIH1bY8eOjT4eP368e06Xn4i9FSlSJLjooovca3TJFH3N0qVLoz83Z84c99ySJUuS8j4ApLaclujR5Z10+aBq1aoFRYsWdcsf6RJLscsLKf05/flXXnnFvaZ48eJuWSddYmt/IssO5XaL/x0bN250y3npMkoHHXSQWzbrq6++ytN7jF0WLDc5LQum5s6d65Z+Kl26tPu7p512WjBjxoxsr9El1I499li3JFbJkiWDBg0aBPfff79b0ihi165dwfXXXx8cfPDBbpmk/R369hezLmOkx5DcDB8+3C2vpfHoMmZHHnlkcNttt7llzSJ2794dDBw4MKhatap7XevWrYOFCxfutcRU5Fh03HHHuaXEatasGQwdOnSvZcFiy1LLTJcC02XeDj/88OCKK67ItnxcbvHntASZlre+F/3bB7JEWPyyYOrPP/9071mX7tK6XaNGjaBfv37B9u3bs/1s7LJgEV9++WV0SbjI8lX//e9/g/PPP9/VS63/+nN6TP/kk0/2ek/xy1jFl5/+TKdOndz3Tt+r/n/ppZcG3377bb6XBYv/jkTq+f6+o/HfT/0cq1evHnTs2DEYMWLEXuWlFi9e7JYh0+9KpUqV3DnN/Pnz3c9rPHn5LrzwwgvRfYl+j/Tn4utEXstJv39Dhgxx3yP9feXLl3f1SD//zZs3R1+n51f6mep3IH5JPABIFRn6j6QY7RalLTh61Vzp1fkuXbq4WTPju1nq1WOdYEa7OMZ3xdOuT9qlTq+ua4sPAPi0n+vVq9cBt1rCbzqcSVtzR40alexQAABAAUiLLuXNmzd33Zm065OuKZkT7fKkY+x0tttIt02dhETFT+YCAAAAAEDaJNw6ccry5cujj1euXOnG0OmYMx17pi3cOnunLkejCbhOqvLJJ59I06ZN3VgkncRGx73psmI6qYvOpqqtR9qyfaCz8AIAAAAAkDKzlOtEOZpI603ddNNN7n7//v3dY50cTRPum2++2S37pd3Nv/rqKzcZTWSZC51kRSes0SVlNAnXyYR0VnMAAAAAAA5USo7hBgAAAAAg2VKmhRsAAAAAAJ+QcAMAAAAAEALTk6bpxGZr1qyRMmXKuCVyAAAAAAAIk47K3rJli1SrVs3NBZayCbcm2zVq1Eh2GAAAAACANLN69WqpXr166ibc2rIdeaNly5ZNdjgAAAAAgBSXlZXlGn4j+WjKJtyRbuSabJNwAwAAAAASJS/Dmpk0DQAAAACAEJBwAwAAAAAQAhJuAAAAAABCQMINAAAAAEAISLgBAAAAAAgBCTcAAAAAACEg4QYAAAAAIAQk3AAAAAAAhICEGwAAAACAEJBwAwAAAAAQAhJuAAAAAABCQMINAAAAAEAISLgBAAAAAEjFhPunn36Syy67TCpWrCglS5aUI488UmbPnp3ssAAAAAAA+EuKSBL99ttv0qpVKznttNNkwoQJcvDBB8uyZcukfPnyyQwLAAAAAADbCfeQIUOkRo0aMnLkyOhzderU+cu/t8WtL4lv5jzUNdkhAAAAAADSpUv5uHHj5JhjjpELL7xQKleuLM2bN5fnnnsu19fv2LFDsrKyst0AAAAAAPBRUhPu7777Tp555hmpW7eufPjhh9KzZ0+54YYb5MUXX8zx9YMHD5bMzMzoTVvHAQAAAADwUUYQBEGy/nixYsVcC/eMGTOiz2nC/dVXX8nMmTNzbOHWW4S2cGvSvXnzZilbtmz0ebqUAwAAAADCoHmoNgDH56HetXBXrVpVGjVqlO25hg0byqpVq3J8ffHixd0bir0BAAAAAOCjpCbcOkP50qVLsz337bffSq1atZIWEwAAAAAA5hPuG2+8Ub744gsZNGiQLF++XEaPHi3Dhw+XXr16JTMsAAAAAABsJ9wtW7aUsWPHypgxY6RJkyZy7733ymOPPSZdunRJZlgAAAAAANheh1t17NjR3QAAAAAASCVJbeEGAAAAACBVkXADAAAAABACEm4AAAAAAEJAwg0AAAAAQAhIuAEAAAAACAEJNwAAAAAAISDhBgAAAAAgBCTcAAAAAACEgIQbAAAAAIAQkHADAAAAABACEm4AAAAAAEJAwg0AAAAAQAhIuAEAAAAACAEJNwAAAAAAISDhBgAAAAAgBCTcAAAAAACEgIQbAAAAAIAQkHADAAAAABACEm4AAAAAAEJAwg0AAAAAQAhIuAEAAAAACAEJNwAAAAAAISDhBgAAAAAgBCTcAAAAAACEgIQbAAAAAIAQkHADAAAAABACEm4AAAAAAEJAwg0AAAAAQAhIuAEAAAAACAEJNwAAAAAAISDhBgAAAAAgBCTcAAAAAACEgIQbAAAAAIAQkHADAAAAABACEm4AAAAAAEJAwg0AAAAAQAhIuAEAAAAACAEJNwAAAAAAISDhBgAAAAAgBCTcAAAAAACEgIQbAAAAAIAQkHADAAAAABACEm4AAAAAAEJAwg0AAAAAQAhIuAEAAAAACAEJNwAAAAAAISDhBgAAAAAgBCTcAAAAAACEgIQbAAAAAIAQkHADAAAAAJBqCffdd98tGRkZ2W4NGjRIZkgAAAAAABSIIpJkjRs3lkmTJkUfFymS9JAAAAAAAPjLkp7daoJ9yCGHJDsMAAAAAABSawz3smXLpFq1anLYYYdJly5dZNWqVbm+dseOHZKVlZXtBgAAAACAj5KacB933HEyatQomThxojzzzDOycuVKOfnkk2XLli05vn7w4MGSmZkZvdWoUSPhMQMAAAAAkBcZQRAE4olNmzZJrVq1ZOjQoXLVVVfl2MKttwht4dake/PmzVK2bNno8y1ufUl8M+ehrskOAQAAAADwF2keqg3A8Xmol2O4Y5UrV07q1asny5cvz3F78eLF3Q0AAAAAAN8lfQx3rK1bt8qKFSukatWqyQ4FAAAAAAC7Cfctt9wi06ZNk++//15mzJgh5513nhQuXFguvfTSZIYFAAAAAMBfltQu5T/++KNLrn/99Vc5+OCD5aSTTpIvvvjC3QcAAAAAwLKkJtyvvfZaMv88AAAAAADpMYYbAAAAAIBUQcINAAAAAEAISLgBAAAAAAgBCTcAAAAAACEg4QYAAAAAIAQk3AAAAAAAhICEGwAAAACAEJBwAwAAAAAQAhJuAAAAAABCQMINAAAAAEAISLgBAAAAAAgBCTcAAAAAACEg4QYAAAAAIAQk3AAAAAAAhICEGwAAAACAEJBwAwAAAAAQAhJuAAAAAABCQMINAAAAAEAISLgBAAAAAAgBCTcAAAAAACEg4QYAAAAAIAQk3AAAAAAAhICEGwAAAACAEJBwAwAAAAAQAhJuAAAAAABCQMINAAAAAEAISLgBAAAAAAgBCTcAAAAAACEg4QYAAAAAIAQk3AAAAAAAhICEGwAAAACAEJBwAwAAAAAQAhJuAAAAAABCQMINAAAAAEAISLgBAAAAAAgBCTcAAAAAACEg4QYAAAAAIAQk3AAAAAAAhICEGwAAAACAEJBwAwAAAAAQAhJuAAAAAABCQMINAAAAAEAISLgBAAAAAAgBCTcAAAAAACEg4QYAAAAAIAQk3AAAAAAAhICEGwAAAACAEJBwAwAAAAAQAhJuAAAAAABSOeF+4IEHJCMjQ/r06ZPsUAAAAAAASI2E+6uvvpJhw4ZJ06ZNkx0KAAAAAACpkXBv3bpVunTpIs8995yUL18+2eEAAAAAAJAaCXevXr2kQ4cOcvrpp+/3tTt27JCsrKxsNwAAAAAAfFQkmX/8tddek7lz57ou5XkxePBgGThwYOhxAQAAAABgtoV79erV0rt3b3n11VelRIkSefqZfv36yebNm6M3/R0AAAAAAPgoaS3cc+bMkfXr18vRRx8dfW737t3y6aefypNPPum6jxcuXDjbzxQvXtzdAAAAAADwXdIS7rZt28rXX3+d7bnu3btLgwYNpG/fvnsl2wAAAAAAWJK0hLtMmTLSpEmTbM+VKlVKKlasuNfzAAAAAABYk/RZygEAAAAASEVJnaU83tSpU5MdAgAAAAAABYIWbgAAAAAAQkDCDQAAAABACEi4AQAAAAAIAQk3AAAAAAAhIOEGAAAAACAEJNwAAAAAAISAhBsAAAAAgBCQcAMAAAAAEAISbgAAAAAAQkDCDQAAAABACEi4AQAAAAAIAQk3AAAAAAAhIOEGAAAAACAEJNwAAAAAAISAhBsAAAAAgBCQcAMAAAAAEAISbgAAAAAAQkDCDQAAAABACEi4AQAAAAAIAQk3AAAAAAAhIOEGAAAAACAEJNwAAAAAAISAhBsAAAAAgBCQcAMAAAAAEAISbgAAAAAAQkDCDQAAAACALwn3YYcdJr/++utez2/atMltAwAAAAAg3eUr4f7+++9l9+7dez2/Y8cO+emnnwoiLgAAAAAATCtyIC8eN25c9P6HH34omZmZ0ceagH/yySdSu3btgo0QAAAAAIBUT7g7d+7s/s/IyJBu3bpl21a0aFGXbD/yyCMFGyEAAAAAAKmecO/Zs8f9X6dOHfnqq6+kUqVKYcUFAAAAAED6JNwRK1euLPhIAAAAAABI94Rb6Xhtva1fvz7a8h0xYsSIgogNAAAAAID0SrgHDhwo99xzjxxzzDFStWpVN6YbAAAAAAD8xYT72WeflVGjRsnll1+enx8HAAAAACDl5Wsd7p07d8qJJ55Y8NEAAAAAAJDOCXePHj1k9OjRBR8NAAAAAADp3KV8+/btMnz4cJk0aZI0bdrUrcEda+jQoQUVHwAAAAAA6ZNwL1iwQJo1a+buL1y4MNs2JlADAAAAACCfCfeUKVMKPhIAAAAAANJ9DDcAAAAAAAihhfu0007bZ9fxyZMn5+fXAgAAAACQ3gl3ZPx2xJ9//inz5s1z47m7detWULEBAAAAAJBeCfejjz6a4/N33323bN269a/GBAAAAACAeQU6hvuyyy6TESNGFOSvBAAAAADApAJNuGfOnCklSpQoyF8JAAAAAED6dCk///zzsz0OgkB+/vlnmT17ttx1110FFRsAAAAAAOmVcGdmZmZ7XKhQIalfv77cc889cuaZZxZUbAAAAAAApFfCPXLkyIKPBAAAAACAdE+4I+bMmSPffPONu9+4cWNp3rx5QcUFAAAAAED6TZq2fv16adOmjbRs2VJuuOEGd2vRooW0bdtWNmzYkOff88wzz0jTpk2lbNmy7nbCCSfIhAkT8hMSAAAAAAD2E+7rr79etmzZIosWLZKNGze628KFCyUrK8sl33lVvXp1eeCBB1xLuU64pkl8p06d3O8FAAAAAMCyjECnGM/HpGmTJk1yLdyxZs2a5SZN27RpU74DqlChgjz00ENy1VVX7fe1muBrLJs3b3Yt5BEtbn1JfDPnoa7JDgEAAAAA8BfllocW2BjuPXv2SNGiRfd6Xp/Tbfmxe/dueeONN2Tbtm2ua3lOduzY4W6xbxQAAAAAgJTpUq5dv3v37i1r1qyJPvfTTz/JjTfe6MZxH4ivv/5aSpcuLcWLF5drr71Wxo4dK40aNcrxtYMHD3ZXEiK3GjVq5Cd8AAAAAAD8TLiffPJJ17pcu3ZtOfzww92tTp067rknnnjigH6Xrt89b948+fLLL6Vnz57SrVs3Wbx4cY6v7devn2u2j9xWr16dn/ABAAAAAAhdvrqUa8vy3Llz3TjuJUuWuOcaNmwop59++gH/rmLFiskRRxzh7utM51999ZU8/vjjMmzYsL1eq63gegMAAAAAIKVauCdPnuy6e2tLdkZGhpxxxhluxnK96QRquhb3Z5999pcC0jHgseO0AQAAAABI+Rbuxx57TK6++uocZ2LTMdX/+Mc/ZOjQoXLyySfn6fdpF/H27dtLzZo13TJjo0ePlqlTp8qHH354IGEBAAAAAGC7hXv+/Ply1lln5bpdlwTTNbXzav369dK1a1c3jlsnW9Pu5Jpsa8s5AAAAAABp08K9bt26HJcDi/6yIkVkw4YNef59L7zwwoH8eQAAAAAAUrOF+9BDD5WFCxfmun3BggVStWrVgogLAAAAAID0SbjPPvtsueuuu2T79u17bfvjjz9kwIAB0rFjx4KMDwAAAACA1O9Sfuedd8rbb78t9erVk+uuu86NvVa6NNhTTz0lu3fvln/9619hxQoAAAAAQGom3FWqVJEZM2ZIz5493QzjQRC453WJsHbt2rmkW18DAAAAAEC6O6CEW9WqVUs++OAD+e2332T58uUu6a5bt66UL18+nAgBAAAAAEiHhDtCE+yWLVsWbDQAAAAAAKTjpGkAAAAAACBvSLgBAAAAAAgBCTcAAAAAACEg4QYAAAAAIAQk3AAAAAAAhICEGwAAAACAEJBwAwAAAAAQAhJuAAAAAABCQMINAAAAAEAISLgBAAAAAAgBCTcAAAAAACEg4QYAAAAAIAQk3AAAAAAAhICEGwAAAACAEJBwAwAAAAAQAhJuAAAAAABCQMINAAAAAEAISLgBAAAAAAgBCTcAAAAAACEg4QYAAAAAIAQk3AAAAAAAhICEGwAAAACAEJBwAwAAAAAQAhJuAAAAAABCQMINAAAAAEAISLgBAAAAAAgBCTcAAAAAACEg4QYAAAAAIAQk3AAAAAAAhICEGwAAAACAEJBwAwAAAAAQAhJuAAAAAABCQMINAAAAAEAISLgBAAAAAAgBCTcAAAAAACEg4QYAAAAAIAQk3AAAAAAAhICEGwAAAACAEJBwAwAAAAAQAhJuAAAAAABCQMINAAAAAEAISLgBAAAAAAgBCTcAAAAAACEg4QYAAAAAINUS7sGDB0vLli2lTJkyUrlyZencubMsXbo0mSEBAAAAAGA/4Z42bZr06tVLvvjiC/n444/lzz//lDPPPFO2bduWzLAAAAAAAPjLikgSTZw4MdvjUaNGuZbuOXPmyCmnnJK0uAAAAAAAMJ1wx9u8ebP7v0KFCjlu37Fjh7tFZGVlJSw2AAAAAABMTpq2Z88e6dOnj7Rq1UqaNGmS65jvzMzM6K1GjRoJjxMAAAAAAFMJt47lXrhwobz22mu5vqZfv36uFTxyW716dUJjBAAAAADAVJfy6667TsaPHy+ffvqpVK9ePdfXFS9e3N0AAAAAAPBdUhPuIAjk+uuvl7Fjx8rUqVOlTp06yQwHAAAAAIDUSLi1G/no0aPl3XffdWtxr1271j2v47NLliyZzNAAAAAAALA7hvuZZ55xY7Fbt24tVatWjd5ef/31ZIYFAAAAAID9LuUAAAAAAKQib2YpBwAAAAAglZBwAwAAAAAQAhJuAAAAAABCQMINAAAAAEAISLgBAAAAAAgBCTcAAAAAACEg4QYAAAAAIAQk3AAAAAAAhICEGwAAAACAEJBwAwAAAAAQAhJuAAAAAABCQMINAAAAAEAISLgBAAAAAAgBCTcAAAAAACEg4QYAAAAAIAQk3AAAAAAAhICEGwAAAACAEJBwAwAAAAAQAhJuAAAAAABCQMINAAAAAEAISLgBAAAAAAgBCTcAAAAAACEg4QYAAAAAIAQk3AAAAAAAhICEGwAAAACAEJBwAwAAAAAQAhJuAAAAAABCQMINAAAAAEAISLgBAAAAAAgBCTcAAAAAACEg4QYAAAAAIAQk3AAAAAAAhICEGwAAAACAEJBwAwAAAAAQAhJuAAAAAABCQMINAAAAAEAISLgBAAAAAAgBCTcAAAAAACEg4QYAAAAAIAQk3AAAAAAAhICEGwAAAACAEJBwAwAAAAAQAhJuAAAAAABCQMINAAAAAEAISLgBAAAAAAgBCTcAAAAAACEg4QYAAAAAIAQk3AAAAAAAhICEGwAAAACAEJBwAwAAAACQagn3p59+Kuecc45Uq1ZNMjIy5J133klmOAAAAAAApEbCvW3bNjnqqKPkqaeeSmYYAAAAAAAUuCKSRO3bt3c3AAAAAABSTVIT7gO1Y8cOd4vIyspKajwAAAAAAKTEpGmDBw+WzMzM6K1GjRrJDgkAAAAAAPsJd79+/WTz5s3R2+rVq5MdEgAAAAAA9ruUFy9e3N0AAAAAAPCdqRZuAAAAAACsSGoL99atW2X58uXRxytXrpR58+ZJhQoVpGbNmskMDQAAAAAAuwn37Nmz5bTTTos+vummm9z/3bp1k1GjRiUxMgAAAAAADCfcrVu3liAIkhkCAAAAAAChYAw3AAAAAAAhIOEGAAAAACAEJNwAAAAAAISAhBsAAAAAgBCQcAMAAAAAEAISbgAAAAAAQkDCDQAAAABACEi4AQAAAAAIAQk3AAAAAAAhIOEGAAAAACAEJNwAAAAAAISAhBsAAAAAgBCQcAMAAAAAEAISbgAAAAAAQkDCDQAAAABACEi4AQAAAAAIAQk3AAAAAAAhIOEGAAAAACAEJNwAAAAAAISAhBsAAAAAgBCQcAMAAAAAEAISbgAAAAAAQkDCDQAAAABACEi4AQAAAAAIQZEwfinyp8WtL4mP5jzUNdkhAAAAAIA5tHADAAAAABACEm4AAAAAAEJAwg0AAAAAQAhIuAEAAAAACAGTpiFlJ3xjsjcAAAAAyUTCjbTm44WCvF4s8DF2LnIAAAAA/4cu5QAAAAAAhIAWbgAJ5WPLvKJ1HgAAAAWNhBsADF8s4EIBAACAv+hSDgAAAABACGjhBoAU52PLvKJ1HgAApDpauAEAAAAACAEt3AAAb/nYOk/LPAAAyCtauAEAAAAACAEt3AAApEHLfF5b532MnV4FAACrSLgBAIB5Pl4oUFzkAID0RsINAACAA+bjhYJUv8jhY9yWY7cat+XY56ThxTwSbgAAAACAF1p4eKHgr1wsYNI0AAAAAABCQMINAAAAAEAISLgBAAAAAAgBCTcAAAAAACEg4QYAAAAAIAQk3AAAAAAAhICEGwAAAACAVE24n3rqKaldu7aUKFFCjjvuOJk1a1ayQwIAAAAAwHbC/frrr8tNN90kAwYMkLlz58pRRx0l7dq1k/Xr1yc7NAAAAAAA7CbcQ4cOlauvvlq6d+8ujRo1kmeffVYOOuggGTFiRLJDAwAAAAAg34pIEu3cuVPmzJkj/fr1iz5XqFAhOf3002XmzJl7vX7Hjh3uFrF582b3f1ZWVrbX7d7xh/gmPsac+Bi35ditxm05dqtxW47datyWY7cat+XYrcZtOXarcVuO3WrclmO3Grfl2LOMxh0fe+R+EAT7/bmMIC+vCsmaNWvk0EMPlRkzZsgJJ5wQff62226TadOmyZdffpnt9XfffbcMHDgwCZECAAAAAPB/Vq9eLdWrVxdvW7gPlLaE63jviD179sjGjRulYsWKkpGRUaB/S69a1KhRwxVi2bJlxRKrsVuN23LsVuO2HLvVuC3HbjVuy7Fbjdty7Fbjthy71bgtx241bsuxW4077Ni1zXrLli1SrVq1/b42qQl3pUqVpHDhwrJu3bpsz+vjQw45ZK/XFy9e3N1ilStXLtQY9cOxVrmsx241bsuxW43bcuxW47Ycu9W4LcduNW7LsVuN23LsVuO2HLvVuC3HbjXuMGPPzMz0f9K0YsWKSYsWLeSTTz7J1mqtj2O7mAMAAAAAYE3Su5RrF/Fu3brJMcccI8cee6w89thjsm3bNjdrOQAAAAAAViU94b744otlw4YN0r9/f1m7dq00a9ZMJk6cKFWqVElqXNp1XdcGj+/CboHV2K3GbTl2q3Fbjt1q3JZjtxq35ditxm05dqtxW47datyWY7cat+XYrcbtU+xJnaUcAAAAAIBUldQx3AAAAAAApCoSbgAAAAAAQkDCDQAAAABACEi4AQAAAAAIAQl3Lnbv3i3z5s2T3377TSzatGlTskMAQkc9BwAgfziGJh5lnp5IuP+nT58+8sILL0ST7VNPPVWOPvpoqVGjhkydOlV8NmTIEHn99dejjy+66CKpWLGiHHrooTJ//vykxgYUFOo5AAD5wzE08ShzRJBw/8+bb74pRx11lLv/3nvvycqVK2XJkiVy4403yr/+9S/x2bPPPusuDKiPP/7Y3SZMmCDt27eXW2+9VazQMtfYFy5cmOxQ4CHL9XzPnj25Pr9q1Srx1axZs+Txxx+Xfv36uZve1+d8p6td6v5k165d7vHOnTvdSc9LL70kv/zyi1ikva00fkvatGkjP/zwg/hMT3pHjBgh3333nXu8aNEi+ec//ynXXnutfPjhh+I7i/uW8ePHS//+/WX69Onu8eTJk+Xss8+Ws846S4YPHy6++vHHH7PtPz777DPp0qWLnHzyyXLZZZfJzJkzxWcWj6E7duyQP//8M/p4xYoV7pz88ssvlzvvvNPt531msczVH3/84faLV155pYu1Q4cOcv3118snn3wiFk2dOtW9p6TSdbgRBMWLFw9Wr17t7l999dVB79693f3vvvsuKFOmTOCzEiVKBKtWrXL3b7jhhuCaa65x95cuXRqUK1cu8FHPnj2DLVu2uPu///578Le//S0oVKhQkJGR4f4/7bTTott99NRTTwVt27YNLrzwwmDSpEnZtm3YsCGoU6dO4Ks1a9YEL7/8cvD+++8HO3bsyLZt69atwcCBAwMfWaznmzdvdnVEY69cuXJw1113Bbt27YpuX7t2ravvvlm3bl1w0kknue9jrVq1gmOPPdbd9L4+p9v0NT5asmSJi1PL9YgjjnD78BYtWgSlSpUKDjrooKBSpUrBt99+G1gzb948L+uKevfdd3O8FS5cOHjyySejj33z1ltvuRgrVqwYlC5dOvj444/dvuT0008P2rVr57a9+uqrgY+s7lueffbZoEiRIu47WbZsWXcs0nOsHj16BP/4xz+CkiVLBo899ljgI90Hvvfee+7+O++848r33HPPDfr27Rucd955QdGiRaPbfWTxGHrqqacGb7zxhrv/+eefu3P1pk2bBhdffHHQvHlzt0+fMWNG4CuLZb5s2TJ3DNX9So0aNdwxv0OHDsFxxx3n9om63/nzzz8DS4oWLRosXrw4qTGQcP9PzZo1gw8//NAdsLSCjR8/3j2/cOFCb78UEVWrVg2mT5/u7terVy/4z3/+Ez3x9PVigR6oIifs/fr1C6pXrx5Mnjw52LZtm9upHn744cHtt98e+Ojxxx93O/levXoFl112WVCsWLFg0KBB3p/oqFmzZrn6rCc6emKjCYnWcQuxW6zneoDVWPWE4bnnnnMHMT1wRS50aHnrwcw3egHshBNOcGUbT5878cQTgwsuuCDwUadOndxJ8IIFC4I+ffoEDRs2dM/t3Lkz2L59e3DOOee4762PCdS+bp999pm3383IhVL9P7ebj7EfffTRwX333efujxkzxu0b77nnnuj2hx9+OGjWrFngI6v7lkaNGgXDhw939/WYrwmJXsCOGDlypPvO+kgv2ukFPKXJxwMPPJBt+xNPPOGSQF9ZPIbquUrkAqkm3zfeeGO27XfeeWfQqlWrwFcWy7x9+/bu4teePXvcY63n+pzSz6J27drBgAEDAh81b948x5vuC3W/EnmcDCTc/6OVJzMzM2jQoIFLvvXETL3wwgvB8ccfH/hMEz892OpVeb1SH2kZ1hMIX3f+WvkjCXeTJk2C0aNHZ9uurSG6c/KRnjDEtnrozvTggw92LQy+J61aR7p37x7s3r07yMrKcj0NtM7MnTvX+9gt1nPdl0yZMiVb7wdtJTnzzDPdPsbX8tbWvkidyMns2bPda3yk38X//ve/0R4buq/RZDX2+6qfi28iSWluN1+TVnXWWWe5ZC++14O2ZC5atCjwlSZQK1eudPf15FJbQfRCTcSKFSu8redW9y16ofeHH36IPtYy//rrr6OP9fPQC9o+0nPE+fPnu/va+he5H7F8+XJvY7d6DNXv6DfffOPuV6lSxfX0iS9zX7+jVstc63BsLzC9iKff019++SXau0OTbh8VKVLEHY/uvvvu6E3zO90X/vOf/4w+l5TYktuh3R933323NGnSRFavXi0XXnihFC9e3D1fuHBhuf3228Vnjz76qNSuXdvF/uCDD0rp0qXd8z///LMbi+arjIwM9//atWuladOm2bbpeHp9Pz7SMUMnnnhi9LHe1zFop59+uhtrpBPw+WrOnDny1FNPSaFChaRMmTLy9NNPS82aNaVt27ZuvKLe95XFer5hwwapVatW9HGlSpVk0qRJ0q5dOzdm8fnnnxcf6f4vKysr1+1btmyJ7iN9s3XrVqlQoYK7X6pUKXerWrVqdLuOp1u3bp34Rr+POjbxuOOOy3H7smXL5B//+If4SMck6vfzmGOOcfuUjh07igVa5r/++qvbr+jMwTrmXx9H6P3IfsY3VvctOmGUjuvXY82aNWtcmetYcz3/Urot8v31jU6mO2bMGHe+0rx5czcuNPbcZcqUKW4yLF9ZPIbq/lDnVWrQoIEcfvjhbs6FyHxLSlcT8rW+WC3zcuXKuWN8xO+//+6+p8WKFXOPtc5r/D6aOnWqdOvWTY499lgZMGCAO9dV999/v/Tq1UsaNWqUvOCSkuYj7WlrjXZZ0e5BeqX4o48+yrZ9zpw5bqylj3TIwaeffrrX89qSo1dgu3bt6mXLgipfvvxeV+XVQw895LpTvv32297GblH9+vXdWPl4epVbu2wfddRRXpa3XgnWq/JaH7Q7c4Te1+f06vZ1110X+EiHo8S2aD/99NOuN0fsvuWQQw4JfNO6detgyJAhuW7Xlh0fuwjH0p4F2gNIxynq8CDfW7h1aIF2DX7llVfcUAMdt6092rRFTbt8ahdWX4dOWN23aItf3bp1XVd+bZHv1q2b61k4YcKEYOLEicGRRx4ZXHnllYGPdAyotlLqMf7ee+91Latah+6//373nI4v1i7xKDg6Plt7FmgrpXbZ1/NC7UauvQz79+/vzlv2td/EgdPvpO77dD+oQygi4+Ujpk6d6s6DfbVp06bgkksucft27QGhfDgW0cId46uvvnJXKNevX7/XzJ9Dhw4Vn+mV4s8//zzH2G+44QbxzSmnnCJLly519/WKU/xMth988IE0btxYfHTSSSfJ22+/7WYmjaXvQ2dwPO2008RX2oowY8aMvXoU3HLLLa7eXHrppeIza/X8zDPPlJEjR7oWp1h6lVt7FJxxxhniI93faflecskl2a5s62zfRYoUkauuukoefvhh8ZH2NNEVJvR7qnr27Jlt+0cffeSWfPTN3//+933OonrIIYe4K/Y+a9asmcyePdut7qH3ddiaz7QO62zHOiN5q1at3Ez2OvOx7su1B5a2qEWWC/WN1X2LLpOk+5HXXnvN9Q574okn5N///rd06tTJ9RDTVuTBgweLjxo2bChffvmlqyPaWrlt2zZ59dVX3T6xZcuW7j117txZfGbtGHrCCSe4HjQ33XSTK/tIa6WqVq2a653au3dv8Zm1Mte6rd/HyH5Qe4WNHTs2W+8an2dYz8zMdD1RdP+o5wEDBw6M9qhNJne5PNlB+GDQoEFuJ1q/fn2pUqVKtg9H72uXYV+NGjXKdTXUk2LtrhUfe2S5E0s0Zn0/1atXF98sWLDAdc3u3r17jtt1WbO33nrLy5Nj7WY4bdo0efnll3M9GdJlLHxcasNiPdelnPRgm9vFI+22NXfuXHeS6SPtVq51XYd9RJK+Fi1aSNmyZcUqrdslSpTI1s0cBW/cuHHuArYuJ1e5cmWxRPcl2o1Su7FqMuUj6/uWeNu3b3cJt3bzt0BPnSMJlHbnL1q0qPjO4jE0liZ6GqOWue6/tau27yyXuQ5j0mXZfN4P5uU96NJ9eiFYz82T2aWchPt/NMnWZOOKK64Qa/Tqk16h1xObyHgFINVQzwEAyB+OoYlHmSffnj173AVIbShIZks3n/7/6BdBu5RZpFfiteuntS+zdp/UbjaLFy/O8Wr3Sy+9JJa0adNmr67xVuhV2M2bNyc7jJSs5998843r2qTdnJX+r92cr7zySq97zlj+flqN3WrclmO3Grf12HOjk0vpvtEi32O3egy1XM+tlrnleh5vxYoVroVb/0+qpI4g94hOutC7d+/AoltvvTUYPHhwYMnSpUvdpEyRpW5OOeWUYM2aNdHtvi5pElmyLKdb4cKFgyeffDL62BJd8kEnhPGZxXquEwHpOu0VKlRw683qY122SpcIadOmjaszn3zySWDh+/nTTz+Z+H5a3bdYjdty7Fbjth77vujkgBbjthC7xWOo9Xpuscwt1/NBgwYFkyZNcvc3btwYtG3b1tWdSP3RJcN+++23pMRGl/KYLgcdOnSQb7/91vXxjx+Po5Nk+Wr37t1uGRa9CnjkkUfuFbuPE76dd955bryWtqzqciy6lJZevdQp/XW5EF22RyfE0PfmG71Sqd1S9vXV0e0+xp7b8hn6GWh3m8hV2I0bN4pvLNZznRRIez7cd999bkIdXQZEW7cjk75oNzMdI60TefnE8vfTauxW47Ycu9W4LceuY/v3Rce03nzzzd7FbT12q8dQq/Xccplbruc1atRw8euyfVdffbU7v9KJL3XCQ52oWbv367wXyVg2kYT7f6677jr3AegM0/GTpintEuorPZnv37+/qQnfNE5dM1R3QEqroSYjOju5TrSja+f6uhNt3769W599xIgR2SYD0h2prhGZ1HX+9kMnpNFJdHSt+Qgt+x49esg999wTXUNU1zH0jcV6rrNl6g7/iCOOcBf1dO3qWbNmuYOB0kk8dFbtyKRkvrD8/bQau9W4LcduNW7LsVu+YG05dqvHUKv13HKZW67nJUqUcIl1rVq1pE6dOvLiiy+6VZEi9HzsnHPOcRNOJlxS2tU9pOspjh8/PrBI1yG0tvZjmTJlcuzCrGt0Vq9e3a1z7WuXFTV06FC3DuF7770Xfc6Hdf72Z9myZUHLli3dmqG6Xqul2C3W87Jly0bXgYzsZ1asWBF9/P3337uu5r6x/P20GrvVuC3HbjVuy7FXq1YteOedd/a5lruPcVuP3eox1Go9t1zmlut5vXr1orlcnTp1gunTp+8Vu56XJUPqjOIvgK62uuamRdpqZm3CN11mQCcxiPfkk0+69f/OPfdc8ZmuM6vdVvr27euWfNCJMSzQllZdh1uXd9J1cqdPny5WWKznumyJLksRMXPmTNcNLmLVqlVeLk9l+ftpNXarcVuO3WrclmPXZQW1lSk3+2tZSybLsVs9hlqt55bL3HI9v/rqq90a4cuXL3c9l2+55ZboZGm6JKieu5955plJiY2E+3/uvvtut26ylcQpVu/eveWJJ54QS3Rcji5MnxPdkV566aXefqEjNGHVA4HufPS+7/FG6HqKugTe8OHD5e9//7vccccdSV0qIZXruY7Xju121aRJk2zrWU6YMMGN8faN5e+n1ditxm05dqtxW45dT4Z1bot9XRTWrsI+shy71WOo1Xpuucwt1/NbbrnFDdPToZ3PPfec/Pe//5V69eq5Cx8a99atW5P2eTCG+390TKVeBdHi0Fap+IkN5s6dKz7vkHQcSMWKFd1kAJYmfMurH3/80Y3T8XVpBW3t1h2QToIVO67bd7/++qu7Iqixf/HFF26cka+o5/6yGrfl2K3GbTl2q3Fbjt1q3D7GzjE08Sjz5C3HOn78eDfBm86foz0JtaeBJuPJamAi4f6fgQMH7nO7tn77qnv37vvc7vOEb3mlM2jPmzdPDjvsMLFGJ/vQCT509kRrHnjgATerY7ly5ZIdCvXcY1bjthy71bgtx241bsuxW43bx9g5hiYeZe63BxJ4jvt/fRvTnM8J9f6kwhd2fyxfF/r+++/dshYWDRo0SC666CIvEm7qub+sxm05dqtxW47datyWY7cat4+xcwxNPMrcb4MSeI5Lwv0/u3btkkWLFkWX59FJpXJaj9tXmzdvzha7LkcEpNqOlHoOAED+cAxNPMrcX4k8x/Wnw32SaN/+O++8Uw4++GA3jlvXWNab3texuHfddZd7ja907XC9MKCzrOv/urh75L4u9g6kAuo5AAD5wzE08ShzxEr7Fu7bb79dRo0a5frxt2vXzi1Mr9atWycfffSRS7h37tzpZnX2zUMPPeRmV7/hhhtyjF1nR/ztt9/crH2AVdRzAADyh2No4lHm2EuQ5qpUqRJMnDgx1+26rXLlyoGPatasGbz++uu5bn/ttdeCGjVqBKmgTJkywYoVKwKLSpcuTex/AfXcf1bjthy71bgtx241bsuxW43bp9g5hiYeZW5D6QSe46Z9l/ItW7a46exzo1PJb9u2TXy0fv16NwN2bnTbL7/8IqnAt7HESBzquf+sxm05dqtxW47datyWY7cat0+xcwxNPMoc8dI+4W7durXr0pFTxdfn+vbt617jo5YtW7qu8DrhW7zdu3e7bvD6Gh/prIDanSavFi9eLLVq1RKLhg0bFu1OZM3JJ58sJUuWTGoM1PPEsxq35ditxm05dqtxW47datyWY+cYmniUuQ0nJ/AcN+3X4V69erWcffbZsmTJEnfFKXacxddff+0mN9DF031cQ3nBggVubIguOXXKKadki/3TTz+VYsWKubEiTZo0Ed+ceOKJbrms5557Tjp06CCWvPTSS3l6XdeuXcU3/fv3d/MWHHTQQe6x7lTLly8vPqOeJ57VuC3HbjVuy7Fbjdty7Fbjthw7x9DEo8yTo7/P57gJ6bjuud27dwcffPBB0L9//+Caa65xN70/YcIEt81nWVlZwdNPPx107do1OPPMM91N7z/zzDPB5s2bA1/t2bMnePDBB4OSJUsGV111VbBly5bAinLlyuV6K1++fFCsWLGgUKFCgY80rnXr1pkbe0M9TyyrcVuO3WrclmO3Grfl2K3GbT12jqGJR5knXiGPz3HTvoUbyaU9C7p37+7WKLz++uulSJHsE+frDI9W/PzzzzJw4EAZMWKEtGnTRiZOnCi+KVSokCtrXfJOlSlTRubPny+HHXZYskNLaVbrudW4LcduNW7LsVuN23LsVuO2HrtVlHniWSzzQh6f45Jw74dOmDZnzhzXJQThrVV47bXXugnqYr/QGRkZ8t1334mFifd0PM7jjz8ujRs3lsGDB8tpp50mPvJ5Z7Q/Ou6pcOHC0cdffvml7NixQ0444QQpWrSo+M5qPbcat+XYrcZtOXarcVuO3Wrc1mOP0GTq/vvv3+fEwT6xXubavVy7auv5V2ZmplhgrcwL+XyOm+wmdt/NmzfP2+7BO3fuDG699dbg8MMPD1q2bBm88MIL2bavXbvW29gj8XXs2NF1xR41alRgjZb/I488ElSsWDGoV69e8MYbbwS+0/qwfPly151p06ZNrrvN/Pnz3ePYm0/WrFkTtGrVKihcuHBwyimnBBs3bgw6dOgQZGRkuJuWvb7GV1brudW4LcduNW7LsVuN23LsVuO2Grse43O6FS1aNBg7dmz0sa8slvmQIUOC33//3d3ftWtXcPPNN0eHGxYpUiTo3r27O4f0lcUy9/0cl4TbcMI9YMAAt474Qw89FPzrX/8KMjMz3fjz2C+MJiQ+GjNmjEtU27ZtG/zwww+BJTq+RXdAus5itWrVgmHDhrkdqgVaH7Q+R265PfbJ5ZdfHpx44onBuHHjgosvvtjdP/nkk4Mff/zR1R1Nxnv16hX4yGo9txq35ditxm05dqtxW47datyWY48c1yMXqWNvvh73rZd57FhiPUfX+X1GjBgRLFq0KHjllVeCypUru6TcR1bL3Pdz3LTvUl6hQoX9dmPdunWr+983devWlUcffVQ6duzoHi9fvlzat28vJ510khtHrOsAalchH2MvVaqU64Z93XXXiTU6m712pdExLX369InOhhivbNmy4ptp06bl6XWnnnqq+ELr8Ntvvy3HH3+8bNy4USpVqiQff/yxtG3b1m2fPHmyXH311bJixQrxjdV6bjVuy7Fbjdty7Fbjthy71bgtx96sWTOpXr26PPzww9ElkPTUX88hJ0yY4P5XPi7tZLXMY7s2H3300a5b9jXXXBPd/uqrr7rhhwsXLhTfWC1z389xs4+AT0M6BrRnz565LlD/ww8/uImwfPTTTz9lW1LgiCOOkKlTp7oJuy6//HJ58MEHxVedO3eWbt26iUWLFi1y/2v5PvTQQ3tt1wOZjm/x8UKHT4l0XumyDoceemj0Aple4Ig9MdB6rxPW+chqPbcat+XYrcZtOXarcVuO3WrclmOfNWuW3HbbbfK3v/1NXnnlFWnevHm2C9o+JtrWy1zpeaBatWqVW2orlj5euXKl+MhymZ/q8Tlu2rdwt2rVyi3y3rt37xy362B7vTrlY/KkkwDoOnmRlr6INWvWuEm7dCf6ySefeBm7Tn6lSVJkYgNLfL6CZnqNwlxoPX7jjTfk2GOPdY81fj15iPRO0e/o6aefLhs2bBDfWK3nVuO2HLvVuC3HbjVuy7Fbjdt67Epbs7WV9Z///Kf07dtXihcv7o6fjRo1El9ZLXNt4b7vvvukdOnS8sADD8hrr72WbfJlXae7devWrteeb6yWue/nuGnfwq2Lum/atCnX7XpS37VrV/GRtmSPHj16r4Rbr1hqN1v9MvvK8nUeHxPpvNIZSbWbUGRnpMnsvHnz/JjBcR/d4WbOnBlNuPXgFevzzz+Xpk2bio+s1nOrcVuO3WrclmO3Grfl2K3GbT12pUMOZ8+e7WYn1+TbAqtlXrNmTdcgpvTCxty5c7Ml3FOmTJH69euLj6yWue/nuGmfcN9xxx373F6jRg0ZOXKk+Oiuu+5y6+TlRLvgakusjnX1eTmtEiVK7PM1Po6Dju3S/9Zbb8m3337rHuvO8/zzz492f7awI7WwY3333Xf3ub1ly5ZeXwSxWs+txm05dqtxW47datyWY7cat/XYVZUqVeSDDz6Qf//731KxYkWvY7Vc5rr8174cd9xxXi83bLHMfT/HTfsu5flpEdd16XRNOmt8il2720TGt+TE53HQ6umnn5abbrpJdu7cGd3pZGVlSbFixWTo0KGuy5aPvF6jsIBQz9M3bsuxW43bcuxW47Ycu9W4rcd+IDiGJh5lnvrnuGnfwn2gPv30U/njjz/EIt9if/PNN/c7S7yP3n//fbnhhhvcDOU333xzdAepY150EjWdD6B27dpy9tlni290Jxm5chnZaeos/HqxwPcrl3lFPU/vuC3HbjVuy7Fbjdty7Fbjth57XnEMTTzKPPXPcWnhPkA+XS2xHHv8VShLdGy8Lr2mE2Lk5M4773TjinXGeN/EX7mM7JAsXLnMK+p5+sZtOXarcVuO3WrclmO3Grf12A8Ex9DEo8xT/xyXFm7gAOnkF8OGDct1uy7JpuOjfKQTdQAAAACpZIrH57gk3EgKnTlQlx6wSK+MFS1aNNftus3XFmKfJxdLRVbrudW4LcduNW7LsVuN23LsVuO2HrtVlHniWS7zUz0+xyXhRlKsXLlSrGrcuLGbOfvGG2/Mcfs777zjXuMzizOsW2S1nluN23LsVuO2HLvVuC3HbjVu67FbRZknXiqU+U8enuOScCMpjj766Dx33/ZNr169pGfPnm5txWuuuUaKFPn/X6Ndu3a5ruY6hltnMfdVbjOs33rrrV7PsG6R1XpuNW7LsVuN23LsVuO2HLvVuK3HbhVlnnjWy/xpT89x0z7hvvLKK+Xxxx93Exbkdd1uX2busxx7p06dxKpu3brJ119/Ldddd53069dPDj/8cDcRw3fffedmQ9QZzK+44grxkcUZ1qnniWc1bsuxW43bcuxW47Ycu9W4LcfOMTTxKPPkeN/jc9y0n6VcxynoB2FxNj7LsaeCL774QsaMGSPLli1zj+vVqyeXXHKJHH/88eIrizOsU88BAMgfjqGJR5knR2uPz3ELSZqzfL3Bcuzbt2+XcePGufXy4mnXD922Y8cO8Zkm1noF84MPPnC3xx57LMdkW7uv/PLLL+ID7QKks6jnRrf51k2Iep54VuO2HLvVuC3HbjVuy7Fbjdty7BxDE48yT465Hp/jpn3CrbRSaSXa181XVmPXsc65dbfRMRe6rNZzzz0nqeCVV17x5nOwOsM69TyxrMZtOXarcVuO3WrclmO3Grf12DmGJh5lnni7fT7HDdJcRkZGUKhQoVxvke0+shx7y5Ytg3HjxuW6/b333nOvSQWlS5cOVqxYEfhAy3To0KG5bn/kkUe8K3fqeeJZjdty7Fbjthy71bgtx241bsuxcwxNPMo8OVp6fI6b9pOmqTfffNObyQrSJXYd93zUUUflur1p06bRsdEoOFZnWKeeJ5bVuC3HbjVuy7Fbjdty7Fbjth47x9DEo8wTr5fH57gk3CLSqlUrsxMbWI1dK/+GDRukZs2aOW7XbfoaFCyrM6xTzxPLatyWY7cat+XYrcZtOXarcVuPnWNo4lHmidfN43NcxnAjKRo3biyTJk3KdftHH33kXoOC9/DDD8uMGTPcTueQQw5xyyZ0795dpk+fLo8++miyw0spVuu51bgtx241bsuxW43bcuxW47Yeu1WUeeJZL/OHfT3HDdJc7dq1g19++SWwyHLsw4YNC0qVKuXGgsTTsSO6TV+TCnwaw32gevbsGWzYsCGpMVDPE89q3JZjtxq35ditxm05dqtxW46dY2jiUeY29EzgOW7aJ9x33XVXsG3btujjjRs3BlZYjl116dLFTRzRsGHDoHPnzu7WoEEDN5HEJZdcEqSKa6+9NulJa36VKVMm6RcLqOfJYTVuy7Fbjdty7Fbjthy71bitxs4xNPEocxvKJPAcN0P/kTQWvzi9Tnk/b948Oeyww8R3lmOP+M9//iOjR492EzBoVaxXr578/e9/l4suukh89eCDD8r1118vJUuWdI+1m8oxxxzjJmmILAXRt29fLycfO1C6LMT8+fOTWqeo58ljNW7LsVuN23LsVuO2HLvVuC3GzjE08ShzG8ok8Bw37RPuQoUKydq1a6NfCh8SjHSI3bL97UjXrVsn1apV83I96wPlQ52ingMAkD8cQxOPMrehTAI/F2YpR1L99NNP8tZbb8m3337rHtevX1/OP/98OfTQQ8VX8deo0vyaFVK0nluO23LsVuO2HLvVuC3HbjVu67FbRZknHmVewII0p+MRli9fHmzevDnYtGmT688/f/589zj25iPLsaunnnoqKF68uBsnkpmZ6W56X5/Tbb7SGNetW5frpGhr1651n00q8GHCN+p5cliN23LsVuO2HLvVuC3HbjVuq7FzDE08ytyG0gk8x037hFsrkH4xIrfcHvvIcuzjx48PChcuHNx8883BmjVros/r/RtvvDEoUqRI8P777wc+IuFOLOp54lmN23LsVuO2HLvVuC3HbjVuy7FzDE08ytyG0gk8x037MdzTpk3L0+tOPfVU8Y3l2Fu3bi0nnXSS3HfffTluv/POO+Xzzz+XqVOnio9jczTu0qVLu8c6Qdqtt94qlSpVik6a1r9//5QYw92zZ0+59957o+8tGajniWc1bsuxW43bcuxW47Ycu9W4LcfOMTTxKHMbeibyHDchaT0QR7vXLFmyJNftuk1f46NatWq5NRb3d/PRkCFDgt9//z36+PPPPw+2b98efZyVleXWJUR613OrcVuO3WrclmO3Grfl2K3GbT12qyjzxLNc5kM8PsdN+0nTsrKy8vQ6nYnaN5Zj19bfokWL5rpdt/naQvz999+LVf369ZMrrrgiuqRZ+/bts82w/vvvv8uwYcO8WtKMep54VuO2HLvVuC3HbjVuy7Fbjdty7BxDE48yT45+Hp/jFpI0V65cOSlfvnyut8h2H1mOvXHjxvLuu+/muv2dd95xr/FRmzZtZNOmTWKRxRnWqeeJZzVuy7Fbjdty7Fbjthy71bgtx84xNPEo8+QIPD7HTfsW7ilTpohVlmPv1auXGztRvHhxueaaa6RIkf9fFXft2uWuPukYEZ9aWWPpuJWdO3cmO4y0QT1PPKtxW47datyWY7cat+XYrcZtOXaOoYlHmWMvSenIDgSBmwFRZ2osW7Zs0Lx586BZs2buvs7c2KdPn8BX8bOUW5JOM6z7wmo9txq35ditxm05dqtxW47datzWY7eKMk88q2We4fE5btrPUm55nIXl2CO++OILGTNmjCxbtsw9rlevnlxyySVy/PHHi690lvLJkydLhQoV9vm6pk2bim8szrBOPU8eq3Fbjt1q3JZjtxq35ditxm0xdo6hiUeZJ0chj89x0z7h1g8nIyMj1+1aPLrdpwQkFWLfnyVLlsi5554r3377rfha7jl9dSLP+1rutWvX3mediVi5cqX4gnruH6txW47datyWY7cat+XYrcbtc+wcQxOPMk+O2h6f4zKGO2achX4Bzj77bHn++efl0EMPFd9Zjn1/duzYIStWrBBfffnll3LwwQeLNRZnWKee+8dq3JZjtxq35ditxm05dqtx+xw7x9DEo8yT43uPz3HTPuGOX3S+cOHCrrtEZAp5n1mO3bqaNWtK5cqVxRqdYf3tt992M2RaQT0HACB/OIYmHmWeHG08PsdN+2XBgHTCDOsAAABINVM9Pscl4QbyceWyWLFiyQ4DAAAAgOfSvkt5TvIy4N5XVmIvX778PmPV9f58FRmb88cff8jHH38cnThCZ3A844wzpGTJkuKzxYsXy9q1a83NsB6Leh4uq3Fbjt1q3JZjtxq35ditxm099ngcQxOPMk/vc9y0T7jPP//8bI+3b98u1157rZQqVSrb8zomwDeWY3/00UfN7HxyMm7cOOnRo4f88ssv2Z7XpQdeeOEFOeecc8RXbdu2NTXDOvU88azGbTl2q3Fbjt1q3JZjtxq35dg5hiYeZZ48bT09x037ZcG6d++ep9eNHDlSfGM5dstmzJghrVu3dssi3HzzzdKwYcPoVbVHHnlExo8fL9OmTfNyrUJdqmLWrFn7nWG9Vq1a4gvqOQAA+cMxNPEo8+Qo5PM5ribcQKJ9+eWXwa5du3Ldvn379uD1118PfNS+ffvgmmuuyXW7btPX+CgjIyNYt25dssNIG1brudW4LcduNW7LsVuN23LsVuO2HrtVlHniWS7zDI/PcUm4c/H9998HixYtCnbv3h1YYyH2QoUKZftSlClTJlixYkX08dq1a91rfFS+fPlgwYIFuW6fP39+UK5cucBHPu+MDhT1PDxW47Ycu9W4LcduNW7LsVuN23rsOeEYmniUefqe46b9LOUjRoyQoUOHZnvummuucWvlHXnkkdKkSRNZvXq1+Mhy7PEjGXIa2eDraAedLK1s2bK5bs/MzHTjdXxkcYZ16nniWY3bcuxW47Ycu9W4LcduNW7LsXMMTTzKPDlO9fgcN+0T7uHDh7sZ+SImTpzoxlS89NJL8tVXX7nF0wcOHCg+shx7Xvg6aUPdunVl8uTJuW7/5JNP3Gt8nWFd64VeNNCJ3x5++GF30/v6nI+o536yGrfl2K3GbTl2q3Fbjt1q3L7GzjE08Sjz5Jji8Tlu2s9SvmzZMjnmmGOij999913p1KmTdOnSxT0eNGhQnic/SDTLsVumZXrLLbdIlSpV5Oyzz8627f3335fbbrtN7rjjDvGVtRnWqecAAOQPx9DEo8yTZ5yn57hpn3DHdw/WGaivuuqq6GPt/rG/9dySxXLs8WvlafeUJUuWyNatW93j+C+KT3r37u3KumPHjlK/fn03S7nG/80337idbOfOnaVPnz7iI437ggsuyHWGdd3m2wzr1PPksBq35ditxm05dqtxW47datxWY+cYmniUeXLM8PkcN0hzDRo0CN566y13f8OGDUHhwoWD2bNnZ5utr0qVKoGPLMeuExvkdtPJGCL/++y1114Lzj333KBhw4bu1qlTp2DMmDGBzyzOsE49TzyrcVuO3WrclmO3Grfl2K3GbTl2jqGJR5knR3uPz3HTvoW7W7du0qtXL1m0aJEbl9ugQQNp0aJFtqslOrmBjyzHPn/+/H1OPGbBxRdf7G6WfPHFFzJkyJBct2t90kknfEI9TzyrcVuO3WrclmO3Grfl2K3GbTl2jqGJR5knxxc+n+MGaU6n5r/rrruCZs2aBWeddVawePHibNsvuOCC4Pnnnw98ZDl2vUJ23HHHBcOHDw+ysrICSyJX9/Z106uZPipRooRbliI3uk1f4xPqeeJZjdty7Fbjthy71bgtx241bsuxcwxNPMo8OUp4fI6b9gn3gRo9enSwdevWwCKfYv/000+D7t27u/X9SpUqFXTt2tU9Z8E777yT661v375ByZIlg+LFiwc+OvLII4MRI0bkuv2FF15wr7GMep6+cVuO3WrclmO3Grfl2K3GbT32A8ExNPEo89Q/xyXhPkDxC8Bb4mPsuoPRL8cpp5zirqrVrVs3eOCBB4Kff/45sGTJkiVB586dXcu27pz2dYUtmYYOHRpUqFAheP/99/faNn78+KBixYrBI488ElhGPS84VuO2HLvVuC3HbjVuy7Fbjdt67HnBMTTxKPPUP8cl4T5ApUuX9u5LkSqxL1u2LLjjjjuCGjVqBEWLFg3OOeecwHc//fRT0KNHDxdvx44dg6+//jrwvZuTdmXSnadO6nHeeee5CwX169d3XeHPP/989xrLqOfhsBq35ditxm05dqtxW47datzWY88Nx9DEo8xT/xyXhDvFvhTWY9crasOGDXNXqHydBVFt2rQpuO2221z38RNOOMFMdxvLM6znFfU8PFbjthy71bgtx241bsuxW43beuw54RiaeJR56p/jknCn4JfCYuzTpk0LunXr5mIsW7asazWeOXNm4KMhQ4a4HU6jRo3cuG34hXpe8KzGbTl2q3Fbjt1q3JZjtxq39dj3hWNo4lHmqY+EO4W+FNZi1+7Y999/vxsXot0/WrVq5caL+DJxRG401oMOOshdPdPuKrndfGR5hvW8op6nd9yWY7cat+XYrcZtOXarcVuPPa84hiYeZZ7657hpvw43kqN9+/YyadIkqVSpknTt2lWuvPJKqV+/vlig8WZkZIhFY8eOzXXbzJkz5d///rfs2bMnoTGlMqv13GrclmO3Grfl2K3GbTl2q3Fbj90qyjzxLJf5WI/PcUm4D1CtWrWkaNGiYpFPsWscb775pnTs2FEKFy4slowaNUqs6tSp017PLV26VG6//XZ57733pEuXLnLPPfeIZdTz9I3bcuxW47Ycu9W4LcduNW7rsR8IjqGJR5mn/jluhjZzSxqbNWuWtGjRItdKtWPHDnn33XfloosuEt9Yjh3Jt2bNGhkwYIC8+OKL0q5dOxk8eLA0adJEfEM9BwAgfziGJh5lnnxrPDvHTfuEW78MP//8s1SuXNk9Llu2rMybN08OO+ww93jdunVSrVo12b17t/jGcuxIns2bN8ugQYPkiSeekGbNmsmQIUPk5JNPFl9RzwEAyB+OoYlHmSfPZk/PcdO+S3n89Yacrj/4ek3CcuxIjgcffNDtfA455BAZM2ZMjt1vfEM9BwAgfziGJh5lnhwPenyOm/YJd15YnSDLeuwoeDqOpWTJknLEEUe4bjZ6y8nbb78tllDPAQDIH46hiUeZp9c5Lgk3kEYsz7AOAAAAWDvHJeEWkcWLF8vatWujXTyWLFkiW7dudY9/+eUX8Znl2JF4VmdYp54DAJA/HEMTjzJPvFEen+Om/aRphQoVcldDciqGyPP6v48TG1iOHcgr6jkAAPnDMTTxKHPES/sW7pUrV4pVlmMH8op6DgBA/nAMTTzKHPHSvoUbAAAAAIAwpH0L96pVq/L0upo1a4pvLMcO5BX1HACA/OEYmniUOeKlfQu3Lk4fESmK2BnufB5nYTl2IK+o5wAA5A/H0MSjzBEv7Vu4tcJXr15drrjiCjnnnHOkSBE7RWI5diCvqOcAAOQPx9DEo8wRL+1buHXKfl0YfeTIkbJp0ya57LLL5KqrrpKGDRuK7yzHDuQV9RwAgPzhGJp4lDnipX3CHevzzz93X4433nhDGjVq5L4cetPp/X1nOXYgr6jnAADkD8fQxKPMoUi4c7Bu3Tq59NJLZdq0abJhwwapUKGCWGE5diCvqOcAAOQPx9DEo8zTG5dXYsyYMUN69Ogh9erVk61bt8pTTz0l5cqVEwssxw7kFfUcAID84RiaeJQ5VNqP4v/555/lpZdect09fvvtN+nSpYtMnz5dmjRpIr6zHDuQV9RzAADyh2No4lHmiJf2XcqLFi0qhx56qHTr1k3OPfdc9zgnTZs2Fd9Yjh3IK+o5AAD5wzE08ShzxEv7hDt20oLIGnnxReLrWnmWYwfyinoOAED+cAxNPMoc8dK+S/nKlSvFKsuxA3lFPQcAIH84hiYeZY54ad/CDQAAAABAGNK+hXvBggV5ep2P4ywsxw7kFfUcAID84RiaeJQ54qV9C7eOs9BxFPsqBl/HWViOHcgr6jkAAPnDMTTxKHPES/sWbsvjLCzHDuQV9RwAgPzhGJp4lDnipX3C/eKLL8ott9wiBx10kFhjOXYgr6jnAADkD8fQxKPMES/tu5QXLlzYLVBfuXJlscZy7EBeUc8BAMgfjqGJR5kj3v8tFJemLF9vsBw7kFfUcwAA8odjaOJR5oiX9gl37KL0FlmOHcgr6jkAAPnDMTTxKHPESvsu5TqTYGZm5n6/GBs3bhTfWI4dyCvqOQAA+cMxNPEoc8RL+0nT1MCBA90XwyLLsQN5RT0HACB/OIYmHmWOWLRwFyoka9euNTmxgeXYgbyingMAkD8cQxOPMke8tB/DbXmMheXYgbyingMAkD8cQxOPMke8tE+4LTfwW44dyCvqOQAA+cMxNPEoc8RL+y7lAAAAAACEIe1buAEAAAAACAMJNwAAAAAAISDhBgAAAAAgBCTcAACkge+//97Nnjtv3rxkhwIAQNog4QYAwAhNmPd1u/vuu5MdIgAAiFEk9gEAAPDXzz//HL3/+uuvS//+/WXp0qXR50qXLp2kyAAAQE5o4QYAwIhDDjkkesvMzHSt2pHHlStXlqFDh0r16tWlePHi0qxZM5k4cWKuv2v37t1y5ZVXSoMGDWTVqlXuuXfffVeOPvpoKVGihBx22GEycOBA2bVrV/Rn9O89//zzct5558lBBx0kdevWlXHjxiXkvQMAYBEJNwAAKeDxxx+XRx55RB5++GFZsGCBtGvXTs4991xZtmzZXq/dsWOHXHjhhW4892effSY1a9Z0/3ft2lV69+4tixcvlmHDhsmoUaPk/vvvz/azmoRfdNFF7m+cffbZ0qVLF9m4cWMC3ykAAHaQcAMAkAI00e7bt69ccsklUr9+fRkyZIhr5X7ssceyvW7r1q3SoUMH2bBhg0yZMkUOPvjgaCJ9++23S7du3Vzr9hlnnCH33nuvS7xjXXHFFXLppZfKEUccIYMGDXK/b9asWQl9rwAAWMEYbgAAjMvKypI1a9ZIq1atsj2vj+fPn5/tOU2Wtdv55MmTpWTJktHn9XXTp0/P1qKt3c63b98uv//+u+tCrpo2bRrdXqpUKSlbtqysX78+xHcHAIBdJNwAAKQR7Qb+yiuvyMyZM6VNmzbR57WlWlu5zz///L1+Rsd0RxQtWjTbNh3XvWfPnpCjBgDAJhJuAACM01bmatWquRbqU089Nfq8Pj722GOzvbZnz57SpEkTN777/fffj75eJ0vTGc+1qzgAACgYJNwAAKSAW2+9VQYMGCCHH364G7s9cuRINynaq6++utdrr7/+etddvGPHjjJhwgQ56aST3BJj+lgnULvgggukUKFCrpv5woUL5b777kvKewIAwDoSbgAAUsANN9wgmzdvlptvvtmNqW7UqJFbskuX7spJnz59XFdw7WKuy4fprObjx4+Xe+65x024pl3HdcmwHj16JPy9AACQKjKCIAiSHQQAAAAAAKmGZcEAAAAAAAgBCTcAAAAAACEg4QYAAAAAIAQk3AAAAAAAhICEGwAAAACAEJBwAwAAAAAQAhJuAAAAAABCQMINAAAAAEAISLgBAAAAAAgBCTcAAAAAACEg4QYAAAAAIAQk3AAAAAAASMH7f/t2RwKVoUJ6AAAAAElFTkSuQmCC",
      "text/plain": [
       "<Figure size 1200x500 with 1 Axes>"
      ]
     },
     "metadata": {},
     "output_type": "display_data"
    }
   ],
   "source": [
    "from collections import Counter\n",
    "\n",
    "# Flatten sequences into a single list of token IDs\n",
    "all_tokens = [token for seq in train_sequences for token in seq]\n",
    "\n",
    "# Count token occurrences\n",
    "token_counts = Counter(all_tokens)\n",
    "\n",
    "# Convert to token names\n",
    "token_names = {id_to_token[k]: v for k, v in token_counts.items()}\n",
    "sorted_tokens = sorted(token_names.items(), key=lambda x: x[1], reverse=True)\n",
    "\n",
    "# Display top 20 tokens\n",
    "print(\"Top 20 Most Frequent Tokens:\")\n",
    "for token, count in sorted_tokens[:20]:\n",
    "    print(f\"{token}: {count}\")\n",
    "\n",
    "# Bar plot of most common tokens\n",
    "plt.figure(figsize=(12, 5))\n",
    "sns.barplot(x=[t[0] for t in sorted_tokens[:20]], y=[t[1] for t in sorted_tokens[:20]])\n",
    "plt.xticks(rotation=90)\n",
    "plt.xlabel(\"Token\")\n",
    "plt.ylabel(\"Count\")\n",
    "plt.title(\"Top 20 Most Frequent Tokens in Dataset\")\n",
    "plt.show()\n"
   ]
  },
  {
   "cell_type": "code",
   "execution_count": 10,
   "id": "0b2049b8-5058-471d-a5de-e3366d7fc39c",
   "metadata": {},
   "outputs": [
    {
     "name": "stdout",
     "output_type": "stream",
     "text": [
      "Top 15 Most Frequent TIME_SHIFT Tokens:\n",
      "TIME_SHIFT_10ms: 6024382\n",
      "TIME_SHIFT_20ms: 485016\n",
      "TIME_SHIFT_30ms: 365672\n",
      "TIME_SHIFT_40ms: 215991\n",
      "TIME_SHIFT_50ms: 211109\n",
      "TIME_SHIFT_60ms: 170282\n",
      "TIME_SHIFT_80ms: 112162\n",
      "TIME_SHIFT_70ms: 110156\n",
      "TIME_SHIFT_100ms: 88466\n",
      "TIME_SHIFT_90ms: 76732\n",
      "TIME_SHIFT_110ms: 65752\n",
      "TIME_SHIFT_120ms: 56745\n",
      "TIME_SHIFT_130ms: 44308\n",
      "TIME_SHIFT_150ms: 37247\n",
      "TIME_SHIFT_140ms: 33581\n"
     ]
    },
    {
     "data": {
      "image/png": "iVBORw0KGgoAAAANSUhEUgAAA9wAAAJOCAYAAABFiQ/hAAAAOnRFWHRTb2Z0d2FyZQBNYXRwbG90bGliIHZlcnNpb24zLjEwLjAsIGh0dHBzOi8vbWF0cGxvdGxpYi5vcmcvlHJYcgAAAAlwSFlzAAAPYQAAD2EBqD+naQAAUvZJREFUeJzt3QmYXfP9P/BvFhJLFkGIiBA7sRX1J7XVVlstrbZqCU2prZZWlVaL1lqtUhRFLG21qqULJVSI2iMahKI0iCXWLGIJTe7/+RzPzG8mmUkmkWPmnu/r9Tz3ydwlM+d9v2funM/5LqdTrVarJQAAAGCB6rxgvx0AAAAQFNwAAABQAgU3AAAAlEDBDQAAACVQcAMAAEAJFNwAAABQAgU3AAAAlEDBDQAAACVQcAMAAEAJFNwAAB3MAQcckBZffPH23gwAPiYFN0DFXHnllalTp07F7e67757t+VqtlgYMGFA8v8suu5SyDS+//HI6+eST09ixY+d5m2e9HX/88Skn11xzTTr33HPn+rp4f1t7z5rettpqq1YLuHguXrPqqqu2+DNuu+22xu/zxz/+sU3tFbf7779/njL/7W9/S1tuuWXq27dvWnTRRdOgQYPSl770pXTLLbc0vua5554rvvdPf/rTOb4fb7zxRuNjc8rc0u3JJ59s03sat9ieWcXPa8v/jdcBkIeu7b0BAJSje/fuRfH2mc98ptnjo0aNSi+++GLq1q1baT87Cu5TTjklrbjiimn99ddv8//70Y9+lFZaaaVmjw0ePDjlJNps3Lhx6eijj57j6/bcc8+0yiqrNN6fNm1aOvTQQ9Mee+xRPNdgmWWWmet+8swzz6QHH3wwffrTn2723G9/+9vi+ffff7/N7RWabtfcRAH9ne98pyi4TzjhhKLgju35xz/+kX7/+9+nz33uc2lBW3755dMZZ5wx2+P9+vVLv/71r5s99rOf/az4ffn5z3/e7PGll156tv//jW98I2277baN98ePH59++MMfpoMPPjhtvvnmjY+vvPLKCygJAB2dghugonbaaad03XXXpV/84hepa9euzQq6DTfcsFlPYEex4447po022qhNr40icOGFF06dO+c5WGvdddctbg2iPaPgjsf23XffNn+fKP7+97//pd/97nfNCu54f2+44Ya08847pz/96U8fu71aEj/3xz/+cdpuu+3SrbfeOtvzr732WipDr169Wn2PZn08iv5Jkya16T3ddNNNi1uDhx56qCi447F5aRMAqiPPoxSADOy9997pzTffLIYFN/jggw+KocFf/epXW/w/77zzTvr2t79dDDmPHvDVV1+96IGMYehNxfeMnvPevXsXQ3bjdd/73veK5+6888608cYbF18feOCBjcNoYxjy/IrvGd8jip8TTzwx9e/fv+gJnTp1avH8Aw88UPSERiEVj0dv6T333DPb94kh9rFt0WsbheYll1zSOBR51qHLLW1vPB6vb+qll15KX/va14qe5HjP1l577TR8+PAWt/8Pf/hDOu2004oe1tiGbbbZpujNbTrc+aabbkrPP/984/sWowQ+iX3l2muvTTNnzmw2zPvdd98thnaXJU4SRBsOGTKkxedjiHkVxYmwOOm1yCKLpKWWWqooxmM/mpuYohE967GfxIiGBb3/hf/85z/pC1/4Qlp22WWL18Rrv/KVr6QpU6Ys4HcBIA96uAEqKgq16FmLnsvoiQw333xzceAcB9DR891UFNWf//zn0x133JGGDRtWDAUfMWJEMdw3DuobhtQ+/vjjxdzv6EmNIcVxkB8H7Q0F7pprrlk8PutQ2s0222yu2xzbNmvPexQkDaI3NHq1jz322DR9+vTi65EjRxb5ooA56aSTih7vK664In32s59N//znPxt7bR977LG0/fbbFwVLFM3Ruxqvn9uQ6zl59dVX0//7f/+vKGaOOOKI4nvHexzvXxSSsw4LP/PMM4vti+2PrD/5yU/SPvvsU5wwCN///veLx5sOYf4kFs6KEzDxnkRhFu9bw0iIKMjmVPS21F7xXiy55JJt+rnxvaPojOL+m9/8ZurTp89c/0+cBGhpdEY83lYzZsyY7XtEcflJvNdxIidORMWJnxjWHvvQeeedV/z+/Otf/ypOYrVk9OjRaYcddihGFPzlL38p3rcFvf/FCbn4GfG7Fe0RRXf87t94441p8uTJxQktAOZRDYBKueKKK6I7ujZ69OjaBRdcUOvRo0ft3XffLZ7ba6+9altvvXXx9cCBA2s777xz4//785//XPy/U089tdn3++IXv1jr1KlT7Zlnninu//znPy9e9/rrr7e6DfGz4zWxLfOyzS3dwh133FF8PWjQoMYsYebMmbVVV121tsMOOxRfN4jXrLTSSrXtttuu8bHdd9+91r1799rzzz/f+NgTTzxR69KlS+PPCePHj2912+Pxk046qfH+sGHDav369au98cYbzV73la98pdarV6/GbW3Y/jXXXLM2ffr0xtedd955xeOPPfZY42PRJtE28yraY9bta2ro0KG1xRZbrNljW265ZW3ttdcuvt5oo42KPGHSpEm1hRdeuHbVVVc1bvt1113Xpvbq1q3bPG33D3/4w+L/xbbtuOOOtdNOO602ZsyY2V7X0C5zuzXdL1vL3NL/i9e2ZH7bo6Xfgw8++KDWt2/f2uDBg2vvvfde4+tuvPHG4nXxXrS07XfffXetZ8+exba8//77pe1///rXv2ZrawA+HkPKASoshgO/9957RQ/V22+/Xfzb2nDyv//976lLly7pyCOPbPZ4DDGPWjN6zkJDD1z0sjUdgrwgXHjhhcVw9aa3poYOHVr07DUdYhtDYCNTDJ+PXsu4xdD46J296667im2MHs3ord99993TCius0Pj/ozc+evTmR7wnMbd51113Lb5u+Nlxi+8ZPYgPP/xws/8TPZvRK9+goff/v//9b2pv8R5ef/31jdMOYl+IBdjmtb0a9pO2isX1ojd9gw02KNooevljtMKnPvWp9O9//3u218eoiVl/Ztz222+/eRr9Mev/P+6441LZYk53zEs/7LDDih71BjFPfo011iimE8wqRpzE/hT7c7RPw2KHZex/DT3Y0Q7zMmIAgAyGlMdB1dlnn53GjBmTXnnllWKhlziwmhfxBytWI/3Vr35VzJ+LYYzxRzH++APUoxhiGqsmR0ETB9BReH7xi19s8bXxubfccsulHj16NHs8itKG58OXv/zldNlll6Wvf/3rxSW7ohCIVbHj+37cBcxi+PecFuGadUXsKLYbCvHWROERQ2TjxENLl7+K+edxsmFevf7668Uw2/ibEbeWzLroV9NiPyyxxBLFv7EoV3uLaQYx1DgK5lidPKYNzLovzGt7zcsc8rjFMOgY3hzDrmOfjWIyVmxvWpxGGzZdCbxBS5fAa81iiy3W4vcoW8PvUOxzs4qCe9YMsXBdFONxAiLmXzdd/LCM/S9+v771rW+lc845p9gHoiCPaSYxx9xwcoDMC+7ozVhvvfWKhUOaXg5lXhx11FHFKqmxQNA666yT3nrrreIGUM+i5/Kggw5KEydOLOY6tzZHtK2ihzlOckbPW/TIxbWSY8GtmPsbn6HRM1qWpr3boaGHPU64tnb5sZiXGwV3WzVdQK2pOFnR0s+OYqS1gr/pKuKhtfdm1kXp2kNcEisW44oTzzGfuLWVycvUs2fPYsXyuC200ELpqquuKgrwWAQvR9GbHVcbiNEk8XsWJ0HK3v+i/eM64fEz4/c5RrzEXPO4tnosoAZApgV3HEQ2LArUkjjYip7qWDwozgjHdV3POuus4uAixLC1iy66qDiT3nDmuaVriwLUmxgWHNcHjgPmKIxbM3DgwOLaxzH0vGnP5pNPPtn4fIPoyY6e7bhFb9jpp59efMZGER49h60VrQtaw/WMo1CbU49l9PRHsd7QI97UU0891WKvX/ytaKl3sun3jPcpCvEF2Vv6Sb13rZ2ciZELcVImCr32FD3nUXDHqLWqaPgdin2uYXG6BvFY09+xhn0hepp32223tNdeexWjDxqOW8ra/0J0OsQtrghw7733FqvIX3zxxenUU09doD8HIAfZzOGO1Tvvu+++4pIyjz76aPGHKy4h03DwFSukDho0qJjfGIV2zO+Kgw493EC9ix7eOKEYq1DHEN3WRIEVB+8XXHBBs8djtew48G84qdnS52JD73JDT3IM2W2paF3QYqhtFN0xMqnhMklNxbDbhp69mNf65z//Ob3wwguNz8fJ1piv2lQU7zGlKHrxm/rlL3/Z7H58z7h8UvQEx8na1n72vIr3rr0uwRTTAmLl9sjadK5vWWKaQ/xtbknDXPCWhl/XqziJECuzR/HadNRFZI19MYaPzyraIeZux6rm8fv74IMPlrb/xZD+WL2/qSi84wTbvIwSAaCCPdxzEgdXcYmY+DfmJ4aYpxbDs+Lx6JmJBUOi9yKujXn11VcXB53HHHNMcfARl5wBqGdzmuPcIA7mt95666KnOq5FHdN0YkhpDC2Nyws19CbHJb+iGI3iIHrkYp5oFGgx3DSuzR3itdFLGoVF9MJFEbnJJpss8JFDUQjEfPI4GRDXH45FoeIa3XEpo+htj+I5Tqg2LM4Vn/sxLzXW54jC4vzzzy/+X5yIbSpOuMYllOLfKJIi79NPPz3bz4/XxM+JbDFsf6211ipOSMRiVTFaYH5O2sZJhBiJEHNpo8iKEyZzOlGyIMU83VmvMz4nUSg2jIBoKi4BFyex21Jwx2vj0lZxEjyu/x4naeLESFzSLdZiicXUqiKGycfouthPY5h8zFtvuCxYnOiP446WxOiM6BCIXvHY10eNGlWM1FvQ+18c70QHRXRKrLbaasXvyK9//evG4h6AeZdFwR3XXo0COv54NBVnaxuuFRpzoeJ+FNsNr7v88suLA58Y5lWlM+wArRWvf/3rX4vrZ0fBFyckowiI+dGxUnmDWEQpCvLhw4cXKyJHb3AUD1HQNiys1DD/9oQTTkiHHHJIceAe36+MqToxxDZ6SeMa3dE7Hz3dcf3gKEJiKH3T+azRmx2FbGSMEwSxzTFkedaCO56PHsJYrTsWq4oiJ4rLWa9JHdfwjh7HOAkRvZBx4iH+rkQRH4XV/IiTAbH6erxfMbogTmp8UgX3vIr3qSWx7W0puOOkzKWXXlqsBRD/J9YZiOIu/ubGfjfrivlVEPOjF1100aJY/u53v1ucjIppH7G/zGl9hTh5FPvvFltsUcxxjxMSq6yyygLd/+IkW4wEiZNUcdIqtjMei30/TooAMO86xbXBUsXE0Memq5THgeM+++yTHn/88dkWDImegzgwiyF00dP94YcfNj4XK9rGH5vo4Yk/bgBUT/ToRuFdwT+HAEA7y6KHO4ajRQ93DHtsuObkrGJBkOiBefbZZxuHTTYMH5x1ERMAAADIpuCOIYTPPPNM4/3x48cXQ/L69OlTDBGPHu7999+/uNxFFOAxVPD2228vhhjGPMRY4fNTn/pUcVmxc889txhifvjhhxc927MORQcA5izmD3/wwQetPh8jzmKlbQCossoU3A899FCx2E+DmKPXsFDQlVdeWcwNi8tZxDzEmJcUcw5jPlLDNS1j7mLMWfrmN79ZzI+KOVUxZy8KdABg3uy5557F4l6tidFjsRYAAFRZJedwAwDta8yYMWnSpEmtPh8rb8d0LgCoMgU3AAAAlKBzGd8UAAAAclfXc7hjYbOXX3459ejRo7gUGAAAAJQpBom//fbbabnllivWAqtswR3F9oABA9p7MwAAAMjMhAkT0vLLL1/dgjt6thuC9uzZs703BwAAgIqbOnVq0fHbUI9WtuBuGEYexbaCGwAAgE9KW6Y1WzQNAAAASqDgBgAAgBIouAEAAKAECm4AAAAogYIbAAAASqDgBgAAgBIouAEAAKAECm4AAAAogYIbAAAASqDgBgAAgBIouAEAAKAECm4AAAAogYIbAAAAqlhwv/TSS2nfffdNSy65ZFpkkUXSOuuskx566KH23iwAAAD4WLqmdjRp0qQ0ZMiQtPXWW6ebb745Lb300uk///lPWmKJJdpzswAAAKC+C+6zzjorDRgwIF1xxRWNj6200koL5Htv+J2rUxWMOXv/9t4EAAAA6m1I+V//+te00UYbpb322iv17ds3bbDBBunSSy9t9fXTp09PU6dObXYDAACAjqhdC+7//ve/6aKLLkqrrrpqGjFiRDr00EPTkUcema666qoWX3/GGWekXr16Nd6idxwAAAA6ok61Wq3WXj984YUXLnq477333sbHouAePXp0uu+++1rs4Y5bg+jhjqJ7ypQpqWfPns1ea0g5AAAAC1rUodEB3FId2qF6uPv165fWWmutZo+tueaa6YUXXmjx9d26dSsCNb0BAABAR9SuBXesUP7UU081e+zpp59OAwcObLdtAgAAgLovuI855ph0//33p9NPPz0988wz6Zprrkm/+tWv0uGHH96emwUAAAD1XXBvvPHG6YYbbki/+93v0uDBg9OPf/zjdO6556Z99tmnPTcLAAAA6vs63GGXXXYpbgAAAFAl7drDDQAAAFWl4AYAAIASKLgBAACgBApuAAAAKIGCGwAAAEqg4AYAAIASKLgBAACgBApuAAAAKIGCGwAAAEqg4AYAAIASKLgBAACgBApuAAAAKIGCGwAAAEqg4AYAAIASKLgBAACgBApuAAAAKIGCGwAAAEqg4AYAAIASKLgBAACgBApuAAAAKIGCGwAAAEqg4AYAAIASKLgBAACgBApuAAAAKIGCGwAAAEqg4AYAAIASKLgBAACgBApuAAAAKIGCGwAAAEqg4AYAAIASKLgBAACgBApuAAAAKIGCGwAAAEqg4AYAAIASKLgBAACgBApuAAAAKIGCGwAAAEqg4AYAAIASKLgBAACgBApuAAAAKIGCGwAAAEqg4AYAAIASKLgBAACgBApuAAAAKIGCGwAAAEqg4AYAAIASKLgBAACgBApuAAAAKIGCGwAAAEqg4AYAAICqFdwnn3xy6tSpU7PbGmus0Z6bBAAAAAtE19TO1l577fSPf/yj8X7Xru2+SQAAAPCxtXt1GwX2sssu296bAQAAANWaw/2f//wnLbfccmnQoEFpn332SS+88EKrr50+fXqaOnVqsxsAAAB0RO1acG+yySbpyiuvTLfccku66KKL0vjx49Pmm2+e3n777RZff8YZZ6RevXo13gYMGPCJbzMAAAC0RadarVZLHcTkyZPTwIED0znnnJOGDRvWYg933BpED3cU3VOmTEk9e/Zs9toNv3N1qoIxZ+/f3psAAABAkzo0OoBbqkM73Bzupnr37p1WW2219Mwzz7T4fLdu3YobAAAAdHTtPoe7qWnTpqVnn3029evXr703BQAAAOq34D722GPTqFGj0nPPPZfuvffetMcee6QuXbqkvffeuz03CwAAAD62dh1S/uKLLxbF9ZtvvpmWXnrp9JnPfCbdf//9xdcAAABQz9q14P7973/fnj8eAAAA8pjDDQAAAFWh4AYAAIASKLgBAACgBApuAAAAKIGCGwAAAEqg4AYAAIASKLgBAACgBApuAAAAKIGCGwAAAEqg4AYAAIASKLgBAACgBApuAAAAKIGCGwAAAEqg4AYAAIASKLgBAACgBApuAAAAKIGCGwAAAEqg4AYAAIASKLgBAACgBApuAAAAKIGCGwAAAEqg4AYAAIASKLgBAACgBApuAAAAKIGCGwAAAEqg4AYAAIASKLgBAACgBApuAAAAKIGCGwAAAEqg4AYAAIASKLgBAACgBApuAAAAKIGCGwAAAEqg4AYAAIASKLgBAACgBApuAAAAKIGCGwAAAEqg4AYAAIASKLgBAACgBApuAAAAKIGCGwAAAEqg4AYAAIASKLgBAACgBApuAAAAKIGCGwAAAEqg4AYAAIASKLgBAACgBApuAAAAKIGCGwAAAKpccJ955pmpU6dO6eijj27vTQEAAIBqFNyjR49Ol1xySVp33XXbe1MAAACgGgX3tGnT0j777JMuvfTStMQSS7T35gAAAEA1Cu7DDz887bzzzmnbbbdt700BAACABaZrake///3v08MPP1wMKW+L6dOnF7cGU6dOLXHrAAAAoA57uCdMmJCOOuqo9Nvf/jZ17969Tf/njDPOSL169Wq8DRgwoPTtBAAAgPnRqVar1VI7+POf/5z22GOP1KVLl8bHZsyYUaxU3rlz56Inu+lzrfVwR9E9ZcqU1LNnz2av3fA7V6cqGHP2/u29CQAAADSpQ6MDuKU6tMMMKd9mm23SY4891uyxAw88MK2xxhrpu9/97mzFdujWrVtxAwAAgI6u3QruHj16pMGDBzd7bLHFFktLLrnkbI8DAABAvWn3VcoBAACgitp1lfJZ3Xnnne29CQAAALBA6OEGAACAEii4AQAAoAQKbgAAACiBghsAAABKoOAGAACAEii4AQAAoAQKbgAAACiBghsAAABKoOAGAACAEii4AQAAoAQKbgAAACiBghsAAABKoOAGAACAEii4AQAAoAQKbgAAACiBghsAAABKoOAGAACAEii4AQAAoAQKbgAAACiBghsAAABKoOAGAACAEii4AQAAoAQKbgAAACiBghsAAABKoOAGAACAEii4AQAAoKMU3IMGDUpvvvnmbI9Pnjy5eA4AAAByN18F93PPPZdmzJgx2+PTp09PL7300oLYLgAAAKhrXeflxX/9618bvx4xYkTq1atX4/0owG+//fa04oorLtgtBAAAgKoX3Lvvvnvxb6dOndLQoUObPbfQQgsVxfbPfvazBbuFAAAAUPWCe+bMmcW/K620Uho9enRaaqmlytouAAAAyKfgbjB+/PgFvyUAAACQe8EdYr523F577bXGnu8Gw4cPXxDbBgAAAHkV3Kecckr60Y9+lDbaaKPUr1+/Yk43AAAA8DEL7osvvjhdeeWVab/99puf/w4AAACVN1/X4f7ggw/SZptttuC3BgAAAHIuuL/+9a+na665ZsFvDQAAAOQ8pPz9999Pv/rVr9I//vGPtO666xbX4G7qnHPOWVDbBwAAAPkU3I8++mhaf/31i6/HjRvX7DkLqAEAAMB8Ftx33HHHgt8SAAAAyH0ONwAAAFBCD/fWW289x6HjI0eOnJ9vCwAAAHkX3A3ztxt8+OGHaezYscV87qFDhy6obQMAAIC8Cu6f//znLT5+8sknp2nTpn3cbQIAAIC6t0DncO+7775p+PDhC/JbAgAAQF1aoAX3fffdl7p3774gvyUAAADkM6R8zz33bHa/VqulV155JT300EPpBz/4wYLaNgAAAMir4O7Vq1ez+507d06rr756+tGPfpS23377BbVtAAAAkFfBfcUVVyz4LQEAAIDcC+4GY8aMSf/+97+Lr9dee+20wQYbLKjtAgAAgPwWTXvttdfSZz/72bTxxhunI488srhtuOGGaZtttkmvv/56m7/PRRddlNZdd93Us2fP4rbpppumm2++eX42CQAAAOq/4P7mN7+Z3n777fT444+nt956q7iNGzcuTZ06tSi+22r55ZdPZ555ZtFTHguuRRG/2267Fd8XAAAA6lmnWiwxPh+Lpv3jH/8oeribevDBB4tF0yZPnjzfG9SnT5909tlnp2HDhs31tVHgx7ZMmTKl6CFvasPvXJ2qYMzZ+7f3JgAAANCGOnSBzOGeOXNmWmihhWZ7PB6L5+bHjBkz0nXXXZfeeeedYmh5S6ZPn17cmgYFAACAygwpj6HfRx11VHr55ZcbH3vppZfSMcccU8zjnhePPfZYWnzxxVO3bt3SIYcckm644Ya01lprtfjaM844oziT0HAbMGDA/Gw+AAAAdMyC+4ILLih6l1dcccW08sorF7eVVlqpeOz888+fp+8V1+8eO3ZseuCBB9Khhx6ahg4dmp544okWX3vCCScU3fYNtwkTJszP5gMAAEDp5mtIefQsP/zww8U87ieffLJ4bM0110zbbrvtPH+vhRdeOK2yyirF17HS+ejRo9N5552XLrnkktleG73gcQMAAIBK9XCPHDmyGO4dPdmdOnVK2223XbFiedxiAbW4Fvc///nPj7VBMQe86TxtAAAAqHwP97nnnpsOOuigFldiiznV3/jGN9I555yTNt988zZ9vxgivuOOO6YVVlihuMzYNddck+688840YsSIedksAAAAqO8e7kceeSR97nOfa/X5uCRYXFO7rV577bW0//77F/O4Y7G1GE4exXb0nAMAAEA2Pdyvvvpqi5cDa/xmXbum119/vc3f7/LLL5+XHw8AAADV7OHu379/GjduXKvPP/roo6lfv34LYrsAAAAgn4J7p512Sj/4wQ/S+++/P9tz7733XjrppJPSLrvssiC3DwAAAKo/pPzEE09M119/fVpttdXSEUccUcy9DnFpsAsvvDDNmDEjff/73y9rWwEAAKCaBfcyyyyT7r333nTooYcWK4zXarXi8bhE2A477FAU3fEaAAAAyN08Fdxh4MCB6e9//3uaNGlSeuaZZ4qie9VVV01LLLFEOVsIAAAAORTcDaLA3njjjRfs1gAAAECOi6YBAAAAbaPgBgAAgBIouAEAAKAECm4AAAAogYIbAAAASqDgBgAAgBIouAEAAKAECm4AAAAogYIbAAAASqDgBgAAgBIouAEAAKAECm4AAAAogYIbAAAASqDgBgAAgBIouAEAAKAECm4AAAAogYIbAAAASqDgBgAAgBIouAEAAKAECm4AAAAogYIbAAAASqDgBgAAgBIouAEAAKAECm4AAAAogYIbAAAASqDgBgAAgBIouAEAAKAECm4AAAAogYIbAAAASqDgBgAAgBIouAEAAKAECm4AAAAogYIbAAAASqDgBgAAgBIouAEAAKAECm4AAAAogYIbAAAASqDgBgAAgBIouAEAAKAECm4AAAAogYIbAAAASqDgBgAAgBIouAEAAKAECm4AAACoWsF9xhlnpI033jj16NEj9e3bN+2+++7pqaeeas9NAgAAgPovuEeNGpUOP/zwdP/996fbbrstffjhh2n77bdP77zzTntuFgAAAHxsXVM7uuWWW5rdv/LKK4ue7jFjxqQtttii3bYLAAAA6rrgntWUKVOKf/v06dPi89OnTy9uDaZOnfqJbRsAAADU5aJpM2fOTEcffXQaMmRIGjx4cKtzvnv16tV4GzBgwCe+nQAAAFBXBXfM5R43blz6/e9/3+prTjjhhKIXvOE2YcKET3QbAQAAoK6GlB9xxBHpxhtvTHfddVdafvnlW31dt27dihsAAAB0dO1acNdqtfTNb34z3XDDDenOO+9MK620UntuDgAAAFSj4I5h5Ndcc036y1/+UlyLe+LEicXjMT97kUUWac9NAwAAgPqdw33RRRcVc7G32mqr1K9fv8bbtdde256bBQAAAPU/pBwAAACqqMOsUg4AAABVouAGAACAEii4AQAAoAQKbgAAACiBghsAAABKoOAGAACAEii4AQAAoAQKbgAAACiBghsAAABKoOAGAACAEii4AQAAoAQKbgAAACiBghsAAABKoOAGAACAEii4AQAAoAQKbgAAACiBghsAAABKoOAGAACAEii4AQAAoAQKbgAAACiBghsAAABKoOAGAACAEii4AQAAoAQKbgAAACiBghsAAABKoOAGAACAEii4AQAAoAQKbgAAACiBghsAAABKoOAGAACAEii4AQAAoAQKbgAAACiBghsAAABKoOAGAACAEii4AQAAoAQKbgAAACiBghsAAABKoOAGAACAEii4AQAAoAQKbgAAACiBghsAAABKoOAGAACAEii4AQAAoAQKbgAAACiBghsAAABKoOAGAACAEii4AQAAoAQKbgAAACiBghsAAABKoOAGAACAqhXcd911V9p1113Tcsstlzp16pT+/Oc/t+fmAAAAQDUK7nfeeSett9566cILL2zPzQAAAIAFrmtqRzvuuGNxAwAAgKpp14J7Xk2fPr24NZg6dWq7bg8AAABUYtG0M844I/Xq1avxNmDAgPbeJAAAAKj/gvuEE05IU6ZMabxNmDChvTcJAAAA6n9Iebdu3YobAAAAdHR11cMNAAAA9aJde7inTZuWnnnmmcb748ePT2PHjk19+vRJK6ywQntuGgAAANRvwf3QQw+lrbfeuvH+t771reLfoUOHpiuvvLIdtwwAAADquODeaqutUq1Wa89NAAAAgFKYww0AAAAlUHADAABACRTcAAAAUAIFNwAAAJRAwQ0AAAAlUHADAABACRTcAAAAUAIFNwAAAJRAwQ0AAAAlUHADAABACRTcAAAAUAIFNwAAAJRAwQ0AAAAlUHADAABACRTcAAAAUAIFNwAAAJRAwQ0AAAAlUHADAABACRTcAAAAUAIFNwAAAJRAwQ0AAAAlUHADAABACRTcAAAAUAIFNwAAAJSgaxnflPaz4XeuTlUw5uz923sTAAAAPhY93AAAAFACBTcAAACUQMENAAAAJVBwAwAAQAkU3AAAAFACBTcAAACUQMENAAAAJXAdbirB9ccBAICORg83AAAAlEDBDQAAACVQcAMAAEAJFNwAAABQAgU3AAAAlEDBDQAAACVQcAMAAEAJFNwAAABQgq5lfFPgk7Hhd65OVTDm7P3n6fW55gYAoL7o4QYAAIASKLgBAACgBIaUA9QJQ+kBAOqLHm4AAAAogYIbAAAASmBIOQAdWq5D6XPNDQBVoocbAAAASqCHGwDoMHLt2c81N0DVdYiC+8ILL0xnn312mjhxYlpvvfXS+eefnz796U+392YBAFAiJxqAqmv3gvvaa69N3/rWt9LFF1+cNtlkk3TuueemHXbYIT311FOpb9++7b15AACwQOV6oiHX3OSt3Qvuc845Jx100EHpwAMPLO5H4X3TTTel4cOHp+OPP769Nw8AAGC+5XqiIdfcHarg/uCDD9KYMWPSCSec0PhY586d07bbbpvuu+++2V4/ffr04tZgypQpxb9Tp06d7bUzpr+XqqClbHMid32Tu23krm9yt43c9U3utpG7vsndNnJXL3fDY7Vaba7/v1OtLa8qycsvv5z69++f7r333rTppps2Pn7cccelUaNGpQceeKDZ608++eR0yimntMOWAgAAwP+ZMGFCWn755VOHHlI+L6InPOZ7N5g5c2Z666230pJLLpk6der0iW5LnNUYMGBA8Sb37Nkz5UJuuXMgt9w5kFvuHMgtdw7knvCJ544+67fffjstt9xyc31tuxbcSy21VOrSpUt69dVXmz0e95dddtnZXt+tW7fi1lTv3r1Te4rGzWnHbiB3XuTOi9x5kTsvcudF7rzI/cnq1atXm17XObWjhRdeOG244Ybp9ttvb9ZrHfebDjEHAACAetPuQ8pjiPjQoUPTRhttVFx7Oy4L9s477zSuWg4AAAD1qN0L7i9/+cvp9ddfTz/84Q/TxIkT0/rrr59uueWWtMwyy6SOLIa2n3TSSbMNca86ueXOgdxy50BuuXMgt9w5kLtb6sjadZVyAAAAqKp2ncMNAAAAVaXgBgAAgBIouAEAAKAECm4AAAAogYJ7Ps2YMSONHTs2TZo0KeVm8uTJKUdy5yXH3Ll+ruWaO9f9PFf2c4D2oeBuo6OPPjpdfvnljX+0ttxyy/SpT30qDRgwIN15552pqs4666x07bXXNt7/0pe+lJZccsnUv3//9Mgjj6Sqkvsjclc7d66fa7nmznU/v+qqq9JNN93UeP+4445LvXv3Tptttll6/vnnU1XZzz9iP6/2fi73R+TerGPnjsuCMXf9+/evjR49uvj6hhtuqC233HK1p556qnbiiSfWNttss1pVrbjiirV77rmn+PrWW2+t9e7duzZixIjasGHDatttt12tquSWO4fcuX6u5Zo71/18tdVWq91+++3F1/fee29t0UUXrV1yySW1XXfdtbbHHnvUqsp+bj/PYT+XW+5L6iC3gruNunXrVpswYULx9UEHHVQ76qijiq//+9//1nr06FGrqu7du9deeOGF4usjjzyydvDBBxdfxx/t+CNWVXLLnUPuXD/Xcs2d636+yCKL1J5//vni6+OOO6623377FV+PGzeuttRSS9Wqyn5uP89hP5db7nrIbUh5Gy2zzDLpiSeeKIZl3XLLLWm77bYrHn/33XdTly5dUlUtscQSacKECcXXkXvbbbctvo6TNfFeVJXccueQO9fPtVxz57qfL7744unNN98svr711lsb27t79+7pvffeS1VlP7ef57Cfyy13PeTu2t4bUC8OPPDAYh5Qv379UqdOnRo/wB944IG0xhprpKrac88901e/+tW06qqrFjv4jjvuWDz+r3/9K62yyiqpquSWO4fcuX6u5Zo71/08Dsi+/vWvpw022CA9/fTTaaeddioef/zxx9OKK66Yqsp+bj/PYT+XW+56yK3gbqOTTz45DR48uDhrutdee6Vu3boVj8dZ4uOPPz5V1c9//vNiB47cP/nJT4ozS+GVV15Jhx12WKoqueXOIXeun2u55s51P7/wwgvTiSeeWOT+05/+VCygFcaMGZP23nvvVFX2c/t5Dvu53HLXQ+5OMa68vTcCAAAAqkYP9zwYPXp0uuOOO9Jrr72WZs6c2ey5c845J1XVyy+/nO6+++4Wcx955JGpquSWO4fcuX6u5Zo71/38/fffT48++uhsuWOo9a677pqqyn5uP89hP5db7o6eWw93G51++unFEIbVV1+9WIgkGrVBfD1y5MhURVdeeWX6xje+kRZeeOFi2Masuf/73/+mKpJb7hxy5/q5lmvuXPfzWDhrv/32a1xop6nIXdWFtOzn9vMc9nO55a6L3O29THq96Nu3b+2KK66o5Wb55ZevnXrqqbUZM2bUciK33DnI9XMt19y57uerrLJK7bDDDqtNnDixlhP7uf08B3LLXQ/0cLdRrPJ51113Fate5iTODj/44INp5ZVXTjmRW+4c5Pq5lmvuXPfznj17FitU55bbfp5Xe+e6n8stdz1wHe42OuaYY4qV8XIzbNiwdN1116XcyJ2XXHPn+rmWa+5c9/MvfvGL6c4770y5sZ/nJdf9XO68fLFOc+vhbqOYlL/zzjsX13xba6210kILLdTs+euvvz5VUcyF2GWXXYqLya+zzjqz5a7qoityy51D7lw/13LNnet+/u677xaXxVp66aVbzF3VRbTs5/bzHPZzueWuh9xWKW+jaMBY6XPrrbeebRGOKjvjjDPSiBEjikVXwqyLj1SV3HLnkDvXz7Vcc+e6n//ud79Lt956a+revXvRMzJr7o56gPZx2c/t5zns53LLXRe523sSeb1YfPHFazfeeGMtN717985y0RW585Jr7lw/13LNnet+vswyy9ROO+207BbRsp/nJdf9XG6564E53G3Up0+fupugvyB069YtDRkyJOVG7rzkmjvXz7Vcc+e6n3/wwQfpy1/+curcOa9DHvt5XnLdz+WWux7U19a2o5NPPjmddNJJxdyBnBx11FHp/PPPT7mROy+55s71cy3X3Lnu50OHDk3XXnttyo39PC+57udy52Vonea2aFobbbDBBunZZ5+NIfhpxRVXnG2S/sMPP5yqaI899kgjR44s5n+tvfba2Sy6IrfcOeTO9XMt19y57ucxp+/qq69O6623Xlp33XWzWUTLfm4/z2E/l1vuesht0bQ22n333VOOevfunfbcc8+UG7nzkmvuXD/Xcs2d637+2GOPFcVnGDduXLPnqryIlv08L7nu53LLXQ+59XADAABACfRwt9H//ve/9Pjjj6eJEycW95dddtkWr2tZRVOmTGmWu1evXikHcstddbl+ruWaO9f9vMH06dMbF9XKgf3cfp4TueXu0Np7mfSOLpad//73v19cZqJTp07NbvHYiSeeWHdL07fVpZdeWltzzTVrnTt3Lm6ROf6Nxy677LJaVcktd9Vz5/q5lmvuXPfzcOutt9Z23HHHon0bssfX8dhtt91WqyL7uf08h/08yC137zrJreCei+985zu1pZdeunbxxRfXxo8fX3v33XeLW3x9ySWX1Pr27Vs77rjjalXzk5/8pLbooovWjj/++Nodd9xRe+KJJ4pbfH3CCSfUFltssdrZZ59dqxq55c4hd66fa7nmznU/v/LKK2tdu3atfeUrXymuy/z3v/+9uMXXe++9d22hhRaqXX311bWqsZ/bz3PYz+WW++91lFvB3YYLrN9yyy2tPh/PxR+vqllhhRVq1157bavP//73v68NGDCgVjVyt0zuasn1cy3X3Lnu56uuumrtggsuaPX5Cy+8sLbKKqvUqsZ+3jL7ebXI3TK5OybX4Z6Lt99+Oy233HKtPt+vX7/0zjvvpKp57bXX0jrrrNPq8/HcG2+8kapG7pbJXS25fq7lmjvX/fyFF15I2267bavPb7PNNunFF19MVWM/b5n9vFrkbpncHZOCey622mqrdOyxx7b4IR2Pffe73y1eUzUbb7xxOvPMM4tFV2Y1Y8aMdNZZZxWvqRq55c4hd66fa7nmznU/j2swX3755a0+P3z48GIRsaqxn9vPc9jP5W6Z3B2Ty4LNxYQJE9JOO+2UnnzyyeLs6DLLLFM8/uqrrxbXgovGvfHGG9OAAQNSlTz66KNphx12SB9++GHaYostmuW+66670sILL5xuvfXWNHjw4FQlcsudQ+5cP9dyzZ3rfn7nnXemXXbZJQ0aNKjoGWma+/bbb0///e9/00033VS8J1ViP7ef57Cfyy13PeVWcLfBzJkz04gRI9L999/f7DITm266adp+++1T587VHCgQw9J+85vftJj7q1/9aurZs2eqIrnlziF3rp9ruebOdT9/7rnn0kUXXdRi7kMOOSStuOKKqYrs5/bzHPZzueVetk5yK7gBAACgBF3L+KY5iYVHxowZ02GHMDB/Yr5Xly5dGu8/8MADafr06cVZtIUWWijl4sADD0ynnXbaHBfgqZoYjhhnUfv27Zt69eqVcjB58uR03XXXFYuSDBw4MO21116VzR4LK40bNy5tuOGGRcYYjnbVVVcVPYI777zzHBddqlfxNyry5irm9D7++OONPSKxaNiaa65Z+c/yGGJ59913p1deeaXo0V555ZWLoZhV7eVty2d7vBcrrLBCe28KJYrP9Dhey62dY/+u+mdaS0455ZR0+OGHp6WWWip1aO29THq9Gzt2bHHh9ar54IMPimt5rrzyyrWNN964dvnllzd7fuLEiZXM/fLLL9eGDBlS69KlS22LLbaovfXWW7Wdd9651qlTp+K22mqrFa+pmkceeaTFW1zX8IYbbmi8XzVnnXVWcX3a8L///a/27W9/u7bwwgsX+3Zc7/HAAw8sfheqZo899qhdd911xdfjxo2rLbXUUsV1ezfZZJPikkLLLrtscf3aqonr8ca1eON3OTLG5/fyyy9fXG5k9dVXr3Xr1q02YsSIWtVE3vgsP+2002ovvfRSLRczZsyoff/736/17t278TO84RaPnXjiicVrqmbatGm1L37xi41Z4/Ms9vf4u7b44ovP8dI6VVbV47WGSyJts802tb322qv2j3/8o9lzr7/+em2llVaqVc3UqVNr++yzT3E5uP333782ffr02mGHHda4z8cx3JQpU2pVE5e+i6wNzj///OI9iMxLLrlk7ZRTTqlV0ZQpU2a7TZ48uThOfeCBBxof66gU3B9TVT/ATzrppOLA++yzzy4OWHr16lU7+OCDmxXc8aFWNfvtt19ts802q/31r3+tffnLXy6+3nzzzWsvvvhi7fnnny+K8cMPP7xWNQ1/oGY9KG36eBX388j06quvFl/Hvr7EEkvUhg8fXnv88cdrv/nNb4pr1UZRXjWR89///nfx9Y477lj76le/2vgHPE4wDBs2rLb99tvXquYzn/lM8fv79ttvF+3dv3//Zr/Pxx57bPE7XzXx+3vQQQcV+3OcSIqTiHEiLU4yVVmcNI4TSRdffHFt/Pjxxcm1uMXXl1xySfF+HHfccbWqib/V8bfqscceq/3nP/8piu/I+c477xQnzxdddNHab3/721puqnq8dt555xVtGp9l++67b3HS+PTTT698B8kRRxxRW2ONNWq/+MUvaltttVVtt912qw0ePLh2991310aNGlVba621at/73vdqVT5uieOV7t271374wx/Wbrrpptqpp55anFS+9NJLa1XM3bmFW70cpyq423BgOqdbz549O3QDz6+4ePzf/va3xvvxRzseO+CAA2ozZ86s7Ad4v379avfdd1/x9Ztvvln8Ajc9W3z77bfXBg0aVKua9dZbrzgIjyLsueeeK25xUBoH57fddlvjY1UT7dvwh2uDDTYoDsKbiqJ77bXXrlXNIossUnvmmWca9/mHH3642fNPPfVUcZKtauLzuiH3hx9+WOzf//rXvxqff/rppyuZu2E/j8x//OMfazvttFPR2xknVaMQi/auosh3yy23tPp8PBdFd9XEiJWHHnqo8X6M1IqD8ii4Q/Rwr7/++rWqic/wOd2iOKvicUsUlk1PoNxzzz3FiaYf/OAHxf2qHq8NGDCgNnLkyOLrGLkTn3NNj1tvvPHGYuRSlY9bPv3pT9d+8pOfNHv+l7/8ZbG/V03//v2L49Ro8zvvvLO4xai1+Ft2xRVXND7WUZnDPRcxD+TQQw9tdV7f888/X8wfqJqXXnqp2aUzVllllWJJ/s9+9rNpv/32Sz/5yU9SFU2aNCn179+/+LpPnz5p0UUXLea0Nn0fYg5Y1Tz44IPpuOOOS1/4wheKFV432GCDxudi/nbT96BqOnXqVPwb85c322yzZs/F/fHjx6eqWXfdddPIkSOLOZ2xwmd8jjVt87i/yCKLpKqJywK9//77xdcffPBBMW+74X547733Kj0HrmvXrsXveNziMz6uW3rllVemn/70p2nIkCHFpZOqtmL1nNafiLncsQ5LFeesN52nvfjiixePRdb4mxarlMd1uqvmiSeeSF/5ylfSSiut1OLz8bf76aefTlUTf6Oa/u2Kr+PzPebrx7zeo48+OlV1PY44Jgvxex5/s1ZbbbXG5+MYNi6RV+XjllinIX6fm4r73/3ud1PVPProo2nYsGHpxz/+cfr1r3/deKwe78WnP/3pDn0N7qDgnov111+/uFbl0KFDW3z+kUceqWTBHQfhzz77bLMl9mPnvuOOO9LWW2+dDjjggFRFsVBW/FFuuD7pEUccURTeTQvyxRZbLFWxEDn33HPTzTffnD7/+c+nww47rJIf2C259NJLiwPSeA/eeuut2Q7Yu3XrlqrmBz/4Qdp///2L4vLII49MxxxzTHrzzTeLhaSeeuqpdNJJJxUn1qomisrjjz++uF199dXpU5/6VDr11FPTtddeW/zRjj/kG220UarqwVlT8Xke+0Hc4hqmUXxXzVZbbVUUlr/97W9nW1DnjTfeKD7j4jVVs/HGG6fzzjsvXXDBBcX9+HrppZcubmHatGnFZ17VRIG1ySabFJ0kLRk7dmzxeV81sW9HYdn0eC3eiyi6o5Pk5ZdfTlW05JJLptdff73xeG233XZLvXv3bnw+9vMq/v0Ot9xyS7HoZ/fu3dO7777b7Lk4idzSZ36969OnT7rhhhuKy4JFgR0nivfee+9ULxTccxGr1sYKvnPaAeLAtWriQ/qaa65J22yzTbPH4yxifIhX8SCl4QTLfffdV/wyhzPPPLPZ87Hia/QOVtWOO+6YHnrooWJ18ii+qy5WMW04AIs/zA8//HCzKw7ECabVV189VfFz7Ve/+lXR8xEHYzG96KCDDmp8H+J6lmeccUaqmrPPPrvIvvnmm6c11lgj3XbbbcXJpYaDtCWWWKI4kKmauV39Mz7nZ/2sr4KLL7447bTTTkVPdoxSW2aZZRpXMX7ssceKHpEbb7wxVU383dpuu+3Sn/70p+JEYqzOHivxN7j33nuL96WKJ9TihGFrevToUckrynzmM59J119/ffG51lTs33EyLTpJqiiOxUaPHl2cOA1xzNpUPBcnkauoaSdgHJPHFXQaxDWqY/RaVR166KFpyy23TF/96lfT3/72t1QvXIebFsWQ0ieffDLtsMMOLT4fB+lxsNpaz39VxdDrGJLXdLh9Vf3iF78oCs7zzz8/Lb/88ilH8YcrCtCmw62rdvm7OMkQw9JieHUUJnH5qDgwrbLozY/ekQZxUBrDyeOgpenjVTFq1KiiGIkh5bmJ/XrEiBHF73LDZcFiBFe0dQy9jMtlVVGM1IqTCTEtLk6gd/Thlny8obZx6b84Ud6SuAxinHyJkUtVEiPS4ve3aa92U9FpEMPMq9pB1Jr4vY/Ra60dv1fFBx98UIxWi+PUOOHU2lSSjkLBvYBF78lll11WHLjmRG65cyC33DnINXeutDdAuap5arcdxaIz0VOSG7nzInde5M5LLrljEbGqLRQ3P7R3tcmdF7k7JgU3AJCdZ555prLzW5ldru0td17k7pgU3AAAAFCC/FZQAQAqr+klHVtbNJDqyLW95W6Z3NXSp85zK7gBgMqJFbrjEjJxSbDWrsZxyimnfOLbRTlybW+55W5K7o5JwQ0AVM7666+fBgwY0OrlKx955JEOfYDGvMm1veWWuym5OyZzuOfia1/7Wnr77bfb/Prvfe97cx32UA/kbhu565vcbSN3fcs1d1zuavLkya0+Hxn333//VDXaO6/2lrtlclfLznWe23W456JLly7plVdeSX379k05kVvuHMgtdw5yzZ0r7Q3Qsejhnotcz0fInRe58yJ3XnLNPT89KFGo1jvtnVd7zyu58yJ3x2AOdxvE0Kzu3bvP8TU9e/ZMVSN36+SuDrlbJ3d15Jp7Xtx1113pvffeS1WgvfNq73khd17k7hgU3G2w2mqrzfFMcqdOnTr8cvTzQ+7ZyS13Vcg9O7mrlztX2hug41Bwt8Ef//jHSiwoMq/kzovceZE7L7nmzpX2Bug4FNxtMGTIkCwXH5E7L3LnRe685Jo7V9oboOOwaBoAAACUQME9FwMHDiwusZEbufMid17kzkuuuXOlvQE6FgX3XOy3335pkUUWabw/adKklAO5PyJ3tcn9EbmrLdfcX/va14rVutvqe9/7XiXmPWvvvNpb7raRu759rc5zd6q5YOMcxVniuI5bw1youIzG2LFj06BBg1KVyS233NUlt9w55s6F9s67vXMht9z1RA/3XMx6PiKX8xNyt3y/quRu+X5Vyd3y/aqSOy/aOy9y50Xu+mSVcgCgkmIIYvfu3ef4mugBphpybW+5Wyd3dbxdx7kV3HPRqVOnxgaOsytxf9q0aWnq1Kl10cDzS2655f4/cleD3HnlDquttlqrzzW8FzNmzEhVor3zau8g9+zklrsjMYd7Ljp37lw04KwNWi8NPL/k/ojcze/LXQ1yf0Tu6uf+05/+NNeFc7bccstUJdo7v/aWu3VyV0PnOs+th3su7rjjjpQjufMid17kzkuuucOQIUPqdpGd+aW982rvIHde5K4/ergBgMqJHpGJEyfW7QEa8ybX9pZb7hx0rvPcerjnYtY5T62p2lwouedM7mqQe87kroZccw8cOLC4lExutHde5M6L3PVJwT0XvXv3bjb3aVZVnQsld8vklrsK5G6Z3NXKvd9++6VFFlmk8f6kSZPSEksskapOe+fV3nJ/RO5q26/OcxtSPhejRo1q0+s66iT9+SX3nMldDXLPmdzVkGvu6A155ZVXGocgRo/u2LFj06BBg1KVae+82ltuueXu+PRwZ/YHqa3kzovceZE7L7nmnrU/IZf+Be3d8v2qkrvl+1Uld33mVnDPRa5zoeSeM7mrQe45k7sacs2dK+0N0LEouOci17lQcrdMbrmrQO6WyV2t3JHp7bffTt27d2/MOG3atNkK0qoVnto7r/aWW265O35uBfc8XM8yGninnXZKl112Werfv3+qMrnllru65JY7h9yRdbXVVmt2f4MNNqh84am982pvuf/vvtxyz+iguS2aNo969OiRHnnkkbqZpL+gyC13DuSWOwe55M518bBZae9qt7fccyZ3NYyq89x6uAGAyumoB16UI9f2ljsvctcnBTcAUDkWD8tLru0t95zJXQ1T6zy3gns+zGkxkiqTOy9y50XuvOSQO9fFw1qivavb3nK3TG65OxIF91zsueeeze6///776ZBDDkmLLbZYs8evv/76VCVyf0RuuYPc1SB3XrmbLh6WE+2dF7nzInd9UnDPRa9evZrd33fffVMO5P6I3NUm90fkrrZcc9f7nL/5pb3zInde5K5PVikHACqn3uf8MW9ybW+550zuapha57kV3PPp+eefT++8805aY401UufOnVMu5JY7B3LLnYOq545M9Tznb0HT3tVsb7lbJrfcHYkh5XMxfPjwNHny5PStb32r8bGDDz44XX755cXXq6++ehoxYkQaMGBAqhK55ZZbbrmrIdfcTef8xcHYTjvtlC677LLUv3//dt2usmnvvNpbbrnlrgPRw03rNtlkk9rw4cMb79988821rl271n7zm9/UxowZU9t0001rw4YNq1WN3B+RW265q0PuvHLPavHFF689++yztarT3nm196zkzovc9UHBPRd9+vSpPfroo433DznkkNoXvvCFxvt33HFHbcUVV6xVjdwfkfsjcleL3B+Ru9q56/0AbX5p77zae1Zy50Xu+lC9STwL2HvvvddsAv69996btthii8b7gwYNShMnTkxVI/dH5P6I3NUi90fkrnbuXGlvgI5FwT0XAwcOTGPGjCm+fuONN9Ljjz+ehgwZ0vh8/NGa9RIcVSC33HLLXTVy55W7JXNadKcqtHde7d0SufMid8dn0bS5GDp0aDr88MOLP1gjR44sVvfccMMNm505Hjx4cKoaueWWW+6qkTuv3HvuuWez+++//3465JBD0mKLLdbs8euvvz5VifbOq73l/ojccnfk3AruuTjuuOPSu+++WzTgsssum6677rpmz99zzz1p7733TlUjt9xNyV0tcsudQ+5Ze3H33XfflAPtnVd7y/0RuautV53ndh3uBex3v/td+vznPz/bGZeqk1vuHMgtdw5yzZ0r7Q1QLgX3AhYLlYwdO7ZYlCQncsudA7nlzkHVcz///PPpnXfeKYZad+5sKRvtXU1yy52D5+skd8fdsjqV6/kLufMid17kzktVcg8fPjydc845zR47+OCDi8JynXXWKeYxT5gwIeVOe9c3uf+P3HJ3VApuAKByfvWrX6Ulllii8f4tt9ySrrjiinT11Ven0aNHp969e6dTTjmlXbeRBSfX9pb7I3LLfUoHzm3RNACgcv7zn/+kjTbaqPH+X/7yl7TbbrulffbZp7h/+umnpwMPPLAdt5AFKdf2lvsjcst9YAfOrYcbAKic9957r5if3PRyWFtssUXj/RiKGNekphpybW+5PyL3R+TumBTcAEDlDBw4MI0ZM6b4+o033iiuSz1kyJDG5+PgbNZLzVC/cm1vueWWO3X43IaUl7BDLLTQQik3cudF7rzInZeq5B46dGg6/PDDiwOzkSNHFqvYbrjhhs16SGKhndxp7/omt9xypw6fWw/3XDz44INpxowZrT4/ffr09Ic//KHx/rhx49KAAQNSvZO7ZXJ/RO76JnfL5K5W7uOOOy4ddNBB6frrr0/du3dP1113XbPn77nnnrT33nunqtHeebW33HI3JXcHFdfhpnWdO3euvfrqq433e/ToUXv22Wcb70+cOLF4TdXI/RG5PyJ3tcj9EbmrnXteXXPNNbVp06bV6p32zqu955XceZG7Y9DDPY/Xp2zpepVVuYZlU3K3fL+1x+qd3C3fb+2xeid3y/dbe6ze5Zp7Xn3jG99Ir776aqp32juv9p5XcudF7o5Bwb0AdOrUKeVI7rzInRe585Jr7lyLUO2dV3s3JXde5O4YFNwAAABQAquUt8ETTzzReG23OGPy5JNPpmnTpjUuTV9Vcsstt9xVI3deuXOlvQE6jk4xkbu9N6Ij69y5czH0qqW3qeHx+HdOK4LWI7nlbiC33FUhd16551WPHj3SI488kgYNGpTqmfbOq73nldxy56BHB8uth3suxo8fn3Ikd17kzovceck1d660N0DHouCei4EDB6YcyZ0XufMid15yzT0/79NCCy2U6p32zqu955XceZG7YzCkfC5eeOGFNr1uhRVWSFUi95zJXQ1yz5nc1ZBr7gcffDBtuOGGqUuXLi0+P3369PSXv/wlfelLX0pVor3zam+55W5K7i+ljkjBPRdNG7bhrWp6OY2qzoWSW2655Za7GnLO/corr6S+ffsW93v27JnGjh3bOKcvrtG63HLLVTJ3A+2dR3vLLbfcr3bo3IaUz0X8UVp++eXTAQcckHbdddfUtWseb5nccudAbrlzkGvuWfsTWupfqGKfg/Zu+X5rj9U7uVu+39pj9U7u+sydx6fwx/Diiy+mq666Kl1xxRXp4osvTvvuu28aNmxYWnPNNVOVyS233NUlt9w55G6Lpj2/VaG982rvtpA7L3J3PJ3bewM6umWXXTZ997vfLa5h+cc//jFNmjQpbbLJJun//b//ly699NI0c+bMVEVyyy233FUjd165c6W9AToWc7jnQ8wT2HvvvdOoUaPS66+/nvr06ZNyILfcOZBb7hzkkDuuRz1y5MjGbJtttln6wx/+UAy3Dm+88UbabrvtOuycvwVJe1e3veWWW+7U8XNHwU3b3HPPPbVhw4bVevbsWdt4441rF110UW3GjBm1qpNbbrmrS265q5q7U6dOtc6dOxf/znpreDz+rTLtXf32lltuuTt3+NzmcM9FrIh39dVXF3OhYljWPvvsk+655540ePDgVGVyyy13dcktdw65x48fn3KkvfMid17krk+GlM9FXDS9f//+aejQoenzn/98qxdRX3fddVOVyC13S+SuBrnlziF3rrQ3QMei4G7DnIFZV7+b9S2r4vUs5ZZb7v97XO5qkDuv3C+88EKbXrfCCiukKtHeebW33HMmdzW8UOe5DSmv+BCG+SV3XuTOi9x5yTX3Siut1Ph1Q8HZ9LIx8VgVC0/tnVd7yy233KnD51Zwz8XAgQNTjuTOi9x5kTsvueaOg69YwfaAAw5Iu+66a+raNY9DHu2dV3vLLXcOOtV5bkPK5+LRRx9t0+uqNhdK7jmTuxrknjO5qyHX3BMnTkxXXXVVsXjY5MmT07777puGDRuW1lxzzVRl2juv9pZbbrk7PgV3G+ZCxVmVOb1NHXkIw/ySW+5ZyV0dcsudQ+6m7r777uJA7brrrktrrbVWcaAWt6bznatCe+fV3k3JLbfcHZOCey6ef/75LIdwyT1ncleD3HMmdzXkmrslr776atp7773TqFGj0uuvv5769OmTqkZ759XeLZFb7hy8Wke562sAfDuI4QvHHntsWnTRRVNO5JY7B3LLnYNcczd17733puHDhxc9Iquvvnq68MILU+/evVMVae+82rspueWWu2PSwz0XXbp0Sa+88krq27dvyonccudAbrlzkGvuyHz11VcXQw8nTZqU9tlnn/S1r30tDR48OFWZ9s6rveWWW+6OT8E9FzEfICbq5/aHS265cyC33DnINfdCCy2U+vfvn4YOHZo+//nPF/dzWDxMe+fV3nLL3RK5OxYFdxv+cMUcgaWXXjrlRG65cyC33DnIOXeDhuu1znrIU8XFw7R3fu3dQG65Gx6Xu2NRcLehgXv16tXs4uoteeutt1KVyC13S+SuBrnlziF3rouHae+82lvuOZO7Gp6v89wWTWuDU045pfjjlRu58yJ3XuTOS465O+qB1ydBe+dD7rzIXZ/0cM9FrnOh5JY7B3LLnYNccz/66KNtel1HnfM3v7R3Xu0t95zJXQ2P1nluPdxzMbchWVUld17kzovceck19/rrr19kn1O/Qkee8ze/tHde7S233LOSu+NRcM9FrgMA5M6L3HmROy+55h4/fnzKkfbOi9x5kbs+KbjnYubMmSlHcudF7rzInZdcc1911VXp2GOPTYsuumjKifbOq73lljsHV9V5bnO4AYDK6dKlS3rllVeym8ucq1zbW265c9ClznP/30XNAAAqQn9CXnJtb7nzInd9UnADAJWU6wJiucq1veXOi9z1x5ByAKBy4vJYcS3quR2kvfXWW5/YNlGeXNtbbrlbInfHYtE0AKCSTjnllOIgjTzk2t5y50Xu+qOHGwConOgRmThxYt0ussO8ybW95ZY7B53rPLc53ABA5dTzfD/mXa7tLXde5K5PCm4AoHIM4MtLru0td17krk+GlAMAAEAJ9HADAABACRTcAAAAUAIFNwAAAJRAwQ0A8+mAAw5Iu+++e6rXbVtxxRXTueee23g/Lruy3XbbpcUWWyz17t37E9jKlLbaaqt09NFHfyI/CwA+aQpuAGjlMiRzup188snpvPPOS1deeWW7bN+ll16a1ltvvbT44osXxfEGG2yQzjjjjHn6HqNHj04HH3xw4/2f//zn6ZVXXkljx45NTz/9dLrzzjuLrJMnT55jYT+n9ymKegDIVdf23gAA6Iii8Gxw7bXXph/+8IfpqaeeanwsCt24tYfhw4cXvcK/+MUv0pZbbpmmT5+eHn300TRu3Lh5+j5LL710s/vPPvts2nDDDdOqq65a3H/iiSfm+j3ipMOZZ57ZeL9fv37piiuuSJ/73OeK+126dJmnbQKAKtHDDQAtWHbZZRtvvXr1Knprmz4Wxfasw7ZjePQ3v/nNohheYokl0jLLLFP0RL/zzjvpwAMPTD169EirrLJKuvnmm5v9rCiUd9xxx+J7xv/Zb7/90htvvNHqtv31r39NX/rSl9KwYcOK77f22munvffeO5122mmzvfanP/1pUQQvueSS6fDDD08ffvhhi0PK4+s//elP6eqrry6yRratt966eC6yNDw2q3hvmr4vIXrcG+5H0f7pT386devWrdiO448/Pv3vf/9rNdtNN91UfM/f/va3xf0JEyYUWeN79unTJ+22227pueeea3x9QxvMKScAtBcFNwAsQFdddVVaaqml0oMPPlgU34ceemjaa6+90mabbZYefvjhtP322xcF9bvvvlu8PoZrf/azny2GhD/00EPplltuSa+++mpRZLYmCtn7778/Pf/883PcljvuuKPotY5/Y7ti+HtrQ+BjeHn0SsfPjd796LmOAjxEz37DY/PipZdeSjvttFPaeOON0yOPPJIuuuiidPnll6dTTz21xddfc801xYmDKLb32WefomjeYYcdihMV//znP9M999xTnJSI7fzggw/mKycAfJIU3ACwAMW86hNPPLEYln3CCSek7t27FwX4QQcdVDwWQ9PffPPNYgh4uOCCC4pi+/TTT09rrLFG8XUMGY/iMeZRt+Skk04qenyjV3r11Vcvenn/8Ic/pJkzZzZ7XfRMx/eP77vLLruknXfeOd1+++2tDi+PXuhFFlmksVc/epRD3759Gx+bF7/85S/TgAEDGrcheqJPOeWU9LOf/Wy2bb3wwgvTYYcdlv72t78V29owlD9ed9lll6V11lknrbnmmsVw9RdeeKGYXz4/OQHgk6TgBoAFaN111238OuYvxxDnKBYbxJDx8NprrxX/Rs9vFNcNc8LjFoVjiF7blsTQ6fvuuy899thj6aijjiqGaA8dOrTo+W1ayMZQ86ZzqOP/NfzcT8K///3vtOmmmxbD0RsMGTIkTZs2Lb344ouNj/3xj39MxxxzTLrtttuKOekN4r155plnih7uhvcmTgK8//77zd6b9s4JAK2xaBoALEALLbRQs/tRbDZ9rKH4bCiMo/jcdddd01lnnTXb94rCcU4GDx5c3KJn+JBDDkmbb755GjVqVOPc65a2Zdae5Y4gevVjuH307G+00UaN71G8N7GIW8N87tYWfKuXnADkR8ENAO3oU5/6VDFXOoaHd+06/3+W11prreLfWKBtQVl44YWLf2fMmDFf/z+GgEe2Wq3WWETHPOzosV5++eUbX7fyyisXw8xj0bnoqY7h4Q3vTQwrjyHtPXv2XCCZAOCTZEg5ALSjWFH7rbfeKhYLi4XLYqj0iBEjilXNWyt0YyG2H//4x0XxGgunxQJq+++/f9HrG0O4F5SBAwcWhfKNN96YXn/99aLHeV5Ez3usMh6Lxz355JPpL3/5SzH//Fvf+lbq3Ln5Ichqq61WDK2PAj1WeQ+xcFrMf4+VyWPRtPHjxxdzt4888shmQ9IBoKNScANAO1puueWKwjmK61jBPOZ7R8EZi6LNWpQ22HbbbYsiO1Y/j0L1C1/4QrE4WywUFnPGF5T+/fsXi5zFpbxi7vkRRxwxz///73//e7FieywmF8Pe41JmsahcS2IBuJEjR6bf/e536dvf/nZadNFF01133ZVWWGGFtOeeexY95vH/Yw63Hm8A6kGnWozzAgAAABYoPdwAAABQAgU3AAAAlEDBDQAAACVQcAMAAEAJFNwAAABQAgU3AAAAlEDBDQAAACVQcAMAAEAJFNwAAABQAgU3AAAAlEDBDQAAACVQcAMAAEBa8P4/8N9AD6R2cEgAAAAASUVORK5CYII=",
      "text/plain": [
       "<Figure size 1200x500 with 1 Axes>"
      ]
     },
     "metadata": {},
     "output_type": "display_data"
    }
   ],
   "source": [
    "# Extract all TIME_SHIFT tokens\n",
    "time_shift_tokens = [id_to_token[token] for token in all_tokens if \"TIME_SHIFT\" in id_to_token[token]]\n",
    "\n",
    "# Count occurrences of each TIME_SHIFT value\n",
    "time_shift_counts = Counter(time_shift_tokens)\n",
    "sorted_shifts = sorted(time_shift_counts.items(), key=lambda x: x[1], reverse=True)\n",
    "\n",
    "# Display top 15 time shifts\n",
    "print(\"Top 15 Most Frequent TIME_SHIFT Tokens:\")\n",
    "for shift, count in sorted_shifts[:15]:\n",
    "    print(f\"{shift}: {count}\")\n",
    "\n",
    "# Plot distribution of TIME_SHIFT tokens\n",
    "plt.figure(figsize=(12, 5))\n",
    "sns.barplot(x=[t[0] for t in sorted_shifts[:15]], y=[t[1] for t in sorted_shifts[:15]])\n",
    "plt.xticks(rotation=90)\n",
    "plt.xlabel(\"Time Shift Token\")\n",
    "plt.ylabel(\"Count\")\n",
    "plt.title(\"Most Frequent TIME_SHIFT Tokens\")\n",
    "plt.show()\n"
   ]
  },
  {
   "cell_type": "code",
   "execution_count": 11,
   "id": "3736fb6e-2d16-427a-9afd-51723452919f",
   "metadata": {},
   "outputs": [
    {
     "name": "stdout",
     "output_type": "stream",
     "text": [
      "Top 10 Most Frequent VELOCITY Tokens:\n",
      "NOTE_OFF_42: 386662\n",
      "NOTE_OFF_64: 193050\n",
      "NOTE_OFF_62: 192912\n",
      "NOTE_OFF_69: 186718\n",
      "NOTE_OFF_36: 160811\n",
      "NOTE_OFF_54: 156135\n",
      "NOTE_OFF_60: 152366\n",
      "NOTE_OFF_67: 142543\n",
      "NOTE_OFF_35: 141878\n",
      "NOTE_OFF_59: 139328\n"
     ]
    },
    {
     "data": {
      "image/png": "iVBORw0KGgoAAAANSUhEUgAABAcAAAIpCAYAAADeslE+AAAAOnRFWHRTb2Z0d2FyZQBNYXRwbG90bGliIHZlcnNpb24zLjEwLjAsIGh0dHBzOi8vbWF0cGxvdGxpYi5vcmcvlHJYcgAAAAlwSFlzAAAPYQAAD2EBqD+naQAAYltJREFUeJzt3Qd8VFX6+P8nCSWh9ya9d5COAoI0BfyKBBeUBURAYcEVWEFxMSji4sJKUZrK0lZRZBWVIog0RUCaSEdRWFCqSpfO/F7Pef3v/GdSIEA4M8n5vF+vS+bee+bOyZPJkPPcUyJ8Pp9PAAAAAACAsyJDXQEAAAAAABBaJAcAAAAAAHAcyQEAAAAAABxHcgAAAAAAAMeRHAAAAAAAwHEkBwAAAAAAcBzJAQAAAAAAHEdyAAAAAAAAx5EcAAAAAADAcSQHAAAAkKR9+/ZJRESE/Otf/wp1VQAAtxHJAQBA2Jo+fbpplOi2atWqBOd9Pp8UKVLEnG/Tps1tqcPBgwflxRdflM2bN99wneNvzz33nLhk1qxZMnbs2OuW27Rpk4nPkCFDkizzww8/mDIDBgww+/ozSSrOuh0+fPiGG7Zff/21PPTQQ5I/f37JmDGjFC9eXJ588knZv39/ks/R98Wf//xn8z7U5+TKlUuaNWsm06ZNkytXrvjLaR369u1rHjdu3Piadfe2li1bSmRkpAwePDjR1/7nP/9pyi1YsCDBOe/7Ts6mZQEASBfqCgAAcD3R0dGmodmgQYOg4ytXrpSff/7ZNMpuF00OvPTSS6ahWL169WQ/b9iwYVKiRImgY5UrVxaX6M9s27Zt0q9fv2uWq1GjhpQvX17ee+89GT58eJLXUtoQDzRp0iTJkiVLgvI5cuS4obq+8cYb8vTTT0vJkiXlqaeekoIFC8rOnTtlypQpMnv2bFm4cKHcddddQc/Rc7169TLJhM6dO0uZMmXk9OnTsnTpUunevbscOnRInn/++QSv9fe//1169Ojh31+/fr28/vrrpmyFChX8x6tWrWq+v9dee81835UqVfKf+9///mfeYw8//LC0bt06wWvkzZtX/vOf/wQd0+vo78uYMWMSlAUAgOQAACDstWrVSubMmWMaUOnSpQtqMNasWVN+/fVXCTf333+/1KpVK1llz58/LxkyZDB3iV3VqVMneeGFF2Tt2rVSr169BOc1caAJBE0kBGrfvr3kyZPnll5bewxoAkOTT4sWLZJMmTL5z/Xu3Vvuvvtu8zrbt2+XnDlzmuNaT00M1K9f3yQOsmbN6n+OXmvDhg0mMZKY5s2bJ0h+6Xtbj2uvgkCvvvqqfPLJJ6YHw1dffWXu9CtNYKRPn17GjRuX6Gtkzpw5QSLl/fffl+PHjyc4DgCAcvevEABAqvHII4/Ib7/9JkuWLPEfu3jxovz3v/+VRx99NNHnnD17Vv72t7/5u3uXK1fOdC3XoQiB9JraKNQ7zXoHWst5d3tXrFghtWvXNo+7devm74atQwdull5Tr6ENNe1Gf8cdd5jG6KlTp8z5b775Ru677z7Jnj27OX7PPfeYxmt8OsxC66YNy1KlSsmbb77p72ofv2t5YvXV41o+0C+//CKPP/64v1u93qmeOnVqovX/4IMP5JVXXpHChQubOjRt2lT27NnjL6eNXO3urne4vbhp74trJQcCewgE2rhxo+zevdtfJqW9/PLLpn4zZswISgwoje3IkSNNLwCNsUd7k+hz3n333aDEgEcTQ4899tgt103fB5oA0PeA9lRQc+fOlXnz5pnEgfZwuBVHjx41vRz0Z64/x2rVqpk4XI/+Hj3xxBMmqfXRRx/5j7/zzjsmYRcTE2OGWHTs2FEOHDgQ9Fx9b2gvmh07dkiTJk1MzPX3QOOcWI8OfR9qGU3MaFwTe48AAG4dPQcAAGFPG5V6h1bvHusdefXZZ5/JyZMnTeND77rGb7j83//9nyxfvtw0fHQ4wOLFi2XgwIGmAex1q9Y7wTpXgXbf1i7a2iDWBq7XGNcu3no8Li7ONIQaNmxojsfvXp4YrVv8Hg2Bd7i1QaoNq2eeeUYuXLhgHi9btsx8f9q4Gjp0qOlJoGPX7733XnPXuE6dOua5W7dulRYtWpju4NrAv3z5simvDbybdeTIEXPH3hsbr9fWGGv8NHERf2iANky1flp//V61YaeNd01ueF3n9XhgN/bEuv97dAiGxlWTDlo+KirKf85rDCaWCPr9998THNPeJckdVvDHH3+YYQD6s40/DMTToUMH8/OfP3++mTfCe06jRo2kaNGicrt5QweeffZZk4TR4Q8aK+1NcCvOnTtnGur6ntefuX7/2kNHkxonTpwwr5MYnUtBk0g63EITFd6wBk0Wae+PP/3pT2bYxLFjx0zjXuP07bffBv1MtAeDJsHatWtnymuiT7+/KlWq+H/H3377bfnrX/9qem1oXbSHzZYtW8x7LKmkIADgFvgAAAhT06ZN09v8vvXr1/vGjx/vy5o1q++PP/4w5x5++GFfkyZNzONixYr5Wrdu7X/exx9/bJ43fPjwoOu1b9/eFxER4duzZ4/ZHzNmjCl37NixJOugr61ltC43UufENrV8+XLzuGTJkv7vRV29etVXpkwZX8uWLc1jj5YpUaKEr3nz5v5jbdu29UVHR/v+97//+Y/t2LHDFxUV5X8dtXfv3iTrrseHDh3q3+/evbuvYMGCvl9//TWoXMeOHX3Zs2f319Wrf4UKFXwXLlzwlxs3bpw5vnXrVv8x/Znozya5JkyYYK6xePFi/7ErV6747rjjDl/9+vWDymrdk4pzuXLlEsRg1KhRib7m5s2bzfmnn376mnWrWrWqL1euXObxd999l6znBNLyffr0SfTcnDlzzHmNbVL27dvny5w5s6lD+vTpg+KcXPF/HmPHjjWv+8477/iPXbx40cQ6S5YsvlOnTiWI4aVLl3wdOnTwxcTEBP2ctH76/nvllVeCXlPrmS5duqDj99xzj7nezJkz/cf0vVSgQAFfbGys/9iDDz7oq1Sp0g1/nwCAm8OwAgBAqqB3F/VOp9691Unf9GtSdw91DLjeeda7joF0mIG20/SOuPLuZOqY7qtXr6ZofSdMmGCGLARugbp27Wq6XgfOeq8z8uv3pEMotNeBbjo8Qu8Wf/nll6aOetdWe0G0bds26K619nLQ2e1vhsbkww8/lAceeMA89l5bN72m9gDQFQUC6TAL7e3g8XpV/PTTT3Kz9A69jqMP7Dauk05qb4+khhRovePHWXtbJJe+l1RiQwMC6Xlv6If39XrPSUnFihUzvUO0p4Su2JASk1vq70mBAgXMsB2Pxl9/b86cOWNiH0iH8mgvBv3d0+dq7xWPDi3Q96f+nga+f/T6OlGj9uIJpL1IAuc+0PeS9owJfP/o76f2PNEJGwEAtx/DCgAAqYJ2c9cl4rThqN26tZGs3Y0To+PcCxUqlKDx5s0Er+e9xqiO49Yu0NpdXBvh2s1Zr3urkwNqQ+daExLG78KuiQEvaZAUbaTrEARNkmiDKz6dL0EbbTdKu39rN/K33nrLbEmNTQ8Uvzu9N1Gfdhe/Wblz5zbJCO2qPnnyZP8qFTpMQBudidEu67cyIaH3HvGSBEnR817ZbNmyJes5Kc2b/yK5E11ej/4e6Pso/ns9/u+JZ8SIESZpoMm1+BMn6vtXE0uJvS+9pEMgnasicH4M7z2kwwY8Oszgiy++ML9LpUuXNskITZ7pBJEAgJRHcgAAkGpow6Bnz55mDXsdl3yjy9XFp3fu9Y683tXUyfN0pnodR61j/D///POgce8pLbDXgPJ6LowaNSrJJRP1bqsmB5IrfuPLo4mVxF5b7+QmlZzQeRkCJRWb+BM+3iitg96Z1k3njdCeAd78CreDNjo1+RDYKI1PY64TInqNcu85OveDSzRxo78jOr+EJgc0eRP4HtL3myYOEntvxJ9vIjnvH01SaNz1vaCvq++FiRMnmjlAdEJIAEDKIjkAAEg1HnroITMJmy4jp434a3XB1juOgXd71a5du/znPXrXVHsM6DZ69Gj5xz/+YSbT04SB9lRIqoGd0nRWfO+utL5uUrSRrIkFr6dBIG1IJXY3X3sFBIp/R1ivqXHSpMG1XvtG3UzsNCGgddEeA3q3WXsi3K5VCrwl/3TGfJ0MUuMS+N7w6CSJmiDQySuVzpyvCSR9js7ErytipEb6vWpSRBv2gb0HEvs9UTphpS7fqHHQ4QXaw8NbWlTfv9qw1x4xZcuWTdGfj/bw0U2HNWjPHp34cPDgwUHJCQDArWPOAQBAqqF3HydNmmRm6Nfx8Ulp1aqVaeiOHz8+6LjOgq8NVm829MRmuvfu2nt36LVxklgDO6XpCgXawNLlFrXrdmJd/707rnoH9+OPP5b9+/f7z+/cudPMRRBIEw3a5V57RwTSu6+B9JqxsbHmzuy2bduSfO0bpbHToRA3QhMfmgTS4RH6s9ZrPPjgg3I76ZKS2rDVWfp1yEagvXv3yqBBg8ySgYGrA+j4f31O586dE/156fKLyVkSMJT090R74QQm2nTlC11hQH/XdBnN+DR5pMtw6p18/d69XifaaNf3kd7Rj997RPd1Ho0bFf85Oi9BxYoVzfUuXbp0w9cDAFwbPQcAAKnKtcbkezRxoHeDtQfAvn37zNrtOkxAJx7UJfm8u/S6TKE2nHUpNr1LquPqteGs46EbNGhgymhZHb6gY+D1jrY2VuvWrZvksnc3S+/c6vwHmrjQdd11wj9d+10n49NeDNrQ17XtlTbAtHGmkwD+5S9/8Tfo9Hnxu8frfAq67KB+1W7x+v1+//33CV5fy+jr6PemQze0EabJE52IUHthJJZISU7CQxueOoGejpfXBue1kjqBQwtmzpxpkh3aa8BL0CRGl8BLbInE5s2bBy3tqEsP6lJ48enEjjpvgSZltJ46fEKTBJoM0DvoupyeNoA1WeH1xFC6lKBOOqnxL1++vGko63h77a2yYsUK+fTTT2X48OESznR5xjfffNN8v5rM0CVDNZ66lOfYsWOTnHBRY6aTPnbp0sW8L/Ua+nui36/e0dffOS2jz9fkivYw0NfSZS9vhA4n0QkNdY4B/VlqAkwTfvr7anMySABwxk2ucgAAgNWlDK8l/lKG6vTp077+/fv7ChUqZJZ+02UCdSm2wGUCly5dapZL0zIZMmQwXx955BHf999/H3StTz75xFexYkWzJNv1ljW8Xp29pQB1+brEfPvtt7527dr5cufO7cuYMaP53v70pz+ZugZauXKlr2bNmqbeuizi5MmT/cv7BdIlCHWZQl2OUJeC1GsdPXo0wVKG6siRI2a5vSJFipiY6dJyTZs29b311lvXrX9iyyaeOXPG9+ijj/py5MhhziV3WcPLly+bZRX1OQsXLky0zLWWMgxcFtCrV1Lbf/7zH/81v/zyS/N+yJMnj/n+ixYt6uvZs6dZpi8pGzduNN+j9z7LmTOnidmMGTPMMowptZRhct4715PY0pL6M+/WrZv5nvW9VKVKlQTv76SWg5w4caI5/swzz/iPffjhh74GDRqYZRd1K1++vPm+d+/eHbSUYWJLFHbt2jWofm+++aavUaNG/t+FUqVK+QYOHOg7efLkTX3/AIBri9B/Qp2gAAAAt06HWyTWrRsAAOB6mHMAAAAAAADHkRwAAAAAAMBxJAcAAAAAAHAccw4AAAAAAOA4eg4AAAAAAOA4kgMAAAAAADguXagr4JKrV6/KwYMHJWvWrBIRERHq6gAAAAAA0jifzyenT5+WQoUKSWRk0v0DSA5YpImBIkWKhLoaAAAAAADHHDhwQAoXLpzkeZIDFmmPAe+Hki1btlBXBwAAAACQxp06dcrcpPbao2GfHHj11Vdl8ODB8vTTT8vYsWPNsfPnz8vf/vY3ef/99+XChQvSsmVLmThxouTPn9//vP3790vv3r1l+fLlkiVLFunatauMGDFC0qX7/7+1FStWyIABA2T79u0mKEOGDJHHHnss6PUnTJggo0aNksOHD0u1atXkjTfekDp16vjPJ6cu1+MNJdDEAMkBAAAAAIAt1xvaHhYTEq5fv17efPNNqVq1atDx/v37y7x582TOnDmycuVK0y2/Xbt2/vNXrlyR1q1by8WLF2X16tUyY8YMmT59usTFxfnL7N2715Rp0qSJbN68Wfr16yc9evSQxYsX+8vMnj3bJA+GDh0qmzZtMskBbfwfPXo02XUBAAAAACC1ivDp7AQhdObMGalRo4a5Cz98+HCpXr266Tlw8uRJyZs3r8yaNUvat29vyu7atUsqVKgga9askXr16slnn30mbdq0MQ117w7+5MmT5dlnn5Vjx45JhgwZzOMFCxbItm3b/K/ZsWNHOXHihCxatMjs161bV2rXri3jx4/3TxyoPQyeeuopee6555JVl8RoDwPd4nfn0OvRcwAAAAAAcLtpOzR79uzXbYeGvOdAnz59zJ39Zs2aBR3fuHGjXLp0Keh4+fLlpWjRoqZBrvRrlSpVgrr26x1//eZ1CIFXJv61tYx3De11oK8VWEZncNR9r0xy6pIYHd6gPwRvYzJCAAAAAEA4CmlyQMfvazd+bUTHp2P/9c5/jhw5go5rIkDPeWXij/n39q9XRhMI586dk19//dUMT0isTOA1rleXxOgcCpqd8TadiBAAAAAAgHATsgkJtaGskw8uWbJEoqOjJS3KmDGj2QAAAAAACGch6zmgXfV1wj+db0BXFtBNJ/p7/fXXzWO9K69d/nVugEBHjhyRAgUKmMf6Vffjn/fOXauMjrWIiYmRPHnySFRUVKJlAq9xvboAAAAAAJBahSw50LRpU9m6datZQcDbatWqJZ06dfI/Tp8+vSxdutT/nN27d5ulC+vXr2/29ateI3BVAe2JoA3/ihUr+ssEXsMr411DhwvUrFkzqIxOSKj7Xhk9f726AAAAAACQWoVsWEHWrFmlcuXKQccyZ84suXPn9h/v3r27WWIwV65cpsGvqwdoY9xbHaBFixYmCdC5c2cZOXKkGf8/ZMgQM8mh152/V69eZhWCQYMGyeOPPy7Lli2TDz74wKxg4NHX6Nq1q0lI1KlTx6yWcPbsWenWrZs5r5MJXq8uAAAAAACkViFLDiTHmDFjzMoBsbGxZklAXWVAlzz06HCA+fPnS+/evU1DXZML2sgfNmyYv0yJEiVMIqB///4ybtw4KVy4sEyZMsVcy9OhQwez9GFcXJxJMOhyirrMYeAkhderCwAAAAAAqVWEz+fzhboSrkju+pIAAAAAANhsh4Z0KUMAAAAAABB6JAcAAAAAAHAcyQEAAAAAABxHcgAAAAAAAMeRHAAAAAAAwHFhvZShq2oOnBnqKqQaG0d1CXUVAAAAACDVo+cAAAAAAACOIzkAAAAAAIDjSA4AAAAAAOA4kgMAAAAAADiO5AAAAAAAAI4jOQAAAAAAgONIDgAAAAAA4DiSAwAAAAAAOI7kAAAAAAAAjiM5AAAAAACA40gOAAAAAADgOJIDAAAAAAA4juQAAAAAAACOIzkAAAAAAIDjSA4AAAAAAOA4kgMAAAAAADiO5AAAAAAAAI4jOQAAAAAAgONIDgAAAAAA4DiSAwAAAAAAOI7kAAAAAAAAjiM5AAAAAACA40gOAAAAAADgOJIDAAAAAAA4juQAAAAAAACOIzkAAAAAAIDjSA4AAAAAAOA4kgMAAAAAADiO5AAAAAAAAI4jOQAAAAAAgONCmhyYNGmSVK1aVbJly2a2+vXry2effeY/37hxY4mIiAjaevXqFXSN/fv3S+vWrSVTpkySL18+GThwoFy+fDmozIoVK6RGjRqSMWNGKV26tEyfPj1BXSZMmCDFixeX6OhoqVu3rqxbty7o/Pnz56VPnz6SO3duyZIli8TGxsqRI0dSPCYAAAAAADiVHChcuLC8+uqrsnHjRtmwYYPce++98uCDD8r27dv9ZXr27CmHDh3ybyNHjvSfu3LlikkMXLx4UVavXi0zZswwDf+4uDh/mb1795oyTZo0kc2bN0u/fv2kR48esnjxYn+Z2bNny4ABA2To0KGyadMmqVatmrRs2VKOHj3qL9O/f3+ZN2+ezJkzR1auXCkHDx6Udu3aWYkTAAAAAAC3U4TP5/NJGMmVK5eMGjVKunfvbnoOVK9eXcaOHZtoWe1l0KZNG9NQz58/vzk2efJkefbZZ+XYsWOSIUMG83jBggWybds2//M6duwoJ06ckEWLFpl97SlQu3ZtGT9+vNm/evWqFClSRJ566il57rnn5OTJk5I3b16ZNWuWtG/f3pTZtWuXVKhQQdasWSP16tVL1vd26tQpyZ49u7me9pRISs2BM28gYm7bOKpLqKsAAAAAAGErue3QsJlzQHsBvP/++3L27FkzvMDz7rvvSp48eaRy5coyePBg+eOPP/zntGFepUoVf2JA6R1//ea93gdaplmzZkGvpWX0uNJeB9pzIbBMZGSk2ffK6PlLly4FlSlfvrwULVrUXyYxFy5cMHUJ3AAAAAAACDfpQl2BrVu3mmSAjunXsfxz586VihUrmnOPPvqoFCtWTAoVKiRbtmwxvQB2794tH330kTl/+PDhoMSA8vb13LXKaEP93Llzcvz4cZOYSKyM9g7wrqG9EHLkyJGgjPc6iRkxYoS89NJLtxAdAAAAAAAcSA6UK1fOzAWgXRz++9//SteuXc2Yfk0QPPHEE/5y2kOgYMGC0rRpU/nxxx+lVKlSEu60p4POZeDRhIQOVwAAAAAAIJyEfFiB3pHXFQRq1qxp7rTrZIDjxo1LtKzODaD27NljvhYoUCDBigHevp67VhkdaxETE2OGLERFRSVaJvAaOvxA5ylIqkxidHUEbyUGbwMAAAAAINyEPDkQn04GqGP1E6M9DJT2IFA6HEGHJQSuKrBkyRLTCPeGJmiZpUuXBl1Hy3jzGmhyQhMTgWW0DrrvldHz6dOnDyqjwxt0GcXA+REAAAAAAEiN0oW62/39999vJvY7ffq0WQ1gxYoVZplBHTqg+61atZLcuXObOQd0OcFGjRpJ1apVzfNbtGhhkgCdO3c2Sxzq+P8hQ4ZInz59zF171atXL7MKwaBBg+Txxx+XZcuWyQcffGBWMPBo138dzlCrVi2pU6eOWR1BJ0bs1q2bOa8zO+rqCVpOV1PQ5IOuZKCJgeSuVAAAAAAAQLgKaXJA7/h36dJFDh06ZBrg2ujXxEDz5s3lwIED8sUXX/gb6jpWPzY21jT+PTocYP78+dK7d2/TUM+cObNp5A8bNsxfpkSJEiYRoIkFHa5QuHBhmTJlilmxwNOhQwez9GFcXJxJMOjyibrMYeAkhWPGjDGrGGgdtGeDPn/ixIkWowUAAAAAwO0R4fP5fLfp2rjJ9SVrDpxptV6p2cZRXUJdBQAAAABI9e3QsJtzAAAAAAAA2EVyAAAAAAAAx5EcAAAAAADAcSQHAAAAAABwHMkBAAAAAAAcR3IAAAAAAADHkRwAAAAAAMBxJAcAAAAAAHAcyQEAAAAAABxHcgAAAAAAAMeRHAAAAAAAwHEkBwAAAAAAcBzJAQAAAAAAHEdyAAAAAAAAx5EcAAAAAADAcSQHAAAAAABwHMkBAAAAAAAcR3IAAAAAAADHkRwAAAAAAMBxJAcAAAAAAHAcyQEAAAAAABxHcgAAAAAAAMeRHAAAAAAAwHEkBwAAAAAAcBzJAQAAAAAAHEdyAAAAAAAAx5EcAAAAAADAcSQHAAAAAABwHMkBAAAAAAAcR3IAAAAAAADHkRwAAAAAAMBxJAcAAAAAAHAcyQEAAAAAABxHcgAAAAAAAMeRHAAAAAAAwHEkBwAAAAAAcFxIkwOTJk2SqlWrSrZs2cxWv359+eyzz/znz58/L3369JHcuXNLlixZJDY2Vo4cORJ0jf3790vr1q0lU6ZMki9fPhk4cKBcvnw5qMyKFSukRo0akjFjRildurRMnz49QV0mTJggxYsXl+joaKlbt66sW7cu6Hxy6gIAAAAAQGoU0uRA4cKF5dVXX5WNGzfKhg0b5N5775UHH3xQtm/fbs73799f5s2bJ3PmzJGVK1fKwYMHpV27dv7nX7lyxSQGLl68KKtXr5YZM2aYhn9cXJy/zN69e02ZJk2ayObNm6Vfv37So0cPWbx4sb/M7NmzZcCAATJ06FDZtGmTVKtWTVq2bClHjx71l7leXQAAAAAASK0ifD6fT8JIrly5ZNSoUdK+fXvJmzevzJo1yzxWu3btkgoVKsiaNWukXr16ppdBmzZtTEM9f/78pszkyZPl2WeflWPHjkmGDBnM4wULFsi2bdv8r9GxY0c5ceKELFq0yOxrT4HatWvL+PHjzf7Vq1elSJEi8tRTT8lzzz0nJ0+evG5dkuPUqVOSPXt2cz3tKZGUmgNn3kIE3bJxVJdQVwEAAAAAwlZy26FhM+eA9gJ4//335ezZs2Z4gfYmuHTpkjRr1sxfpnz58lK0aFHTIFf6tUqVKv7EgNI7/vrNe70PtEzgNbwy3jW014G+VmCZyMhIs++VSU5dEnPhwgVTl8ANAAAAAIBwE/LkwNatW80Yfp0PoFevXjJ37lypWLGiHD582Nz5z5EjR1B5TQToOaVfAxMD3nnv3LXKaEP93Llz8uuvv5rERGJlAq9xvbokZsSIESZD423aGwEAAAAAgHAT8uRAuXLlzFwA33zzjfTu3Vu6du0qO3bskLRg8ODBpuuGtx04cCDUVQIAAAAAIIF0EmJ6R15XEFA1a9aU9evXy7hx46RDhw6my7/ODRB4x15XCChQoIB5rF/jryrgrSAQWCb+qgK6r2MtYmJiJCoqymyJlQm8xvXqkhjtDaEbAAAAAADhLOQ9B+LTyQB1rL4mCtKnTy9Lly71n9u9e7dZulDnJFD6VYclBK4qsGTJEtPw16EJXpnAa3hlvGtockJfK7CM1kH3vTLJqQsAAAAAAKlVulB3u7///vvNxH6nT582qwGsWLHCLDOoY/S7d+9ulhjUFQy0wa+rB2hj3FsdoEWLFiYJ0LlzZxk5cqQZ/z9kyBDp06eP/469zmOgqxAMGjRIHn/8cVm2bJl88MEHZgUDj76GDmeoVauW1KlTR8aOHWsmRuzWrZs5n5y6AAAAAACQWoU0OaB3/Lt06SKHDh0yDfCqVauaxEDz5s3N+TFjxpiVA2JjY01vAl1lYOLEif7n63CA+fPnm7kKtKGeOXNm08gfNmyYv0yJEiVMIqB///5muELhwoVlypQp5loeHcKgSx/GxcWZBEP16tXNMoeBkxRery4AAAAAAKRWET6fzxfqSrgiuetL1hw402q9UrONo7qEugoAAAAAkOrboWE35wAAAAAAALCL5AAAAAAAAI4jOQAAAAAAgONIDgAAAAAA4DiSAwAAAAAAOI7kAAAAAAAAjiM5AAAAAACA40gOAAAAAADgOJIDAAAAAAA4juQAAAAAAACOIzkAAAAAAIDjSA4AAAAAAOA4kgMAAAAAADiO5AAAAAAAAI4jOQAAAAAAgONIDgAAAAAA4DiSAwAAAAAAOI7kAAAAAAAAjiM5AAAAAACA40gOAAAAAADgOJIDAAAAAAA4juQAAAAAAACOIzkAAAAAAIDjSA4AAAAAAOA4kgMAAAAAADiO5AAAAAAAAI4jOQAAAAAAgONIDgAAAAAA4DiSAwAAAAAAOI7kAAAAAAAAjiM5AAAAAACA40gOAAAAAADgOJIDAAAAAAA4juQAAAAAAACOIzkAAAAAAIDjSA4AAAAAAOA4kgMAAAAAADgupMmBESNGSO3atSVr1qySL18+adu2rezevTuoTOPGjSUiIiJo69WrV1CZ/fv3S+vWrSVTpkzmOgMHDpTLly8HlVmxYoXUqFFDMmbMKKVLl5bp06cnqM+ECROkePHiEh0dLXXr1pV169YFnT9//rz06dNHcufOLVmyZJHY2Fg5cuRIisYEAAAAAACnkgMrV640je21a9fKkiVL5NKlS9KiRQs5e/ZsULmePXvKoUOH/NvIkSP9565cuWISAxcvXpTVq1fLjBkzTMM/Li7OX2bv3r2mTJMmTWTz5s3Sr18/6dGjhyxevNhfZvbs2TJgwAAZOnSobNq0SapVqyYtW7aUo0eP+sv0799f5s2bJ3PmzDF1P3jwoLRr1+62xwkAAAAAgNspwufz+SRMHDt2zNz514Z3o0aN/D0HqlevLmPHjk30OZ999pm0adPGNNTz589vjk2ePFmeffZZc70MGTKYxwsWLJBt27b5n9exY0c5ceKELFq0yOxrTwHtxTB+/Hizf/XqVSlSpIg89dRT8txzz8nJkyclb968MmvWLGnfvr0ps2vXLqlQoYKsWbNG6tWrd93v79SpU5I9e3ZzrWzZsiVZrubAmTcUN5dtHNUl1FUAAAAAgLCV3HZoWM05oJVVuXLlCjr+7rvvSp48eaRy5coyePBg+eOPP/zntGFepUoVf2JA6R1/DcD27dv9ZZo1axZ0TS2jx5X2Oti4cWNQmcjISLPvldHz2rMhsEz58uWlaNGi/jLxXbhwwdQjcAMAAAAAINykkzChd+q1u//dd99tkgCeRx99VIoVKyaFChWSLVu2mF4AOi/BRx99ZM4fPnw4KDGgvH09d60y2lg/d+6cHD9+3AxPSKyM9g7wrqG9EHLkyJGgjPc6ic2p8NJLL91CVAAAAAAAcCg5oHMPaLf/VatWBR1/4okn/I+1h0DBggWladOm8uOPP0qpUqUknGkvB53HwKPJCB2qAAAAAABAOAmLYQV9+/aV+fPny/Lly6Vw4cLXLKtzA6g9e/aYrwUKFEiwYoC3r+euVUbHW8TExJghC1FRUYmWCbyGDj/QeQqSKhOfroygrxG4AQAAAAAQbkKaHNC5EDUxMHfuXFm2bJmUKFHius/R1QaU9iBQ9evXl61btwatKqArH2hDvGLFiv4yS5cuDbqOltHjSocL1KxZM6iMDnPQfa+Mnk+fPn1QGR3eoMsoemUAAAAAAEiN0oV6KIHO/v/JJ59I1qxZ/WP3dSZFvaOvQwf0fKtWrSR37txmzgFdTlBXMqhataopq0sfahKgc+fOZolDvcaQIUPMtfXOverVq5dZhWDQoEHy+OOPm0TEBx98YFYw8Gj3/65du0qtWrWkTp06ZnUEXVKxW7du/jp1797dlNMJEzX5oCsZaGIgOSsVAAAAAAAQrkKaHJg0aZJ/ucJA06ZNk8cee8zc0f/iiy/8DXUdrx8bG2sa/x4dDqBDEnr37m0a6pkzZzaN/GHDhvnLaI8ETQRoYmHcuHFm6MKUKVPMigWeDh06mKUP4+LiTIJBl0/UZQ4DJykcM2aMWcVA66ArEejzJ06ceJujBAAAAADA7RXh0779CKv1JWsOnGm1XqnZxlFdQl0FAAAAAEj17dCwmJAQAAAAAACEDskBAAAAAAAcR3IAAAAAAADHkRwAAAAAAMBxJAcAAAAAAHAcyQEAAAAAABxHcgAAAAAAAMeRHAAAAAAAwHEkBwAAAAAAcBzJAQAAAAAAHEdyAAAAAAAAx5EcAAAAAADAcSQHAAAAAABwHMkBAAAAAAAcR3IAAAAAAADHkRwAAAAAAMBxJAcAAAAAAHAcyQEAAAAAABxHcgAAAAAAAMfdVHKgZMmS8ttvvyU4fuLECXMOAAAAAACk8eTAvn375MqVKwmOX7hwQX755ZeUqBcAAAAAALAk3Y0U/vTTT/2PFy9eLNmzZ/fva7Jg6dKlUrx48ZStIQAAAAAACJ/kQNu2bc3XiIgI6dq1a9C59OnTm8TAa6+9lrI1BAAAAAAA4ZMcuHr1qvlaokQJWb9+veTJk+d21QsAAAAAAIRjcsCzd+/elK8JAAAAAABIPckBpfML6Hb06FF/jwLP1KlTU6JuAAAAAAAgXJMDL730kgwbNkxq1aolBQsWNHMQAAAAAAAAh5IDkydPlunTp0vnzp1TvkYAAAAAAMCqyJt50sWLF+Wuu+5K+doAAAAAAIDUkRzo0aOHzJo1K+VrAwAAAAAAUsewgvPnz8tbb70lX3zxhVStWlXSp08fdH706NEpVT8AAAAAABCOyYEtW7ZI9erVzeNt27YFnWNyQgAAAAAAHEgOLF++POVrAgAAAAAAUs+cAwAAAAAAwPGeA02aNLnm8IFly5bdSp0AAAAAAEC4Jwe8+QY8ly5dks2bN5v5B7p27ZpSdQMAAAAAAOE6rGDMmDFB2/jx42XVqlXSr1+/BCsXXMuIESOkdu3akjVrVsmXL5+0bdtWdu/enWBlhD59+kju3LklS5YsEhsbK0eOHAkqs3//fmndurVkypTJXGfgwIFy+fLloDIrVqyQGjVqSMaMGaV06dIyffr0BPWZMGGCFC9eXKKjo6Vu3bqybt26G64LAAAAAABOzznw5z//WaZOnZrs8itXrjSN7bVr18qSJUtMD4QWLVrI2bNn/WX69+8v8+bNkzlz5pjyBw8elHbt2vnPX7lyxSQGLl68KKtXr5YZM2aYhn9cXJy/zN69e00ZHQ6hPRw0idGjRw9ZvHixv8zs2bNlwIABMnToUNm0aZNUq1ZNWrZsKUePHk12XQAAAAAASI0ifD6fL6Uu9p///EeeffZZ02i+GceOHTN3/rXh3ahRIzl58qTkzZtXZs2aJe3btzdldu3aJRUqVJA1a9ZIvXr15LPPPpM2bdqY18yfP78pM3nyZFMPvV6GDBnM4wULFgQtu9ixY0c5ceKELFq0yOxrTwHtxaC9INTVq1elSJEi8tRTT8lzzz2XrLpcz6lTpyR79uzmWtmyZUuyXM2BM28qfi7aOKpLqKsAAAAAAGErue3Qm5pzIP7dcs0vHDp0SDZs2CAvvPCC3CytrMqVK5f5unHjRtOboFmzZv4y5cuXl6JFi/ob5Pq1SpUq/sSA0jv+vXv3lu3bt8udd95pygRewyujPQiU9jrQ1xo8eLD/fGRkpHmOPje5dYnvwoULZgv8oQAAAAAAEG5uKjmgWYdA2pAuV66cDBs2zAwLuBl6p14b63fffbdUrlzZHDt8+LC5858jR46gspoI0HNemcDEgHfeO3etMtpYP3funBw/ftwMT0isjPYOSG5dEptT4aWXXrqpeAAAAAAAENbJgWnTpqV4RXTuAe32rxMbphXaE0HnMfBoMkKHKgAAAAAAkOqTAx7tar9z507zuFKlSqYL/83o27evzJ8/X7788kspXLiw/3iBAgVMl3+dGyDwjr2uEKDnvDLxVxXwVhAILBN/VQHd1/EWMTExEhUVZbbEygRe43p1iU9XRtANAAAAAIA0t1qBzuB/7733mgn8/vrXv5qtZs2a0rRpUzMJYHLpXAWaGJg7d64sW7ZMSpQoEXRer6lLIy5dutR/TJc61KUL69evb/b169atW4NWFdCVD7ThX7FiRX+ZwGt4Zbxr6HABfa3AMjrMQfe9MsmpCwAAAAAAziQHdAb/06dPmwn/fv/9d7PpkADtNq+JghsZSvDOO++YFQCyZs1qxu7rpvMAeHMbdO/e3XTNX758uemp0K1bN9MY9yYA1DkONAnQuXNn+e6778zyhEOGDDHX9u7a9+rVS3766ScZNGiQmUNg4sSJ8sEHH5ilCT36Gm+//bZZClF7Q+iEhrqkor5ecusCAAAAAIAzwwp0+b8vvvjCLOPn0Qb6hAkTbmhCwkmTJpmvjRs3TjCnwWOPPWYejxkzxkx4GBsba2b+11UGtHHv0eEAOiRBG/PaUM+cObN07drVTI7o0R4JupShJgPGjRtnhi5MmTLFXMvToUMH0+shLi7OJCiqV69uvs/ASQqvVxcAAAAAAFKjCJ/27b9Bepf/q6++Mg3oQN9++63cc889LNl3i+tL1hw402q9UrONo7qEugoAAAAAkOrboTfVc0DnG3j66aflvffek0KFCpljv/zyi7kzr/MOAKkNCRn7CRlinnwkwQAAABCWcw6MHz/eZB+KFy8upUqVMpt23ddjb7zxRsrXEgAAAAAA3DY31XOgSJEismnTJjPvgE7wp3T+gWbNmqV0/QAAAAAAQDj1HNDlBnXiQe0hEBERIc2bNzcrF+imyxpWqlTJzEUAAAAAAADSaHJg7Nix0rNnz0QnMdAJDp588kkZPXp0StYPAAAAAACEU3Lgu+++k/vuuy/J87qM4caNG1OiXgAAAAAAIBznHDhy5IikT58+6YulSyfHjh1LiXoBAFIYK0QkHytEAAAA19xQz4E77rhDtm3bluT5LVu2SMGCBVOiXgAAAAAAIByTA61atZIXXnhBzp8/n+DcuXPnZOjQodKmTZuUrB8AAAAAAAinYQVDhgyRjz76SMqWLSt9+/aVcuXKmeO6nOGECRPkypUr8ve///121RUAAAAAAIQ6OZA/f35ZvXq19O7dWwYPHiw+n88c12UNW7ZsaRIEWgYAAAAAAKTR5IAqVqyYLFy4UI4fPy579uwxCYIyZcpIzpw5b08NAQAAAABAeCUHPJoMqF27dsrWBgAAAAAAhPeEhAAAAAAAIO0hOQAAAAAAgONIDgAAAAAA4DiSAwAAAAAAOI7kAAAAAAAAjiM5AAAAAACA40gOAAAAAADgOJIDAAAAAAA4juQAAAAAAACOIzkAAAAAAIDjSA4AAAAAAOA4kgMAAAAAADiO5AAAAAAAAI4jOQAAAAAAgONIDgAAAAAA4DiSAwAAAAAAOI7kAAAAAAAAjksX6goAAJBW1Rw4M9RVSDU2juoS6ioAAOA0eg4AAAAAAOA4kgMAAAAAADiO5AAAAAAAAI4jOQAAAAAAgOOYkBAAAKQZTAKZfEwCCQAIRM8BAAAAAAAcF9LkwJdffikPPPCAFCpUSCIiIuTjjz8OOv/YY4+Z44HbfffdF1Tm999/l06dOkm2bNkkR44c0r17dzlz5kxQmS1btkjDhg0lOjpaihQpIiNHjkxQlzlz5kj58uVNmSpVqsjChQuDzvt8PomLi5OCBQtKTEyMNGvWTH744YcUjQcAAAAAAM4NKzh79qxUq1ZNHn/8cWnXrl2iZTQZMG3aNP9+xowZg85rYuDQoUOyZMkSuXTpknTr1k2eeOIJmTVrljl/6tQpadGihWnMT548WbZu3WpeTxMJWk6tXr1aHnnkERkxYoS0adPGPLdt27ayadMmqVy5simjCYXXX39dZsyYISVKlJAXXnhBWrZsKTt27DAJBQAAABcxlCP5GMoBIJyFNDlw//33m+1aNBlQoECBRM/t3LlTFi1aJOvXr5datWqZY2+88Ya0atVK/vWvf5keCe+++65cvHhRpk6dKhkyZJBKlSrJ5s2bZfTo0f7kwLhx40wSYuDAgWb/5ZdfNsmG8ePHm4SC9hoYO3asDBkyRB588EFTZubMmZI/f37T26Fjx46J1u/ChQtm82iiAgAAAACAcBP2cw6sWLFC8uXLJ+XKlZPevXvLb7/95j+3Zs0a0wPASwwo7SEQGRkp33zzjb9Mo0aNTGLAo3f8d+/eLcePH/eX0ecF0jJ6XO3du1cOHz4cVCZ79uxSt25df5nEaE8ELedtOqQBAAAAAIBwE9bJAb2br3foly5dKv/85z9l5cqVpqfBlStXzHltsGviIFC6dOkkV65c5pxXRu/wB/L2r1cm8Hzg8xIrk5jBgwfLyZMn/duBAwduOhYAAAAAADi5lGFgd32dJLBq1apSqlQp05ugadOmEu50SET8ORIAAAAAAAg3Yd1zIL6SJUtKnjx5ZM+ePWZf5yI4evRoUJnLly+bFQy8eQr065EjR4LKePvXKxN4PvB5iZUBAAAAACC1SlXJgZ9//tnMOaDLCar69evLiRMnZOPGjf4yy5Ytk6tXr5r5ALwyumSirmTg0ckGdQ6DnDlz+svo0IVAWkaPK12dQJMAgWV0ckGd18ArAwAAAABAahXS5MCZM2fMygG6eRP/6eP9+/ebc7p6wNq1a2Xfvn2mYa4rBZQuXdpMFqgqVKhg5iXo2bOnrFu3Tr7++mvp27evGY6gKxWoRx991ExG2L17d9m+fbvMnj3brE4wYMAAfz2efvpps+rBa6+9Jrt27ZIXX3xRNmzYYK6lIiIipF+/fjJ8+HD59NNPzXKIXbp0Ma+hSx4CAAAAAJCahXTOAW2AN2nSxL/vNdi7du0qkyZNki1btsiMGTNM7wBtiLdo0cIsMxg4jl+XKtRGvM5BoKsUxMbGyuuvv+4/r6sEfP7559KnTx+pWbOmGZYQFxfnX8ZQ3XXXXTJr1iyzVOHzzz8vZcqUMUsUVq5c2V9m0KBBcvbsWfM8rU+DBg1MQiE6OtpCpAAAAAAASKPJgcaNG4vP50vy/OLFi697DV2ZQBv216ITGX711VfXLPPwww+bLSnae2DYsGFmAwAAAEKl5sCZoa5CqrFxVJdQVwFINcJ6tQIAAAAACDUSMslHQib1SlUTEgIAAAAAgJRHzwEAAAAAQFiht4b93hr0HAAAAAAAwHEkBwAAAAAAcBzJAQAAAAAAHEdyAAAAAAAAx5EcAAAAAADAcSQHAAAAAABwHMkBAAAAAAAcR3IAAAAAAADHkRwAAAAAAMBxJAcAAAAAAHAcyQEAAAAAABxHcgAAAAAAAMeRHAAAAAAAwHEkBwAAAAAAcBzJAQAAAAAAHEdyAAAAAAAAx5EcAAAAAADAcSQHAAAAAABwHMkBAAAAAAAcR3IAAAAAAADHkRwAAAAAAMBxJAcAAAAAAHAcyQEAAAAAABxHcgAAAAAAAMeRHAAAAAAAwHEkBwAAAAAAcBzJAQAAAAAAHEdyAAAAAAAAx5EcAAAAAADAcSQHAAAAAABwHMkBAAAAAAAcR3IAAAAAAADHkRwAAAAAAMBxIU0OfPnll/LAAw9IoUKFJCIiQj7++OOg8z6fT+Li4qRgwYISExMjzZo1kx9++CGozO+//y6dOnWSbNmySY4cOaR79+5y5syZoDJbtmyRhg0bSnR0tBQpUkRGjhyZoC5z5syR8uXLmzJVqlSRhQsX3nBdAAAAAABIjUKaHDh79qxUq1ZNJkyYkOh5bcS//vrrMnnyZPnmm28kc+bM0rJlSzl//ry/jCYGtm/fLkuWLJH58+ebhMMTTzzhP3/q1Clp0aKFFCtWTDZu3CijRo2SF198Ud566y1/mdWrV8sjjzxiEgvffvuttG3b1mzbtm27oboAAAAAAJAapQvli99///1mS4zeqR87dqwMGTJEHnzwQXNs5syZkj9/ftPDoGPHjrJz505ZtGiRrF+/XmrVqmXKvPHGG9KqVSv517/+ZXokvPvuu3Lx4kWZOnWqZMiQQSpVqiSbN2+W0aNH+5MI48aNk/vuu08GDhxo9l9++WWTbBg/frxJBiSnLgAAAAAApFZhO+fA3r175fDhw6b7vid79uxSt25dWbNmjdnXrzqUwEsMKC0fGRlp7u57ZRo1amQSAx6947979245fvy4v0zg63hlvNdJTl0Sc+HCBdNzIXADAAAAACDchG1yQBvjSu/OB9J975x+zZcvX9D5dOnSSa5cuYLKJHaNwNdIqkzg+evVJTEjRowwSQRv0/kOAAAAAAAIN2GbHEgLBg8eLCdPnvRvBw4cCHWVAAAAAABIPcmBAgUKmK9HjhwJOq773jn9evTo0aDzly9fNisYBJZJ7BqBr5FUmcDz16tLYjJmzGhWUQjcAAAAAAAIN2GbHChRooRpeC9dutR/TMfs61wC9evXN/v69cSJE2YVAs+yZcvk6tWrZj4Ar4yuYHDp0iV/GZ1ssFy5cpIzZ05/mcDX8cp4r5OcugAAAAAAkFqFNDlw5swZs3KAbt7Ef/p4//79EhERIf369ZPhw4fLp59+Klu3bpUuXbqYFQh0mUFVoUIFs8pAz549Zd26dfL1119L3759zeoBWk49+uijZjJCXaZQlzycPXu2WZ1gwIAB/no8/fTTZtWD1157TXbt2mWWOtywYYO5lkpOXQAAAAAASK1CupShNsCbNGni3/ca7F27dpXp06fLoEGD5OzZs2bJQe0h0KBBA9OIj46O9j9HlyrURnzTpk3NKgWxsbHy+uuv+8/rRICff/659OnTR2rWrCl58uSRuLg4/zKG6q677pJZs2aZpQqff/55KVOmjFmisHLlyv4yyakLAAAAAACpUUiTA40bNxafz5fkeb1jP2zYMLMlRVcm0Ib9tVStWlW++uqra5Z5+OGHzXYrdQEAAAAAIDUK2zkHAAAAAACAHSQHAAAAAABwHMkBAAAAAAAcR3IAAAAAAADHkRwAAAAAAMBxJAcAAAAAAHAcyQEAAAAAABxHcgAAAAAAAMeRHAAAAAAAwHEkBwAAAAAAcBzJAQAAAAAAHEdyAAAAAAAAx5EcAAAAAADAcSQHAAAAAABwHMkBAAAAAAAcR3IAAAAAAADHkRwAAAAAAMBxJAcAAAAAAHAcyQEAAAAAABxHcgAAAAAAAMeRHAAAAAAAwHEkBwAAAAAAcBzJAQAAAAAAHEdyAAAAAAAAx5EcAAAAAADAcSQHAAAAAABwHMkBAAAAAAAcR3IAAAAAAADHkRwAAAAAAMBxJAcAAAAAAHAcyQEAAAAAABxHcgAAAAAAAMeRHAAAAAAAwHEkBwAAAAAAcBzJAQAAAAAAHEdyAAAAAAAAx4V1cuDFF1+UiIiIoK18+fL+8+fPn5c+ffpI7ty5JUuWLBIbGytHjhwJusb+/fuldevWkilTJsmXL58MHDhQLl++HFRmxYoVUqNGDcmYMaOULl1apk+fnqAuEyZMkOLFi0t0dLTUrVtX1q1bdxu/cwAAAAAA7Anr5ICqVKmSHDp0yL+tWrXKf65///4yb948mTNnjqxcuVIOHjwo7dq185+/cuWKSQxcvHhRVq9eLTNmzDAN/7i4OH+ZvXv3mjJNmjSRzZs3S79+/aRHjx6yePFif5nZs2fLgAEDZOjQobJp0yapVq2atGzZUo4ePWoxEgAAAAAAOJocSJcunRQoUMC/5cmTxxw/efKk/Pvf/5bRo0fLvffeKzVr1pRp06aZJMDatWtNmc8//1x27Ngh77zzjlSvXl3uv/9+efnll00vAE0YqMmTJ0uJEiXktddekwoVKkjfvn2lffv2MmbMGH8d9DV69uwp3bp1k4oVK5rnaE+EqVOnhigqAAAAAAA4lBz44YcfpFChQlKyZEnp1KmTGSagNm7cKJcuXZJmzZr5y+qQg6JFi8qaNWvMvn6tUqWK5M+f319G7/ifOnVKtm/f7i8TeA2vjHcNTSLoawWWiYyMNPtemaRcuHDBvFbgBgAAAABAuAnr5ICO7ddhAIsWLZJJkyaZIQANGzaU06dPy+HDhyVDhgySI0eOoOdoIkDPKf0amBjwznvnrlVGG/Lnzp2TX3/91QxPSKyMd42kjBgxQrJnz+7fihQpcgvRAAAAAADg9kgnYUyHAXiqVq1qkgXFihWTDz74QGJiYiTcDR482MxV4NGEAwkCAAAAAEC4CeueA/FpL4GyZcvKnj17zPwD2uX/xIkTQWV0tQI9p/Rr/NULvP3rlcmWLZtJQOgcB1FRUYmW8a6RFF39QK8TuAEAAAAAEG5SVXLgzJkz8uOPP0rBggXNBITp06eXpUuX+s/v3r3bzElQv359s69ft27dGrSqwJIlS0wjXScW9MoEXsMr411Dhy7oawWWuXr1qtn3ygAAAAAAkJqFdXLgmWeeMUsU7tu3z6xC8NBDD5m7+I888ogZw9+9e3fTbX/58uVm0kBdTUAb7PXq1TPPb9GihUkCdO7cWb777juzPOGQIUOkT58+5q6+6tWrl/z0008yaNAg2bVrl0ycONEMW9BlEj36Gm+//bZZCnHnzp3Su3dvOXv2rHk9AAAAAABSu7Cec+Dnn382iYDffvtN8ubNKw0aNDDLFOpjpcsN6soBsbGxZmUAXWVAG/ceTSTMnz/fNOY1aZA5c2bp2rWrDBs2zF9GlzFcsGCBSQaMGzdOChcuLFOmTDHX8nTo0EGOHTsmcXFxZhJCXRZRJ0mMP0khAAAAAACpUVgnB95///1rno+OjpYJEyaYLSk6geHChQuveZ3GjRvLt99+e80yffv2NRsAAAAAAGlNWA8rAAAAAAAAtx/JAQAAAAAAHEdyAAAAAAAAx5EcAAAAAADAcSQHAAAAAABwHMkBAAAAAAAcR3IAAAAAAADHkRwAAAAAAMBxJAcAAAAAAHAcyQEAAAAAABxHcgAAAAAAAMeRHAAAAAAAwHEkBwAAAAAAcBzJAQAAAAAAHEdyAAAAAAAAx5EcAAAAAADAcSQHAAAAAABwHMkBAAAAAAAcR3IAAAAAAADHkRwAAAAAAMBxJAcAAAAAAHAcyQEAAAAAABxHcgAAAAAAAMeRHAAAAAAAwHEkBwAAAAAAcBzJAQAAAAAAHEdyAAAAAAAAx5EcAAAAAADAcSQHAAAAAABwHMkBAAAAAAAcR3IAAAAAAADHkRwAAAAAAMBxJAcAAAAAAHAcyQEAAAAAABxHcgAAAAAAAMeRHAAAAAAAwHEkBwAAAAAAcBzJgRs0YcIEKV68uERHR0vdunVl3bp1oa4SAAAAAAC3hOTADZg9e7YMGDBAhg4dKps2bZJq1apJy5Yt5ejRo6GuGgAAAAAAN43kwA0YPXq09OzZU7p16yYVK1aUyZMnS6ZMmWTq1KmhrhoAAAAAADct3c0/1S0XL16UjRs3yuDBg/3HIiMjpVmzZrJmzZpEn3PhwgWzeU6ePGm+njp16pqvdeXCuRSrd1p3vVgmFzFPPmJuHzG3j5jbR8ztI+b2EXP7iLl9xDz8Yu6d9/l81ywX4bteCRgHDx6UO+64Q1avXi3169f3Hx80aJCsXLlSvvnmmwTPefHFF+Wll16yXFMAAAAAAIIdOHBAChcuLEmh58BtpL0MdI4Cz9WrV+X333+X3LlzS0REhKQWmmkqUqSIeTNly5Yt1NVxAjG3j5jbR8ztI+b2EXP7iLl9xNw+Ym7fqVQcc+0PcPr0aSlUqNA1y5EcSKY8efJIVFSUHDlyJOi47hcoUCDR52TMmNFsgXLkyCGplf4SpLZfhNSOmNtHzO0j5vYRc/uIuX3E3D5ibh8xty9bKo159uzZr1uGCQmTKUOGDFKzZk1ZunRpUE8A3Q8cZgAAAAAAQGpDz4EboEMEunbtKrVq1ZI6derI2LFj5ezZs2b1AgAAAAAAUiuSAzegQ4cOcuzYMYmLi5PDhw9L9erVZdGiRZI/f35Jy3RoxNChQxMMkcDtQ8ztI+b2EXP7iLl9xNw+Ym4fMbePmNuX0YGYs1oBAAAAAACOY84BAAAAAAAcR3IAAAAAAADHkRwAAAAAAMBxJAcAAAAAAHAcyQEAAAAAABxHcgAAAAAAAMeRHADC2IoVK+TcuXOhrgaQ4q5cuSJHjhyRY8eOhboqTrp8+XKoq+CcvXv3EndLLly4YDYAwI0hOYBEHTp0SN555x1ZuHChXLx4Mejc2bNnZdiwYSGrm0tatGgh+/btC3U10qzvvvtOhg8fLhMnTpRff/016NypU6fk8ccfD1nd0qoFCxZIo0aNJHPmzFKoUCEpUKCA5MiRQzp37iz79+8PdfXSnEWLFsnWrVvN46tXr8rLL78sd9xxh2TMmFEKFy4sr776qvh8vlBX0wnlypWTH374IdTVSLOWLFkirVq1kpw5c0qmTJnMpo/12BdffBHq6qU5VapUMZ8nBw4cCHVVnHXw4EEZOnSodOrUSZ555hnZtWtXqKuUZv9W7NKli5QsWVJiYmLM3y/6/n/hhRfM34ppTYSPvwoQz/r1602jVP+QvHTpkvlD8uOPP5ZKlSqZ83q3T/+o1zt/SBk1atRI9PjmzZulfPnyEh0dbfY3bdpkuWZp1+effy4PPPCAlClTRk6fPm2SXnPmzJEmTZqY87zPU95//vMf6dOnjzzxxBPmPf3vf/9bHnvsMSlWrJi8//77sn37dlm9erX5mSBl6OfH22+/LQ0bNpQRI0bIa6+9Jn//+9+lQoUKsnv3bnOsf//+8uyzz4a6qmlGu3btEj3+ySefyL333itZs2Y1+x999JHlmqVdM2bMkB49ekj79u2lZcuWkj9/fv/nuH7W//e//zWfN5qERMqIjIyUXLlyyYkTJ6RZs2bSs2dPefDBByVdunShrlqapQmv//3vf5I3b17ZsWOH3HXXXebxnXfeaZLAmmBfs2aNVK1aNdRVTTMWL14sDz30kEkyamJAP7f1xpEmCD788EOTXF+1apW50ZFWkBxAAs2bN5ciRYrIlClTTINJ/2j84IMPTFZeP4BoNKW89OnTm/9c69Wr5z+mv5qale/Vq5fky5fPHNMMMVKG/qeqiYBXXnnFxHrUqFEm3poguO+++3if3wbaIH3xxRelQ4cOZn/Dhg3mP139gyYiIkI6duxoeirRaEo5moT5/vvvpWjRouZOR1xcnDz88MNBPTn69evHHe0UbjRp75gSJUoEHZ85c6b83//9n+kpo6ZNmxaiGqY9ZcuWlaefftokHxOjvcPGjBnD+zyF3+c///yzrFu3TqZOnSqfffaZ6amhd1i7d+9uPu+R8jE/fPiw+Zuwbdu25iae/n+pCRl9rD0Izpw5I/PmzQt1VdOMO++8U5588knzt7jSttBf//pX2blzp7mBev/995s2U5r6PNfkABAoZ86cvt27dwcdGzFihDm+bt063+HDh32RkZEhq19atGrVKl+pUqV8cXFxvitXrviPp0uXzrd9+/aQ1i2typYtm2/Pnj1Bx959911f5syZffPmzeN9fhvExMT49u7dG3RM3+O//PKLefzNN9/4cuTIEaLapU0FCxb0rVmzxjzOnz+/b9OmTUHnv//+e/NzQcp57733fIULF/ZNnTo16Dif57dPxowZfbt27UryvJ6Ljo62Wqe0LiIiwnfkyBH//sGDB33/+Mc/fGXKlDH/d9avX9/373//O6R1TMsxL1KkiO/LL78MOq+f7/qZj5QTHR0d9HfL1atXfenTpzfvd6U/g7x58/rSEuYcQKLOnz8ftP/cc8/J888/b4YbaLdfpKy7775bNm7caO7w6R3tH3/8MdRVSvN0zLV2hwz06KOPmh4zemd77ty5IatbWlW8eHHTW8Cjw2T0TojXBVi7qGomHilHe2Zo7xjtAaNdfvUOamCHwTfeeEOqV68e0jqmNdoD5quvvjLd2GNjY+X48eOhrlKap8MeNd5J0TvbFStWtFqntE57ewUqWLCgDB482Pwds3TpUilVqpS5w4qUjbkXd/2/M3v27EHntVcSnzcp64477jBD8Dz697n20sidO7fZ17l7tLdGWsLAICRQuXJlkwCIP2ZJJzvRX4hHHnkkZHVLy/RD/r333jNdkxo0aCAvvfRSgv98kXK0QbR8+XKpWbNmgj/stfHUtWvXkNUtrdIuvzouWOc10e7umojRMcBRUVHm/DfffGO6ByPl/OMf/zBDlnTugfr165thM9otUuO8Z88e+f33382YSqR8IuzLL780n+PVqlUz8z7weX776Fwabdq0MRNw6vs9cM4Bbaj+9NNPZggNUs61RiU3btzYbGlxsrZQ0pjrZ7d+lmiDdMuWLUF/q+tneloa+x4OunTpYv5u0bl69KbS6NGjzfCwDBky+OcGiz+ELLUjOYBEfxFWrlzpH18TaNCgQebDafLkySGpmwu6detmkgM6doxlr26f3r17mz/eE6MJMH2f6x/0SNnkgN7t0JVQdJkxnYxQZ/v11KlTR2bNmhXSOqbFpKMme/Wuqo5D1UarJnl1bgd9n+vvgd75QMrT97omB3QeH/1/lflLbh9tiG7btk0mTZoka9euNeOylTaUdEyw/j2j732kHE2g6wRt15ItWzZr9XFB/HHtpUuXDtrX9772FkPKef755838azonlf7dohOejhs3LqhngX7upCVMSAiEKf0DXmfR1/9cueMEAKmX3uXT7qjag0PvPgEAEI6YcwDJNn36dDl58mSoq+EM/UNSx2cz/4A9OpO1dkHVrnmwg5iHht4X4E62PVmyZDHDC0gM2MNni33EPDT4PEdKIjmAZNO1yQ8ePBjqaqRJuta4/oeqdDIZHTNZrlw50x1Vv2q3yPiT5+HWEHP7iLl9OjRpyJAhcs899/iXQtVlO7Wxqmtma9dgHWKAlKNLuwX+oT5//nwTf+1+WqtWLbOkIW7vZ0vTpk35bLnN+Dy3j89z+9Y5+HlOcgAJ6IzhiW36oaQTWnn7SDk6g7gXU53XQScJ09UL/vjjDzOju/4HqxNCIuUQc/uIuX065l0nftQ/Yv773/+aOQZ0hYK33nrLzKmhf9yPHTs21NVMU/T/yd9++8081nkedJUIHe+uE1rpmtm6BjyrodzezxZtrPLZcnvxeW4fn+f21Xfx8zzUayki/GTJksXXunVr3/Tp0/3btGnTfFFRUb5XXnnFfwwpu0bzvn37zOPixYv7Vq5cGXR+w4YNrF2bwoi5fcTcvpIlS/rmzZtnHv/www9m/fH333/ff3727Nm+ypUrh7CGaXst8gYNGviee+65oPP6/2i9evVCVLu0ic8W+4i5fXye2xfh4Oc5PQeQwLfffitHjx6VZcuWmTWatZuSziquk+K1bdvW7LPMW8oqVqyYmWlZaZzTpQteSESXetPZUpFyiLl9xNw+HQqmY929ma11+SVvX9WuXVv+97//hbCGaZuu+d6+ffugY/r/6q5du0JWp7SIzxb7iLl9fJ6H1veOfJ6THEAC+oGjS1/pEkC6FvzXX38d6iqleT179pSBAweaSXz69u1ruuJ5ExHu3btX+vfvLy1atAh1NdMUYm4fMQ/NUoaB435r1KghWbNm9e/r0kyshpLyduzYYdYg16XedOWZ+FimNmXx2WIfMbePz/PQ2OHY53lwmg/4/2gG+J///KdZz/PRRx+VTp068YFzG+l/qvv375eKFStKqVKlZN++fVK2bFnzc9APHf0P4L333gt1NdMUYm4fMbdPY63jf6tUqWL24yd7t27dKmXKlAlR7dIunRDPWylaY6539AJ75xUtWjSEtUt7+Gyxj5jbx+d5aDR17PM8QscWhLoSCG86EYdmiJcvXy5r1641s9Di9ti5c6eZCfWnn34y2cmCBQvK3XffbWYBJjlzexBz+4i53W6Q6dOnlxIlSiR6ftasWeaP+T/96U/W65ZWxe/WqzOJ586d27/vzW7dpUsX63VL6/hssY+Y28PnuX3/c/DznOQAbtmrr74qvXr1khw5coS6Ks4g5vYRc/uIuX3E3D5ibh8xt4+Y20fM7Xs1DcSc5ABuWbZs2WTz5s1SsmTJUFfFGcTcPmJuHzG3j5jbR8ztI+b2EXP7iLl92dJAzJmQELeM/JJ9xNw+Ym4fMbePmNtHzO0j5vYRc/uIuX2+NBBzkgMAAAAAADiO5AAAAAAAAI4jOQAAAAAAgONIDgAAAAAA4DiSA7hlDRs2lJiYmFBXwynE3D5ibh8xt4+Y20fM7SPm9hFz+4i5fQ3TQMxJDiCBuLg4+eOPP/z7x48fv2b5hQsXSsGCBS3ULO0i5vYRc/uIuX3E3D5ibh8xt4+Y20fM7YtzMOYRvrSw5gJSVFRUlBw6dEjy5cuXZtbsDHfE3D5ibh8xt4+Y20fM7SPm9hFz+4i5fVEOxpyeA0ggfr6I/NHtR8ztI+b2EXP7iLl9xNw+Ym4fMbePmNvnczDmJAcAAAAAAHBculBXAOEnIiJCTp8+LdHR0SZDpvtnzpyRU6dOBZXTrjVIGcTcPmJuHzG3j5jbR8ztI+b2EXP7iLl9EQ7GnDkHkEBkZKR583u8X4b4+1euXAlRDdMeYm4fMbePmNtHzO0j5vYRc/uIuX3E3L5IB2NOzwEksHz58lBXwTnE3D5ibh8xt4+Y20fM7SPm9hFz+4i5fcsdjDk9BwAAAAAAcBwTEuKW1/TErSPm9hFz+4i5fcTcPmJuHzG3j5jbR8zti3Mw5vQcQAIurukZasTcPmJuHzG3j5jbR8ztI+b2EXP7iLl9UQ7GnJ4DSMDFNT1DjZjbR8ztI+b2EXP7iLl9xNw+Ym4fMbfP52DMSQ4AAAAAAOA4VitAAi6u6RlqxNw+Ym4fMbePmNtHzO0j5vYRc/uIuX0RDsacOQeQgItreoYaMbePmNtHzO0j5vYRc/uIuX3E3D5ibl+kgzGn5wAScHFNz1Aj5vYRc/uIuX3E3D5ibh8xt4+Y20fM7VvuYMzpOQAAAAAAgOPoOYAk/fLLL/Lhhx/K999/b/bLlSsn7dq1kzvuuCPUVUuziLl9xNw+Ym4fMbePmNtHzO0j5vYRc/t+cSnm2nMAiG/ChAm+jBkz+iIiInzZs2c3mz7WY3oOKY+Y20fM7SPm9hFz+4i5fcTcPmJuHzG3b4JjMSc5gATmz5/vi4qK8v3tb3/zHTx40H9cH/fv39+XLl0634IFC0Jax7SGmNtHzO0j5vYRc/uIuX3E3D5ibh8xt2++gzFnzgEk0LhxY2nQoIEMHz480fNDhgyRVatWyYoVK6zXLa0i5vYRc/uIuX3E3D5ibh8xt4+Y20fM7WvsYMxJDiABXatz/fr1ZjxNYnbv3i21a9dOsMYnbh4xt4+Y20fM7SPm9hFz+4i5fcTcPmJuXzYHYx4Z6gog/OhanenTp0/yvJ5LS+t5hgNibh8xt4+Y20fM7SPm9hFz+4i5fcTcvisOxpzkABKoVKmSfPLJJ0me//jjj00ZpBxibh8xt4+Y20fM7SPm9hFz+4i5fcTcvkouxjzUkx4g/EyfPt0XExNjZuC8dOmS/7g+Hj9+vDk3bdq0kNYxrSHm9hFz+4i5fcTcPmJuHzG3j5jbR8ztm+5gzEkOIFE6K6cu05EtWzbfnXfe6atevbp5HBkZ6evXr1+oq5cmEXP7iLl9xNw+Ym4fMbePmNtHzO0j5vb9zbGYMyEhkrR27Vp577335IcffjD7ZcuWlY4dO0q9evVCXbU0i5jbR8ztI+b2EXP7iLl9xNw+Ym4fMbdvrUMxJzmAW/aXv/xFhg0bJnny5Al1VZxBzO0j5vYRc/uIuX3E3D5ibh8xt4+Y2/eXNBBzkgNIkWU+Nm/eLCVLlgx1VZxBzO0j5vYRc/uIuX3E3D5ibh8xt4+Y25ctDcSc1Qpwy8gv2UfM7SPm9hFz+4i5fcTcPmJuHzG3j5jb50sDMSc5AAAAAACA40gOAAAAAADgOJIDAAAAAAA4juQAAAAAAACOIzmAW/bnP//ZzM4Je4i5fcTcPmJuHzG3j5jbR8ztI+b2EXP7/pwGYk5yAAmMHDlSzp0759//+uuv5cKFC/7906dPm3U8PZMmTUrV63mGA2JuHzG3j5jbR8ztI+b2EXP7iLl9xNy+kQ7GPMKXFtZcQIqKioqSQ4cOSb58+RJds/PIkSNSqFAhuXLlSohrmnYQc/uIuX3E3D5ibh8xt4+Y20fM7SPm9kU5GHN6DiCB+Pki8ke3HzG3j5jbR8ztI+b2EXP7iLl9xNw+Ym6fz8GYkxwAAAAAAMBxJAcAAAAAAHBculBXAOFpypQpkiVLFvP48uXLMn36dP8EGzr5BlIeMbePmNtHzO0j5vYRc/uIuX3E3D5ibt8Ux2LOhIRIoHjx4hIREXHdcnv37rVSHxcQc/uIuX3E3D5ibh8xt4+Y20fM7SPm9hV3MOYkBwAAAAAAcBxzDiCBe++9V06cOBHqajiFmNtHzO0j5vYRc/uIuX3E3D5ibh8xt+9eB2NOzwEkEBkZKYcPH/av6Ynbj5jbR8ztI+b2EXP7iLl9xNw+Ym4fMbcv0sGY03MAAAAAAADHsVoBErVjxw6TKbuWqlWrWquPC4i5fcTcPmJuHzG3j5jbR8ztI+b2EXP7djgWc4YVINEuNDozZ2JvDe+4fr1y5UpI6pcWEXP7iLl9xNw+Ym4fMbePmNtHzO0j5vZFOhhzeg4gUd98843kzZs31NVwCjG3j5jbR8ztI+b2EXP7iLl9xNw+Ym7fN47FnJ4DSMDFyTdCjZjbR8ztI+b2EXP7iLl9xNw+Ym4fMbcv0sGYMyEhAAAAAACOIzmABO655x7JkCFDqKvhFGJuHzG3j5jbR8ztI+b2EXP7iLl9xNy+exyMOcMKkKRz587JkiVL5Pvvvzf7ZcuWlebNm0tMTEyoq5ZmEXP7iLl9xNw+Ym4fMbePmNtHzO0j5vadcynmmhwA4vvkk098efPm9UVERARteuzTTz8NdfXSJGJuHzG3j5jbR8ztI+b2EXP7iLl9xNy+TxyLOcMKkMDq1aulffv20qhRI/n666/l999/N9uqVaukYcOG5tzatWtDXc00hZjbR8ztI+b2EXP7iLl9xNw+Ym4fMbdvtYMxZ1gBEmjVqpUUKVJE3nzzzUTPP/nkk3LgwAFZuHCh9bqlVcTcPmJuHzG3j5jbR8ztI+b2EXP7iLl9rRyMOckBJJArVy5ZuXKlVKlSJdHzW7ZsMRN0HD9+3Hrd0ipibh8xt4+Y20fM7SPm9hFz+4i5fcTcvlwOxpxhBUh00o1s2bIleT579uxy/vx5q3VK64i5fcTcPmJuHzG3j5jbR8ztI+b2EXP7zjkYc5IDSKBMmTKybNmyJM8vXbrUlEHKIeb2EXP7iLl9xNw+Ym4fMbePmNtHzO0r42LMQz0jIsLP6NGjfbly5fItWLAgwbn58+f7cufO7XvttddCUre0ipjbR8ztI+b2EXP7iLl9xNw+Ym4fMbdvtIMxZ84BJHD16lXp0KGDfPjhh1KuXDmpUKGCJpFk586d8sMPP0jbtm1lzpw5EhlJx5OUQsztI+b2EXP7iLl9xNw+Ym4fMbePmNt31cGYkxxAkmbPni2zZs0yb35VtmxZ6dixo9lwexBz+4i5fcTcPmJuHzG3j5jbR8ztI+b2zXYo5iQHAAAAAABwXLpQVwDhR7vGREREXLOMnr98+bK1OqV1xNw+Ym4fMbePmNtHzO0j5vYRc/uIuX2RDsac5AASmDt3bpLn1qxZI6+//roZg4OUQ8ztI+b2EXP7iLl9xNw+Ym4fMbePmNs318WYh3pGRKQOu3bt8rVt29YXFRXl69Kli2/fvn2hrlKaR8ztI+b2EXP7iLl9xNw+Ym4fMbePmNu3K43HPO1MrYjb4uDBg9KzZ0+pUqWK6TKzefNmmTFjhhQrVizUVUuziLl9xNw+Ym4fMbePmNtHzO0j5vYRc/sOuhLzUGcnEJ5OnDjhGzRokC8mJsZXv35935dffhnqKqV5xNw+Ym4fMbePmNtHzO0j5vYRc/uIuX0nHIs5yQEk8M9//tOXK1cuX8WKFX0ff/xxqKvjBGJuHzG3j5jbR8ztI+b2EXP7iLl9xNy+fzoYc5YyRKIzc8bExEizZs0kKioqyXIfffSR1XqlZcTcPmJuHzG3j5jbR8ztI+b2EXP7iLl9kQ7GnNUKkECXLl2uu2wHUhYxt4+Y20fM7SPm9hFz+4i5fcTcPmJuXxcHY07PAQAAAAAAHMdqBQAAAAAAOI7kAAAAAAAAjiM5AAAAAACA40gOAAAAAADgOJIDAAAg2YoXLy5jx44N2+vdqhUrVpjZqU+cOBHqqgAAYBXJAQAAHPDAAw/Ifffdl+i5r776yjSIt2zZYr1e69evlyeeeMK/r/X4+OOPb/p6+/btM9e41jZ9+vQUqj0AAGlHulBXAAAA3H7du3eX2NhY+fnnn6Vw4cJB56ZNmya1atWSqlWrWq9X3rx5U/R6RYoUkUOHDvn3//Wvf8miRYvkiy++8B/Lnj17ir4mAABpAT0HAABwQJs2bUxDPP5d8zNnzsicOXNM8kCtWrVKGjZsKDExMaah/de//lXOnj2b5HX3798vDz74oGTJkkWyZcsmf/rTn+TIkSNBZebNmye1a9eW6OhoyZMnjzz00EOJDivQx0rP6x1+3deeAJGRkbJhw4aga+pzihUrJlevXg06HhUVJQUKFPBvWq906dL593PmzCnPPvus5MuXz9SnQYMGpvdCUv744w+5//775e677/YPNZgyZYpUqFDBPL98+fIyceLEBD0XPvroI2nSpIlkypRJqlWrJmvWrLnGTwcAgNAjOQAAgAO0gdylSxeTHPD5fP7jmhi4cuWKPPLII/Ljjz+aoQfaw0CHGMyePdskC/r27ZvoNbVhromB33//XVauXClLliyRn376STp06OAvs2DBAtPYb9WqlXz77beydOlSqVOnTqLX8xrp2pNB7/7rviYImjVrZo4F0v3HHnvMJA5uxKBBg+TDDz+UGTNmyKZNm6R06dLSsmVL8z3Ep8mA5s2bm+9Tv7ccOXLIu+++K3FxcfLKK6/Izp075R//+Ie88MIL5nqB/v73v8szzzwjmzdvlrJly5r4Xr58+YbqCgCAVT4AAOCEnTt3albAt3z5cv+xhg0b+v785z+bx927d/c98cQTQc/56quvfJGRkb5z586Z/WLFivnGjBljHn/++ee+qKgo3/79+/3lt2/fbl5j3bp1Zr9+/fq+Tp06JVmnwOspfe7cuXODysyePduXM2dO3/nz583+xo0bfREREb69e/de93seOnSor1q1aubxmTNnfOnTp/e9++67/vMXL170FSpUyDdy5Eizr7HROmisqlat6ouNjfVduHDBX75UqVK+WbNmBb3Gyy+/bL5PpXXS50+ZMiVBTPSaAACEK3oOAADgCO0Cf9ddd8nUqVPN/p49e8xkhN6Qgu+++870LNCu+N6md9X1zvnevXsTXE/vnOvQA908FStWNHfY9ZzSO+dNmza9pXq3bdvWDBeYO3eu2dc6apd9bxhCcmnPiEuXLpkhAp706dObngxefT3aY0B7FWjviQwZMphjOrxCr6HxCozR8OHDzfFAgfM3FCxY0Hw9evToTXz3AADYwYSEAAA4RBu2Tz31lEyYMMF0zS9VqpTcc889/vkHnnzySTPPQHxFixa9qdfTuQtulTbOdUiE1rddu3Yya9YsGTdunNxOrVu3NsMPduzYIVWqVPHHR7399ttSt27doPKavAikSQePzkGg4s+PAABAOKHnAAAADtEJA3WcvjawZ86cKY8//ri/8VqjRg3TGNY75vE37+55IJ2U78CBA2bz6PN1rL72IPDuoOs8A8mljWqdAyG+Hj16mBUHdPI/HbuvSYIbpYkQ/T6+/vpr/zHtSaBzG3j19bz66qvStWtX0+tBvyeVP39+KVSokJlXIX58SpQoccP1AQAgnNBzAAAAh2g3eJ0wcPDgwXLq1CkzqZ9HZ/GvV6+emYBQG+OZM2c2DWOdjG/8+PEJrqUTBepd9U6dOpnVA7TR/pe//MX0RNClEdXQoUNNA1sb5h07djRlFi5caF4rMTpUQJMJ2vU/Y8aMZnUBLxGhddPnaULjZnok6PfTu3dvGThwoOTKlcv0hhg5cqRZkcAbWhFIl0HURMW9994rK1asMMMyXnrpJdOzQpdD1MkbL1y4YFZSOH78uAwYMOCG6wQAQLig5wAAAI7RhrA2ZnU+Ab0T7tG7/LrqwPfff2+WM7zzzjvNzPyBZQJpj4NPPvnENOAbNWpkkgUlS5Y04/Q9jRs3NisifPrpp1K9enXT0F63bl2SdXvttddMMkLnMdDXj1/vixcvmuTAzdIeAboaQ+fOnU1PCZ13YfHixf4kRHxjxowxvS203hoXTZroUoY6xEETI5oI0TkQ6DkAAEjtInRWwlBXAgAA4Hpefvllk2jQZRYBAEDKoucAAAAIazoR4LZt28zQBp1MEQAApDySAwAAIKzpHAg1a9Y0QxRuZUgBAABIGsMKAAAAAABwHD0HAAAAAABwHMkBAAAAAAAcR3IAAAAAAADHkRwAAAAAAMBxJAcAAAAAAHAcyQEAAAAAABxHcgAAAAAAAMeRHAAAAAAAQNz2/wDOSLMRXZ/QJwAAAABJRU5ErkJggg==",
      "text/plain": [
       "<Figure size 1200x500 with 1 Axes>"
      ]
     },
     "metadata": {},
     "output_type": "display_data"
    }
   ],
   "source": [
    "# Extract all VELOCITY tokens\n",
    "velocity_tokens = [id_to_token[token] for token in all_tokens if \"NOTE_OFF\" in id_to_token[token]]\n",
    "\n",
    "# Count occurrences\n",
    "velocity_counts = Counter(velocity_tokens)\n",
    "sorted_velocities = sorted(velocity_counts.items(), key=lambda x: x[1], reverse=True)\n",
    "\n",
    "# Display top 10 velocities\n",
    "print(\"Top 10 Most Frequent VELOCITY Tokens:\")\n",
    "for vel, count in sorted_velocities[:10]:\n",
    "    print(f\"{vel}: {count}\")\n",
    "\n",
    "# Plot velocity distribution\n",
    "plt.figure(figsize=(12, 5))\n",
    "sns.barplot(x=[t[0] for t in sorted_velocities[:10]], y=[t[1] for t in sorted_velocities[:10]])\n",
    "plt.xticks(rotation=90)\n",
    "plt.xlabel(\"Velocity Token\")\n",
    "plt.ylabel(\"Count\")\n",
    "plt.title(\"Most Frequent VELOCITY Tokens\")\n",
    "plt.show()\n"
   ]
  },
  {
   "cell_type": "code",
   "execution_count": 14,
   "id": "b6050c4a-87ca-48a1-90d3-43414f257272",
   "metadata": {},
   "outputs": [
    {
     "name": "stdout",
     "output_type": "stream",
     "text": [
      "🔹 Average initial TIME_SHIFT tokens: 0.00\n",
      "🔹 Average ending TIME_SHIFT tokens: 0.00\n"
     ]
    },
    {
     "data": {
      "image/png": "iVBORw0KGgoAAAANSUhEUgAAA1sAAAHWCAYAAACBjZMqAAAAOnRFWHRTb2Z0d2FyZQBNYXRwbG90bGliIHZlcnNpb24zLjEwLjAsIGh0dHBzOi8vbWF0cGxvdGxpYi5vcmcvlHJYcgAAAAlwSFlzAAAPYQAAD2EBqD+naQAARWVJREFUeJzt3Qu8VPP+//HPrt1NdNeNUkgXIoqUu1IRR+QQSY6U4wiVWx1dyCVCJVJyKX5yPUehQ6SiUpKIpHKLIrUjtSu6z//x/v4fax4zs2fvPXs3332b1/PxmMfes2bNzJo131lrvdf3stJCoVDIAAAAAABJVSq5LwcAAAAAEMIWAAAAAHhA2AIAAAAADwhbAAAAAOABYQsAAAAAPCBsAQAAAIAHhC0AAAAA8ICwBQAAAAAeELYAAAAAwAPCFuDZXXfdZWlpaQXyXmeeeaa7BT744AP33v/5z38K5P2vvvpqa9CggRVl27Zts2uvvdZq167t1k2/fv0K/XufPHmym/fHH38skesc/gTl7LfffrPioCC3h8myP7/PYBusvwBSE2ELyMdON7iVL1/e6tatax07drSxY8fa1q1bk/I+69atcwclS5cutaKmKC9bIu6//373PV5//fX2f//3f9ajR49s51WIOf/885P63tOmTbPCLLPZ3YLAFu/gXYFO0ypVqmR//fVXlvf49ttvw6/z8MMPZznQzO728ssv5+mzzJ8/384991w75JBD3G+vfv36dsEFF9iLL74YNZ9eu2/fvjmuj08//TQ8LafPHO82Y8aMhNZpdgfZwfvldos8cYKstH4SWY9a36lq2bJldskll9hhhx3mfjP67Zxzzjn22GOPFfaiASkjvbAXACiOhg8fbg0bNrTdu3fb+vXr3QGVakhGjRplb775ph177LHheQcPHmwDBw7Mc6C5++673QFwixYtEn7ee++9Z77ltGxPPfWU7du3z4qy2bNn28knn2zDhg3z+j7xvneFLR34dOnSJWq6Al+3bt2sXLlySV+O008/3YXKSKrZO+mkk6xPnz7haQceeGCOr5Oenm5//vmnvfXWW3bppZdGPTZlyhR3ILdjx464z73pppvsxBNPzDK9TZs2CX+O1157zS677DJX5m6++WarWrWqrV692ubOnevK3RVXXGHJpu/j6aefzjL9uOOOy7JOn3/+eZs5c2aW6U2bNs3y/IsvvtiOPPLIqNpWhf+LLrrIPRaoVauWlTT52R5m584773RlObB48WJ30uvf//531HqP3B7nx/78PvX70wmKsmXLWkFbsGCBnXXWWe6kRO/evV1t/tq1a+3jjz+2Rx991G688cYCXyYgFRG2gHzQ2fVWrVqF7w8aNMgdxKsW5G9/+5utWLHCKlSoED5I1c0nHQQfcMABhbJDj1SmTBkr6jIyMqxZs2be3ycv33vp0qXdzYfDDz/c3SL985//dNOuvPLKhF9HB5qnnHKKvfTSS1nClmqWOnfubP/973/jPve0005zIXN/qHZC35sOFGPLub5TH/T9ZbeOYqdruRS2ElmnOviPDACqUVPY0rS8fCfFUTK3h6qhiaTAr7Cl6TnVCm7fvt0qVqyY8Pvsz++zVKlSbrkKw3333WeVK1d2IbRKlSoF8psBkBXNCIEkOfvss23IkCH2008/2QsvvJBjHwUdlJ166qluB6gahcaNG7uzsaJasqAW4B//+Ee4KYyaP4kOIo455hhbsmSJO2uqkBU8N7bPVmDv3r1uHp3Z1EGGAqHOcEZSTZWaTsWKfM3cli1e/yEd2Nxyyy1Wr149d8Cuz6qmZqFQKG7TLzWz0+fTvEcffbRrspUIHTz06tXL1Qbo4Ea1D88991yWJm2qDfnf//4XXva89MPQvEFTuYkTJ9oRRxzhllPrRAc0kWK/d/2vdaFlCt47WN/x+oS88cYbLsComareQ+91zz33uO+ysKj26J133rHNmzeHp+lzqxmhj5qlSN9//71bz/FOKNSsWdNKIp3AUVDVb1bbigsvvNCdyMmNtkGqOdPvaMOGDW6avjPVvge/Qz3+4IMPRtVE56V8q0Zf24BDDz3UzVOnTh23fLn9nuJtD/f3t5/I+3399deujKpGVNte+fLLL91vUCcetM3Q9vGaa66x33//Peo14v0+gybGatqqWmI9X6+jGs7c+mwF23Atk2qetA1X876RI0fG/S61vVYZUDnv37+/vfvuuwn1A9NvRusxNmhl95vRfqtly5buRGG1atVcbV7sfkKCsqH59NnnzZuXZd+TXT+37PqwLVq0yDp16uTCodbHGWecYR999FHc7/K7775z35s+l+ZXOdQJx3ifR8un19P3rv1lbOsPbc+C39hBBx3ktrnLly9PSlkHAtRsAUmk5iYKNdqgq9lGPNqQayets9hqjqiNt3YewY5FzV80fejQoa6Zl3YE0rZt2/Br6GBAtWvaGepMeG7NjXSGUzupO+64w4WSMWPGWPv27V2/q6AGLhGJLFskBSodKMyZM8cFITUB04HCbbfdZr/88ouNHj06an4duLz++uv2r3/9y+34dJa6a9eutmbNGqtevXq2y6VmOtrRaz3qoE1NPNXsTDtkHWSq2ZmWXU28dLCinaYCoBx88MGWV6rJUf+86667zq1XHSSp+dcPP/yQbe2e3ju2+Z4OWLKjgxUF8QEDBri/OvDWes/MzLSHHnrICoM+o2rF9B3poDRYF02aNLETTjgh2+dpXcUbwEHfaaKDJajPyaxZs+znn392319u1KQx3nuqyV5exL6Gvl8d4Pn2/vvvu9+4DuB1kKkyrn42ql387LPPsh0URQfYOvGjg2Wd1KlRo4Y7ENXBq35zKrNqVqYmZqqR//XXX932IK/lW79LbcvUFE3Lou2K3k+/1fwM2JLf336i/v73v1ujRo1cU97gRI+WV59JB9IKWvo8ChL6q5rK3MqmtjeqsdW2rWfPnvbss8+6bY4Ci0JOTv744w8XLrReVVOsQYy0fW7evLn73kUnZ/Rd6jvSNkzLqO9G29NEfzMLFy60r776yoW73PYROlmoZdF2auPGja68KaB8/vnn4cD2zDPPuHKhbb7Cu9aftvEqbwry+aFtmz6z1puad6s2cNKkSe6zK8hpmxlJy6ht/IgRI9xvQU19FR518iCgpu763Wg5tc/SSRoFOr1Xhw4dwttkfW/qc63n6ncyfvx4F8b1mYNynOyyjhQUApCwSZMmaS8dWrx4cbbzVK5cOXT88ceH7w8bNsw9JzB69Gh3f+PGjdm+hl5f8+j9Yp1xxhnusQkTJsR9TLfAnDlz3LyHHHJIKDMzMzz91VdfddMfffTR8LTDDjss1LNnz1xfM6dl0/P1OoFp06a5ee+9996o+S655JJQWlpa6LvvvgtP03xly5aNmvbFF1+46Y899lgoJ2PGjHHzvfDCC+Fpu3btCrVp0yZ04IEHRn12LV/nzp1zfL3s5l29erV7n+rVq4c2bdoUnv7GG2+46W+99Va237tUrFgx7joOypVeP/Dnn39mme+6664LHXDAAaEdO3Zku84Tkd1yRC53ZPnUvHpO8N21a9fO/b93795Q7dq1Q3fffXd43Tz00ENZyl92t19//TXhZX7mmWfCZeSss84KDRkyJDRv3jy3DLFyes/gFvkbzu4zx3te5G8h0g033JDl+06U3lfP1XIEWrRoEapZs2bo999/j/o9lCpVKnTVVVfFXfYVK1aE6tatGzrxxBOjyuc999zjvr9vvvkm6n0HDhwYKl26dGjNmjV5Kt9//PFHlu86UfF+F/vz24/02muvueeo3MW+3+WXX55l/ni/sZdeesnNP3fu3Bx/n/rNxc6XkZERKleuXOiWW27J8huIXKZgG/7888+Hp+3cudP9lrp27Rqe9sgjj7j5tB0N/PXXX6EmTZpkec143nvvPff96qZt4e233x5699133bYx0o8//ujmue+++6KmL1u2LJSenh6eruepTKpsankDEydOzPLbiLfO4q2Pffv2hRo1ahTq2LGj+z/yu2nYsGHonHPOyfJdXnPNNVGvedFFF7kyG/j222/d70TTY7cPwXts3bo1VKVKlVDv3r2jHl+/fr3bhwfT96esAwGaEQJJplqInEYlDM4QqplYfgeTUG2YzsYm6qqrrnJniwM6G6umEG+//bb5pNdXXwcNkBBJtUo6xlITjkiqbYus7VHtn0bA09nT3N5HZ30vv/zy8DSdgdf7qibjww8/tGTSQA1qlhIIavhyW868iKxxDGqG9D46+7py5UorLGqKpSZAalqjs8T6m1sTQtXI6Uxw7E1nwxOlmjQ1K1MNpmpB1KRS60O1FaqliaVmPvHeU7WqiVLTsNjnP/LII+abajJU66xaksh1pN+D+iPF+92q9kK1VzrTrlqxyPKpWl6tK01TOQpu+r2pWaoGGclL+VbZVE2ByoFqaJIhv7/9RKlGNqffWFATqsFzRDUmuVEfwmDdBLXkaiadyDJrPxHZP0/rUzU4kc9VeVfzQtUcRZbJ7FpNxFJZUc2Wnv/FF1+4GkrV4ug1NZBTQDWK2hepxiiyfGibqt9XUJOmETxVq6N1GdmcV+U0v7W9KudBM2S12AjeW7V67dq1c2Uzdj8Z+13qO9BzVesvao6q52i7o1qySEFtpX7LavWgfUbkZ9b+qnXr1uHP7KOsI/XQjBBIMh3c59SHRAcyavagphoalUs7FDUlUQCK3TFkRzvLvAyGoR1m7A5HfTZ8tzlXfwP1OYoMehKMFKbHI6l5Uywd9OW2k9Pr6DPGrr/s3md/xS5ncGCazJ2xmq1o5DYFmuAgIrBlyxYrLOedd577Pl955RV3oKT+PLmVJTWN0sH0/tKBom4KnOqzqGWYMGGCa5arABr5u1NTw3jvqWaIidKBVzKWO6+C8qoD91gq02qKGzvIg4bAV3NiPRY7sqQOZtU/Kbsms7GDJeRWvnWyR82udNJE76mAou9AJ3V0gJ4f+f3tJ0rNzmJt2rTJNTfTJQhi10Eiv7H9WWaVz9hminquvqfIcqAAGjtf5EiWudHvU2Fq165dLnBNnTrVNd/W/ka/XwVGlQ+d/IrdTwSCpqNBuYydT4/HDsKTKL23qDlfdvRdRIb/nMqnArqa0mpfkNNASMH7qqliPHodX2UdqYewBSSRDuS0Y8hpZ6gzZTpbpzNnGqhBZy910KiNvvp6JTLqVV76WSUqu/4JOvPta6S8WNm9T+xgGoXN93LqjKtqKbTDV38DHXDpjLbOtqtfR2EOr6+DD50c0EAfOgtfGNcwUod3nc3WTX2SdMCsWtKcDthKOvUr0XeiYfjVpyaSyotqOW6//fa4zz3qqKPyXL7VX0cBT7UICnjq76M+NDo5cPzxxxe531S8baZqclQrqtpO9SdVSNW6Ul+qRH5j+7PMBb2t08k5BS/d9H2rZYRqPNVHSp9V23/9huItV26Xhcjr/iRSsJ7VDzW7y5zEvn8y1l3wvuq3FS80RY6YmeyyjtRD2AKSKLjGjs6+50Rn3VSjpZuuzaVO27pmjAKYzqQnOmhAooKzeJE7JXXujhx+WmcHI0eZC+hsZuRZy7wsmzpoq0mTmsFF1m4FzeD0eDLodXRGWDvQyNqtZL/P/kp03anJiprF6Iy0OqgHNJJiUaAmPxoMQOtag7QUpuASDGp6V1IE5XXVqlVZHlOZVsCMHbpcB6s6QAwGmIhs2qmwrhr3ZNfS6XV1xl83bWN0sKxmlpGjsRZVqgXRgCsK6mpult22srDLgUYs1PY6ctuhbXcyfzP6HvUeqv2LDd6xyxOso8gaIV1vUtsmjQAbW9sUu0+JbWUQNB3ViaVklU+9pvYFWnfZBbjgfVUbnsj7FueyjsJHny0gSXSWS/1ItMPq3r17tvOp6UqsYIewc+dO9zc4kIoXfvJDwxFH9iPTyFfa0QajXgU7E43ApeYmgenTp2cZ+jcvy6YmZzqT+fjjj0dNVzMWHTxEvv/+0Puo75BqCAN79uxxo2nprKhqiYoCrbtE1ltw5jbyTK2+lyeeeMKKAg1XrbKu77WgmtLowDieoP9SvCZ3xZX6U2qboJqqyPKiflmq/VZ5j6Xfk0bSU/Mw1fBF9slRDY767uisfCy9vn4reaFmnLEXsNb2QyEv2IYVdfF+YxI7MmNh0kk7jSAZ+V1qvesi3onQybt4tT2xvxnVVGt9KHjGzq/7wVD4Cmlqiqqmu5H7CY2cGrtdC8JMZH9A7QtURiNpBELNq8sNxBspVKMi5pUuGq8TQWoVEFtDGXw+rVsFPJ3oVFjM7n1LQllH4aNmC8gHNbfQGWYdpOg6Ngpa6nCrM3/aMeZ0EUvtALQD0vU8NL/6CuggWm34g+u/aGOugTS0U9NGXQfp6rQbr99BItTJXq+tpiNaXh1QqKljZEdr9SFTCFMTGh2cqd27ztrFDk+el2VT0wsdmKvWTn16dOZTB4saHERNM3Ia+jwvNJT6k08+6Tpqqy+PBgnQZ9Fw+vqssX3GCosOLFTTp9pM9WXTOtO6i6XhinVmWAfNGuRDB9KqNS0qzSl1IKP+ZInS8M2xByzxLu6bEw14ofWlMqVyoz5LWpdvvfWWaxql6SWJaqp0MqJNmzZuaPFg6HcNRJBd0019L/rN6mBTv2EdVKsGQs3ktF1SX5NgaHKtv2XLlrnfiX6bqi1L1DfffONq5fUe6hejGjX1BdK2pbBrOhOlA23VGmvQCB1sqx+stk1FpfZY1BxUJzQ0iIOGflcIVzPRYP+SW025hipXWLjooovc5RkUkNRsUieltI0MBlnS7+nee+91lwJQWVD50TZT60Lfq7avt956q+ubpfm0XCpX6n+seTRMe2yfLQ19r/5Nek2dYNQ+SH3jYoO9yqz6MKus6zlaJn0XCpkKi/qe9BvPC+3btM8JBtFRmFTzZ10rTttdNQHU62qYd12uRZetULlVkNRw7mrer0ssaN2XhLKOwkfYAvIhaHaidvDaiWgAAB3Ua0eR24G9RobSDk3NsDT6kQ5yVPOis4rBiE7aqemstnZUGnlJOyjt0PIbtnTtLzWz005GNVzaeSjgqe9LQGf61CxCQUBBSGcxVbMVXI8qkJdl045UB3laX9rBaz7t5HUgGfu6+9sfQ03vNOCIlk0DSuisrd4v3oWaC4vWrQ5cFFR08KwwFS9s6bpCwbrXvApeGrlM31tuTVSLIl0zKR71F0k0bOmATCH91VdftXXr1rngqQM8HVSpH1tkH4uSQE2b1J9T60i/H/3utJ1QZ/2ctgOaTwFKB68KqAqkKmMakVNn8dVPRzXdOthUk7HI7U6idD0lBQDVNuokgNa9Dub13ajvWHGha1YpkIwbN86VJ11/SSfSdEBeFATX19MyPvroo+6+BmbQyRit55xO6olqi/R9K3SrRklhS4NLqKmptiuRFzvWtlPlQa0OVCaC71nrJHI0RG2/VEOlbbhCvPZ92sarH1OsoP/gAw884N5LJw108k39ByNphFHVvAa15arhUo25ym1s/8NE6aSmfic6QaFthPZ12tYoXAXU1FbftZZPn0c1VQp6CmhBEC0pZR2FK03jvxfyMgAAACABOrGni7NrQCaFg6JAgUl00gtANPpsAQAAFEGqAY+k5rhqMq3h14tK0AKQs5LV7gIAUKzoUgmxB5SxuJ4NUpX6G6npnwZM0W9FffLUX1hN9AAUD4QtAEChUcd/9bPLCa3dkarUR1P9FRWu1FdKgzRooAkNTgGgeKDPFgCg0OhaOBrwIifJvj4UAAAFhbAFAAAAAB4wQAYAAAAAeECfrQToCuRq5qLrJ+V2EUEAAAAAJZcaBuq6pbpWm64pmhPCVgIUtHRhOwAAAACQtWvX2qGHHmo5IWwlQDVawQqtVKlSYS8OAAAAgEKSmZnpKmKCjJATwlYCgqaDClqELQAAAABpCXQvYoAMAAAAAPCAsAUAAAAAHhC2AAAAAMADwhYAAAAAeEDYAgAAAAAPCFsAAAAA4AFhCwAAAAA8IGwBAAAAgAeELQAAAADwgLAFAAAAAB4QtgAAAACgpIWtuXPn2gUXXGB169a1tLQ0mzZtWtTjoVDIhg4danXq1LEKFSpY+/bt7dtvv42aZ9OmTda9e3erVKmSValSxXr16mXbtm2LmufLL7+00047zcqXL2/16tWzkSNHFsjnAwAAAJC6CjVsbd++3Y477jgbN25c3McVisaOHWsTJkywRYsWWcWKFa1jx462Y8eO8DwKWsuXL7eZM2fa9OnTXYDr06dP+PHMzEzr0KGDHXbYYbZkyRJ76KGH7K677rKJEycWyGcEAAAAkJrSQqo+KgJUszV16lTr0qWLu6/FUo3XLbfcYrfeequbtmXLFqtVq5ZNnjzZunXrZitWrLBmzZrZ4sWLrVWrVm6eGTNm2HnnnWc///yze/748ePtzjvvtPXr11vZsmXdPAMHDnS1aCtXrkxo2RTYKleu7N5fNWgAAAAAUlNmHrJBke2ztXr1aheQ1HQwoA/VunVrW7hwobuvv2o6GAQt0fylSpVyNWHBPKeffno4aIlqx1atWmV//PFH3PfeuXOnW4mRNwAA9u3bZ2vWrHE3/Q8AQLEMWwpaopqsSLofPKa/NWvWjHo8PT3dqlWrFjVPvNeIfI9YI0aMcMEuuKmfFwAAajXxyNSF7qb/AQAolmGrMA0aNMhVCwa3tWvXFvYiAQCKiMo1arkbAADFNmzVrl3b/d2wYUPUdN0PHtPfjIyMqMf37NnjRiiMnCfea0S+R6xy5cq59peRNwAAAAAoEWGrYcOGLgzNmjUrPE19p9QXq02bNu6+/m7evNmNMhiYPXu2a0evvl3BPBqhcPfu3eF5NHJh48aNrWrVqgX6mQAAAACkjkINW7oe1tKlS90tGBRD/6vjsUYn7Nevn91777325ptv2rJly+yqq65yIwwGIxY2bdrUOnXqZL1797ZPPvnEPvroI+vbt68bqVDzyRVXXOEGx9D1tzRE/CuvvGKPPvqoDRgwoDA/OgAAAIASLr0w3/zTTz+1s846K3w/CEA9e/Z0w7vffvvt7lpcum6WarBOPfVUN7S7Lk4cmDJligtY7dq1c6MQdu3a1V2bK6ABLt577z274YYbrGXLllajRg13oeTIa3EBAAAAQIm9zlZRxnW2AACilhdPz/vB/X/taYdb/fr1C3uRAAAFrERcZwsAAAAAijPCFgAAAAB4QNgCAAAAAA8IWwAAAADgAWELAAAAADwgbAEAAACAB4QtAAAAAPCAsAUAAAAAHhC2AAAAAMADwhYAAAAAeEDYAgAAAAAPCFsAAAAA4AFhCwAAAAA8IGwBAAAAgAeELQAAAADwgLAFAAAAAB4QtgAAAADAA8IWAAAAAHhA2AIAAAAADwhbAAAAAOABYQsAAAAAPCBsAQAAAIAHhC0AAAAA8ICwBQAAAAAeELYAAAAAwAPCFgAAAAB4QNgCAAAAAA8IWwAAAADgAWELAAAAADwgbAEAAACAB4QtAAAAAPCAsAUAAAAAHhC2AAAAAMADwhYAAAAAeEDYAgAAAAAPCFsAAAAA4AFhCwAAAAA8IGwBAAAAgAeELQAAAADwgLAFAAAAAB4QtgAAAADAA8IWAAAAAHhA2AIAAAAADwhbAAAAAOABYQsAAAAAPCBsAQAAAIAHhC0AAAAA8ICwBQAAAAAeELYAAAAAwAPCFgAAAAB4QNgCAAAAAA8IWwAAAADgAWELAAAAADwgbAEAAACAB4QtAAAAAPCAsAUAAAAAHhC2AAAAAMADwhYAAAAAeEDYAgAAAAAPCFsAAAAA4AFhCwAAAAA8IGwBAAAAgAeELQAAAABItbC1d+9eGzJkiDVs2NAqVKhgRxxxhN1zzz0WCoXC8+j/oUOHWp06ddw87du3t2+//TbqdTZt2mTdu3e3SpUqWZUqVaxXr162bdu2QvhEAAAAAFJFkQ5bDz74oI0fP94ef/xxW7Fihbs/cuRIe+yxx8Lz6P7YsWNtwoQJtmjRIqtYsaJ17NjRduzYEZ5HQWv58uU2c+ZMmz59us2dO9f69OlTSJ8KAAAAQCpItyJswYIFduGFF1rnzp3d/QYNGthLL71kn3zySbhWa8yYMTZ48GA3nzz//PNWq1YtmzZtmnXr1s2FtBkzZtjixYutVatWbh6FtfPOO88efvhhq1u3bpb33blzp7sFMjMzC+gTAwAAACgpinTNVtu2bW3WrFn2zTffuPtffPGFzZ8/384991x3f/Xq1bZ+/XrXdDBQuXJla926tS1cuNDd1181HQyClmj+UqVKuZqweEaMGOFeJ7jVq1fP8ycFAAAAUNIU6ZqtgQMHulqlJk2aWOnSpV0frvvuu881CxQFLVFNViTdDx7T35o1a0Y9np6ebtWqVQvPE2vQoEE2YMCA8H0tA4ELAAAAQIkJW6+++qpNmTLFXnzxRTv66KNt6dKl1q9fP9f0r2fPnt7et1y5cu4GAAAAACUybN12222udkt9r6R58+b2008/uWZ+Clu1a9d20zds2OBGIwzofosWLdz/micjIyPqdffs2eNGKAyeDwAAAAAp1Wfrzz//dH2rIqk54b59+9z/GhJegUn9uiKb/KkvVps2bdx9/d28ebMtWbIkPM/s2bPda6hvFwAAAACkXM3WBRdc4Ppo1a9f3zUj/Pzzz23UqFF2zTXXuMfT0tJcs8J7773XGjVq5MKXrsulZoZdunRx8zRt2tQ6depkvXv3dsPD79692/r27etqy+KNRAgAAAAAJT5saYh2had//etfrimgwtF1113nLmIcuP3222379u3uulmqwTr11FPdUO/ly5cPz6N+XwpY7dq1czVlXbt2ddfmAgAAAABf0kK6WBVypKaJGgJ+y5YtVqlSpcJeHABAIVmzZo09Pe8H9/+1px3uWl4AAFJLZh6yQZHuswUAAAAAxRVhCwAAAAA8IGwBAAAAgAeELQAAAADwgLAFAAAAAB4QtgAAAADAA8IWAAAAAHhA2AIAAAAADwhbAAAAAOABYQsAAAAAPCBsAQAAAIAHhC0AAAAA8ICwBQAAAAAeELYAAAAAwAPCFgAAAAB4QNgCAAAAAA8IWwAAAADgAWELAAAAADwgbAEAAACAB4QtAAAAAPCAsAUAAAAAHhC2AAAAAMADwhYAAAAAeEDYAgAAAAAPCFsAAAAA4AFhCwAAAAA8IGwBAAAAgAeELQAAAADwgLAFAAAAAB4QtgAAAADAA8IWAAAAAHhA2AIAAAAADwhbAAAAAOABYQsAAAAAPCBsAQAAAIAHhC0AAAAA8ICwBQAAAAAeELYAAAAAwAPCFgAAAAB4QNgCAAAAAA8IWwAAAADgAWELAAAAADwgbAEAAACAB4QtAAAAAPCAsAUAAAAAHhC2AAAAAMADwhYAAAAAeEDYAgAAAAAPCFsAAAAA4AFhCwAAAAA8IGwBAAAAgAeELQAAAADwgLAFAAAAAB4QtgAAAADAA8IWAAAAAHhA2AIAAAAADwhbAAAAAOABYQsAAAAAPCBsAQAAAIAHhC0AAAAA8ICwBQAAAAAeELYAAAAAIBXD1i+//GJXXnmlVa9e3SpUqGDNmze3Tz/9NPx4KBSyoUOHWp06ddzj7du3t2+//TbqNTZt2mTdu3e3SpUqWZUqVaxXr162bdu2Qvg0AAAAAFJFkQ5bf/zxh51yyilWpkwZe+edd+zrr7+2Rx55xKpWrRqeZ+TIkTZ27FibMGGCLVq0yCpWrGgdO3a0HTt2hOdR0Fq+fLnNnDnTpk+fbnPnzrU+ffoU0qcCAAAAkArSQqoaKqIGDhxoH330kc2bNy/u41r0unXr2i233GK33nqrm7ZlyxarVauWTZ482bp162YrVqywZs2a2eLFi61Vq1ZunhkzZth5551nP//8s3t+bjIzM61y5crutVU7BgBITWvWrLGn5/3g/r/2tMOtfv36hb1IAIAClpdsUKRrtt58800XkP7+979bzZo17fjjj7ennnoq/Pjq1att/fr1rulgQB+8devWtnDhQndff9V0MAhaovlLlSrlasLi2blzp1uJkTcAAAAAyIsiHbZ++OEHGz9+vDVq1Mjeffddu/766+2mm26y5557zj2uoCWqyYqk+8Fj+qugFik9Pd2qVasWnifWiBEjXGgLbvXq1fP0CQEAAACUVEU6bO3bt89OOOEEu//++12tlvpZ9e7d2/XP8mnQoEGuWjC4rV271uv7AQAAACh5inTY0giD6m8VqWnTpq7NvNSuXdv93bBhQ9Q8uh88pr8ZGRlRj+/Zs8eNUBjME6tcuXKu/WXkDQAAAABKTNjSSISrVq2KmvbNN9/YYYcd5v5v2LChC0yzZs0KP67+VeqL1aZNG3dffzdv3mxLliwJzzN79mxXa6a+XQAAAADgQ7oVYf3797e2bdu6ZoSXXnqpffLJJzZx4kR3k7S0NOvXr5/de++9rl+XwteQIUPcCINdunQJ14R16tQp3Pxw9+7d1rdvXzdSYSIjEQIAAABAiQtbJ554ok2dOtX1oRo+fLgLU2PGjHHXzQrcfvvttn37dtefSzVYp556qhvavXz58uF5pkyZ4gJWu3bt3CiEXbt2ddfmAgAAAICUvM5WUcF1tgAAwnW2AACZJeU6WwAAAABQXBG2AAAAAKCohK3DDz/cfv/99yzT1WdKjwEAAABAqstX2Prxxx9t7969Wabv3LnTfvnll2QsFwAAAACkzmiEb775Zvj/d99913UMCyh86XpXDRo0SO4SAgAAAEBJD1vBtat0fauePXtGPVamTBkXtB555JHkLiEAAAAAlPSwtW/fPvdX17tavHix1ahRw9dyAQAAAEDqXdR49erVyV8SAAAAAEj1sCXqn6VbRkZGuMYr8OyzzyZj2QAAAAAgtcLW3XffbcOHD7dWrVpZnTp1XB8uAAAAAMB+hq0JEybY5MmTrUePHvl5OgAAAACUePm6ztauXbusbdu2yV8aAAAAAEjlsHXttdfaiy++mPylAQAAAIBUbka4Y8cOmzhxor3//vt27LHHumtsRRo1alSylg8AAAAAUidsffnll9aiRQv3/1dffRX1GINlAAAAAEA+w9acOXOSvyQAAAAAkOp9tgAAAAAAHmq2zjrrrBybC86ePTs/LwsAAAAAqR22gv5agd27d9vSpUtd/62ePXsma9kAAAAAILXC1ujRo+NOv+uuu2zbtm37u0wAAAAAUOwltc/WlVdeac8++2wyXxIAAAAAiqWkhq2FCxda+fLlk/mSAAAAAJA6zQgvvvjiqPuhUMh+/fVX+/TTT23IkCHJWjYAAAAASK2wVbly5aj7pUqVssaNG9vw4cOtQ4cOyVo2AAAAAEitsDVp0qTkLwkAAAAApHrYCixZssRWrFjh/j/66KPt+OOPT9ZyAQAAAEDqha2MjAzr1q2bffDBB1alShU3bfPmze5ixy+//LIdfPDByV5OAAAAACj5oxHeeOONtnXrVlu+fLlt2rTJ3XRB48zMTLvpppuSv5QAAAAAkAo1WzNmzLD333/fmjZtGp7WrFkzGzduHANkAAAAAEB+a7b27dtnZcqUyTJd0/QYAAAAAKS6fIWts88+226++WZbt25deNovv/xi/fv3t3bt2iVz+QAAAAAgdcLW448/7vpnNWjQwI444gh3a9iwoZv22GOPJX8pAQAAACAV+mzVq1fPPvvsM9dva+XKlW6a+m+1b98+2csHAAAAACW/Zmv27NluIAzVYKWlpdk555zjRibU7cQTT3TX2po3b56/pQUAAACAkhi2xowZY71797ZKlSpleaxy5cp23XXX2ahRo5K5fAAAAABQ8sPWF198YZ06dcr2cQ37vmTJkmQsFwAAAACkTtjasGFD3CHfA+np6bZx48ZkLBcAAAAApE7YOuSQQ+yrr77K9vEvv/zS6tSpk4zlAgAAAIDUCVvnnXeeDRkyxHbs2JHlsb/++suGDRtm559/fjKXDwAAAABK/tDvgwcPttdff92OOuoo69u3rzVu3NhN1/Dv48aNs71799qdd97pa1kBAAAAoGSGrVq1atmCBQvs+uuvt0GDBlkoFHLTNQx8x44dXeDSPAAAAACQ6vJ8UePDDjvM3n77bfvjjz/su+++c4GrUaNGVrVqVT9LCAAAAACpELYCCle6kDEAAAAAYD8HyAAAAAAAJIawBQAAAAAeELYAAAAAwAPCFgAAAAB4QNgCAAAAAA8IWwAAAADgAWELAAAAADwgbAEAAACAB4QtAAAAAPCAsAUAAAAAHhC2AAAAAMADwhYAAAAAeEDYAgAAAAAPCFsAAAAA4AFhCwAAAAA8IGwBAAAAgAeELQAAAADwgLAFAAAAAB4QtgAAAAAg1cPWAw88YGlpadavX7/wtB07dtgNN9xg1atXtwMPPNC6du1qGzZsiHremjVrrHPnznbAAQdYzZo17bbbbrM9e/YUwicAAAAAkCqKTdhavHixPfnkk3bsscdGTe/fv7+99dZb9tprr9mHH35o69ats4svvjj8+N69e13Q2rVrly1YsMCee+45mzx5sg0dOrQQPgUAAACAVFEswta2bduse/fu9tRTT1nVqlXD07ds2WLPPPOMjRo1ys4++2xr2bKlTZo0yYWqjz/+2M3z3nvv2ddff20vvPCCtWjRws4991y75557bNy4cS6AAQAAAEDKhi01E1TtVPv27aOmL1myxHbv3h01vUmTJla/fn1buHChu6+/zZs3t1q1aoXn6dixo2VmZtry5cvjvt/OnTvd45E3AAAAAMiLdCviXn75Zfvss89cM8JY69evt7Jly1qVKlWipitY6bFgnsigFTwePBbPiBEj7O67707ipwAAAACQaop0zdbatWvt5ptvtilTplj58uUL7H0HDRrkmigGNy0HAAAAAJSYsKVmghkZGXbCCSdYenq6u2kQjLFjx7r/VUOlflebN2+Oep5GI6xdu7b7X39jRycM7gfzxCpXrpxVqlQp6gYAAAAAJSZstWvXzpYtW2ZLly4N31q1auUGywj+L1OmjM2aNSv8nFWrVrmh3tu0aePu669eQ6EtMHPmTBegmjVrViifCwAAAEDJV6T7bB100EF2zDHHRE2rWLGiu6ZWML1Xr142YMAAq1atmgtQN954owtYJ598snu8Q4cOLlT16NHDRo4c6fppDR482A26oRosAAAAAEi5sJWI0aNHW6lSpdzFjDWKoEYafOKJJ8KPly5d2qZPn27XX3+9C2EKaz179rThw4cX6nIDAAAAKNnSQqFQqLAXoqjT0O+VK1d2g2XQfwsAUpeaqT897wf3/7WnHe4uNQIASC2ZecgGRbrPFgAAAAAUV4QtAAAAAPCAsAUAAAAAHhC2AAAAAMADwhYAAAAAeEDYAgAAAAAPCFsAAAAA4AFhCwAAAAA8IGwBAAAAgAeELQAAAADwgLAFAAAAAB4QtgAAAADAA8IWAAAAAHhA2AIAAAAADwhbAAAAAOABYQsAAAAAPCBsAQAAAIAHhC0AAAAA8ICwBQAAAAAeELYAAAAAwAPCFgAAAAB4QNgCAAAAAA8IWwAAAADgAWELAAAAADwgbAEAAACAB4QtAAAAAPCAsAUAAAAAHhC2AAAAAMADwhYAAAAAeEDYAgAAAAAPCFsAAAAA4AFhCwAAAAA8IGwBAAAAgAeELQAAAADwgLAFAAAAAB4QtgAAAADAA8IWAAAAAHhA2AIAAAAADwhbAAAAAOABYQsAAAAAPCBsAQAAAIAHhC0AAAAA8ICwBQAAAAAeELYAAAAAwAPCFgAAAAB4QNgCAAAAAA8IWwAAAADgAWELAAAAADwgbAEAAACAB4QtAAAAAPCAsAUAAAAAHhC2AAAAAMADwhYAAAAAeEDYAgAAAAAPCFsAAAAA4AFhCwAAAAA8IGwBAAAAgAeELQAAAADwgLAFAAAAAB4QtgAAAADAA8IWAAAAAHhA2AIAAAAADwhbAAAAAJBqYWvEiBF24okn2kEHHWQ1a9a0Ll262KpVq6Lm2bFjh91www1WvXp1O/DAA61r1662YcOGqHnWrFljnTt3tgMOOMC9zm233WZ79uwp4E8DAAAAIJUU6bD14YcfuiD18ccf28yZM2337t3WoUMH2759e3ie/v3721tvvWWvvfaam3/dunV28cUXhx/fu3evC1q7du2yBQsW2HPPPWeTJ0+2oUOHFtKnAgAAAJAK0kKhUMiKiY0bN7qaKYWq008/3bZs2WIHH3ywvfjii3bJJZe4eVauXGlNmza1hQsX2sknn2zvvPOOnX/++S6E1apVy80zYcIEu+OOO9zrlS1bNsv77Ny5090CmZmZVq9ePfd+lSpVKsBPDAAoStRS4ul5P7j/rz3tcKtfv35hLxIAoIApG1SuXDmhbFCka7Zi6QNJtWrV3N8lS5a42q727duH52nSpInb+Slsif42b948HLSkY8eObiUtX7482+aLWoHBTUELAAAAAPKi2IStffv2Wb9+/eyUU06xY445xk1bv369q5mqUqVK1LwKVnosmCcyaAWPB4/FM2jQIBfsgtvatWs9fSoAAAAAJVW6FRPqu/XVV1/Z/Pnzvb9XuXLl3A0AAAAASnTNVt++fW369Ok2Z84cO/TQQ8PTa9eu7Qa+2Lx5c9T8Go1QjwXzxI5OGNwP5gEAAACAlApbGrtDQWvq1Kk2e/Zsa9iwYdTjLVu2tDJlytisWbPC0zQ0vDowt2nTxt3X32XLlllGRkZ4Ho1sqM5szZo1K8BPAwAAACCVpBf1poMaafCNN95w19oK+lhp0IoKFSq4v7169bIBAwa4QTMUoG688UYXsDQSoWioeIWqHj162MiRI91rDB482L02TQUBAAAApGTYGj9+vPt75plnRk2fNGmSXX311e7/0aNHW6lSpdzFjDVcu0YafOKJJ8Lzli5d2jVBvP76610Iq1ixovXs2dOGDx9ewJ8GAAAAQCopVtfZKg5j6QMASi6uswUAyCyp19kCAAAAgOKCsAUAAAAAHhC2AAAAAMADwhYAAAAAeEDYAgAAAAAPCFsAAAAA4AFhCwAAAAA8IGwBAAAAgAeELQAAAADwgLAFAAAAAB4QtgAAAADAA8IWAAAAAHhA2AIAAAAADwhbAAAAAOABYQsAAAAAPCBsAQAAAIAHhC0AAAAA8ICwBQAAAAAeELYAAAAAwAPCFgAAAAB4QNgCAAAAAA8IWwAAAADgAWELAAAAADwgbAEAAACAB4QtAAAAAPCAsAUAAAAAHhC2AAAAAMADwhYAAAAAeEDYAgAAAAAPCFsAAAAA4AFhCwAAAAA8IGwBAAAAgAeELQAAAADwgLAFAAAAAB4QtgAAAADAA8IWAAAAAHhA2AIAAAAADwhbAAAAAOABYQsAAAAAPCBsAQAAAIAHhC0AAAAA8ICwBQAAAAAeELYAAAAAwAPCFgAAAAB4QNgCAAAAAA8IWwAAAADgAWELAAAAADwgbAEAAACAB4QtAAAAAPCAsAUAAAAAHhC2AAAAAMADwhYAAAAAeEDYAgAAAAAPCFsAAAAA4AFhCwAAAAA8IGwBAAAAgAeELQAAAADwgLAFAAAAAB4QtgAAAADAA8IWAAAAAHhA2AIAAAAADwhbAAAAAOBBSoWtcePGWYMGDax8+fLWunVr++STTwp7kQAAAACUUCkTtl555RUbMGCADRs2zD777DM77rjjrGPHjpaRkVHYiwYAAACgBEqZsDVq1Cjr3bu3/eMf/7BmzZrZhAkT7IADDrBnn322sBcNAAAAQAmUbilg165dtmTJEhs0aFB4WqlSpax9+/a2cOHCLPPv3LnT3QJbtmxxfzMzM62oWLt2bWEvAgCknF9//dUyfv7/299vvtljW7duLexFAoCUUa9ePSsKgkwQCoVynTclwtZvv/1me/futVq1akVN1/2VK1dmmX/EiBF29913F9kvGABQ+J4s7AUAABQqnXCrXLlyjvOkRNjKK9WAqX9XYN++fbZp0yarXr26paWlFeqyIeezDArEqvWrVKlSYS8OigHKDPKKMoO8oswgrygzRZ9qtBS06tatm+u8KRG2atSoYaVLl7YNGzZETdf92rVrZ5m/XLly7hapSpUq3pcTyaENExsn5AVlBnlFmUFeUWaQV5SZoi23Gq2UGiCjbNmy1rJlS5s1a1ZUbZXut2nTplCXDQAAAEDJlBI1W6JmgT179rRWrVrZSSedZGPGjLHt27e70QkBAAAAINlSJmxddtlltnHjRhs6dKitX7/eWrRoYTNmzMgyaAaKLzX91HXUYpuAAtmhzCCvKDPIK8oM8ooyU7KkhRIZsxAAAAAAkCcp0WcLAAAAAAoaYQsAAAAAPCBsAQAAAIAHhC0AAAAA8ICwhWJt06ZN1r17d3fRP114ulevXrZt27aEnquxYc4991xLS0uzadOmeV9WFM8yo/lvvPFGa9y4sVWoUMHq169vN910k23ZsqVAlxsFZ9y4cdagQQMrX768tW7d2j755JMc53/ttdesSZMmbv7mzZvb22+/XWDLiuJXZp566ik77bTTrGrVqu7Wvn37XMsYSp68bmcCL7/8sjtu6dKli/dlRHIQtlCs6aB5+fLlNnPmTJs+fbrNnTvX+vTpk9Bzda01bbCQWvJaZtatW+duDz/8sH311Vc2efJkd9kIhTSUPK+88oq7LqOGXf7ss8/suOOOs44dO1pGRkbc+RcsWGCXX365Kw+ff/65OwDSTWUFqSGvZeaDDz5wZWbOnDm2cOFCq1evnnXo0MF++eWXAl92FI8yE/jxxx/t1ltvdWEdxYiGfgeKo6+//lqXLQgtXrw4PO2dd94JpaWlhX755Zccn/v555+HDjnkkNCvv/7qXmPq1KkFsMQozmUm0quvvhoqW7ZsaPfu3Z6WFIXlpJNOCt1www3h+3v37g3VrVs3NGLEiLjzX3rppaHOnTtHTWvdunXouuuu876sKJ5lJtaePXtCBx10UOi5557zuJQo7mVG5aRt27ahp59+OtSzZ8/QhRdeWEBLi/1FzRaKLZ0RVDOwVq1ahaepOUapUqVs0aJF2T7vzz//tCuuuMJV4deuXbuAlhbFuczEUhNCNUNMT0+Z68KnhF27dtmSJUtcmQiobOi+yk48mh45v+gMdXbzo2TJT5mJt0/avXu3VatWzeOSoriXmeHDh1vNmjVpVVEMcaSAYmv9+vVuwxNJB7/aYemx7PTv39/atm1rF154YQEsJUpCmYn022+/2T333JNwc1UUH/pu9+7da7Vq1YqarvsrV66M+xyVm3jzJ1qekHplJtYdd9xhdevWzRLaUTLlp8zMnz/fnnnmGVu6dGkBLSWSiZotFDkDBw50falyuiW6E4v15ptv2uzZs11/LZQcPstMpMzMTOvcubM1a9bM7rrrrqQsO4DU9cADD7gBD6ZOneoGSgBibd261Xr06OEGVqlRo0ZhLw7ygZotFDm33HKLXX311TnOc/jhh7smgLGdSffs2eNGj8uueaCC1vfff++akkXq2rWr63CqjssofnyWmcgdXqdOneyggw5yB0ZlypRJyrKj6NCBTOnSpW3Dhg1R03U/u/Kh6XmZHyVLfspMQIPuKGy9//77duyxx3peUhTXMqNjFg2MccEFF4Sn7du3L9wyY9WqVXbEEUcUwJIjvwhbKHIOPvhgd8tNmzZtbPPmza7tc8uWLcNhShshDaOaXQ3ItddeGzVNQzWPHj06akOG4sVnmQlqtNQPp1y5cq52lDPQJVPZsmVduZg1a1Z4WGWVDd3v27dvtmVKj/fr1y88TSNdajpKvvyUGRk5cqTdd9999u6770b1IUXJl9cyo8tKLFu2LGra4MGD3QnARx991I1miSJuv4fYAApRp06dQscff3xo0aJFofnz54caNWoUuvzyy8OP//zzz6HGjRu7x7PDaISpJa9lZsuWLW50uebNm4e+++47N4JlcNPoUChZXn755VC5cuVCkydPdqNX9unTJ1SlSpXQ+vXr3eM9evQIDRw4MDz/Rx99FEpPTw89/PDDoRUrVoSGDRsWKlOmTGjZsmWF+ClQlMvMAw884EYz/c9//hO1Pdm6dWshfgoU5TITi9EIixdqtlCsTZkyxZ0JateunRvNR80Bx44dG35cIzypil2jPQH5KTO6BkowUuGRRx4Z9VqrV692F6VEyXHZZZfZxo0bbejQoW6QixYtWrjrqgWd2desWePKTUCD7bz44ovuTPO///1va9SokbtI+jHHHFOInwJFucyMHz/ejUh3ySWXRL2OrrlEX9DUkNcyg+ItTYmrsBcCAAAAAEoaYjMAAAAAeEDYAgAAAAAPCFsAAAAA4AFhCwAAAAA8IGwBAAAAgAeELQAAAADwgLAFAAAAAB4QtgAAAADAA8IWABRjP/74o6WlpdnSpUutqFi5cqWdfPLJVr58eWvRokXSXlefc9q0aTnOc/XVV1uXLl2K9fpDfB988IH7rjZv3lzYiwIACSNsAcB+0MG9DgAfeOCBqOkKBZqeioYNG2YVK1a0VatW2axZs5ISiuTXX3+1c889N8eQ9Oijj9rkyZMtGYL3yOmm94oNAcH9qlWr2o4dO6Jec/HixeHnBoL5493Wr1+f63L++eefNmjQIDviiCNcwD344IPtjDPOsDfeeCM8z5lnnmn9+vXL8lwtf5UqVXK8H2+5nn766VzXzV133ZWv9QkAJUl6YS8AABR3OsB98MEH7brrrnMH2CXBrl27rGzZsvl67vfff2+dO3e2ww47LKnLVLt27VznqVy5ctLer169ei7gBR5++GGbMWOGvf/++1Hvt2jRorjPP+igg2zq1Kl2+eWXh6c988wzVr9+fVuzZk2W+RVOK1WqFDWtZs2auS7nP//5T7cMjz32mDVr1sx+//13W7BggfubDFomLVskfe7zzz8/fP+VV16xoUOHRs134IEH5mt9AkBJQs0WAOyn9u3buyAwYsSIbOfRWf7YJnVjxoyxBg0aZKntuf/++61WrVquhmH48OG2Z88eu+2226xatWp26KGH2qRJk+I23Wvbtq0Lfsccc4x9+OGHUY9/9dVXrlZIB8B67R49ethvv/0WVfPRt29fV/tRo0YN69ixY9zPsW/fPrdMWo5y5cq5z6QD5oBqJ5YsWeLmiVe7kR29/0033WS33367+5xan7HPjWxG2LBhQ/f3+OOPd9P1/Mh1GNCynXrqqW5dVq9e3QUEhcFElC5d2i1HcNO6S09Pj5pWoUKFbJ/fs2dPe/bZZ8P3//rrL3v55Zfd9HgUrCJfW7dSpXLfTb/55pv273//28477zxXnlq2bGk33nijXXPNNZYMWr+xy6XPHXlfISl2vtiwldv61ImKO+64w60HlWN9b6oJzKlGT2X6lFNOCdcqqsatadOm7vlNmjSxJ554IkvN2uuvv25nnXWWHXDAAXbcccfZwoULw/P89NNPdsEFF7hlUe3s0UcfbW+//XZS1iOA1ETYAoD9pINIBSTVLPz888/79VqzZ8+2devW2dy5c23UqFGuSZ4Cgg7+VHuhWgzVoMW+j8LYLbfcYp9//rm1adPGHTAGNRs6ED377LNdMPn0009dANmwYYNdeumlUa/x3HPPudqsjz76yCZMmBB3+dRM75FHHnG1El9++aULZX/729/s22+/dY+r5kIHqFoW/X/rrbcm/Nn1/jrA1eccOXKkC2wzZ86MO+8nn3zi/qpWRO+jA+h4tm/fbgMGDHCfW00aFV4uuugiFxp9U6CdN29euBbrv//9rwtDJ5xwQlLfR0FFgWDr1q1WnCloax2pHHz22Wd25JFHuvK1adOmLPOqTJ9zzjnue1QZUZieMmWKq1277777bMWKFe43OWTIEPd6ke68805XLtUE9aijjnI1jzqhITfccIPt3LnT/f6WLVvmaqxjQyMA5AVhCwCSQAfwquVRONofqtUZO3asNW7c2NVM6K/O4KvmolGjRq5vjgLR/Pnzo56nWqmuXbu6s/rjx493NQ1qsiaPP/64C1o6+NTZfv2vGpc5c+bYN998E34Nvb5Cjt5Tt3gUslT70K1bNzePDkb1uVVLFxz4q7ZCB6jxajdycuyxx7r1p+W46qqrrFWrVtn2+VK/JFFtld5H6y0erZOLL77YHbhrOfW5dRD99ddfm2+qoVHNS9APSe+dU22Tagu1voKbQmsiJk6c6JoNal2ceOKJ1r9/fxeYY6mWJ/L1dVN4z82WLVuinpNIc868UihWuX3ooYfcOlNzyKeeesrVoAXlOKB+bOqTVqdOHXvrrbdcDZWo7OhEgL5v1Xzqr9bFk08+GfV8BS01c1XQuvvuu11t1nfffeceUzBWTVnz5s3t8MMPdyc6Tj/99KR/XgCpg7AFAEmi4KGz6Dqrnl86wI5sOqYmfzrwi6xF00F1RkZG1PNUmxVQ2FFQCZbjiy++cMEq8oBZoUsim9Sp+VlOMjMzXa2bDkYj6f7+fObIsBVJB9OxnzOvVOOmmgsdOKvvUdBsM16fKR8UrhS2fvjhB9dcrXv37tnOq1ow1bYEt0SbrykM6PUVTC+55BJbvny5nXbaaXbPPfdEzaf3jnx93VR7mBv1PYt8joJdsqkc7t69O6pslSlTxk466aQsZUs1WgrP6icW9CtUWNNr9OrVK6qc33vvvVmajUaWM5UxCcqZmrLqOVoOhTfV3gLA/mCADABIEh30qtmTap/UdyiSAlQoFIqapoPLWDrAjKQ+JvGm5aUZ3LZt21yzQoXBWMHBpqgJX2Ha388Zjz63BupQLUndunXd66lPmwYAKQiqpenTp48LAVoWBeXsqDYmciTAvK47BSzdVPOowKAgpf+DQKLaToWUvA7AobIb+7zCpFopNTdU7WRwIkJlXPQ9t27dOmp+naDIrpwFo0IG5ezaa691v+H//e9/9t5777l+mKotUx84AMgParYAIIk0BLyaNkV2ug+avan5U2TgSua1nT7++OPw/+p/okEq1KRQ1EdItR2q1dFBc+QtLwFLNUMKLLFN1HRfzb4KUhAg9u7dm+086rOm0fEGDx5s7dq1c+vjjz/+KMCl/P+1jGoSqeHdkzVgRSL0fagcxA49X1Rp2Pqgv2DkyQgNkBFbtvQb0yAj+k6D5qCqAVbZVA1fbBkPBlNJlEZNVPNK9QNU30MFOADIL2q2ACCJdKZdzbXU7yqSRsvbuHGj6xOlpl4apOKdd97JMtR3fo0bN871dVKgGD16tAsVwcG9Ov3rgFHN6YLR/tRHRSPjafS22DP/OdFAHGpepYNj9YHSyIgKjRqcoCCpRkb9ebQe1ddJo8/FDhuuQUVUk6Q+TarBU9PBgQMHWkFTcz6tt5xqtYKmbLHhSM+JrfGLpbKl71ZNRzW/Aoj6+GnEvWSVL98U+q+//vrwqJsaHl+/FfVXVK1gvL6DCtoa+EVBVs1i1f9KzQBVDjp16uQGutDAKPotaJCURGg0TtVGqj+Xnqfmt8FJCwDID2q2ACDJ1HwrtvmbDtg0QIFCkYab1mh6eRmpLzc626+bXluDZ2g4cA3hLkFtlA5OO3To4AKhDirVZC2RocUj6WBWB64646/XUdjReynoFXSNkQKtBj/Q57vwwguzzKPPpkCpWj41HdRgCRqAoaCpxkbfRW4XudaAIwqFkTcte27U7E19BfXdqpypyZumvfrqq1acqPxqQBON4qjaWJ0QePfdd7O9dp1OKmhETQUuDfSiJoA6eaATACqbGkRD/eXyUrOl34hOTmg9KrApdEUOHw8AeZUWiu1EAAAAAADYb9RsAQAAAIAHhC0AAIqw2GtjRd40XDwAoOiiGSEAAEVYcMHdeA455BA3UAgAoGgibAEAAACABzQjBAAAAAAPCFsAAAAA4AFhCwAAAAA8IGwBAAAAgAeELQAAAADwgLAFAAAAAB4QtgAAAADAku//AdoI8u3NE7XlAAAAAElFTkSuQmCC",
      "text/plain": [
       "<Figure size 1000x500 with 1 Axes>"
      ]
     },
     "metadata": {},
     "output_type": "display_data"
    }
   ],
   "source": [
    "def count_initial_time_shifts(sequences, id_to_token):\n",
    "    time_shift_counts = []\n",
    "    for seq in sequences:\n",
    "        count = 0\n",
    "        for token_id in seq:\n",
    "            token = id_to_token.get(token_id, \"\")\n",
    "            if token.startswith(\"TIME_SHIFT_\"):\n",
    "                count += 1\n",
    "            else:\n",
    "                break  # Stop counting once a non-time-shift token is encountered\n",
    "        time_shift_counts.append(count)\n",
    "    return time_shift_counts\n",
    "\n",
    "def count_ending_time_shifts(sequences, id_to_token):\n",
    "    time_shift_counts = []\n",
    "    for seq in sequences:\n",
    "        count = 0\n",
    "        for token_id in reversed(seq):  # Iterate from the end\n",
    "            token = id_to_token.get(token_id, \"\")\n",
    "            if token.startswith(\"TIME_SHIFT_\"):\n",
    "                count += 1\n",
    "            else:\n",
    "                break  # Stop counting once a non-time-shift token is encountered\n",
    "        time_shift_counts.append(count)\n",
    "    return time_shift_counts\n",
    "\n",
    "initial_time_shifts = count_initial_time_shifts(train_sequences, id_to_token)\n",
    "print(f\"🔹 Average initial TIME_SHIFT tokens: {np.mean(initial_time_shifts):.2f}\")\n",
    "\n",
    "ending_time_shifts = count_ending_time_shifts(train_sequences, id_to_token)\n",
    "print(f\"🔹 Average ending TIME_SHIFT tokens: {np.mean(ending_time_shifts):.2f}\")\n",
    "\n",
    "\n",
    "plt.figure(figsize=(10, 5))\n",
    "sns.histplot(initial_time_shifts, bins=300, kde=True)\n",
    "plt.xlabel(\"Number of Initial TIME_SHIFT Tokens\")\n",
    "plt.ylabel(\"Count\")\n",
    "plt.title(\"Distribution of Initial TIME_SHIFT Tokens in Training Sequences\")\n",
    "plt.show()\n"
   ]
  },
  {
   "cell_type": "code",
   "execution_count": 39,
   "id": "3437ec6a-164a-427a-b290-2bb8f472808d",
   "metadata": {},
   "outputs": [
    {
     "name": "stdout",
     "output_type": "stream",
     "text": [
      "🔹 Average Silence Proportion: 0.23%\n",
      "🔹 Median Silence Proportion: 0.10%\n",
      "🔹 Max Silence Proportion: 7.31%\n",
      "🔹 Min Silence Proportion: 0.00%\n"
     ]
    }
   ],
   "source": [
    "import numpy as np\n",
    "\n",
    "# Function to compute the proportion of initial TIME_SHIFT tokens per sequence\n",
    "def compute_time_shift_proportions(sequences, id_to_token):\n",
    "    proportions = []\n",
    "    \n",
    "    for seq in sequences:\n",
    "        total_length = len(seq)\n",
    "        time_shift_count = 0\n",
    "\n",
    "        # Count initial TIME_SHIFT tokens\n",
    "        for token_id in seq:\n",
    "            token = id_to_token.get(token_id, \"\")\n",
    "            if token.startswith(\"TIME_SHIFT_\"):\n",
    "                time_shift_count += 1\n",
    "            else:\n",
    "                break  # Stop once a non-TIME_SHIFT token is encountered\n",
    "\n",
    "        # Compute proportion of silence in the song\n",
    "        proportion = time_shift_count / total_length if total_length > 0 else 0\n",
    "        proportions.append(proportion)\n",
    "\n",
    "    return proportions\n",
    "\n",
    "# Compute proportions for training data\n",
    "time_shift_proportions = compute_time_shift_proportions(train_sequences, id_to_token)\n",
    "\n",
    "# Display basic statistics\n",
    "print(f\"🔹 Average Silence Proportion: {np.mean(time_shift_proportions):.2%}\")\n",
    "print(f\"🔹 Median Silence Proportion: {np.median(time_shift_proportions):.2%}\")\n",
    "print(f\"🔹 Max Silence Proportion: {np.max(time_shift_proportions):.2%}\")\n",
    "print(f\"🔹 Min Silence Proportion: {np.min(time_shift_proportions):.2%}\")"
   ]
  },
  {
   "cell_type": "code",
   "execution_count": 55,
   "id": "31451b26",
   "metadata": {},
   "outputs": [
    {
     "name": "stdout",
     "output_type": "stream",
     "text": [
      "🔹 Sequences with >50 Ending TIME_SHIFT Tokens: 47/1000 (4.70%)\n"
     ]
    }
   ],
   "source": [
    "silent_endings = sum(1 for count in ending_time_shifts if count > 30)  # Threshold for excessive silence\n",
    "total_sequences = len(ending_time_shifts)\n",
    "\n",
    "print(f\"🔹 Sequences with >50 Ending TIME_SHIFT Tokens: {silent_endings}/{total_sequences} ({silent_endings / total_sequences * 100:.2f}%)\")\n"
   ]
  },
  {
   "cell_type": "code",
   "execution_count": null,
   "id": "4cb26ceb",
   "metadata": {},
   "outputs": [],
   "source": []
  }
 ],
 "metadata": {
  "kernelspec": {
   "display_name": "venv",
   "language": "python",
   "name": "python3"
  },
  "language_info": {
   "codemirror_mode": {
    "name": "ipython",
    "version": 3
   },
   "file_extension": ".py",
   "mimetype": "text/x-python",
   "name": "python",
   "nbconvert_exporter": "python",
   "pygments_lexer": "ipython3",
   "version": "3.11.5"
  }
 },
 "nbformat": 4,
 "nbformat_minor": 5
}
